ISO-10303-21;
HEADER;
/* Generated by software containing ST-Developer
 * from STEP Tools, Inc. (www.steptools.com) 
 */

FILE_DESCRIPTION(
/* description */ (''),
/* implementation_level */ '2;1');

FILE_NAME(
/* name */ 'Link.step',
/* time_stamp */ '2026-08-23T20:26:37+05:30',
/* author */ (''),
/* organization */ (''),
/* preprocessor_version */ 'ST-DEVELOPER v20.1',
/* originating_system */ 'Autodesk Translation Framework v15.8.0.0',
/* authorisation */ '');

FILE_SCHEMA (('AUTOMOTIVE_DESIGN { 1 0 10303 214 3 1 1 }'));
ENDSEC;

DATA;
#10=MECHANICAL_DESIGN_GEOMETRIC_PRESENTATION_REPRESENTATION('',(#13),#405);
#11=SHAPE_REPRESENTATION_RELATIONSHIP('SRR','None',#412,#12);
#12=ADVANCED_BREP_SHAPE_REPRESENTATION('',(#14),#404);
#13=STYLED_ITEM('',(#421),#14);
#14=MANIFOLD_SOLID_BREP('Body1',#225);
#15=FACE_BOUND('',#46,.T.);
#16=FACE_BOUND('',#47,.T.);
#17=FACE_BOUND('',#49,.T.);
#18=FACE_BOUND('',#50,.T.);
#19=PLANE('',#248);
#20=PLANE('',#258);
#21=PLANE('',#265);
#22=PLANE('',#266);
#23=FACE_OUTER_BOUND('',#35,.T.);
#24=FACE_OUTER_BOUND('',#36,.T.);
#25=FACE_OUTER_BOUND('',#37,.T.);
#26=FACE_OUTER_BOUND('',#38,.T.);
#27=FACE_OUTER_BOUND('',#39,.T.);
#28=FACE_OUTER_BOUND('',#40,.T.);
#29=FACE_OUTER_BOUND('',#41,.T.);
#30=FACE_OUTER_BOUND('',#42,.T.);
#31=FACE_OUTER_BOUND('',#43,.T.);
#32=FACE_OUTER_BOUND('',#44,.T.);
#33=FACE_OUTER_BOUND('',#45,.T.);
#34=FACE_OUTER_BOUND('',#48,.T.);
#35=EDGE_LOOP('',(#145,#146,#147,#148));
#36=EDGE_LOOP('',(#149,#150,#151,#152));
#37=EDGE_LOOP('',(#153,#154,#155,#156));
#38=EDGE_LOOP('',(#157,#158,#159,#160));
#39=EDGE_LOOP('',(#161,#162,#163,#164));
#40=EDGE_LOOP('',(#165,#166,#167,#168));
#41=EDGE_LOOP('',(#169,#170,#171,#172));
#42=EDGE_LOOP('',(#173,#174,#175,#176));
#43=EDGE_LOOP('',(#177,#178,#179,#180));
#44=EDGE_LOOP('',(#181,#182,#183,#184));
#45=EDGE_LOOP('',(#185,#186,#187,#188,#189,#190,#191,#192));
#46=EDGE_LOOP('',(#193));
#47=EDGE_LOOP('',(#194));
#48=EDGE_LOOP('',(#195,#196,#197,#198,#199,#200,#201,#202));
#49=EDGE_LOOP('',(#203));
#50=EDGE_LOOP('',(#204));
#51=LINE('',#345,#65);
#52=LINE('',#348,#66);
#53=LINE('',#353,#67);
#54=LINE('',#360,#68);
#55=LINE('',#363,#69);
#56=LINE('',#365,#70);
#57=LINE('',#366,#71);
#58=LINE('',#372,#72);
#59=LINE('',#375,#73);
#60=LINE('',#383,#74);
#61=LINE('',#386,#75);
#62=LINE('',#387,#76);
#63=LINE('',#392,#77);
#64=LINE('',#398,#78);
#65=VECTOR('',#273,10.);
#66=VECTOR('',#276,10.);
#67=VECTOR('',#281,10.);
#68=VECTOR('',#288,10.);
#69=VECTOR('',#291,10.);
#70=VECTOR('',#294,10.);
#71=VECTOR('',#295,10.);
#72=VECTOR('',#300,10.);
#73=VECTOR('',#303,10.);
#74=VECTOR('',#314,10.);
#75=VECTOR('',#319,10.);
#76=VECTOR('',#320,10.);
#77=VECTOR('',#325,1.5);
#78=VECTOR('',#332,1.5);
#79=CIRCLE('',#240,3.);
#80=CIRCLE('',#241,3.);
#81=CIRCLE('',#243,4.);
#82=CIRCLE('',#244,4.);
#83=CIRCLE('',#246,3.);
#84=CIRCLE('',#247,3.);
#85=CIRCLE('',#250,3.);
#86=CIRCLE('',#251,3.);
#87=CIRCLE('',#253,4.);
#88=CIRCLE('',#254,4.);
#89=CIRCLE('',#256,3.);
#90=CIRCLE('',#257,3.);
#91=CIRCLE('',#260,1.5);
#92=CIRCLE('',#261,1.5);
#93=CIRCLE('',#263,1.5);
#94=CIRCLE('',#264,1.5);
#95=VERTEX_POINT('',#341);
#96=VERTEX_POINT('',#342);
#97=VERTEX_POINT('',#344);
#98=VERTEX_POINT('',#346);
#99=VERTEX_POINT('',#350);
#100=VERTEX_POINT('',#352);
#101=VERTEX_POINT('',#356);
#102=VERTEX_POINT('',#357);
#103=VERTEX_POINT('',#359);
#104=VERTEX_POINT('',#361);
#105=VERTEX_POINT('',#368);
#106=VERTEX_POINT('',#369);
#107=VERTEX_POINT('',#371);
#108=VERTEX_POINT('',#373);
#109=VERTEX_POINT('',#380);
#110=VERTEX_POINT('',#382);
#111=VERTEX_POINT('',#389);
#112=VERTEX_POINT('',#391);
#113=VERTEX_POINT('',#395);
#114=VERTEX_POINT('',#397);
#115=EDGE_CURVE('',#95,#96,#79,.T.);
#116=EDGE_CURVE('',#96,#97,#51,.T.);
#117=EDGE_CURVE('',#97,#98,#80,.T.);
#118=EDGE_CURVE('',#98,#95,#52,.T.);
#119=EDGE_CURVE('',#96,#99,#81,.T.);
#120=EDGE_CURVE('',#100,#99,#53,.T.);
#121=EDGE_CURVE('',#97,#100,#82,.T.);
#122=EDGE_CURVE('',#101,#102,#83,.T.);
#123=EDGE_CURVE('',#102,#103,#54,.T.);
#124=EDGE_CURVE('',#103,#104,#84,.T.);
#125=EDGE_CURVE('',#104,#101,#55,.T.);
#126=EDGE_CURVE('',#103,#98,#56,.T.);
#127=EDGE_CURVE('',#95,#102,#57,.T.);
#128=EDGE_CURVE('',#105,#106,#85,.T.);
#129=EDGE_CURVE('',#106,#107,#58,.T.);
#130=EDGE_CURVE('',#107,#108,#86,.T.);
#131=EDGE_CURVE('',#108,#105,#59,.T.);
#132=EDGE_CURVE('',#107,#104,#87,.T.);
#133=EDGE_CURVE('',#106,#101,#88,.T.);
#134=EDGE_CURVE('',#99,#109,#89,.T.);
#135=EDGE_CURVE('',#109,#110,#60,.T.);
#136=EDGE_CURVE('',#110,#100,#90,.T.);
#137=EDGE_CURVE('',#110,#108,#61,.T.);
#138=EDGE_CURVE('',#105,#109,#62,.T.);
#139=EDGE_CURVE('',#111,#111,#91,.T.);
#140=EDGE_CURVE('',#111,#112,#63,.T.);
#141=EDGE_CURVE('',#112,#112,#92,.T.);
#142=EDGE_CURVE('',#113,#113,#93,.T.);
#143=EDGE_CURVE('',#113,#114,#64,.T.);
#144=EDGE_CURVE('',#114,#114,#94,.T.);
#145=ORIENTED_EDGE('',*,*,#115,.T.);
#146=ORIENTED_EDGE('',*,*,#116,.T.);
#147=ORIENTED_EDGE('',*,*,#117,.T.);
#148=ORIENTED_EDGE('',*,*,#118,.T.);
#149=ORIENTED_EDGE('',*,*,#116,.F.);
#150=ORIENTED_EDGE('',*,*,#119,.T.);
#151=ORIENTED_EDGE('',*,*,#120,.F.);
#152=ORIENTED_EDGE('',*,*,#121,.F.);
#153=ORIENTED_EDGE('',*,*,#122,.T.);
#154=ORIENTED_EDGE('',*,*,#123,.T.);
#155=ORIENTED_EDGE('',*,*,#124,.T.);
#156=ORIENTED_EDGE('',*,*,#125,.T.);
#157=ORIENTED_EDGE('',*,*,#118,.F.);
#158=ORIENTED_EDGE('',*,*,#126,.F.);
#159=ORIENTED_EDGE('',*,*,#123,.F.);
#160=ORIENTED_EDGE('',*,*,#127,.F.);
#161=ORIENTED_EDGE('',*,*,#128,.T.);
#162=ORIENTED_EDGE('',*,*,#129,.T.);
#163=ORIENTED_EDGE('',*,*,#130,.T.);
#164=ORIENTED_EDGE('',*,*,#131,.T.);
#165=ORIENTED_EDGE('',*,*,#125,.F.);
#166=ORIENTED_EDGE('',*,*,#132,.F.);
#167=ORIENTED_EDGE('',*,*,#129,.F.);
#168=ORIENTED_EDGE('',*,*,#133,.T.);
#169=ORIENTED_EDGE('',*,*,#134,.T.);
#170=ORIENTED_EDGE('',*,*,#135,.T.);
#171=ORIENTED_EDGE('',*,*,#136,.T.);
#172=ORIENTED_EDGE('',*,*,#120,.T.);
#173=ORIENTED_EDGE('',*,*,#131,.F.);
#174=ORIENTED_EDGE('',*,*,#137,.F.);
#175=ORIENTED_EDGE('',*,*,#135,.F.);
#176=ORIENTED_EDGE('',*,*,#138,.F.);
#177=ORIENTED_EDGE('',*,*,#139,.F.);
#178=ORIENTED_EDGE('',*,*,#140,.T.);
#179=ORIENTED_EDGE('',*,*,#141,.T.);
#180=ORIENTED_EDGE('',*,*,#140,.F.);
#181=ORIENTED_EDGE('',*,*,#142,.F.);
#182=ORIENTED_EDGE('',*,*,#143,.T.);
#183=ORIENTED_EDGE('',*,*,#144,.T.);
#184=ORIENTED_EDGE('',*,*,#143,.F.);
#185=ORIENTED_EDGE('',*,*,#132,.T.);
#186=ORIENTED_EDGE('',*,*,#124,.F.);
#187=ORIENTED_EDGE('',*,*,#126,.T.);
#188=ORIENTED_EDGE('',*,*,#117,.F.);
#189=ORIENTED_EDGE('',*,*,#121,.T.);
#190=ORIENTED_EDGE('',*,*,#136,.F.);
#191=ORIENTED_EDGE('',*,*,#137,.T.);
#192=ORIENTED_EDGE('',*,*,#130,.F.);
#193=ORIENTED_EDGE('',*,*,#142,.T.);
#194=ORIENTED_EDGE('',*,*,#139,.T.);
#195=ORIENTED_EDGE('',*,*,#128,.F.);
#196=ORIENTED_EDGE('',*,*,#138,.T.);
#197=ORIENTED_EDGE('',*,*,#134,.F.);
#198=ORIENTED_EDGE('',*,*,#119,.F.);
#199=ORIENTED_EDGE('',*,*,#115,.F.);
#200=ORIENTED_EDGE('',*,*,#127,.T.);
#201=ORIENTED_EDGE('',*,*,#122,.F.);
#202=ORIENTED_EDGE('',*,*,#133,.F.);
#203=ORIENTED_EDGE('',*,*,#144,.F.);
#204=ORIENTED_EDGE('',*,*,#141,.F.);
#205=CYLINDRICAL_SURFACE('',#239,3.);
#206=CYLINDRICAL_SURFACE('',#242,4.);
#207=CYLINDRICAL_SURFACE('',#245,3.);
#208=CYLINDRICAL_SURFACE('',#249,3.);
#209=CYLINDRICAL_SURFACE('',#252,4.);
#210=CYLINDRICAL_SURFACE('',#255,3.);
#211=CYLINDRICAL_SURFACE('',#259,1.5);
#212=CYLINDRICAL_SURFACE('',#262,1.5);
#213=ADVANCED_FACE('',(#23),#205,.F.);
#214=ADVANCED_FACE('',(#24),#206,.T.);
#215=ADVANCED_FACE('',(#25),#207,.F.);
#216=ADVANCED_FACE('',(#26),#19,.T.);
#217=ADVANCED_FACE('',(#27),#208,.F.);
#218=ADVANCED_FACE('',(#28),#209,.T.);
#219=ADVANCED_FACE('',(#29),#210,.F.);
#220=ADVANCED_FACE('',(#30),#20,.T.);
#221=ADVANCED_FACE('',(#31),#211,.F.);
#222=ADVANCED_FACE('',(#32),#212,.F.);
#223=ADVANCED_FACE('',(#33,#15,#16),#21,.T.);
#224=ADVANCED_FACE('',(#34,#17,#18),#22,.F.);
#225=CLOSED_SHELL('',(#213,#214,#215,#216,#217,#218,#219,#220,#221,#222,
#223,#224));
#226=DERIVED_UNIT_ELEMENT(#228,1.);
#227=DERIVED_UNIT_ELEMENT(#407,-3.);
#228=(
MASS_UNIT()
NAMED_UNIT(*)
SI_UNIT(.KILO.,.GRAM.)
);
#229=DERIVED_UNIT((#226,#227));
#230=MEASURE_REPRESENTATION_ITEM('density measure',
POSITIVE_RATIO_MEASURE(7850.),#229);
#231=PROPERTY_DEFINITION_REPRESENTATION(#236,#233);
#232=PROPERTY_DEFINITION_REPRESENTATION(#237,#234);
#233=REPRESENTATION('material name',(#235),#404);
#234=REPRESENTATION('density',(#230),#404);
#235=DESCRIPTIVE_REPRESENTATION_ITEM('Steel','Steel');
#236=PROPERTY_DEFINITION('material property','material name',#414);
#237=PROPERTY_DEFINITION('material property','density of part',#414);
#238=AXIS2_PLACEMENT_3D('',#339,#267,#268);
#239=AXIS2_PLACEMENT_3D('',#340,#269,#270);
#240=AXIS2_PLACEMENT_3D('',#343,#271,#272);
#241=AXIS2_PLACEMENT_3D('',#347,#274,#275);
#242=AXIS2_PLACEMENT_3D('',#349,#277,#278);
#243=AXIS2_PLACEMENT_3D('',#351,#279,#280);
#244=AXIS2_PLACEMENT_3D('',#354,#282,#283);
#245=AXIS2_PLACEMENT_3D('',#355,#284,#285);
#246=AXIS2_PLACEMENT_3D('',#358,#286,#287);
#247=AXIS2_PLACEMENT_3D('',#362,#289,#290);
#248=AXIS2_PLACEMENT_3D('',#364,#292,#293);
#249=AXIS2_PLACEMENT_3D('',#367,#296,#297);
#250=AXIS2_PLACEMENT_3D('',#370,#298,#299);
#251=AXIS2_PLACEMENT_3D('',#374,#301,#302);
#252=AXIS2_PLACEMENT_3D('',#376,#304,#305);
#253=AXIS2_PLACEMENT_3D('',#377,#306,#307);
#254=AXIS2_PLACEMENT_3D('',#378,#308,#309);
#255=AXIS2_PLACEMENT_3D('',#379,#310,#311);
#256=AXIS2_PLACEMENT_3D('',#381,#312,#313);
#257=AXIS2_PLACEMENT_3D('',#384,#315,#316);
#258=AXIS2_PLACEMENT_3D('',#385,#317,#318);
#259=AXIS2_PLACEMENT_3D('',#388,#321,#322);
#260=AXIS2_PLACEMENT_3D('',#390,#323,#324);
#261=AXIS2_PLACEMENT_3D('',#393,#326,#327);
#262=AXIS2_PLACEMENT_3D('',#394,#328,#329);
#263=AXIS2_PLACEMENT_3D('',#396,#330,#331);
#264=AXIS2_PLACEMENT_3D('',#399,#333,#334);
#265=AXIS2_PLACEMENT_3D('',#400,#335,#336);
#266=AXIS2_PLACEMENT_3D('',#401,#337,#338);
#267=DIRECTION('axis',(0.,0.,1.));
#268=DIRECTION('refdir',(1.,0.,0.));
#269=DIRECTION('center_axis',(0.,0.,1.));
#270=DIRECTION('ref_axis',(-0.327326835353988,-0.944911182523068,0.));
#271=DIRECTION('center_axis',(0.,0.,-1.));
#272=DIRECTION('ref_axis',(-0.327326835353988,-0.944911182523068,0.));
#273=DIRECTION('',(0.,0.,1.));
#274=DIRECTION('center_axis',(0.,0.,1.));
#275=DIRECTION('ref_axis',(-0.327326835353988,-0.944911182523068,0.));
#276=DIRECTION('',(0.,0.,-1.));
#277=DIRECTION('center_axis',(0.,0.,1.));
#278=DIRECTION('ref_axis',(-1.,1.45473230946492E-15,0.));
#279=DIRECTION('center_axis',(0.,0.,1.));
#280=DIRECTION('ref_axis',(1.,0.,0.));
#281=DIRECTION('',(0.,0.,-1.));
#282=DIRECTION('center_axis',(0.,0.,1.));
#283=DIRECTION('ref_axis',(1.,0.,0.));
#284=DIRECTION('center_axis',(0.,0.,1.));
#285=DIRECTION('ref_axis',(0.327326835353989,-0.944911182523068,0.));
#286=DIRECTION('center_axis',(0.,0.,-1.));
#287=DIRECTION('ref_axis',(0.327326835353989,-0.944911182523068,0.));
#288=DIRECTION('',(0.,0.,1.));
#289=DIRECTION('center_axis',(0.,0.,1.));
#290=DIRECTION('ref_axis',(0.327326835353989,-0.944911182523068,0.));
#291=DIRECTION('',(0.,0.,-1.));
#292=DIRECTION('center_axis',(0.,1.,0.));
#293=DIRECTION('ref_axis',(-1.,0.,0.));
#294=DIRECTION('',(-1.,0.,0.));
#295=DIRECTION('',(1.,0.,0.));
#296=DIRECTION('center_axis',(0.,0.,1.));
#297=DIRECTION('ref_axis',(0.327326835353989,0.944911182523068,0.));
#298=DIRECTION('center_axis',(0.,0.,-1.));
#299=DIRECTION('ref_axis',(0.327326835353989,0.944911182523068,0.));
#300=DIRECTION('',(0.,0.,1.));
#301=DIRECTION('center_axis',(0.,0.,1.));
#302=DIRECTION('ref_axis',(0.327326835353989,0.944911182523068,0.));
#303=DIRECTION('',(0.,0.,-1.));
#304=DIRECTION('center_axis',(0.,0.,1.));
#305=DIRECTION('ref_axis',(1.,0.,0.));
#306=DIRECTION('center_axis',(0.,0.,1.));
#307=DIRECTION('ref_axis',(1.,0.,0.));
#308=DIRECTION('center_axis',(0.,0.,1.));
#309=DIRECTION('ref_axis',(1.,0.,0.));
#310=DIRECTION('center_axis',(0.,0.,1.));
#311=DIRECTION('ref_axis',(-0.327326835353987,0.944911182523069,0.));
#312=DIRECTION('center_axis',(0.,0.,-1.));
#313=DIRECTION('ref_axis',(-0.327326835353987,0.944911182523069,0.));
#314=DIRECTION('',(0.,0.,1.));
#315=DIRECTION('center_axis',(0.,0.,1.));
#316=DIRECTION('ref_axis',(-0.327326835353987,0.944911182523069,0.));
#317=DIRECTION('center_axis',(5.60605400351677E-16,-1.,0.));
#318=DIRECTION('ref_axis',(1.,5.60605400351677E-16,0.));
#319=DIRECTION('',(1.,5.60605400351677E-16,0.));
#320=DIRECTION('',(-1.,-5.60605400351677E-16,0.));
#321=DIRECTION('center_axis',(0.,0.,1.));
#322=DIRECTION('ref_axis',(1.,0.,0.));
#323=DIRECTION('center_axis',(0.,0.,-1.));
#324=DIRECTION('ref_axis',(1.,0.,0.));
#325=DIRECTION('',(0.,0.,-1.));
#326=DIRECTION('center_axis',(0.,0.,-1.));
#327=DIRECTION('ref_axis',(1.,0.,0.));
#328=DIRECTION('center_axis',(0.,0.,1.));
#329=DIRECTION('ref_axis',(1.,0.,0.));
#330=DIRECTION('center_axis',(0.,0.,-1.));
#331=DIRECTION('ref_axis',(1.,0.,0.));
#332=DIRECTION('',(0.,0.,-1.));
#333=DIRECTION('center_axis',(0.,0.,-1.));
#334=DIRECTION('ref_axis',(1.,0.,0.));
#335=DIRECTION('center_axis',(0.,0.,1.));
#336=DIRECTION('ref_axis',(1.,0.,0.));
#337=DIRECTION('center_axis',(0.,0.,1.));
#338=DIRECTION('ref_axis',(1.,0.,0.));
#339=CARTESIAN_POINT('',(0.,0.,0.));
#340=CARTESIAN_POINT('Origin',(-11.1698729810778,5.5,0.));
#341=CARTESIAN_POINT('',(-11.1698729810778,2.5,0.));
#342=CARTESIAN_POINT('',(-13.025641703473,3.14285714285714,0.));
#343=CARTESIAN_POINT('Origin',(-11.1698729810778,5.5,0.));
#344=CARTESIAN_POINT('',(-13.025641703473,3.14285714285714,4.));
#345=CARTESIAN_POINT('',(-13.025641703473,3.14285714285714,0.));
#346=CARTESIAN_POINT('',(-11.1698729810778,2.5,4.));
#347=CARTESIAN_POINT('Origin',(-11.1698729810778,5.5,4.));
#348=CARTESIAN_POINT('',(-11.1698729810778,2.5,0.));
#349=CARTESIAN_POINT('Origin',(-15.5,0.,0.));
#350=CARTESIAN_POINT('',(-13.025641703473,-3.14285714285715,0.));
#351=CARTESIAN_POINT('Origin',(-15.5,0.,0.));
#352=CARTESIAN_POINT('',(-13.025641703473,-3.14285714285715,4.));
#353=CARTESIAN_POINT('',(-13.025641703473,-3.14285714285715,0.));
#354=CARTESIAN_POINT('Origin',(-15.5,0.,4.));
#355=CARTESIAN_POINT('Origin',(11.1698729810778,5.5,0.));
#356=CARTESIAN_POINT('',(13.025641703473,3.14285714285714,0.));
#357=CARTESIAN_POINT('',(11.1698729810778,2.5,0.));
#358=CARTESIAN_POINT('Origin',(11.1698729810778,5.5,0.));
#359=CARTESIAN_POINT('',(11.1698729810778,2.5,4.));
#360=CARTESIAN_POINT('',(11.1698729810778,2.5,0.));
#361=CARTESIAN_POINT('',(13.025641703473,3.14285714285714,4.));
#362=CARTESIAN_POINT('Origin',(11.1698729810778,5.5,4.));
#363=CARTESIAN_POINT('',(13.025641703473,3.14285714285714,0.));
#364=CARTESIAN_POINT('Origin',(12.3775010008008,2.5,0.));
#365=CARTESIAN_POINT('',(-12.3775010008009,2.5,4.));
#366=CARTESIAN_POINT('',(-12.3775010008009,2.5,0.));
#367=CARTESIAN_POINT('Origin',(11.1698729810778,-5.5,0.));
#368=CARTESIAN_POINT('',(11.1698729810778,-2.5,0.));
#369=CARTESIAN_POINT('',(13.025641703473,-3.14285714285714,0.));
#370=CARTESIAN_POINT('Origin',(11.1698729810778,-5.5,0.));
#371=CARTESIAN_POINT('',(13.025641703473,-3.14285714285714,4.));
#372=CARTESIAN_POINT('',(13.025641703473,-3.14285714285714,0.));
#373=CARTESIAN_POINT('',(11.1698729810778,-2.5,4.));
#374=CARTESIAN_POINT('Origin',(11.1698729810778,-5.5,4.));
#375=CARTESIAN_POINT('',(11.1698729810778,-2.5,0.));
#376=CARTESIAN_POINT('Origin',(15.5,0.,0.));
#377=CARTESIAN_POINT('Origin',(15.5,0.,4.));
#378=CARTESIAN_POINT('Origin',(15.5,0.,0.));
#379=CARTESIAN_POINT('Origin',(-11.1698729810778,-5.50000000000001,0.));
#380=CARTESIAN_POINT('',(-11.1698729810778,-2.50000000000001,0.));
#381=CARTESIAN_POINT('Origin',(-11.1698729810778,-5.50000000000001,0.));
#382=CARTESIAN_POINT('',(-11.1698729810778,-2.50000000000001,4.));
#383=CARTESIAN_POINT('',(-11.1698729810778,-2.50000000000001,0.));
#384=CARTESIAN_POINT('Origin',(-11.1698729810778,-5.50000000000001,4.));
#385=CARTESIAN_POINT('Origin',(-12.3775010008009,-2.50000000000001,0.));
#386=CARTESIAN_POINT('',(12.3775010008008,-2.5,4.));
#387=CARTESIAN_POINT('',(12.3775010008008,-2.5,0.));
#388=CARTESIAN_POINT('Origin',(15.5,0.,0.));
#389=CARTESIAN_POINT('',(14.,-1.83697019872103E-16,4.));
#390=CARTESIAN_POINT('Origin',(15.5,0.,4.));
#391=CARTESIAN_POINT('',(14.,-1.83697019872103E-16,0.));
#392=CARTESIAN_POINT('',(14.,-1.83697019872103E-16,0.));
#393=CARTESIAN_POINT('Origin',(15.5,0.,0.));
#394=CARTESIAN_POINT('Origin',(-15.5,0.,0.));
#395=CARTESIAN_POINT('',(-17.,-1.83697019872103E-16,4.));
#396=CARTESIAN_POINT('Origin',(-15.5,0.,4.));
#397=CARTESIAN_POINT('',(-17.,-1.83697019872103E-16,0.));
#398=CARTESIAN_POINT('',(-17.,-1.83697019872103E-16,0.));
#399=CARTESIAN_POINT('Origin',(-15.5,0.,0.));
#400=CARTESIAN_POINT('Origin',(0.,0.,4.));
#401=CARTESIAN_POINT('Origin',(0.,0.,0.));
#402=UNCERTAINTY_MEASURE_WITH_UNIT(LENGTH_MEASURE(0.01),#406,
'DISTANCE_ACCURACY_VALUE',
'Maximum model space distance between geometric entities at asserted c
onnectivities');
#403=UNCERTAINTY_MEASURE_WITH_UNIT(LENGTH_MEASURE(0.01),#406,
'DISTANCE_ACCURACY_VALUE',
'Maximum model space distance between geometric entities at asserted c
onnectivities');
#404=(
GEOMETRIC_REPRESENTATION_CONTEXT(3)
GLOBAL_UNCERTAINTY_ASSIGNED_CONTEXT((#402))
GLOBAL_UNIT_ASSIGNED_CONTEXT((#406,#408,#409))
REPRESENTATION_CONTEXT('','3D')
);
#405=(
GEOMETRIC_REPRESENTATION_CONTEXT(3)
GLOBAL_UNCERTAINTY_ASSIGNED_CONTEXT((#403))
GLOBAL_UNIT_ASSIGNED_CONTEXT((#406,#408,#409))
REPRESENTATION_CONTEXT('','3D')
);
#406=(
LENGTH_UNIT()
NAMED_UNIT(*)
SI_UNIT(.MILLI.,.METRE.)
);
#407=(
LENGTH_UNIT()
NAMED_UNIT(*)
SI_UNIT($,.METRE.)
);
#408=(
NAMED_UNIT(*)
PLANE_ANGLE_UNIT()
SI_UNIT($,.RADIAN.)
);
#409=(
NAMED_UNIT(*)
SI_UNIT($,.STERADIAN.)
SOLID_ANGLE_UNIT()
);
#410=SHAPE_DEFINITION_REPRESENTATION(#411,#412);
#411=PRODUCT_DEFINITION_SHAPE('',$,#414);
#412=SHAPE_REPRESENTATION('',(#238),#404);
#413=PRODUCT_DEFINITION_CONTEXT('part definition',#418,'design');
#414=PRODUCT_DEFINITION('2026-08-19-23-00-53-516','Link',#415,#413);
#415=PRODUCT_DEFINITION_FORMATION('',$,#420);
#416=PRODUCT_RELATED_PRODUCT_CATEGORY('Link','Link',(#420));
#417=APPLICATION_PROTOCOL_DEFINITION('international standard',
'automotive_design',2009,#418);
#418=APPLICATION_CONTEXT(
'Core Data for Automotive Mechanical Design Process');
#419=PRODUCT_CONTEXT('part definition',#418,'mechanical');
#420=PRODUCT('2026-08-19-23-00-53-516','Link',$,(#419));
#421=PRESENTATION_STYLE_ASSIGNMENT((#422));
#422=SURFACE_STYLE_USAGE(.BOTH.,#423);
#423=SURFACE_SIDE_STYLE('',(#424));
#424=SURFACE_STYLE_FILL_AREA(#425);
#425=FILL_AREA_STYLE('Steel - Satin',(#426));
#426=FILL_AREA_STYLE_COLOUR('Steel - Satin',#427);
#427=COLOUR_RGB('Steel - Satin',0.627450980392157,0.627450980392157,0.627450980392157);
ENDSEC;
END-ISO-10303-21;
