ISO-10303-21;
HEADER;
/* Generated by software containing ST-Developer
 * from STEP Tools, Inc. (www.steptools.com) 
 */

FILE_DESCRIPTION(
/* description */ (''),
/* implementation_level */ '2;1');

FILE_NAME(
/* name */ 'Base.step',
/* time_stamp */ '2026-08-19T00:41:50+05:30',
/* author */ (''),
/* organization */ (''),
/* preprocessor_version */ 'ST-DEVELOPER v20.1',
/* originating_system */ 'Autodesk Translation Framework v15.8.0.0',
/* authorisation */ '');

FILE_SCHEMA (('AUTOMOTIVE_DESIGN { 1 0 10303 214 3 1 1 }'));
ENDSEC;

DATA;
#10=MECHANICAL_DESIGN_GEOMETRIC_PRESENTATION_REPRESENTATION('',(#13),#1884);
#11=SHAPE_REPRESENTATION_RELATIONSHIP('SRR','None',#1891,#12);
#12=ADVANCED_BREP_SHAPE_REPRESENTATION('',(#14),#1883);
#13=STYLED_ITEM('',(#1900),#14);
#14=MANIFOLD_SOLID_BREP('Body1',#1027);
#15=FACE_BOUND('',#176,.T.);
#16=FACE_BOUND('',#177,.T.);
#17=FACE_BOUND('',#178,.T.);
#18=FACE_BOUND('',#179,.T.);
#19=FACE_BOUND('',#191,.T.);
#20=FACE_BOUND('',#192,.T.);
#21=FACE_BOUND('',#193,.T.);
#22=FACE_BOUND('',#194,.T.);
#23=FACE_BOUND('',#195,.T.);
#24=FACE_BOUND('',#198,.T.);
#25=FACE_BOUND('',#204,.T.);
#26=FACE_BOUND('',#208,.T.);
#27=FACE_BOUND('',#212,.T.);
#28=FACE_BOUND('',#216,.T.);
#29=PLANE('',#1053);
#30=PLANE('',#1063);
#31=PLANE('',#1078);
#32=PLANE('',#1091);
#33=PLANE('',#1118);
#34=PLANE('',#1121);
#35=PLANE('',#1122);
#36=PLANE('',#1149);
#37=PLANE('',#1151);
#38=PLANE('',#1163);
#39=PLANE('',#1165);
#40=PLANE('',#1166);
#41=PLANE('',#1171);
#42=PLANE('',#1176);
#43=PLANE('',#1181);
#44=PLANE('',#1186);
#45=TOROIDAL_SURFACE('',#1049,10.,5.);
#46=TOROIDAL_SURFACE('',#1062,10.,5.);
#47=TOROIDAL_SURFACE('',#1076,10.,5.);
#48=TOROIDAL_SURFACE('',#1088,10.,5.);
#49=TOROIDAL_SURFACE('',#1095,2.,1.);
#50=TOROIDAL_SURFACE('',#1101,2.,1.);
#51=TOROIDAL_SURFACE('',#1107,2.,1.);
#52=TOROIDAL_SURFACE('',#1113,2.,1.);
#53=TOROIDAL_SURFACE('',#1127,2.,1.);
#54=TOROIDAL_SURFACE('',#1133,2.,1.);
#55=TOROIDAL_SURFACE('',#1138,2.,1.);
#56=TOROIDAL_SURFACE('',#1144,2.,1.);
#57=TOROIDAL_SURFACE('',#1157,53.,3.);
#58=B_SPLINE_CURVE_WITH_KNOTS('',3,(#1554,#1555,#1556,#1557,#1558,#1559),
 .UNSPECIFIED.,.F.,.F.,(4,2,4),(0.881591412919051,1.16843646570842,1.44028385220892),
 .UNSPECIFIED.);
#59=B_SPLINE_CURVE_WITH_KNOTS('',3,(#1565,#1566,#1567,#1568,#1569,#1570,
#1571,#1572),.UNSPECIFIED.,.F.,.F.,(4,2,2,4),(2.02922982572016,2.03537998155994,
2.42606743385634,2.42706743399222),.UNSPECIFIED.);
#60=B_SPLINE_CURVE_WITH_KNOTS('',3,(#1598,#1599,#1600,#1601,#1602,#1603),
 .UNSPECIFIED.,.F.,.F.,(4,2,4),(0.39599008878052,0.667837475281027,0.954682528070393),
 .UNSPECIFIED.);
#61=B_SPLINE_CURVE_WITH_KNOTS('',3,(#1606,#1607,#1608,#1609,#1610,#1611,
#1612,#1613),.UNSPECIFIED.,.F.,.F.,(4,2,2,4),(-0.00100000014049282,0.,0.39068744928272,
0.396837605057257),.UNSPECIFIED.);
#62=B_SPLINE_CURVE_WITH_KNOTS('',3,(#1641,#1642,#1643,#1644,#1645,#1646),
 .UNSPECIFIED.,.F.,.F.,(4,2,4),(2.23226402976996,2.50411141627047,2.79095646905984),
 .UNSPECIFIED.);
#63=B_SPLINE_CURVE_WITH_KNOTS('',3,(#1652,#1653,#1654,#1655,#1656,#1657,
#1658,#1659),.UNSPECIFIED.,.F.,.F.,(4,2,2,4),(-0.00100000002916073,0.,0.390683570375278,
0.396833644039811),.UNSPECIFIED.);
#64=B_SPLINE_CURVE_WITH_KNOTS('',3,(#1676,#1677,#1678,#1679,#1680,#1681),
 .UNSPECIFIED.,.F.,.F.,(4,2,4),(2.7178653539085,3.00471040669786,3.27655779319837),
 .UNSPECIFIED.);
#65=B_SPLINE_CURVE_WITH_KNOTS('',3,(#1687,#1688,#1689,#1690,#1691,#1692,
#1693,#1694),.UNSPECIFIED.,.F.,.F.,(4,2,2,4),(2.02924381964384,2.03539402009813,
2.426083579988,2.42708358018785),.UNSPECIFIED.);
#66=SPHERICAL_SURFACE('',#1044,5.);
#67=SPHERICAL_SURFACE('',#1054,5.);
#68=SPHERICAL_SURFACE('',#1068,5.);
#69=SPHERICAL_SURFACE('',#1084,5.);
#70=FACE_OUTER_BOUND('',#138,.T.);
#71=FACE_OUTER_BOUND('',#139,.T.);
#72=FACE_OUTER_BOUND('',#140,.T.);
#73=FACE_OUTER_BOUND('',#141,.T.);
#74=FACE_OUTER_BOUND('',#142,.T.);
#75=FACE_OUTER_BOUND('',#143,.T.);
#76=FACE_OUTER_BOUND('',#144,.T.);
#77=FACE_OUTER_BOUND('',#145,.T.);
#78=FACE_OUTER_BOUND('',#146,.T.);
#79=FACE_OUTER_BOUND('',#147,.T.);
#80=FACE_OUTER_BOUND('',#148,.T.);
#81=FACE_OUTER_BOUND('',#149,.T.);
#82=FACE_OUTER_BOUND('',#150,.T.);
#83=FACE_OUTER_BOUND('',#151,.T.);
#84=FACE_OUTER_BOUND('',#152,.T.);
#85=FACE_OUTER_BOUND('',#153,.T.);
#86=FACE_OUTER_BOUND('',#154,.T.);
#87=FACE_OUTER_BOUND('',#155,.T.);
#88=FACE_OUTER_BOUND('',#156,.T.);
#89=FACE_OUTER_BOUND('',#157,.T.);
#90=FACE_OUTER_BOUND('',#158,.T.);
#91=FACE_OUTER_BOUND('',#159,.T.);
#92=FACE_OUTER_BOUND('',#160,.T.);
#93=FACE_OUTER_BOUND('',#161,.T.);
#94=FACE_OUTER_BOUND('',#162,.T.);
#95=FACE_OUTER_BOUND('',#163,.T.);
#96=FACE_OUTER_BOUND('',#164,.T.);
#97=FACE_OUTER_BOUND('',#165,.T.);
#98=FACE_OUTER_BOUND('',#166,.T.);
#99=FACE_OUTER_BOUND('',#167,.T.);
#100=FACE_OUTER_BOUND('',#168,.T.);
#101=FACE_OUTER_BOUND('',#169,.T.);
#102=FACE_OUTER_BOUND('',#170,.T.);
#103=FACE_OUTER_BOUND('',#171,.T.);
#104=FACE_OUTER_BOUND('',#172,.T.);
#105=FACE_OUTER_BOUND('',#173,.T.);
#106=FACE_OUTER_BOUND('',#174,.T.);
#107=FACE_OUTER_BOUND('',#175,.T.);
#108=FACE_OUTER_BOUND('',#180,.T.);
#109=FACE_OUTER_BOUND('',#181,.T.);
#110=FACE_OUTER_BOUND('',#182,.T.);
#111=FACE_OUTER_BOUND('',#183,.T.);
#112=FACE_OUTER_BOUND('',#184,.T.);
#113=FACE_OUTER_BOUND('',#185,.T.);
#114=FACE_OUTER_BOUND('',#186,.T.);
#115=FACE_OUTER_BOUND('',#187,.T.);
#116=FACE_OUTER_BOUND('',#188,.T.);
#117=FACE_OUTER_BOUND('',#189,.T.);
#118=FACE_OUTER_BOUND('',#190,.T.);
#119=FACE_OUTER_BOUND('',#196,.T.);
#120=FACE_OUTER_BOUND('',#197,.T.);
#121=FACE_OUTER_BOUND('',#199,.T.);
#122=FACE_OUTER_BOUND('',#200,.T.);
#123=FACE_OUTER_BOUND('',#201,.T.);
#124=FACE_OUTER_BOUND('',#202,.T.);
#125=FACE_OUTER_BOUND('',#203,.T.);
#126=FACE_OUTER_BOUND('',#205,.T.);
#127=FACE_OUTER_BOUND('',#206,.T.);
#128=FACE_OUTER_BOUND('',#207,.T.);
#129=FACE_OUTER_BOUND('',#209,.T.);
#130=FACE_OUTER_BOUND('',#210,.T.);
#131=FACE_OUTER_BOUND('',#211,.T.);
#132=FACE_OUTER_BOUND('',#213,.T.);
#133=FACE_OUTER_BOUND('',#214,.T.);
#134=FACE_OUTER_BOUND('',#215,.T.);
#135=FACE_OUTER_BOUND('',#217,.T.);
#136=FACE_OUTER_BOUND('',#218,.T.);
#137=FACE_OUTER_BOUND('',#219,.T.);
#138=EDGE_LOOP('',(#638,#639,#640,#641));
#139=EDGE_LOOP('',(#642,#643,#644));
#140=EDGE_LOOP('',(#645,#646,#647,#648));
#141=EDGE_LOOP('',(#649,#650,#651));
#142=EDGE_LOOP('',(#652,#653,#654,#655));
#143=EDGE_LOOP('',(#656,#657,#658,#659,#660,#661));
#144=EDGE_LOOP('',(#662,#663,#664));
#145=EDGE_LOOP('',(#665,#666,#667,#668));
#146=EDGE_LOOP('',(#669,#670,#671,#672));
#147=EDGE_LOOP('',(#673,#674,#675));
#148=EDGE_LOOP('',(#676,#677,#678,#679));
#149=EDGE_LOOP('',(#680,#681,#682,#683));
#150=EDGE_LOOP('',(#684,#685,#686,#687));
#151=EDGE_LOOP('',(#688,#689,#690));
#152=EDGE_LOOP('',(#691,#692,#693,#694));
#153=EDGE_LOOP('',(#695,#696,#697,#698));
#154=EDGE_LOOP('',(#699,#700,#701));
#155=EDGE_LOOP('',(#702,#703,#704,#705));
#156=EDGE_LOOP('',(#706,#707,#708,#709));
#157=EDGE_LOOP('',(#710,#711,#712,#713));
#158=EDGE_LOOP('',(#714,#715,#716));
#159=EDGE_LOOP('',(#717,#718,#719,#720));
#160=EDGE_LOOP('',(#721,#722,#723));
#161=EDGE_LOOP('',(#724,#725,#726,#727));
#162=EDGE_LOOP('',(#728,#729,#730,#731,#732,#733));
#163=EDGE_LOOP('',(#734,#735,#736,#737));
#164=EDGE_LOOP('',(#738,#739,#740,#741));
#165=EDGE_LOOP('',(#742,#743,#744,#745));
#166=EDGE_LOOP('',(#746,#747,#748,#749));
#167=EDGE_LOOP('',(#750,#751,#752,#753));
#168=EDGE_LOOP('',(#754,#755,#756,#757));
#169=EDGE_LOOP('',(#758,#759,#760,#761));
#170=EDGE_LOOP('',(#762,#763,#764,#765));
#171=EDGE_LOOP('',(#766,#767,#768,#769));
#172=EDGE_LOOP('',(#770,#771,#772,#773));
#173=EDGE_LOOP('',(#774,#775,#776,#777));
#174=EDGE_LOOP('',(#778,#779,#780,#781));
#175=EDGE_LOOP('',(#782,#783,#784,#785,#786,#787,#788,#789));
#176=EDGE_LOOP('',(#790));
#177=EDGE_LOOP('',(#791));
#178=EDGE_LOOP('',(#792));
#179=EDGE_LOOP('',(#793));
#180=EDGE_LOOP('',(#794,#795,#796,#797));
#181=EDGE_LOOP('',(#798,#799,#800,#801));
#182=EDGE_LOOP('',(#802,#803,#804,#805));
#183=EDGE_LOOP('',(#806,#807,#808,#809));
#184=EDGE_LOOP('',(#810,#811,#812,#813));
#185=EDGE_LOOP('',(#814,#815,#816,#817));
#186=EDGE_LOOP('',(#818,#819,#820,#821));
#187=EDGE_LOOP('',(#822,#823,#824,#825));
#188=EDGE_LOOP('',(#826,#827,#828,#829));
#189=EDGE_LOOP('',(#830,#831,#832,#833));
#190=EDGE_LOOP('',(#834,#835,#836,#837,#838,#839,#840,#841));
#191=EDGE_LOOP('',(#842));
#192=EDGE_LOOP('',(#843));
#193=EDGE_LOOP('',(#844));
#194=EDGE_LOOP('',(#845));
#195=EDGE_LOOP('',(#846));
#196=EDGE_LOOP('',(#847,#848,#849,#850));
#197=EDGE_LOOP('',(#851,#852,#853,#854));
#198=EDGE_LOOP('',(#855,#856,#857,#858,#859,#860,#861,#862,#863,#864,#865,
#866));
#199=EDGE_LOOP('',(#867,#868,#869,#870));
#200=EDGE_LOOP('',(#871,#872,#873,#874));
#201=EDGE_LOOP('',(#875,#876,#877,#878));
#202=EDGE_LOOP('',(#879,#880,#881,#882));
#203=EDGE_LOOP('',(#883));
#204=EDGE_LOOP('',(#884));
#205=EDGE_LOOP('',(#885,#886,#887,#888));
#206=EDGE_LOOP('',(#889,#890,#891,#892));
#207=EDGE_LOOP('',(#893));
#208=EDGE_LOOP('',(#894));
#209=EDGE_LOOP('',(#895,#896,#897,#898));
#210=EDGE_LOOP('',(#899,#900,#901,#902));
#211=EDGE_LOOP('',(#903));
#212=EDGE_LOOP('',(#904));
#213=EDGE_LOOP('',(#905,#906,#907,#908));
#214=EDGE_LOOP('',(#909,#910,#911,#912));
#215=EDGE_LOOP('',(#913));
#216=EDGE_LOOP('',(#914));
#217=EDGE_LOOP('',(#915,#916,#917,#918));
#218=EDGE_LOOP('',(#919,#920,#921,#922));
#219=EDGE_LOOP('',(#923));
#220=LINE('',#1544,#277);
#221=LINE('',#1547,#278);
#222=LINE('',#1561,#279);
#223=LINE('',#1576,#280);
#224=LINE('',#1579,#281);
#225=LINE('',#1582,#282);
#226=LINE('',#1584,#283);
#227=LINE('',#1585,#284);
#228=LINE('',#1595,#285);
#229=LINE('',#1616,#286);
#230=LINE('',#1618,#287);
#231=LINE('',#1622,#288);
#232=LINE('',#1625,#289);
#233=LINE('',#1637,#290);
#234=LINE('',#1638,#291);
#235=LINE('',#1649,#292);
#236=LINE('',#1663,#293);
#237=LINE('',#1665,#294);
#238=LINE('',#1671,#295);
#239=LINE('',#1683,#296);
#240=LINE('',#1697,#297);
#241=LINE('',#1698,#298);
#242=LINE('',#1700,#299);
#243=LINE('',#1706,#300);
#244=LINE('',#1709,#301);
#245=LINE('',#1720,#302);
#246=LINE('',#1721,#303);
#247=LINE('',#1732,#304);
#248=LINE('',#1733,#305);
#249=LINE('',#1744,#306);
#250=LINE('',#1745,#307);
#251=LINE('',#1751,#308);
#252=LINE('',#1754,#309);
#253=LINE('',#1757,#310);
#254=LINE('',#1758,#311);
#255=LINE('',#1761,#312);
#256=LINE('',#1765,#313);
#257=LINE('',#1766,#314);
#258=LINE('',#1785,#315);
#259=LINE('',#1794,#316);
#260=LINE('',#1795,#317);
#261=LINE('',#1806,#318);
#262=LINE('',#1807,#319);
#263=LINE('',#1814,#320);
#264=LINE('',#1816,#321);
#265=LINE('',#1817,#322);
#266=LINE('',#1837,#323);
#267=LINE('',#1839,#324);
#268=LINE('',#1842,#325);
#269=LINE('',#1850,#326);
#270=LINE('',#1852,#327);
#271=LINE('',#1859,#328);
#272=LINE('',#1861,#329);
#273=LINE('',#1868,#330);
#274=LINE('',#1870,#331);
#275=LINE('',#1877,#332);
#276=LINE('',#1879,#333);
#277=VECTOR('',#1193,10.);
#278=VECTOR('',#1196,10.);
#279=VECTOR('',#1205,10.);
#280=VECTOR('',#1214,10.);
#281=VECTOR('',#1217,10.);
#282=VECTOR('',#1220,10.);
#283=VECTOR('',#1221,10.);
#284=VECTOR('',#1222,10.);
#285=VECTOR('',#1235,10.);
#286=VECTOR('',#1244,10.);
#287=VECTOR('',#1245,10.);
#288=VECTOR('',#1250,10.);
#289=VECTOR('',#1255,10.);
#290=VECTOR('',#1268,10.);
#291=VECTOR('',#1269,10.);
#292=VECTOR('',#1274,10.);
#293=VECTOR('',#1283,10.);
#294=VECTOR('',#1286,10.);
#295=VECTOR('',#1293,10.);
#296=VECTOR('',#1300,10.);
#297=VECTOR('',#1309,10.);
#298=VECTOR('',#1310,10.);
#299=VECTOR('',#1313,10.);
#300=VECTOR('',#1318,10.);
#301=VECTOR('',#1321,10.);
#302=VECTOR('',#1334,10.);
#303=VECTOR('',#1335,10.);
#304=VECTOR('',#1348,10.);
#305=VECTOR('',#1349,10.);
#306=VECTOR('',#1362,10.);
#307=VECTOR('',#1363,10.);
#308=VECTOR('',#1372,10.);
#309=VECTOR('',#1375,10.);
#310=VECTOR('',#1378,10.);
#311=VECTOR('',#1379,10.);
#312=VECTOR('',#1382,10.);
#313=VECTOR('',#1387,10.);
#314=VECTOR('',#1388,10.);
#315=VECTOR('',#1411,10.);
#316=VECTOR('',#1422,10.);
#317=VECTOR('',#1423,10.);
#318=VECTOR('',#1436,10.);
#319=VECTOR('',#1437,10.);
#320=VECTOR('',#1448,10.);
#321=VECTOR('',#1451,10.);
#322=VECTOR('',#1452,10.);
#323=VECTOR('',#1477,50.);
#324=VECTOR('',#1480,10.);
#325=VECTOR('',#1485,10.);
#326=VECTOR('',#1496,4.);
#327=VECTOR('',#1499,2.25);
#328=VECTOR('',#1508,4.);
#329=VECTOR('',#1511,2.25);
#330=VECTOR('',#1520,4.);
#331=VECTOR('',#1523,2.25);
#332=VECTOR('',#1532,4.);
#333=VECTOR('',#1535,2.25);
#334=CIRCLE('',#1042,5.);
#335=CIRCLE('',#1043,5.);
#336=CIRCLE('',#1045,5.);
#337=CIRCLE('',#1046,5.);
#338=CIRCLE('',#1048,5.);
#339=CIRCLE('',#1050,5.);
#340=CIRCLE('',#1052,5.);
#341=CIRCLE('',#1055,5.);
#342=CIRCLE('',#1056,5.);
#343=CIRCLE('',#1057,5.);
#344=CIRCLE('',#1059,5.);
#345=CIRCLE('',#1061,5.);
#346=CIRCLE('',#1064,50.);
#347=CIRCLE('',#1066,5.);
#348=CIRCLE('',#1069,5.);
#349=CIRCLE('',#1070,5.);
#350=CIRCLE('',#1071,5.);
#351=CIRCLE('',#1073,5.);
#352=CIRCLE('',#1075,5.);
#353=CIRCLE('',#1077,5.);
#354=CIRCLE('',#1079,50.);
#355=CIRCLE('',#1082,5.);
#356=CIRCLE('',#1083,5.);
#357=CIRCLE('',#1085,5.);
#358=CIRCLE('',#1087,5.);
#359=CIRCLE('',#1089,5.);
#360=CIRCLE('',#1093,0.999999999999996);
#361=CIRCLE('',#1094,1.);
#362=CIRCLE('',#1096,1.);
#363=CIRCLE('',#1097,3.);
#364=CIRCLE('',#1098,2.);
#365=CIRCLE('',#1100,1.);
#366=CIRCLE('',#1102,1.);
#367=CIRCLE('',#1103,3.);
#368=CIRCLE('',#1104,2.);
#369=CIRCLE('',#1106,1.);
#370=CIRCLE('',#1108,1.);
#371=CIRCLE('',#1109,3.);
#372=CIRCLE('',#1110,2.);
#373=CIRCLE('',#1112,1.);
#374=CIRCLE('',#1114,3.);
#375=CIRCLE('',#1115,2.);
#376=CIRCLE('',#1117,3.);
#377=CIRCLE('',#1120,3.);
#378=CIRCLE('',#1123,2.25);
#379=CIRCLE('',#1124,2.25);
#380=CIRCLE('',#1125,2.25);
#381=CIRCLE('',#1126,2.25);
#382=CIRCLE('',#1128,1.00000000000001);
#383=CIRCLE('',#1129,2.);
#384=CIRCLE('',#1130,1.);
#385=CIRCLE('',#1132,1.);
#386=CIRCLE('',#1134,1.);
#387=CIRCLE('',#1135,2.);
#388=CIRCLE('',#1137,1.);
#389=CIRCLE('',#1139,1.);
#390=CIRCLE('',#1140,3.);
#391=CIRCLE('',#1141,2.);
#392=CIRCLE('',#1143,1.);
#393=CIRCLE('',#1145,1.);
#394=CIRCLE('',#1146,3.);
#395=CIRCLE('',#1147,2.);
#396=CIRCLE('',#1152,53.);
#397=CIRCLE('',#1153,4.);
#398=CIRCLE('',#1154,4.);
#399=CIRCLE('',#1155,4.);
#400=CIRCLE('',#1156,4.);
#401=CIRCLE('',#1158,50.);
#402=CIRCLE('',#1159,3.);
#403=CIRCLE('',#1161,50.);
#404=CIRCLE('',#1167,4.);
#405=CIRCLE('',#1168,2.25);
#406=CIRCLE('',#1172,4.);
#407=CIRCLE('',#1173,2.25);
#408=CIRCLE('',#1177,4.);
#409=CIRCLE('',#1178,2.25);
#410=CIRCLE('',#1182,4.);
#411=CIRCLE('',#1183,2.25);
#412=VERTEX_POINT('',#1540);
#413=VERTEX_POINT('',#1541);
#414=VERTEX_POINT('',#1543);
#415=VERTEX_POINT('',#1545);
#416=VERTEX_POINT('',#1549);
#417=VERTEX_POINT('',#1553);
#418=VERTEX_POINT('',#1560);
#419=VERTEX_POINT('',#1564);
#420=VERTEX_POINT('',#1575);
#421=VERTEX_POINT('',#1577);
#422=VERTEX_POINT('',#1581);
#423=VERTEX_POINT('',#1583);
#424=VERTEX_POINT('',#1587);
#425=VERTEX_POINT('',#1589);
#426=VERTEX_POINT('',#1593);
#427=VERTEX_POINT('',#1597);
#428=VERTEX_POINT('',#1615);
#429=VERTEX_POINT('',#1617);
#430=VERTEX_POINT('',#1621);
#431=VERTEX_POINT('',#1627);
#432=VERTEX_POINT('',#1628);
#433=VERTEX_POINT('',#1630);
#434=VERTEX_POINT('',#1634);
#435=VERTEX_POINT('',#1635);
#436=VERTEX_POINT('',#1640);
#437=VERTEX_POINT('',#1647);
#438=VERTEX_POINT('',#1651);
#439=VERTEX_POINT('',#1667);
#440=VERTEX_POINT('',#1669);
#441=VERTEX_POINT('',#1675);
#442=VERTEX_POINT('',#1682);
#443=VERTEX_POINT('',#1686);
#444=VERTEX_POINT('',#1702);
#445=VERTEX_POINT('',#1703);
#446=VERTEX_POINT('',#1705);
#447=VERTEX_POINT('',#1707);
#448=VERTEX_POINT('',#1711);
#449=VERTEX_POINT('',#1712);
#450=VERTEX_POINT('',#1717);
#451=VERTEX_POINT('',#1718);
#452=VERTEX_POINT('',#1723);
#453=VERTEX_POINT('',#1724);
#454=VERTEX_POINT('',#1729);
#455=VERTEX_POINT('',#1730);
#456=VERTEX_POINT('',#1735);
#457=VERTEX_POINT('',#1736);
#458=VERTEX_POINT('',#1741);
#459=VERTEX_POINT('',#1742);
#460=VERTEX_POINT('',#1750);
#461=VERTEX_POINT('',#1752);
#462=VERTEX_POINT('',#1756);
#463=VERTEX_POINT('',#1760);
#464=VERTEX_POINT('',#1764);
#465=VERTEX_POINT('',#1768);
#466=VERTEX_POINT('',#1770);
#467=VERTEX_POINT('',#1772);
#468=VERTEX_POINT('',#1774);
#469=VERTEX_POINT('',#1777);
#470=VERTEX_POINT('',#1779);
#471=VERTEX_POINT('',#1783);
#472=VERTEX_POINT('',#1787);
#473=VERTEX_POINT('',#1791);
#474=VERTEX_POINT('',#1792);
#475=VERTEX_POINT('',#1797);
#476=VERTEX_POINT('',#1798);
#477=VERTEX_POINT('',#1803);
#478=VERTEX_POINT('',#1804);
#479=VERTEX_POINT('',#1809);
#480=VERTEX_POINT('',#1820);
#481=VERTEX_POINT('',#1822);
#482=VERTEX_POINT('',#1824);
#483=VERTEX_POINT('',#1826);
#484=VERTEX_POINT('',#1828);
#485=VERTEX_POINT('',#1831);
#486=VERTEX_POINT('',#1835);
#487=VERTEX_POINT('',#1845);
#488=VERTEX_POINT('',#1847);
#489=VERTEX_POINT('',#1854);
#490=VERTEX_POINT('',#1856);
#491=VERTEX_POINT('',#1863);
#492=VERTEX_POINT('',#1865);
#493=VERTEX_POINT('',#1872);
#494=VERTEX_POINT('',#1874);
#495=EDGE_CURVE('',#412,#413,#334,.T.);
#496=EDGE_CURVE('',#413,#414,#220,.T.);
#497=EDGE_CURVE('',#414,#415,#335,.T.);
#498=EDGE_CURVE('',#415,#412,#221,.T.);
#499=EDGE_CURVE('',#414,#416,#336,.T.);
#500=EDGE_CURVE('',#416,#415,#337,.T.);
#501=EDGE_CURVE('',#417,#413,#58,.F.);
#502=EDGE_CURVE('',#412,#418,#222,.T.);
#503=EDGE_CURVE('',#418,#417,#338,.T.);
#504=EDGE_CURVE('',#419,#417,#59,.F.);
#505=EDGE_CURVE('',#418,#419,#339,.T.);
#506=EDGE_CURVE('',#418,#420,#223,.T.);
#507=EDGE_CURVE('',#421,#420,#340,.T.);
#508=EDGE_CURVE('',#421,#419,#224,.T.);
#509=EDGE_CURVE('',#422,#415,#225,.T.);
#510=EDGE_CURVE('',#423,#422,#226,.T.);
#511=EDGE_CURVE('',#420,#423,#227,.T.);
#512=EDGE_CURVE('',#424,#422,#341,.T.);
#513=EDGE_CURVE('',#422,#425,#342,.T.);
#514=EDGE_CURVE('',#425,#424,#343,.T.);
#515=EDGE_CURVE('',#426,#423,#344,.T.);
#516=EDGE_CURVE('',#424,#426,#228,.T.);
#517=EDGE_CURVE('',#427,#426,#60,.T.);
#518=EDGE_CURVE('',#427,#420,#345,.T.);
#519=EDGE_CURVE('',#421,#427,#61,.T.);
#520=EDGE_CURVE('',#428,#424,#229,.T.);
#521=EDGE_CURVE('',#429,#428,#230,.T.);
#522=EDGE_CURVE('',#426,#429,#346,.T.);
#523=EDGE_CURVE('',#425,#430,#231,.T.);
#524=EDGE_CURVE('',#428,#430,#347,.T.);
#525=EDGE_CURVE('',#416,#425,#232,.T.);
#526=EDGE_CURVE('',#431,#432,#348,.T.);
#527=EDGE_CURVE('',#432,#433,#349,.T.);
#528=EDGE_CURVE('',#433,#431,#350,.T.);
#529=EDGE_CURVE('',#434,#435,#351,.T.);
#530=EDGE_CURVE('',#435,#432,#233,.T.);
#531=EDGE_CURVE('',#431,#434,#234,.T.);
#532=EDGE_CURVE('',#436,#434,#62,.T.);
#533=EDGE_CURVE('',#436,#437,#352,.T.);
#534=EDGE_CURVE('',#437,#435,#235,.T.);
#535=EDGE_CURVE('',#438,#436,#63,.T.);
#536=EDGE_CURVE('',#438,#437,#353,.T.);
#537=EDGE_CURVE('',#434,#413,#354,.T.);
#538=EDGE_CURVE('',#414,#431,#236,.T.);
#539=EDGE_CURVE('',#433,#416,#237,.T.);
#540=EDGE_CURVE('',#439,#429,#355,.T.);
#541=EDGE_CURVE('',#428,#440,#356,.T.);
#542=EDGE_CURVE('',#440,#439,#238,.T.);
#543=EDGE_CURVE('',#430,#440,#357,.T.);
#544=EDGE_CURVE('',#441,#429,#64,.F.);
#545=EDGE_CURVE('',#439,#442,#239,.T.);
#546=EDGE_CURVE('',#442,#441,#358,.T.);
#547=EDGE_CURVE('',#443,#441,#65,.F.);
#548=EDGE_CURVE('',#442,#443,#359,.T.);
#549=EDGE_CURVE('',#438,#443,#240,.T.);
#550=EDGE_CURVE('',#442,#437,#241,.T.);
#551=EDGE_CURVE('',#432,#440,#242,.T.);
#552=EDGE_CURVE('',#444,#445,#360,.T.);
#553=EDGE_CURVE('',#445,#446,#243,.T.);
#554=EDGE_CURVE('',#446,#447,#361,.T.);
#555=EDGE_CURVE('',#447,#444,#244,.T.);
#556=EDGE_CURVE('',#448,#449,#362,.T.);
#557=EDGE_CURVE('',#449,#447,#363,.T.);
#558=EDGE_CURVE('',#446,#448,#364,.T.);
#559=EDGE_CURVE('',#450,#451,#365,.T.);
#560=EDGE_CURVE('',#451,#449,#245,.T.);
#561=EDGE_CURVE('',#448,#450,#246,.T.);
#562=EDGE_CURVE('',#452,#453,#366,.T.);
#563=EDGE_CURVE('',#453,#451,#367,.T.);
#564=EDGE_CURVE('',#450,#452,#368,.T.);
#565=EDGE_CURVE('',#454,#455,#369,.T.);
#566=EDGE_CURVE('',#455,#453,#247,.T.);
#567=EDGE_CURVE('',#452,#454,#248,.T.);
#568=EDGE_CURVE('',#456,#457,#370,.T.);
#569=EDGE_CURVE('',#457,#455,#371,.T.);
#570=EDGE_CURVE('',#454,#456,#372,.T.);
#571=EDGE_CURVE('',#458,#459,#373,.T.);
#572=EDGE_CURVE('',#459,#457,#249,.T.);
#573=EDGE_CURVE('',#456,#458,#250,.T.);
#574=EDGE_CURVE('',#444,#459,#374,.T.);
#575=EDGE_CURVE('',#458,#445,#375,.T.);
#576=EDGE_CURVE('',#457,#460,#251,.T.);
#577=EDGE_CURVE('',#461,#460,#376,.T.);
#578=EDGE_CURVE('',#461,#455,#252,.T.);
#579=EDGE_CURVE('',#462,#459,#253,.T.);
#580=EDGE_CURVE('',#460,#462,#254,.T.);
#581=EDGE_CURVE('',#444,#463,#255,.T.);
#582=EDGE_CURVE('',#462,#463,#377,.T.);
#583=EDGE_CURVE('',#464,#447,#256,.T.);
#584=EDGE_CURVE('',#463,#464,#257,.T.);
#585=EDGE_CURVE('',#465,#465,#378,.T.);
#586=EDGE_CURVE('',#466,#466,#379,.T.);
#587=EDGE_CURVE('',#467,#467,#380,.T.);
#588=EDGE_CURVE('',#468,#468,#381,.T.);
#589=EDGE_CURVE('',#463,#469,#382,.T.);
#590=EDGE_CURVE('',#469,#470,#383,.T.);
#591=EDGE_CURVE('',#470,#462,#384,.T.);
#592=EDGE_CURVE('',#471,#460,#385,.T.);
#593=EDGE_CURVE('',#470,#471,#258,.T.);
#594=EDGE_CURVE('',#472,#461,#386,.T.);
#595=EDGE_CURVE('',#471,#472,#387,.T.);
#596=EDGE_CURVE('',#473,#474,#388,.T.);
#597=EDGE_CURVE('',#474,#461,#259,.T.);
#598=EDGE_CURVE('',#472,#473,#260,.T.);
#599=EDGE_CURVE('',#475,#476,#389,.T.);
#600=EDGE_CURVE('',#476,#474,#390,.T.);
#601=EDGE_CURVE('',#473,#475,#391,.T.);
#602=EDGE_CURVE('',#477,#478,#392,.T.);
#603=EDGE_CURVE('',#478,#476,#261,.T.);
#604=EDGE_CURVE('',#475,#477,#262,.T.);
#605=EDGE_CURVE('',#479,#464,#393,.T.);
#606=EDGE_CURVE('',#464,#478,#394,.T.);
#607=EDGE_CURVE('',#477,#479,#395,.T.);
#608=EDGE_CURVE('',#479,#469,#263,.T.);
#609=EDGE_CURVE('',#476,#451,#264,.T.);
#610=EDGE_CURVE('',#449,#478,#265,.T.);
#611=EDGE_CURVE('',#480,#480,#396,.T.);
#612=EDGE_CURVE('',#481,#481,#397,.T.);
#613=EDGE_CURVE('',#482,#482,#398,.T.);
#614=EDGE_CURVE('',#483,#483,#399,.T.);
#615=EDGE_CURVE('',#484,#484,#400,.T.);
#616=EDGE_CURVE('',#485,#485,#401,.T.);
#617=EDGE_CURVE('',#485,#480,#402,.T.);
#618=EDGE_CURVE('',#486,#486,#403,.T.);
#619=EDGE_CURVE('',#486,#485,#266,.T.);
#620=EDGE_CURVE('',#430,#433,#267,.T.);
#621=EDGE_CURVE('',#453,#474,#268,.T.);
#622=EDGE_CURVE('',#487,#487,#404,.T.);
#623=EDGE_CURVE('',#488,#488,#405,.T.);
#624=EDGE_CURVE('',#484,#487,#269,.T.);
#625=EDGE_CURVE('',#488,#468,#270,.T.);
#626=EDGE_CURVE('',#489,#489,#406,.T.);
#627=EDGE_CURVE('',#490,#490,#407,.T.);
#628=EDGE_CURVE('',#483,#489,#271,.T.);
#629=EDGE_CURVE('',#490,#467,#272,.T.);
#630=EDGE_CURVE('',#491,#491,#408,.T.);
#631=EDGE_CURVE('',#492,#492,#409,.T.);
#632=EDGE_CURVE('',#482,#491,#273,.T.);
#633=EDGE_CURVE('',#492,#466,#274,.T.);
#634=EDGE_CURVE('',#493,#493,#410,.T.);
#635=EDGE_CURVE('',#494,#494,#411,.T.);
#636=EDGE_CURVE('',#481,#493,#275,.T.);
#637=EDGE_CURVE('',#494,#465,#276,.T.);
#638=ORIENTED_EDGE('',*,*,#495,.T.);
#639=ORIENTED_EDGE('',*,*,#496,.T.);
#640=ORIENTED_EDGE('',*,*,#497,.T.);
#641=ORIENTED_EDGE('',*,*,#498,.T.);
#642=ORIENTED_EDGE('',*,*,#497,.F.);
#643=ORIENTED_EDGE('',*,*,#499,.T.);
#644=ORIENTED_EDGE('',*,*,#500,.T.);
#645=ORIENTED_EDGE('',*,*,#501,.T.);
#646=ORIENTED_EDGE('',*,*,#495,.F.);
#647=ORIENTED_EDGE('',*,*,#502,.T.);
#648=ORIENTED_EDGE('',*,*,#503,.T.);
#649=ORIENTED_EDGE('',*,*,#504,.T.);
#650=ORIENTED_EDGE('',*,*,#503,.F.);
#651=ORIENTED_EDGE('',*,*,#505,.T.);
#652=ORIENTED_EDGE('',*,*,#505,.F.);
#653=ORIENTED_EDGE('',*,*,#506,.T.);
#654=ORIENTED_EDGE('',*,*,#507,.F.);
#655=ORIENTED_EDGE('',*,*,#508,.T.);
#656=ORIENTED_EDGE('',*,*,#502,.F.);
#657=ORIENTED_EDGE('',*,*,#498,.F.);
#658=ORIENTED_EDGE('',*,*,#509,.F.);
#659=ORIENTED_EDGE('',*,*,#510,.F.);
#660=ORIENTED_EDGE('',*,*,#511,.F.);
#661=ORIENTED_EDGE('',*,*,#506,.F.);
#662=ORIENTED_EDGE('',*,*,#512,.T.);
#663=ORIENTED_EDGE('',*,*,#513,.T.);
#664=ORIENTED_EDGE('',*,*,#514,.T.);
#665=ORIENTED_EDGE('',*,*,#515,.T.);
#666=ORIENTED_EDGE('',*,*,#510,.T.);
#667=ORIENTED_EDGE('',*,*,#512,.F.);
#668=ORIENTED_EDGE('',*,*,#516,.T.);
#669=ORIENTED_EDGE('',*,*,#517,.F.);
#670=ORIENTED_EDGE('',*,*,#518,.T.);
#671=ORIENTED_EDGE('',*,*,#511,.T.);
#672=ORIENTED_EDGE('',*,*,#515,.F.);
#673=ORIENTED_EDGE('',*,*,#519,.F.);
#674=ORIENTED_EDGE('',*,*,#507,.T.);
#675=ORIENTED_EDGE('',*,*,#518,.F.);
#676=ORIENTED_EDGE('',*,*,#516,.F.);
#677=ORIENTED_EDGE('',*,*,#520,.F.);
#678=ORIENTED_EDGE('',*,*,#521,.F.);
#679=ORIENTED_EDGE('',*,*,#522,.F.);
#680=ORIENTED_EDGE('',*,*,#514,.F.);
#681=ORIENTED_EDGE('',*,*,#523,.T.);
#682=ORIENTED_EDGE('',*,*,#524,.F.);
#683=ORIENTED_EDGE('',*,*,#520,.T.);
#684=ORIENTED_EDGE('',*,*,#500,.F.);
#685=ORIENTED_EDGE('',*,*,#525,.T.);
#686=ORIENTED_EDGE('',*,*,#513,.F.);
#687=ORIENTED_EDGE('',*,*,#509,.T.);
#688=ORIENTED_EDGE('',*,*,#526,.T.);
#689=ORIENTED_EDGE('',*,*,#527,.T.);
#690=ORIENTED_EDGE('',*,*,#528,.T.);
#691=ORIENTED_EDGE('',*,*,#529,.T.);
#692=ORIENTED_EDGE('',*,*,#530,.T.);
#693=ORIENTED_EDGE('',*,*,#526,.F.);
#694=ORIENTED_EDGE('',*,*,#531,.T.);
#695=ORIENTED_EDGE('',*,*,#532,.F.);
#696=ORIENTED_EDGE('',*,*,#533,.T.);
#697=ORIENTED_EDGE('',*,*,#534,.T.);
#698=ORIENTED_EDGE('',*,*,#529,.F.);
#699=ORIENTED_EDGE('',*,*,#535,.F.);
#700=ORIENTED_EDGE('',*,*,#536,.T.);
#701=ORIENTED_EDGE('',*,*,#533,.F.);
#702=ORIENTED_EDGE('',*,*,#496,.F.);
#703=ORIENTED_EDGE('',*,*,#537,.F.);
#704=ORIENTED_EDGE('',*,*,#531,.F.);
#705=ORIENTED_EDGE('',*,*,#538,.F.);
#706=ORIENTED_EDGE('',*,*,#499,.F.);
#707=ORIENTED_EDGE('',*,*,#538,.T.);
#708=ORIENTED_EDGE('',*,*,#528,.F.);
#709=ORIENTED_EDGE('',*,*,#539,.T.);
#710=ORIENTED_EDGE('',*,*,#540,.T.);
#711=ORIENTED_EDGE('',*,*,#521,.T.);
#712=ORIENTED_EDGE('',*,*,#541,.T.);
#713=ORIENTED_EDGE('',*,*,#542,.T.);
#714=ORIENTED_EDGE('',*,*,#541,.F.);
#715=ORIENTED_EDGE('',*,*,#524,.T.);
#716=ORIENTED_EDGE('',*,*,#543,.T.);
#717=ORIENTED_EDGE('',*,*,#544,.T.);
#718=ORIENTED_EDGE('',*,*,#540,.F.);
#719=ORIENTED_EDGE('',*,*,#545,.T.);
#720=ORIENTED_EDGE('',*,*,#546,.T.);
#721=ORIENTED_EDGE('',*,*,#547,.T.);
#722=ORIENTED_EDGE('',*,*,#546,.F.);
#723=ORIENTED_EDGE('',*,*,#548,.T.);
#724=ORIENTED_EDGE('',*,*,#536,.F.);
#725=ORIENTED_EDGE('',*,*,#549,.T.);
#726=ORIENTED_EDGE('',*,*,#548,.F.);
#727=ORIENTED_EDGE('',*,*,#550,.T.);
#728=ORIENTED_EDGE('',*,*,#534,.F.);
#729=ORIENTED_EDGE('',*,*,#550,.F.);
#730=ORIENTED_EDGE('',*,*,#545,.F.);
#731=ORIENTED_EDGE('',*,*,#542,.F.);
#732=ORIENTED_EDGE('',*,*,#551,.F.);
#733=ORIENTED_EDGE('',*,*,#530,.F.);
#734=ORIENTED_EDGE('',*,*,#552,.T.);
#735=ORIENTED_EDGE('',*,*,#553,.T.);
#736=ORIENTED_EDGE('',*,*,#554,.T.);
#737=ORIENTED_EDGE('',*,*,#555,.T.);
#738=ORIENTED_EDGE('',*,*,#556,.T.);
#739=ORIENTED_EDGE('',*,*,#557,.T.);
#740=ORIENTED_EDGE('',*,*,#554,.F.);
#741=ORIENTED_EDGE('',*,*,#558,.T.);
#742=ORIENTED_EDGE('',*,*,#559,.T.);
#743=ORIENTED_EDGE('',*,*,#560,.T.);
#744=ORIENTED_EDGE('',*,*,#556,.F.);
#745=ORIENTED_EDGE('',*,*,#561,.T.);
#746=ORIENTED_EDGE('',*,*,#562,.T.);
#747=ORIENTED_EDGE('',*,*,#563,.T.);
#748=ORIENTED_EDGE('',*,*,#559,.F.);
#749=ORIENTED_EDGE('',*,*,#564,.T.);
#750=ORIENTED_EDGE('',*,*,#565,.T.);
#751=ORIENTED_EDGE('',*,*,#566,.T.);
#752=ORIENTED_EDGE('',*,*,#562,.F.);
#753=ORIENTED_EDGE('',*,*,#567,.T.);
#754=ORIENTED_EDGE('',*,*,#568,.T.);
#755=ORIENTED_EDGE('',*,*,#569,.T.);
#756=ORIENTED_EDGE('',*,*,#565,.F.);
#757=ORIENTED_EDGE('',*,*,#570,.T.);
#758=ORIENTED_EDGE('',*,*,#571,.T.);
#759=ORIENTED_EDGE('',*,*,#572,.T.);
#760=ORIENTED_EDGE('',*,*,#568,.F.);
#761=ORIENTED_EDGE('',*,*,#573,.T.);
#762=ORIENTED_EDGE('',*,*,#552,.F.);
#763=ORIENTED_EDGE('',*,*,#574,.T.);
#764=ORIENTED_EDGE('',*,*,#571,.F.);
#765=ORIENTED_EDGE('',*,*,#575,.T.);
#766=ORIENTED_EDGE('',*,*,#569,.F.);
#767=ORIENTED_EDGE('',*,*,#576,.T.);
#768=ORIENTED_EDGE('',*,*,#577,.F.);
#769=ORIENTED_EDGE('',*,*,#578,.T.);
#770=ORIENTED_EDGE('',*,*,#572,.F.);
#771=ORIENTED_EDGE('',*,*,#579,.F.);
#772=ORIENTED_EDGE('',*,*,#580,.F.);
#773=ORIENTED_EDGE('',*,*,#576,.F.);
#774=ORIENTED_EDGE('',*,*,#574,.F.);
#775=ORIENTED_EDGE('',*,*,#581,.T.);
#776=ORIENTED_EDGE('',*,*,#582,.F.);
#777=ORIENTED_EDGE('',*,*,#579,.T.);
#778=ORIENTED_EDGE('',*,*,#555,.F.);
#779=ORIENTED_EDGE('',*,*,#583,.F.);
#780=ORIENTED_EDGE('',*,*,#584,.F.);
#781=ORIENTED_EDGE('',*,*,#581,.F.);
#782=ORIENTED_EDGE('',*,*,#553,.F.);
#783=ORIENTED_EDGE('',*,*,#575,.F.);
#784=ORIENTED_EDGE('',*,*,#573,.F.);
#785=ORIENTED_EDGE('',*,*,#570,.F.);
#786=ORIENTED_EDGE('',*,*,#567,.F.);
#787=ORIENTED_EDGE('',*,*,#564,.F.);
#788=ORIENTED_EDGE('',*,*,#561,.F.);
#789=ORIENTED_EDGE('',*,*,#558,.F.);
#790=ORIENTED_EDGE('',*,*,#585,.T.);
#791=ORIENTED_EDGE('',*,*,#586,.T.);
#792=ORIENTED_EDGE('',*,*,#587,.T.);
#793=ORIENTED_EDGE('',*,*,#588,.T.);
#794=ORIENTED_EDGE('',*,*,#589,.T.);
#795=ORIENTED_EDGE('',*,*,#590,.T.);
#796=ORIENTED_EDGE('',*,*,#591,.T.);
#797=ORIENTED_EDGE('',*,*,#582,.T.);
#798=ORIENTED_EDGE('',*,*,#592,.T.);
#799=ORIENTED_EDGE('',*,*,#580,.T.);
#800=ORIENTED_EDGE('',*,*,#591,.F.);
#801=ORIENTED_EDGE('',*,*,#593,.T.);
#802=ORIENTED_EDGE('',*,*,#594,.T.);
#803=ORIENTED_EDGE('',*,*,#577,.T.);
#804=ORIENTED_EDGE('',*,*,#592,.F.);
#805=ORIENTED_EDGE('',*,*,#595,.T.);
#806=ORIENTED_EDGE('',*,*,#596,.T.);
#807=ORIENTED_EDGE('',*,*,#597,.T.);
#808=ORIENTED_EDGE('',*,*,#594,.F.);
#809=ORIENTED_EDGE('',*,*,#598,.T.);
#810=ORIENTED_EDGE('',*,*,#599,.T.);
#811=ORIENTED_EDGE('',*,*,#600,.T.);
#812=ORIENTED_EDGE('',*,*,#596,.F.);
#813=ORIENTED_EDGE('',*,*,#601,.T.);
#814=ORIENTED_EDGE('',*,*,#602,.T.);
#815=ORIENTED_EDGE('',*,*,#603,.T.);
#816=ORIENTED_EDGE('',*,*,#599,.F.);
#817=ORIENTED_EDGE('',*,*,#604,.T.);
#818=ORIENTED_EDGE('',*,*,#605,.T.);
#819=ORIENTED_EDGE('',*,*,#606,.T.);
#820=ORIENTED_EDGE('',*,*,#602,.F.);
#821=ORIENTED_EDGE('',*,*,#607,.T.);
#822=ORIENTED_EDGE('',*,*,#605,.F.);
#823=ORIENTED_EDGE('',*,*,#608,.T.);
#824=ORIENTED_EDGE('',*,*,#589,.F.);
#825=ORIENTED_EDGE('',*,*,#584,.T.);
#826=ORIENTED_EDGE('',*,*,#560,.F.);
#827=ORIENTED_EDGE('',*,*,#609,.F.);
#828=ORIENTED_EDGE('',*,*,#603,.F.);
#829=ORIENTED_EDGE('',*,*,#610,.F.);
#830=ORIENTED_EDGE('',*,*,#557,.F.);
#831=ORIENTED_EDGE('',*,*,#610,.T.);
#832=ORIENTED_EDGE('',*,*,#606,.F.);
#833=ORIENTED_EDGE('',*,*,#583,.T.);
#834=ORIENTED_EDGE('',*,*,#590,.F.);
#835=ORIENTED_EDGE('',*,*,#608,.F.);
#836=ORIENTED_EDGE('',*,*,#607,.F.);
#837=ORIENTED_EDGE('',*,*,#604,.F.);
#838=ORIENTED_EDGE('',*,*,#601,.F.);
#839=ORIENTED_EDGE('',*,*,#598,.F.);
#840=ORIENTED_EDGE('',*,*,#595,.F.);
#841=ORIENTED_EDGE('',*,*,#593,.F.);
#842=ORIENTED_EDGE('',*,*,#611,.F.);
#843=ORIENTED_EDGE('',*,*,#612,.T.);
#844=ORIENTED_EDGE('',*,*,#613,.T.);
#845=ORIENTED_EDGE('',*,*,#614,.T.);
#846=ORIENTED_EDGE('',*,*,#615,.T.);
#847=ORIENTED_EDGE('',*,*,#616,.T.);
#848=ORIENTED_EDGE('',*,*,#617,.T.);
#849=ORIENTED_EDGE('',*,*,#611,.T.);
#850=ORIENTED_EDGE('',*,*,#617,.F.);
#851=ORIENTED_EDGE('',*,*,#618,.F.);
#852=ORIENTED_EDGE('',*,*,#619,.T.);
#853=ORIENTED_EDGE('',*,*,#616,.F.);
#854=ORIENTED_EDGE('',*,*,#619,.F.);
#855=ORIENTED_EDGE('',*,*,#522,.T.);
#856=ORIENTED_EDGE('',*,*,#544,.F.);
#857=ORIENTED_EDGE('',*,*,#547,.F.);
#858=ORIENTED_EDGE('',*,*,#549,.F.);
#859=ORIENTED_EDGE('',*,*,#535,.T.);
#860=ORIENTED_EDGE('',*,*,#532,.T.);
#861=ORIENTED_EDGE('',*,*,#537,.T.);
#862=ORIENTED_EDGE('',*,*,#501,.F.);
#863=ORIENTED_EDGE('',*,*,#504,.F.);
#864=ORIENTED_EDGE('',*,*,#508,.F.);
#865=ORIENTED_EDGE('',*,*,#519,.T.);
#866=ORIENTED_EDGE('',*,*,#517,.T.);
#867=ORIENTED_EDGE('',*,*,#527,.F.);
#868=ORIENTED_EDGE('',*,*,#551,.T.);
#869=ORIENTED_EDGE('',*,*,#543,.F.);
#870=ORIENTED_EDGE('',*,*,#620,.T.);
#871=ORIENTED_EDGE('',*,*,#539,.F.);
#872=ORIENTED_EDGE('',*,*,#620,.F.);
#873=ORIENTED_EDGE('',*,*,#523,.F.);
#874=ORIENTED_EDGE('',*,*,#525,.F.);
#875=ORIENTED_EDGE('',*,*,#563,.F.);
#876=ORIENTED_EDGE('',*,*,#621,.T.);
#877=ORIENTED_EDGE('',*,*,#600,.F.);
#878=ORIENTED_EDGE('',*,*,#609,.T.);
#879=ORIENTED_EDGE('',*,*,#566,.F.);
#880=ORIENTED_EDGE('',*,*,#578,.F.);
#881=ORIENTED_EDGE('',*,*,#597,.F.);
#882=ORIENTED_EDGE('',*,*,#621,.F.);
#883=ORIENTED_EDGE('',*,*,#622,.F.);
#884=ORIENTED_EDGE('',*,*,#623,.T.);
#885=ORIENTED_EDGE('',*,*,#615,.F.);
#886=ORIENTED_EDGE('',*,*,#624,.T.);
#887=ORIENTED_EDGE('',*,*,#622,.T.);
#888=ORIENTED_EDGE('',*,*,#624,.F.);
#889=ORIENTED_EDGE('',*,*,#623,.F.);
#890=ORIENTED_EDGE('',*,*,#625,.T.);
#891=ORIENTED_EDGE('',*,*,#588,.F.);
#892=ORIENTED_EDGE('',*,*,#625,.F.);
#893=ORIENTED_EDGE('',*,*,#626,.F.);
#894=ORIENTED_EDGE('',*,*,#627,.T.);
#895=ORIENTED_EDGE('',*,*,#614,.F.);
#896=ORIENTED_EDGE('',*,*,#628,.T.);
#897=ORIENTED_EDGE('',*,*,#626,.T.);
#898=ORIENTED_EDGE('',*,*,#628,.F.);
#899=ORIENTED_EDGE('',*,*,#627,.F.);
#900=ORIENTED_EDGE('',*,*,#629,.T.);
#901=ORIENTED_EDGE('',*,*,#587,.F.);
#902=ORIENTED_EDGE('',*,*,#629,.F.);
#903=ORIENTED_EDGE('',*,*,#630,.F.);
#904=ORIENTED_EDGE('',*,*,#631,.T.);
#905=ORIENTED_EDGE('',*,*,#613,.F.);
#906=ORIENTED_EDGE('',*,*,#632,.T.);
#907=ORIENTED_EDGE('',*,*,#630,.T.);
#908=ORIENTED_EDGE('',*,*,#632,.F.);
#909=ORIENTED_EDGE('',*,*,#631,.F.);
#910=ORIENTED_EDGE('',*,*,#633,.T.);
#911=ORIENTED_EDGE('',*,*,#586,.F.);
#912=ORIENTED_EDGE('',*,*,#633,.F.);
#913=ORIENTED_EDGE('',*,*,#634,.F.);
#914=ORIENTED_EDGE('',*,*,#635,.T.);
#915=ORIENTED_EDGE('',*,*,#612,.F.);
#916=ORIENTED_EDGE('',*,*,#636,.T.);
#917=ORIENTED_EDGE('',*,*,#634,.T.);
#918=ORIENTED_EDGE('',*,*,#636,.F.);
#919=ORIENTED_EDGE('',*,*,#635,.F.);
#920=ORIENTED_EDGE('',*,*,#637,.T.);
#921=ORIENTED_EDGE('',*,*,#585,.F.);
#922=ORIENTED_EDGE('',*,*,#637,.F.);
#923=ORIENTED_EDGE('',*,*,#618,.T.);
#924=CYLINDRICAL_SURFACE('',#1041,5.);
#925=CYLINDRICAL_SURFACE('',#1047,5.);
#926=CYLINDRICAL_SURFACE('',#1051,5.);
#927=CYLINDRICAL_SURFACE('',#1058,5.);
#928=CYLINDRICAL_SURFACE('',#1060,5.);
#929=CYLINDRICAL_SURFACE('',#1065,5.);
#930=CYLINDRICAL_SURFACE('',#1067,5.);
#931=CYLINDRICAL_SURFACE('',#1072,5.);
#932=CYLINDRICAL_SURFACE('',#1074,5.);
#933=CYLINDRICAL_SURFACE('',#1080,5.);
#934=CYLINDRICAL_SURFACE('',#1081,5.);
#935=CYLINDRICAL_SURFACE('',#1086,5.);
#936=CYLINDRICAL_SURFACE('',#1090,5.);
#937=CYLINDRICAL_SURFACE('',#1092,1.);
#938=CYLINDRICAL_SURFACE('',#1099,1.);
#939=CYLINDRICAL_SURFACE('',#1105,1.);
#940=CYLINDRICAL_SURFACE('',#1111,1.);
#941=CYLINDRICAL_SURFACE('',#1116,3.);
#942=CYLINDRICAL_SURFACE('',#1119,3.);
#943=CYLINDRICAL_SURFACE('',#1131,1.);
#944=CYLINDRICAL_SURFACE('',#1136,1.);
#945=CYLINDRICAL_SURFACE('',#1142,1.);
#946=CYLINDRICAL_SURFACE('',#1148,1.);
#947=CYLINDRICAL_SURFACE('',#1150,3.);
#948=CYLINDRICAL_SURFACE('',#1160,50.);
#949=CYLINDRICAL_SURFACE('',#1162,5.);
#950=CYLINDRICAL_SURFACE('',#1164,3.);
#951=CYLINDRICAL_SURFACE('',#1169,4.);
#952=CYLINDRICAL_SURFACE('',#1170,2.25);
#953=CYLINDRICAL_SURFACE('',#1174,4.);
#954=CYLINDRICAL_SURFACE('',#1175,2.25);
#955=CYLINDRICAL_SURFACE('',#1179,4.);
#956=CYLINDRICAL_SURFACE('',#1180,2.25);
#957=CYLINDRICAL_SURFACE('',#1184,4.);
#958=CYLINDRICAL_SURFACE('',#1185,2.25);
#959=ADVANCED_FACE('',(#70),#924,.T.);
#960=ADVANCED_FACE('',(#71),#66,.T.);
#961=ADVANCED_FACE('',(#72),#925,.T.);
#962=ADVANCED_FACE('',(#73),#45,.T.);
#963=ADVANCED_FACE('',(#74),#926,.F.);
#964=ADVANCED_FACE('',(#75),#29,.T.);
#965=ADVANCED_FACE('',(#76),#67,.T.);
#966=ADVANCED_FACE('',(#77),#927,.T.);
#967=ADVANCED_FACE('',(#78),#928,.T.);
#968=ADVANCED_FACE('',(#79),#46,.T.);
#969=ADVANCED_FACE('',(#80),#30,.T.);
#970=ADVANCED_FACE('',(#81),#929,.T.);
#971=ADVANCED_FACE('',(#82),#930,.T.);
#972=ADVANCED_FACE('',(#83),#68,.T.);
#973=ADVANCED_FACE('',(#84),#931,.T.);
#974=ADVANCED_FACE('',(#85),#932,.T.);
#975=ADVANCED_FACE('',(#86),#47,.T.);
#976=ADVANCED_FACE('',(#87),#31,.T.);
#977=ADVANCED_FACE('',(#88),#933,.T.);
#978=ADVANCED_FACE('',(#89),#934,.T.);
#979=ADVANCED_FACE('',(#90),#69,.T.);
#980=ADVANCED_FACE('',(#91),#935,.T.);
#981=ADVANCED_FACE('',(#92),#48,.T.);
#982=ADVANCED_FACE('',(#93),#936,.F.);
#983=ADVANCED_FACE('',(#94),#32,.T.);
#984=ADVANCED_FACE('',(#95),#937,.T.);
#985=ADVANCED_FACE('',(#96),#49,.T.);
#986=ADVANCED_FACE('',(#97),#938,.T.);
#987=ADVANCED_FACE('',(#98),#50,.T.);
#988=ADVANCED_FACE('',(#99),#939,.T.);
#989=ADVANCED_FACE('',(#100),#51,.T.);
#990=ADVANCED_FACE('',(#101),#940,.T.);
#991=ADVANCED_FACE('',(#102),#52,.T.);
#992=ADVANCED_FACE('',(#103),#941,.T.);
#993=ADVANCED_FACE('',(#104),#33,.T.);
#994=ADVANCED_FACE('',(#105),#942,.T.);
#995=ADVANCED_FACE('',(#106),#34,.T.);
#996=ADVANCED_FACE('',(#107,#15,#16,#17,#18),#35,.F.);
#997=ADVANCED_FACE('',(#108),#53,.T.);
#998=ADVANCED_FACE('',(#109),#943,.T.);
#999=ADVANCED_FACE('',(#110),#54,.T.);
#1000=ADVANCED_FACE('',(#111),#944,.T.);
#1001=ADVANCED_FACE('',(#112),#55,.T.);
#1002=ADVANCED_FACE('',(#113),#945,.T.);
#1003=ADVANCED_FACE('',(#114),#56,.T.);
#1004=ADVANCED_FACE('',(#115),#946,.T.);
#1005=ADVANCED_FACE('',(#116),#36,.T.);
#1006=ADVANCED_FACE('',(#117),#947,.T.);
#1007=ADVANCED_FACE('',(#118,#19,#20,#21,#22,#23),#37,.T.);
#1008=ADVANCED_FACE('',(#119),#57,.F.);
#1009=ADVANCED_FACE('',(#120,#24),#948,.T.);
#1010=ADVANCED_FACE('',(#121),#949,.T.);
#1011=ADVANCED_FACE('',(#122),#38,.T.);
#1012=ADVANCED_FACE('',(#123),#950,.T.);
#1013=ADVANCED_FACE('',(#124),#39,.T.);
#1014=ADVANCED_FACE('',(#125,#25),#40,.F.);
#1015=ADVANCED_FACE('',(#126),#951,.F.);
#1016=ADVANCED_FACE('',(#127),#952,.F.);
#1017=ADVANCED_FACE('',(#128,#26),#41,.F.);
#1018=ADVANCED_FACE('',(#129),#953,.F.);
#1019=ADVANCED_FACE('',(#130),#954,.F.);
#1020=ADVANCED_FACE('',(#131,#27),#42,.F.);
#1021=ADVANCED_FACE('',(#132),#955,.F.);
#1022=ADVANCED_FACE('',(#133),#956,.F.);
#1023=ADVANCED_FACE('',(#134,#28),#43,.F.);
#1024=ADVANCED_FACE('',(#135),#957,.F.);
#1025=ADVANCED_FACE('',(#136),#958,.F.);
#1026=ADVANCED_FACE('',(#137),#44,.T.);
#1027=CLOSED_SHELL('',(#959,#960,#961,#962,#963,#964,#965,#966,#967,#968,
#969,#970,#971,#972,#973,#974,#975,#976,#977,#978,#979,#980,#981,#982,#983,
#984,#985,#986,#987,#988,#989,#990,#991,#992,#993,#994,#995,#996,#997,#998,
#999,#1000,#1001,#1002,#1003,#1004,#1005,#1006,#1007,#1008,#1009,#1010,
#1011,#1012,#1013,#1014,#1015,#1016,#1017,#1018,#1019,#1020,#1021,#1022,
#1023,#1024,#1025,#1026));
#1028=DERIVED_UNIT_ELEMENT(#1030,1.);
#1029=DERIVED_UNIT_ELEMENT(#1886,-3.);
#1030=(
MASS_UNIT()
NAMED_UNIT(*)
SI_UNIT(.KILO.,.GRAM.)
);
#1031=DERIVED_UNIT((#1028,#1029));
#1032=MEASURE_REPRESENTATION_ITEM('density measure',
POSITIVE_RATIO_MEASURE(7850.),#1031);
#1033=PROPERTY_DEFINITION_REPRESENTATION(#1038,#1035);
#1034=PROPERTY_DEFINITION_REPRESENTATION(#1039,#1036);
#1035=REPRESENTATION('material name',(#1037),#1883);
#1036=REPRESENTATION('density',(#1032),#1883);
#1037=DESCRIPTIVE_REPRESENTATION_ITEM('Steel','Steel');
#1038=PROPERTY_DEFINITION('material property','material name',#1893);
#1039=PROPERTY_DEFINITION('material property','density of part',#1893);
#1040=AXIS2_PLACEMENT_3D('',#1538,#1187,#1188);
#1041=AXIS2_PLACEMENT_3D('',#1539,#1189,#1190);
#1042=AXIS2_PLACEMENT_3D('',#1542,#1191,#1192);
#1043=AXIS2_PLACEMENT_3D('',#1546,#1194,#1195);
#1044=AXIS2_PLACEMENT_3D('',#1548,#1197,#1198);
#1045=AXIS2_PLACEMENT_3D('',#1550,#1199,#1200);
#1046=AXIS2_PLACEMENT_3D('',#1551,#1201,#1202);
#1047=AXIS2_PLACEMENT_3D('',#1552,#1203,#1204);
#1048=AXIS2_PLACEMENT_3D('',#1562,#1206,#1207);
#1049=AXIS2_PLACEMENT_3D('',#1563,#1208,#1209);
#1050=AXIS2_PLACEMENT_3D('',#1573,#1210,#1211);
#1051=AXIS2_PLACEMENT_3D('',#1574,#1212,#1213);
#1052=AXIS2_PLACEMENT_3D('',#1578,#1215,#1216);
#1053=AXIS2_PLACEMENT_3D('',#1580,#1218,#1219);
#1054=AXIS2_PLACEMENT_3D('',#1586,#1223,#1224);
#1055=AXIS2_PLACEMENT_3D('',#1588,#1225,#1226);
#1056=AXIS2_PLACEMENT_3D('',#1590,#1227,#1228);
#1057=AXIS2_PLACEMENT_3D('',#1591,#1229,#1230);
#1058=AXIS2_PLACEMENT_3D('',#1592,#1231,#1232);
#1059=AXIS2_PLACEMENT_3D('',#1594,#1233,#1234);
#1060=AXIS2_PLACEMENT_3D('',#1596,#1236,#1237);
#1061=AXIS2_PLACEMENT_3D('',#1604,#1238,#1239);
#1062=AXIS2_PLACEMENT_3D('',#1605,#1240,#1241);
#1063=AXIS2_PLACEMENT_3D('',#1614,#1242,#1243);
#1064=AXIS2_PLACEMENT_3D('',#1619,#1246,#1247);
#1065=AXIS2_PLACEMENT_3D('',#1620,#1248,#1249);
#1066=AXIS2_PLACEMENT_3D('',#1623,#1251,#1252);
#1067=AXIS2_PLACEMENT_3D('',#1624,#1253,#1254);
#1068=AXIS2_PLACEMENT_3D('',#1626,#1256,#1257);
#1069=AXIS2_PLACEMENT_3D('',#1629,#1258,#1259);
#1070=AXIS2_PLACEMENT_3D('',#1631,#1260,#1261);
#1071=AXIS2_PLACEMENT_3D('',#1632,#1262,#1263);
#1072=AXIS2_PLACEMENT_3D('',#1633,#1264,#1265);
#1073=AXIS2_PLACEMENT_3D('',#1636,#1266,#1267);
#1074=AXIS2_PLACEMENT_3D('',#1639,#1270,#1271);
#1075=AXIS2_PLACEMENT_3D('',#1648,#1272,#1273);
#1076=AXIS2_PLACEMENT_3D('',#1650,#1275,#1276);
#1077=AXIS2_PLACEMENT_3D('',#1660,#1277,#1278);
#1078=AXIS2_PLACEMENT_3D('',#1661,#1279,#1280);
#1079=AXIS2_PLACEMENT_3D('',#1662,#1281,#1282);
#1080=AXIS2_PLACEMENT_3D('',#1664,#1284,#1285);
#1081=AXIS2_PLACEMENT_3D('',#1666,#1287,#1288);
#1082=AXIS2_PLACEMENT_3D('',#1668,#1289,#1290);
#1083=AXIS2_PLACEMENT_3D('',#1670,#1291,#1292);
#1084=AXIS2_PLACEMENT_3D('',#1672,#1294,#1295);
#1085=AXIS2_PLACEMENT_3D('',#1673,#1296,#1297);
#1086=AXIS2_PLACEMENT_3D('',#1674,#1298,#1299);
#1087=AXIS2_PLACEMENT_3D('',#1684,#1301,#1302);
#1088=AXIS2_PLACEMENT_3D('',#1685,#1303,#1304);
#1089=AXIS2_PLACEMENT_3D('',#1695,#1305,#1306);
#1090=AXIS2_PLACEMENT_3D('',#1696,#1307,#1308);
#1091=AXIS2_PLACEMENT_3D('',#1699,#1311,#1312);
#1092=AXIS2_PLACEMENT_3D('',#1701,#1314,#1315);
#1093=AXIS2_PLACEMENT_3D('',#1704,#1316,#1317);
#1094=AXIS2_PLACEMENT_3D('',#1708,#1319,#1320);
#1095=AXIS2_PLACEMENT_3D('',#1710,#1322,#1323);
#1096=AXIS2_PLACEMENT_3D('',#1713,#1324,#1325);
#1097=AXIS2_PLACEMENT_3D('',#1714,#1326,#1327);
#1098=AXIS2_PLACEMENT_3D('',#1715,#1328,#1329);
#1099=AXIS2_PLACEMENT_3D('',#1716,#1330,#1331);
#1100=AXIS2_PLACEMENT_3D('',#1719,#1332,#1333);
#1101=AXIS2_PLACEMENT_3D('',#1722,#1336,#1337);
#1102=AXIS2_PLACEMENT_3D('',#1725,#1338,#1339);
#1103=AXIS2_PLACEMENT_3D('',#1726,#1340,#1341);
#1104=AXIS2_PLACEMENT_3D('',#1727,#1342,#1343);
#1105=AXIS2_PLACEMENT_3D('',#1728,#1344,#1345);
#1106=AXIS2_PLACEMENT_3D('',#1731,#1346,#1347);
#1107=AXIS2_PLACEMENT_3D('',#1734,#1350,#1351);
#1108=AXIS2_PLACEMENT_3D('',#1737,#1352,#1353);
#1109=AXIS2_PLACEMENT_3D('',#1738,#1354,#1355);
#1110=AXIS2_PLACEMENT_3D('',#1739,#1356,#1357);
#1111=AXIS2_PLACEMENT_3D('',#1740,#1358,#1359);
#1112=AXIS2_PLACEMENT_3D('',#1743,#1360,#1361);
#1113=AXIS2_PLACEMENT_3D('',#1746,#1364,#1365);
#1114=AXIS2_PLACEMENT_3D('',#1747,#1366,#1367);
#1115=AXIS2_PLACEMENT_3D('',#1748,#1368,#1369);
#1116=AXIS2_PLACEMENT_3D('',#1749,#1370,#1371);
#1117=AXIS2_PLACEMENT_3D('',#1753,#1373,#1374);
#1118=AXIS2_PLACEMENT_3D('',#1755,#1376,#1377);
#1119=AXIS2_PLACEMENT_3D('',#1759,#1380,#1381);
#1120=AXIS2_PLACEMENT_3D('',#1762,#1383,#1384);
#1121=AXIS2_PLACEMENT_3D('',#1763,#1385,#1386);
#1122=AXIS2_PLACEMENT_3D('',#1767,#1389,#1390);
#1123=AXIS2_PLACEMENT_3D('',#1769,#1391,#1392);
#1124=AXIS2_PLACEMENT_3D('',#1771,#1393,#1394);
#1125=AXIS2_PLACEMENT_3D('',#1773,#1395,#1396);
#1126=AXIS2_PLACEMENT_3D('',#1775,#1397,#1398);
#1127=AXIS2_PLACEMENT_3D('',#1776,#1399,#1400);
#1128=AXIS2_PLACEMENT_3D('',#1778,#1401,#1402);
#1129=AXIS2_PLACEMENT_3D('',#1780,#1403,#1404);
#1130=AXIS2_PLACEMENT_3D('',#1781,#1405,#1406);
#1131=AXIS2_PLACEMENT_3D('',#1782,#1407,#1408);
#1132=AXIS2_PLACEMENT_3D('',#1784,#1409,#1410);
#1133=AXIS2_PLACEMENT_3D('',#1786,#1412,#1413);
#1134=AXIS2_PLACEMENT_3D('',#1788,#1414,#1415);
#1135=AXIS2_PLACEMENT_3D('',#1789,#1416,#1417);
#1136=AXIS2_PLACEMENT_3D('',#1790,#1418,#1419);
#1137=AXIS2_PLACEMENT_3D('',#1793,#1420,#1421);
#1138=AXIS2_PLACEMENT_3D('',#1796,#1424,#1425);
#1139=AXIS2_PLACEMENT_3D('',#1799,#1426,#1427);
#1140=AXIS2_PLACEMENT_3D('',#1800,#1428,#1429);
#1141=AXIS2_PLACEMENT_3D('',#1801,#1430,#1431);
#1142=AXIS2_PLACEMENT_3D('',#1802,#1432,#1433);
#1143=AXIS2_PLACEMENT_3D('',#1805,#1434,#1435);
#1144=AXIS2_PLACEMENT_3D('',#1808,#1438,#1439);
#1145=AXIS2_PLACEMENT_3D('',#1810,#1440,#1441);
#1146=AXIS2_PLACEMENT_3D('',#1811,#1442,#1443);
#1147=AXIS2_PLACEMENT_3D('',#1812,#1444,#1445);
#1148=AXIS2_PLACEMENT_3D('',#1813,#1446,#1447);
#1149=AXIS2_PLACEMENT_3D('',#1815,#1449,#1450);
#1150=AXIS2_PLACEMENT_3D('',#1818,#1453,#1454);
#1151=AXIS2_PLACEMENT_3D('',#1819,#1455,#1456);
#1152=AXIS2_PLACEMENT_3D('',#1821,#1457,#1458);
#1153=AXIS2_PLACEMENT_3D('',#1823,#1459,#1460);
#1154=AXIS2_PLACEMENT_3D('',#1825,#1461,#1462);
#1155=AXIS2_PLACEMENT_3D('',#1827,#1463,#1464);
#1156=AXIS2_PLACEMENT_3D('',#1829,#1465,#1466);
#1157=AXIS2_PLACEMENT_3D('',#1830,#1467,#1468);
#1158=AXIS2_PLACEMENT_3D('',#1832,#1469,#1470);
#1159=AXIS2_PLACEMENT_3D('',#1833,#1471,#1472);
#1160=AXIS2_PLACEMENT_3D('',#1834,#1473,#1474);
#1161=AXIS2_PLACEMENT_3D('',#1836,#1475,#1476);
#1162=AXIS2_PLACEMENT_3D('',#1838,#1478,#1479);
#1163=AXIS2_PLACEMENT_3D('',#1840,#1481,#1482);
#1164=AXIS2_PLACEMENT_3D('',#1841,#1483,#1484);
#1165=AXIS2_PLACEMENT_3D('',#1843,#1486,#1487);
#1166=AXIS2_PLACEMENT_3D('',#1844,#1488,#1489);
#1167=AXIS2_PLACEMENT_3D('',#1846,#1490,#1491);
#1168=AXIS2_PLACEMENT_3D('',#1848,#1492,#1493);
#1169=AXIS2_PLACEMENT_3D('',#1849,#1494,#1495);
#1170=AXIS2_PLACEMENT_3D('',#1851,#1497,#1498);
#1171=AXIS2_PLACEMENT_3D('',#1853,#1500,#1501);
#1172=AXIS2_PLACEMENT_3D('',#1855,#1502,#1503);
#1173=AXIS2_PLACEMENT_3D('',#1857,#1504,#1505);
#1174=AXIS2_PLACEMENT_3D('',#1858,#1506,#1507);
#1175=AXIS2_PLACEMENT_3D('',#1860,#1509,#1510);
#1176=AXIS2_PLACEMENT_3D('',#1862,#1512,#1513);
#1177=AXIS2_PLACEMENT_3D('',#1864,#1514,#1515);
#1178=AXIS2_PLACEMENT_3D('',#1866,#1516,#1517);
#1179=AXIS2_PLACEMENT_3D('',#1867,#1518,#1519);
#1180=AXIS2_PLACEMENT_3D('',#1869,#1521,#1522);
#1181=AXIS2_PLACEMENT_3D('',#1871,#1524,#1525);
#1182=AXIS2_PLACEMENT_3D('',#1873,#1526,#1527);
#1183=AXIS2_PLACEMENT_3D('',#1875,#1528,#1529);
#1184=AXIS2_PLACEMENT_3D('',#1876,#1530,#1531);
#1185=AXIS2_PLACEMENT_3D('',#1878,#1533,#1534);
#1186=AXIS2_PLACEMENT_3D('',#1880,#1536,#1537);
#1187=DIRECTION('axis',(0.,0.,1.));
#1188=DIRECTION('refdir',(1.,0.,0.));
#1189=DIRECTION('center_axis',(0.,1.,0.));
#1190=DIRECTION('ref_axis',(0.707106781186547,0.,-0.707106781186547));
#1191=DIRECTION('center_axis',(0.,1.,0.));
#1192=DIRECTION('ref_axis',(1.,0.,0.));
#1193=DIRECTION('',(0.,1.,0.));
#1194=DIRECTION('center_axis',(0.,-1.,0.));
#1195=DIRECTION('ref_axis',(0.,0.,-1.));
#1196=DIRECTION('',(0.,-1.,0.));
#1197=DIRECTION('center_axis',(0.408248290463863,-0.816496580927727,-0.408248290463863));
#1198=DIRECTION('ref_axis',(0.577350269189626,0.577350269189626,-0.577350269189626));
#1199=DIRECTION('center_axis',(1.,0.,0.));
#1200=DIRECTION('ref_axis',(0.,0.707106781186548,-0.707106781186548));
#1201=DIRECTION('center_axis',(0.,0.,-1.));
#1202=DIRECTION('ref_axis',(0.707106781186548,0.707106781186548,0.));
#1203=DIRECTION('center_axis',(0.,1.,0.));
#1204=DIRECTION('ref_axis',(0.707106781186547,0.,-0.707106781186547));
#1205=DIRECTION('',(0.,-1.,0.));
#1206=DIRECTION('center_axis',(0.,1.,0.));
#1207=DIRECTION('ref_axis',(1.,0.,0.));
#1208=DIRECTION('center_axis',(0.,0.,-1.));
#1209=DIRECTION('ref_axis',(-1.,0.,0.));
#1210=DIRECTION('center_axis',(0.,0.,1.));
#1211=DIRECTION('ref_axis',(-0.953462589245592,-0.301511344577763,0.));
#1212=DIRECTION('center_axis',(0.,0.,1.));
#1213=DIRECTION('ref_axis',(-0.953462589245593,-0.301511344577763,0.));
#1214=DIRECTION('',(0.,0.,1.));
#1215=DIRECTION('center_axis',(0.,0.,-1.));
#1216=DIRECTION('ref_axis',(-0.953462589245592,-0.301511344577763,0.));
#1217=DIRECTION('',(0.,0.,-1.));
#1218=DIRECTION('center_axis',(1.,0.,0.));
#1219=DIRECTION('ref_axis',(0.,0.,-1.));
#1220=DIRECTION('',(0.,0.,-1.));
#1221=DIRECTION('',(0.,1.,0.));
#1222=DIRECTION('',(0.,1.,0.));
#1223=DIRECTION('center_axis',(0.408248290463863,-0.816496580927727,0.408248290463863));
#1224=DIRECTION('ref_axis',(0.577350269189626,0.577350269189626,0.577350269189626));
#1225=DIRECTION('center_axis',(0.,1.,0.));
#1226=DIRECTION('ref_axis',(0.,0.,1.));
#1227=DIRECTION('center_axis',(0.,0.,1.));
#1228=DIRECTION('ref_axis',(0.707106781186548,0.707106781186548,0.));
#1229=DIRECTION('center_axis',(1.,0.,0.));
#1230=DIRECTION('ref_axis',(0.,0.707106781186548,0.707106781186548));
#1231=DIRECTION('center_axis',(0.,1.,0.));
#1232=DIRECTION('ref_axis',(0.707106781186547,0.,0.707106781186547));
#1233=DIRECTION('center_axis',(0.,1.,0.));
#1234=DIRECTION('ref_axis',(0.,0.,1.));
#1235=DIRECTION('',(0.,-1.,0.));
#1236=DIRECTION('center_axis',(0.,-1.,0.));
#1237=DIRECTION('ref_axis',(0.707106781186547,0.,0.707106781186547));
#1238=DIRECTION('center_axis',(0.,1.,0.));
#1239=DIRECTION('ref_axis',(0.,0.,1.));
#1240=DIRECTION('center_axis',(0.,0.,1.));
#1241=DIRECTION('ref_axis',(1.,0.,0.));
#1242=DIRECTION('center_axis',(0.,0.,1.));
#1243=DIRECTION('ref_axis',(1.,0.,0.));
#1244=DIRECTION('',(1.,0.,0.));
#1245=DIRECTION('',(0.,1.,0.));
#1246=DIRECTION('center_axis',(0.,0.,1.));
#1247=DIRECTION('ref_axis',(-1.,0.,0.));
#1248=DIRECTION('center_axis',(1.,0.,0.));
#1249=DIRECTION('ref_axis',(0.,0.707106781186547,0.707106781186547));
#1250=DIRECTION('',(-1.,0.,0.));
#1251=DIRECTION('center_axis',(-1.,0.,0.));
#1252=DIRECTION('ref_axis',(0.,0.707106781186548,0.707106781186548));
#1253=DIRECTION('center_axis',(0.,0.,-1.));
#1254=DIRECTION('ref_axis',(0.707106781186547,0.707106781186547,0.));
#1255=DIRECTION('',(0.,0.,1.));
#1256=DIRECTION('center_axis',(-0.408248290463863,-0.816496580927727,-0.408248290463863));
#1257=DIRECTION('ref_axis',(-0.577350269189626,0.577350269189626,-0.577350269189626));
#1258=DIRECTION('center_axis',(0.,1.,0.));
#1259=DIRECTION('ref_axis',(0.,0.,-1.));
#1260=DIRECTION('center_axis',(0.,0.,-1.));
#1261=DIRECTION('ref_axis',(-0.707106781186548,0.707106781186548,0.));
#1262=DIRECTION('center_axis',(-1.,0.,0.));
#1263=DIRECTION('ref_axis',(0.,0.707106781186548,-0.707106781186548));
#1264=DIRECTION('center_axis',(0.,1.,0.));
#1265=DIRECTION('ref_axis',(-0.707106781186547,0.,-0.707106781186547));
#1266=DIRECTION('center_axis',(0.,1.,0.));
#1267=DIRECTION('ref_axis',(0.,0.,-1.));
#1268=DIRECTION('',(0.,1.,0.));
#1269=DIRECTION('',(0.,-1.,0.));
#1270=DIRECTION('center_axis',(0.,-1.,0.));
#1271=DIRECTION('ref_axis',(-0.707106781186547,0.,-0.707106781186547));
#1272=DIRECTION('center_axis',(0.,1.,0.));
#1273=DIRECTION('ref_axis',(0.,0.,-1.));
#1274=DIRECTION('',(0.,1.,0.));
#1275=DIRECTION('center_axis',(0.,0.,-1.));
#1276=DIRECTION('ref_axis',(-1.,0.,0.));
#1277=DIRECTION('center_axis',(0.,0.,1.));
#1278=DIRECTION('ref_axis',(0.953462589245592,-0.301511344577763,0.));
#1279=DIRECTION('center_axis',(0.,0.,-1.));
#1280=DIRECTION('ref_axis',(-1.,0.,0.));
#1281=DIRECTION('center_axis',(0.,0.,-1.));
#1282=DIRECTION('ref_axis',(-1.,0.,0.));
#1283=DIRECTION('',(-1.,0.,0.));
#1284=DIRECTION('center_axis',(-1.,0.,0.));
#1285=DIRECTION('ref_axis',(0.,0.707106781186547,-0.707106781186547));
#1286=DIRECTION('',(1.,0.,0.));
#1287=DIRECTION('center_axis',(0.,1.,0.));
#1288=DIRECTION('ref_axis',(-0.707106781186547,0.,0.707106781186547));
#1289=DIRECTION('center_axis',(0.,1.,0.));
#1290=DIRECTION('ref_axis',(-1.,0.,0.));
#1291=DIRECTION('center_axis',(0.,-1.,0.));
#1292=DIRECTION('ref_axis',(0.,0.,1.));
#1293=DIRECTION('',(0.,-1.,0.));
#1294=DIRECTION('center_axis',(-0.408248290463863,-0.816496580927727,0.408248290463863));
#1295=DIRECTION('ref_axis',(-0.577350269189626,0.577350269189626,0.577350269189626));
#1296=DIRECTION('center_axis',(0.,0.,1.));
#1297=DIRECTION('ref_axis',(-0.707106781186548,0.707106781186548,0.));
#1298=DIRECTION('center_axis',(0.,1.,0.));
#1299=DIRECTION('ref_axis',(-0.707106781186547,0.,0.707106781186547));
#1300=DIRECTION('',(0.,-1.,0.));
#1301=DIRECTION('center_axis',(0.,1.,0.));
#1302=DIRECTION('ref_axis',(-1.,0.,0.));
#1303=DIRECTION('center_axis',(0.,0.,1.));
#1304=DIRECTION('ref_axis',(1.,0.,0.));
#1305=DIRECTION('center_axis',(0.,0.,-1.));
#1306=DIRECTION('ref_axis',(0.953462589245592,-0.301511344577763,0.));
#1307=DIRECTION('center_axis',(0.,0.,-1.));
#1308=DIRECTION('ref_axis',(0.953462589245593,-0.301511344577763,0.));
#1309=DIRECTION('',(0.,0.,1.));
#1310=DIRECTION('',(0.,0.,-1.));
#1311=DIRECTION('center_axis',(-1.,0.,0.));
#1312=DIRECTION('ref_axis',(0.,0.,1.));
#1313=DIRECTION('',(0.,0.,1.));
#1314=DIRECTION('center_axis',(1.,0.,0.));
#1315=DIRECTION('ref_axis',(0.,-0.707106781186546,-0.707106781186549));
#1316=DIRECTION('center_axis',(1.,0.,0.));
#1317=DIRECTION('ref_axis',(0.,-1.,0.));
#1318=DIRECTION('',(1.,0.,0.));
#1319=DIRECTION('center_axis',(-1.,0.,0.));
#1320=DIRECTION('ref_axis',(0.,0.,-1.));
#1321=DIRECTION('',(-1.,0.,0.));
#1322=DIRECTION('center_axis',(0.,0.,1.));
#1323=DIRECTION('ref_axis',(1.,0.,0.));
#1324=DIRECTION('center_axis',(0.,-1.,0.));
#1325=DIRECTION('ref_axis',(0.,0.,-1.));
#1326=DIRECTION('center_axis',(0.,0.,-1.));
#1327=DIRECTION('ref_axis',(0.707106781186548,-0.707106781186548,0.));
#1328=DIRECTION('center_axis',(0.,0.,1.));
#1329=DIRECTION('ref_axis',(0.707106781186548,-0.707106781186548,0.));
#1330=DIRECTION('center_axis',(0.,1.,0.));
#1331=DIRECTION('ref_axis',(0.707106781186546,0.,-0.707106781186549));
#1332=DIRECTION('center_axis',(0.,-1.,0.));
#1333=DIRECTION('ref_axis',(0.,0.,-1.));
#1334=DIRECTION('',(0.,-1.,0.));
#1335=DIRECTION('',(0.,1.,0.));
#1336=DIRECTION('center_axis',(0.,0.,1.));
#1337=DIRECTION('ref_axis',(1.,0.,0.));
#1338=DIRECTION('center_axis',(1.,0.,0.));
#1339=DIRECTION('ref_axis',(0.,0.,-1.));
#1340=DIRECTION('center_axis',(0.,0.,-1.));
#1341=DIRECTION('ref_axis',(0.707106781186548,0.707106781186548,0.));
#1342=DIRECTION('center_axis',(0.,0.,1.));
#1343=DIRECTION('ref_axis',(0.707106781186548,0.707106781186548,0.));
#1344=DIRECTION('center_axis',(-1.,0.,0.));
#1345=DIRECTION('ref_axis',(0.,0.707106781186546,-0.707106781186549));
#1346=DIRECTION('center_axis',(1.,0.,0.));
#1347=DIRECTION('ref_axis',(0.,0.,-1.));
#1348=DIRECTION('',(1.,0.,0.));
#1349=DIRECTION('',(-1.,0.,0.));
#1350=DIRECTION('center_axis',(0.,0.,1.));
#1351=DIRECTION('ref_axis',(1.,0.,0.));
#1352=DIRECTION('center_axis',(0.,1.,0.));
#1353=DIRECTION('ref_axis',(0.,0.,-1.));
#1354=DIRECTION('center_axis',(0.,0.,-1.));
#1355=DIRECTION('ref_axis',(-0.707106781186548,0.707106781186548,0.));
#1356=DIRECTION('center_axis',(0.,0.,1.));
#1357=DIRECTION('ref_axis',(-0.707106781186548,0.707106781186548,0.));
#1358=DIRECTION('center_axis',(0.,-1.,0.));
#1359=DIRECTION('ref_axis',(-0.707106781186546,0.,-0.707106781186549));
#1360=DIRECTION('center_axis',(0.,1.,0.));
#1361=DIRECTION('ref_axis',(0.,0.,-1.));
#1362=DIRECTION('',(0.,1.,0.));
#1363=DIRECTION('',(0.,-1.,0.));
#1364=DIRECTION('center_axis',(0.,0.,1.));
#1365=DIRECTION('ref_axis',(1.,0.,0.));
#1366=DIRECTION('center_axis',(0.,0.,-1.));
#1367=DIRECTION('ref_axis',(-0.707106781186548,-0.707106781186548,0.));
#1368=DIRECTION('center_axis',(0.,0.,1.));
#1369=DIRECTION('ref_axis',(-0.707106781186548,-0.707106781186548,0.));
#1370=DIRECTION('center_axis',(0.,0.,1.));
#1371=DIRECTION('ref_axis',(-0.707106781186548,0.707106781186548,0.));
#1372=DIRECTION('',(0.,0.,1.));
#1373=DIRECTION('center_axis',(0.,0.,1.));
#1374=DIRECTION('ref_axis',(-0.707106781186548,0.707106781186548,0.));
#1375=DIRECTION('',(0.,0.,-1.));
#1376=DIRECTION('center_axis',(-1.,0.,0.));
#1377=DIRECTION('ref_axis',(0.,-1.,0.));
#1378=DIRECTION('',(0.,0.,-1.));
#1379=DIRECTION('',(0.,-1.,0.));
#1380=DIRECTION('center_axis',(0.,0.,1.));
#1381=DIRECTION('ref_axis',(-0.707106781186548,-0.707106781186548,0.));
#1382=DIRECTION('',(0.,0.,1.));
#1383=DIRECTION('center_axis',(0.,0.,1.));
#1384=DIRECTION('ref_axis',(-0.707106781186548,-0.707106781186548,0.));
#1385=DIRECTION('center_axis',(0.,-1.,0.));
#1386=DIRECTION('ref_axis',(1.,0.,0.));
#1387=DIRECTION('',(0.,0.,-1.));
#1388=DIRECTION('',(1.,0.,0.));
#1389=DIRECTION('center_axis',(0.,0.,1.));
#1390=DIRECTION('ref_axis',(1.,0.,0.));
#1391=DIRECTION('center_axis',(0.,0.,1.));
#1392=DIRECTION('ref_axis',(1.,0.,0.));
#1393=DIRECTION('center_axis',(0.,0.,1.));
#1394=DIRECTION('ref_axis',(1.,0.,0.));
#1395=DIRECTION('center_axis',(0.,0.,1.));
#1396=DIRECTION('ref_axis',(1.,0.,0.));
#1397=DIRECTION('center_axis',(0.,0.,1.));
#1398=DIRECTION('ref_axis',(1.,0.,0.));
#1399=DIRECTION('center_axis',(0.,0.,-1.));
#1400=DIRECTION('ref_axis',(-1.,0.,0.));
#1401=DIRECTION('center_axis',(-1.,0.,0.));
#1402=DIRECTION('ref_axis',(0.,-1.,0.));
#1403=DIRECTION('center_axis',(0.,0.,-1.));
#1404=DIRECTION('ref_axis',(-0.707106781186548,-0.707106781186548,0.));
#1405=DIRECTION('center_axis',(0.,-1.,0.));
#1406=DIRECTION('ref_axis',(0.,0.,1.));
#1407=DIRECTION('center_axis',(0.,-1.,0.));
#1408=DIRECTION('ref_axis',(-0.707106781186547,0.,0.707106781186548));
#1409=DIRECTION('center_axis',(0.,-1.,0.));
#1410=DIRECTION('ref_axis',(0.,0.,1.));
#1411=DIRECTION('',(0.,1.,0.));
#1412=DIRECTION('center_axis',(0.,0.,-1.));
#1413=DIRECTION('ref_axis',(-1.,0.,0.));
#1414=DIRECTION('center_axis',(-1.,0.,0.));
#1415=DIRECTION('ref_axis',(0.,0.,1.));
#1416=DIRECTION('center_axis',(0.,0.,-1.));
#1417=DIRECTION('ref_axis',(-0.707106781186548,0.707106781186548,0.));
#1418=DIRECTION('center_axis',(-1.,0.,0.));
#1419=DIRECTION('ref_axis',(0.,0.707106781186547,0.707106781186548));
#1420=DIRECTION('center_axis',(-1.,0.,0.));
#1421=DIRECTION('ref_axis',(0.,0.,1.));
#1422=DIRECTION('',(-1.,0.,0.));
#1423=DIRECTION('',(1.,0.,0.));
#1424=DIRECTION('center_axis',(0.,0.,-1.));
#1425=DIRECTION('ref_axis',(-1.,0.,0.));
#1426=DIRECTION('center_axis',(0.,1.,0.));
#1427=DIRECTION('ref_axis',(0.,0.,1.));
#1428=DIRECTION('center_axis',(0.,0.,1.));
#1429=DIRECTION('ref_axis',(0.707106781186548,0.707106781186548,0.));
#1430=DIRECTION('center_axis',(0.,0.,-1.));
#1431=DIRECTION('ref_axis',(0.707106781186548,0.707106781186548,0.));
#1432=DIRECTION('center_axis',(0.,1.,0.));
#1433=DIRECTION('ref_axis',(0.707106781186547,0.,0.707106781186548));
#1434=DIRECTION('center_axis',(0.,1.,0.));
#1435=DIRECTION('ref_axis',(0.,0.,1.));
#1436=DIRECTION('',(0.,1.,0.));
#1437=DIRECTION('',(0.,-1.,0.));
#1438=DIRECTION('center_axis',(0.,0.,-1.));
#1439=DIRECTION('ref_axis',(-1.,0.,0.));
#1440=DIRECTION('center_axis',(1.,0.,0.));
#1441=DIRECTION('ref_axis',(0.,0.,1.));
#1442=DIRECTION('center_axis',(0.,0.,1.));
#1443=DIRECTION('ref_axis',(0.707106781186548,-0.707106781186548,0.));
#1444=DIRECTION('center_axis',(0.,0.,-1.));
#1445=DIRECTION('ref_axis',(0.707106781186548,-0.707106781186548,0.));
#1446=DIRECTION('center_axis',(1.,0.,0.));
#1447=DIRECTION('ref_axis',(0.,-0.707106781186547,0.707106781186548));
#1448=DIRECTION('',(-1.,0.,0.));
#1449=DIRECTION('center_axis',(1.,0.,0.));
#1450=DIRECTION('ref_axis',(0.,1.,0.));
#1451=DIRECTION('',(0.,0.,-1.));
#1452=DIRECTION('',(0.,0.,1.));
#1453=DIRECTION('center_axis',(0.,0.,1.));
#1454=DIRECTION('ref_axis',(0.707106781186548,-0.707106781186548,0.));
#1455=DIRECTION('center_axis',(0.,0.,1.));
#1456=DIRECTION('ref_axis',(1.,0.,0.));
#1457=DIRECTION('center_axis',(0.,0.,1.));
#1458=DIRECTION('ref_axis',(-1.,0.,0.));
#1459=DIRECTION('center_axis',(0.,0.,-1.));
#1460=DIRECTION('ref_axis',(1.,0.,0.));
#1461=DIRECTION('center_axis',(0.,0.,-1.));
#1462=DIRECTION('ref_axis',(1.,0.,0.));
#1463=DIRECTION('center_axis',(0.,0.,-1.));
#1464=DIRECTION('ref_axis',(1.,0.,0.));
#1465=DIRECTION('center_axis',(0.,0.,-1.));
#1466=DIRECTION('ref_axis',(1.,0.,0.));
#1467=DIRECTION('center_axis',(0.,0.,-1.));
#1468=DIRECTION('ref_axis',(-1.,0.,0.));
#1469=DIRECTION('center_axis',(0.,0.,-1.));
#1470=DIRECTION('ref_axis',(-1.,0.,0.));
#1471=DIRECTION('center_axis',(-1.22464679914735E-16,-1.,0.));
#1472=DIRECTION('ref_axis',(1.,-1.22464679914735E-16,0.));
#1473=DIRECTION('center_axis',(0.,0.,1.));
#1474=DIRECTION('ref_axis',(-1.,0.,0.));
#1475=DIRECTION('center_axis',(0.,0.,1.));
#1476=DIRECTION('ref_axis',(-1.,0.,0.));
#1477=DIRECTION('',(0.,0.,-1.));
#1478=DIRECTION('center_axis',(0.,0.,1.));
#1479=DIRECTION('ref_axis',(-0.707106781186547,0.707106781186547,0.));
#1480=DIRECTION('',(0.,0.,-1.));
#1481=DIRECTION('center_axis',(0.,1.,0.));
#1482=DIRECTION('ref_axis',(0.,0.,1.));
#1483=DIRECTION('center_axis',(0.,0.,1.));
#1484=DIRECTION('ref_axis',(0.707106781186548,0.707106781186548,0.));
#1485=DIRECTION('',(0.,0.,1.));
#1486=DIRECTION('center_axis',(0.,1.,0.));
#1487=DIRECTION('ref_axis',(-1.,0.,0.));
#1488=DIRECTION('center_axis',(0.,0.,-1.));
#1489=DIRECTION('ref_axis',(1.,0.,0.));
#1490=DIRECTION('center_axis',(0.,0.,-1.));
#1491=DIRECTION('ref_axis',(1.,0.,0.));
#1492=DIRECTION('center_axis',(0.,0.,-1.));
#1493=DIRECTION('ref_axis',(1.,0.,0.));
#1494=DIRECTION('center_axis',(0.,0.,-1.));
#1495=DIRECTION('ref_axis',(1.,0.,0.));
#1496=DIRECTION('',(0.,0.,-1.));
#1497=DIRECTION('center_axis',(0.,0.,-1.));
#1498=DIRECTION('ref_axis',(1.,0.,0.));
#1499=DIRECTION('',(0.,0.,-1.));
#1500=DIRECTION('center_axis',(0.,0.,-1.));
#1501=DIRECTION('ref_axis',(1.,0.,0.));
#1502=DIRECTION('center_axis',(0.,0.,-1.));
#1503=DIRECTION('ref_axis',(1.,0.,0.));
#1504=DIRECTION('center_axis',(0.,0.,-1.));
#1505=DIRECTION('ref_axis',(1.,0.,0.));
#1506=DIRECTION('center_axis',(0.,0.,-1.));
#1507=DIRECTION('ref_axis',(1.,0.,0.));
#1508=DIRECTION('',(0.,0.,-1.));
#1509=DIRECTION('center_axis',(0.,0.,-1.));
#1510=DIRECTION('ref_axis',(1.,0.,0.));
#1511=DIRECTION('',(0.,0.,-1.));
#1512=DIRECTION('center_axis',(0.,0.,-1.));
#1513=DIRECTION('ref_axis',(1.,0.,0.));
#1514=DIRECTION('center_axis',(0.,0.,-1.));
#1515=DIRECTION('ref_axis',(1.,0.,0.));
#1516=DIRECTION('center_axis',(0.,0.,-1.));
#1517=DIRECTION('ref_axis',(1.,0.,0.));
#1518=DIRECTION('center_axis',(0.,0.,-1.));
#1519=DIRECTION('ref_axis',(1.,0.,0.));
#1520=DIRECTION('',(0.,0.,-1.));
#1521=DIRECTION('center_axis',(0.,0.,-1.));
#1522=DIRECTION('ref_axis',(1.,0.,0.));
#1523=DIRECTION('',(0.,0.,-1.));
#1524=DIRECTION('center_axis',(0.,0.,-1.));
#1525=DIRECTION('ref_axis',(1.,0.,0.));
#1526=DIRECTION('center_axis',(0.,0.,-1.));
#1527=DIRECTION('ref_axis',(1.,0.,0.));
#1528=DIRECTION('center_axis',(0.,0.,-1.));
#1529=DIRECTION('ref_axis',(1.,0.,0.));
#1530=DIRECTION('center_axis',(0.,0.,-1.));
#1531=DIRECTION('ref_axis',(1.,0.,0.));
#1532=DIRECTION('',(0.,0.,-1.));
#1533=DIRECTION('center_axis',(0.,0.,-1.));
#1534=DIRECTION('ref_axis',(1.,0.,0.));
#1535=DIRECTION('',(0.,0.,-1.));
#1536=DIRECTION('center_axis',(0.,0.,1.));
#1537=DIRECTION('ref_axis',(-1.,0.,0.));
#1538=CARTESIAN_POINT('',(0.,0.,0.));
#1539=CARTESIAN_POINT('Origin',(35.,0.,45.));
#1540=CARTESIAN_POINT('',(40.,35.7071421427142,45.));
#1541=CARTESIAN_POINT('',(35.,35.7071421427142,40.));
#1542=CARTESIAN_POINT('Origin',(35.,35.7071421427142,45.));
#1543=CARTESIAN_POINT('',(35.,65.,40.));
#1544=CARTESIAN_POINT('',(35.,0.,40.));
#1545=CARTESIAN_POINT('',(40.,65.,45.));
#1546=CARTESIAN_POINT('Origin',(35.,65.,45.));
#1547=CARTESIAN_POINT('',(40.,0.,45.));
#1548=CARTESIAN_POINT('Origin',(35.,65.,45.));
#1549=CARTESIAN_POINT('',(35.,70.,45.));
#1550=CARTESIAN_POINT('Origin',(35.,65.,45.));
#1551=CARTESIAN_POINT('Origin',(35.,65.,45.));
#1552=CARTESIAN_POINT('Origin',(35.,0.,45.));
#1553=CARTESIAN_POINT('',(38.7298334620742,31.6227766016838,41.6700837330059));
#1554=CARTESIAN_POINT('Ctrl Pts',(35.,35.7071421427142,40.));
#1555=CARTESIAN_POINT('Ctrl Pts',(35.682827804859,35.037837019539,40.));
#1556=CARTESIAN_POINT('Ctrl Pts',(36.3992445825609,34.2937369275279,40.1455170271721));
#1557=CARTESIAN_POINT('Ctrl Pts',(37.683944671446,32.8753311701639,40.7260111583258));
#1558=CARTESIAN_POINT('Ctrl Pts',(38.2591191717709,32.1992815146234,41.1428374690527));
#1559=CARTESIAN_POINT('Ctrl Pts',(38.7298334620743,31.6227766016836,41.6700837330061));
#1560=CARTESIAN_POINT('',(40.,31.6227766016838,45.));
#1561=CARTESIAN_POINT('',(40.,0.,45.));
#1562=CARTESIAN_POINT('Origin',(35.,31.6227766016838,45.));
#1563=CARTESIAN_POINT('Origin',(45.,31.6227766016838,45.));
#1564=CARTESIAN_POINT('',(40.9090909090909,28.7479787288034,45.));
#1565=CARTESIAN_POINT('Ctrl Pts',(38.7298334620641,31.6227766016962,41.6700837329946));
#1566=CARTESIAN_POINT('Ctrl Pts',(38.744172813295,31.605214554817,41.6861452155537));
#1567=CARTESIAN_POINT('Ctrl Pts',(38.7583930098878,31.5877740593561,41.7021994137622));
#1568=CARTESIAN_POINT('Ctrl Pts',(39.6682475885177,30.4703581256144,42.7372194028933));
#1569=CARTESIAN_POINT('Ctrl Pts',(40.3883241025206,29.4888263420506,44.050233843251));
#1570=CARTESIAN_POINT('Ctrl Pts',(40.9064457134053,28.7517426321822,44.9951750200249));
#1571=CARTESIAN_POINT('Ctrl Pts',(40.9077683762431,28.7498607260392,44.997587510124));
#1572=CARTESIAN_POINT('Ctrl Pts',(40.9090909090909,28.7479787288034,45.));
#1573=CARTESIAN_POINT('Origin',(45.,31.6227766016838,45.));
#1574=CARTESIAN_POINT('Origin',(45.,31.6227766016838,10.));
#1575=CARTESIAN_POINT('',(40.,31.6227766016838,75.));
#1576=CARTESIAN_POINT('',(40.,31.6227766016838,10.));
#1577=CARTESIAN_POINT('',(40.9090909090909,28.7479787288034,75.));
#1578=CARTESIAN_POINT('Origin',(45.,31.6227766016838,75.));
#1579=CARTESIAN_POINT('',(40.9090909090909,28.7479787288034,10.));
#1580=CARTESIAN_POINT('Origin',(40.,0.,80.));
#1581=CARTESIAN_POINT('',(40.,65.,75.));
#1582=CARTESIAN_POINT('',(40.,65.,70.));
#1583=CARTESIAN_POINT('',(40.,35.7071421427142,75.));
#1584=CARTESIAN_POINT('',(40.,0.,75.));
#1585=CARTESIAN_POINT('',(40.,0.,75.));
#1586=CARTESIAN_POINT('Origin',(35.,65.,75.));
#1587=CARTESIAN_POINT('',(35.,65.,80.));
#1588=CARTESIAN_POINT('Origin',(35.,65.,75.));
#1589=CARTESIAN_POINT('',(35.,70.,75.));
#1590=CARTESIAN_POINT('Origin',(35.,65.,75.));
#1591=CARTESIAN_POINT('Origin',(35.,65.,75.));
#1592=CARTESIAN_POINT('Origin',(35.,0.,75.));
#1593=CARTESIAN_POINT('',(35.,35.7071421427142,80.));
#1594=CARTESIAN_POINT('Origin',(35.,35.7071421427142,75.));
#1595=CARTESIAN_POINT('',(35.,0.,80.));
#1596=CARTESIAN_POINT('Origin',(35.,0.,75.));
#1597=CARTESIAN_POINT('',(38.7298334620742,31.6227766016838,78.3299162669941));
#1598=CARTESIAN_POINT('Ctrl Pts',(38.7298334620743,31.6227766016836,78.3299162669939));
#1599=CARTESIAN_POINT('Ctrl Pts',(38.2591191717709,32.1992815146234,78.8571625309473));
#1600=CARTESIAN_POINT('Ctrl Pts',(37.683944671446,32.8753311701639,79.2739888416742));
#1601=CARTESIAN_POINT('Ctrl Pts',(36.3992445825609,34.2937369275279,79.8544829728279));
#1602=CARTESIAN_POINT('Ctrl Pts',(35.682827804859,35.037837019539,80.));
#1603=CARTESIAN_POINT('Ctrl Pts',(35.,35.7071421427142,80.));
#1604=CARTESIAN_POINT('Origin',(35.,31.6227766016838,75.));
#1605=CARTESIAN_POINT('Origin',(45.,31.6227766016838,75.));
#1606=CARTESIAN_POINT('Ctrl Pts',(40.9090909090909,28.7479787288034,75.));
#1607=CARTESIAN_POINT('Ctrl Pts',(40.907768376237,28.7498607260478,75.0024124898871));
#1608=CARTESIAN_POINT('Ctrl Pts',(40.9064457134119,28.7517426321727,75.004824979963));
#1609=CARTESIAN_POINT('Ctrl Pts',(40.3883241065067,29.48882633638,75.9497661494791));
#1610=CARTESIAN_POINT('Ctrl Pts',(39.6682475908997,30.470358122689,77.262780594397));
#1611=CARTESIAN_POINT('Ctrl Pts',(38.7583930098911,31.5877740593521,78.297800586234));
#1612=CARTESIAN_POINT('Ctrl Pts',(38.7441728133017,31.6052145548088,78.3138547844388));
#1613=CARTESIAN_POINT('Ctrl Pts',(38.7298334620742,31.6227766016838,78.3299162669941));
#1614=CARTESIAN_POINT('Origin',(-40.,0.,80.));
#1615=CARTESIAN_POINT('',(-35.,65.,80.));
#1616=CARTESIAN_POINT('',(-20.,65.,80.));
#1617=CARTESIAN_POINT('',(-35.,35.7071421427142,80.));
#1618=CARTESIAN_POINT('',(-35.,0.,80.));
#1619=CARTESIAN_POINT('Origin',(0.,0.,80.));
#1620=CARTESIAN_POINT('Origin',(-20.,65.,75.));
#1621=CARTESIAN_POINT('',(-35.,70.,75.));
#1622=CARTESIAN_POINT('',(-20.,70.,75.));
#1623=CARTESIAN_POINT('Origin',(-35.,65.,75.));
#1624=CARTESIAN_POINT('Origin',(35.,65.,70.));
#1625=CARTESIAN_POINT('',(35.,70.,70.));
#1626=CARTESIAN_POINT('Origin',(-35.,65.,45.));
#1627=CARTESIAN_POINT('',(-35.,65.,40.));
#1628=CARTESIAN_POINT('',(-40.,65.,45.));
#1629=CARTESIAN_POINT('Origin',(-35.,65.,45.));
#1630=CARTESIAN_POINT('',(-35.,70.,45.));
#1631=CARTESIAN_POINT('Origin',(-35.,65.,45.));
#1632=CARTESIAN_POINT('Origin',(-35.,65.,45.));
#1633=CARTESIAN_POINT('Origin',(-35.,0.,45.));
#1634=CARTESIAN_POINT('',(-35.,35.7071421427142,40.));
#1635=CARTESIAN_POINT('',(-40.,35.7071421427142,45.));
#1636=CARTESIAN_POINT('Origin',(-35.,35.7071421427142,45.));
#1637=CARTESIAN_POINT('',(-40.,0.,45.));
#1638=CARTESIAN_POINT('',(-35.,0.,40.));
#1639=CARTESIAN_POINT('Origin',(-35.,0.,45.));
#1640=CARTESIAN_POINT('',(-38.7298334620742,31.6227766016838,41.6700837330059));
#1641=CARTESIAN_POINT('Ctrl Pts',(-38.7298334620743,31.6227766016836,41.6700837330061));
#1642=CARTESIAN_POINT('Ctrl Pts',(-38.2591191717709,32.1992815146234,41.1428374690527));
#1643=CARTESIAN_POINT('Ctrl Pts',(-37.683944671446,32.8753311701638,40.7260111583258));
#1644=CARTESIAN_POINT('Ctrl Pts',(-36.3992445825609,34.2937369275279,40.1455170271721));
#1645=CARTESIAN_POINT('Ctrl Pts',(-35.682827804859,35.037837019539,40.));
#1646=CARTESIAN_POINT('Ctrl Pts',(-35.,35.7071421427142,40.));
#1647=CARTESIAN_POINT('',(-40.,31.6227766016838,45.));
#1648=CARTESIAN_POINT('Origin',(-35.,31.6227766016838,45.));
#1649=CARTESIAN_POINT('',(-40.,0.,45.));
#1650=CARTESIAN_POINT('Origin',(-45.,31.6227766016838,45.));
#1651=CARTESIAN_POINT('',(-40.9090909090909,28.7479787288034,45.));
#1652=CARTESIAN_POINT('Ctrl Pts',(-40.9090909090909,28.7479787288034,45.));
#1653=CARTESIAN_POINT('Ctrl Pts',(-40.9077683763842,28.7498607258383,44.9975875103815));
#1654=CARTESIAN_POINT('Ctrl Pts',(-40.9064457132634,28.751742632384,44.9951750197705));
#1655=CARTESIAN_POINT('Ctrl Pts',(-40.3883292376208,29.4888190368183,44.0502432081376));
#1656=CARTESIAN_POINT('Ctrl Pts',(-39.6682506566273,30.4703543575895,42.7372228930717));
#1657=CARTESIAN_POINT('Ctrl Pts',(-38.7583930098912,31.5877740593521,41.702199413766));
#1658=CARTESIAN_POINT('Ctrl Pts',(-38.7441728133017,31.6052145548088,41.6861452155612));
#1659=CARTESIAN_POINT('Ctrl Pts',(-38.7298334620742,31.6227766016838,41.6700837330059));
#1660=CARTESIAN_POINT('Origin',(-45.,31.6227766016838,45.));
#1661=CARTESIAN_POINT('Origin',(40.,0.,40.));
#1662=CARTESIAN_POINT('Origin',(0.,0.,40.));
#1663=CARTESIAN_POINT('',(20.,65.,40.));
#1664=CARTESIAN_POINT('Origin',(20.,65.,45.));
#1665=CARTESIAN_POINT('',(20.,70.,45.));
#1666=CARTESIAN_POINT('Origin',(-35.,0.,75.));
#1667=CARTESIAN_POINT('',(-40.,35.7071421427142,75.));
#1668=CARTESIAN_POINT('Origin',(-35.,35.7071421427142,75.));
#1669=CARTESIAN_POINT('',(-40.,65.,75.));
#1670=CARTESIAN_POINT('Origin',(-35.,65.,75.));
#1671=CARTESIAN_POINT('',(-40.,0.,75.));
#1672=CARTESIAN_POINT('Origin',(-35.,65.,75.));
#1673=CARTESIAN_POINT('Origin',(-35.,65.,75.));
#1674=CARTESIAN_POINT('Origin',(-35.,0.,75.));
#1675=CARTESIAN_POINT('',(-38.7298334620742,31.6227766016838,78.3299162669941));
#1676=CARTESIAN_POINT('Ctrl Pts',(-35.,35.7071421427142,80.));
#1677=CARTESIAN_POINT('Ctrl Pts',(-35.682827804859,35.037837019539,80.));
#1678=CARTESIAN_POINT('Ctrl Pts',(-36.3992445825609,34.2937369275279,79.8544829728279));
#1679=CARTESIAN_POINT('Ctrl Pts',(-37.683944671446,32.8753311701638,79.2739888416742));
#1680=CARTESIAN_POINT('Ctrl Pts',(-38.2591191717709,32.1992815146234,78.8571625309473));
#1681=CARTESIAN_POINT('Ctrl Pts',(-38.7298334620743,31.6227766016836,78.3299162669939));
#1682=CARTESIAN_POINT('',(-40.,31.6227766016838,75.));
#1683=CARTESIAN_POINT('',(-40.,0.,75.));
#1684=CARTESIAN_POINT('Origin',(-35.,31.6227766016838,75.));
#1685=CARTESIAN_POINT('Origin',(-45.,31.6227766016838,75.));
#1686=CARTESIAN_POINT('',(-40.9090909090909,28.7479787288034,75.));
#1687=CARTESIAN_POINT('Ctrl Pts',(-38.7298334620641,31.6227766016962,78.3299162670054));
#1688=CARTESIAN_POINT('Ctrl Pts',(-38.744172813295,31.605214554817,78.3138547844464));
#1689=CARTESIAN_POINT('Ctrl Pts',(-38.7583930098878,31.5877740593561,78.2978005862378));
#1690=CARTESIAN_POINT('Ctrl Pts',(-39.6682459227578,30.4703601713772,77.2627824920192));
#1691=CARTESIAN_POINT('Ctrl Pts',(-40.388321314543,29.4888303082486,75.9497712411864));
#1692=CARTESIAN_POINT('Ctrl Pts',(-40.9064457134906,28.7517426320608,75.0048249798218));
#1693=CARTESIAN_POINT('Ctrl Pts',(-40.9077683761585,28.7498607261596,75.0024124900303));
#1694=CARTESIAN_POINT('Ctrl Pts',(-40.9090909090909,28.7479787288034,75.));
#1695=CARTESIAN_POINT('Origin',(-45.,31.6227766016838,75.));
#1696=CARTESIAN_POINT('Origin',(-45.,31.6227766016838,10.));
#1697=CARTESIAN_POINT('',(-40.9090909090909,28.7479787288034,10.));
#1698=CARTESIAN_POINT('',(-40.,31.6227766016838,10.));
#1699=CARTESIAN_POINT('Origin',(-40.,0.,40.));
#1700=CARTESIAN_POINT('',(-40.,65.,50.));
#1701=CARTESIAN_POINT('Origin',(-35.,-69.,1.));
#1702=CARTESIAN_POINT('',(-67.,-70.,1.));
#1703=CARTESIAN_POINT('',(-67.,-69.,0.));
#1704=CARTESIAN_POINT('Origin',(-67.,-69.,1.));
#1705=CARTESIAN_POINT('',(67.,-69.,0.));
#1706=CARTESIAN_POINT('',(-35.,-69.,0.));
#1707=CARTESIAN_POINT('',(67.,-70.,1.));
#1708=CARTESIAN_POINT('Origin',(67.,-69.,1.));
#1709=CARTESIAN_POINT('',(-35.,-70.,1.));
#1710=CARTESIAN_POINT('Origin',(67.,-67.,1.));
#1711=CARTESIAN_POINT('',(69.,-67.,0.));
#1712=CARTESIAN_POINT('',(70.,-67.,1.));
#1713=CARTESIAN_POINT('Origin',(69.,-67.,1.));
#1714=CARTESIAN_POINT('Origin',(67.,-67.,1.));
#1715=CARTESIAN_POINT('Origin',(67.,-67.,0.));
#1716=CARTESIAN_POINT('Origin',(69.,-35.,1.));
#1717=CARTESIAN_POINT('',(69.,67.,0.));
#1718=CARTESIAN_POINT('',(70.,67.,1.));
#1719=CARTESIAN_POINT('Origin',(69.,67.,1.));
#1720=CARTESIAN_POINT('',(70.,-35.,1.));
#1721=CARTESIAN_POINT('',(69.,-35.,0.));
#1722=CARTESIAN_POINT('Origin',(67.,67.,1.));
#1723=CARTESIAN_POINT('',(67.,69.,0.));
#1724=CARTESIAN_POINT('',(67.,70.,1.));
#1725=CARTESIAN_POINT('Origin',(67.,69.,1.));
#1726=CARTESIAN_POINT('Origin',(67.,67.,1.));
#1727=CARTESIAN_POINT('Origin',(67.,67.,0.));
#1728=CARTESIAN_POINT('Origin',(35.,69.,1.));
#1729=CARTESIAN_POINT('',(-67.,69.,0.));
#1730=CARTESIAN_POINT('',(-67.,70.,1.));
#1731=CARTESIAN_POINT('Origin',(-67.,69.,1.));
#1732=CARTESIAN_POINT('',(35.,70.,1.));
#1733=CARTESIAN_POINT('',(35.,69.,0.));
#1734=CARTESIAN_POINT('Origin',(-67.,67.,1.));
#1735=CARTESIAN_POINT('',(-69.,67.,0.));
#1736=CARTESIAN_POINT('',(-70.,67.,1.));
#1737=CARTESIAN_POINT('Origin',(-69.,67.,1.));
#1738=CARTESIAN_POINT('Origin',(-67.,67.,1.));
#1739=CARTESIAN_POINT('Origin',(-67.,67.,0.));
#1740=CARTESIAN_POINT('Origin',(-69.,35.,1.));
#1741=CARTESIAN_POINT('',(-69.,-67.,0.));
#1742=CARTESIAN_POINT('',(-70.,-67.,1.));
#1743=CARTESIAN_POINT('Origin',(-69.,-67.,1.));
#1744=CARTESIAN_POINT('',(-70.,35.,1.));
#1745=CARTESIAN_POINT('',(-69.,35.,0.));
#1746=CARTESIAN_POINT('Origin',(-67.,-67.,1.));
#1747=CARTESIAN_POINT('Origin',(-67.,-67.,1.));
#1748=CARTESIAN_POINT('Origin',(-67.,-67.,0.));
#1749=CARTESIAN_POINT('Origin',(-67.,67.,0.));
#1750=CARTESIAN_POINT('',(-70.,67.,9.));
#1751=CARTESIAN_POINT('',(-70.,67.,0.));
#1752=CARTESIAN_POINT('',(-67.,70.,9.));
#1753=CARTESIAN_POINT('Origin',(-67.,67.,9.));
#1754=CARTESIAN_POINT('',(-67.,70.,0.));
#1755=CARTESIAN_POINT('Origin',(-70.,70.,0.));
#1756=CARTESIAN_POINT('',(-70.,-67.,9.));
#1757=CARTESIAN_POINT('',(-70.,-67.,0.));
#1758=CARTESIAN_POINT('',(-70.,35.,9.));
#1759=CARTESIAN_POINT('Origin',(-67.,-67.,0.));
#1760=CARTESIAN_POINT('',(-67.,-70.,9.));
#1761=CARTESIAN_POINT('',(-67.,-70.,0.));
#1762=CARTESIAN_POINT('Origin',(-67.,-67.,9.));
#1763=CARTESIAN_POINT('Origin',(-70.,-70.,0.));
#1764=CARTESIAN_POINT('',(67.,-70.,9.));
#1765=CARTESIAN_POINT('',(67.,-70.,0.));
#1766=CARTESIAN_POINT('',(-35.,-70.,9.));
#1767=CARTESIAN_POINT('Origin',(0.,0.,0.));
#1768=CARTESIAN_POINT('',(-52.25,-50.,0.));
#1769=CARTESIAN_POINT('Origin',(-50.,-50.,0.));
#1770=CARTESIAN_POINT('',(47.75,50.,0.));
#1771=CARTESIAN_POINT('Origin',(50.,50.,0.));
#1772=CARTESIAN_POINT('',(47.75,-50.,0.));
#1773=CARTESIAN_POINT('Origin',(50.,-50.,0.));
#1774=CARTESIAN_POINT('',(-52.25,50.,0.));
#1775=CARTESIAN_POINT('Origin',(-50.,50.,0.));
#1776=CARTESIAN_POINT('Origin',(-67.,-67.,9.));
#1777=CARTESIAN_POINT('',(-67.,-69.,10.));
#1778=CARTESIAN_POINT('Origin',(-67.,-69.,9.));
#1779=CARTESIAN_POINT('',(-69.,-67.,10.));
#1780=CARTESIAN_POINT('Origin',(-67.,-67.,10.));
#1781=CARTESIAN_POINT('Origin',(-69.,-67.,9.));
#1782=CARTESIAN_POINT('Origin',(-69.,35.,9.));
#1783=CARTESIAN_POINT('',(-69.,67.,10.));
#1784=CARTESIAN_POINT('Origin',(-69.,67.,9.));
#1785=CARTESIAN_POINT('',(-69.,35.,10.));
#1786=CARTESIAN_POINT('Origin',(-67.,67.,9.));
#1787=CARTESIAN_POINT('',(-67.,69.,10.));
#1788=CARTESIAN_POINT('Origin',(-67.,69.,9.));
#1789=CARTESIAN_POINT('Origin',(-67.,67.,10.));
#1790=CARTESIAN_POINT('Origin',(35.,69.,9.));
#1791=CARTESIAN_POINT('',(67.,69.,10.));
#1792=CARTESIAN_POINT('',(67.,70.,9.));
#1793=CARTESIAN_POINT('Origin',(67.,69.,9.));
#1794=CARTESIAN_POINT('',(35.,70.,9.));
#1795=CARTESIAN_POINT('',(35.,69.,10.));
#1796=CARTESIAN_POINT('Origin',(67.,67.,9.));
#1797=CARTESIAN_POINT('',(69.,67.,10.));
#1798=CARTESIAN_POINT('',(70.,67.,9.));
#1799=CARTESIAN_POINT('Origin',(69.,67.,9.));
#1800=CARTESIAN_POINT('Origin',(67.,67.,9.));
#1801=CARTESIAN_POINT('Origin',(67.,67.,10.));
#1802=CARTESIAN_POINT('Origin',(69.,-35.,9.));
#1803=CARTESIAN_POINT('',(69.,-67.,10.));
#1804=CARTESIAN_POINT('',(70.,-67.,9.));
#1805=CARTESIAN_POINT('Origin',(69.,-67.,9.));
#1806=CARTESIAN_POINT('',(70.,-35.,9.));
#1807=CARTESIAN_POINT('',(69.,-35.,10.));
#1808=CARTESIAN_POINT('Origin',(67.,-67.,9.));
#1809=CARTESIAN_POINT('',(67.,-69.,10.));
#1810=CARTESIAN_POINT('Origin',(67.,-69.,9.));
#1811=CARTESIAN_POINT('Origin',(67.,-67.,9.));
#1812=CARTESIAN_POINT('Origin',(67.,-67.,10.));
#1813=CARTESIAN_POINT('Origin',(-35.,-69.,9.));
#1814=CARTESIAN_POINT('',(-35.,-69.,10.));
#1815=CARTESIAN_POINT('Origin',(70.,-70.,0.));
#1816=CARTESIAN_POINT('',(70.,67.,0.));
#1817=CARTESIAN_POINT('',(70.,-67.,0.));
#1818=CARTESIAN_POINT('Origin',(67.,-67.,0.));
#1819=CARTESIAN_POINT('Origin',(0.,0.,10.));
#1820=CARTESIAN_POINT('',(53.,6.49062803548097E-15,10.));
#1821=CARTESIAN_POINT('Origin',(0.,0.,10.));
#1822=CARTESIAN_POINT('',(-54.,-50.,10.));
#1823=CARTESIAN_POINT('Origin',(-50.,-50.,10.));
#1824=CARTESIAN_POINT('',(46.,50.,10.));
#1825=CARTESIAN_POINT('Origin',(50.,50.,10.));
#1826=CARTESIAN_POINT('',(46.,-50.,10.));
#1827=CARTESIAN_POINT('Origin',(50.,-50.,10.));
#1828=CARTESIAN_POINT('',(-54.,50.,10.));
#1829=CARTESIAN_POINT('Origin',(-50.,50.,10.));
#1830=CARTESIAN_POINT('Origin',(0.,0.,13.));
#1831=CARTESIAN_POINT('',(50.,-6.12323399573676E-15,13.));
#1832=CARTESIAN_POINT('Origin',(0.,0.,13.));
#1833=CARTESIAN_POINT('Origin',(53.,-6.49062803548097E-15,13.));
#1834=CARTESIAN_POINT('Origin',(0.,0.,10.));
#1835=CARTESIAN_POINT('',(50.,6.12323399573676E-15,110.));
#1836=CARTESIAN_POINT('Origin',(0.,0.,110.));
#1837=CARTESIAN_POINT('',(50.,6.12323399573676E-15,10.));
#1838=CARTESIAN_POINT('Origin',(-35.,65.,50.));
#1839=CARTESIAN_POINT('',(-35.,70.,50.));
#1840=CARTESIAN_POINT('Origin',(0.,70.,60.));
#1841=CARTESIAN_POINT('Origin',(67.,67.,0.));
#1842=CARTESIAN_POINT('',(67.,70.,0.));
#1843=CARTESIAN_POINT('Origin',(70.,70.,0.));
#1844=CARTESIAN_POINT('Origin',(-50.,50.,6.));
#1845=CARTESIAN_POINT('',(-54.,50.,6.));
#1846=CARTESIAN_POINT('Origin',(-50.,50.,6.));
#1847=CARTESIAN_POINT('',(-52.25,50.,6.));
#1848=CARTESIAN_POINT('Origin',(-50.,50.,6.));
#1849=CARTESIAN_POINT('Origin',(-50.,50.,8.));
#1850=CARTESIAN_POINT('',(-54.,50.,8.));
#1851=CARTESIAN_POINT('Origin',(-50.,50.,0.));
#1852=CARTESIAN_POINT('',(-52.25,50.,0.));
#1853=CARTESIAN_POINT('Origin',(50.,-50.,6.));
#1854=CARTESIAN_POINT('',(46.,-50.,6.));
#1855=CARTESIAN_POINT('Origin',(50.,-50.,6.));
#1856=CARTESIAN_POINT('',(47.75,-50.,6.));
#1857=CARTESIAN_POINT('Origin',(50.,-50.,6.));
#1858=CARTESIAN_POINT('Origin',(50.,-50.,8.));
#1859=CARTESIAN_POINT('',(46.,-50.,8.));
#1860=CARTESIAN_POINT('Origin',(50.,-50.,0.));
#1861=CARTESIAN_POINT('',(47.75,-50.,0.));
#1862=CARTESIAN_POINT('Origin',(50.,50.,6.));
#1863=CARTESIAN_POINT('',(46.,50.,6.));
#1864=CARTESIAN_POINT('Origin',(50.,50.,6.));
#1865=CARTESIAN_POINT('',(47.75,50.,6.));
#1866=CARTESIAN_POINT('Origin',(50.,50.,6.));
#1867=CARTESIAN_POINT('Origin',(50.,50.,8.));
#1868=CARTESIAN_POINT('',(46.,50.,8.));
#1869=CARTESIAN_POINT('Origin',(50.,50.,0.));
#1870=CARTESIAN_POINT('',(47.75,50.,0.));
#1871=CARTESIAN_POINT('Origin',(-50.,-50.,6.));
#1872=CARTESIAN_POINT('',(-54.,-50.,6.));
#1873=CARTESIAN_POINT('Origin',(-50.,-50.,6.));
#1874=CARTESIAN_POINT('',(-52.25,-50.,6.));
#1875=CARTESIAN_POINT('Origin',(-50.,-50.,6.));
#1876=CARTESIAN_POINT('Origin',(-50.,-50.,8.));
#1877=CARTESIAN_POINT('',(-54.,-50.,8.));
#1878=CARTESIAN_POINT('Origin',(-50.,-50.,0.));
#1879=CARTESIAN_POINT('',(-52.25,-50.,0.));
#1880=CARTESIAN_POINT('Origin',(0.,0.,110.));
#1881=UNCERTAINTY_MEASURE_WITH_UNIT(LENGTH_MEASURE(0.01),#1885,
'DISTANCE_ACCURACY_VALUE',
'Maximum model space distance between geometric entities at asserted c
onnectivities');
#1882=UNCERTAINTY_MEASURE_WITH_UNIT(LENGTH_MEASURE(0.01),#1885,
'DISTANCE_ACCURACY_VALUE',
'Maximum model space distance between geometric entities at asserted c
onnectivities');
#1883=(
GEOMETRIC_REPRESENTATION_CONTEXT(3)
GLOBAL_UNCERTAINTY_ASSIGNED_CONTEXT((#1881))
GLOBAL_UNIT_ASSIGNED_CONTEXT((#1885,#1887,#1888))
REPRESENTATION_CONTEXT('','3D')
);
#1884=(
GEOMETRIC_REPRESENTATION_CONTEXT(3)
GLOBAL_UNCERTAINTY_ASSIGNED_CONTEXT((#1882))
GLOBAL_UNIT_ASSIGNED_CONTEXT((#1885,#1887,#1888))
REPRESENTATION_CONTEXT('','3D')
);
#1885=(
LENGTH_UNIT()
NAMED_UNIT(*)
SI_UNIT(.MILLI.,.METRE.)
);
#1886=(
LENGTH_UNIT()
NAMED_UNIT(*)
SI_UNIT($,.METRE.)
);
#1887=(
NAMED_UNIT(*)
PLANE_ANGLE_UNIT()
SI_UNIT($,.RADIAN.)
);
#1888=(
NAMED_UNIT(*)
SI_UNIT($,.STERADIAN.)
SOLID_ANGLE_UNIT()
);
#1889=SHAPE_DEFINITION_REPRESENTATION(#1890,#1891);
#1890=PRODUCT_DEFINITION_SHAPE('',$,#1893);
#1891=SHAPE_REPRESENTATION('',(#1040),#1883);
#1892=PRODUCT_DEFINITION_CONTEXT('part definition',#1897,'design');
#1893=PRODUCT_DEFINITION('2026-08-18-15-37-16-751','Base',#1894,#1892);
#1894=PRODUCT_DEFINITION_FORMATION('',$,#1899);
#1895=PRODUCT_RELATED_PRODUCT_CATEGORY('Base','Base',(#1899));
#1896=APPLICATION_PROTOCOL_DEFINITION('international standard',
'automotive_design',2009,#1897);
#1897=APPLICATION_CONTEXT(
'Core Data for Automotive Mechanical Design Process');
#1898=PRODUCT_CONTEXT('part definition',#1897,'mechanical');
#1899=PRODUCT('2026-08-18-15-37-16-751','Base',$,(#1898));
#1900=PRESENTATION_STYLE_ASSIGNMENT((#1901));
#1901=SURFACE_STYLE_USAGE(.BOTH.,#1902);
#1902=SURFACE_SIDE_STYLE('',(#1903));
#1903=SURFACE_STYLE_FILL_AREA(#1904);
#1904=FILL_AREA_STYLE('Steel - Satin',(#1905));
#1905=FILL_AREA_STYLE_COLOUR('Steel - Satin',#1906);
#1906=COLOUR_RGB('Steel - Satin',0.627450980392157,0.627450980392157,0.627450980392157);
ENDSEC;
END-ISO-10303-21;
