ISO-10303-21;
HEADER;
/* Generated by software containing ST-Developer
 * from STEP Tools, Inc. (www.steptools.com) 
 */

FILE_DESCRIPTION(
/* description */ (''),
/* implementation_level */ '2;1');

FILE_NAME(
/* name */ 'Gripper Holder 2.0.step',
/* time_stamp */ '2026-08-23T20:24:13+05:30',
/* author */ (''),
/* organization */ (''),
/* preprocessor_version */ 'ST-DEVELOPER v20.1',
/* originating_system */ 'Autodesk Translation Framework v15.8.0.0',
/* authorisation */ '');

FILE_SCHEMA (('AUTOMOTIVE_DESIGN { 1 0 10303 214 3 1 1 }'));
ENDSEC;

DATA;
#10=MECHANICAL_DESIGN_GEOMETRIC_PRESENTATION_REPRESENTATION('',(#13),#903);
#11=SHAPE_REPRESENTATION_RELATIONSHIP('SRR','None',#910,#12);
#12=ADVANCED_BREP_SHAPE_REPRESENTATION('',(#14),#902);
#13=STYLED_ITEM('',(#919),#14);
#14=MANIFOLD_SOLID_BREP('Body2',#271);
#15=CYLINDRICAL_SURFACE('',#297,1.75);
#16=CYLINDRICAL_SURFACE('',#298,1.75);
#17=CYLINDRICAL_SURFACE('',#300,5.);
#18=(
BOUNDED_SURFACE()
B_SPLINE_SURFACE(5,1,((#754,#755),(#756,#757),(#758,#759),(#760,#761),(#762,
#763),(#764,#765),(#766,#767),(#768,#769),(#770,#771),(#772,#773),(#774,
#775),(#776,#777),(#778,#779),(#780,#781),(#782,#783),(#784,#785),(#786,
#787),(#788,#789),(#790,#791),(#792,#793),(#794,#795),(#796,#797),(#798,
#799),(#800,#801),(#802,#803)),.UNSPECIFIED.,.F.,.F.,.F.)
B_SPLINE_SURFACE_WITH_KNOTS((6,1,1,1,1,1,1,1,1,1,1,1,1,1,1,1,1,1,1,1,6),
(2,2),(-1.,-0.95,-0.9,-0.85,-0.8,-0.75,-0.7,-0.65,-0.6,-0.55,-0.5,-0.45,
-0.4,-0.35,-0.3,-0.25,-0.2,-0.15,-0.1,-0.05,0.),(0.,0.5),.UNSPECIFIED.)
GEOMETRIC_REPRESENTATION_ITEM()
RATIONAL_B_SPLINE_SURFACE(((1.,1.),(1.,1.),(1.,1.),(1.,1.),(1.,1.),(1.,
1.),(1.,1.),(1.,1.),(1.,1.),(1.,1.),(1.,1.),(1.,1.),(1.,1.),(1.,1.),(1.,
1.),(1.,1.),(1.,1.),(1.,1.),(1.,1.),(1.,1.),(1.,1.),(1.,1.),(1.,1.),(1.,
1.),(1.,1.)))
REPRESENTATION_ITEM('')
SURFACE()
);
#19=(
BOUNDED_SURFACE()
B_SPLINE_SURFACE(5,1,((#807,#808),(#809,#810),(#811,#812),(#813,#814),(#815,
#816),(#817,#818),(#819,#820),(#821,#822),(#823,#824),(#825,#826),(#827,
#828),(#829,#830),(#831,#832),(#833,#834),(#835,#836),(#837,#838),(#839,
#840),(#841,#842),(#843,#844),(#845,#846)),.UNSPECIFIED.,.F.,.F.,.F.)
B_SPLINE_SURFACE_WITH_KNOTS((6,1,1,1,1,1,1,1,1,1,1,1,1,1,1,6),(2,2),(0.,
0.0666666666666667,0.133333333333333,0.2,0.266666666666667,0.333333333333333,
0.4,0.466666666666667,0.533333333333333,0.6,0.666666666666667,0.733333333333333,
0.8,0.866666666666667,0.933333333333333,1.),(0.,0.495),.UNSPECIFIED.)
GEOMETRIC_REPRESENTATION_ITEM()
RATIONAL_B_SPLINE_SURFACE(((1.,1.),(1.,1.),(1.,1.),(1.,1.),(1.,1.),(1.,
1.),(1.,1.),(1.,1.),(1.,1.),(1.,1.),(1.,1.),(1.,1.),(1.,1.),(1.,1.),(1.,
1.),(1.,1.),(1.,1.),(1.,1.),(1.,1.),(1.,1.)))
REPRESENTATION_ITEM('')
SURFACE()
);
#20=(
BOUNDED_SURFACE()
B_SPLINE_SURFACE(5,1,((#849,#850),(#851,#852),(#853,#854),(#855,#856),(#857,
#858),(#859,#860),(#861,#862),(#863,#864),(#865,#866),(#867,#868),(#869,
#870),(#871,#872),(#873,#874),(#875,#876),(#877,#878),(#879,#880),(#881,
#882),(#883,#884),(#885,#886),(#887,#888)),.UNSPECIFIED.,.F.,.F.,.F.)
B_SPLINE_SURFACE_WITH_KNOTS((6,1,1,1,1,1,1,1,1,1,1,1,1,1,1,6),(2,2),(0.,
0.0666666666666667,0.133333333333333,0.2,0.266666666666667,0.333333333333333,
0.4,0.466666666666667,0.533333333333333,0.6,0.666666666666667,0.733333333333333,
0.8,0.866666666666667,0.933333333333333,1.),(0.,0.495),.UNSPECIFIED.)
GEOMETRIC_REPRESENTATION_ITEM()
RATIONAL_B_SPLINE_SURFACE(((1.,1.),(1.,1.),(1.,1.),(1.,1.),(1.,1.),(1.,
1.),(1.,1.),(1.,1.),(1.,1.),(1.,1.),(1.,1.),(1.,1.),(1.,1.),(1.,1.),(1.,
1.),(1.,1.),(1.,1.),(1.,1.),(1.,1.),(1.,1.)))
REPRESENTATION_ITEM('')
SURFACE()
);
#21=(
BOUNDED_CURVE()
B_SPLINE_CURVE(5,(#684,#685,#686,#687,#688,#689,#690,#691,#692,#693,#694,
#695,#696,#697,#698,#699,#700,#701,#702,#703,#704,#705,#706,#707,#708),
 .UNSPECIFIED.,.F.,.F.)
B_SPLINE_CURVE_WITH_KNOTS((6,1,1,1,1,1,1,1,1,1,1,1,1,1,1,1,1,1,1,1,6),(-1.,
-0.95,-0.9,-0.85,-0.8,-0.75,-0.7,-0.65,-0.6,-0.55,-0.5,-0.45,-0.4,-0.35,
-0.3,-0.25,-0.2,-0.15,-0.1,-0.05,0.),.UNSPECIFIED.)
CURVE()
GEOMETRIC_REPRESENTATION_ITEM()
RATIONAL_B_SPLINE_CURVE((1.,1.,1.,1.,1.,1.,1.,1.,1.,1.,1.,1.,1.,1.,1.,1.,
1.,1.,1.,1.,1.,1.,1.,1.,1.))
REPRESENTATION_ITEM('')
);
#22=(
BOUNDED_CURVE()
B_SPLINE_CURVE(5,(#716,#717,#718,#719,#720,#721,#722,#723,#724,#725,#726,
#727),.UNSPECIFIED.,.F.,.F.)
B_SPLINE_CURVE_WITH_KNOTS((6,1,1,1,1,1,1,6),(0.552670328684525,0.6,0.666666666666667,
0.733333333333333,0.8,0.866666666666667,0.933333333333333,1.),
 .UNSPECIFIED.)
CURVE()
GEOMETRIC_REPRESENTATION_ITEM()
RATIONAL_B_SPLINE_CURVE((1.,1.,1.,1.,1.,1.,1.,1.,1.,1.,1.,1.))
REPRESENTATION_ITEM('')
);
#23=(
BOUNDED_CURVE()
B_SPLINE_CURVE(5,(#729,#730,#731,#732,#733,#734,#735,#736,#737,#738,#739,
#740,#741,#742,#743,#744,#745,#746,#747,#748),.UNSPECIFIED.,.F.,.F.)
B_SPLINE_CURVE_WITH_KNOTS((6,1,1,1,1,1,1,1,1,1,1,1,1,1,1,6),(0.,0.0666666666666667,
0.133333333333333,0.2,0.266666666666667,0.333333333333333,0.4,0.466666666666667,
0.533333333333333,0.6,0.666666666666667,0.733333333333333,0.8,0.866666666666667,
0.933333333333333,1.),.UNSPECIFIED.)
CURVE()
GEOMETRIC_REPRESENTATION_ITEM()
RATIONAL_B_SPLINE_CURVE((1.,1.,1.,1.,1.,1.,1.,1.,1.,1.,1.,1.,1.,1.,1.,1.,
1.,1.,1.,1.))
REPRESENTATION_ITEM('')
);
#24=FACE_BOUND('',#53,.T.);
#25=FACE_BOUND('',#54,.T.);
#26=FACE_BOUND('',#57,.T.);
#27=FACE_BOUND('',#58,.T.);
#28=CIRCLE('',#287,5.);
#29=CIRCLE('',#288,1.75);
#30=CIRCLE('',#289,1.75);
#31=CIRCLE('',#292,5.);
#32=CIRCLE('',#293,1.75);
#33=CIRCLE('',#294,1.75);
#34=B_SPLINE_CURVE_WITH_KNOTS('',3,(#378,#379,#380,#381,#382,#383,#384,
#385,#386,#387,#388,#389,#390,#391,#392,#393,#394,#395,#396,#397,#398,#399,
#400,#401,#402,#403,#404,#405,#406,#407,#408,#409,#410,#411,#412,#413,#414,
#415,#416,#417,#418,#419,#420,#421,#422,#423,#424,#425,#426,#427,#428,#429,
#430,#431,#432,#433,#434,#435,#436,#437,#438,#439,#440,#441,#442,#443,#444,
#445,#446,#447,#448,#449,#450,#451,#452,#453,#454,#455,#456,#457,#458,#459,
#460,#461,#462),.UNSPECIFIED.,.F.,.F.,(4,3,3,3,3,3,3,3,3,3,3,3,3,3,3,3,
3,3,3,3,3,3,3,3,3,3,3,3,4),(0.,0.138688248523341,0.304323130046853,0.494172894044623,
0.624881570014675,0.741830637653425,0.851264764557752,0.954033817692095,
1.05051606551435,1.14335927524403,1.23621733769987,1.3296769369275,1.42718402523673,
1.53389481634008,1.65963892662902,1.86992398005179,1.98721555792961,2.09157522672546,
2.18843818588214,2.28271262496508,2.37867282166741,2.47683354571985,2.57850706633235,
2.68753619226127,2.80212581531345,2.92403055680767,3.06529564656453,3.25204451138501,
3.34191935401116),.UNSPECIFIED.);
#35=B_SPLINE_CURVE_WITH_KNOTS('',3,(#464,#465,#466,#467,#468,#469,#470,
#471,#472,#473,#474,#475,#476,#477,#478,#479,#480,#481,#482,#483,#484,#485,
#486,#487,#488,#489,#490,#491,#492,#493,#494,#495,#496,#497,#498,#499,#500,
#501,#502,#503,#504,#505,#506,#507,#508,#509),.UNSPECIFIED.,.F.,.F.,(4,
3,3,3,3,3,3,3,3,3,3,3,3,3,3,4),(0.,0.108851345477538,0.222880727882114,
0.310389301652506,0.388940798540614,0.46258487991785,0.532633642616972,
0.598820194507817,0.661930317892281,0.723454359487226,0.78576636618773,
0.849011044175753,0.914187380718942,0.98530441632384,1.06171647910345,1.15270722342216),
 .UNSPECIFIED.);
#36=B_SPLINE_CURVE_WITH_KNOTS('',3,(#517,#518,#519,#520,#521,#522,#523,
#524,#525,#526,#527,#528,#529,#530,#531,#532,#533,#534,#535,#536,#537,#538,
#539,#540,#541,#542,#543,#544,#545,#546,#547,#548,#549,#550,#551,#552,#553,
#554,#555,#556,#557,#558,#559,#560,#561,#562,#563,#564,#565,#566,#567,#568,
#569,#570,#571,#572,#573,#574,#575,#576,#577,#578,#579,#580,#581,#582,#583,
#584,#585,#586,#587,#588,#589,#590,#591,#592,#593,#594,#595,#596,#597,#598,
#599,#600,#601,#602,#603,#604,#605,#606,#607,#608,#609,#610,#611,#612,#613,
#614,#615,#616,#617,#618,#619,#620,#621,#622,#623,#624,#625,#626,#627,#628,
#629,#630,#631,#632,#633,#634,#635,#636,#637,#638,#639,#640,#641,#642,#643,
#644,#645,#646,#647,#648,#649,#650,#651,#652,#653,#654,#655,#656,#657,#658,
#659,#660,#661,#662,#663,#664,#665,#666,#667,#668,#669,#670),
 .UNSPECIFIED.,.F.,.F.,(4,3,3,3,3,3,3,3,3,3,3,3,3,3,3,3,3,3,3,3,3,3,3,3,
3,3,3,3,3,3,3,3,3,3,3,3,3,3,3,3,3,3,3,3,3,3,3,3,3,3,3,4),(0.,0.237383611981898,
0.433885618252783,0.624246936827703,0.793254091100542,0.955018457837889,
1.10879084782772,1.2540530983193,1.39598997949836,1.54416005805438,1.70233737865474,
1.88921364718285,2.046405524679,2.18647654455776,2.32206939668565,2.45342497218454,
2.5806756859491,2.70394981490851,2.81501654986762,2.92172916253861,3.02756343914766,
3.13907132266938,3.25601737530834,3.38557436009699,3.54279591790862,3.6819379094994,
3.79872005511882,3.90543016293401,4.00778545299471,4.10766360803026,4.20536324534729,
4.29865215659749,4.38604495934204,4.46921424037425,4.54934739788932,4.63231554755174,
4.72749151909815,4.85249247971158,4.95705218802025,5.05747193642647,5.15893177069449,
5.26198790685791,5.36789639642687,5.47734875376729,5.59099088405965,5.71016544106689,
5.83341024380478,5.96228852275115,6.10705106479012,6.26761465247225,6.47770089972315,
6.52544781265022),.UNSPECIFIED.);
#37=FACE_OUTER_BOUND('',#51,.T.);
#38=FACE_OUTER_BOUND('',#52,.T.);
#39=FACE_OUTER_BOUND('',#55,.T.);
#40=FACE_OUTER_BOUND('',#56,.T.);
#41=FACE_OUTER_BOUND('',#59,.T.);
#42=FACE_OUTER_BOUND('',#60,.T.);
#43=FACE_OUTER_BOUND('',#61,.T.);
#44=FACE_OUTER_BOUND('',#62,.T.);
#45=FACE_OUTER_BOUND('',#63,.T.);
#46=FACE_OUTER_BOUND('',#64,.T.);
#47=FACE_OUTER_BOUND('',#65,.T.);
#48=FACE_OUTER_BOUND('',#66,.T.);
#49=FACE_OUTER_BOUND('',#67,.T.);
#50=FACE_OUTER_BOUND('',#68,.T.);
#51=EDGE_LOOP('',(#177,#178,#179,#180));
#52=EDGE_LOOP('',(#181,#182,#183,#184,#185,#186,#187,#188,#189,#190));
#53=EDGE_LOOP('',(#191));
#54=EDGE_LOOP('',(#192));
#55=EDGE_LOOP('',(#193,#194,#195,#196));
#56=EDGE_LOOP('',(#197,#198,#199,#200,#201,#202,#203,#204,#205,#206));
#57=EDGE_LOOP('',(#207));
#58=EDGE_LOOP('',(#208));
#59=EDGE_LOOP('',(#209,#210,#211,#212));
#60=EDGE_LOOP('',(#213,#214,#215,#216));
#61=EDGE_LOOP('',(#217,#218,#219,#220));
#62=EDGE_LOOP('',(#221,#222,#223,#224));
#63=EDGE_LOOP('',(#225,#226,#227,#228));
#64=EDGE_LOOP('',(#229,#230,#231,#232));
#65=EDGE_LOOP('',(#233,#234,#235,#236));
#66=EDGE_LOOP('',(#237,#238,#239,#240));
#67=EDGE_LOOP('',(#241,#242,#243,#244));
#68=EDGE_LOOP('',(#245,#246,#247,#248));
#69=LINE('',#366,#93);
#70=LINE('',#368,#94);
#71=LINE('',#370,#95);
#72=LINE('',#371,#96);
#73=LINE('',#374,#97);
#74=LINE('',#376,#98);
#75=LINE('',#511,#99);
#76=LINE('',#515,#100);
#77=LINE('',#671,#101);
#78=LINE('',#678,#102);
#79=LINE('',#679,#103);
#80=LINE('',#682,#104);
#81=LINE('',#710,#105);
#82=LINE('',#714,#106);
#83=LINE('',#749,#107);
#84=LINE('',#804,#108);
#85=LINE('',#805,#109);
#86=LINE('',#847,#110);
#87=LINE('',#848,#111);
#88=LINE('',#889,#112);
#89=LINE('',#892,#113);
#90=LINE('',#894,#114);
#91=LINE('',#896,#115);
#92=LINE('',#898,#116);
#93=VECTOR('',#306,10.);
#94=VECTOR('',#307,10.);
#95=VECTOR('',#308,10.);
#96=VECTOR('',#309,10.);
#97=VECTOR('',#312,10.);
#98=VECTOR('',#313,10.);
#99=VECTOR('',#314,10.);
#100=VECTOR('',#317,10.);
#101=VECTOR('',#318,10.);
#102=VECTOR('',#325,10.);
#103=VECTOR('',#326,10.);
#104=VECTOR('',#329,10.);
#105=VECTOR('',#330,10.);
#106=VECTOR('',#333,10.);
#107=VECTOR('',#334,10.);
#108=VECTOR('',#339,10.);
#109=VECTOR('',#340,10.);
#110=VECTOR('',#343,10.);
#111=VECTOR('',#344,10.);
#112=VECTOR('',#345,10.);
#113=VECTOR('',#350,1.75);
#114=VECTOR('',#353,1.75);
#115=VECTOR('',#356,10.);
#116=VECTOR('',#359,10.);
#117=VERTEX_POINT('',#364);
#118=VERTEX_POINT('',#365);
#119=VERTEX_POINT('',#367);
#120=VERTEX_POINT('',#369);
#121=VERTEX_POINT('',#373);
#122=VERTEX_POINT('',#375);
#123=VERTEX_POINT('',#377);
#124=VERTEX_POINT('',#463);
#125=VERTEX_POINT('',#510);
#126=VERTEX_POINT('',#512);
#127=VERTEX_POINT('',#514);
#128=VERTEX_POINT('',#516);
#129=VERTEX_POINT('',#672);
#130=VERTEX_POINT('',#674);
#131=VERTEX_POINT('',#677);
#132=VERTEX_POINT('',#681);
#133=VERTEX_POINT('',#683);
#134=VERTEX_POINT('',#709);
#135=VERTEX_POINT('',#711);
#136=VERTEX_POINT('',#713);
#137=VERTEX_POINT('',#715);
#138=VERTEX_POINT('',#728);
#139=VERTEX_POINT('',#750);
#140=VERTEX_POINT('',#752);
#141=EDGE_CURVE('',#117,#118,#69,.T.);
#142=EDGE_CURVE('',#119,#117,#70,.T.);
#143=EDGE_CURVE('',#120,#119,#71,.T.);
#144=EDGE_CURVE('',#118,#120,#72,.T.);
#145=EDGE_CURVE('',#121,#118,#73,.T.);
#146=EDGE_CURVE('',#122,#121,#74,.T.);
#147=EDGE_CURVE('',#123,#122,#34,.T.);
#148=EDGE_CURVE('',#124,#123,#35,.T.);
#149=EDGE_CURVE('',#124,#125,#75,.T.);
#150=EDGE_CURVE('',#126,#125,#28,.T.);
#151=EDGE_CURVE('',#126,#127,#76,.T.);
#152=EDGE_CURVE('',#127,#128,#36,.T.);
#153=EDGE_CURVE('',#128,#117,#77,.T.);
#154=EDGE_CURVE('',#129,#129,#29,.T.);
#155=EDGE_CURVE('',#130,#130,#30,.T.);
#156=EDGE_CURVE('',#131,#120,#78,.T.);
#157=EDGE_CURVE('',#131,#121,#79,.T.);
#158=EDGE_CURVE('',#119,#132,#80,.T.);
#159=EDGE_CURVE('',#132,#133,#21,.T.);
#160=EDGE_CURVE('',#133,#134,#81,.T.);
#161=EDGE_CURVE('',#134,#135,#31,.T.);
#162=EDGE_CURVE('',#135,#136,#82,.T.);
#163=EDGE_CURVE('',#137,#136,#22,.T.);
#164=EDGE_CURVE('',#138,#137,#23,.T.);
#165=EDGE_CURVE('',#138,#131,#83,.T.);
#166=EDGE_CURVE('',#139,#139,#32,.T.);
#167=EDGE_CURVE('',#140,#140,#33,.T.);
#168=EDGE_CURVE('',#133,#127,#84,.T.);
#169=EDGE_CURVE('',#128,#132,#85,.T.);
#170=EDGE_CURVE('',#138,#122,#86,.T.);
#171=EDGE_CURVE('',#123,#137,#87,.T.);
#172=EDGE_CURVE('',#136,#124,#88,.T.);
#173=EDGE_CURVE('',#139,#129,#89,.T.);
#174=EDGE_CURVE('',#140,#130,#90,.T.);
#175=EDGE_CURVE('',#125,#135,#91,.T.);
#176=EDGE_CURVE('',#126,#134,#92,.T.);
#177=ORIENTED_EDGE('',*,*,#141,.F.);
#178=ORIENTED_EDGE('',*,*,#142,.F.);
#179=ORIENTED_EDGE('',*,*,#143,.F.);
#180=ORIENTED_EDGE('',*,*,#144,.F.);
#181=ORIENTED_EDGE('',*,*,#141,.T.);
#182=ORIENTED_EDGE('',*,*,#145,.F.);
#183=ORIENTED_EDGE('',*,*,#146,.F.);
#184=ORIENTED_EDGE('',*,*,#147,.F.);
#185=ORIENTED_EDGE('',*,*,#148,.F.);
#186=ORIENTED_EDGE('',*,*,#149,.T.);
#187=ORIENTED_EDGE('',*,*,#150,.F.);
#188=ORIENTED_EDGE('',*,*,#151,.T.);
#189=ORIENTED_EDGE('',*,*,#152,.T.);
#190=ORIENTED_EDGE('',*,*,#153,.T.);
#191=ORIENTED_EDGE('',*,*,#154,.F.);
#192=ORIENTED_EDGE('',*,*,#155,.F.);
#193=ORIENTED_EDGE('',*,*,#144,.T.);
#194=ORIENTED_EDGE('',*,*,#156,.F.);
#195=ORIENTED_EDGE('',*,*,#157,.T.);
#196=ORIENTED_EDGE('',*,*,#145,.T.);
#197=ORIENTED_EDGE('',*,*,#143,.T.);
#198=ORIENTED_EDGE('',*,*,#158,.T.);
#199=ORIENTED_EDGE('',*,*,#159,.T.);
#200=ORIENTED_EDGE('',*,*,#160,.T.);
#201=ORIENTED_EDGE('',*,*,#161,.T.);
#202=ORIENTED_EDGE('',*,*,#162,.T.);
#203=ORIENTED_EDGE('',*,*,#163,.F.);
#204=ORIENTED_EDGE('',*,*,#164,.F.);
#205=ORIENTED_EDGE('',*,*,#165,.T.);
#206=ORIENTED_EDGE('',*,*,#156,.T.);
#207=ORIENTED_EDGE('',*,*,#166,.T.);
#208=ORIENTED_EDGE('',*,*,#167,.T.);
#209=ORIENTED_EDGE('',*,*,#152,.F.);
#210=ORIENTED_EDGE('',*,*,#168,.F.);
#211=ORIENTED_EDGE('',*,*,#159,.F.);
#212=ORIENTED_EDGE('',*,*,#169,.F.);
#213=ORIENTED_EDGE('',*,*,#142,.T.);
#214=ORIENTED_EDGE('',*,*,#153,.F.);
#215=ORIENTED_EDGE('',*,*,#169,.T.);
#216=ORIENTED_EDGE('',*,*,#158,.F.);
#217=ORIENTED_EDGE('',*,*,#147,.T.);
#218=ORIENTED_EDGE('',*,*,#170,.F.);
#219=ORIENTED_EDGE('',*,*,#164,.T.);
#220=ORIENTED_EDGE('',*,*,#171,.F.);
#221=ORIENTED_EDGE('',*,*,#171,.T.);
#222=ORIENTED_EDGE('',*,*,#163,.T.);
#223=ORIENTED_EDGE('',*,*,#172,.T.);
#224=ORIENTED_EDGE('',*,*,#148,.T.);
#225=ORIENTED_EDGE('',*,*,#146,.T.);
#226=ORIENTED_EDGE('',*,*,#157,.F.);
#227=ORIENTED_EDGE('',*,*,#165,.F.);
#228=ORIENTED_EDGE('',*,*,#170,.T.);
#229=ORIENTED_EDGE('',*,*,#166,.F.);
#230=ORIENTED_EDGE('',*,*,#173,.T.);
#231=ORIENTED_EDGE('',*,*,#154,.T.);
#232=ORIENTED_EDGE('',*,*,#173,.F.);
#233=ORIENTED_EDGE('',*,*,#167,.F.);
#234=ORIENTED_EDGE('',*,*,#174,.T.);
#235=ORIENTED_EDGE('',*,*,#155,.T.);
#236=ORIENTED_EDGE('',*,*,#174,.F.);
#237=ORIENTED_EDGE('',*,*,#149,.F.);
#238=ORIENTED_EDGE('',*,*,#172,.F.);
#239=ORIENTED_EDGE('',*,*,#162,.F.);
#240=ORIENTED_EDGE('',*,*,#175,.F.);
#241=ORIENTED_EDGE('',*,*,#150,.T.);
#242=ORIENTED_EDGE('',*,*,#175,.T.);
#243=ORIENTED_EDGE('',*,*,#161,.F.);
#244=ORIENTED_EDGE('',*,*,#176,.F.);
#245=ORIENTED_EDGE('',*,*,#168,.T.);
#246=ORIENTED_EDGE('',*,*,#151,.F.);
#247=ORIENTED_EDGE('',*,*,#176,.T.);
#248=ORIENTED_EDGE('',*,*,#160,.F.);
#249=PLANE('',#285);
#250=PLANE('',#286);
#251=PLANE('',#290);
#252=PLANE('',#291);
#253=PLANE('',#295);
#254=PLANE('',#296);
#255=PLANE('',#299);
#256=PLANE('',#301);
#257=ADVANCED_FACE('',(#37),#249,.F.);
#258=ADVANCED_FACE('',(#38,#24,#25),#250,.F.);
#259=ADVANCED_FACE('',(#39),#251,.T.);
#260=ADVANCED_FACE('',(#40,#26,#27),#252,.T.);
#261=ADVANCED_FACE('',(#41),#18,.F.);
#262=ADVANCED_FACE('',(#42),#253,.F.);
#263=ADVANCED_FACE('',(#43),#19,.T.);
#264=ADVANCED_FACE('',(#44),#20,.T.);
#265=ADVANCED_FACE('',(#45),#254,.T.);
#266=ADVANCED_FACE('',(#46),#15,.F.);
#267=ADVANCED_FACE('',(#47),#16,.F.);
#268=ADVANCED_FACE('',(#48),#255,.T.);
#269=ADVANCED_FACE('',(#49),#17,.T.);
#270=ADVANCED_FACE('',(#50),#256,.T.);
#271=CLOSED_SHELL('',(#257,#258,#259,#260,#261,#262,#263,#264,#265,#266,
#267,#268,#269,#270));
#272=DERIVED_UNIT_ELEMENT(#274,1.);
#273=DERIVED_UNIT_ELEMENT(#905,-3.);
#274=(
MASS_UNIT()
NAMED_UNIT(*)
SI_UNIT(.KILO.,.GRAM.)
);
#275=DERIVED_UNIT((#272,#273));
#276=MEASURE_REPRESENTATION_ITEM('density measure',
POSITIVE_RATIO_MEASURE(7850.),#275);
#277=PROPERTY_DEFINITION_REPRESENTATION(#282,#279);
#278=PROPERTY_DEFINITION_REPRESENTATION(#283,#280);
#279=REPRESENTATION('material name',(#281),#902);
#280=REPRESENTATION('density',(#276),#902);
#281=DESCRIPTIVE_REPRESENTATION_ITEM('Steel','Steel');
#282=PROPERTY_DEFINITION('material property','material name',#912);
#283=PROPERTY_DEFINITION('material property','density of part',#912);
#284=AXIS2_PLACEMENT_3D('',#362,#302,#303);
#285=AXIS2_PLACEMENT_3D('',#363,#304,#305);
#286=AXIS2_PLACEMENT_3D('',#372,#310,#311);
#287=AXIS2_PLACEMENT_3D('',#513,#315,#316);
#288=AXIS2_PLACEMENT_3D('',#673,#319,#320);
#289=AXIS2_PLACEMENT_3D('',#675,#321,#322);
#290=AXIS2_PLACEMENT_3D('',#676,#323,#324);
#291=AXIS2_PLACEMENT_3D('',#680,#327,#328);
#292=AXIS2_PLACEMENT_3D('',#712,#331,#332);
#293=AXIS2_PLACEMENT_3D('',#751,#335,#336);
#294=AXIS2_PLACEMENT_3D('',#753,#337,#338);
#295=AXIS2_PLACEMENT_3D('',#806,#341,#342);
#296=AXIS2_PLACEMENT_3D('',#890,#346,#347);
#297=AXIS2_PLACEMENT_3D('',#891,#348,#349);
#298=AXIS2_PLACEMENT_3D('',#893,#351,#352);
#299=AXIS2_PLACEMENT_3D('',#895,#354,#355);
#300=AXIS2_PLACEMENT_3D('',#897,#357,#358);
#301=AXIS2_PLACEMENT_3D('',#899,#360,#361);
#302=DIRECTION('axis',(0.,0.,1.));
#303=DIRECTION('refdir',(1.,0.,0.));
#304=DIRECTION('center_axis',(0.477442656036262,0.878662910448051,0.));
#305=DIRECTION('ref_axis',(0.878662910448051,-0.477442656036262,0.));
#306=DIRECTION('',(-0.878662910448051,0.477442656036262,0.));
#307=DIRECTION('',(0.,0.,-1.));
#308=DIRECTION('',(0.878662910448051,-0.477442656036262,0.));
#309=DIRECTION('',(0.,0.,1.));
#310=DIRECTION('center_axis',(0.,0.,1.));
#311=DIRECTION('ref_axis',(1.,0.,0.));
#312=DIRECTION('',(0.,-1.,0.));
#313=DIRECTION('',(-1.,-1.60650530034231E-16,0.));
#314=DIRECTION('',(1.,0.,0.));
#315=DIRECTION('center_axis',(0.,0.,1.));
#316=DIRECTION('ref_axis',(1.,0.,0.));
#317=DIRECTION('',(-1.,0.,0.));
#318=DIRECTION('',(-1.,0.,0.));
#319=DIRECTION('center_axis',(0.,0.,-1.));
#320=DIRECTION('ref_axis',(1.,0.,0.));
#321=DIRECTION('center_axis',(0.,0.,-1.));
#322=DIRECTION('ref_axis',(1.,0.,0.));
#323=DIRECTION('center_axis',(-1.,0.,0.));
#324=DIRECTION('ref_axis',(0.,1.,0.));
#325=DIRECTION('',(0.,-1.,0.));
#326=DIRECTION('',(0.,0.,-1.));
#327=DIRECTION('center_axis',(0.,0.,1.));
#328=DIRECTION('ref_axis',(1.,0.,0.));
#329=DIRECTION('',(1.,0.,0.));
#330=DIRECTION('',(1.,0.,0.));
#331=DIRECTION('center_axis',(0.,0.,1.));
#332=DIRECTION('ref_axis',(1.,0.,0.));
#333=DIRECTION('',(-1.,0.,0.));
#334=DIRECTION('',(-1.,-1.60650530034231E-16,0.));
#335=DIRECTION('center_axis',(0.,0.,-1.));
#336=DIRECTION('ref_axis',(1.,0.,0.));
#337=DIRECTION('center_axis',(0.,0.,-1.));
#338=DIRECTION('ref_axis',(1.,0.,0.));
#339=DIRECTION('',(0.,0.,-1.));
#340=DIRECTION('',(0.,0.,1.));
#341=DIRECTION('center_axis',(0.,1.,0.));
#342=DIRECTION('ref_axis',(1.,0.,0.));
#343=DIRECTION('',(0.,0.,-1.));
#344=DIRECTION('',(0.,0.,1.));
#345=DIRECTION('',(0.,0.,-1.));
#346=DIRECTION('center_axis',(-1.60650530034231E-16,1.,0.));
#347=DIRECTION('ref_axis',(1.,1.60650530034231E-16,0.));
#348=DIRECTION('center_axis',(0.,0.,1.));
#349=DIRECTION('ref_axis',(1.,0.,0.));
#350=DIRECTION('',(0.,0.,-1.));
#351=DIRECTION('center_axis',(0.,0.,1.));
#352=DIRECTION('ref_axis',(1.,0.,0.));
#353=DIRECTION('',(0.,0.,-1.));
#354=DIRECTION('center_axis',(0.,1.,0.));
#355=DIRECTION('ref_axis',(-1.,0.,0.));
#356=DIRECTION('',(0.,0.,1.));
#357=DIRECTION('center_axis',(0.,0.,1.));
#358=DIRECTION('ref_axis',(1.,0.,0.));
#359=DIRECTION('',(0.,0.,1.));
#360=DIRECTION('center_axis',(0.,-1.,0.));
#361=DIRECTION('ref_axis',(1.,0.,0.));
#362=CARTESIAN_POINT('',(0.,0.,0.));
#363=CARTESIAN_POINT('Origin',(-49.1807960659779,-4.99678297462661,4.5));
#364=CARTESIAN_POINT('',(-39.91790121459,-10.03,0.));
#365=CARTESIAN_POINT('',(-49.1807960659779,-4.99678297462661,0.));
#366=CARTESIAN_POINT('',(-31.2439189947558,-14.7432171623555,2.77555756156289E-16));
#367=CARTESIAN_POINT('',(-39.91790121459,-10.03,4.5));
#368=CARTESIAN_POINT('',(-39.91790121459,-10.03,4.5));
#369=CARTESIAN_POINT('',(-49.1807960659779,-4.99678297462661,4.5));
#370=CARTESIAN_POINT('',(-31.2439189947558,-14.7432171623555,4.5));
#371=CARTESIAN_POINT('',(-49.1807960659779,-4.99678297462661,4.5));
#372=CARTESIAN_POINT('Origin',(0.,0.,0.));
#373=CARTESIAN_POINT('',(-49.1807960659779,0.499999999999996,0.));
#374=CARTESIAN_POINT('',(-49.1807960659779,-7.3975,0.));
#375=CARTESIAN_POINT('',(-42.2700001639128,0.499999999999997,0.));
#376=CARTESIAN_POINT('',(-45.1662942492418,0.499999999999997,0.));
#377=CARTESIAN_POINT('',(-25.071059262712,-1.20465362286398,0.));
#378=CARTESIAN_POINT('Ctrl Pts',(-25.071059262712,-1.20465362286398,8.88178419700125E-16));
#379=CARTESIAN_POINT('Ctrl Pts',(-25.3852695923828,-1.30898920056962,8.88178419700125E-16));
#380=CARTESIAN_POINT('Ctrl Pts',(-25.6946562740636,-1.40616592274664,8.88178419700125E-16));
#381=CARTESIAN_POINT('Ctrl Pts',(-25.9992014718197,-1.4961567379615,8.88178419700125E-16));
#382=CARTESIAN_POINT('Ctrl Pts',(-26.3629187174118,-1.60363244823273,8.88178419700125E-16));
#383=CARTESIAN_POINT('Ctrl Pts',(-26.7197291435259,-1.70085752528396,8.88178419700125E-16));
#384=CARTESIAN_POINT('Ctrl Pts',(-27.0695610314831,-1.7877167289515,8.88178419700125E-16));
#385=CARTESIAN_POINT('Ctrl Pts',(-27.4705363620213,-1.88727425672368,8.88178419700125E-16));
#386=CARTESIAN_POINT('Ctrl Pts',(-27.8623384187592,-1.97320750727304,8.88178419700125E-16));
#387=CARTESIAN_POINT('Ctrl Pts',(-28.2448606218024,-2.04531589529113,8.88178419700125E-16));
#388=CARTESIAN_POINT('Ctrl Pts',(-28.5082213425959,-2.09496142408036,8.88178419700125E-16));
#389=CARTESIAN_POINT('Ctrl Pts',(-28.767182988723,-2.1380527378198,-8.90159266063961E-18));
#390=CARTESIAN_POINT('Ctrl Pts',(-29.0217353346602,-2.17454761423297,0.));
#391=CARTESIAN_POINT('Ctrl Pts',(-29.2494911381803,-2.20720070124832,7.96452840207988E-18));
#392=CARTESIAN_POINT('Ctrl Pts',(-29.4737167955578,-2.23457255111378,1.78467960333674E-15));
#393=CARTESIAN_POINT('Ctrl Pts',(-29.6944324391308,-2.25666388761881,1.77635683940025E-15));
#394=CARTESIAN_POINT('Ctrl Pts',(-29.900965284892,-2.27733567381933,1.76856888158913E-15));
#395=CARTESIAN_POINT('Ctrl Pts',(-30.104424526448,-2.29338347335306,1.78448698370605E-15));
#396=CARTESIAN_POINT('Ctrl Pts',(-30.3048554953503,-2.30484197799741,1.77635683940025E-15));
#397=CARTESIAN_POINT('Ctrl Pts',(-30.4930792375738,-2.31560260364451,1.76872186066201E-15));
#398=CARTESIAN_POINT('Ctrl Pts',(-30.6786322411402,-2.32231575573231,1.78432040990878E-15));
#399=CARTESIAN_POINT('Ctrl Pts',(-30.8615802304503,-2.32504433242587,1.77635683940025E-15));
#400=CARTESIAN_POINT('Ctrl Pts',(-31.0333365394252,-2.32760599086993,1.76888043322621E-15));
#401=CARTESIAN_POINT('Ctrl Pts',(-31.20279661019,-2.32665538323341,1.78414804850616E-15));
#402=CARTESIAN_POINT('Ctrl Pts',(-31.3700428150983,-2.32227918886562,1.77635683940025E-15));
#403=CARTESIAN_POINT('Ctrl Pts',(-31.530980965165,-2.31806805219874,1.76885949271322E-15));
#404=CARTESIAN_POINT('Ctrl Pts',(-31.6898689002518,-2.31068458129851,8.88178419700125E-16));
#405=CARTESIAN_POINT('Ctrl Pts',(-31.8468097314126,-2.3002433218567,8.88178419700125E-16));
#406=CARTESIAN_POINT('Ctrl Pts',(-32.0037756694088,-2.28980039205938,8.88178419700125E-16));
#407=CARTESIAN_POINT('Ctrl Pts',(-32.1587938655363,-2.27629866051291,8.88178419700125E-16));
#408=CARTESIAN_POINT('Ctrl Pts',(-32.3120000661416,-2.25989398625028,8.88178419700125E-16));
#409=CARTESIAN_POINT('Ctrl Pts',(-32.4661987402155,-2.24338304211149,8.88178419700125E-16));
#410=CARTESIAN_POINT('Ctrl Pts',(-32.6185618882284,-2.22393143527467,8.88178419700125E-16));
#411=CARTESIAN_POINT('Ctrl Pts',(-32.7692606531435,-2.20173975723049,8.88178419700125E-16));
#412=CARTESIAN_POINT('Ctrl Pts',(-32.9264857846454,-2.17858701606033,8.88178419700125E-16));
#413=CARTESIAN_POINT('Ctrl Pts',(-33.0818993095341,-2.1524517920479,1.78577977920802E-15));
#414=CARTESIAN_POINT('Ctrl Pts',(-33.235731625847,-2.12360802542883,1.77635683940025E-15));
#415=CARTESIAN_POINT('Ctrl Pts',(-33.4040841882675,-2.09204169309655,1.76604446746051E-15));
#416=CARTESIAN_POINT('Ctrl Pts',(-33.5705433285892,-2.05723182222941,1.78727785427869E-15));
#417=CARTESIAN_POINT('Ctrl Pts',(-33.735449646438,-2.01958723188173,1.77635683940025E-15));
#418=CARTESIAN_POINT('Ctrl Pts',(-33.9297692462135,-1.97522821746981,1.76348791316381E-15));
#419=CARTESIAN_POINT('Ctrl Pts',(-34.121933341778,-1.92693382708064,8.88178419700125E-16));
#420=CARTESIAN_POINT('Ctrl Pts',(-34.3125426450811,-1.87542987365333,8.88178419700125E-16));
#421=CARTESIAN_POINT('Ctrl Pts',(-34.6313034000449,-1.78929851073654,8.88178419700125E-16));
#422=CARTESIAN_POINT('Ctrl Pts',(-34.9457216392407,-1.69419633480144,2.08086273858417E-17));
#423=CARTESIAN_POINT('Ctrl Pts',(-35.2586961617203,-1.59365184954364,0.));
#424=CARTESIAN_POINT('Ctrl Pts',(-35.4332652762612,-1.53757072950754,-1.16065155360806E-17));
#425=CARTESIAN_POINT('Ctrl Pts',(-35.6073860720155,-1.47979802054826,8.88178419700125E-16));
#426=CARTESIAN_POINT('Ctrl Pts',(-35.7815412091299,-1.4209255706885,8.88178419700125E-16));
#427=CARTESIAN_POINT('Ctrl Pts',(-35.9364949812352,-1.36854406572686,8.88178419700125E-16));
#428=CARTESIAN_POINT('Ctrl Pts',(-36.0914763205238,-1.31529244784579,8.88178419700125E-16));
#429=CARTESIAN_POINT('Ctrl Pts',(-36.2467996746825,-1.26155871217398,8.88178419700125E-16));
#430=CARTESIAN_POINT('Ctrl Pts',(-36.390965326831,-1.21168495630861,8.88178419700125E-16));
#431=CARTESIAN_POINT('Ctrl Pts',(-36.5354259072528,-1.16139620580231,8.18997220505076E-18));
#432=CARTESIAN_POINT('Ctrl Pts',(-36.6804048332483,-1.11097050320675,0.));
#433=CARTESIAN_POINT('Ctrl Pts',(-36.821509410747,-1.0618923533242,-7.97110724737435E-18));
#434=CARTESIAN_POINT('Ctrl Pts',(-36.963105311539,-1.01268484448036,7.64190607838023E-18));
#435=CARTESIAN_POINT('Ctrl Pts',(-37.1053662079998,-0.963566983625876,0.));
#436=CARTESIAN_POINT('Ctrl Pts',(-37.250170926439,-0.913570827350179,-7.7785539494649E-18));
#437=CARTESIAN_POINT('Ctrl Pts',(-37.3956645502026,-0.863667481303928,1.76889208714737E-15));
#438=CARTESIAN_POINT('Ctrl Pts',(-37.5419945657573,-0.81404640751115,1.77635683940025E-15));
#439=CARTESIAN_POINT('Ctrl Pts',(-37.6916801726138,-0.763287439739671,1.7839927708718E-15));
#440=CARTESIAN_POINT('Ctrl Pts',(-37.8422408686558,-0.712823751528497,8.88178419700125E-16));
#441=CARTESIAN_POINT('Ctrl Pts',(-37.9937990038768,-0.662816362897805,8.88178419700125E-16));
#442=CARTESIAN_POINT('Ctrl Pts',(-38.1507808246012,-0.611019401253516,8.88178419700125E-16));
#443=CARTESIAN_POINT('Ctrl Pts',(-38.3088325837235,-0.559711823815812,8.88178419700125E-16));
#444=CARTESIAN_POINT('Ctrl Pts',(-38.4680543471086,-0.509029779643124,8.88178419700125E-16));
#445=CARTESIAN_POINT('Ctrl Pts',(-38.6387950629427,-0.454681125803359,8.88178419700125E-16));
#446=CARTESIAN_POINT('Ctrl Pts',(-38.8108810930929,-0.401051730280612,8.88178419700125E-16));
#447=CARTESIAN_POINT('Ctrl Pts',(-38.9843971741454,-0.348262572827888,8.88178419700125E-16));
#448=CARTESIAN_POINT('Ctrl Pts',(-39.1667625939532,-0.292781162679795,8.88178419700125E-16));
#449=CARTESIAN_POINT('Ctrl Pts',(-39.3507073550434,-0.238227601652778,8.88178419700125E-16));
#450=CARTESIAN_POINT('Ctrl Pts',(-39.5362922001164,-0.18469546653281,8.88178419700125E-16));
#451=CARTESIAN_POINT('Ctrl Pts',(-39.7337243232115,-0.127745972157906,8.88178419700125E-16));
#452=CARTESIAN_POINT('Ctrl Pts',(-39.9330122490387,-0.0719521444154207,
8.88178419700125E-16));
#453=CARTESIAN_POINT('Ctrl Pts',(-40.1341924623531,-0.0173793852901027,
8.88178419700125E-16));
#454=CARTESIAN_POINT('Ctrl Pts',(-40.367323188384,0.045860367500673,8.88178419700125E-16));
#455=CARTESIAN_POINT('Ctrl Pts',(-40.602994614886,0.107460567685261,8.88178419700125E-16));
#456=CARTESIAN_POINT('Ctrl Pts',(-40.8412207300971,0.167378292168593,8.88178419700125E-16));
#457=CARTESIAN_POINT('Ctrl Pts',(-41.1561496107062,0.246588003847166,8.88178419700125E-16));
#458=CARTESIAN_POINT('Ctrl Pts',(-41.4755408689906,0.322858717040192,1.06257714093633E-17));
#459=CARTESIAN_POINT('Ctrl Pts',(-41.799373436814,0.396181842849281,0.));
#460=CARTESIAN_POINT('Ctrl Pts',(-41.9552212439658,0.431469363334527,-5.11376352469913E-18));
#461=CARTESIAN_POINT('Ctrl Pts',(-42.1120973111829,0.466075147093407,8.88178419700125E-16));
#462=CARTESIAN_POINT('Ctrl Pts',(-42.2700001639128,0.499999999999997,8.88178419700125E-16));
#463=CARTESIAN_POINT('',(-13.9900001639128,5.,0.));
#464=CARTESIAN_POINT('Ctrl Pts',(-13.9900001639128,5.,-8.88178419700125E-16));
#465=CARTESIAN_POINT('Ctrl Pts',(-14.2586874380624,4.88730345328172,-8.88178419700125E-16));
#466=CARTESIAN_POINT('Ctrl Pts',(-14.5350154149664,4.76599671139793,-8.88178419700125E-16));
#467=CARTESIAN_POINT('Ctrl Pts',(-14.8190125644295,4.63605327318266,-8.88178419700125E-16));
#468=CARTESIAN_POINT('Ctrl Pts',(-15.1165194019964,4.49992845136985,-8.88178419700125E-16));
#469=CARTESIAN_POINT('Ctrl Pts',(-15.4224445671951,4.35432022079317,-8.88178419700125E-16));
#470=CARTESIAN_POINT('Ctrl Pts',(-15.7368608221998,4.19919611826755,-8.88178419700125E-16));
#471=CARTESIAN_POINT('Ctrl Pts',(-15.9781505447739,4.08015058208052,-8.88178419700125E-16));
#472=CARTESIAN_POINT('Ctrl Pts',(-16.2244423259378,3.95549969096654,-8.88178419700125E-16));
#473=CARTESIAN_POINT('Ctrl Pts',(-16.475769287696,3.82526305990767,-8.88178419700125E-16));
#474=CARTESIAN_POINT('Ctrl Pts',(-16.7013712853499,3.7083570028374,-8.88178419700125E-16));
#475=CARTESIAN_POINT('Ctrl Pts',(-16.9310308821056,3.58694964204181,-8.88178419700125E-16));
#476=CARTESIAN_POINT('Ctrl Pts',(-17.1647624246556,3.46109622478313,-8.88178419700125E-16));
#477=CARTESIAN_POINT('Ctrl Pts',(-17.3838918546714,3.34310535676181,-8.88178419700125E-16));
#478=CARTESIAN_POINT('Ctrl Pts',(-17.6066005857918,3.22120629873287,1.97456184259561E-17));
#479=CARTESIAN_POINT('Ctrl Pts',(-17.8328870362379,3.09548826255994,0.));
#480=CARTESIAN_POINT('Ctrl Pts',(-18.0481261372341,2.97590780587983,-1.8781633413038E-17));
#481=CARTESIAN_POINT('Ctrl Pts',(-18.2666023216537,2.85287193541877,2.09033657731612E-17));
#482=CARTESIAN_POINT('Ctrl Pts',(-18.4882988468318,2.7265019670517,0.));
#483=CARTESIAN_POINT('Ctrl Pts',(-18.697771905346,2.60709953728007,-1.9750837133002E-17));
#484=CARTESIAN_POINT('Ctrl Pts',(-18.9101201689435,2.48472026846806,-2.04518358219811E-17));
#485=CARTESIAN_POINT('Ctrl Pts',(-19.1253131455751,2.3595102517616,0.));
#486=CARTESIAN_POINT('Ctrl Pts',(-19.330503700434,2.2401201433851,1.95012105222324E-17));
#487=CARTESIAN_POINT('Ctrl Pts',(-19.5382808164864,2.11815609705986,-8.88178419700125E-16));
#488=CARTESIAN_POINT('Ctrl Pts',(-19.7486002151358,1.99378942699595,-8.88178419700125E-16));
#489=CARTESIAN_POINT('Ctrl Pts',(-19.9536338727615,1.87254833647511,-8.88178419700125E-16));
#490=CARTESIAN_POINT('Ctrl Pts',(-20.1610837714476,1.74902363827729,-8.72442479427146E-16));
#491=CARTESIAN_POINT('Ctrl Pts',(-20.3708892269045,1.62342128876167,-8.88178419700125E-16));
#492=CARTESIAN_POINT('Ctrl Pts',(-20.5833817518967,1.49621029543741,-9.04115896990453E-16));
#493=CARTESIAN_POINT('Ctrl Pts',(-20.7982905335996,1.36686817277417,-8.88178419700125E-16));
#494=CARTESIAN_POINT('Ctrl Pts',(-21.0155312336519,1.2356591647745,-8.88178419700125E-16));
#495=CARTESIAN_POINT('Ctrl Pts',(-21.2360235408046,1.10248625156771,-8.88178419700125E-16));
#496=CARTESIAN_POINT('Ctrl Pts',(-21.4589180653585,0.967390247046975,-8.74394598675065E-16));
#497=CARTESIAN_POINT('Ctrl Pts',(-21.6841052683357,0.830697476100854,-8.88178419700125E-16));
#498=CARTESIAN_POINT('Ctrl Pts',(-21.9161702798651,0.689829748955611,-9.02383234817541E-16));
#499=CARTESIAN_POINT('Ctrl Pts',(-22.1506701100552,0.547266361591626,-8.88178419700125E-16));
#500=CARTESIAN_POINT('Ctrl Pts',(-22.3874626469012,0.403416114167018,-8.88178419700125E-16));
#501=CARTESIAN_POINT('Ctrl Pts',(-22.6458383729241,0.246454190400558,-8.88178419700125E-16));
#502=CARTESIAN_POINT('Ctrl Pts',(-22.9069437489486,0.0879602727864171,-8.88178419700125E-16));
#503=CARTESIAN_POINT('Ctrl Pts',(-23.1705688014722,-0.0714759452845753,
-8.88178419700125E-16));
#504=CARTESIAN_POINT('Ctrl Pts',(-23.4538220880071,-0.242783005554473,-8.88178419700125E-16));
#505=CARTESIAN_POINT('Ctrl Pts',(-23.7399839205847,-0.415177171970914,-1.33171823059997E-17));
#506=CARTESIAN_POINT('Ctrl Pts',(-24.0287687396985,-0.587869332552502,0.));
#507=CARTESIAN_POINT('Ctrl Pts',(-24.372650905462,-0.793509484875639,1.58579717150909E-17));
#508=CARTESIAN_POINT('Ctrl Pts',(-24.7202523806206,-0.999571732573004,-8.88178419700125E-16));
#509=CARTESIAN_POINT('Ctrl Pts',(-25.071059262712,-1.20465362286399,-8.88178419700125E-16));
#510=CARTESIAN_POINT('',(11.0000001639128,5.00000007450581,0.));
#511=CARTESIAN_POINT('',(-11.0000001639128,5.00000007450581,0.));
#512=CARTESIAN_POINT('',(11.0000001639128,-5.00000007450581,0.));
#513=CARTESIAN_POINT('Origin',(11.,0.,0.));
#514=CARTESIAN_POINT('',(0.,-5.0000000372529,0.));
#515=CARTESIAN_POINT('',(11.0000001639128,-5.00000007450581,0.));
#516=CARTESIAN_POINT('',(-36.7314296299391,-10.03,0.));
#517=CARTESIAN_POINT('Ctrl Pts',(-4.44089209850063E-16,-5.0000000372529,
0.));
#518=CARTESIAN_POINT('Ctrl Pts',(-0.374252155567673,-5.02751766584765,0.));
#519=CARTESIAN_POINT('Ctrl Pts',(-0.749976707228563,-5.05964953703763,0.));
#520=CARTESIAN_POINT('Ctrl Pts',(-1.1271859874239,-5.09640282113613,0.));
#521=CARTESIAN_POINT('Ctrl Pts',(-1.43943323871282,-5.12682654753451,0.));
#522=CARTESIAN_POINT('Ctrl Pts',(-1.75269732533479,-5.16041833297824,-8.94147360692734E-16));
#523=CARTESIAN_POINT('Ctrl Pts',(-2.06701334388268,-5.19717315754293,-8.88178419700125E-16));
#524=CARTESIAN_POINT('Ctrl Pts',(-2.37150698685095,-5.23277939383997,-8.82396008113536E-16));
#525=CARTESIAN_POINT('Ctrl Pts',(-2.67698678621413,-5.2713552339408,0.));
#526=CARTESIAN_POINT('Ctrl Pts',(-2.98352540456177,-5.31286966707093,0.));
#527=CARTESIAN_POINT('Ctrl Pts',(-3.25567743602226,-5.34972713505392,0.));
#528=CARTESIAN_POINT('Ctrl Pts',(-3.52866413290595,-5.38890106298531,-8.93634028352902E-16));
#529=CARTESIAN_POINT('Ctrl Pts',(-3.80257436824312,-5.43034060383613,-8.88178419700125E-16));
#530=CARTESIAN_POINT('Ctrl Pts',(-4.06474620323339,-5.47000425661143,-8.82956610702273E-16));
#531=CARTESIAN_POINT('Ctrl Pts',(-4.32776403829102,-5.51174374165462,0.));
#532=CARTESIAN_POINT('Ctrl Pts',(-4.59174289643259,-5.55548311944689,0.));
#533=CARTESIAN_POINT('Ctrl Pts',(-4.84267986569188,-5.59706155105975,0.));
#534=CARTESIAN_POINT('Ctrl Pts',(-5.09448513746549,-5.6404473338173,0.));
#535=CARTESIAN_POINT('Ctrl Pts',(-5.34729259461299,-5.68554360167637,0.));
#536=CARTESIAN_POINT('Ctrl Pts',(-5.58610906985101,-5.7281441319693,0.));
#537=CARTESIAN_POINT('Ctrl Pts',(-5.82581966774957,-5.77227125033557,-8.93277433776551E-16));
#538=CARTESIAN_POINT('Ctrl Pts',(-6.06657219364361,-5.81781134237395,-8.88178419700125E-16));
#539=CARTESIAN_POINT('Ctrl Pts',(-6.3018133698318,-5.86230892251372,-8.83196133162179E-16));
#540=CARTESIAN_POINT('Ctrl Pts',(-6.53804914060685,-5.90815572904276,-8.93298570752283E-16));
#541=CARTESIAN_POINT('Ctrl Pts',(-6.77545521125636,-5.95521101519926,-8.88178419700125E-16));
#542=CARTESIAN_POINT('Ctrl Pts',(-7.02328703513191,-6.00433274725627,-8.82833415798991E-16));
#543=CARTESIAN_POINT('Ctrl Pts',(-7.27239462080731,-6.05477145853557,0.));
#544=CARTESIAN_POINT('Ctrl Pts',(-7.52301766624265,-6.10632678003397,0.));
#545=CARTESIAN_POINT('Ctrl Pts',(-7.79056751297283,-6.16136409051379,0.));
#546=CARTESIAN_POINT('Ctrl Pts',(-8.05984505135519,-6.21767403845957,0.));
#547=CARTESIAN_POINT('Ctrl Pts',(-8.33117849650956,-6.27496657629694,0.));
#548=CARTESIAN_POINT('Ctrl Pts',(-8.65174140378904,-6.34265400231299,0.));
#549=CARTESIAN_POINT('Ctrl Pts',(-8.97517714684941,-6.4117126386462,0.));
#550=CARTESIAN_POINT('Ctrl Pts',(-9.30204994758262,-6.48159923436633,0.));
#551=CARTESIAN_POINT('Ctrl Pts',(-9.57700058553345,-6.54038468251117,0.));
#552=CARTESIAN_POINT('Ctrl Pts',(-9.85438511136052,-6.59975392263083,-8.94672294597926E-16));
#553=CARTESIAN_POINT('Ctrl Pts',(-10.1345159316909,-6.65936403957458,-8.88178419700125E-16));
#554=CARTESIAN_POINT('Ctrl Pts',(-10.3841357614695,-6.71248160524275,-8.82391837757159E-16));
#555=CARTESIAN_POINT('Ctrl Pts',(-10.6359368888845,-6.76578977729698,-8.94151804547347E-16));
#556=CARTESIAN_POINT('Ctrl Pts',(-10.8901045940453,-6.81904423769455,-8.88178419700125E-16));
#557=CARTESIAN_POINT('Ctrl Pts',(-11.1361463812143,-6.87059611602091,-8.82396008113536E-16));
#558=CARTESIAN_POINT('Ctrl Pts',(-11.3844066247584,-6.92209723168221,-8.94147360692733E-16));
#559=CARTESIAN_POINT('Ctrl Pts',(-11.6350073442784,-6.97333166427738,-8.88178419700125E-16));
#560=CARTESIAN_POINT('Ctrl Pts',(-11.8777767913135,-7.02296502085395,-8.82396008113536E-16));
#561=CARTESIAN_POINT('Ctrl Pts',(-12.1227431624054,-7.07234778410873,-8.94147360692733E-16));
#562=CARTESIAN_POINT('Ctrl Pts',(-12.3699645221392,-7.12129447485004,-8.88178419700125E-16));
#563=CARTESIAN_POINT('Ctrl Pts',(-12.6094602143812,-7.16871158150568,-8.82396008113536E-16));
#564=CARTESIAN_POINT('Ctrl Pts',(-12.8510724495836,-7.2157192043863,-8.94147360692734E-16));
#565=CARTESIAN_POINT('Ctrl Pts',(-13.0947985177794,-7.26216301589438,-8.88178419700125E-16));
#566=CARTESIAN_POINT('Ctrl Pts',(-13.3309081463442,-7.30715545829283,-8.82396008113536E-16));
#567=CARTESIAN_POINT('Ctrl Pts',(-13.5690018666161,-7.35161857157575,-8.94147360692734E-16));
#568=CARTESIAN_POINT('Ctrl Pts',(-13.8090203905375,-7.39542879336745,-8.88178419700125E-16));
#569=CARTESIAN_POINT('Ctrl Pts',(-14.0252707425512,-7.43490064632892,-8.82800561484385E-16));
#570=CARTESIAN_POINT('Ctrl Pts',(-14.2430833679977,-7.47384252983276,0.));
#571=CARTESIAN_POINT('Ctrl Pts',(-14.4623677166324,-7.51217892129339,0.));
#572=CARTESIAN_POINT('Ctrl Pts',(-14.6730555141018,-7.5490124204923,0.));
#573=CARTESIAN_POINT('Ctrl Pts',(-14.8851020877601,-7.58528688508208,0.));
#574=CARTESIAN_POINT('Ctrl Pts',(-15.0983805943597,-7.62095045896467,0.));
#575=CARTESIAN_POINT('Ctrl Pts',(-15.3099036364562,-7.65632049113505,0.));
#576=CARTESIAN_POINT('Ctrl Pts',(-15.5226385010216,-7.69108956926159,5.59860562077694E-18));
#577=CARTESIAN_POINT('Ctrl Pts',(-15.7364114608667,-7.72522383685658,0.));
#578=CARTESIAN_POINT('Ctrl Pts',(-15.9616444484229,-7.76118798814135,-5.89873794623035E-18));
#579=CARTESIAN_POINT('Ctrl Pts',(-16.188029742,-7.79644732311172,6.09297381627596E-18));
#580=CARTESIAN_POINT('Ctrl Pts',(-16.4153088939898,-7.83098235300787,0.));
#581=CARTESIAN_POINT('Ctrl Pts',(-16.6536723068077,-7.86720163452025,-6.39012430459418E-18));
#582=CARTESIAN_POINT('Ctrl Pts',(-16.8930186351348,-7.90262412497772,0.));
#583=CARTESIAN_POINT('Ctrl Pts',(-17.1329931322746,-7.93725074018489,0.));
#584=CARTESIAN_POINT('Ctrl Pts',(-17.3988453912781,-7.97561133259863,0.));
#585=CARTESIAN_POINT('Ctrl Pts',(-17.6654681054056,-8.01299486645958,-8.8109753611315E-16));
#586=CARTESIAN_POINT('Ctrl Pts',(-17.9323143847145,-8.04943472156724,-8.88178419700125E-16));
#587=CARTESIAN_POINT('Ctrl Pts',(-18.2561409062843,-8.09365565489478,-8.96771299119503E-16));
#588=CARTESIAN_POINT('Ctrl Pts',(-18.5802937680533,-8.1364861966032,0.));
#589=CARTESIAN_POINT('Ctrl Pts',(-18.9037300939261,-8.17804026344061,0.));
#590=CARTESIAN_POINT('Ctrl Pts',(-19.1899731203988,-8.21481585388083,0.));
#591=CARTESIAN_POINT('Ctrl Pts',(-19.4756509165804,-8.25059305089803,0.));
#592=CARTESIAN_POINT('Ctrl Pts',(-19.7600506880274,-8.28547891876652,0.));
#593=CARTESIAN_POINT('Ctrl Pts',(-19.9987479723163,-8.31475869588413,0.));
#594=CARTESIAN_POINT('Ctrl Pts',(-20.2365439792778,-8.34341120781612,0.));
#595=CARTESIAN_POINT('Ctrl Pts',(-20.4730523503771,-8.37150924612217,0.));
#596=CARTESIAN_POINT('Ctrl Pts',(-20.6891627296251,-8.39718393021991,0.));
#597=CARTESIAN_POINT('Ctrl Pts',(-20.9041974763492,-8.42239588816168,0.));
#598=CARTESIAN_POINT('Ctrl Pts',(-21.1179034135933,-8.44720433171852,0.));
#599=CARTESIAN_POINT('Ctrl Pts',(-21.3228880550876,-8.47100034774928,0.));
#600=CARTESIAN_POINT('Ctrl Pts',(-21.5266497595181,-8.49442523821965,0.));
#601=CARTESIAN_POINT('Ctrl Pts',(-21.7290122332323,-8.51753237026219,0.));
#602=CARTESIAN_POINT('Ctrl Pts',(-21.9264772642142,-8.54008027877971,0.));
#603=CARTESIAN_POINT('Ctrl Pts',(-22.1226098355497,-8.56232570762739,-4.4991929702964E-18));
#604=CARTESIAN_POINT('Ctrl Pts',(-22.3172949728208,-8.58431786401609,0.));
#605=CARTESIAN_POINT('Ctrl Pts',(-22.5077336858269,-8.60583033290612,4.4010576813401E-18));
#606=CARTESIAN_POINT('Ctrl Pts',(-22.6967872997243,-8.62710052870613,0.));
#607=CARTESIAN_POINT('Ctrl Pts',(-22.884397372905,-8.64817300964141,0.));
#608=CARTESIAN_POINT('Ctrl Pts',(-23.0635376435061,-8.66829415704561,0.));
#609=CARTESIAN_POINT('Ctrl Pts',(-23.2413617831779,-8.68823509131473,-4.01565783254558E-18));
#610=CARTESIAN_POINT('Ctrl Pts',(-23.4178643281775,-8.70803237666703,0.));
#611=CARTESIAN_POINT('Ctrl Pts',(-23.58321144063,-8.72657842067681,3.76185752568269E-18));
#612=CARTESIAN_POINT('Ctrl Pts',(-23.7473983815156,-8.74499846272526,-3.68690177950529E-18));
#613=CARTESIAN_POINT('Ctrl Pts',(-23.9104645537966,-8.76331970964862,0.));
#614=CARTESIAN_POINT('Ctrl Pts',(-24.065650059735,-8.78075552685983,3.5087210915308E-18));
#615=CARTESIAN_POINT('Ctrl Pts',(-24.2198202364506,-8.7981019115262,-8.8473499371302E-16));
#616=CARTESIAN_POINT('Ctrl Pts',(-24.3730546384912,-8.81537889208471,-8.88178419700125E-16));
#617=CARTESIAN_POINT('Ctrl Pts',(-24.5206951654148,-8.83202517046174,-8.91496142224495E-16));
#618=CARTESIAN_POINT('Ctrl Pts',(-24.6674667536628,-8.8486070549027,-8.84919136234896E-16));
#619=CARTESIAN_POINT('Ctrl Pts',(-24.8134876756076,-8.86513863219199,-8.88178419700125E-16));
#620=CARTESIAN_POINT('Ctrl Pts',(-24.9646746009884,-8.88225507214302,-8.91553011775628E-16));
#621=CARTESIAN_POINT('Ctrl Pts',(-25.1150564040273,-8.89931763783331,0.));
#622=CARTESIAN_POINT('Ctrl Pts',(-25.2648233562511,-8.91633689339666,0.));
#623=CARTESIAN_POINT('Ctrl Pts',(-25.436626816271,-8.93586033931934,0.));
#624=CARTESIAN_POINT('Ctrl Pts',(-25.6076220871294,-8.95532680199769,0.));
#625=CARTESIAN_POINT('Ctrl Pts',(-25.7781696080724,-8.97474505092648,0.));
#626=CARTESIAN_POINT('Ctrl Pts',(-26.0021610588739,-9.0002483342667,0.));
#627=CARTESIAN_POINT('Ctrl Pts',(-26.2253850996283,-9.02566849117036,0.));
#628=CARTESIAN_POINT('Ctrl Pts',(-26.4487376974145,-9.05101258987314,0.));
#629=CARTESIAN_POINT('Ctrl Pts',(-26.6355657214544,-9.07221219949778,0.));
#630=CARTESIAN_POINT('Ctrl Pts',(-26.8224884236034,-9.09335815130716,0.));
#631=CARTESIAN_POINT('Ctrl Pts',(-27.009996609806,-9.11445155205967,0.));
#632=CARTESIAN_POINT('Ctrl Pts',(-27.1900805559757,-9.13470977610086,0.));
#633=CARTESIAN_POINT('Ctrl Pts',(-27.3707041114294,-9.15491949910091,0.));
#634=CARTESIAN_POINT('Ctrl Pts',(-27.5522469529241,-9.17508121634794,0.));
#635=CARTESIAN_POINT('Ctrl Pts',(-27.7356701032799,-9.19545175623585,0.));
#636=CARTESIAN_POINT('Ctrl Pts',(-27.9200316186953,-9.21577327144749,-3.63909458668921E-18));
#637=CARTESIAN_POINT('Ctrl Pts',(-28.1056691153365,-9.23604609760637,0.));
#638=CARTESIAN_POINT('Ctrl Pts',(-28.2942273095118,-9.25663788299731,3.69634969289189E-18));
#639=CARTESIAN_POINT('Ctrl Pts',(-28.4841019215316,-9.27717941462613,0.));
#640=CARTESIAN_POINT('Ctrl Pts',(-28.6755919585735,-9.29767117200742,0.));
#641=CARTESIAN_POINT('Ctrl Pts',(-28.8723819930694,-9.31873009342308,0.));
#642=CARTESIAN_POINT('Ctrl Pts',(-29.0708779512069,-9.33973645511123,0.));
#643=CARTESIAN_POINT('Ctrl Pts',(-29.2713480339626,-9.36069104134448,0.));
#644=CARTESIAN_POINT('Ctrl Pts',(-29.4785261669257,-9.38234680161126,0.));
#645=CARTESIAN_POINT('Ctrl Pts',(-29.6878125410436,-9.4039472778335,0.));
#646=CARTESIAN_POINT('Ctrl Pts',(-29.8994467261593,-9.42549342732101,0.));
#647=CARTESIAN_POINT('Ctrl Pts',(-30.119182145511,-9.44786435095258,0.));
#648=CARTESIAN_POINT('Ctrl Pts',(-30.3414482979618,-9.47017672724287,0.));
#649=CARTESIAN_POINT('Ctrl Pts',(-30.566457082085,-9.49243146852274,0.));
#650=CARTESIAN_POINT('Ctrl Pts',(-30.8024199428799,-9.51576963480417,0.));
#651=CARTESIAN_POINT('Ctrl Pts',(-31.0413989275857,-9.53904441386091,-3.86183606833826E-18));
#652=CARTESIAN_POINT('Ctrl Pts',(-31.2835803354938,-9.56225653589603,0.));
#653=CARTESIAN_POINT('Ctrl Pts',(-31.5340331216753,-9.58626143654921,3.99373185351558E-18));
#654=CARTESIAN_POINT('Ctrl Pts',(-31.7879105770244,-9.61019931648614,0.));
#655=CARTESIAN_POINT('Ctrl Pts',(-32.04536036319,-9.63407077505226,0.));
#656=CARTESIAN_POINT('Ctrl Pts',(-32.3145780877434,-9.65903338952035,0.));
#657=CARTESIAN_POINT('Ctrl Pts',(-32.5877018990016,-9.68392336119958,-8.84178735347539E-16));
#658=CARTESIAN_POINT('Ctrl Pts',(-32.8648416852594,-9.70874133218489,-8.88178419700125E-16));
#659=CARTESIAN_POINT('Ctrl Pts',(-33.1761389828863,-9.73661812102359,-8.9267106562128E-16));
#660=CARTESIAN_POINT('Ctrl Pts',(-33.4925031226698,-9.76440407946936,-4.38615150394343E-18));
#661=CARTESIAN_POINT('Ctrl Pts',(-33.8140188858431,-9.79210005170557,0.));
#662=CARTESIAN_POINT('Ctrl Pts',(-34.170628570257,-9.82281908028822,4.86490643001393E-18));
#663=CARTESIAN_POINT('Ctrl Pts',(-34.5335747250088,-9.85342743072047,0.));
#664=CARTESIAN_POINT('Ctrl Pts',(-34.9029001371927,-9.88392587155553,0.));
#665=CARTESIAN_POINT('Ctrl Pts',(-35.3861366603682,-9.92383095261741,0.));
#666=CARTESIAN_POINT('Ctrl Pts',(-35.8802919193376,-9.96354787356404,0.));
#667=CARTESIAN_POINT('Ctrl Pts',(-36.3853677665354,-10.0030772224469,0.));
#668=CARTESIAN_POINT('Ctrl Pts',(-36.5001578244915,-10.0120611726287,0.));
#669=CARTESIAN_POINT('Ctrl Pts',(-36.6155118033721,-10.0210354309234,0.));
#670=CARTESIAN_POINT('Ctrl Pts',(-36.7314296299391,-10.03,0.));
#671=CARTESIAN_POINT('',(-24.590398032989,-10.03,0.));
#672=CARTESIAN_POINT('',(-12.75,-2.14313189850787E-16,0.));
#673=CARTESIAN_POINT('Origin',(-11.,0.,0.));
#674=CARTESIAN_POINT('',(9.25,-2.14313189850787E-16,0.));
#675=CARTESIAN_POINT('Origin',(11.,0.,0.));
#676=CARTESIAN_POINT('Origin',(-49.1807960659779,-10.03,4.5));
#677=CARTESIAN_POINT('',(-49.1807960659779,0.499999999999996,4.5));
#678=CARTESIAN_POINT('',(-49.1807960659779,0.499999999999996,4.5));
#679=CARTESIAN_POINT('',(-49.1807960659779,0.499999999999996,4.5));
#680=CARTESIAN_POINT('Origin',(0.,0.,4.5));
#681=CARTESIAN_POINT('',(-36.7314296299391,-10.03,4.5));
#682=CARTESIAN_POINT('',(-24.590398032989,-10.03,4.5));
#683=CARTESIAN_POINT('',(0.,-5.0000000372529,4.5));
#684=CARTESIAN_POINT('Ctrl Pts',(-36.7314296299391,-10.03,4.5));
#685=CARTESIAN_POINT('Ctrl Pts',(-36.2561638914145,-9.99324506187769,4.5));
#686=CARTESIAN_POINT('Ctrl Pts',(-35.3214299469653,-9.91946372174823,4.5));
#687=CARTESIAN_POINT('Ctrl Pts',(-33.9667257002128,-9.80797685465241,4.5));
#688=CARTESIAN_POINT('Ctrl Pts',(-32.2555984379301,-9.65769537216373,4.5));
#689=CARTESIAN_POINT('Ctrl Pts',(-30.2705903638096,-9.46705599013474,4.5));
#690=CARTESIAN_POINT('Ctrl Pts',(-28.4207226996335,-9.27357168396884,4.5));
#691=CARTESIAN_POINT('Ctrl Pts',(-26.6662613703846,-9.07704921058456,4.5));
#692=CARTESIAN_POINT('Ctrl Pts',(-24.9350790505742,-8.87748999357588,4.5));
#693=CARTESIAN_POINT('Ctrl Pts',(-23.1177951145606,-8.67447265331417,4.5));
#694=CARTESIAN_POINT('Ctrl Pts',(-21.1968431259109,-8.45965171684774,4.5));
#695=CARTESIAN_POINT('Ctrl Pts',(-19.1954408762508,-8.22243040750477,4.5));
#696=CARTESIAN_POINT('Ctrl Pts',(-17.1666946597671,-7.95273780845664,4.5));
#697=CARTESIAN_POINT('Ctrl Pts',(-15.1688702950653,-7.64461764102213,4.5));
#698=CARTESIAN_POINT('Ctrl Pts',(-13.2433980796658,-7.3004192593938,4.5));
#699=CARTESIAN_POINT('Ctrl Pts',(-11.4035513466347,-6.93187319477108,4.5));
#700=CARTESIAN_POINT('Ctrl Pts',(-9.64573638098307,-6.55581785265495,4.5));
#701=CARTESIAN_POINT('Ctrl Pts',(-7.95507579684342,-6.19118776666445,4.5));
#702=CARTESIAN_POINT('Ctrl Pts',(-6.31257583750733,-5.85581957564263,4.5));
#703=CARTESIAN_POINT('Ctrl Pts',(-4.7024463379488,-5.56269052224191,4.5));
#704=CARTESIAN_POINT('Ctrl Pts',(-3.1156537190116,-5.318595639386,4.5));
#705=CARTESIAN_POINT('Ctrl Pts',(-1.86100350524883,-5.16492888649194,4.5));
#706=CARTESIAN_POINT('Ctrl Pts',(-0.927576773426671,-5.07330994534384,4.5));
#707=CARTESIAN_POINT('Ctrl Pts',(-0.308634984050407,-5.02269303376901,4.5));
#708=CARTESIAN_POINT('Ctrl Pts',(-4.70453414735818E-16,-5.0000000372529,
4.5));
#709=CARTESIAN_POINT('',(11.0000001639128,-5.00000007450581,4.5));
#710=CARTESIAN_POINT('',(11.0000001639128,-5.00000007450581,4.5));
#711=CARTESIAN_POINT('',(11.0000001639128,5.00000007450581,4.5));
#712=CARTESIAN_POINT('Origin',(11.,0.,4.5));
#713=CARTESIAN_POINT('',(-13.9900001639128,5.,4.5));
#714=CARTESIAN_POINT('',(-11.0000001639128,5.00000007450581,4.5));
#715=CARTESIAN_POINT('',(-25.071059262712,-1.20465362286398,4.5));
#716=CARTESIAN_POINT('Ctrl Pts',(-25.071059262712,-1.20465362286398,4.5));
#717=CARTESIAN_POINT('Ctrl Pts',(-24.7889307789845,-1.03972116087,4.5));
#718=CARTESIAN_POINT('Ctrl Pts',(-24.1135659361538,-0.641193206718196,4.5));
#719=CARTESIAN_POINT('Ctrl Pts',(-23.0602754647394,-0.00787862180993442,
4.5));
#720=CARTESIAN_POINT('Ctrl Pts',(-21.6612107814344,0.846637677675493,4.5));
#721=CARTESIAN_POINT('Ctrl Pts',(-19.9738569543134,1.86982397049454,4.5));
#722=CARTESIAN_POINT('Ctrl Pts',(-18.2957740835254,2.8500255863786,4.5));
#723=CARTESIAN_POINT('Ctrl Pts',(-16.7347164061691,3.70701072554969,4.5));
#724=CARTESIAN_POINT('Ctrl Pts',(-15.5794072111411,4.28890208268775,4.5));
#725=CARTESIAN_POINT('Ctrl Pts',(-14.7647089505787,4.666979944933,4.5));
#726=CARTESIAN_POINT('Ctrl Pts',(-14.2444279834378,4.89328435170485,4.5));
#727=CARTESIAN_POINT('Ctrl Pts',(-13.9900001639128,5.,4.5));
#728=CARTESIAN_POINT('',(-42.2700001639128,0.499999999999997,4.5));
#729=CARTESIAN_POINT('Ctrl Pts',(-42.2700001639128,0.499999999999997,4.5));
#730=CARTESIAN_POINT('Ctrl Pts',(-42.0351408488154,0.44954133139031,4.5));
#731=CARTESIAN_POINT('Ctrl Pts',(-41.5692088975261,0.346112940219127,4.5));
#732=CARTESIAN_POINT('Ctrl Pts',(-40.8816712040785,0.183436935376728,4.5));
#733=CARTESIAN_POINT('Ctrl Pts',(-39.9878382673258,-0.0486386324220557,
4.5));
#734=CARTESIAN_POINT('Ctrl Pts',(-38.9086269205055,-0.363341777385923,4.5));
#735=CARTESIAN_POINT('Ctrl Pts',(-37.8655116807274,-0.699378693743646,4.5));
#736=CARTESIAN_POINT('Ctrl Pts',(-36.8531187616288,-1.04926242781972,4.5));
#737=CARTESIAN_POINT('Ctrl Pts',(-35.8607756965037,-1.39921395378141,4.5));
#738=CARTESIAN_POINT('Ctrl Pts',(-34.8711976184323,-1.72780249406341,4.5));
#739=CARTESIAN_POINT('Ctrl Pts',(-33.8638348260581,-2.00987643593319,4.5));
#740=CARTESIAN_POINT('Ctrl Pts',(-32.8177815261886,-2.22008909107754,4.5));
#741=CARTESIAN_POINT('Ctrl Pts',(-31.7145267721526,-2.33624741604922,4.5));
#742=CARTESIAN_POINT('Ctrl Pts',(-30.5417448102221,-2.34408094916986,4.5));
#743=CARTESIAN_POINT('Ctrl Pts',(-29.293693323615,-2.23764212349742,4.5));
#744=CARTESIAN_POINT('Ctrl Pts',(-27.9685118508487,-2.01572026570464,4.5));
#745=CARTESIAN_POINT('Ctrl Pts',(-26.8470948788702,-1.7470437708134,4.5));
#746=CARTESIAN_POINT('Ctrl Pts',(-25.9721551302638,-1.49525843689365,4.5));
#747=CARTESIAN_POINT('Ctrl Pts',(-25.373915659887,-1.30521905365107,4.5));
#748=CARTESIAN_POINT('Ctrl Pts',(-25.071059262712,-1.20465362286398,4.5));
#749=CARTESIAN_POINT('',(-42.2700001639128,0.499999999999997,4.5));
#750=CARTESIAN_POINT('',(-12.75,-2.14313189850787E-16,4.5));
#751=CARTESIAN_POINT('Origin',(-11.,0.,4.5));
#752=CARTESIAN_POINT('',(9.25,-2.14313189850787E-16,4.5));
#753=CARTESIAN_POINT('Origin',(11.,0.,4.5));
#754=CARTESIAN_POINT('Ctrl Pts',(-36.7314296299391,-10.03,4.5));
#755=CARTESIAN_POINT('Ctrl Pts',(-36.7314296299391,-10.03,-0.5));
#756=CARTESIAN_POINT('Ctrl Pts',(-36.2561638914145,-9.99324506187769,4.5));
#757=CARTESIAN_POINT('Ctrl Pts',(-36.2561638914145,-9.99324506187769,-0.5));
#758=CARTESIAN_POINT('Ctrl Pts',(-35.3214299469653,-9.91946372174823,4.5));
#759=CARTESIAN_POINT('Ctrl Pts',(-35.3214299469653,-9.91946372174823,-0.5));
#760=CARTESIAN_POINT('Ctrl Pts',(-33.9667257002128,-9.80797685465241,4.5));
#761=CARTESIAN_POINT('Ctrl Pts',(-33.9667257002128,-9.80797685465241,-0.5));
#762=CARTESIAN_POINT('Ctrl Pts',(-32.2555984379301,-9.65769537216373,4.5));
#763=CARTESIAN_POINT('Ctrl Pts',(-32.2555984379301,-9.65769537216373,-0.5));
#764=CARTESIAN_POINT('Ctrl Pts',(-30.2705903638096,-9.46705599013474,4.5));
#765=CARTESIAN_POINT('Ctrl Pts',(-30.2705903638096,-9.46705599013474,-0.5));
#766=CARTESIAN_POINT('Ctrl Pts',(-28.4207226996335,-9.27357168396884,4.5));
#767=CARTESIAN_POINT('Ctrl Pts',(-28.4207226996335,-9.27357168396884,-0.5));
#768=CARTESIAN_POINT('Ctrl Pts',(-26.6662613703846,-9.07704921058456,4.5));
#769=CARTESIAN_POINT('Ctrl Pts',(-26.6662613703846,-9.07704921058456,-0.5));
#770=CARTESIAN_POINT('Ctrl Pts',(-24.9350790505742,-8.87748999357588,4.5));
#771=CARTESIAN_POINT('Ctrl Pts',(-24.9350790505742,-8.87748999357588,-0.5));
#772=CARTESIAN_POINT('Ctrl Pts',(-23.1177951145606,-8.67447265331417,4.5));
#773=CARTESIAN_POINT('Ctrl Pts',(-23.1177951145606,-8.67447265331417,-0.5));
#774=CARTESIAN_POINT('Ctrl Pts',(-21.1968431259109,-8.45965171684774,4.5));
#775=CARTESIAN_POINT('Ctrl Pts',(-21.1968431259109,-8.45965171684774,-0.5));
#776=CARTESIAN_POINT('Ctrl Pts',(-19.1954408762508,-8.22243040750477,4.5));
#777=CARTESIAN_POINT('Ctrl Pts',(-19.1954408762508,-8.22243040750477,-0.5));
#778=CARTESIAN_POINT('Ctrl Pts',(-17.1666946597671,-7.95273780845664,4.5));
#779=CARTESIAN_POINT('Ctrl Pts',(-17.1666946597671,-7.95273780845664,-0.5));
#780=CARTESIAN_POINT('Ctrl Pts',(-15.1688702950653,-7.64461764102213,4.5));
#781=CARTESIAN_POINT('Ctrl Pts',(-15.1688702950653,-7.64461764102213,-0.5));
#782=CARTESIAN_POINT('Ctrl Pts',(-13.2433980796658,-7.3004192593938,4.5));
#783=CARTESIAN_POINT('Ctrl Pts',(-13.2433980796658,-7.3004192593938,-0.5));
#784=CARTESIAN_POINT('Ctrl Pts',(-11.4035513466347,-6.93187319477108,4.5));
#785=CARTESIAN_POINT('Ctrl Pts',(-11.4035513466347,-6.93187319477108,-0.5));
#786=CARTESIAN_POINT('Ctrl Pts',(-9.64573638098307,-6.55581785265495,4.5));
#787=CARTESIAN_POINT('Ctrl Pts',(-9.64573638098307,-6.55581785265495,-0.5));
#788=CARTESIAN_POINT('Ctrl Pts',(-7.95507579684342,-6.19118776666445,4.5));
#789=CARTESIAN_POINT('Ctrl Pts',(-7.95507579684342,-6.19118776666445,-0.5));
#790=CARTESIAN_POINT('Ctrl Pts',(-6.31257583750733,-5.85581957564263,4.5));
#791=CARTESIAN_POINT('Ctrl Pts',(-6.31257583750733,-5.85581957564263,-0.5));
#792=CARTESIAN_POINT('Ctrl Pts',(-4.7024463379488,-5.56269052224191,4.5));
#793=CARTESIAN_POINT('Ctrl Pts',(-4.7024463379488,-5.56269052224191,-0.5));
#794=CARTESIAN_POINT('Ctrl Pts',(-3.1156537190116,-5.318595639386,4.5));
#795=CARTESIAN_POINT('Ctrl Pts',(-3.1156537190116,-5.318595639386,-0.5));
#796=CARTESIAN_POINT('Ctrl Pts',(-1.86100350524883,-5.16492888649194,4.5));
#797=CARTESIAN_POINT('Ctrl Pts',(-1.86100350524883,-5.16492888649194,-0.5));
#798=CARTESIAN_POINT('Ctrl Pts',(-0.927576773426671,-5.07330994534384,4.5));
#799=CARTESIAN_POINT('Ctrl Pts',(-0.927576773426671,-5.07330994534384,-0.5));
#800=CARTESIAN_POINT('Ctrl Pts',(-0.308634984050407,-5.02269303376901,4.5));
#801=CARTESIAN_POINT('Ctrl Pts',(-0.308634984050407,-5.02269303376901,-0.5));
#802=CARTESIAN_POINT('Ctrl Pts',(-4.70453414735818E-16,-5.0000000372529,
4.5));
#803=CARTESIAN_POINT('Ctrl Pts',(-4.70453414735818E-16,-5.0000000372529,
-0.5));
#804=CARTESIAN_POINT('',(0.,-5.0000000372529,4.5));
#805=CARTESIAN_POINT('',(-36.7314296299391,-10.03,4.5));
#806=CARTESIAN_POINT('Origin',(-49.1807960659779,-10.03,4.5));
#807=CARTESIAN_POINT('Ctrl Pts',(-42.2700001639128,0.499999999999997,4.5));
#808=CARTESIAN_POINT('Ctrl Pts',(-42.2700001639128,0.499999999999997,-0.450000000000002));
#809=CARTESIAN_POINT('Ctrl Pts',(-42.0351408488154,0.44954133139031,4.5));
#810=CARTESIAN_POINT('Ctrl Pts',(-42.0351408488154,0.44954133139031,-0.450000000000002));
#811=CARTESIAN_POINT('Ctrl Pts',(-41.5692088975261,0.346112940219127,4.5));
#812=CARTESIAN_POINT('Ctrl Pts',(-41.5692088975261,0.346112940219127,-0.450000000000002));
#813=CARTESIAN_POINT('Ctrl Pts',(-40.8816712040785,0.183436935376728,4.5));
#814=CARTESIAN_POINT('Ctrl Pts',(-40.8816712040785,0.183436935376728,-0.450000000000002));
#815=CARTESIAN_POINT('Ctrl Pts',(-39.9878382673258,-0.0486386324220557,
4.5));
#816=CARTESIAN_POINT('Ctrl Pts',(-39.9878382673258,-0.0486386324220557,
-0.450000000000002));
#817=CARTESIAN_POINT('Ctrl Pts',(-38.9086269205055,-0.363341777385923,4.5));
#818=CARTESIAN_POINT('Ctrl Pts',(-38.9086269205055,-0.363341777385923,-0.450000000000002));
#819=CARTESIAN_POINT('Ctrl Pts',(-37.8655116807274,-0.699378693743646,4.5));
#820=CARTESIAN_POINT('Ctrl Pts',(-37.8655116807274,-0.699378693743646,-0.450000000000002));
#821=CARTESIAN_POINT('Ctrl Pts',(-36.8531187616288,-1.04926242781972,4.5));
#822=CARTESIAN_POINT('Ctrl Pts',(-36.8531187616288,-1.04926242781972,-0.450000000000002));
#823=CARTESIAN_POINT('Ctrl Pts',(-35.8607756965037,-1.39921395378141,4.5));
#824=CARTESIAN_POINT('Ctrl Pts',(-35.8607756965037,-1.39921395378141,-0.450000000000002));
#825=CARTESIAN_POINT('Ctrl Pts',(-34.8711976184323,-1.72780249406341,4.5));
#826=CARTESIAN_POINT('Ctrl Pts',(-34.8711976184323,-1.72780249406341,-0.450000000000002));
#827=CARTESIAN_POINT('Ctrl Pts',(-33.8638348260581,-2.00987643593319,4.5));
#828=CARTESIAN_POINT('Ctrl Pts',(-33.8638348260581,-2.00987643593319,-0.450000000000002));
#829=CARTESIAN_POINT('Ctrl Pts',(-32.8177815261886,-2.22008909107754,4.5));
#830=CARTESIAN_POINT('Ctrl Pts',(-32.8177815261886,-2.22008909107754,-0.450000000000002));
#831=CARTESIAN_POINT('Ctrl Pts',(-31.7145267721526,-2.33624741604922,4.5));
#832=CARTESIAN_POINT('Ctrl Pts',(-31.7145267721526,-2.33624741604922,-0.450000000000002));
#833=CARTESIAN_POINT('Ctrl Pts',(-30.5417448102221,-2.34408094916986,4.5));
#834=CARTESIAN_POINT('Ctrl Pts',(-30.5417448102221,-2.34408094916986,-0.450000000000002));
#835=CARTESIAN_POINT('Ctrl Pts',(-29.293693323615,-2.23764212349742,4.5));
#836=CARTESIAN_POINT('Ctrl Pts',(-29.293693323615,-2.23764212349742,-0.450000000000002));
#837=CARTESIAN_POINT('Ctrl Pts',(-27.9685118508487,-2.01572026570464,4.5));
#838=CARTESIAN_POINT('Ctrl Pts',(-27.9685118508487,-2.01572026570464,-0.450000000000002));
#839=CARTESIAN_POINT('Ctrl Pts',(-26.8470948788702,-1.7470437708134,4.5));
#840=CARTESIAN_POINT('Ctrl Pts',(-26.8470948788702,-1.7470437708134,-0.450000000000002));
#841=CARTESIAN_POINT('Ctrl Pts',(-25.9721551302638,-1.49525843689365,4.5));
#842=CARTESIAN_POINT('Ctrl Pts',(-25.9721551302638,-1.49525843689365,-0.450000000000002));
#843=CARTESIAN_POINT('Ctrl Pts',(-25.373915659887,-1.30521905365107,4.5));
#844=CARTESIAN_POINT('Ctrl Pts',(-25.373915659887,-1.30521905365107,-0.450000000000002));
#845=CARTESIAN_POINT('Ctrl Pts',(-25.071059262712,-1.20465362286398,4.5));
#846=CARTESIAN_POINT('Ctrl Pts',(-25.071059262712,-1.20465362286398,-0.450000000000002));
#847=CARTESIAN_POINT('',(-42.2700001639128,0.499999999999997,4.5));
#848=CARTESIAN_POINT('',(-25.071059262712,-1.20465362286398,4.5));
#849=CARTESIAN_POINT('Ctrl Pts',(-42.2700001639128,-6.,4.5));
#850=CARTESIAN_POINT('Ctrl Pts',(-42.2700001639128,-6.,-0.450000000000004));
#851=CARTESIAN_POINT('Ctrl Pts',(-41.8597227144478,-6.04833954420138,4.5));
#852=CARTESIAN_POINT('Ctrl Pts',(-41.8597227144478,-6.04833954420138,-0.450000000000004));
#853=CARTESIAN_POINT('Ctrl Pts',(-41.0377295131024,-6.12416714584068,4.5));
#854=CARTESIAN_POINT('Ctrl Pts',(-41.0377295131024,-6.12416714584068,-0.450000000000004));
#855=CARTESIAN_POINT('Ctrl Pts',(-39.8004250019954,-6.17535510714735,4.5));
#856=CARTESIAN_POINT('Ctrl Pts',(-39.8004250019954,-6.17535510714735,-0.450000000000004));
#857=CARTESIAN_POINT('Ctrl Pts',(-38.1419917185779,-6.11758045371326,4.5));
#858=CARTESIAN_POINT('Ctrl Pts',(-38.1419917185779,-6.11758045371326,-0.450000000000004));
#859=CARTESIAN_POINT('Ctrl Pts',(-36.055075917846,-5.83196564658316,4.5));
#860=CARTESIAN_POINT('Ctrl Pts',(-36.055075917846,-5.83196564658316,-0.450000000000004));
#861=CARTESIAN_POINT('Ctrl Pts',(-33.9567863800222,-5.33240180888525,4.5));
#862=CARTESIAN_POINT('Ctrl Pts',(-33.9567863800222,-5.33240180888525,-0.450000000000004));
#863=CARTESIAN_POINT('Ctrl Pts',(-31.8527719094842,-4.62589059629404,4.5));
#864=CARTESIAN_POINT('Ctrl Pts',(-31.8527719094842,-4.62589059629404,-0.450000000000004));
#865=CARTESIAN_POINT('Ctrl Pts',(-29.753007877711,-3.73175980269685,4.5));
#866=CARTESIAN_POINT('Ctrl Pts',(-29.753007877711,-3.73175980269685,-0.450000000000004));
#867=CARTESIAN_POINT('Ctrl Pts',(-27.6735417088822,-2.6889206316389,4.5));
#868=CARTESIAN_POINT('Ctrl Pts',(-27.6735417088822,-2.6889206316389,-0.450000000000004));
#869=CARTESIAN_POINT('Ctrl Pts',(-25.6345857896468,-1.549892183379,4.5));
#870=CARTESIAN_POINT('Ctrl Pts',(-25.6345857896468,-1.549892183379,-0.450000000000004));
#871=CARTESIAN_POINT('Ctrl Pts',(-23.6580558866394,-0.373147743680687,4.5));
#872=CARTESIAN_POINT('Ctrl Pts',(-23.6580558866394,-0.373147743680687,-0.450000000000004));
#873=CARTESIAN_POINT('Ctrl Pts',(-21.7651239459017,0.78362627851462,4.5));
#874=CARTESIAN_POINT('Ctrl Pts',(-21.7651239459017,0.78362627851462,-0.450000000000004));
#875=CARTESIAN_POINT('Ctrl Pts',(-19.9738569543134,1.86982397049454,4.5));
#876=CARTESIAN_POINT('Ctrl Pts',(-19.9738569543134,1.86982397049454,-0.450000000000004));
#877=CARTESIAN_POINT('Ctrl Pts',(-18.2957740835254,2.8500255863786,4.5));
#878=CARTESIAN_POINT('Ctrl Pts',(-18.2957740835254,2.8500255863786,-0.450000000000004));
#879=CARTESIAN_POINT('Ctrl Pts',(-16.7347164061691,3.70701072554969,4.5));
#880=CARTESIAN_POINT('Ctrl Pts',(-16.7347164061691,3.70701072554969,-0.450000000000004));
#881=CARTESIAN_POINT('Ctrl Pts',(-15.5794072111411,4.28890208268775,4.5));
#882=CARTESIAN_POINT('Ctrl Pts',(-15.5794072111411,4.28890208268775,-0.450000000000004));
#883=CARTESIAN_POINT('Ctrl Pts',(-14.7647089505787,4.666979944933,4.5));
#884=CARTESIAN_POINT('Ctrl Pts',(-14.7647089505787,4.666979944933,-0.450000000000004));
#885=CARTESIAN_POINT('Ctrl Pts',(-14.2444279834378,4.89328435170485,4.5));
#886=CARTESIAN_POINT('Ctrl Pts',(-14.2444279834378,4.89328435170485,-0.450000000000004));
#887=CARTESIAN_POINT('Ctrl Pts',(-13.9900001639128,5.,4.5));
#888=CARTESIAN_POINT('Ctrl Pts',(-13.9900001639128,5.,-0.450000000000004));
#889=CARTESIAN_POINT('',(-13.9900001639128,5.,4.5));
#890=CARTESIAN_POINT('Origin',(-49.1807960659779,0.499999999999996,4.5));
#891=CARTESIAN_POINT('Origin',(-11.,0.,0.));
#892=CARTESIAN_POINT('',(-12.75,-2.14313189850787E-16,0.));
#893=CARTESIAN_POINT('Origin',(11.,0.,0.));
#894=CARTESIAN_POINT('',(9.25,-2.14313189850787E-16,0.));
#895=CARTESIAN_POINT('Origin',(11.0000001639128,5.00000007450581,0.));
#896=CARTESIAN_POINT('',(11.0000001639128,5.00000007450581,0.));
#897=CARTESIAN_POINT('Origin',(11.,0.,0.));
#898=CARTESIAN_POINT('',(11.0000001639128,-5.00000007450581,0.));
#899=CARTESIAN_POINT('Origin',(-11.0000001639128,-5.00000007450581,0.));
#900=UNCERTAINTY_MEASURE_WITH_UNIT(LENGTH_MEASURE(0.01),#904,
'DISTANCE_ACCURACY_VALUE',
'Maximum model space distance between geometric entities at asserted c
onnectivities');
#901=UNCERTAINTY_MEASURE_WITH_UNIT(LENGTH_MEASURE(0.01),#904,
'DISTANCE_ACCURACY_VALUE',
'Maximum model space distance between geometric entities at asserted c
onnectivities');
#902=(
GEOMETRIC_REPRESENTATION_CONTEXT(3)
GLOBAL_UNCERTAINTY_ASSIGNED_CONTEXT((#900))
GLOBAL_UNIT_ASSIGNED_CONTEXT((#904,#906,#907))
REPRESENTATION_CONTEXT('','3D')
);
#903=(
GEOMETRIC_REPRESENTATION_CONTEXT(3)
GLOBAL_UNCERTAINTY_ASSIGNED_CONTEXT((#901))
GLOBAL_UNIT_ASSIGNED_CONTEXT((#904,#906,#907))
REPRESENTATION_CONTEXT('','3D')
);
#904=(
LENGTH_UNIT()
NAMED_UNIT(*)
SI_UNIT(.MILLI.,.METRE.)
);
#905=(
LENGTH_UNIT()
NAMED_UNIT(*)
SI_UNIT($,.METRE.)
);
#906=(
NAMED_UNIT(*)
PLANE_ANGLE_UNIT()
SI_UNIT($,.RADIAN.)
);
#907=(
NAMED_UNIT(*)
SI_UNIT($,.STERADIAN.)
SOLID_ANGLE_UNIT()
);
#908=SHAPE_DEFINITION_REPRESENTATION(#909,#910);
#909=PRODUCT_DEFINITION_SHAPE('',$,#912);
#910=SHAPE_REPRESENTATION('',(#284),#902);
#911=PRODUCT_DEFINITION_CONTEXT('part definition',#916,'design');
#912=PRODUCT_DEFINITION('2026-08-19-22-23-44-975','Gripper Holder 2.0',
#913,#911);
#913=PRODUCT_DEFINITION_FORMATION('',$,#918);
#914=PRODUCT_RELATED_PRODUCT_CATEGORY('Gripper Holder 2.0',
'Gripper Holder 2.0',(#918));
#915=APPLICATION_PROTOCOL_DEFINITION('international standard',
'automotive_design',2009,#916);
#916=APPLICATION_CONTEXT(
'Core Data for Automotive Mechanical Design Process');
#917=PRODUCT_CONTEXT('part definition',#916,'mechanical');
#918=PRODUCT('2026-08-19-22-23-44-975','Gripper Holder 2.0',$,(#917));
#919=PRESENTATION_STYLE_ASSIGNMENT((#920));
#920=SURFACE_STYLE_USAGE(.BOTH.,#921);
#921=SURFACE_SIDE_STYLE('',(#922));
#922=SURFACE_STYLE_FILL_AREA(#923);
#923=FILL_AREA_STYLE('Steel - Satin',(#924));
#924=FILL_AREA_STYLE_COLOUR('Steel - Satin',#925);
#925=COLOUR_RGB('Steel - Satin',0.627450980392157,0.627450980392157,0.627450980392157);
ENDSEC;
END-ISO-10303-21;
