ISO-10303-21;
HEADER;
/* Generated by software containing ST-Developer
 * from STEP Tools, Inc. (www.steptools.com) 
 */

FILE_DESCRIPTION(
/* description */ (''),
/* implementation_level */ '2;1');

FILE_NAME(
/* name */ 'Gripper Holder 1.0.step',
/* time_stamp */ '2026-08-23T20:23:29+05:30',
/* author */ (''),
/* organization */ (''),
/* preprocessor_version */ 'ST-DEVELOPER v20.1',
/* originating_system */ 'Autodesk Translation Framework v15.8.0.0',
/* authorisation */ '');

FILE_SCHEMA (('AUTOMOTIVE_DESIGN { 1 0 10303 214 3 1 1 }'));
ENDSEC;

DATA;
#10=MECHANICAL_DESIGN_GEOMETRIC_PRESENTATION_REPRESENTATION('',(#13),#602);
#11=SHAPE_REPRESENTATION_RELATIONSHIP('SRR','None',#609,#12);
#12=ADVANCED_BREP_SHAPE_REPRESENTATION('',(#14),#601);
#13=STYLED_ITEM('',(#618),#14);
#14=MANIFOLD_SOLID_BREP('Body1',#210);
#15=FACE_BOUND('',#55,.T.);
#16=FACE_BOUND('',#56,.T.);
#17=FACE_BOUND('',#58,.T.);
#18=FACE_BOUND('',#59,.T.);
#19=CIRCLE('',#227,1.75);
#20=CIRCLE('',#228,1.75);
#21=CIRCLE('',#230,1.75);
#22=CIRCLE('',#231,1.75);
#23=CIRCLE('',#234,5.);
#24=CIRCLE('',#235,5.);
#25=CYLINDRICAL_SURFACE('',#226,1.75);
#26=CYLINDRICAL_SURFACE('',#229,1.75);
#27=CYLINDRICAL_SURFACE('',#233,5.);
#28=(
BOUNDED_CURVE()
B_SPLINE_CURVE(5,(#389,#390,#391,#392,#393,#394,#395,#396,#397,#398,#399,
#400,#401,#402,#403),.UNSPECIFIED.,.F.,.F.)
B_SPLINE_CURVE_WITH_KNOTS((6,1,1,1,1,1,1,1,1,1,6),(0.,0.1,0.2,0.3,0.4,0.5,
0.6,0.7,0.8,0.9,1.),.UNSPECIFIED.)
CURVE()
GEOMETRIC_REPRESENTATION_ITEM()
RATIONAL_B_SPLINE_CURVE((1.,1.,1.,1.,1.,1.,1.,1.,1.,1.,1.,1.,1.,1.,1.))
REPRESENTATION_ITEM('')
);
#29=(
BOUNDED_CURVE()
B_SPLINE_CURVE(5,(#549,#550,#551,#552,#553,#554,#555,#556,#557,#558,#559,
#560,#561,#562,#563,#564,#565,#566,#567,#568),.UNSPECIFIED.,.F.,.F.)
B_SPLINE_CURVE_WITH_KNOTS((6,1,1,1,1,1,1,1,1,1,1,1,1,1,1,6),(0.,0.0666666666666667,
0.133333333333333,0.2,0.266666666666667,0.333333333333333,0.4,0.466666666666667,
0.533333333333333,0.6,0.666666666666667,0.733333333333333,0.8,0.866666666666667,
0.933333333333333,1.),.UNSPECIFIED.)
CURVE()
GEOMETRIC_REPRESENTATION_ITEM()
RATIONAL_B_SPLINE_CURVE((1.,1.,1.,1.,1.,1.,1.,1.,1.,1.,1.,1.,1.,1.,1.,1.,
1.,1.,1.,1.))
REPRESENTATION_ITEM('')
);
#30=B_SPLINE_CURVE_WITH_KNOTS('',3,(#335,#336,#337,#338,#339,#340,#341,
#342,#343,#344,#345,#346,#347,#348,#349,#350,#351,#352,#353,#354,#355,#356,
#357,#358,#359,#360,#361,#362,#363,#364,#365,#366,#367,#368,#369,#370,#371,
#372,#373,#374,#375,#376,#377,#378,#379,#380,#381,#382,#383,#384,#385,#386),
 .UNSPECIFIED.,.F.,.F.,(4,3,3,3,3,3,3,3,3,3,3,3,3,3,3,3,3,4),(0.,0.242539045299413,
0.489616834615937,0.759351065577015,1.04911780735998,1.48565058407205,1.74079285016039,
1.96539590316268,2.1743856089833,2.38052303058897,2.60549969447256,2.87331973741737,
3.29033480832716,3.6030961115095,3.86309779579951,4.11417173640099,4.35907274545653,
4.54138002105652),.UNSPECIFIED.);
#31=B_SPLINE_CURVE_WITH_KNOTS('',3,(#445,#446,#447,#448,#449,#450,#451,
#452,#453,#454,#455,#456,#457,#458,#459,#460,#461,#462,#463,#464,#465,#466,
#467,#468,#469,#470,#471,#472,#473,#474,#475,#476,#477,#478,#479,#480,#481,
#482,#483,#484,#485,#486,#487,#488,#489,#490,#491,#492,#493,#494,#495,#496,
#497,#498,#499,#500,#501,#502,#503,#504,#505,#506,#507,#508,#509,#510,#511,
#512,#513,#514,#515,#516,#517,#518,#519,#520,#521,#522,#523,#524,#525,#526,
#527,#528,#529,#530,#531,#532,#533,#534,#535,#536,#537,#538,#539,#540,#541,
#542,#543,#544,#545,#546,#547),.UNSPECIFIED.,.F.,.F.,(4,3,3,3,3,3,3,3,3,
3,3,3,3,3,3,3,3,3,3,3,3,3,3,3,3,3,3,3,3,3,3,3,3,3,4),(0.,0.109415971980015,
0.225974780084039,0.316509900990784,0.398095846606843,0.47464500926194,
0.54719144781102,0.615764504964785,0.681278192667121,0.745702010181291,
0.810915254058302,0.877222092968805,0.945825482763146,1.01874586350771,
1.09820389663034,1.18733167928032,1.30520105824895,1.39891334816717,1.48036853372375,
1.55673277018304,1.62832424186363,1.69544124656418,1.75999576479268,1.82413802115909,
1.89019738451074,1.95895068969589,2.0306936862249,2.10536893627637,2.18626657757825,
2.27313048609251,2.36969241778909,2.48999774409636,2.59672557016249,2.69472090885915,
2.70219631707244),.UNSPECIFIED.);
#32=(
BOUNDED_SURFACE()
B_SPLINE_SURFACE(5,1,((#304,#305),(#306,#307),(#308,#309),(#310,#311),(#312,
#313),(#314,#315),(#316,#317),(#318,#319),(#320,#321),(#322,#323),(#324,
#325),(#326,#327),(#328,#329),(#330,#331),(#332,#333)),.UNSPECIFIED.,.F.,
 .F.,.F.)
B_SPLINE_SURFACE_WITH_KNOTS((6,1,1,1,1,1,1,1,1,1,6),(2,2),(-1.,-0.9,-0.8,
-0.7,-0.6,-0.5,-0.4,-0.3,-0.2,-0.1,0.),(0.,0.495),.UNSPECIFIED.)
GEOMETRIC_REPRESENTATION_ITEM()
RATIONAL_B_SPLINE_SURFACE(((1.,1.),(1.,1.),(1.,1.),(1.,1.),(1.,1.),(1.,
1.),(1.,1.),(1.,1.),(1.,1.),(1.,1.),(1.,1.),(1.,1.),(1.,1.),(1.,1.),(1.,
1.)))
REPRESENTATION_ITEM('')
SURFACE()
);
#33=(
BOUNDED_SURFACE()
B_SPLINE_SURFACE(5,1,((#404,#405),(#406,#407),(#408,#409),(#410,#411),(#412,
#413),(#414,#415),(#416,#417),(#418,#419),(#420,#421),(#422,#423),(#424,
#425),(#426,#427),(#428,#429),(#430,#431),(#432,#433),(#434,#435),(#436,
#437),(#438,#439),(#440,#441),(#442,#443)),.UNSPECIFIED.,.F.,.F.,.F.)
B_SPLINE_SURFACE_WITH_KNOTS((6,1,1,1,1,1,1,1,1,1,1,1,1,1,1,6),(2,2),(0.,
0.0666666666666667,0.133333333333333,0.2,0.266666666666667,0.333333333333333,
0.4,0.466666666666667,0.533333333333333,0.6,0.666666666666667,0.733333333333333,
0.8,0.866666666666667,0.933333333333333,1.),(0.,0.495),.UNSPECIFIED.)
GEOMETRIC_REPRESENTATION_ITEM()
RATIONAL_B_SPLINE_SURFACE(((1.,1.),(1.,1.),(1.,1.),(1.,1.),(1.,1.),(1.,
1.),(1.,1.),(1.,1.),(1.,1.),(1.,1.),(1.,1.),(1.,1.),(1.,1.),(1.,1.),(1.,
1.),(1.,1.),(1.,1.),(1.,1.),(1.,1.),(1.,1.)))
REPRESENTATION_ITEM('')
SURFACE()
);
#34=FACE_OUTER_BOUND('',#45,.T.);
#35=FACE_OUTER_BOUND('',#46,.T.);
#36=FACE_OUTER_BOUND('',#47,.T.);
#37=FACE_OUTER_BOUND('',#48,.T.);
#38=FACE_OUTER_BOUND('',#49,.T.);
#39=FACE_OUTER_BOUND('',#50,.T.);
#40=FACE_OUTER_BOUND('',#51,.T.);
#41=FACE_OUTER_BOUND('',#52,.T.);
#42=FACE_OUTER_BOUND('',#53,.T.);
#43=FACE_OUTER_BOUND('',#54,.T.);
#44=FACE_OUTER_BOUND('',#57,.T.);
#45=EDGE_LOOP('',(#139,#140,#141,#142));
#46=EDGE_LOOP('',(#143,#144,#145,#146));
#47=EDGE_LOOP('',(#147,#148,#149,#150));
#48=EDGE_LOOP('',(#151,#152,#153,#154));
#49=EDGE_LOOP('',(#155,#156,#157,#158));
#50=EDGE_LOOP('',(#159,#160,#161,#162));
#51=EDGE_LOOP('',(#163,#164,#165,#166));
#52=EDGE_LOOP('',(#167,#168,#169,#170));
#53=EDGE_LOOP('',(#171,#172,#173,#174));
#54=EDGE_LOOP('',(#175,#176,#177,#178,#179,#180,#181));
#55=EDGE_LOOP('',(#182));
#56=EDGE_LOOP('',(#183));
#57=EDGE_LOOP('',(#184,#185,#186,#187,#188,#189,#190));
#58=EDGE_LOOP('',(#191));
#59=EDGE_LOOP('',(#192));
#60=LINE('',#292,#77);
#61=LINE('',#294,#78);
#62=LINE('',#296,#79);
#63=LINE('',#297,#80);
#64=LINE('',#300,#81);
#65=LINE('',#302,#82);
#66=LINE('',#303,#83);
#67=LINE('',#388,#84);
#68=LINE('',#569,#85);
#69=LINE('',#574,#86);
#70=LINE('',#580,#87);
#71=LINE('',#584,#88);
#72=LINE('',#586,#89);
#73=LINE('',#587,#90);
#74=LINE('',#593,#91);
#75=LINE('',#595,#92);
#76=LINE('',#596,#93);
#77=VECTOR('',#243,10.);
#78=VECTOR('',#244,10.);
#79=VECTOR('',#245,10.);
#80=VECTOR('',#246,10.);
#81=VECTOR('',#249,10.);
#82=VECTOR('',#250,10.);
#83=VECTOR('',#251,10.);
#84=VECTOR('',#252,10.);
#85=VECTOR('',#253,10.);
#86=VECTOR('',#258,1.75);
#87=VECTOR('',#265,1.75);
#88=VECTOR('',#270,10.);
#89=VECTOR('',#271,10.);
#90=VECTOR('',#272,10.);
#91=VECTOR('',#279,10.);
#92=VECTOR('',#282,10.);
#93=VECTOR('',#283,10.);
#94=VERTEX_POINT('',#290);
#95=VERTEX_POINT('',#291);
#96=VERTEX_POINT('',#293);
#97=VERTEX_POINT('',#295);
#98=VERTEX_POINT('',#299);
#99=VERTEX_POINT('',#301);
#100=VERTEX_POINT('',#334);
#101=VERTEX_POINT('',#387);
#102=VERTEX_POINT('',#444);
#103=VERTEX_POINT('',#548);
#104=VERTEX_POINT('',#571);
#105=VERTEX_POINT('',#573);
#106=VERTEX_POINT('',#577);
#107=VERTEX_POINT('',#579);
#108=VERTEX_POINT('',#583);
#109=VERTEX_POINT('',#585);
#110=VERTEX_POINT('',#589);
#111=VERTEX_POINT('',#591);
#112=EDGE_CURVE('',#94,#95,#60,.T.);
#113=EDGE_CURVE('',#96,#95,#61,.T.);
#114=EDGE_CURVE('',#96,#97,#62,.T.);
#115=EDGE_CURVE('',#97,#94,#63,.T.);
#116=EDGE_CURVE('',#95,#98,#64,.T.);
#117=EDGE_CURVE('',#99,#98,#65,.T.);
#118=EDGE_CURVE('',#99,#96,#66,.T.);
#119=EDGE_CURVE('',#98,#100,#30,.T.);
#120=EDGE_CURVE('',#101,#100,#67,.T.);
#121=EDGE_CURVE('',#99,#101,#28,.T.);
#122=EDGE_CURVE('',#102,#94,#31,.T.);
#123=EDGE_CURVE('',#97,#103,#29,.T.);
#124=EDGE_CURVE('',#103,#102,#68,.T.);
#125=EDGE_CURVE('',#104,#104,#19,.T.);
#126=EDGE_CURVE('',#104,#105,#69,.T.);
#127=EDGE_CURVE('',#105,#105,#20,.T.);
#128=EDGE_CURVE('',#106,#106,#21,.T.);
#129=EDGE_CURVE('',#106,#107,#70,.T.);
#130=EDGE_CURVE('',#107,#107,#22,.T.);
#131=EDGE_CURVE('',#102,#108,#71,.T.);
#132=EDGE_CURVE('',#109,#103,#72,.T.);
#133=EDGE_CURVE('',#108,#109,#73,.T.);
#134=EDGE_CURVE('',#110,#108,#23,.T.);
#135=EDGE_CURVE('',#111,#109,#24,.T.);
#136=EDGE_CURVE('',#110,#111,#74,.T.);
#137=EDGE_CURVE('',#110,#100,#75,.T.);
#138=EDGE_CURVE('',#101,#111,#76,.T.);
#139=ORIENTED_EDGE('',*,*,#112,.T.);
#140=ORIENTED_EDGE('',*,*,#113,.F.);
#141=ORIENTED_EDGE('',*,*,#114,.T.);
#142=ORIENTED_EDGE('',*,*,#115,.T.);
#143=ORIENTED_EDGE('',*,*,#116,.T.);
#144=ORIENTED_EDGE('',*,*,#117,.F.);
#145=ORIENTED_EDGE('',*,*,#118,.T.);
#146=ORIENTED_EDGE('',*,*,#113,.T.);
#147=ORIENTED_EDGE('',*,*,#119,.T.);
#148=ORIENTED_EDGE('',*,*,#120,.F.);
#149=ORIENTED_EDGE('',*,*,#121,.F.);
#150=ORIENTED_EDGE('',*,*,#117,.T.);
#151=ORIENTED_EDGE('',*,*,#122,.T.);
#152=ORIENTED_EDGE('',*,*,#115,.F.);
#153=ORIENTED_EDGE('',*,*,#123,.T.);
#154=ORIENTED_EDGE('',*,*,#124,.T.);
#155=ORIENTED_EDGE('',*,*,#125,.F.);
#156=ORIENTED_EDGE('',*,*,#126,.T.);
#157=ORIENTED_EDGE('',*,*,#127,.T.);
#158=ORIENTED_EDGE('',*,*,#126,.F.);
#159=ORIENTED_EDGE('',*,*,#128,.F.);
#160=ORIENTED_EDGE('',*,*,#129,.T.);
#161=ORIENTED_EDGE('',*,*,#130,.T.);
#162=ORIENTED_EDGE('',*,*,#129,.F.);
#163=ORIENTED_EDGE('',*,*,#131,.F.);
#164=ORIENTED_EDGE('',*,*,#124,.F.);
#165=ORIENTED_EDGE('',*,*,#132,.F.);
#166=ORIENTED_EDGE('',*,*,#133,.F.);
#167=ORIENTED_EDGE('',*,*,#134,.T.);
#168=ORIENTED_EDGE('',*,*,#133,.T.);
#169=ORIENTED_EDGE('',*,*,#135,.F.);
#170=ORIENTED_EDGE('',*,*,#136,.F.);
#171=ORIENTED_EDGE('',*,*,#120,.T.);
#172=ORIENTED_EDGE('',*,*,#137,.F.);
#173=ORIENTED_EDGE('',*,*,#136,.T.);
#174=ORIENTED_EDGE('',*,*,#138,.F.);
#175=ORIENTED_EDGE('',*,*,#138,.T.);
#176=ORIENTED_EDGE('',*,*,#135,.T.);
#177=ORIENTED_EDGE('',*,*,#132,.T.);
#178=ORIENTED_EDGE('',*,*,#123,.F.);
#179=ORIENTED_EDGE('',*,*,#114,.F.);
#180=ORIENTED_EDGE('',*,*,#118,.F.);
#181=ORIENTED_EDGE('',*,*,#121,.T.);
#182=ORIENTED_EDGE('',*,*,#128,.T.);
#183=ORIENTED_EDGE('',*,*,#125,.T.);
#184=ORIENTED_EDGE('',*,*,#131,.T.);
#185=ORIENTED_EDGE('',*,*,#134,.F.);
#186=ORIENTED_EDGE('',*,*,#137,.T.);
#187=ORIENTED_EDGE('',*,*,#119,.F.);
#188=ORIENTED_EDGE('',*,*,#116,.F.);
#189=ORIENTED_EDGE('',*,*,#112,.F.);
#190=ORIENTED_EDGE('',*,*,#122,.F.);
#191=ORIENTED_EDGE('',*,*,#130,.F.);
#192=ORIENTED_EDGE('',*,*,#127,.F.);
#193=PLANE('',#224);
#194=PLANE('',#225);
#195=PLANE('',#232);
#196=PLANE('',#236);
#197=PLANE('',#237);
#198=PLANE('',#238);
#199=ADVANCED_FACE('',(#34),#193,.T.);
#200=ADVANCED_FACE('',(#35),#194,.T.);
#201=ADVANCED_FACE('',(#36),#32,.T.);
#202=ADVANCED_FACE('',(#37),#33,.T.);
#203=ADVANCED_FACE('',(#38),#25,.F.);
#204=ADVANCED_FACE('',(#39),#26,.F.);
#205=ADVANCED_FACE('',(#40),#195,.T.);
#206=ADVANCED_FACE('',(#41),#27,.T.);
#207=ADVANCED_FACE('',(#42),#196,.T.);
#208=ADVANCED_FACE('',(#43,#15,#16),#197,.T.);
#209=ADVANCED_FACE('',(#44,#17,#18),#198,.F.);
#210=CLOSED_SHELL('',(#199,#200,#201,#202,#203,#204,#205,#206,#207,#208,
#209));
#211=DERIVED_UNIT_ELEMENT(#213,1.);
#212=DERIVED_UNIT_ELEMENT(#604,-3.);
#213=(
MASS_UNIT()
NAMED_UNIT(*)
SI_UNIT(.KILO.,.GRAM.)
);
#214=DERIVED_UNIT((#211,#212));
#215=MEASURE_REPRESENTATION_ITEM('density measure',
POSITIVE_RATIO_MEASURE(7850.),#214);
#216=PROPERTY_DEFINITION_REPRESENTATION(#221,#218);
#217=PROPERTY_DEFINITION_REPRESENTATION(#222,#219);
#218=REPRESENTATION('material name',(#220),#601);
#219=REPRESENTATION('density',(#215),#601);
#220=DESCRIPTIVE_REPRESENTATION_ITEM('Steel','Steel');
#221=PROPERTY_DEFINITION('material property','material name',#611);
#222=PROPERTY_DEFINITION('material property','density of part',#611);
#223=AXIS2_PLACEMENT_3D('',#288,#239,#240);
#224=AXIS2_PLACEMENT_3D('',#289,#241,#242);
#225=AXIS2_PLACEMENT_3D('',#298,#247,#248);
#226=AXIS2_PLACEMENT_3D('',#570,#254,#255);
#227=AXIS2_PLACEMENT_3D('',#572,#256,#257);
#228=AXIS2_PLACEMENT_3D('',#575,#259,#260);
#229=AXIS2_PLACEMENT_3D('',#576,#261,#262);
#230=AXIS2_PLACEMENT_3D('',#578,#263,#264);
#231=AXIS2_PLACEMENT_3D('',#581,#266,#267);
#232=AXIS2_PLACEMENT_3D('',#582,#268,#269);
#233=AXIS2_PLACEMENT_3D('',#588,#273,#274);
#234=AXIS2_PLACEMENT_3D('',#590,#275,#276);
#235=AXIS2_PLACEMENT_3D('',#592,#277,#278);
#236=AXIS2_PLACEMENT_3D('',#594,#280,#281);
#237=AXIS2_PLACEMENT_3D('',#597,#284,#285);
#238=AXIS2_PLACEMENT_3D('',#598,#286,#287);
#239=DIRECTION('axis',(0.,0.,1.));
#240=DIRECTION('refdir',(1.,0.,0.));
#241=DIRECTION('center_axis',(-0.50375,0.86384948775814,0.));
#242=DIRECTION('ref_axis',(0.86384948775814,0.50375,0.));
#243=DIRECTION('',(-0.86384948775814,-0.50375,0.));
#244=DIRECTION('',(0.,0.,-1.));
#245=DIRECTION('',(0.86384948775814,0.50375,0.));
#246=DIRECTION('',(0.,0.,-1.));
#247=DIRECTION('center_axis',(-0.709999999999999,-0.704201675658331,0.));
#248=DIRECTION('ref_axis',(-0.704201675658331,0.709999999999999,0.));
#249=DIRECTION('',(0.704201675658331,-0.709999999999999,0.));
#250=DIRECTION('',(0.,0.,-1.));
#251=DIRECTION('',(-0.704201675658331,0.709999999999999,0.));
#252=DIRECTION('',(0.,0.,-1.));
#253=DIRECTION('',(0.,0.,-1.));
#254=DIRECTION('center_axis',(0.,0.,1.));
#255=DIRECTION('ref_axis',(1.,0.,0.));
#256=DIRECTION('center_axis',(0.,0.,-1.));
#257=DIRECTION('ref_axis',(1.,0.,0.));
#258=DIRECTION('',(0.,0.,-1.));
#259=DIRECTION('center_axis',(0.,0.,-1.));
#260=DIRECTION('ref_axis',(1.,0.,0.));
#261=DIRECTION('center_axis',(0.,0.,1.));
#262=DIRECTION('ref_axis',(1.,0.,0.));
#263=DIRECTION('center_axis',(0.,0.,-1.));
#264=DIRECTION('ref_axis',(1.,0.,0.));
#265=DIRECTION('',(0.,0.,-1.));
#266=DIRECTION('center_axis',(0.,0.,-1.));
#267=DIRECTION('ref_axis',(1.,0.,0.));
#268=DIRECTION('center_axis',(0.,1.,0.));
#269=DIRECTION('ref_axis',(-1.,0.,0.));
#270=DIRECTION('',(1.,0.,0.));
#271=DIRECTION('',(-1.,0.,0.));
#272=DIRECTION('',(0.,0.,1.));
#273=DIRECTION('center_axis',(0.,0.,1.));
#274=DIRECTION('ref_axis',(1.,0.,0.));
#275=DIRECTION('center_axis',(0.,0.,1.));
#276=DIRECTION('ref_axis',(1.,0.,0.));
#277=DIRECTION('center_axis',(0.,0.,1.));
#278=DIRECTION('ref_axis',(1.,0.,0.));
#279=DIRECTION('',(0.,0.,1.));
#280=DIRECTION('center_axis',(0.,-1.,0.));
#281=DIRECTION('ref_axis',(1.,0.,0.));
#282=DIRECTION('',(-1.,0.,0.));
#283=DIRECTION('',(1.,0.,0.));
#284=DIRECTION('center_axis',(0.,0.,1.));
#285=DIRECTION('ref_axis',(1.,0.,0.));
#286=DIRECTION('center_axis',(0.,0.,1.));
#287=DIRECTION('ref_axis',(1.,0.,0.));
#288=CARTESIAN_POINT('',(0.,0.,0.));
#289=CARTESIAN_POINT('Origin',(-49.1807960659779,-10.03,4.5));
#290=CARTESIAN_POINT('',(-42.2700001639128,-6.,0.));
#291=CARTESIAN_POINT('',(-49.1807960659779,-10.03,0.));
#292=CARTESIAN_POINT('',(-38.6795138642563,-3.90622382824363,-2.77555756156289E-16));
#293=CARTESIAN_POINT('',(-49.1807960659779,-10.03,4.5));
#294=CARTESIAN_POINT('',(-49.1807960659779,-10.03,4.5));
#295=CARTESIAN_POINT('',(-42.2700001639128,-6.,4.5));
#296=CARTESIAN_POINT('',(-49.1807960659779,-10.03,4.5));
#297=CARTESIAN_POINT('',(-42.2700001639128,-6.,4.5));
#298=CARTESIAN_POINT('Origin',(-46.3639893633446,-12.87,4.5));
#299=CARTESIAN_POINT('',(-46.3639893633446,-12.87,0.));
#300=CARTESIAN_POINT('',(-43.1989022930454,-16.0611480724773,0.));
#301=CARTESIAN_POINT('',(-46.3639893633446,-12.87,4.5));
#302=CARTESIAN_POINT('',(-46.3639893633446,-12.87,4.5));
#303=CARTESIAN_POINT('',(-46.3639893633446,-12.87,4.5));
#304=CARTESIAN_POINT('Ctrl Pts',(0.,-5.0000000372529,4.5));
#305=CARTESIAN_POINT('Ctrl Pts',(0.,-5.0000000372529,-0.450000000000004));
#306=CARTESIAN_POINT('Ctrl Pts',(-0.974438894971734,-5.23361464688791,4.5));
#307=CARTESIAN_POINT('Ctrl Pts',(-0.974438894971734,-5.23361464688791,-0.450000000000004));
#308=CARTESIAN_POINT('Ctrl Pts',(-2.91925648533051,-5.69428211076255,4.5));
#309=CARTESIAN_POINT('Ctrl Pts',(-2.91925648533051,-5.69428211076255,-0.450000000000004));
#310=CARTESIAN_POINT('Ctrl Pts',(-5.8243028945916,-6.36559904638374,4.5));
#311=CARTESIAN_POINT('Ctrl Pts',(-5.8243028945916,-6.36559904638374,-0.450000000000004));
#312=CARTESIAN_POINT('Ctrl Pts',(-9.67293200354819,-7.22066338644198,4.5));
#313=CARTESIAN_POINT('Ctrl Pts',(-9.67293200354819,-7.22066338644198,-0.450000000000004));
#314=CARTESIAN_POINT('Ctrl Pts',(-14.439589555037,-8.21817647521423,4.5));
#315=CARTESIAN_POINT('Ctrl Pts',(-14.439589555037,-8.21817647521423,-0.450000000000004));
#316=CARTESIAN_POINT('Ctrl Pts',(-19.1579839842871,-9.1376907375402,4.5));
#317=CARTESIAN_POINT('Ctrl Pts',(-19.1579839842871,-9.1376907375402,-0.450000000000004));
#318=CARTESIAN_POINT('Ctrl Pts',(-23.8238689992831,-9.97234367098417,4.5));
#319=CARTESIAN_POINT('Ctrl Pts',(-23.8238689992831,-9.97234367098417,-0.450000000000004));
#320=CARTESIAN_POINT('Ctrl Pts',(-28.4343922073656,-10.7175254768095,4.5));
#321=CARTESIAN_POINT('Ctrl Pts',(-28.4343922073656,-10.7175254768095,-0.450000000000004));
#322=CARTESIAN_POINT('Ctrl Pts',(-32.9910003212092,-11.3755742111907,4.5));
#323=CARTESIAN_POINT('Ctrl Pts',(-32.9910003212092,-11.3755742111907,-0.450000000000004));
#324=CARTESIAN_POINT('Ctrl Pts',(-37.4974592726327,-11.9525760585451,4.5));
#325=CARTESIAN_POINT('Ctrl Pts',(-37.4974592726327,-11.9525760585451,-0.450000000000004));
#326=CARTESIAN_POINT('Ctrl Pts',(-41.0656433700548,-12.3544085982821,4.5));
#327=CARTESIAN_POINT('Ctrl Pts',(-41.0656433700548,-12.3544085982821,-0.450000000000004));
#328=CARTESIAN_POINT('Ctrl Pts',(-43.722278084215,-12.624263303663,4.5));
#329=CARTESIAN_POINT('Ctrl Pts',(-43.722278084215,-12.624263303663,-0.450000000000004));
#330=CARTESIAN_POINT('Ctrl Pts',(-45.4848402229135,-12.7903847315034,4.5));
#331=CARTESIAN_POINT('Ctrl Pts',(-45.4848402229135,-12.7903847315034,-0.450000000000004));
#332=CARTESIAN_POINT('Ctrl Pts',(-46.3639893633446,-12.87,4.5));
#333=CARTESIAN_POINT('Ctrl Pts',(-46.3639893633446,-12.87,-0.450000000000004));
#334=CARTESIAN_POINT('',(0.,-5.0000000372529,0.));
#335=CARTESIAN_POINT('Ctrl Pts',(-46.3639893633446,-12.87,-8.88178419700125E-16));
#336=CARTESIAN_POINT('Ctrl Pts',(-45.5814519253584,-12.7991338347856,-8.88178419700125E-16));
#337=CARTESIAN_POINT('Ctrl Pts',(-44.7968898721255,-12.7249956555389,-8.98618149617272E-16));
#338=CARTESIAN_POINT('Ctrl Pts',(-44.0102892230422,-12.6475628679759,-8.88178419700125E-16));
#339=CARTESIAN_POINT('Ctrl Pts',(-43.2089685564645,-12.5686810452655,-8.77543326345132E-16));
#340=CARTESIAN_POINT('Ctrl Pts',(-42.4055322272056,-12.4863800652648,1.12836246818292E-17));
#341=CARTESIAN_POINT('Ctrl Pts',(-41.5999370774591,-12.4005901799324,0.));
#342=CARTESIAN_POINT('Ctrl Pts',(-40.7204707815045,-12.3069335675416,-1.23183060461481E-17));
#343=CARTESIAN_POINT('Ctrl Pts',(-39.8384316146136,-12.2091188960722,-8.88178419700125E-16));
#344=CARTESIAN_POINT('Ctrl Pts',(-38.953728940837,-12.1069996872742,-8.88178419700125E-16));
#345=CARTESIAN_POINT('Ctrl Pts',(-38.0033215330954,-11.9972963311172,-8.88178419700125E-16));
#346=CARTESIAN_POINT('Ctrl Pts',(-37.0498398273253,-11.8826245513025,-8.88178419700125E-16));
#347=CARTESIAN_POINT('Ctrl Pts',(-36.0931372705446,-11.7627475011428,-8.88178419700125E-16));
#348=CARTESIAN_POINT('Ctrl Pts',(-34.6518675753778,-11.5821530642233,-8.88178419700125E-16));
#349=CARTESIAN_POINT('Ctrl Pts',(-33.2032854665958,-11.3897409152714,-8.88178419700125E-16));
#350=CARTESIAN_POINT('Ctrl Pts',(-31.7468253730084,-11.184597025375,-8.88178419700125E-16));
#351=CARTESIAN_POINT('Ctrl Pts',(-30.8955616224511,-11.0646956577467,-8.88178419700125E-16));
#352=CARTESIAN_POINT('Ctrl Pts',(-30.0416051792738,-10.9404425852435,-8.88178419700125E-16));
#353=CARTESIAN_POINT('Ctrl Pts',(-29.1848552416985,-10.8116749004525,-8.88178419700125E-16));
#354=CARTESIAN_POINT('Ctrl Pts',(-28.4306538520617,-10.6983200432762,-8.88178419700125E-16));
#355=CARTESIAN_POINT('Ctrl Pts',(-27.6742872836272,-10.5814660049979,-8.88178419700125E-16));
#356=CARTESIAN_POINT('Ctrl Pts',(-26.9157071263359,-10.4610345493241,-8.88178419700125E-16));
#357=CARTESIAN_POINT('Ctrl Pts',(-26.2098598914273,-10.3489749216548,-8.88178419700125E-16));
#358=CARTESIAN_POINT('Ctrl Pts',(-25.5020959044107,-10.2338175993468,1.63375391543111E-17));
#359=CARTESIAN_POINT('Ctrl Pts',(-24.7923990197728,-10.1155364893701,0.));
#360=CARTESIAN_POINT('Ctrl Pts',(-24.0923880534603,-9.99886967585636,-1.6114564989828E-17));
#361=CARTESIAN_POINT('Ctrl Pts',(-23.3904962923414,-9.87916327889085,-8.88178419700125E-16));
#362=CARTESIAN_POINT('Ctrl Pts',(-22.6867356031558,-9.75643647650709,-8.88178419700125E-16));
#363=CARTESIAN_POINT('Ctrl Pts',(-21.9186570524874,-9.62249346725466,-8.88178419700125E-16));
#364=CARTESIAN_POINT('Ctrl Pts',(-21.1483526706068,-9.48495325553465,-8.72201044817756E-16));
#365=CARTESIAN_POINT('Ctrl Pts',(-20.3758719289487,-9.34389579294676,-8.88178419700125E-16));
#366=CARTESIAN_POINT('Ctrl Pts',(-19.4562839955443,-9.17597608502753,-9.0719844228058E-16));
#367=CARTESIAN_POINT('Ctrl Pts',(-18.5336125462139,-9.00307305625393,-8.70931239591037E-16));
#368=CARTESIAN_POINT('Ctrl Pts',(-17.6079798304341,-8.82538427601755,-8.88178419700125E-16));
#369=CARTESIAN_POINT('Ctrl Pts',(-16.166703112071,-8.54871006420204,-9.1503351970348E-16));
#370=CARTESIAN_POINT('Ctrl Pts',(-14.7182486456365,-8.26043577555503,-8.88178419700125E-16));
#371=CARTESIAN_POINT('Ctrl Pts',(-13.2631517573507,-7.96142655959438,-8.88178419700125E-16));
#372=CARTESIAN_POINT('Ctrl Pts',(-12.1718290911363,-7.7371696476239,-8.88178419700125E-16));
#373=CARTESIAN_POINT('Ctrl Pts',(-11.0767727646596,-7.50687870583289,-8.88178419700125E-16));
#374=CARTESIAN_POINT('Ctrl Pts',(-9.9781954769812,-7.2708974806754,-8.88178419700125E-16));
#375=CARTESIAN_POINT('Ctrl Pts',(-9.06493689219841,-7.07472386399881,-8.88178419700125E-16));
#376=CARTESIAN_POINT('Ctrl Pts',(-8.14924519399558,-6.87461805266568,-8.88178419700125E-16));
#377=CARTESIAN_POINT('Ctrl Pts',(-7.23122024147388,-6.67074143061345,-8.88178419700125E-16));
#378=CARTESIAN_POINT('Ctrl Pts',(-6.34471774427074,-6.47386537177193,-8.88178419700125E-16));
#379=CARTESIAN_POINT('Ctrl Pts',(-5.45603966577539,-6.27347332018562,-8.88178419700125E-16));
#380=CARTESIAN_POINT('Ctrl Pts',(-4.5652512098895,-6.0696706529535,-8.88178419700125E-16));
#381=CARTESIAN_POINT('Ctrl Pts',(-3.69636377705257,-5.87087870053588,-8.88178419700125E-16));
#382=CARTESIAN_POINT('Ctrl Pts',(-2.82546853098218,-5.66884188809528,-1.03957406725541E-17));
#383=CARTESIAN_POINT('Ctrl Pts',(-1.95259989125533,-5.46361584167683,0.));
#384=CARTESIAN_POINT('Ctrl Pts',(-1.30282591000893,-5.31084308851835,7.73871519421813E-18));
#385=CARTESIAN_POINT('Ctrl Pts',(-0.651957845989873,-5.15630217017815,-8.88178419700125E-16));
#386=CARTESIAN_POINT('Ctrl Pts',(0.,-5.0000000372529,-8.88178419700125E-16));
#387=CARTESIAN_POINT('',(0.,-5.0000000372529,4.5));
#388=CARTESIAN_POINT('',(0.,-5.0000000372529,4.5));
#389=CARTESIAN_POINT('Ctrl Pts',(-46.3639893633446,-12.87,4.5));
#390=CARTESIAN_POINT('Ctrl Pts',(-45.4848402229135,-12.7903847315034,4.5));
#391=CARTESIAN_POINT('Ctrl Pts',(-43.722278084215,-12.624263303663,4.5));
#392=CARTESIAN_POINT('Ctrl Pts',(-41.0656433700548,-12.3544085982821,4.5));
#393=CARTESIAN_POINT('Ctrl Pts',(-37.4974592726327,-11.9525760585451,4.5));
#394=CARTESIAN_POINT('Ctrl Pts',(-32.9910003212092,-11.3755742111907,4.5));
#395=CARTESIAN_POINT('Ctrl Pts',(-28.4343922073656,-10.7175254768095,4.5));
#396=CARTESIAN_POINT('Ctrl Pts',(-23.8238689992831,-9.97234367098417,4.5));
#397=CARTESIAN_POINT('Ctrl Pts',(-19.1579839842871,-9.1376907375402,4.5));
#398=CARTESIAN_POINT('Ctrl Pts',(-14.439589555037,-8.21817647521423,4.5));
#399=CARTESIAN_POINT('Ctrl Pts',(-9.67293200354819,-7.22066338644198,4.5));
#400=CARTESIAN_POINT('Ctrl Pts',(-5.8243028945916,-6.36559904638374,4.5));
#401=CARTESIAN_POINT('Ctrl Pts',(-2.91925648533051,-5.69428211076255,4.5));
#402=CARTESIAN_POINT('Ctrl Pts',(-0.974438894971734,-5.23361464688791,4.5));
#403=CARTESIAN_POINT('Ctrl Pts',(0.,-5.0000000372529,4.5));
#404=CARTESIAN_POINT('Ctrl Pts',(-42.2700001639128,-6.,4.5));
#405=CARTESIAN_POINT('Ctrl Pts',(-42.2700001639128,-6.,-0.450000000000004));
#406=CARTESIAN_POINT('Ctrl Pts',(-41.8597227144478,-6.04833954420138,4.5));
#407=CARTESIAN_POINT('Ctrl Pts',(-41.8597227144478,-6.04833954420138,-0.450000000000004));
#408=CARTESIAN_POINT('Ctrl Pts',(-41.0377295131024,-6.12416714584068,4.5));
#409=CARTESIAN_POINT('Ctrl Pts',(-41.0377295131024,-6.12416714584068,-0.450000000000004));
#410=CARTESIAN_POINT('Ctrl Pts',(-39.8004250019954,-6.17535510714735,4.5));
#411=CARTESIAN_POINT('Ctrl Pts',(-39.8004250019954,-6.17535510714735,-0.450000000000004));
#412=CARTESIAN_POINT('Ctrl Pts',(-38.1419917185779,-6.11758045371326,4.5));
#413=CARTESIAN_POINT('Ctrl Pts',(-38.1419917185779,-6.11758045371326,-0.450000000000004));
#414=CARTESIAN_POINT('Ctrl Pts',(-36.055075917846,-5.83196564658316,4.5));
#415=CARTESIAN_POINT('Ctrl Pts',(-36.055075917846,-5.83196564658316,-0.450000000000004));
#416=CARTESIAN_POINT('Ctrl Pts',(-33.9567863800222,-5.33240180888525,4.5));
#417=CARTESIAN_POINT('Ctrl Pts',(-33.9567863800222,-5.33240180888525,-0.450000000000004));
#418=CARTESIAN_POINT('Ctrl Pts',(-31.8527719094842,-4.62589059629404,4.5));
#419=CARTESIAN_POINT('Ctrl Pts',(-31.8527719094842,-4.62589059629404,-0.450000000000004));
#420=CARTESIAN_POINT('Ctrl Pts',(-29.753007877711,-3.73175980269685,4.5));
#421=CARTESIAN_POINT('Ctrl Pts',(-29.753007877711,-3.73175980269685,-0.450000000000004));
#422=CARTESIAN_POINT('Ctrl Pts',(-27.6735417088822,-2.6889206316389,4.5));
#423=CARTESIAN_POINT('Ctrl Pts',(-27.6735417088822,-2.6889206316389,-0.450000000000004));
#424=CARTESIAN_POINT('Ctrl Pts',(-25.6345857896468,-1.549892183379,4.5));
#425=CARTESIAN_POINT('Ctrl Pts',(-25.6345857896468,-1.549892183379,-0.450000000000004));
#426=CARTESIAN_POINT('Ctrl Pts',(-23.6580558866394,-0.373147743680687,4.5));
#427=CARTESIAN_POINT('Ctrl Pts',(-23.6580558866394,-0.373147743680687,-0.450000000000004));
#428=CARTESIAN_POINT('Ctrl Pts',(-21.7651239459017,0.78362627851462,4.5));
#429=CARTESIAN_POINT('Ctrl Pts',(-21.7651239459017,0.78362627851462,-0.450000000000004));
#430=CARTESIAN_POINT('Ctrl Pts',(-19.9738569543134,1.86982397049454,4.5));
#431=CARTESIAN_POINT('Ctrl Pts',(-19.9738569543134,1.86982397049454,-0.450000000000004));
#432=CARTESIAN_POINT('Ctrl Pts',(-18.2957740835254,2.8500255863786,4.5));
#433=CARTESIAN_POINT('Ctrl Pts',(-18.2957740835254,2.8500255863786,-0.450000000000004));
#434=CARTESIAN_POINT('Ctrl Pts',(-16.7347164061691,3.70701072554969,4.5));
#435=CARTESIAN_POINT('Ctrl Pts',(-16.7347164061691,3.70701072554969,-0.450000000000004));
#436=CARTESIAN_POINT('Ctrl Pts',(-15.5794072111411,4.28890208268775,4.5));
#437=CARTESIAN_POINT('Ctrl Pts',(-15.5794072111411,4.28890208268775,-0.450000000000004));
#438=CARTESIAN_POINT('Ctrl Pts',(-14.7647089505787,4.666979944933,4.5));
#439=CARTESIAN_POINT('Ctrl Pts',(-14.7647089505787,4.666979944933,-0.450000000000004));
#440=CARTESIAN_POINT('Ctrl Pts',(-14.2444279834378,4.89328435170485,4.5));
#441=CARTESIAN_POINT('Ctrl Pts',(-14.2444279834378,4.89328435170485,-0.450000000000004));
#442=CARTESIAN_POINT('Ctrl Pts',(-13.9900001639128,5.,4.5));
#443=CARTESIAN_POINT('Ctrl Pts',(-13.9900001639128,5.,-0.450000000000004));
#444=CARTESIAN_POINT('',(-13.9900001639128,5.,0.));
#445=CARTESIAN_POINT('Ctrl Pts',(-13.9900001639128,5.,-8.88178419700125E-16));
#446=CARTESIAN_POINT('Ctrl Pts',(-14.2475542412776,4.89197309323974,-8.88178419700125E-16));
#447=CARTESIAN_POINT('Ctrl Pts',(-14.512129240818,4.77603454900789,-8.95987034082229E-16));
#448=CARTESIAN_POINT('Ctrl Pts',(-14.783749374412,4.65216159929563,-8.88178419700125E-16));
#449=CARTESIAN_POINT('Ctrl Pts',(-15.0731012711768,4.52020204061779,-8.79860047447414E-16));
#450=CARTESIAN_POINT('Ctrl Pts',(-15.3704498858645,4.37923366830332,-8.96888348015434E-16));
#451=CARTESIAN_POINT('Ctrl Pts',(-15.6758615796956,4.22922441101217,-8.88178419700125E-16));
#452=CARTESIAN_POINT('Ctrl Pts',(-15.9130850472062,4.11270720852102,-8.81413127347343E-16));
#453=CARTESIAN_POINT('Ctrl Pts',(-16.1551743735809,3.99073434323635,-8.88178419700125E-16));
#454=CARTESIAN_POINT('Ctrl Pts',(-16.402161994474,3.86332067903563,-8.88178419700125E-16));
#455=CARTESIAN_POINT('Ctrl Pts',(-16.62473549307,3.74850154394074,-8.88178419700125E-16));
#456=CARTESIAN_POINT('Ctrl Pts',(-16.8512872096968,3.62926352111599,6.55198536043448E-18));
#457=CARTESIAN_POINT('Ctrl Pts',(-17.081832502445,3.50565513080321,0.));
#458=CARTESIAN_POINT('Ctrl Pts',(-17.2981448707174,3.38967781750324,-6.1474925525775E-18));
#459=CARTESIAN_POINT('Ctrl Pts',(-17.5179731829238,3.26985278493538,-8.88178419700125E-16));
#460=CARTESIAN_POINT('Ctrl Pts',(-17.7413178613122,3.14626090872635,-8.88178419700125E-16));
#461=CARTESIAN_POINT('Ctrl Pts',(-17.9529839386928,3.02913160068988,-8.88178419700125E-16));
#462=CARTESIAN_POINT('Ctrl Pts',(-18.1678084098361,2.9086188962369,6.22912176677558E-18));
#463=CARTESIAN_POINT('Ctrl Pts',(-18.3857775539058,2.78483292293813,0.));
#464=CARTESIAN_POINT('Ctrl Pts',(-18.591808489028,2.66782672950372,-5.8879516551579E-18));
#465=CARTESIAN_POINT('Ctrl Pts',(-18.8006492197072,2.54789579238086,-8.88178419700125E-16));
#466=CARTESIAN_POINT('Ctrl Pts',(-19.0122732933315,2.42517335385831,-8.88178419700125E-16));
#467=CARTESIAN_POINT('Ctrl Pts',(-19.214455812898,2.30792614562304,-8.88178419700125E-16));
#468=CARTESIAN_POINT('Ctrl Pts',(-19.4191790146737,2.18813072650033,-8.94176914776601E-16));
#469=CARTESIAN_POINT('Ctrl Pts',(-19.6264034616629,2.06594465415074,-8.88178419700125E-16));
#470=CARTESIAN_POINT('Ctrl Pts',(-19.8301805718444,1.94579124035439,-8.82279714166675E-16));
#471=CARTESIAN_POINT('Ctrl Pts',(-20.0363765878954,1.8233257036806,-8.94271358933883E-16));
#472=CARTESIAN_POINT('Ctrl Pts',(-20.2449351815858,1.69874338521205,-8.88178419700125E-16));
#473=CARTESIAN_POINT('Ctrl Pts',(-20.4560493775117,1.57263447967775,-8.82010819773414E-16));
#474=CARTESIAN_POINT('Ctrl Pts',(-20.669584408239,1.44435662426007,-8.88178419700125E-16));
#475=CARTESIAN_POINT('Ctrl Pts',(-20.8854605879976,1.31416272122287,-8.88178419700125E-16));
#476=CARTESIAN_POINT('Ctrl Pts',(-21.1049569084515,1.18178552845358,-8.88178419700125E-16));
#477=CARTESIAN_POINT('Ctrl Pts',(-21.326873532742,1.04742756832973,-8.88178419700125E-16));
#478=CARTESIAN_POINT('Ctrl Pts',(-21.5511051306382,0.911405293215562,-8.88178419700125E-16));
#479=CARTESIAN_POINT('Ctrl Pts',(-21.7831030356422,0.770671858871549,-8.88178419700125E-16));
#480=CARTESIAN_POINT('Ctrl Pts',(-22.0175790544178,0.628156844836315,7.22750395580745E-18));
#481=CARTESIAN_POINT('Ctrl Pts',(-22.2543935735108,0.484264159917538,0.));
#482=CARTESIAN_POINT('Ctrl Pts',(-22.5061100695888,0.331316770552518,-7.6823075633767E-18));
#483=CARTESIAN_POINT('Ctrl Pts',(-22.7604685004072,0.17681319638581,-8.96193494284552E-16));
#484=CARTESIAN_POINT('Ctrl Pts',(-23.0172766326019,0.0212953466553384,-8.88178419700125E-16));
#485=CARTESIAN_POINT('Ctrl Pts',(-23.297108812107,-0.148165403945082,-8.79444756281107E-16));
#486=CARTESIAN_POINT('Ctrl Pts',(-23.5798494283244,-0.318829939080059,-8.973447283788E-16));
#487=CARTESIAN_POINT('Ctrl Pts',(-23.8652240322565,-0.489937931926564,-8.88178419700125E-16));
#488=CARTESIAN_POINT('Ctrl Pts',(-24.1853276728014,-0.681869136321762,-8.77896605067805E-16));
#489=CARTESIAN_POINT('Ctrl Pts',(-24.508745168042,-0.874357530366653,1.08867500944967E-17));
#490=CARTESIAN_POINT('Ctrl Pts',(-24.8350620885529,-1.0662693939613,0.));
#491=CARTESIAN_POINT('Ctrl Pts',(-25.2666084776134,-1.32006828254631,-1.43974688303905E-17));
#492=CARTESIAN_POINT('Ctrl Pts',(-25.7032254061093,-1.57285649906249,-8.88178419700125E-16));
#493=CARTESIAN_POINT('Ctrl Pts',(-26.143911506736,-1.82192977937593,-8.88178419700125E-16));
#494=CARTESIAN_POINT('Ctrl Pts',(-26.4942798889758,-2.01995599839782,-8.88178419700125E-16));
#495=CARTESIAN_POINT('Ctrl Pts',(-26.8472188015604,-2.21563026983929,-8.88178419700125E-16));
#496=CARTESIAN_POINT('Ctrl Pts',(-27.2022216871101,-2.40760186927943,-8.88178419700125E-16));
#497=CARTESIAN_POINT('Ctrl Pts',(-27.5107919497812,-2.57446453230511,-8.88178419700125E-16));
#498=CARTESIAN_POINT('Ctrl Pts',(-27.8209211433633,-2.73852878954383,-8.88178419700125E-16));
#499=CARTESIAN_POINT('Ctrl Pts',(-28.1322846977924,-2.89893937790735,-8.88178419700125E-16));
#500=CARTESIAN_POINT('Ctrl Pts',(-28.4241880300696,-3.04932430449816,-8.88178419700125E-16));
#501=CARTESIAN_POINT('Ctrl Pts',(-28.7171759739665,-3.19649719165093,-8.79101574570924E-16));
#502=CARTESIAN_POINT('Ctrl Pts',(-29.0109934272833,-3.33979536899049,-8.88178419700125E-16));
#503=CARTESIAN_POINT('Ctrl Pts',(-29.2864472897678,-3.47413741024632,-8.96687962008752E-16));
#504=CARTESIAN_POINT('Ctrl Pts',(-29.5626300698715,-3.6050735303809,-8.13540880281716E-18));
#505=CARTESIAN_POINT('Ctrl Pts',(-29.8393455861469,-3.73210411242112,0.));
#506=CARTESIAN_POINT('Ctrl Pts',(-30.0987663826552,-3.85119528308382,7.62694575264108E-18));
#507=CARTESIAN_POINT('Ctrl Pts',(-30.3586553718669,-3.96685377297851,-8.80853399923963E-16));
#508=CARTESIAN_POINT('Ctrl Pts',(-30.6188648449749,-4.07871344729159,-8.88178419700125E-16));
#509=CARTESIAN_POINT('Ctrl Pts',(-30.869139678453,-4.18630238718389,-8.95223774670511E-16));
#510=CARTESIAN_POINT('Ctrl Pts',(-31.119710950041,-4.29037692833374,-6.78693986225867E-18));
#511=CARTESIAN_POINT('Ctrl Pts',(-31.3704610814801,-4.39065625116722,0.));
#512=CARTESIAN_POINT('Ctrl Pts',(-31.6196098576781,-4.49029516428972,6.74359670762994E-18));
#513=CARTESIAN_POINT('Ctrl Pts',(-31.8689351138808,-4.58618686052146,-6.50647127970997E-18));
#514=CARTESIAN_POINT('Ctrl Pts',(-32.1183366326551,-4.67810474294143,0.));
#515=CARTESIAN_POINT('Ctrl Pts',(-32.375192354335,-4.77276990031615,6.70093904941847E-18));
#516=CARTESIAN_POINT('Ctrl Pts',(-32.6321289716012,-4.86322027701412,-8.81711667710265E-16));
#517=CARTESIAN_POINT('Ctrl Pts',(-32.8890542506699,-4.94926327694447,-8.88178419700125E-16));
#518=CARTESIAN_POINT('Ctrl Pts',(-33.1564571020653,-5.0388151638097,-8.94908889849357E-16));
#519=CARTESIAN_POINT('Ctrl Pts',(-33.4238477018128,-5.12359312667057,-6.49425079432696E-18));
#520=CARTESIAN_POINT('Ctrl Pts',(-33.6911401084355,-5.20343541905833,0.));
#521=CARTESIAN_POINT('Ctrl Pts',(-33.9700555460123,-5.28674959995796,6.77664893260428E-18));
#522=CARTESIAN_POINT('Ctrl Pts',(-34.2488641079001,-5.36468986620709,-6.53723463583066E-18));
#523=CARTESIAN_POINT('Ctrl Pts',(-34.5274868108419,-5.43712680386506,0.));
#524=CARTESIAN_POINT('Ctrl Pts',(-34.8174972790243,-5.51252435755359,6.80442209963154E-18));
#525=CARTESIAN_POINT('Ctrl Pts',(-35.1073064104469,-5.58195979642799,-8.88178419700125E-16));
#526=CARTESIAN_POINT('Ctrl Pts',(-35.3968444349535,-5.64534027227414,-8.88178419700125E-16));
#527=CARTESIAN_POINT('Ctrl Pts',(-35.7105085101811,-5.71400199080885,-8.88178419700125E-16));
#528=CARTESIAN_POINT('Ctrl Pts',(-36.0238543354808,-5.77555774241347,-8.88178419700125E-16));
#529=CARTESIAN_POINT('Ctrl Pts',(-36.3368160477351,-5.82994812534566,-8.88178419700125E-16));
#530=CARTESIAN_POINT('Ctrl Pts',(-36.6728589422404,-5.88834984350513,-8.88178419700125E-16));
#531=CARTESIAN_POINT('Ctrl Pts',(-37.0084590080531,-5.93849087254239,-8.88178419700125E-16));
#532=CARTESIAN_POINT('Ctrl Pts',(-37.3435604810107,-5.98035736449183,-8.88178419700125E-16));
#533=CARTESIAN_POINT('Ctrl Pts',(-37.7160747518581,-6.02689809015273,-8.88178419700125E-16));
#534=CARTESIAN_POINT('Ctrl Pts',(-38.0879729013991,-6.06321450273449,-8.88178419700125E-16));
#535=CARTESIAN_POINT('Ctrl Pts',(-38.4592089929783,-6.08934690719847,-8.88178419700125E-16));
#536=CARTESIAN_POINT('Ctrl Pts',(-38.9217274860303,-6.12190494938959,-8.88178419700125E-16));
#537=CARTESIAN_POINT('Ctrl Pts',(-39.3832178863736,-6.13865728364293,-8.88178419700125E-16));
#538=CARTESIAN_POINT('Ctrl Pts',(-39.8436413589272,-6.1397438046848,-8.88178419700125E-16));
#539=CARTESIAN_POINT('Ctrl Pts',(-40.2521020464446,-6.14070770239685,-8.88178419700125E-16));
#540=CARTESIAN_POINT('Ctrl Pts',(-40.6597245837733,-6.12934588815033,-7.60519910333303E-18));
#541=CARTESIAN_POINT('Ctrl Pts',(-41.0665036789593,-6.10574998797239,0.));
#542=CARTESIAN_POINT('Ctrl Pts',(-41.4400000451531,-6.08408470802602,6.98294052691381E-18));
#543=CARTESIAN_POINT('Ctrl Pts',(-41.8127860855245,-6.05210701418335,-8.88178419700125E-16));
#544=CARTESIAN_POINT('Ctrl Pts',(-42.1848628195095,-6.00985003311816,-8.88178419700125E-16));
#545=CARTESIAN_POINT('Ctrl Pts',(-42.2132460621229,-6.00662653098504,-8.88178419700125E-16));
#546=CARTESIAN_POINT('Ctrl Pts',(-42.2416251769061,-6.00334318627654,-8.88178419700125E-16));
#547=CARTESIAN_POINT('Ctrl Pts',(-42.2700001639128,-6.,-8.88178419700125E-16));
#548=CARTESIAN_POINT('',(-13.9900001639128,5.,4.5));
#549=CARTESIAN_POINT('Ctrl Pts',(-42.2700001639128,-6.,4.5));
#550=CARTESIAN_POINT('Ctrl Pts',(-41.8597227144478,-6.04833954420138,4.5));
#551=CARTESIAN_POINT('Ctrl Pts',(-41.0377295131024,-6.12416714584068,4.5));
#552=CARTESIAN_POINT('Ctrl Pts',(-39.8004250019954,-6.17535510714735,4.5));
#553=CARTESIAN_POINT('Ctrl Pts',(-38.1419917185779,-6.11758045371326,4.5));
#554=CARTESIAN_POINT('Ctrl Pts',(-36.055075917846,-5.83196564658316,4.5));
#555=CARTESIAN_POINT('Ctrl Pts',(-33.9567863800222,-5.33240180888525,4.5));
#556=CARTESIAN_POINT('Ctrl Pts',(-31.8527719094842,-4.62589059629404,4.5));
#557=CARTESIAN_POINT('Ctrl Pts',(-29.753007877711,-3.73175980269685,4.5));
#558=CARTESIAN_POINT('Ctrl Pts',(-27.6735417088822,-2.6889206316389,4.5));
#559=CARTESIAN_POINT('Ctrl Pts',(-25.6345857896468,-1.549892183379,4.5));
#560=CARTESIAN_POINT('Ctrl Pts',(-23.6580558866394,-0.373147743680687,4.5));
#561=CARTESIAN_POINT('Ctrl Pts',(-21.7651239459017,0.78362627851462,4.5));
#562=CARTESIAN_POINT('Ctrl Pts',(-19.9738569543134,1.86982397049454,4.5));
#563=CARTESIAN_POINT('Ctrl Pts',(-18.2957740835254,2.8500255863786,4.5));
#564=CARTESIAN_POINT('Ctrl Pts',(-16.7347164061691,3.70701072554969,4.5));
#565=CARTESIAN_POINT('Ctrl Pts',(-15.5794072111411,4.28890208268775,4.5));
#566=CARTESIAN_POINT('Ctrl Pts',(-14.7647089505787,4.666979944933,4.5));
#567=CARTESIAN_POINT('Ctrl Pts',(-14.2444279834378,4.89328435170485,4.5));
#568=CARTESIAN_POINT('Ctrl Pts',(-13.9900001639128,5.,4.5));
#569=CARTESIAN_POINT('',(-13.9900001639128,5.,4.5));
#570=CARTESIAN_POINT('Origin',(-11.,0.,0.));
#571=CARTESIAN_POINT('',(-12.75,-2.14313189850787E-16,4.5));
#572=CARTESIAN_POINT('Origin',(-11.,0.,4.5));
#573=CARTESIAN_POINT('',(-12.75,-2.14313189850787E-16,0.));
#574=CARTESIAN_POINT('',(-12.75,-2.14313189850787E-16,0.));
#575=CARTESIAN_POINT('Origin',(-11.,0.,0.));
#576=CARTESIAN_POINT('Origin',(11.,0.,0.));
#577=CARTESIAN_POINT('',(9.25,-2.14313189850787E-16,4.5));
#578=CARTESIAN_POINT('Origin',(11.,0.,4.5));
#579=CARTESIAN_POINT('',(9.25,-2.14313189850787E-16,0.));
#580=CARTESIAN_POINT('',(9.25,-2.14313189850787E-16,0.));
#581=CARTESIAN_POINT('Origin',(11.,0.,0.));
#582=CARTESIAN_POINT('Origin',(11.0000001639128,5.00000007450581,0.));
#583=CARTESIAN_POINT('',(11.0000001639128,5.00000007450581,0.));
#584=CARTESIAN_POINT('',(-11.0000001639128,5.00000007450581,0.));
#585=CARTESIAN_POINT('',(11.0000001639128,5.00000007450581,4.5));
#586=CARTESIAN_POINT('',(-11.0000001639128,5.00000007450581,4.5));
#587=CARTESIAN_POINT('',(11.0000001639128,5.00000007450581,0.));
#588=CARTESIAN_POINT('Origin',(11.,0.,0.));
#589=CARTESIAN_POINT('',(11.0000001639128,-5.00000007450581,0.));
#590=CARTESIAN_POINT('Origin',(11.,0.,0.));
#591=CARTESIAN_POINT('',(11.0000001639128,-5.00000007450581,4.5));
#592=CARTESIAN_POINT('Origin',(11.,0.,4.5));
#593=CARTESIAN_POINT('',(11.0000001639128,-5.00000007450581,0.));
#594=CARTESIAN_POINT('Origin',(-11.0000001639128,-5.00000007450581,0.));
#595=CARTESIAN_POINT('',(11.0000001639128,-5.00000007450581,0.));
#596=CARTESIAN_POINT('',(11.0000001639128,-5.00000007450581,4.5));
#597=CARTESIAN_POINT('Origin',(0.,0.,4.5));
#598=CARTESIAN_POINT('Origin',(0.,0.,0.));
#599=UNCERTAINTY_MEASURE_WITH_UNIT(LENGTH_MEASURE(0.01),#603,
'DISTANCE_ACCURACY_VALUE',
'Maximum model space distance between geometric entities at asserted c
onnectivities');
#600=UNCERTAINTY_MEASURE_WITH_UNIT(LENGTH_MEASURE(0.01),#603,
'DISTANCE_ACCURACY_VALUE',
'Maximum model space distance between geometric entities at asserted c
onnectivities');
#601=(
GEOMETRIC_REPRESENTATION_CONTEXT(3)
GLOBAL_UNCERTAINTY_ASSIGNED_CONTEXT((#599))
GLOBAL_UNIT_ASSIGNED_CONTEXT((#603,#605,#606))
REPRESENTATION_CONTEXT('','3D')
);
#602=(
GEOMETRIC_REPRESENTATION_CONTEXT(3)
GLOBAL_UNCERTAINTY_ASSIGNED_CONTEXT((#600))
GLOBAL_UNIT_ASSIGNED_CONTEXT((#603,#605,#606))
REPRESENTATION_CONTEXT('','3D')
);
#603=(
LENGTH_UNIT()
NAMED_UNIT(*)
SI_UNIT(.MILLI.,.METRE.)
);
#604=(
LENGTH_UNIT()
NAMED_UNIT(*)
SI_UNIT($,.METRE.)
);
#605=(
NAMED_UNIT(*)
PLANE_ANGLE_UNIT()
SI_UNIT($,.RADIAN.)
);
#606=(
NAMED_UNIT(*)
SI_UNIT($,.STERADIAN.)
SOLID_ANGLE_UNIT()
);
#607=SHAPE_DEFINITION_REPRESENTATION(#608,#609);
#608=PRODUCT_DEFINITION_SHAPE('',$,#611);
#609=SHAPE_REPRESENTATION('',(#223),#601);
#610=PRODUCT_DEFINITION_CONTEXT('part definition',#615,'design');
#611=PRODUCT_DEFINITION('2026-08-19-22-23-44-975','Gripper Holder 1.0',
#612,#610);
#612=PRODUCT_DEFINITION_FORMATION('',$,#617);
#613=PRODUCT_RELATED_PRODUCT_CATEGORY('Gripper Holder 1.0',
'Gripper Holder 1.0',(#617));
#614=APPLICATION_PROTOCOL_DEFINITION('international standard',
'automotive_design',2009,#615);
#615=APPLICATION_CONTEXT(
'Core Data for Automotive Mechanical Design Process');
#616=PRODUCT_CONTEXT('part definition',#615,'mechanical');
#617=PRODUCT('2026-08-19-22-23-44-975','Gripper Holder 1.0',$,(#616));
#618=PRESENTATION_STYLE_ASSIGNMENT((#619));
#619=SURFACE_STYLE_USAGE(.BOTH.,#620);
#620=SURFACE_SIDE_STYLE('',(#621));
#621=SURFACE_STYLE_FILL_AREA(#622);
#622=FILL_AREA_STYLE('Steel - Satin',(#623));
#623=FILL_AREA_STYLE_COLOUR('Steel - Satin',#624);
#624=COLOUR_RGB('Steel - Satin',0.627450980392157,0.627450980392157,0.627450980392157);
ENDSEC;
END-ISO-10303-21;
