ISO-10303-21;
HEADER;
/* Generated by software containing ST-Developer
 * from STEP Tools, Inc. (www.steptools.com) 
 */

FILE_DESCRIPTION(
/* description */ (''),
/* implementation_level */ '2;1');

FILE_NAME(
/* name */ 'Gripper Holder 3.0.step',
/* time_stamp */ '2026-08-23T20:24:42+05:30',
/* author */ (''),
/* organization */ (''),
/* preprocessor_version */ 'ST-DEVELOPER v20.1',
/* originating_system */ 'Autodesk Translation Framework v15.8.0.0',
/* authorisation */ '');

FILE_SCHEMA (('AUTOMOTIVE_DESIGN { 1 0 10303 214 3 1 1 }'));
ENDSEC;

DATA;
#10=MECHANICAL_DESIGN_GEOMETRIC_PRESENTATION_REPRESENTATION('',(#13),#632);
#11=SHAPE_REPRESENTATION_RELATIONSHIP('SRR','None',#639,#12);
#12=ADVANCED_BREP_SHAPE_REPRESENTATION('',(#14),#631);
#13=STYLED_ITEM('',(#648),#14);
#14=MANIFOLD_SOLID_BREP('Body1',#231);
#15=FACE_BOUND('',#58,.T.);
#16=FACE_BOUND('',#59,.T.);
#17=FACE_BOUND('',#61,.T.);
#18=FACE_BOUND('',#62,.T.);
#19=CIRCLE('',#249,1.75);
#20=CIRCLE('',#250,1.75);
#21=CIRCLE('',#252,1.75);
#22=CIRCLE('',#253,1.75);
#23=CIRCLE('',#256,5.);
#24=CIRCLE('',#257,5.);
#25=CYLINDRICAL_SURFACE('',#248,1.75);
#26=CYLINDRICAL_SURFACE('',#251,1.75);
#27=CYLINDRICAL_SURFACE('',#255,5.);
#28=PLANE('',#245);
#29=PLANE('',#246);
#30=PLANE('',#247);
#31=PLANE('',#254);
#32=PLANE('',#258);
#33=PLANE('',#259);
#34=PLANE('',#260);
#35=FACE_OUTER_BOUND('',#47,.T.);
#36=FACE_OUTER_BOUND('',#48,.T.);
#37=FACE_OUTER_BOUND('',#49,.T.);
#38=FACE_OUTER_BOUND('',#50,.T.);
#39=FACE_OUTER_BOUND('',#51,.T.);
#40=FACE_OUTER_BOUND('',#52,.T.);
#41=FACE_OUTER_BOUND('',#53,.T.);
#42=FACE_OUTER_BOUND('',#54,.T.);
#43=FACE_OUTER_BOUND('',#55,.T.);
#44=FACE_OUTER_BOUND('',#56,.T.);
#45=FACE_OUTER_BOUND('',#57,.T.);
#46=FACE_OUTER_BOUND('',#60,.T.);
#47=EDGE_LOOP('',(#157,#158,#159,#160));
#48=EDGE_LOOP('',(#161,#162,#163,#164));
#49=EDGE_LOOP('',(#165,#166,#167,#168));
#50=EDGE_LOOP('',(#169,#170,#171,#172));
#51=EDGE_LOOP('',(#173,#174,#175,#176));
#52=EDGE_LOOP('',(#177,#178,#179,#180));
#53=EDGE_LOOP('',(#181,#182,#183,#184));
#54=EDGE_LOOP('',(#185,#186,#187,#188));
#55=EDGE_LOOP('',(#189,#190,#191,#192));
#56=EDGE_LOOP('',(#193,#194,#195,#196));
#57=EDGE_LOOP('',(#197,#198,#199,#200,#201,#202,#203,#204));
#58=EDGE_LOOP('',(#205));
#59=EDGE_LOOP('',(#206));
#60=EDGE_LOOP('',(#207,#208,#209,#210,#211,#212,#213,#214));
#61=EDGE_LOOP('',(#215));
#62=EDGE_LOOP('',(#216));
#63=(
BOUNDED_CURVE()
B_SPLINE_CURVE(5,(#415,#416,#417,#418,#419,#420,#421,#422,#423,#424,#425,
#426,#427,#428,#429),.UNSPECIFIED.,.F.,.F.)
B_SPLINE_CURVE_WITH_KNOTS((6,1,1,1,1,1,1,1,1,1,6),(0.,0.1,0.2,0.3,0.4,0.5,
0.6,0.7,0.8,0.9,1.),.UNSPECIFIED.)
CURVE()
GEOMETRIC_REPRESENTATION_ITEM()
RATIONAL_B_SPLINE_CURVE((1.,1.,1.,1.,1.,1.,1.,1.,1.,1.,1.,1.,1.,1.,1.))
REPRESENTATION_ITEM('')
);
#64=(
BOUNDED_CURVE()
B_SPLINE_CURVE(5,(#571,#572,#573,#574,#575,#576,#577,#578,#579,#580,#581,
#582,#583,#584,#585,#586,#587,#588,#589,#590),.UNSPECIFIED.,.F.,.F.)
B_SPLINE_CURVE_WITH_KNOTS((6,1,1,1,1,1,1,1,1,1,1,1,1,1,1,6),(0.,0.0666666666666667,
0.133333333333333,0.2,0.266666666666667,0.333333333333333,0.4,0.466666666666667,
0.533333333333333,0.6,0.666666666666667,0.733333333333333,0.8,0.866666666666667,
0.933333333333333,1.),.UNSPECIFIED.)
CURVE()
GEOMETRIC_REPRESENTATION_ITEM()
RATIONAL_B_SPLINE_CURVE((1.,1.,1.,1.,1.,1.,1.,1.,1.,1.,1.,1.,1.,1.,1.,1.,
1.,1.,1.,1.))
REPRESENTATION_ITEM('')
);
#65=LINE('',#413,#85);
#66=LINE('',#430,#86);
#67=LINE('',#434,#87);
#68=LINE('',#436,#88);
#69=LINE('',#438,#89);
#70=LINE('',#439,#90);
#71=LINE('',#570,#91);
#72=LINE('',#593,#92);
#73=LINE('',#595,#93);
#74=LINE('',#596,#94);
#75=LINE('',#598,#95);
#76=LINE('',#599,#96);
#77=LINE('',#604,#97);
#78=LINE('',#610,#98);
#79=LINE('',#614,#99);
#80=LINE('',#616,#100);
#81=LINE('',#617,#101);
#82=LINE('',#623,#102);
#83=LINE('',#625,#103);
#84=LINE('',#626,#104);
#85=VECTOR('',#263,10.);
#86=VECTOR('',#264,10.);
#87=VECTOR('',#267,10.);
#88=VECTOR('',#268,10.);
#89=VECTOR('',#269,10.);
#90=VECTOR('',#270,10.);
#91=VECTOR('',#271,10.);
#92=VECTOR('',#274,10.);
#93=VECTOR('',#275,10.);
#94=VECTOR('',#276,10.);
#95=VECTOR('',#279,10.);
#96=VECTOR('',#280,10.);
#97=VECTOR('',#285,1.75);
#98=VECTOR('',#292,1.75);
#99=VECTOR('',#297,10.);
#100=VECTOR('',#298,10.);
#101=VECTOR('',#299,10.);
#102=VECTOR('',#306,10.);
#103=VECTOR('',#309,10.);
#104=VECTOR('',#310,10.);
#105=B_SPLINE_CURVE_WITH_KNOTS('',3,(#348,#349,#350,#351,#352,#353,#354,
#355,#356,#357,#358,#359,#360,#361,#362,#363,#364,#365,#366,#367,#368,#369,
#370,#371,#372,#373,#374,#375,#376,#377,#378,#379,#380,#381,#382,#383,#384,
#385,#386,#387,#388,#389,#390,#391,#392,#393,#394,#395,#396,#397,#398,#399,
#400,#401,#402,#403,#404,#405,#406,#407,#408,#409,#410,#411),
 .UNSPECIFIED.,.F.,.F.,(4,3,3,3,3,3,3,3,3,3,3,3,3,3,3,3,3,3,3,3,3,4),(0.,
0.179346787917855,0.36175429515684,0.550784862247002,0.754328194374412,
0.993362319962218,1.27934533082647,1.4632707681554,1.62895736024025,1.78725848509738,
1.94071182513375,2.09692690077032,2.26776489506864,2.46855643559289,2.74700673041946,
2.99908786577461,3.2063733997627,3.40616810431067,3.59189123184246,3.77503347311271,
3.95623859559284,4.0055522179546),.UNSPECIFIED.);
#106=B_SPLINE_CURVE_WITH_KNOTS('',3,(#481,#482,#483,#484,#485,#486,#487,
#488,#489,#490,#491,#492,#493,#494,#495,#496,#497,#498,#499,#500,#501,#502,
#503,#504,#505,#506,#507,#508,#509,#510,#511,#512,#513,#514,#515,#516,#517,
#518,#519,#520,#521,#522,#523,#524,#525,#526,#527,#528,#529,#530,#531,#532,
#533,#534,#535,#536,#537,#538,#539,#540,#541,#542,#543,#544,#545,#546,#547,
#548,#549,#550,#551,#552,#553,#554,#555,#556,#557,#558,#559,#560,#561,#562,
#563,#564,#565,#566,#567,#568),.UNSPECIFIED.,.F.,.F.,(4,3,3,3,3,3,3,3,3,
3,3,3,3,3,3,3,3,3,3,3,3,3,3,3,3,3,3,3,3,4),(0.,0.114320977698299,0.220270314211149,
0.315400813199034,0.403517873686939,0.486743109776907,0.565654925271692,
0.641038677931354,0.714236612044241,0.785998810982096,0.857974719309997,
0.934197373808248,1.01708185272742,1.11072859520226,1.25220836746012,1.34432973023419,
1.42538864473128,1.50036038734885,1.57100819608728,1.63884771989874,1.7075215832831,
1.77901834290341,1.85402525912767,1.93612626929927,2.02482143083261,2.12351536543997,
2.24557694391268,2.35394493927171,2.44867770653357,2.46231293463073),
 .UNSPECIFIED.);
#107=VERTEX_POINT('',#346);
#108=VERTEX_POINT('',#347);
#109=VERTEX_POINT('',#412);
#110=VERTEX_POINT('',#414);
#111=VERTEX_POINT('',#432);
#112=VERTEX_POINT('',#433);
#113=VERTEX_POINT('',#435);
#114=VERTEX_POINT('',#437);
#115=VERTEX_POINT('',#480);
#116=VERTEX_POINT('',#569);
#117=VERTEX_POINT('',#592);
#118=VERTEX_POINT('',#594);
#119=VERTEX_POINT('',#601);
#120=VERTEX_POINT('',#603);
#121=VERTEX_POINT('',#607);
#122=VERTEX_POINT('',#609);
#123=VERTEX_POINT('',#613);
#124=VERTEX_POINT('',#615);
#125=VERTEX_POINT('',#619);
#126=VERTEX_POINT('',#621);
#127=EDGE_CURVE('',#107,#108,#105,.T.);
#128=EDGE_CURVE('',#108,#109,#65,.T.);
#129=EDGE_CURVE('',#110,#109,#63,.T.);
#130=EDGE_CURVE('',#110,#107,#66,.T.);
#131=EDGE_CURVE('',#111,#112,#67,.T.);
#132=EDGE_CURVE('',#113,#112,#68,.T.);
#133=EDGE_CURVE('',#113,#114,#69,.T.);
#134=EDGE_CURVE('',#111,#114,#70,.T.);
#135=EDGE_CURVE('',#112,#115,#106,.T.);
#136=EDGE_CURVE('',#116,#115,#71,.T.);
#137=EDGE_CURVE('',#113,#116,#64,.T.);
#138=EDGE_CURVE('',#115,#117,#72,.T.);
#139=EDGE_CURVE('',#118,#117,#73,.T.);
#140=EDGE_CURVE('',#118,#116,#74,.T.);
#141=EDGE_CURVE('',#117,#107,#75,.T.);
#142=EDGE_CURVE('',#118,#110,#76,.T.);
#143=EDGE_CURVE('',#119,#119,#19,.T.);
#144=EDGE_CURVE('',#119,#120,#77,.T.);
#145=EDGE_CURVE('',#120,#120,#20,.T.);
#146=EDGE_CURVE('',#121,#121,#21,.T.);
#147=EDGE_CURVE('',#121,#122,#78,.T.);
#148=EDGE_CURVE('',#122,#122,#22,.T.);
#149=EDGE_CURVE('',#111,#123,#79,.T.);
#150=EDGE_CURVE('',#124,#114,#80,.T.);
#151=EDGE_CURVE('',#123,#124,#81,.T.);
#152=EDGE_CURVE('',#125,#123,#23,.T.);
#153=EDGE_CURVE('',#126,#124,#24,.T.);
#154=EDGE_CURVE('',#125,#126,#82,.T.);
#155=EDGE_CURVE('',#125,#108,#83,.T.);
#156=EDGE_CURVE('',#109,#126,#84,.T.);
#157=ORIENTED_EDGE('',*,*,#127,.T.);
#158=ORIENTED_EDGE('',*,*,#128,.T.);
#159=ORIENTED_EDGE('',*,*,#129,.F.);
#160=ORIENTED_EDGE('',*,*,#130,.T.);
#161=ORIENTED_EDGE('',*,*,#131,.T.);
#162=ORIENTED_EDGE('',*,*,#132,.F.);
#163=ORIENTED_EDGE('',*,*,#133,.T.);
#164=ORIENTED_EDGE('',*,*,#134,.F.);
#165=ORIENTED_EDGE('',*,*,#135,.T.);
#166=ORIENTED_EDGE('',*,*,#136,.F.);
#167=ORIENTED_EDGE('',*,*,#137,.F.);
#168=ORIENTED_EDGE('',*,*,#132,.T.);
#169=ORIENTED_EDGE('',*,*,#138,.T.);
#170=ORIENTED_EDGE('',*,*,#139,.F.);
#171=ORIENTED_EDGE('',*,*,#140,.T.);
#172=ORIENTED_EDGE('',*,*,#136,.T.);
#173=ORIENTED_EDGE('',*,*,#141,.T.);
#174=ORIENTED_EDGE('',*,*,#130,.F.);
#175=ORIENTED_EDGE('',*,*,#142,.F.);
#176=ORIENTED_EDGE('',*,*,#139,.T.);
#177=ORIENTED_EDGE('',*,*,#143,.F.);
#178=ORIENTED_EDGE('',*,*,#144,.T.);
#179=ORIENTED_EDGE('',*,*,#145,.T.);
#180=ORIENTED_EDGE('',*,*,#144,.F.);
#181=ORIENTED_EDGE('',*,*,#146,.F.);
#182=ORIENTED_EDGE('',*,*,#147,.T.);
#183=ORIENTED_EDGE('',*,*,#148,.T.);
#184=ORIENTED_EDGE('',*,*,#147,.F.);
#185=ORIENTED_EDGE('',*,*,#149,.F.);
#186=ORIENTED_EDGE('',*,*,#134,.T.);
#187=ORIENTED_EDGE('',*,*,#150,.F.);
#188=ORIENTED_EDGE('',*,*,#151,.F.);
#189=ORIENTED_EDGE('',*,*,#152,.T.);
#190=ORIENTED_EDGE('',*,*,#151,.T.);
#191=ORIENTED_EDGE('',*,*,#153,.F.);
#192=ORIENTED_EDGE('',*,*,#154,.F.);
#193=ORIENTED_EDGE('',*,*,#155,.F.);
#194=ORIENTED_EDGE('',*,*,#154,.T.);
#195=ORIENTED_EDGE('',*,*,#156,.F.);
#196=ORIENTED_EDGE('',*,*,#128,.F.);
#197=ORIENTED_EDGE('',*,*,#156,.T.);
#198=ORIENTED_EDGE('',*,*,#153,.T.);
#199=ORIENTED_EDGE('',*,*,#150,.T.);
#200=ORIENTED_EDGE('',*,*,#133,.F.);
#201=ORIENTED_EDGE('',*,*,#137,.T.);
#202=ORIENTED_EDGE('',*,*,#140,.F.);
#203=ORIENTED_EDGE('',*,*,#142,.T.);
#204=ORIENTED_EDGE('',*,*,#129,.T.);
#205=ORIENTED_EDGE('',*,*,#146,.T.);
#206=ORIENTED_EDGE('',*,*,#143,.T.);
#207=ORIENTED_EDGE('',*,*,#149,.T.);
#208=ORIENTED_EDGE('',*,*,#152,.F.);
#209=ORIENTED_EDGE('',*,*,#155,.T.);
#210=ORIENTED_EDGE('',*,*,#127,.F.);
#211=ORIENTED_EDGE('',*,*,#141,.F.);
#212=ORIENTED_EDGE('',*,*,#138,.F.);
#213=ORIENTED_EDGE('',*,*,#135,.F.);
#214=ORIENTED_EDGE('',*,*,#131,.F.);
#215=ORIENTED_EDGE('',*,*,#148,.F.);
#216=ORIENTED_EDGE('',*,*,#145,.F.);
#217=(
BOUNDED_SURFACE()
B_SPLINE_SURFACE(5,1,((#316,#317),(#318,#319),(#320,#321),(#322,#323),(#324,
#325),(#326,#327),(#328,#329),(#330,#331),(#332,#333),(#334,#335),(#336,
#337),(#338,#339),(#340,#341),(#342,#343),(#344,#345)),.UNSPECIFIED.,.F.,
 .F.,.F.)
B_SPLINE_SURFACE_WITH_KNOTS((6,1,1,1,1,1,1,1,1,1,6),(2,2),(-1.,-0.9,-0.8,
-0.7,-0.6,-0.5,-0.4,-0.3,-0.2,-0.1,0.),(0.,0.495),.UNSPECIFIED.)
GEOMETRIC_REPRESENTATION_ITEM()
RATIONAL_B_SPLINE_SURFACE(((1.,1.),(1.,1.),(1.,1.),(1.,1.),(1.,1.),(1.,
1.),(1.,1.),(1.,1.),(1.,1.),(1.,1.),(1.,1.),(1.,1.),(1.,1.),(1.,1.),(1.,
1.)))
REPRESENTATION_ITEM('')
SURFACE()
);
#218=(
BOUNDED_SURFACE()
B_SPLINE_SURFACE(5,1,((#440,#441),(#442,#443),(#444,#445),(#446,#447),(#448,
#449),(#450,#451),(#452,#453),(#454,#455),(#456,#457),(#458,#459),(#460,
#461),(#462,#463),(#464,#465),(#466,#467),(#468,#469),(#470,#471),(#472,
#473),(#474,#475),(#476,#477),(#478,#479)),.UNSPECIFIED.,.F.,.F.,.F.)
B_SPLINE_SURFACE_WITH_KNOTS((6,1,1,1,1,1,1,1,1,1,1,1,1,1,1,6),(2,2),(-1.,
-0.933333333333333,-0.866666666666667,-0.8,-0.733333333333333,-0.666666666666667,
-0.6,-0.533333333333333,-0.466666666666667,-0.4,-0.333333333333333,-0.266666666666667,
-0.2,-0.133333333333333,-0.0666666666666667,0.),(0.,0.495),
 .UNSPECIFIED.)
GEOMETRIC_REPRESENTATION_ITEM()
RATIONAL_B_SPLINE_SURFACE(((1.,1.),(1.,1.),(1.,1.),(1.,1.),(1.,1.),(1.,
1.),(1.,1.),(1.,1.),(1.,1.),(1.,1.),(1.,1.),(1.,1.),(1.,1.),(1.,1.),(1.,
1.),(1.,1.),(1.,1.),(1.,1.),(1.,1.),(1.,1.)))
REPRESENTATION_ITEM('')
SURFACE()
);
#219=ADVANCED_FACE('',(#35),#217,.T.);
#220=ADVANCED_FACE('',(#36),#28,.T.);
#221=ADVANCED_FACE('',(#37),#218,.T.);
#222=ADVANCED_FACE('',(#38),#29,.T.);
#223=ADVANCED_FACE('',(#39),#30,.T.);
#224=ADVANCED_FACE('',(#40),#25,.F.);
#225=ADVANCED_FACE('',(#41),#26,.F.);
#226=ADVANCED_FACE('',(#42),#31,.T.);
#227=ADVANCED_FACE('',(#43),#27,.T.);
#228=ADVANCED_FACE('',(#44),#32,.T.);
#229=ADVANCED_FACE('',(#45,#15,#16),#33,.T.);
#230=ADVANCED_FACE('',(#46,#17,#18),#34,.F.);
#231=CLOSED_SHELL('',(#219,#220,#221,#222,#223,#224,#225,#226,#227,#228,
#229,#230));
#232=DERIVED_UNIT_ELEMENT(#234,1.);
#233=DERIVED_UNIT_ELEMENT(#634,-3.);
#234=(
MASS_UNIT()
NAMED_UNIT(*)
SI_UNIT(.KILO.,.GRAM.)
);
#235=DERIVED_UNIT((#232,#233));
#236=MEASURE_REPRESENTATION_ITEM('density measure',
POSITIVE_RATIO_MEASURE(7850.),#235);
#237=PROPERTY_DEFINITION_REPRESENTATION(#242,#239);
#238=PROPERTY_DEFINITION_REPRESENTATION(#243,#240);
#239=REPRESENTATION('material name',(#241),#631);
#240=REPRESENTATION('density',(#236),#631);
#241=DESCRIPTIVE_REPRESENTATION_ITEM('Steel','Steel');
#242=PROPERTY_DEFINITION('material property','material name',#641);
#243=PROPERTY_DEFINITION('material property','density of part',#641);
#244=AXIS2_PLACEMENT_3D('',#315,#261,#262);
#245=AXIS2_PLACEMENT_3D('',#431,#265,#266);
#246=AXIS2_PLACEMENT_3D('',#591,#272,#273);
#247=AXIS2_PLACEMENT_3D('',#597,#277,#278);
#248=AXIS2_PLACEMENT_3D('',#600,#281,#282);
#249=AXIS2_PLACEMENT_3D('',#602,#283,#284);
#250=AXIS2_PLACEMENT_3D('',#605,#286,#287);
#251=AXIS2_PLACEMENT_3D('',#606,#288,#289);
#252=AXIS2_PLACEMENT_3D('',#608,#290,#291);
#253=AXIS2_PLACEMENT_3D('',#611,#293,#294);
#254=AXIS2_PLACEMENT_3D('',#612,#295,#296);
#255=AXIS2_PLACEMENT_3D('',#618,#300,#301);
#256=AXIS2_PLACEMENT_3D('',#620,#302,#303);
#257=AXIS2_PLACEMENT_3D('',#622,#304,#305);
#258=AXIS2_PLACEMENT_3D('',#624,#307,#308);
#259=AXIS2_PLACEMENT_3D('',#627,#311,#312);
#260=AXIS2_PLACEMENT_3D('',#628,#313,#314);
#261=DIRECTION('axis',(0.,0.,1.));
#262=DIRECTION('refdir',(1.,0.,0.));
#263=DIRECTION('',(0.,0.,1.));
#264=DIRECTION('',(0.,0.,-1.));
#265=DIRECTION('center_axis',(-3.27825540775171E-8,0.999999999999999,0.));
#266=DIRECTION('ref_axis',(0.999999999999999,3.27825540775171E-8,0.));
#267=DIRECTION('',(-0.999999999999999,-3.27825540775171E-8,0.));
#268=DIRECTION('',(0.,0.,-1.));
#269=DIRECTION('',(0.999999999999999,3.27825540775171E-8,0.));
#270=DIRECTION('',(0.,0.,1.));
#271=DIRECTION('',(0.,0.,-1.));
#272=DIRECTION('center_axis',(-0.320303313863006,0.947315041117989,0.));
#273=DIRECTION('ref_axis',(0.947315041117989,0.320303313863006,0.));
#274=DIRECTION('',(-0.947315041117989,-0.320303313863006,0.));
#275=DIRECTION('',(0.,0.,-1.));
#276=DIRECTION('',(0.947315041117989,0.320303313863006,0.));
#277=DIRECTION('center_axis',(-0.7905725384305,-0.612368403397461,0.));
#278=DIRECTION('ref_axis',(-0.612368403397461,0.7905725384305,0.));
#279=DIRECTION('',(0.612368403397461,-0.7905725384305,0.));
#280=DIRECTION('',(0.612368403397461,-0.7905725384305,0.));
#281=DIRECTION('center_axis',(0.,0.,1.));
#282=DIRECTION('ref_axis',(1.,0.,0.));
#283=DIRECTION('center_axis',(0.,0.,-1.));
#284=DIRECTION('ref_axis',(1.,0.,0.));
#285=DIRECTION('',(0.,0.,-1.));
#286=DIRECTION('center_axis',(0.,0.,-1.));
#287=DIRECTION('ref_axis',(1.,0.,0.));
#288=DIRECTION('center_axis',(0.,0.,1.));
#289=DIRECTION('ref_axis',(1.,0.,0.));
#290=DIRECTION('center_axis',(0.,0.,-1.));
#291=DIRECTION('ref_axis',(1.,0.,0.));
#292=DIRECTION('',(0.,0.,-1.));
#293=DIRECTION('center_axis',(0.,0.,-1.));
#294=DIRECTION('ref_axis',(1.,0.,0.));
#295=DIRECTION('center_axis',(0.,1.,0.));
#296=DIRECTION('ref_axis',(-1.,0.,0.));
#297=DIRECTION('',(1.,0.,0.));
#298=DIRECTION('',(-1.,0.,0.));
#299=DIRECTION('',(0.,0.,1.));
#300=DIRECTION('center_axis',(0.,0.,1.));
#301=DIRECTION('ref_axis',(1.,0.,0.));
#302=DIRECTION('center_axis',(0.,0.,1.));
#303=DIRECTION('ref_axis',(1.,0.,0.));
#304=DIRECTION('center_axis',(0.,0.,1.));
#305=DIRECTION('ref_axis',(1.,0.,0.));
#306=DIRECTION('',(0.,0.,1.));
#307=DIRECTION('center_axis',(0.,-1.,0.));
#308=DIRECTION('ref_axis',(1.,0.,0.));
#309=DIRECTION('',(-1.,0.,0.));
#310=DIRECTION('',(1.,0.,0.));
#311=DIRECTION('center_axis',(0.,0.,1.));
#312=DIRECTION('ref_axis',(1.,0.,0.));
#313=DIRECTION('center_axis',(0.,0.,1.));
#314=DIRECTION('ref_axis',(1.,0.,0.));
#315=CARTESIAN_POINT('',(0.,0.,0.));
#316=CARTESIAN_POINT('Ctrl Pts',(-11.0000001639128,-5.,4.5));
#317=CARTESIAN_POINT('Ctrl Pts',(-11.0000001639128,-5.,-0.450000000000003));
#318=CARTESIAN_POINT('Ctrl Pts',(-11.7237111292159,-5.18610163189579,4.5));
#319=CARTESIAN_POINT('Ctrl Pts',(-11.7237111292159,-5.18610163189579,-0.450000000000003));
#320=CARTESIAN_POINT('Ctrl Pts',(-13.1646684008568,-5.54461477475234,4.5));
#321=CARTESIAN_POINT('Ctrl Pts',(-13.1646684008568,-5.54461477475234,-0.450000000000003));
#322=CARTESIAN_POINT('Ctrl Pts',(-15.3067115449973,-6.04131669620324,4.5));
#323=CARTESIAN_POINT('Ctrl Pts',(-15.3067115449973,-6.04131669620324,-0.450000000000003));
#324=CARTESIAN_POINT('Ctrl Pts',(-18.1233349563675,-6.62007683413422,4.5));
#325=CARTESIAN_POINT('Ctrl Pts',(-18.1233349563675,-6.62007683413422,-0.450000000000003));
#326=CARTESIAN_POINT('Ctrl Pts',(-21.5737746697608,-7.19456989026048,4.5));
#327=CARTESIAN_POINT('Ctrl Pts',(-21.5737746697608,-7.19456989026048,-0.450000000000003));
#328=CARTESIAN_POINT('Ctrl Pts',(-24.9470273328936,-7.60560497305977,4.5));
#329=CARTESIAN_POINT('Ctrl Pts',(-24.9470273328936,-7.60560497305977,-0.450000000000003));
#330=CARTESIAN_POINT('Ctrl Pts',(-28.2358542104752,-7.83785271061962,4.5));
#331=CARTESIAN_POINT('Ctrl Pts',(-28.2358542104752,-7.83785271061962,-0.450000000000003));
#332=CARTESIAN_POINT('Ctrl Pts',(-31.4347630379063,-7.87968220841128,4.5));
#333=CARTESIAN_POINT('Ctrl Pts',(-31.4347630379063,-7.87968220841128,-0.450000000000003));
#334=CARTESIAN_POINT('Ctrl Pts',(-34.544909461335,-7.73354076266597,4.5));
#335=CARTESIAN_POINT('Ctrl Pts',(-34.544909461335,-7.73354076266597,-0.450000000000003));
#336=CARTESIAN_POINT('Ctrl Pts',(-37.572011192604,-7.41153669448951,4.5));
#337=CARTESIAN_POINT('Ctrl Pts',(-37.572011192604,-7.41153669448951,-0.450000000000003));
#338=CARTESIAN_POINT('Ctrl Pts',(-39.9322074847803,-7.02372728967027,4.5));
#339=CARTESIAN_POINT('Ctrl Pts',(-39.9322074847803,-7.02372728967027,-0.450000000000003));
#340=CARTESIAN_POINT('Ctrl Pts',(-41.6698942829893,-6.66412924129223,4.5));
#341=CARTESIAN_POINT('Ctrl Pts',(-41.6698942829893,-6.66412924129223,-0.450000000000003));
#342=CARTESIAN_POINT('Ctrl Pts',(-42.814157752385,-6.39433792827146,4.5));
#343=CARTESIAN_POINT('Ctrl Pts',(-42.814157752385,-6.39433792827146,-0.450000000000003));
#344=CARTESIAN_POINT('Ctrl Pts',(-43.3827409494761,-6.25192758162117,4.5));
#345=CARTESIAN_POINT('Ctrl Pts',(-43.3827409494761,-6.25192758162117,-0.450000000000003));
#346=CARTESIAN_POINT('',(-43.3827409494761,-6.25192758162117,0.));
#347=CARTESIAN_POINT('',(-11.0000001639128,-5.00000007450581,0.));
#348=CARTESIAN_POINT('Ctrl Pts',(-43.3827409494761,-6.25192758162117,0.));
#349=CARTESIAN_POINT('Ctrl Pts',(-42.9584400270163,-6.35820022872133,0.));
#350=CARTESIAN_POINT('Ctrl Pts',(-42.5317696745487,-6.45945516591135,0.));
#351=CARTESIAN_POINT('Ctrl Pts',(-42.1027184086685,-6.55566807493957,0.));
#352=CARTESIAN_POINT('Ctrl Pts',(-41.6663449848924,-6.65352294651992,0.));
#353=CARTESIAN_POINT('Ctrl Pts',(-41.2275086476994,-6.74616213963758,0.));
#354=CARTESIAN_POINT('Ctrl Pts',(-40.786174187447,-6.83351109130855,0.));
#355=CARTESIAN_POINT('Ctrl Pts',(-40.3288152521667,-6.92403160835865,0.));
#356=CARTESIAN_POINT('Ctrl Pts',(-39.868773442301,-7.00887063815173,0.));
#357=CARTESIAN_POINT('Ctrl Pts',(-39.4059852745055,-7.08789374286745,0.));
#358=CARTESIAN_POINT('Ctrl Pts',(-38.9076666840666,-7.17298382272327,0.));
#359=CARTESIAN_POINT('Ctrl Pts',(-38.4061636410419,-7.25133023036858,0.));
#360=CARTESIAN_POINT('Ctrl Pts',(-37.9013712247399,-7.3227107766727,0.));
#361=CARTESIAN_POINT('Ctrl Pts',(-37.3085607770925,-7.40653757802969,0.));
#362=CARTESIAN_POINT('Ctrl Pts',(-36.7112135175972,-7.48075683424074,0.));
#363=CARTESIAN_POINT('Ctrl Pts',(-36.109128535607,-7.54494307954348,0.));
#364=CARTESIAN_POINT('Ctrl Pts',(-35.3887875570027,-7.62173619702246,0.));
#365=CARTESIAN_POINT('Ctrl Pts',(-34.6616624053291,-7.68416256286463,0.));
#366=CARTESIAN_POINT('Ctrl Pts',(-33.9273904723788,-7.73145428656915,0.));
#367=CARTESIAN_POINT('Ctrl Pts',(-33.4551551253275,-7.76186920855387,0.));
#368=CARTESIAN_POINT('Ctrl Pts',(-32.9799629778667,-7.78602255426577,0.));
#369=CARTESIAN_POINT('Ctrl Pts',(-32.5017274588764,-7.80373099321363,0.));
#370=CARTESIAN_POINT('Ctrl Pts',(-32.070915851161,-7.81968338643897,0.));
#371=CARTESIAN_POINT('Ctrl Pts',(-31.6376341778451,-7.83040495511941,0.));
#372=CARTESIAN_POINT('Ctrl Pts',(-31.2018350424578,-7.83579532838873,0.));
#373=CARTESIAN_POINT('Ctrl Pts',(-30.785461620351,-7.84094542617997,0.));
#374=CARTESIAN_POINT('Ctrl Pts',(-30.3667900021417,-7.84122866513984,0.));
#375=CARTESIAN_POINT('Ctrl Pts',(-29.9457980729245,-7.83659821283196,0.));
#376=CARTESIAN_POINT('Ctrl Pts',(-29.5376985238845,-7.83210956265234,0.));
#377=CARTESIAN_POINT('Ctrl Pts',(-29.1274185068627,-7.82300336489185,1.37514608801689E-17));
#378=CARTESIAN_POINT('Ctrl Pts',(-28.7149580002894,-7.80927957387231,0.));
#379=CARTESIAN_POINT('Ctrl Pts',(-28.2950743456477,-7.79530879258055,-1.39989491333316E-17));
#380=CARTESIAN_POINT('Ctrl Pts',(-27.8729308085195,-7.77655228868447,0.));
#381=CARTESIAN_POINT('Ctrl Pts',(-27.4485512895786,-7.75306067631761,0.));
#382=CARTESIAN_POINT('Ctrl Pts',(-26.9844466214362,-7.7273700704447,0.));
#383=CARTESIAN_POINT('Ctrl Pts',(-26.5176680135201,-7.6960168984452,0.));
#384=CARTESIAN_POINT('Ctrl Pts',(-26.0482753826033,-7.65912804525957,0.));
#385=CARTESIAN_POINT('Ctrl Pts',(-25.4965827110776,-7.61577135701386,0.));
#386=CARTESIAN_POINT('Ctrl Pts',(-24.9412795651785,-7.56476881597469,-8.73127559190061E-16));
#387=CARTESIAN_POINT('Ctrl Pts',(-24.3824953557989,-7.50639447384171,-8.88178419700125E-16));
#388=CARTESIAN_POINT('Ctrl Pts',(-23.607594045515,-7.4254430914538,-9.09050397351568E-16));
#389=CARTESIAN_POINT('Ctrl Pts',(-22.8259990234822,-7.33031652614577,-8.69422129741144E-16));
#390=CARTESIAN_POINT('Ctrl Pts',(-22.0380995626864,-7.22183913605936,-8.88178419700125E-16));
#391=CARTESIAN_POINT('Ctrl Pts',(-21.3248139447026,-7.12363452230458,-9.05158494621056E-16));
#392=CARTESIAN_POINT('Ctrl Pts',(-20.6063640383799,-7.01449356491812,0.));
#393=CARTESIAN_POINT('Ctrl Pts',(-19.8830377201365,-6.89502589590112,0.));
#394=CARTESIAN_POINT('Ctrl Pts',(-19.2882487371629,-6.79678800304329,0.));
#395=CARTESIAN_POINT('Ctrl Pts',(-18.6901629081492,-6.69156842387566,-1.1962277616737E-17));
#396=CARTESIAN_POINT('Ctrl Pts',(-18.0889240564689,-6.57967173121328,0.));
#397=CARTESIAN_POINT('Ctrl Pts',(-17.5094126143384,-6.47181873143926,1.15299880130285E-17));
#398=CARTESIAN_POINT('Ctrl Pts',(-16.9269722498802,-6.3577631924296,0.));
#399=CARTESIAN_POINT('Ctrl Pts',(-16.3417091718346,-6.23773003099878,0.));
#400=CARTESIAN_POINT('Ctrl Pts',(-15.7976662777577,-6.12615082674061,0.));
#401=CARTESIAN_POINT('Ctrl Pts',(-15.2511842165987,-6.00940623131262,-8.78610846561901E-16));
#402=CARTESIAN_POINT('Ctrl Pts',(-14.7023274511114,-5.88763275661744,-8.88178419700125E-16));
#403=CARTESIAN_POINT('Ctrl Pts',(-14.1610978288045,-5.76755149706013,-8.97613037840246E-16));
#404=CARTESIAN_POINT('Ctrl Pts',(-13.6175591204537,-5.64258031718986,-8.97690640749178E-18));
#405=CARTESIAN_POINT('Ctrl Pts',(-13.0717515580492,-5.51280441574859,0.));
#406=CARTESIAN_POINT('Ctrl Pts',(-12.5317170716843,-5.38440117053039,8.8819565261397E-18));
#407=CARTESIAN_POINT('Ctrl Pts',(-11.9894614927953,-5.2512943476872,0.));
#408=CARTESIAN_POINT('Ctrl Pts',(-11.44500196578,-5.11352025367838,0.));
#409=CARTESIAN_POINT('Ctrl Pts',(-11.2968313669635,-5.07602606173615,0.));
#410=CARTESIAN_POINT('Ctrl Pts',(-11.1484974134807,-5.03818593582461,0.));
#411=CARTESIAN_POINT('Ctrl Pts',(-11.0000001639128,-5.,0.));
#412=CARTESIAN_POINT('',(-11.0000001639128,-5.00000007450581,4.5));
#413=CARTESIAN_POINT('',(-11.0000001639128,-5.00000007450581,0.));
#414=CARTESIAN_POINT('',(-43.3827409494761,-6.25192758162117,4.5));
#415=CARTESIAN_POINT('Ctrl Pts',(-43.3827409494761,-6.25192758162117,4.5));
#416=CARTESIAN_POINT('Ctrl Pts',(-42.814157752385,-6.39433792827146,4.5));
#417=CARTESIAN_POINT('Ctrl Pts',(-41.6698942829893,-6.66412924129223,4.5));
#418=CARTESIAN_POINT('Ctrl Pts',(-39.9322074847803,-7.02372728967027,4.5));
#419=CARTESIAN_POINT('Ctrl Pts',(-37.572011192604,-7.41153669448951,4.5));
#420=CARTESIAN_POINT('Ctrl Pts',(-34.544909461335,-7.73354076266597,4.5));
#421=CARTESIAN_POINT('Ctrl Pts',(-31.4347630379063,-7.87968220841128,4.5));
#422=CARTESIAN_POINT('Ctrl Pts',(-28.2358542104752,-7.83785271061962,4.5));
#423=CARTESIAN_POINT('Ctrl Pts',(-24.9470273328936,-7.60560497305977,4.5));
#424=CARTESIAN_POINT('Ctrl Pts',(-21.5737746697608,-7.19456989026048,4.5));
#425=CARTESIAN_POINT('Ctrl Pts',(-18.1233349563675,-6.62007683413422,4.5));
#426=CARTESIAN_POINT('Ctrl Pts',(-15.3067115449973,-6.04131669620324,4.5));
#427=CARTESIAN_POINT('Ctrl Pts',(-13.1646684008568,-5.54461477475234,4.5));
#428=CARTESIAN_POINT('Ctrl Pts',(-11.7237111292159,-5.18610163189579,4.5));
#429=CARTESIAN_POINT('Ctrl Pts',(-11.0000001639128,-5.,4.5));
#430=CARTESIAN_POINT('',(-43.3827409494761,-6.25192758162117,4.5));
#431=CARTESIAN_POINT('Origin',(-13.9900001639128,4.99999990198016,4.5));
#432=CARTESIAN_POINT('',(-11.0000001639128,5.00000007450581,0.));
#433=CARTESIAN_POINT('',(-13.9900001639128,4.99999990198016,0.));
#434=CARTESIAN_POINT('',(-21.995000411031,4.99999963955581,0.));
#435=CARTESIAN_POINT('',(-13.9900001639128,4.99999990198016,4.5));
#436=CARTESIAN_POINT('',(-13.9900001639128,4.99999990198016,4.5));
#437=CARTESIAN_POINT('',(-11.0000001639128,5.00000007450581,4.5));
#438=CARTESIAN_POINT('',(-13.9900001639128,4.99999990198016,4.5));
#439=CARTESIAN_POINT('',(-11.0000001639128,5.00000007450581,0.));
#440=CARTESIAN_POINT('Ctrl Pts',(-42.4734910637756,3.20672384315767,4.5));
#441=CARTESIAN_POINT('Ctrl Pts',(-42.4734910637756,3.20672384315767,-0.450000000000003));
#442=CARTESIAN_POINT('Ctrl Pts',(-42.1182295036445,3.041365193512,4.5));
#443=CARTESIAN_POINT('Ctrl Pts',(-42.1182295036445,3.041365193512,-0.450000000000003));
#444=CARTESIAN_POINT('Ctrl Pts',(-41.4029027546819,2.72576490896026,4.5));
#445=CARTESIAN_POINT('Ctrl Pts',(-41.4029027546819,2.72576490896026,-0.450000000000003));
#446=CARTESIAN_POINT('Ctrl Pts',(-40.3155018348703,2.29771524982371,4.5));
#447=CARTESIAN_POINT('Ctrl Pts',(-40.3155018348703,2.29771524982371,-0.450000000000003));
#448=CARTESIAN_POINT('Ctrl Pts',(-38.8366020036777,1.81834565926024,4.5));
#449=CARTESIAN_POINT('Ctrl Pts',(-38.8366020036777,1.81834565926024,-0.450000000000003));
#450=CARTESIAN_POINT('Ctrl Pts',(-36.9392399612602,1.37464808198151,4.5));
#451=CARTESIAN_POINT('Ctrl Pts',(-36.9392399612602,1.37464808198151,-0.450000000000003));
#452=CARTESIAN_POINT('Ctrl Pts',(-34.9943120660725,1.08923907517015,4.5));
#453=CARTESIAN_POINT('Ctrl Pts',(-34.9943120660725,1.08923907517015,-0.450000000000003));
#454=CARTESIAN_POINT('Ctrl Pts',(-33.0060141783801,0.961970177535339,4.5));
#455=CARTESIAN_POINT('Ctrl Pts',(-33.0060141783801,0.961970177535339,-0.450000000000003));
#456=CARTESIAN_POINT('Ctrl Pts',(-30.9832481878582,0.986863739320685,4.5));
#457=CARTESIAN_POINT('Ctrl Pts',(-30.9832481878582,0.986863739320685,-0.450000000000003));
#458=CARTESIAN_POINT('Ctrl Pts',(-28.9415164949073,1.14869034905193,4.5));
#459=CARTESIAN_POINT('Ctrl Pts',(-28.9415164949073,1.14869034905193,-0.450000000000003));
#460=CARTESIAN_POINT('Ctrl Pts',(-26.9002279494428,1.42663971422999,4.5));
#461=CARTESIAN_POINT('Ctrl Pts',(-26.9002279494428,1.42663971422999,-0.450000000000003));
#462=CARTESIAN_POINT('Ctrl Pts',(-24.8801898100817,1.79748861477804,4.5));
#463=CARTESIAN_POINT('Ctrl Pts',(-24.8801898100817,1.79748861477804,-0.450000000000003));
#464=CARTESIAN_POINT('Ctrl Pts',(-22.9010124286139,2.2385132787298,4.5));
#465=CARTESIAN_POINT('Ctrl Pts',(-22.9010124286139,2.2385132787298,-0.450000000000003));
#466=CARTESIAN_POINT('Ctrl Pts',(-20.9787030504704,2.72999554167218,4.5));
#467=CARTESIAN_POINT('Ctrl Pts',(-20.9787030504704,2.72999554167218,-0.450000000000003));
#468=CARTESIAN_POINT('Ctrl Pts',(-19.1223973684334,3.25809649806824,4.5));
#469=CARTESIAN_POINT('Ctrl Pts',(-19.1223973684334,3.25809649806824,-0.450000000000003));
#470=CARTESIAN_POINT('Ctrl Pts',(-17.3358278920315,3.81423169149772,4.5));
#471=CARTESIAN_POINT('Ctrl Pts',(-17.3358278920315,3.81423169149772,-0.450000000000003));
#472=CARTESIAN_POINT('Ctrl Pts',(-15.9628398542616,4.2778192387691,4.5));
#473=CARTESIAN_POINT('Ctrl Pts',(-15.9628398542616,4.2778192387691,-0.450000000000003));
#474=CARTESIAN_POINT('Ctrl Pts',(-14.9643528458662,4.6351776774461,4.5));
#475=CARTESIAN_POINT('Ctrl Pts',(-14.9643528458662,4.6351776774461,-0.450000000000003));
#476=CARTESIAN_POINT('Ctrl Pts',(-14.3124859056139,4.87768162984819,4.5));
#477=CARTESIAN_POINT('Ctrl Pts',(-14.3124859056139,4.87768162984819,-0.450000000000003));
#478=CARTESIAN_POINT('Ctrl Pts',(-13.9900001639128,4.99999990198016,4.5));
#479=CARTESIAN_POINT('Ctrl Pts',(-13.9900001639128,4.99999990198016,-0.450000000000003));
#480=CARTESIAN_POINT('',(-42.4734910637756,3.20672384315767,0.));
#481=CARTESIAN_POINT('Ctrl Pts',(-13.9900001639128,4.99999990198016,0.));
#482=CARTESIAN_POINT('Ctrl Pts',(-14.3643116980655,4.85802419832543,0.));
#483=CARTESIAN_POINT('Ctrl Pts',(-14.744193505813,4.71776974592304,0.));
#484=CARTESIAN_POINT('Ctrl Pts',(-15.1296693633528,4.57925053140742,0.));
#485=CARTESIAN_POINT('Ctrl Pts',(-15.4869171071209,4.45087497717676,0.));
#486=CARTESIAN_POINT('Ctrl Pts',(-15.8489717433324,4.32398872190366,0.));
#487=CARTESIAN_POINT('Ctrl Pts',(-16.2158691478016,4.19864085439002,0.));
#488=CARTESIAN_POINT('Ctrl Pts',(-16.5453014435884,4.08609267262587,0.));
#489=CARTESIAN_POINT('Ctrl Pts',(-16.8786392081381,3.97478447657734,0.));
#490=CARTESIAN_POINT('Ctrl Pts',(-17.2159007153642,3.86479176048708,0.));
#491=CARTESIAN_POINT('Ctrl Pts',(-17.5282978219563,3.76290819086353,0.));
#492=CARTESIAN_POINT('Ctrl Pts',(-17.8440620974151,3.66215315668649,0.));
#493=CARTESIAN_POINT('Ctrl Pts',(-18.1631888750722,3.56262558515864,0.));
#494=CARTESIAN_POINT('Ctrl Pts',(-18.4645993087168,3.46862329329822,0.));
#495=CARTESIAN_POINT('Ctrl Pts',(-18.7690096935441,3.37571589028354,0.));
#496=CARTESIAN_POINT('Ctrl Pts',(-19.0763909018048,3.28402418618719,0.));
#497=CARTESIAN_POINT('Ctrl Pts',(-19.367841071638,3.19708470513565,0.));
#498=CARTESIAN_POINT('Ctrl Pts',(-19.6619624282132,3.11123812825393,0.));
#499=CARTESIAN_POINT('Ctrl Pts',(-19.9587018241183,3.02662280870724,0.));
#500=CARTESIAN_POINT('Ctrl Pts',(-20.2421743191436,2.94579054955908,0.));
#501=CARTESIAN_POINT('Ctrl Pts',(-20.5280362946087,2.8660818488836,0.));
#502=CARTESIAN_POINT('Ctrl Pts',(-20.8162100786646,2.78765141723635,0.));
#503=CARTESIAN_POINT('Ctrl Pts',(-21.0960280091094,2.71149514528635,0.));
#504=CARTESIAN_POINT('Ctrl Pts',(-21.3780258785097,2.63654401717366,0.));
#505=CARTESIAN_POINT('Ctrl Pts',(-21.6620980982372,2.56297377459488,0.));
#506=CARTESIAN_POINT('Ctrl Pts',(-21.940598405546,2.49084656980653,0.));
#507=CARTESIAN_POINT('Ctrl Pts',(-22.2210926343497,2.42004660893989,7.92135201417632E-18));
#508=CARTESIAN_POINT('Ctrl Pts',(-22.5034449242599,2.35077313664603,0.));
#509=CARTESIAN_POINT('Ctrl Pts',(-22.7866380654338,2.28129336644422,-7.94494197285013E-18));
#510=CARTESIAN_POINT('Ctrl Pts',(-23.0717005815813,2.21334909946234,-8.96479797996468E-16));
#511=CARTESIAN_POINT('Ctrl Pts',(-23.3584552189225,2.14717658256197,-8.88178419700125E-16));
#512=CARTESIAN_POINT('Ctrl Pts',(-23.6621290475078,2.0770997330973,-8.79387240756487E-16));
#513=CARTESIAN_POINT('Ctrl Pts',(-23.967700319282,2.0090101113759,9.22968438945147E-18));
#514=CARTESIAN_POINT('Ctrl Pts',(-24.2749126988967,1.94322738299608,0.));
#515=CARTESIAN_POINT('Ctrl Pts',(-24.608975297077,1.87169527486452,-1.00363544964922E-17));
#516=CARTESIAN_POINT('Ctrl Pts',(-24.9449779931035,1.80289131067313,-8.98790362435139E-16));
#517=CARTESIAN_POINT('Ctrl Pts',(-25.2825436225678,1.73726663991408,-8.88178419700125E-16));
#518=CARTESIAN_POINT('Ctrl Pts',(-25.6639409840887,1.66312083212585,-8.76188552822483E-16));
#519=CARTESIAN_POINT('Ctrl Pts',(-26.0473330991016,1.59303420376582,0.));
#520=CARTESIAN_POINT('Ctrl Pts',(-26.4321244799968,1.52769854851034,0.));
#521=CARTESIAN_POINT('Ctrl Pts',(-27.0134602050538,1.4289906449402,0.));
#522=CARTESIAN_POINT('Ctrl Pts',(-27.5979888751139,1.34113094781869,0.));
#523=CARTESIAN_POINT('Ctrl Pts',(-28.1835394701134,1.26656952748495,0.));
#524=CARTESIAN_POINT('Ctrl Pts',(-28.5648075335522,1.21802054029126,0.));
#525=CARTESIAN_POINT('Ctrl Pts',(-28.946505964354,1.17511125300324,-1.26798328950891E-17));
#526=CARTESIAN_POINT('Ctrl Pts',(-29.3280396217671,1.13849563207756,0.));
#527=CARTESIAN_POINT('Ctrl Pts',(-29.6637565845074,1.10627701962443,1.11571676702305E-17));
#528=CARTESIAN_POINT('Ctrl Pts',(-29.9993454070502,1.07893180632521,0.));
#529=CARTESIAN_POINT('Ctrl Pts',(-30.334419911792,1.05687424823222,0.));
#530=CARTESIAN_POINT('Ctrl Pts',(-30.6443317787725,1.03647311680357,0.));
#531=CARTESIAN_POINT('Ctrl Pts',(-30.9538033641689,1.02059562508835,-8.7893226840295E-16));
#532=CARTESIAN_POINT('Ctrl Pts',(-31.2625523947748,1.00953525778502,-8.88178419700125E-16));
#533=CARTESIAN_POINT('Ctrl Pts',(-31.5534945778008,0.999112788111239,-8.96891306790685E-16));
#534=CARTESIAN_POINT('Ctrl Pts',(-31.8437949266646,0.992968096652708,0.));
#535=CARTESIAN_POINT('Ctrl Pts',(-32.1332423831727,0.991310958991712,0.));
#536=CARTESIAN_POINT('Ctrl Pts',(-32.4111841618152,0.989719693362678,0.));
#537=CARTESIAN_POINT('Ctrl Pts',(-32.6883393083727,0.992266568159487,0.));
#538=CARTESIAN_POINT('Ctrl Pts',(-32.9645478863953,0.999099335875555,0.));
#539=CARTESIAN_POINT('Ctrl Pts',(-33.244153477458,1.00601613791524,0.));
#540=CARTESIAN_POINT('Ctrl Pts',(-33.5227889243147,1.01732505526865,-8.80736512370255E-16));
#541=CARTESIAN_POINT('Ctrl Pts',(-33.8003203195626,1.03313467896699,-8.88178419700125E-16));
#542=CARTESIAN_POINT('Ctrl Pts',(-34.0892598734954,1.04959417038837,-8.95926232816484E-16));
#543=CARTESIAN_POINT('Ctrl Pts',(-34.3770028296397,1.07093172609625,0.));
#544=CARTESIAN_POINT('Ctrl Pts',(-34.6634323515315,1.09722368400561,0.));
#545=CARTESIAN_POINT('Ctrl Pts',(-34.9639242237057,1.12480645411648,0.));
#546=CARTESIAN_POINT('Ctrl Pts',(-35.2629706363279,1.15784170596809,0.));
#547=CARTESIAN_POINT('Ctrl Pts',(-35.5604721968754,1.19637237736419,0.));
#548=CARTESIAN_POINT('Ctrl Pts',(-35.8861112162899,1.23854724874206,0.));
#549=CARTESIAN_POINT('Ctrl Pts',(-36.2098992539255,1.2873060240003,0.));
#550=CARTESIAN_POINT('Ctrl Pts',(-36.5317477681022,1.34265575450069,0.));
#551=CARTESIAN_POINT('Ctrl Pts',(-36.8794463639478,1.40245103932482,0.));
#552=CARTESIAN_POINT('Ctrl Pts',(-37.2248815588307,1.46993782558342,0.));
#553=CARTESIAN_POINT('Ctrl Pts',(-37.567987568541,1.54507724722212,0.));
#554=CARTESIAN_POINT('Ctrl Pts',(-37.9497725667342,1.62868727777444,0.));
#555=CARTESIAN_POINT('Ctrl Pts',(-38.3286738861863,1.72177146791335,-8.7957850715454E-16));
#556=CARTESIAN_POINT('Ctrl Pts',(-38.7046524599993,1.82423374652675,-8.88178419700125E-16));
#557=CARTESIAN_POINT('Ctrl Pts',(-39.1696510272782,1.95095589527093,-8.98814523167046E-16));
#558=CARTESIAN_POINT('Ctrl Pts',(-39.6301793382508,2.09201931751111,-8.78120457000765E-16));
#559=CARTESIAN_POINT('Ctrl Pts',(-40.0862357361746,2.24721663402456,-8.88178419700125E-16));
#560=CARTESIAN_POINT('Ctrl Pts',(-40.491129055039,2.3850030061664,-8.97108021207524E-16));
#561=CARTESIAN_POINT('Ctrl Pts',(-40.8925002486444,2.53392711866517,0.));
#562=CARTESIAN_POINT('Ctrl Pts',(-41.2903697423818,2.69387329841575,0.));
#563=CARTESIAN_POINT('Ctrl Pts',(-41.6381779492786,2.83369450827146,0.));
#564=CARTESIAN_POINT('Ctrl Pts',(-41.9833111924732,2.98193809744565,-7.15859142534703E-18));
#565=CARTESIAN_POINT('Ctrl Pts',(-42.3257789387466,3.13856898096035,0.));
#566=CARTESIAN_POINT('Ctrl Pts',(-42.3750715538715,3.16111342767623,1.03036182474395E-18));
#567=CARTESIAN_POINT('Ctrl Pts',(-42.4243089275571,3.18383171931299,0.));
#568=CARTESIAN_POINT('Ctrl Pts',(-42.4734910637756,3.20672384315767,0.));
#569=CARTESIAN_POINT('',(-42.4734910637756,3.20672384315767,4.5));
#570=CARTESIAN_POINT('',(-42.4734910637756,3.20672384315767,4.5));
#571=CARTESIAN_POINT('Ctrl Pts',(-13.9900001639128,4.99999990198016,4.5));
#572=CARTESIAN_POINT('Ctrl Pts',(-14.3124859056139,4.87768162984819,4.5));
#573=CARTESIAN_POINT('Ctrl Pts',(-14.9643528458662,4.6351776774461,4.5));
#574=CARTESIAN_POINT('Ctrl Pts',(-15.9628398542616,4.2778192387691,4.5));
#575=CARTESIAN_POINT('Ctrl Pts',(-17.3358278920315,3.81423169149772,4.5));
#576=CARTESIAN_POINT('Ctrl Pts',(-19.1223973684334,3.25809649806824,4.5));
#577=CARTESIAN_POINT('Ctrl Pts',(-20.9787030504704,2.72999554167218,4.5));
#578=CARTESIAN_POINT('Ctrl Pts',(-22.9010124286139,2.2385132787298,4.5));
#579=CARTESIAN_POINT('Ctrl Pts',(-24.8801898100817,1.79748861477804,4.5));
#580=CARTESIAN_POINT('Ctrl Pts',(-26.9002279494428,1.42663971422999,4.5));
#581=CARTESIAN_POINT('Ctrl Pts',(-28.9415164949073,1.14869034905193,4.5));
#582=CARTESIAN_POINT('Ctrl Pts',(-30.9832481878582,0.986863739320685,4.5));
#583=CARTESIAN_POINT('Ctrl Pts',(-33.0060141783801,0.961970177535339,4.5));
#584=CARTESIAN_POINT('Ctrl Pts',(-34.9943120660725,1.08923907517015,4.5));
#585=CARTESIAN_POINT('Ctrl Pts',(-36.9392399612602,1.37464808198151,4.5));
#586=CARTESIAN_POINT('Ctrl Pts',(-38.8366020036777,1.81834565926024,4.5));
#587=CARTESIAN_POINT('Ctrl Pts',(-40.3155018348703,2.29771524982371,4.5));
#588=CARTESIAN_POINT('Ctrl Pts',(-41.4029027546819,2.72576490896026,4.5));
#589=CARTESIAN_POINT('Ctrl Pts',(-42.1182295036445,3.041365193512,4.5));
#590=CARTESIAN_POINT('Ctrl Pts',(-42.4734910637756,3.20672384315767,4.5));
#591=CARTESIAN_POINT('Origin',(-49.0000007301569,1.00000001490116,4.5));
#592=CARTESIAN_POINT('',(-49.0000007301569,1.00000001490116,0.));
#593=CARTESIAN_POINT('',(-40.8448038602018,3.7574106642339,2.77555756156289E-16));
#594=CARTESIAN_POINT('',(-49.0000007301569,1.00000001490116,4.5));
#595=CARTESIAN_POINT('',(-49.0000007301569,1.00000001490116,4.5));
#596=CARTESIAN_POINT('',(-49.0000007301569,1.00000001490116,4.5));
#597=CARTESIAN_POINT('Origin',(-43.3827409494761,-6.25192758162117,4.5));
#598=CARTESIAN_POINT('',(-42.0383277568987,-7.98757583593761,-2.77555756156289E-16));
#599=CARTESIAN_POINT('',(-49.0000007301569,1.00000001490116,4.5));
#600=CARTESIAN_POINT('Origin',(-11.,0.,0.));
#601=CARTESIAN_POINT('',(-12.75,-2.14313189850787E-16,4.5));
#602=CARTESIAN_POINT('Origin',(-11.,0.,4.5));
#603=CARTESIAN_POINT('',(-12.75,-2.14313189850787E-16,0.));
#604=CARTESIAN_POINT('',(-12.75,-2.14313189850787E-16,0.));
#605=CARTESIAN_POINT('Origin',(-11.,0.,0.));
#606=CARTESIAN_POINT('Origin',(11.,0.,0.));
#607=CARTESIAN_POINT('',(9.25,-2.14313189850787E-16,4.5));
#608=CARTESIAN_POINT('Origin',(11.,0.,4.5));
#609=CARTESIAN_POINT('',(9.25,-2.14313189850787E-16,0.));
#610=CARTESIAN_POINT('',(9.25,-2.14313189850787E-16,0.));
#611=CARTESIAN_POINT('Origin',(11.,0.,0.));
#612=CARTESIAN_POINT('Origin',(11.0000001639128,5.00000007450581,0.));
#613=CARTESIAN_POINT('',(11.0000001639128,5.00000007450581,0.));
#614=CARTESIAN_POINT('',(-11.0000001639128,5.00000007450581,0.));
#615=CARTESIAN_POINT('',(11.0000001639128,5.00000007450581,4.5));
#616=CARTESIAN_POINT('',(-11.0000001639128,5.00000007450581,4.5));
#617=CARTESIAN_POINT('',(11.0000001639128,5.00000007450581,0.));
#618=CARTESIAN_POINT('Origin',(11.,0.,0.));
#619=CARTESIAN_POINT('',(11.0000001639128,-5.00000007450581,0.));
#620=CARTESIAN_POINT('Origin',(11.,0.,0.));
#621=CARTESIAN_POINT('',(11.0000001639128,-5.00000007450581,4.5));
#622=CARTESIAN_POINT('Origin',(11.,0.,4.5));
#623=CARTESIAN_POINT('',(11.0000001639128,-5.00000007450581,0.));
#624=CARTESIAN_POINT('Origin',(-11.0000001639128,-5.00000007450581,0.));
#625=CARTESIAN_POINT('',(11.0000001639128,-5.00000007450581,0.));
#626=CARTESIAN_POINT('',(11.0000001639128,-5.00000007450581,4.5));
#627=CARTESIAN_POINT('Origin',(0.,0.,4.5));
#628=CARTESIAN_POINT('Origin',(0.,0.,0.));
#629=UNCERTAINTY_MEASURE_WITH_UNIT(LENGTH_MEASURE(0.01),#633,
'DISTANCE_ACCURACY_VALUE',
'Maximum model space distance between geometric entities at asserted c
onnectivities');
#630=UNCERTAINTY_MEASURE_WITH_UNIT(LENGTH_MEASURE(0.01),#633,
'DISTANCE_ACCURACY_VALUE',
'Maximum model space distance between geometric entities at asserted c
onnectivities');
#631=(
GEOMETRIC_REPRESENTATION_CONTEXT(3)
GLOBAL_UNCERTAINTY_ASSIGNED_CONTEXT((#629))
GLOBAL_UNIT_ASSIGNED_CONTEXT((#633,#635,#636))
REPRESENTATION_CONTEXT('','3D')
);
#632=(
GEOMETRIC_REPRESENTATION_CONTEXT(3)
GLOBAL_UNCERTAINTY_ASSIGNED_CONTEXT((#630))
GLOBAL_UNIT_ASSIGNED_CONTEXT((#633,#635,#636))
REPRESENTATION_CONTEXT('','3D')
);
#633=(
LENGTH_UNIT()
NAMED_UNIT(*)
SI_UNIT(.MILLI.,.METRE.)
);
#634=(
LENGTH_UNIT()
NAMED_UNIT(*)
SI_UNIT($,.METRE.)
);
#635=(
NAMED_UNIT(*)
PLANE_ANGLE_UNIT()
SI_UNIT($,.RADIAN.)
);
#636=(
NAMED_UNIT(*)
SI_UNIT($,.STERADIAN.)
SOLID_ANGLE_UNIT()
);
#637=SHAPE_DEFINITION_REPRESENTATION(#638,#639);
#638=PRODUCT_DEFINITION_SHAPE('',$,#641);
#639=SHAPE_REPRESENTATION('',(#244),#631);
#640=PRODUCT_DEFINITION_CONTEXT('part definition',#645,'design');
#641=PRODUCT_DEFINITION('2026-08-19-22-23-44-975','Gripper Holder 3.0',
#642,#640);
#642=PRODUCT_DEFINITION_FORMATION('',$,#647);
#643=PRODUCT_RELATED_PRODUCT_CATEGORY('Gripper Holder 3.0',
'Gripper Holder 3.0',(#647));
#644=APPLICATION_PROTOCOL_DEFINITION('international standard',
'automotive_design',2009,#645);
#645=APPLICATION_CONTEXT(
'Core Data for Automotive Mechanical Design Process');
#646=PRODUCT_CONTEXT('part definition',#645,'mechanical');
#647=PRODUCT('2026-08-19-22-23-44-975','Gripper Holder 3.0',$,(#646));
#648=PRESENTATION_STYLE_ASSIGNMENT((#649));
#649=SURFACE_STYLE_USAGE(.BOTH.,#650);
#650=SURFACE_SIDE_STYLE('',(#651));
#651=SURFACE_STYLE_FILL_AREA(#652);
#652=FILL_AREA_STYLE('Steel - Satin',(#653));
#653=FILL_AREA_STYLE_COLOUR('Steel - Satin',#654);
#654=COLOUR_RGB('Steel - Satin',0.627450980392157,0.627450980392157,0.627450980392157);
ENDSEC;
END-ISO-10303-21;
