ISO-10303-21;
HEADER;
/* Generated by software containing ST-Developer
 * from STEP Tools, Inc. (www.steptools.com) 
 */

FILE_DESCRIPTION(
/* description */ (''),
/* implementation_level */ '2;1');

FILE_NAME(
/* name */ 'gear1.step',
/* time_stamp */ '2026-09-21T22:52:05+05:30',
/* author */ (''),
/* organization */ (''),
/* preprocessor_version */ 'ST-DEVELOPER v20.2',
/* originating_system */ 'Autodesk Translation Framework v15.15.0.0',
/* authorisation */ '');

FILE_SCHEMA (('AUTOMOTIVE_DESIGN { 1 0 10303 214 3 1 1 }'));
ENDSEC;

DATA;
#10=MECHANICAL_DESIGN_GEOMETRIC_PRESENTATION_REPRESENTATION('',(#13),#1770);
#11=SHAPE_REPRESENTATION_RELATIONSHIP('SRR','None',#1777,#12);
#12=ADVANCED_BREP_SHAPE_REPRESENTATION('',(#14),#1769);
#13=STYLED_ITEM('',(#1787),#14);
#14=MANIFOLD_SOLID_BREP('Body1',#966);
#15=CYLINDRICAL_SURFACE('',#1076,4.);
#16=CYLINDRICAL_SURFACE('',#1078,5.4);
#17=CYLINDRICAL_SURFACE('',#1079,14.625);
#18=CYLINDRICAL_SURFACE('',#1080,5.4);
#19=CYLINDRICAL_SURFACE('',#1081,12.09275);
#20=CYLINDRICAL_SURFACE('',#1082,5.4);
#21=CYLINDRICAL_SURFACE('',#1083,14.625);
#22=CYLINDRICAL_SURFACE('',#1084,5.4);
#23=CYLINDRICAL_SURFACE('',#1085,12.09275);
#24=CYLINDRICAL_SURFACE('',#1086,5.4);
#25=CYLINDRICAL_SURFACE('',#1087,14.625);
#26=CYLINDRICAL_SURFACE('',#1088,5.4);
#27=CYLINDRICAL_SURFACE('',#1089,12.09275);
#28=CYLINDRICAL_SURFACE('',#1090,5.4);
#29=CYLINDRICAL_SURFACE('',#1091,14.625);
#30=CYLINDRICAL_SURFACE('',#1092,5.4);
#31=CYLINDRICAL_SURFACE('',#1093,12.09275);
#32=CYLINDRICAL_SURFACE('',#1094,5.4);
#33=CYLINDRICAL_SURFACE('',#1095,14.625);
#34=CYLINDRICAL_SURFACE('',#1096,5.4);
#35=CYLINDRICAL_SURFACE('',#1097,12.09275);
#36=CYLINDRICAL_SURFACE('',#1098,5.4);
#37=CYLINDRICAL_SURFACE('',#1099,14.625);
#38=CYLINDRICAL_SURFACE('',#1100,5.4);
#39=CYLINDRICAL_SURFACE('',#1101,12.09275);
#40=CYLINDRICAL_SURFACE('',#1102,5.4);
#41=CYLINDRICAL_SURFACE('',#1103,14.625);
#42=CYLINDRICAL_SURFACE('',#1104,5.4);
#43=CYLINDRICAL_SURFACE('',#1105,12.09275);
#44=CYLINDRICAL_SURFACE('',#1106,5.4);
#45=CYLINDRICAL_SURFACE('',#1107,14.625);
#46=CYLINDRICAL_SURFACE('',#1108,5.4);
#47=CYLINDRICAL_SURFACE('',#1109,12.09275);
#48=CYLINDRICAL_SURFACE('',#1110,5.4);
#49=CYLINDRICAL_SURFACE('',#1111,14.625);
#50=CYLINDRICAL_SURFACE('',#1112,5.4);
#51=CYLINDRICAL_SURFACE('',#1113,12.09275);
#52=CYLINDRICAL_SURFACE('',#1114,5.4);
#53=CYLINDRICAL_SURFACE('',#1115,14.625);
#54=CYLINDRICAL_SURFACE('',#1116,5.4);
#55=CYLINDRICAL_SURFACE('',#1117,12.09275);
#56=CYLINDRICAL_SURFACE('',#1118,5.4);
#57=CYLINDRICAL_SURFACE('',#1119,14.625);
#58=CYLINDRICAL_SURFACE('',#1120,5.4);
#59=CYLINDRICAL_SURFACE('',#1121,12.09275);
#60=CYLINDRICAL_SURFACE('',#1123,1.75);
#61=CYLINDRICAL_SURFACE('',#1124,1.75);
#62=FACE_BOUND('',#118,.T.);
#63=FACE_BOUND('',#119,.T.);
#64=FACE_BOUND('',#121,.T.);
#65=FACE_BOUND('',#122,.T.);
#66=FACE_OUTER_BOUND('',#117,.T.);
#67=FACE_OUTER_BOUND('',#120,.T.);
#68=FACE_OUTER_BOUND('',#123,.T.);
#69=FACE_OUTER_BOUND('',#124,.T.);
#70=FACE_OUTER_BOUND('',#125,.T.);
#71=FACE_OUTER_BOUND('',#126,.T.);
#72=FACE_OUTER_BOUND('',#127,.T.);
#73=FACE_OUTER_BOUND('',#128,.T.);
#74=FACE_OUTER_BOUND('',#129,.T.);
#75=FACE_OUTER_BOUND('',#130,.T.);
#76=FACE_OUTER_BOUND('',#131,.T.);
#77=FACE_OUTER_BOUND('',#132,.T.);
#78=FACE_OUTER_BOUND('',#133,.T.);
#79=FACE_OUTER_BOUND('',#134,.T.);
#80=FACE_OUTER_BOUND('',#135,.T.);
#81=FACE_OUTER_BOUND('',#136,.T.);
#82=FACE_OUTER_BOUND('',#137,.T.);
#83=FACE_OUTER_BOUND('',#138,.T.);
#84=FACE_OUTER_BOUND('',#139,.T.);
#85=FACE_OUTER_BOUND('',#140,.T.);
#86=FACE_OUTER_BOUND('',#141,.T.);
#87=FACE_OUTER_BOUND('',#142,.T.);
#88=FACE_OUTER_BOUND('',#143,.T.);
#89=FACE_OUTER_BOUND('',#144,.T.);
#90=FACE_OUTER_BOUND('',#145,.T.);
#91=FACE_OUTER_BOUND('',#146,.T.);
#92=FACE_OUTER_BOUND('',#147,.T.);
#93=FACE_OUTER_BOUND('',#148,.T.);
#94=FACE_OUTER_BOUND('',#149,.T.);
#95=FACE_OUTER_BOUND('',#150,.T.);
#96=FACE_OUTER_BOUND('',#151,.T.);
#97=FACE_OUTER_BOUND('',#152,.T.);
#98=FACE_OUTER_BOUND('',#153,.T.);
#99=FACE_OUTER_BOUND('',#154,.T.);
#100=FACE_OUTER_BOUND('',#155,.T.);
#101=FACE_OUTER_BOUND('',#156,.T.);
#102=FACE_OUTER_BOUND('',#157,.T.);
#103=FACE_OUTER_BOUND('',#158,.T.);
#104=FACE_OUTER_BOUND('',#159,.T.);
#105=FACE_OUTER_BOUND('',#160,.T.);
#106=FACE_OUTER_BOUND('',#161,.T.);
#107=FACE_OUTER_BOUND('',#162,.T.);
#108=FACE_OUTER_BOUND('',#163,.T.);
#109=FACE_OUTER_BOUND('',#164,.T.);
#110=FACE_OUTER_BOUND('',#165,.T.);
#111=FACE_OUTER_BOUND('',#166,.T.);
#112=FACE_OUTER_BOUND('',#167,.T.);
#113=FACE_OUTER_BOUND('',#168,.T.);
#114=FACE_OUTER_BOUND('',#169,.T.);
#115=FACE_OUTER_BOUND('',#170,.T.);
#116=FACE_OUTER_BOUND('',#171,.T.);
#117=EDGE_LOOP('',(#617,#618,#619,#620,#621,#622,#623,#624,#625,#626,#627,
#628,#629,#630,#631,#632,#633,#634,#635,#636,#637,#638,#639,#640,#641,#642,
#643,#644,#645,#646,#647,#648,#649,#650,#651,#652,#653,#654,#655,#656,#657,
#658,#659,#660,#661,#662,#663));
#118=EDGE_LOOP('',(#664));
#119=EDGE_LOOP('',(#665));
#120=EDGE_LOOP('',(#666,#667,#668,#669,#670,#671,#672,#673,#674,#675,#676,
#677,#678,#679,#680,#681,#682,#683,#684,#685,#686,#687,#688,#689,#690,#691,
#692,#693,#694,#695,#696,#697,#698,#699,#700,#701,#702,#703,#704,#705,#706,
#707,#708,#709,#710,#711,#712));
#121=EDGE_LOOP('',(#713));
#122=EDGE_LOOP('',(#714));
#123=EDGE_LOOP('',(#715,#716,#717,#718));
#124=EDGE_LOOP('',(#719,#720,#721,#722));
#125=EDGE_LOOP('',(#723,#724,#725,#726));
#126=EDGE_LOOP('',(#727,#728,#729,#730));
#127=EDGE_LOOP('',(#731,#732,#733,#734));
#128=EDGE_LOOP('',(#735,#736,#737,#738));
#129=EDGE_LOOP('',(#739,#740,#741,#742));
#130=EDGE_LOOP('',(#743,#744,#745,#746));
#131=EDGE_LOOP('',(#747,#748,#749,#750));
#132=EDGE_LOOP('',(#751,#752,#753,#754));
#133=EDGE_LOOP('',(#755,#756,#757,#758));
#134=EDGE_LOOP('',(#759,#760,#761,#762));
#135=EDGE_LOOP('',(#763,#764,#765,#766));
#136=EDGE_LOOP('',(#767,#768,#769,#770));
#137=EDGE_LOOP('',(#771,#772,#773,#774));
#138=EDGE_LOOP('',(#775,#776,#777,#778));
#139=EDGE_LOOP('',(#779,#780,#781,#782));
#140=EDGE_LOOP('',(#783,#784,#785,#786));
#141=EDGE_LOOP('',(#787,#788,#789,#790));
#142=EDGE_LOOP('',(#791,#792,#793,#794));
#143=EDGE_LOOP('',(#795,#796,#797,#798));
#144=EDGE_LOOP('',(#799,#800,#801,#802));
#145=EDGE_LOOP('',(#803,#804,#805,#806));
#146=EDGE_LOOP('',(#807,#808,#809,#810));
#147=EDGE_LOOP('',(#811,#812,#813,#814));
#148=EDGE_LOOP('',(#815,#816,#817,#818));
#149=EDGE_LOOP('',(#819,#820,#821,#822));
#150=EDGE_LOOP('',(#823,#824,#825,#826));
#151=EDGE_LOOP('',(#827,#828,#829,#830));
#152=EDGE_LOOP('',(#831,#832,#833,#834));
#153=EDGE_LOOP('',(#835,#836,#837,#838));
#154=EDGE_LOOP('',(#839,#840,#841,#842));
#155=EDGE_LOOP('',(#843,#844,#845,#846));
#156=EDGE_LOOP('',(#847,#848,#849,#850));
#157=EDGE_LOOP('',(#851,#852,#853,#854));
#158=EDGE_LOOP('',(#855,#856,#857,#858));
#159=EDGE_LOOP('',(#859,#860,#861,#862));
#160=EDGE_LOOP('',(#863,#864,#865,#866));
#161=EDGE_LOOP('',(#867,#868,#869,#870));
#162=EDGE_LOOP('',(#871,#872,#873,#874));
#163=EDGE_LOOP('',(#875,#876,#877,#878));
#164=EDGE_LOOP('',(#879,#880,#881,#882));
#165=EDGE_LOOP('',(#883,#884,#885,#886));
#166=EDGE_LOOP('',(#887,#888,#889,#890));
#167=EDGE_LOOP('',(#891,#892,#893,#894));
#168=EDGE_LOOP('',(#895,#896,#897,#898));
#169=EDGE_LOOP('',(#899,#900,#901,#902));
#170=EDGE_LOOP('',(#903,#904,#905,#906));
#171=EDGE_LOOP('',(#907,#908,#909,#910));
#172=LINE('',#1476,#225);
#173=LINE('',#1480,#226);
#174=LINE('',#1573,#227);
#175=LINE('',#1663,#228);
#176=LINE('',#1670,#229);
#177=LINE('',#1671,#230);
#178=LINE('',#1673,#231);
#179=LINE('',#1675,#232);
#180=LINE('',#1677,#233);
#181=LINE('',#1679,#234);
#182=LINE('',#1681,#235);
#183=LINE('',#1683,#236);
#184=LINE('',#1685,#237);
#185=LINE('',#1687,#238);
#186=LINE('',#1689,#239);
#187=LINE('',#1691,#240);
#188=LINE('',#1693,#241);
#189=LINE('',#1695,#242);
#190=LINE('',#1697,#243);
#191=LINE('',#1699,#244);
#192=LINE('',#1701,#245);
#193=LINE('',#1703,#246);
#194=LINE('',#1705,#247);
#195=LINE('',#1707,#248);
#196=LINE('',#1709,#249);
#197=LINE('',#1711,#250);
#198=LINE('',#1713,#251);
#199=LINE('',#1715,#252);
#200=LINE('',#1717,#253);
#201=LINE('',#1719,#254);
#202=LINE('',#1721,#255);
#203=LINE('',#1723,#256);
#204=LINE('',#1725,#257);
#205=LINE('',#1727,#258);
#206=LINE('',#1729,#259);
#207=LINE('',#1731,#260);
#208=LINE('',#1733,#261);
#209=LINE('',#1735,#262);
#210=LINE('',#1737,#263);
#211=LINE('',#1739,#264);
#212=LINE('',#1741,#265);
#213=LINE('',#1743,#266);
#214=LINE('',#1745,#267);
#215=LINE('',#1747,#268);
#216=LINE('',#1749,#269);
#217=LINE('',#1751,#270);
#218=LINE('',#1753,#271);
#219=LINE('',#1755,#272);
#220=LINE('',#1757,#273);
#221=LINE('',#1759,#274);
#222=LINE('',#1761,#275);
#223=LINE('',#1764,#276);
#224=LINE('',#1766,#277);
#225=VECTOR('',#1131,19.3379623834085);
#226=VECTOR('',#1134,18.5620155099745);
#227=VECTOR('',#1227,19.3379623834085);
#228=VECTOR('',#1316,18.5620155099745);
#229=VECTOR('',#1325,4.);
#230=VECTOR('',#1326,4.);
#231=VECTOR('',#1329,4.);
#232=VECTOR('',#1332,4.);
#233=VECTOR('',#1335,4.);
#234=VECTOR('',#1338,4.);
#235=VECTOR('',#1341,4.);
#236=VECTOR('',#1344,4.);
#237=VECTOR('',#1347,4.);
#238=VECTOR('',#1350,4.);
#239=VECTOR('',#1353,4.);
#240=VECTOR('',#1356,4.);
#241=VECTOR('',#1359,4.);
#242=VECTOR('',#1362,4.);
#243=VECTOR('',#1365,4.);
#244=VECTOR('',#1368,4.);
#245=VECTOR('',#1371,4.);
#246=VECTOR('',#1374,4.);
#247=VECTOR('',#1377,4.);
#248=VECTOR('',#1380,4.);
#249=VECTOR('',#1383,4.);
#250=VECTOR('',#1386,4.);
#251=VECTOR('',#1389,4.);
#252=VECTOR('',#1392,4.);
#253=VECTOR('',#1395,4.);
#254=VECTOR('',#1398,4.);
#255=VECTOR('',#1401,4.);
#256=VECTOR('',#1404,4.);
#257=VECTOR('',#1407,4.);
#258=VECTOR('',#1410,4.);
#259=VECTOR('',#1413,4.);
#260=VECTOR('',#1416,4.);
#261=VECTOR('',#1419,4.);
#262=VECTOR('',#1422,4.);
#263=VECTOR('',#1425,4.);
#264=VECTOR('',#1428,4.);
#265=VECTOR('',#1431,4.);
#266=VECTOR('',#1434,4.);
#267=VECTOR('',#1437,4.);
#268=VECTOR('',#1440,4.);
#269=VECTOR('',#1443,4.);
#270=VECTOR('',#1446,4.);
#271=VECTOR('',#1449,4.);
#272=VECTOR('',#1452,4.);
#273=VECTOR('',#1455,4.);
#274=VECTOR('',#1458,4.);
#275=VECTOR('',#1461,4.);
#276=VECTOR('',#1466,1.75);
#277=VECTOR('',#1469,1.75);
#278=CIRCLE('',#981,12.09275);
#279=CIRCLE('',#982,4.);
#280=CIRCLE('',#983,5.4);
#281=CIRCLE('',#984,14.625);
#282=CIRCLE('',#985,5.4);
#283=CIRCLE('',#986,12.09275);
#284=CIRCLE('',#987,5.4);
#285=CIRCLE('',#988,14.625);
#286=CIRCLE('',#989,5.4);
#287=CIRCLE('',#990,12.09275);
#288=CIRCLE('',#991,5.4);
#289=CIRCLE('',#992,14.625);
#290=CIRCLE('',#993,5.4);
#291=CIRCLE('',#994,12.09275);
#292=CIRCLE('',#995,5.4);
#293=CIRCLE('',#996,14.625);
#294=CIRCLE('',#997,5.4);
#295=CIRCLE('',#998,12.09275);
#296=CIRCLE('',#999,5.4);
#297=CIRCLE('',#1000,14.625);
#298=CIRCLE('',#1001,5.4);
#299=CIRCLE('',#1002,12.09275);
#300=CIRCLE('',#1003,5.4);
#301=CIRCLE('',#1004,14.625);
#302=CIRCLE('',#1005,5.4);
#303=CIRCLE('',#1006,12.09275);
#304=CIRCLE('',#1007,5.4);
#305=CIRCLE('',#1008,14.625);
#306=CIRCLE('',#1009,5.4);
#307=CIRCLE('',#1010,12.09275);
#308=CIRCLE('',#1011,5.4);
#309=CIRCLE('',#1012,14.625);
#310=CIRCLE('',#1013,5.4);
#311=CIRCLE('',#1014,12.09275);
#312=CIRCLE('',#1015,5.4);
#313=CIRCLE('',#1016,14.625);
#314=CIRCLE('',#1017,5.4);
#315=CIRCLE('',#1018,12.09275);
#316=CIRCLE('',#1019,5.4);
#317=CIRCLE('',#1020,14.625);
#318=CIRCLE('',#1021,5.4);
#319=CIRCLE('',#1022,12.09275);
#320=CIRCLE('',#1023,5.4);
#321=CIRCLE('',#1024,14.625);
#322=CIRCLE('',#1025,5.4);
#323=CIRCLE('',#1026,1.75);
#324=CIRCLE('',#1027,1.75);
#325=CIRCLE('',#1029,12.09275);
#326=CIRCLE('',#1030,5.4);
#327=CIRCLE('',#1031,14.625);
#328=CIRCLE('',#1032,5.4);
#329=CIRCLE('',#1033,12.09275);
#330=CIRCLE('',#1034,5.4);
#331=CIRCLE('',#1035,14.625);
#332=CIRCLE('',#1036,5.4);
#333=CIRCLE('',#1037,12.09275);
#334=CIRCLE('',#1038,5.4);
#335=CIRCLE('',#1039,14.625);
#336=CIRCLE('',#1040,5.4);
#337=CIRCLE('',#1041,12.09275);
#338=CIRCLE('',#1042,5.4);
#339=CIRCLE('',#1043,14.625);
#340=CIRCLE('',#1044,5.4);
#341=CIRCLE('',#1045,12.09275);
#342=CIRCLE('',#1046,5.4);
#343=CIRCLE('',#1047,14.625);
#344=CIRCLE('',#1048,5.4);
#345=CIRCLE('',#1049,12.09275);
#346=CIRCLE('',#1050,5.4);
#347=CIRCLE('',#1051,14.625);
#348=CIRCLE('',#1052,5.4);
#349=CIRCLE('',#1053,12.09275);
#350=CIRCLE('',#1054,5.4);
#351=CIRCLE('',#1055,14.625);
#352=CIRCLE('',#1056,5.4);
#353=CIRCLE('',#1057,12.09275);
#354=CIRCLE('',#1058,5.4);
#355=CIRCLE('',#1059,14.625);
#356=CIRCLE('',#1060,5.4);
#357=CIRCLE('',#1061,12.09275);
#358=CIRCLE('',#1062,5.4);
#359=CIRCLE('',#1063,14.625);
#360=CIRCLE('',#1064,5.4);
#361=CIRCLE('',#1065,12.09275);
#362=CIRCLE('',#1066,5.4);
#363=CIRCLE('',#1067,14.625);
#364=CIRCLE('',#1068,5.4);
#365=CIRCLE('',#1069,12.09275);
#366=CIRCLE('',#1070,5.4);
#367=CIRCLE('',#1071,14.625);
#368=CIRCLE('',#1072,5.4);
#369=CIRCLE('',#1073,4.);
#370=CIRCLE('',#1074,1.75);
#371=CIRCLE('',#1075,1.75);
#372=VERTEX_POINT('',#1472);
#373=VERTEX_POINT('',#1473);
#374=VERTEX_POINT('',#1475);
#375=VERTEX_POINT('',#1477);
#376=VERTEX_POINT('',#1479);
#377=VERTEX_POINT('',#1481);
#378=VERTEX_POINT('',#1483);
#379=VERTEX_POINT('',#1485);
#380=VERTEX_POINT('',#1487);
#381=VERTEX_POINT('',#1489);
#382=VERTEX_POINT('',#1491);
#383=VERTEX_POINT('',#1493);
#384=VERTEX_POINT('',#1495);
#385=VERTEX_POINT('',#1497);
#386=VERTEX_POINT('',#1499);
#387=VERTEX_POINT('',#1501);
#388=VERTEX_POINT('',#1503);
#389=VERTEX_POINT('',#1505);
#390=VERTEX_POINT('',#1507);
#391=VERTEX_POINT('',#1509);
#392=VERTEX_POINT('',#1511);
#393=VERTEX_POINT('',#1513);
#394=VERTEX_POINT('',#1515);
#395=VERTEX_POINT('',#1517);
#396=VERTEX_POINT('',#1519);
#397=VERTEX_POINT('',#1521);
#398=VERTEX_POINT('',#1523);
#399=VERTEX_POINT('',#1525);
#400=VERTEX_POINT('',#1527);
#401=VERTEX_POINT('',#1529);
#402=VERTEX_POINT('',#1531);
#403=VERTEX_POINT('',#1533);
#404=VERTEX_POINT('',#1535);
#405=VERTEX_POINT('',#1537);
#406=VERTEX_POINT('',#1539);
#407=VERTEX_POINT('',#1541);
#408=VERTEX_POINT('',#1543);
#409=VERTEX_POINT('',#1545);
#410=VERTEX_POINT('',#1547);
#411=VERTEX_POINT('',#1549);
#412=VERTEX_POINT('',#1551);
#413=VERTEX_POINT('',#1553);
#414=VERTEX_POINT('',#1555);
#415=VERTEX_POINT('',#1557);
#416=VERTEX_POINT('',#1559);
#417=VERTEX_POINT('',#1561);
#418=VERTEX_POINT('',#1563);
#419=VERTEX_POINT('',#1566);
#420=VERTEX_POINT('',#1568);
#421=VERTEX_POINT('',#1571);
#422=VERTEX_POINT('',#1572);
#423=VERTEX_POINT('',#1574);
#424=VERTEX_POINT('',#1576);
#425=VERTEX_POINT('',#1578);
#426=VERTEX_POINT('',#1580);
#427=VERTEX_POINT('',#1582);
#428=VERTEX_POINT('',#1584);
#429=VERTEX_POINT('',#1586);
#430=VERTEX_POINT('',#1588);
#431=VERTEX_POINT('',#1590);
#432=VERTEX_POINT('',#1592);
#433=VERTEX_POINT('',#1594);
#434=VERTEX_POINT('',#1596);
#435=VERTEX_POINT('',#1598);
#436=VERTEX_POINT('',#1600);
#437=VERTEX_POINT('',#1602);
#438=VERTEX_POINT('',#1604);
#439=VERTEX_POINT('',#1606);
#440=VERTEX_POINT('',#1608);
#441=VERTEX_POINT('',#1610);
#442=VERTEX_POINT('',#1612);
#443=VERTEX_POINT('',#1614);
#444=VERTEX_POINT('',#1616);
#445=VERTEX_POINT('',#1618);
#446=VERTEX_POINT('',#1620);
#447=VERTEX_POINT('',#1622);
#448=VERTEX_POINT('',#1624);
#449=VERTEX_POINT('',#1626);
#450=VERTEX_POINT('',#1628);
#451=VERTEX_POINT('',#1630);
#452=VERTEX_POINT('',#1632);
#453=VERTEX_POINT('',#1634);
#454=VERTEX_POINT('',#1636);
#455=VERTEX_POINT('',#1638);
#456=VERTEX_POINT('',#1640);
#457=VERTEX_POINT('',#1642);
#458=VERTEX_POINT('',#1644);
#459=VERTEX_POINT('',#1646);
#460=VERTEX_POINT('',#1648);
#461=VERTEX_POINT('',#1650);
#462=VERTEX_POINT('',#1652);
#463=VERTEX_POINT('',#1654);
#464=VERTEX_POINT('',#1656);
#465=VERTEX_POINT('',#1658);
#466=VERTEX_POINT('',#1660);
#467=VERTEX_POINT('',#1662);
#468=VERTEX_POINT('',#1665);
#469=VERTEX_POINT('',#1667);
#470=EDGE_CURVE('',#372,#373,#278,.T.);
#471=EDGE_CURVE('',#373,#374,#172,.T.);
#472=EDGE_CURVE('',#374,#375,#279,.T.);
#473=EDGE_CURVE('',#375,#376,#173,.T.);
#474=EDGE_CURVE('',#376,#377,#280,.T.);
#475=EDGE_CURVE('',#377,#378,#281,.T.);
#476=EDGE_CURVE('',#378,#379,#282,.T.);
#477=EDGE_CURVE('',#379,#380,#283,.T.);
#478=EDGE_CURVE('',#380,#381,#284,.T.);
#479=EDGE_CURVE('',#381,#382,#285,.T.);
#480=EDGE_CURVE('',#382,#383,#286,.T.);
#481=EDGE_CURVE('',#383,#384,#287,.T.);
#482=EDGE_CURVE('',#384,#385,#288,.T.);
#483=EDGE_CURVE('',#385,#386,#289,.T.);
#484=EDGE_CURVE('',#386,#387,#290,.T.);
#485=EDGE_CURVE('',#387,#388,#291,.T.);
#486=EDGE_CURVE('',#388,#389,#292,.T.);
#487=EDGE_CURVE('',#389,#390,#293,.T.);
#488=EDGE_CURVE('',#390,#391,#294,.T.);
#489=EDGE_CURVE('',#391,#392,#295,.T.);
#490=EDGE_CURVE('',#392,#393,#296,.T.);
#491=EDGE_CURVE('',#393,#394,#297,.T.);
#492=EDGE_CURVE('',#394,#395,#298,.T.);
#493=EDGE_CURVE('',#395,#396,#299,.T.);
#494=EDGE_CURVE('',#396,#397,#300,.T.);
#495=EDGE_CURVE('',#397,#398,#301,.T.);
#496=EDGE_CURVE('',#398,#399,#302,.T.);
#497=EDGE_CURVE('',#399,#400,#303,.T.);
#498=EDGE_CURVE('',#400,#401,#304,.T.);
#499=EDGE_CURVE('',#401,#402,#305,.T.);
#500=EDGE_CURVE('',#402,#403,#306,.T.);
#501=EDGE_CURVE('',#403,#404,#307,.T.);
#502=EDGE_CURVE('',#404,#405,#308,.T.);
#503=EDGE_CURVE('',#405,#406,#309,.T.);
#504=EDGE_CURVE('',#406,#407,#310,.T.);
#505=EDGE_CURVE('',#407,#408,#311,.T.);
#506=EDGE_CURVE('',#408,#409,#312,.T.);
#507=EDGE_CURVE('',#409,#410,#313,.T.);
#508=EDGE_CURVE('',#410,#411,#314,.T.);
#509=EDGE_CURVE('',#411,#412,#315,.T.);
#510=EDGE_CURVE('',#412,#413,#316,.T.);
#511=EDGE_CURVE('',#413,#414,#317,.T.);
#512=EDGE_CURVE('',#414,#415,#318,.T.);
#513=EDGE_CURVE('',#415,#416,#319,.T.);
#514=EDGE_CURVE('',#416,#417,#320,.T.);
#515=EDGE_CURVE('',#417,#418,#321,.T.);
#516=EDGE_CURVE('',#418,#372,#322,.T.);
#517=EDGE_CURVE('',#419,#419,#323,.T.);
#518=EDGE_CURVE('',#420,#420,#324,.T.);
#519=EDGE_CURVE('',#421,#422,#174,.T.);
#520=EDGE_CURVE('',#423,#421,#325,.T.);
#521=EDGE_CURVE('',#424,#423,#326,.T.);
#522=EDGE_CURVE('',#425,#424,#327,.T.);
#523=EDGE_CURVE('',#426,#425,#328,.T.);
#524=EDGE_CURVE('',#427,#426,#329,.T.);
#525=EDGE_CURVE('',#428,#427,#330,.T.);
#526=EDGE_CURVE('',#429,#428,#331,.T.);
#527=EDGE_CURVE('',#430,#429,#332,.T.);
#528=EDGE_CURVE('',#431,#430,#333,.T.);
#529=EDGE_CURVE('',#432,#431,#334,.T.);
#530=EDGE_CURVE('',#433,#432,#335,.T.);
#531=EDGE_CURVE('',#434,#433,#336,.T.);
#532=EDGE_CURVE('',#435,#434,#337,.T.);
#533=EDGE_CURVE('',#436,#435,#338,.T.);
#534=EDGE_CURVE('',#437,#436,#339,.T.);
#535=EDGE_CURVE('',#438,#437,#340,.T.);
#536=EDGE_CURVE('',#439,#438,#341,.T.);
#537=EDGE_CURVE('',#440,#439,#342,.T.);
#538=EDGE_CURVE('',#441,#440,#343,.T.);
#539=EDGE_CURVE('',#442,#441,#344,.T.);
#540=EDGE_CURVE('',#443,#442,#345,.T.);
#541=EDGE_CURVE('',#444,#443,#346,.T.);
#542=EDGE_CURVE('',#445,#444,#347,.T.);
#543=EDGE_CURVE('',#446,#445,#348,.T.);
#544=EDGE_CURVE('',#447,#446,#349,.T.);
#545=EDGE_CURVE('',#448,#447,#350,.T.);
#546=EDGE_CURVE('',#449,#448,#351,.T.);
#547=EDGE_CURVE('',#450,#449,#352,.T.);
#548=EDGE_CURVE('',#451,#450,#353,.T.);
#549=EDGE_CURVE('',#452,#451,#354,.T.);
#550=EDGE_CURVE('',#453,#452,#355,.T.);
#551=EDGE_CURVE('',#454,#453,#356,.T.);
#552=EDGE_CURVE('',#455,#454,#357,.T.);
#553=EDGE_CURVE('',#456,#455,#358,.T.);
#554=EDGE_CURVE('',#457,#456,#359,.T.);
#555=EDGE_CURVE('',#458,#457,#360,.T.);
#556=EDGE_CURVE('',#459,#458,#361,.T.);
#557=EDGE_CURVE('',#460,#459,#362,.T.);
#558=EDGE_CURVE('',#461,#460,#363,.T.);
#559=EDGE_CURVE('',#462,#461,#364,.T.);
#560=EDGE_CURVE('',#463,#462,#365,.T.);
#561=EDGE_CURVE('',#464,#463,#366,.T.);
#562=EDGE_CURVE('',#465,#464,#367,.T.);
#563=EDGE_CURVE('',#466,#465,#368,.T.);
#564=EDGE_CURVE('',#467,#466,#175,.T.);
#565=EDGE_CURVE('',#422,#467,#369,.T.);
#566=EDGE_CURVE('',#468,#468,#370,.T.);
#567=EDGE_CURVE('',#469,#469,#371,.T.);
#568=EDGE_CURVE('',#375,#467,#176,.T.);
#569=EDGE_CURVE('',#374,#422,#177,.T.);
#570=EDGE_CURVE('',#376,#466,#178,.T.);
#571=EDGE_CURVE('',#377,#465,#179,.T.);
#572=EDGE_CURVE('',#378,#464,#180,.T.);
#573=EDGE_CURVE('',#379,#463,#181,.T.);
#574=EDGE_CURVE('',#380,#462,#182,.T.);
#575=EDGE_CURVE('',#381,#461,#183,.T.);
#576=EDGE_CURVE('',#382,#460,#184,.T.);
#577=EDGE_CURVE('',#383,#459,#185,.T.);
#578=EDGE_CURVE('',#384,#458,#186,.T.);
#579=EDGE_CURVE('',#385,#457,#187,.T.);
#580=EDGE_CURVE('',#386,#456,#188,.T.);
#581=EDGE_CURVE('',#387,#455,#189,.T.);
#582=EDGE_CURVE('',#388,#454,#190,.T.);
#583=EDGE_CURVE('',#389,#453,#191,.T.);
#584=EDGE_CURVE('',#390,#452,#192,.T.);
#585=EDGE_CURVE('',#391,#451,#193,.T.);
#586=EDGE_CURVE('',#392,#450,#194,.T.);
#587=EDGE_CURVE('',#393,#449,#195,.T.);
#588=EDGE_CURVE('',#394,#448,#196,.T.);
#589=EDGE_CURVE('',#395,#447,#197,.T.);
#590=EDGE_CURVE('',#396,#446,#198,.T.);
#591=EDGE_CURVE('',#397,#445,#199,.T.);
#592=EDGE_CURVE('',#398,#444,#200,.T.);
#593=EDGE_CURVE('',#399,#443,#201,.T.);
#594=EDGE_CURVE('',#400,#442,#202,.T.);
#595=EDGE_CURVE('',#401,#441,#203,.T.);
#596=EDGE_CURVE('',#402,#440,#204,.T.);
#597=EDGE_CURVE('',#403,#439,#205,.T.);
#598=EDGE_CURVE('',#404,#438,#206,.T.);
#599=EDGE_CURVE('',#405,#437,#207,.T.);
#600=EDGE_CURVE('',#406,#436,#208,.T.);
#601=EDGE_CURVE('',#407,#435,#209,.T.);
#602=EDGE_CURVE('',#408,#434,#210,.T.);
#603=EDGE_CURVE('',#409,#433,#211,.T.);
#604=EDGE_CURVE('',#410,#432,#212,.T.);
#605=EDGE_CURVE('',#411,#431,#213,.T.);
#606=EDGE_CURVE('',#412,#430,#214,.T.);
#607=EDGE_CURVE('',#413,#429,#215,.T.);
#608=EDGE_CURVE('',#414,#428,#216,.T.);
#609=EDGE_CURVE('',#415,#427,#217,.T.);
#610=EDGE_CURVE('',#416,#426,#218,.T.);
#611=EDGE_CURVE('',#417,#425,#219,.T.);
#612=EDGE_CURVE('',#418,#424,#220,.T.);
#613=EDGE_CURVE('',#372,#423,#221,.T.);
#614=EDGE_CURVE('',#421,#373,#222,.T.);
#615=EDGE_CURVE('',#419,#469,#223,.T.);
#616=EDGE_CURVE('',#420,#468,#224,.T.);
#617=ORIENTED_EDGE('',*,*,#470,.T.);
#618=ORIENTED_EDGE('',*,*,#471,.T.);
#619=ORIENTED_EDGE('',*,*,#472,.T.);
#620=ORIENTED_EDGE('',*,*,#473,.T.);
#621=ORIENTED_EDGE('',*,*,#474,.T.);
#622=ORIENTED_EDGE('',*,*,#475,.T.);
#623=ORIENTED_EDGE('',*,*,#476,.T.);
#624=ORIENTED_EDGE('',*,*,#477,.T.);
#625=ORIENTED_EDGE('',*,*,#478,.T.);
#626=ORIENTED_EDGE('',*,*,#479,.T.);
#627=ORIENTED_EDGE('',*,*,#480,.T.);
#628=ORIENTED_EDGE('',*,*,#481,.T.);
#629=ORIENTED_EDGE('',*,*,#482,.T.);
#630=ORIENTED_EDGE('',*,*,#483,.T.);
#631=ORIENTED_EDGE('',*,*,#484,.T.);
#632=ORIENTED_EDGE('',*,*,#485,.T.);
#633=ORIENTED_EDGE('',*,*,#486,.T.);
#634=ORIENTED_EDGE('',*,*,#487,.T.);
#635=ORIENTED_EDGE('',*,*,#488,.T.);
#636=ORIENTED_EDGE('',*,*,#489,.T.);
#637=ORIENTED_EDGE('',*,*,#490,.T.);
#638=ORIENTED_EDGE('',*,*,#491,.T.);
#639=ORIENTED_EDGE('',*,*,#492,.T.);
#640=ORIENTED_EDGE('',*,*,#493,.T.);
#641=ORIENTED_EDGE('',*,*,#494,.T.);
#642=ORIENTED_EDGE('',*,*,#495,.T.);
#643=ORIENTED_EDGE('',*,*,#496,.T.);
#644=ORIENTED_EDGE('',*,*,#497,.T.);
#645=ORIENTED_EDGE('',*,*,#498,.T.);
#646=ORIENTED_EDGE('',*,*,#499,.T.);
#647=ORIENTED_EDGE('',*,*,#500,.T.);
#648=ORIENTED_EDGE('',*,*,#501,.T.);
#649=ORIENTED_EDGE('',*,*,#502,.T.);
#650=ORIENTED_EDGE('',*,*,#503,.T.);
#651=ORIENTED_EDGE('',*,*,#504,.T.);
#652=ORIENTED_EDGE('',*,*,#505,.T.);
#653=ORIENTED_EDGE('',*,*,#506,.T.);
#654=ORIENTED_EDGE('',*,*,#507,.T.);
#655=ORIENTED_EDGE('',*,*,#508,.T.);
#656=ORIENTED_EDGE('',*,*,#509,.T.);
#657=ORIENTED_EDGE('',*,*,#510,.T.);
#658=ORIENTED_EDGE('',*,*,#511,.T.);
#659=ORIENTED_EDGE('',*,*,#512,.T.);
#660=ORIENTED_EDGE('',*,*,#513,.T.);
#661=ORIENTED_EDGE('',*,*,#514,.T.);
#662=ORIENTED_EDGE('',*,*,#515,.T.);
#663=ORIENTED_EDGE('',*,*,#516,.T.);
#664=ORIENTED_EDGE('',*,*,#517,.F.);
#665=ORIENTED_EDGE('',*,*,#518,.F.);
#666=ORIENTED_EDGE('',*,*,#519,.F.);
#667=ORIENTED_EDGE('',*,*,#520,.F.);
#668=ORIENTED_EDGE('',*,*,#521,.F.);
#669=ORIENTED_EDGE('',*,*,#522,.F.);
#670=ORIENTED_EDGE('',*,*,#523,.F.);
#671=ORIENTED_EDGE('',*,*,#524,.F.);
#672=ORIENTED_EDGE('',*,*,#525,.F.);
#673=ORIENTED_EDGE('',*,*,#526,.F.);
#674=ORIENTED_EDGE('',*,*,#527,.F.);
#675=ORIENTED_EDGE('',*,*,#528,.F.);
#676=ORIENTED_EDGE('',*,*,#529,.F.);
#677=ORIENTED_EDGE('',*,*,#530,.F.);
#678=ORIENTED_EDGE('',*,*,#531,.F.);
#679=ORIENTED_EDGE('',*,*,#532,.F.);
#680=ORIENTED_EDGE('',*,*,#533,.F.);
#681=ORIENTED_EDGE('',*,*,#534,.F.);
#682=ORIENTED_EDGE('',*,*,#535,.F.);
#683=ORIENTED_EDGE('',*,*,#536,.F.);
#684=ORIENTED_EDGE('',*,*,#537,.F.);
#685=ORIENTED_EDGE('',*,*,#538,.F.);
#686=ORIENTED_EDGE('',*,*,#539,.F.);
#687=ORIENTED_EDGE('',*,*,#540,.F.);
#688=ORIENTED_EDGE('',*,*,#541,.F.);
#689=ORIENTED_EDGE('',*,*,#542,.F.);
#690=ORIENTED_EDGE('',*,*,#543,.F.);
#691=ORIENTED_EDGE('',*,*,#544,.F.);
#692=ORIENTED_EDGE('',*,*,#545,.F.);
#693=ORIENTED_EDGE('',*,*,#546,.F.);
#694=ORIENTED_EDGE('',*,*,#547,.F.);
#695=ORIENTED_EDGE('',*,*,#548,.F.);
#696=ORIENTED_EDGE('',*,*,#549,.F.);
#697=ORIENTED_EDGE('',*,*,#550,.F.);
#698=ORIENTED_EDGE('',*,*,#551,.F.);
#699=ORIENTED_EDGE('',*,*,#552,.F.);
#700=ORIENTED_EDGE('',*,*,#553,.F.);
#701=ORIENTED_EDGE('',*,*,#554,.F.);
#702=ORIENTED_EDGE('',*,*,#555,.F.);
#703=ORIENTED_EDGE('',*,*,#556,.F.);
#704=ORIENTED_EDGE('',*,*,#557,.F.);
#705=ORIENTED_EDGE('',*,*,#558,.F.);
#706=ORIENTED_EDGE('',*,*,#559,.F.);
#707=ORIENTED_EDGE('',*,*,#560,.F.);
#708=ORIENTED_EDGE('',*,*,#561,.F.);
#709=ORIENTED_EDGE('',*,*,#562,.F.);
#710=ORIENTED_EDGE('',*,*,#563,.F.);
#711=ORIENTED_EDGE('',*,*,#564,.F.);
#712=ORIENTED_EDGE('',*,*,#565,.F.);
#713=ORIENTED_EDGE('',*,*,#566,.T.);
#714=ORIENTED_EDGE('',*,*,#567,.T.);
#715=ORIENTED_EDGE('',*,*,#565,.T.);
#716=ORIENTED_EDGE('',*,*,#568,.F.);
#717=ORIENTED_EDGE('',*,*,#472,.F.);
#718=ORIENTED_EDGE('',*,*,#569,.T.);
#719=ORIENTED_EDGE('',*,*,#564,.T.);
#720=ORIENTED_EDGE('',*,*,#570,.F.);
#721=ORIENTED_EDGE('',*,*,#473,.F.);
#722=ORIENTED_EDGE('',*,*,#568,.T.);
#723=ORIENTED_EDGE('',*,*,#563,.T.);
#724=ORIENTED_EDGE('',*,*,#571,.F.);
#725=ORIENTED_EDGE('',*,*,#474,.F.);
#726=ORIENTED_EDGE('',*,*,#570,.T.);
#727=ORIENTED_EDGE('',*,*,#562,.T.);
#728=ORIENTED_EDGE('',*,*,#572,.F.);
#729=ORIENTED_EDGE('',*,*,#475,.F.);
#730=ORIENTED_EDGE('',*,*,#571,.T.);
#731=ORIENTED_EDGE('',*,*,#561,.T.);
#732=ORIENTED_EDGE('',*,*,#573,.F.);
#733=ORIENTED_EDGE('',*,*,#476,.F.);
#734=ORIENTED_EDGE('',*,*,#572,.T.);
#735=ORIENTED_EDGE('',*,*,#560,.T.);
#736=ORIENTED_EDGE('',*,*,#574,.F.);
#737=ORIENTED_EDGE('',*,*,#477,.F.);
#738=ORIENTED_EDGE('',*,*,#573,.T.);
#739=ORIENTED_EDGE('',*,*,#559,.T.);
#740=ORIENTED_EDGE('',*,*,#575,.F.);
#741=ORIENTED_EDGE('',*,*,#478,.F.);
#742=ORIENTED_EDGE('',*,*,#574,.T.);
#743=ORIENTED_EDGE('',*,*,#558,.T.);
#744=ORIENTED_EDGE('',*,*,#576,.F.);
#745=ORIENTED_EDGE('',*,*,#479,.F.);
#746=ORIENTED_EDGE('',*,*,#575,.T.);
#747=ORIENTED_EDGE('',*,*,#557,.T.);
#748=ORIENTED_EDGE('',*,*,#577,.F.);
#749=ORIENTED_EDGE('',*,*,#480,.F.);
#750=ORIENTED_EDGE('',*,*,#576,.T.);
#751=ORIENTED_EDGE('',*,*,#556,.T.);
#752=ORIENTED_EDGE('',*,*,#578,.F.);
#753=ORIENTED_EDGE('',*,*,#481,.F.);
#754=ORIENTED_EDGE('',*,*,#577,.T.);
#755=ORIENTED_EDGE('',*,*,#555,.T.);
#756=ORIENTED_EDGE('',*,*,#579,.F.);
#757=ORIENTED_EDGE('',*,*,#482,.F.);
#758=ORIENTED_EDGE('',*,*,#578,.T.);
#759=ORIENTED_EDGE('',*,*,#554,.T.);
#760=ORIENTED_EDGE('',*,*,#580,.F.);
#761=ORIENTED_EDGE('',*,*,#483,.F.);
#762=ORIENTED_EDGE('',*,*,#579,.T.);
#763=ORIENTED_EDGE('',*,*,#553,.T.);
#764=ORIENTED_EDGE('',*,*,#581,.F.);
#765=ORIENTED_EDGE('',*,*,#484,.F.);
#766=ORIENTED_EDGE('',*,*,#580,.T.);
#767=ORIENTED_EDGE('',*,*,#552,.T.);
#768=ORIENTED_EDGE('',*,*,#582,.F.);
#769=ORIENTED_EDGE('',*,*,#485,.F.);
#770=ORIENTED_EDGE('',*,*,#581,.T.);
#771=ORIENTED_EDGE('',*,*,#551,.T.);
#772=ORIENTED_EDGE('',*,*,#583,.F.);
#773=ORIENTED_EDGE('',*,*,#486,.F.);
#774=ORIENTED_EDGE('',*,*,#582,.T.);
#775=ORIENTED_EDGE('',*,*,#550,.T.);
#776=ORIENTED_EDGE('',*,*,#584,.F.);
#777=ORIENTED_EDGE('',*,*,#487,.F.);
#778=ORIENTED_EDGE('',*,*,#583,.T.);
#779=ORIENTED_EDGE('',*,*,#549,.T.);
#780=ORIENTED_EDGE('',*,*,#585,.F.);
#781=ORIENTED_EDGE('',*,*,#488,.F.);
#782=ORIENTED_EDGE('',*,*,#584,.T.);
#783=ORIENTED_EDGE('',*,*,#548,.T.);
#784=ORIENTED_EDGE('',*,*,#586,.F.);
#785=ORIENTED_EDGE('',*,*,#489,.F.);
#786=ORIENTED_EDGE('',*,*,#585,.T.);
#787=ORIENTED_EDGE('',*,*,#547,.T.);
#788=ORIENTED_EDGE('',*,*,#587,.F.);
#789=ORIENTED_EDGE('',*,*,#490,.F.);
#790=ORIENTED_EDGE('',*,*,#586,.T.);
#791=ORIENTED_EDGE('',*,*,#546,.T.);
#792=ORIENTED_EDGE('',*,*,#588,.F.);
#793=ORIENTED_EDGE('',*,*,#491,.F.);
#794=ORIENTED_EDGE('',*,*,#587,.T.);
#795=ORIENTED_EDGE('',*,*,#545,.T.);
#796=ORIENTED_EDGE('',*,*,#589,.F.);
#797=ORIENTED_EDGE('',*,*,#492,.F.);
#798=ORIENTED_EDGE('',*,*,#588,.T.);
#799=ORIENTED_EDGE('',*,*,#544,.T.);
#800=ORIENTED_EDGE('',*,*,#590,.F.);
#801=ORIENTED_EDGE('',*,*,#493,.F.);
#802=ORIENTED_EDGE('',*,*,#589,.T.);
#803=ORIENTED_EDGE('',*,*,#543,.T.);
#804=ORIENTED_EDGE('',*,*,#591,.F.);
#805=ORIENTED_EDGE('',*,*,#494,.F.);
#806=ORIENTED_EDGE('',*,*,#590,.T.);
#807=ORIENTED_EDGE('',*,*,#542,.T.);
#808=ORIENTED_EDGE('',*,*,#592,.F.);
#809=ORIENTED_EDGE('',*,*,#495,.F.);
#810=ORIENTED_EDGE('',*,*,#591,.T.);
#811=ORIENTED_EDGE('',*,*,#541,.T.);
#812=ORIENTED_EDGE('',*,*,#593,.F.);
#813=ORIENTED_EDGE('',*,*,#496,.F.);
#814=ORIENTED_EDGE('',*,*,#592,.T.);
#815=ORIENTED_EDGE('',*,*,#540,.T.);
#816=ORIENTED_EDGE('',*,*,#594,.F.);
#817=ORIENTED_EDGE('',*,*,#497,.F.);
#818=ORIENTED_EDGE('',*,*,#593,.T.);
#819=ORIENTED_EDGE('',*,*,#539,.T.);
#820=ORIENTED_EDGE('',*,*,#595,.F.);
#821=ORIENTED_EDGE('',*,*,#498,.F.);
#822=ORIENTED_EDGE('',*,*,#594,.T.);
#823=ORIENTED_EDGE('',*,*,#538,.T.);
#824=ORIENTED_EDGE('',*,*,#596,.F.);
#825=ORIENTED_EDGE('',*,*,#499,.F.);
#826=ORIENTED_EDGE('',*,*,#595,.T.);
#827=ORIENTED_EDGE('',*,*,#537,.T.);
#828=ORIENTED_EDGE('',*,*,#597,.F.);
#829=ORIENTED_EDGE('',*,*,#500,.F.);
#830=ORIENTED_EDGE('',*,*,#596,.T.);
#831=ORIENTED_EDGE('',*,*,#536,.T.);
#832=ORIENTED_EDGE('',*,*,#598,.F.);
#833=ORIENTED_EDGE('',*,*,#501,.F.);
#834=ORIENTED_EDGE('',*,*,#597,.T.);
#835=ORIENTED_EDGE('',*,*,#535,.T.);
#836=ORIENTED_EDGE('',*,*,#599,.F.);
#837=ORIENTED_EDGE('',*,*,#502,.F.);
#838=ORIENTED_EDGE('',*,*,#598,.T.);
#839=ORIENTED_EDGE('',*,*,#534,.T.);
#840=ORIENTED_EDGE('',*,*,#600,.F.);
#841=ORIENTED_EDGE('',*,*,#503,.F.);
#842=ORIENTED_EDGE('',*,*,#599,.T.);
#843=ORIENTED_EDGE('',*,*,#533,.T.);
#844=ORIENTED_EDGE('',*,*,#601,.F.);
#845=ORIENTED_EDGE('',*,*,#504,.F.);
#846=ORIENTED_EDGE('',*,*,#600,.T.);
#847=ORIENTED_EDGE('',*,*,#532,.T.);
#848=ORIENTED_EDGE('',*,*,#602,.F.);
#849=ORIENTED_EDGE('',*,*,#505,.F.);
#850=ORIENTED_EDGE('',*,*,#601,.T.);
#851=ORIENTED_EDGE('',*,*,#531,.T.);
#852=ORIENTED_EDGE('',*,*,#603,.F.);
#853=ORIENTED_EDGE('',*,*,#506,.F.);
#854=ORIENTED_EDGE('',*,*,#602,.T.);
#855=ORIENTED_EDGE('',*,*,#530,.T.);
#856=ORIENTED_EDGE('',*,*,#604,.F.);
#857=ORIENTED_EDGE('',*,*,#507,.F.);
#858=ORIENTED_EDGE('',*,*,#603,.T.);
#859=ORIENTED_EDGE('',*,*,#529,.T.);
#860=ORIENTED_EDGE('',*,*,#605,.F.);
#861=ORIENTED_EDGE('',*,*,#508,.F.);
#862=ORIENTED_EDGE('',*,*,#604,.T.);
#863=ORIENTED_EDGE('',*,*,#528,.T.);
#864=ORIENTED_EDGE('',*,*,#606,.F.);
#865=ORIENTED_EDGE('',*,*,#509,.F.);
#866=ORIENTED_EDGE('',*,*,#605,.T.);
#867=ORIENTED_EDGE('',*,*,#527,.T.);
#868=ORIENTED_EDGE('',*,*,#607,.F.);
#869=ORIENTED_EDGE('',*,*,#510,.F.);
#870=ORIENTED_EDGE('',*,*,#606,.T.);
#871=ORIENTED_EDGE('',*,*,#526,.T.);
#872=ORIENTED_EDGE('',*,*,#608,.F.);
#873=ORIENTED_EDGE('',*,*,#511,.F.);
#874=ORIENTED_EDGE('',*,*,#607,.T.);
#875=ORIENTED_EDGE('',*,*,#525,.T.);
#876=ORIENTED_EDGE('',*,*,#609,.F.);
#877=ORIENTED_EDGE('',*,*,#512,.F.);
#878=ORIENTED_EDGE('',*,*,#608,.T.);
#879=ORIENTED_EDGE('',*,*,#524,.T.);
#880=ORIENTED_EDGE('',*,*,#610,.F.);
#881=ORIENTED_EDGE('',*,*,#513,.F.);
#882=ORIENTED_EDGE('',*,*,#609,.T.);
#883=ORIENTED_EDGE('',*,*,#523,.T.);
#884=ORIENTED_EDGE('',*,*,#611,.F.);
#885=ORIENTED_EDGE('',*,*,#514,.F.);
#886=ORIENTED_EDGE('',*,*,#610,.T.);
#887=ORIENTED_EDGE('',*,*,#522,.T.);
#888=ORIENTED_EDGE('',*,*,#612,.F.);
#889=ORIENTED_EDGE('',*,*,#515,.F.);
#890=ORIENTED_EDGE('',*,*,#611,.T.);
#891=ORIENTED_EDGE('',*,*,#521,.T.);
#892=ORIENTED_EDGE('',*,*,#613,.F.);
#893=ORIENTED_EDGE('',*,*,#516,.F.);
#894=ORIENTED_EDGE('',*,*,#612,.T.);
#895=ORIENTED_EDGE('',*,*,#520,.T.);
#896=ORIENTED_EDGE('',*,*,#614,.T.);
#897=ORIENTED_EDGE('',*,*,#470,.F.);
#898=ORIENTED_EDGE('',*,*,#613,.T.);
#899=ORIENTED_EDGE('',*,*,#519,.T.);
#900=ORIENTED_EDGE('',*,*,#569,.F.);
#901=ORIENTED_EDGE('',*,*,#471,.F.);
#902=ORIENTED_EDGE('',*,*,#614,.F.);
#903=ORIENTED_EDGE('',*,*,#517,.T.);
#904=ORIENTED_EDGE('',*,*,#615,.T.);
#905=ORIENTED_EDGE('',*,*,#567,.F.);
#906=ORIENTED_EDGE('',*,*,#615,.F.);
#907=ORIENTED_EDGE('',*,*,#518,.T.);
#908=ORIENTED_EDGE('',*,*,#616,.T.);
#909=ORIENTED_EDGE('',*,*,#566,.F.);
#910=ORIENTED_EDGE('',*,*,#616,.F.);
#911=PLANE('',#980);
#912=PLANE('',#1028);
#913=PLANE('',#1077);
#914=PLANE('',#1122);
#915=ADVANCED_FACE('',(#66,#62,#63),#911,.T.);
#916=ADVANCED_FACE('',(#67,#64,#65),#912,.F.);
#917=ADVANCED_FACE('',(#68),#15,.T.);
#918=ADVANCED_FACE('',(#69),#913,.F.);
#919=ADVANCED_FACE('',(#70),#16,.T.);
#920=ADVANCED_FACE('',(#71),#17,.T.);
#921=ADVANCED_FACE('',(#72),#18,.T.);
#922=ADVANCED_FACE('',(#73),#19,.T.);
#923=ADVANCED_FACE('',(#74),#20,.T.);
#924=ADVANCED_FACE('',(#75),#21,.T.);
#925=ADVANCED_FACE('',(#76),#22,.T.);
#926=ADVANCED_FACE('',(#77),#23,.T.);
#927=ADVANCED_FACE('',(#78),#24,.T.);
#928=ADVANCED_FACE('',(#79),#25,.T.);
#929=ADVANCED_FACE('',(#80),#26,.T.);
#930=ADVANCED_FACE('',(#81),#27,.T.);
#931=ADVANCED_FACE('',(#82),#28,.T.);
#932=ADVANCED_FACE('',(#83),#29,.T.);
#933=ADVANCED_FACE('',(#84),#30,.T.);
#934=ADVANCED_FACE('',(#85),#31,.T.);
#935=ADVANCED_FACE('',(#86),#32,.T.);
#936=ADVANCED_FACE('',(#87),#33,.T.);
#937=ADVANCED_FACE('',(#88),#34,.T.);
#938=ADVANCED_FACE('',(#89),#35,.T.);
#939=ADVANCED_FACE('',(#90),#36,.T.);
#940=ADVANCED_FACE('',(#91),#37,.T.);
#941=ADVANCED_FACE('',(#92),#38,.T.);
#942=ADVANCED_FACE('',(#93),#39,.T.);
#943=ADVANCED_FACE('',(#94),#40,.T.);
#944=ADVANCED_FACE('',(#95),#41,.T.);
#945=ADVANCED_FACE('',(#96),#42,.T.);
#946=ADVANCED_FACE('',(#97),#43,.T.);
#947=ADVANCED_FACE('',(#98),#44,.T.);
#948=ADVANCED_FACE('',(#99),#45,.T.);
#949=ADVANCED_FACE('',(#100),#46,.T.);
#950=ADVANCED_FACE('',(#101),#47,.T.);
#951=ADVANCED_FACE('',(#102),#48,.T.);
#952=ADVANCED_FACE('',(#103),#49,.T.);
#953=ADVANCED_FACE('',(#104),#50,.T.);
#954=ADVANCED_FACE('',(#105),#51,.T.);
#955=ADVANCED_FACE('',(#106),#52,.T.);
#956=ADVANCED_FACE('',(#107),#53,.T.);
#957=ADVANCED_FACE('',(#108),#54,.T.);
#958=ADVANCED_FACE('',(#109),#55,.T.);
#959=ADVANCED_FACE('',(#110),#56,.T.);
#960=ADVANCED_FACE('',(#111),#57,.T.);
#961=ADVANCED_FACE('',(#112),#58,.T.);
#962=ADVANCED_FACE('',(#113),#59,.T.);
#963=ADVANCED_FACE('',(#114),#914,.F.);
#964=ADVANCED_FACE('',(#115),#60,.F.);
#965=ADVANCED_FACE('',(#116),#61,.F.);
#966=CLOSED_SHELL('',(#915,#916,#917,#918,#919,#920,#921,#922,#923,#924,
#925,#926,#927,#928,#929,#930,#931,#932,#933,#934,#935,#936,#937,#938,#939,
#940,#941,#942,#943,#944,#945,#946,#947,#948,#949,#950,#951,#952,#953,#954,
#955,#956,#957,#958,#959,#960,#961,#962,#963,#964,#965));
#967=DERIVED_UNIT_ELEMENT(#969,1.);
#968=DERIVED_UNIT_ELEMENT(#1772,-3.);
#969=(
MASS_UNIT()
NAMED_UNIT(*)
SI_UNIT(.KILO.,.GRAM.)
);
#970=DERIVED_UNIT((#967,#968));
#971=MEASURE_REPRESENTATION_ITEM('density measure',
POSITIVE_RATIO_MEASURE(7850.),#970);
#972=PROPERTY_DEFINITION_REPRESENTATION(#977,#974);
#973=PROPERTY_DEFINITION_REPRESENTATION(#978,#975);
#974=REPRESENTATION('material name',(#976),#1769);
#975=REPRESENTATION('density',(#971),#1769);
#976=DESCRIPTIVE_REPRESENTATION_ITEM('Steel','Steel');
#977=PROPERTY_DEFINITION('material property','material name',#1779);
#978=PROPERTY_DEFINITION('material property','density of part',#1779);
#979=AXIS2_PLACEMENT_3D('',#1470,#1125,#1126);
#980=AXIS2_PLACEMENT_3D('',#1471,#1127,#1128);
#981=AXIS2_PLACEMENT_3D('',#1474,#1129,#1130);
#982=AXIS2_PLACEMENT_3D('',#1478,#1132,#1133);
#983=AXIS2_PLACEMENT_3D('',#1482,#1135,#1136);
#984=AXIS2_PLACEMENT_3D('',#1484,#1137,#1138);
#985=AXIS2_PLACEMENT_3D('',#1486,#1139,#1140);
#986=AXIS2_PLACEMENT_3D('',#1488,#1141,#1142);
#987=AXIS2_PLACEMENT_3D('',#1490,#1143,#1144);
#988=AXIS2_PLACEMENT_3D('',#1492,#1145,#1146);
#989=AXIS2_PLACEMENT_3D('',#1494,#1147,#1148);
#990=AXIS2_PLACEMENT_3D('',#1496,#1149,#1150);
#991=AXIS2_PLACEMENT_3D('',#1498,#1151,#1152);
#992=AXIS2_PLACEMENT_3D('',#1500,#1153,#1154);
#993=AXIS2_PLACEMENT_3D('',#1502,#1155,#1156);
#994=AXIS2_PLACEMENT_3D('',#1504,#1157,#1158);
#995=AXIS2_PLACEMENT_3D('',#1506,#1159,#1160);
#996=AXIS2_PLACEMENT_3D('',#1508,#1161,#1162);
#997=AXIS2_PLACEMENT_3D('',#1510,#1163,#1164);
#998=AXIS2_PLACEMENT_3D('',#1512,#1165,#1166);
#999=AXIS2_PLACEMENT_3D('',#1514,#1167,#1168);
#1000=AXIS2_PLACEMENT_3D('',#1516,#1169,#1170);
#1001=AXIS2_PLACEMENT_3D('',#1518,#1171,#1172);
#1002=AXIS2_PLACEMENT_3D('',#1520,#1173,#1174);
#1003=AXIS2_PLACEMENT_3D('',#1522,#1175,#1176);
#1004=AXIS2_PLACEMENT_3D('',#1524,#1177,#1178);
#1005=AXIS2_PLACEMENT_3D('',#1526,#1179,#1180);
#1006=AXIS2_PLACEMENT_3D('',#1528,#1181,#1182);
#1007=AXIS2_PLACEMENT_3D('',#1530,#1183,#1184);
#1008=AXIS2_PLACEMENT_3D('',#1532,#1185,#1186);
#1009=AXIS2_PLACEMENT_3D('',#1534,#1187,#1188);
#1010=AXIS2_PLACEMENT_3D('',#1536,#1189,#1190);
#1011=AXIS2_PLACEMENT_3D('',#1538,#1191,#1192);
#1012=AXIS2_PLACEMENT_3D('',#1540,#1193,#1194);
#1013=AXIS2_PLACEMENT_3D('',#1542,#1195,#1196);
#1014=AXIS2_PLACEMENT_3D('',#1544,#1197,#1198);
#1015=AXIS2_PLACEMENT_3D('',#1546,#1199,#1200);
#1016=AXIS2_PLACEMENT_3D('',#1548,#1201,#1202);
#1017=AXIS2_PLACEMENT_3D('',#1550,#1203,#1204);
#1018=AXIS2_PLACEMENT_3D('',#1552,#1205,#1206);
#1019=AXIS2_PLACEMENT_3D('',#1554,#1207,#1208);
#1020=AXIS2_PLACEMENT_3D('',#1556,#1209,#1210);
#1021=AXIS2_PLACEMENT_3D('',#1558,#1211,#1212);
#1022=AXIS2_PLACEMENT_3D('',#1560,#1213,#1214);
#1023=AXIS2_PLACEMENT_3D('',#1562,#1215,#1216);
#1024=AXIS2_PLACEMENT_3D('',#1564,#1217,#1218);
#1025=AXIS2_PLACEMENT_3D('',#1565,#1219,#1220);
#1026=AXIS2_PLACEMENT_3D('',#1567,#1221,#1222);
#1027=AXIS2_PLACEMENT_3D('',#1569,#1223,#1224);
#1028=AXIS2_PLACEMENT_3D('',#1570,#1225,#1226);
#1029=AXIS2_PLACEMENT_3D('',#1575,#1228,#1229);
#1030=AXIS2_PLACEMENT_3D('',#1577,#1230,#1231);
#1031=AXIS2_PLACEMENT_3D('',#1579,#1232,#1233);
#1032=AXIS2_PLACEMENT_3D('',#1581,#1234,#1235);
#1033=AXIS2_PLACEMENT_3D('',#1583,#1236,#1237);
#1034=AXIS2_PLACEMENT_3D('',#1585,#1238,#1239);
#1035=AXIS2_PLACEMENT_3D('',#1587,#1240,#1241);
#1036=AXIS2_PLACEMENT_3D('',#1589,#1242,#1243);
#1037=AXIS2_PLACEMENT_3D('',#1591,#1244,#1245);
#1038=AXIS2_PLACEMENT_3D('',#1593,#1246,#1247);
#1039=AXIS2_PLACEMENT_3D('',#1595,#1248,#1249);
#1040=AXIS2_PLACEMENT_3D('',#1597,#1250,#1251);
#1041=AXIS2_PLACEMENT_3D('',#1599,#1252,#1253);
#1042=AXIS2_PLACEMENT_3D('',#1601,#1254,#1255);
#1043=AXIS2_PLACEMENT_3D('',#1603,#1256,#1257);
#1044=AXIS2_PLACEMENT_3D('',#1605,#1258,#1259);
#1045=AXIS2_PLACEMENT_3D('',#1607,#1260,#1261);
#1046=AXIS2_PLACEMENT_3D('',#1609,#1262,#1263);
#1047=AXIS2_PLACEMENT_3D('',#1611,#1264,#1265);
#1048=AXIS2_PLACEMENT_3D('',#1613,#1266,#1267);
#1049=AXIS2_PLACEMENT_3D('',#1615,#1268,#1269);
#1050=AXIS2_PLACEMENT_3D('',#1617,#1270,#1271);
#1051=AXIS2_PLACEMENT_3D('',#1619,#1272,#1273);
#1052=AXIS2_PLACEMENT_3D('',#1621,#1274,#1275);
#1053=AXIS2_PLACEMENT_3D('',#1623,#1276,#1277);
#1054=AXIS2_PLACEMENT_3D('',#1625,#1278,#1279);
#1055=AXIS2_PLACEMENT_3D('',#1627,#1280,#1281);
#1056=AXIS2_PLACEMENT_3D('',#1629,#1282,#1283);
#1057=AXIS2_PLACEMENT_3D('',#1631,#1284,#1285);
#1058=AXIS2_PLACEMENT_3D('',#1633,#1286,#1287);
#1059=AXIS2_PLACEMENT_3D('',#1635,#1288,#1289);
#1060=AXIS2_PLACEMENT_3D('',#1637,#1290,#1291);
#1061=AXIS2_PLACEMENT_3D('',#1639,#1292,#1293);
#1062=AXIS2_PLACEMENT_3D('',#1641,#1294,#1295);
#1063=AXIS2_PLACEMENT_3D('',#1643,#1296,#1297);
#1064=AXIS2_PLACEMENT_3D('',#1645,#1298,#1299);
#1065=AXIS2_PLACEMENT_3D('',#1647,#1300,#1301);
#1066=AXIS2_PLACEMENT_3D('',#1649,#1302,#1303);
#1067=AXIS2_PLACEMENT_3D('',#1651,#1304,#1305);
#1068=AXIS2_PLACEMENT_3D('',#1653,#1306,#1307);
#1069=AXIS2_PLACEMENT_3D('',#1655,#1308,#1309);
#1070=AXIS2_PLACEMENT_3D('',#1657,#1310,#1311);
#1071=AXIS2_PLACEMENT_3D('',#1659,#1312,#1313);
#1072=AXIS2_PLACEMENT_3D('',#1661,#1314,#1315);
#1073=AXIS2_PLACEMENT_3D('',#1664,#1317,#1318);
#1074=AXIS2_PLACEMENT_3D('',#1666,#1319,#1320);
#1075=AXIS2_PLACEMENT_3D('',#1668,#1321,#1322);
#1076=AXIS2_PLACEMENT_3D('',#1669,#1323,#1324);
#1077=AXIS2_PLACEMENT_3D('',#1672,#1327,#1328);
#1078=AXIS2_PLACEMENT_3D('',#1674,#1330,#1331);
#1079=AXIS2_PLACEMENT_3D('',#1676,#1333,#1334);
#1080=AXIS2_PLACEMENT_3D('',#1678,#1336,#1337);
#1081=AXIS2_PLACEMENT_3D('',#1680,#1339,#1340);
#1082=AXIS2_PLACEMENT_3D('',#1682,#1342,#1343);
#1083=AXIS2_PLACEMENT_3D('',#1684,#1345,#1346);
#1084=AXIS2_PLACEMENT_3D('',#1686,#1348,#1349);
#1085=AXIS2_PLACEMENT_3D('',#1688,#1351,#1352);
#1086=AXIS2_PLACEMENT_3D('',#1690,#1354,#1355);
#1087=AXIS2_PLACEMENT_3D('',#1692,#1357,#1358);
#1088=AXIS2_PLACEMENT_3D('',#1694,#1360,#1361);
#1089=AXIS2_PLACEMENT_3D('',#1696,#1363,#1364);
#1090=AXIS2_PLACEMENT_3D('',#1698,#1366,#1367);
#1091=AXIS2_PLACEMENT_3D('',#1700,#1369,#1370);
#1092=AXIS2_PLACEMENT_3D('',#1702,#1372,#1373);
#1093=AXIS2_PLACEMENT_3D('',#1704,#1375,#1376);
#1094=AXIS2_PLACEMENT_3D('',#1706,#1378,#1379);
#1095=AXIS2_PLACEMENT_3D('',#1708,#1381,#1382);
#1096=AXIS2_PLACEMENT_3D('',#1710,#1384,#1385);
#1097=AXIS2_PLACEMENT_3D('',#1712,#1387,#1388);
#1098=AXIS2_PLACEMENT_3D('',#1714,#1390,#1391);
#1099=AXIS2_PLACEMENT_3D('',#1716,#1393,#1394);
#1100=AXIS2_PLACEMENT_3D('',#1718,#1396,#1397);
#1101=AXIS2_PLACEMENT_3D('',#1720,#1399,#1400);
#1102=AXIS2_PLACEMENT_3D('',#1722,#1402,#1403);
#1103=AXIS2_PLACEMENT_3D('',#1724,#1405,#1406);
#1104=AXIS2_PLACEMENT_3D('',#1726,#1408,#1409);
#1105=AXIS2_PLACEMENT_3D('',#1728,#1411,#1412);
#1106=AXIS2_PLACEMENT_3D('',#1730,#1414,#1415);
#1107=AXIS2_PLACEMENT_3D('',#1732,#1417,#1418);
#1108=AXIS2_PLACEMENT_3D('',#1734,#1420,#1421);
#1109=AXIS2_PLACEMENT_3D('',#1736,#1423,#1424);
#1110=AXIS2_PLACEMENT_3D('',#1738,#1426,#1427);
#1111=AXIS2_PLACEMENT_3D('',#1740,#1429,#1430);
#1112=AXIS2_PLACEMENT_3D('',#1742,#1432,#1433);
#1113=AXIS2_PLACEMENT_3D('',#1744,#1435,#1436);
#1114=AXIS2_PLACEMENT_3D('',#1746,#1438,#1439);
#1115=AXIS2_PLACEMENT_3D('',#1748,#1441,#1442);
#1116=AXIS2_PLACEMENT_3D('',#1750,#1444,#1445);
#1117=AXIS2_PLACEMENT_3D('',#1752,#1447,#1448);
#1118=AXIS2_PLACEMENT_3D('',#1754,#1450,#1451);
#1119=AXIS2_PLACEMENT_3D('',#1756,#1453,#1454);
#1120=AXIS2_PLACEMENT_3D('',#1758,#1456,#1457);
#1121=AXIS2_PLACEMENT_3D('',#1760,#1459,#1460);
#1122=AXIS2_PLACEMENT_3D('',#1762,#1462,#1463);
#1123=AXIS2_PLACEMENT_3D('',#1763,#1464,#1465);
#1124=AXIS2_PLACEMENT_3D('',#1765,#1467,#1468);
#1125=DIRECTION('axis',(0.,0.,1.));
#1126=DIRECTION('refdir',(1.,0.,0.));
#1127=DIRECTION('center_axis',(0.,1.,0.));
#1128=DIRECTION('ref_axis',(0.,0.,1.));
#1129=DIRECTION('center_axis',(0.,1.,0.));
#1130=DIRECTION('ref_axis',(0.,0.,1.));
#1131=DIRECTION('',(1.,0.,8.61173738949122E-17));
#1132=DIRECTION('center_axis',(0.,1.,0.));
#1133=DIRECTION('ref_axis',(0.,0.,1.));
#1134=DIRECTION('',(-1.,0.,8.97173335537216E-17));
#1135=DIRECTION('center_axis',(0.,1.,0.));
#1136=DIRECTION('ref_axis',(0.,0.,1.));
#1137=DIRECTION('center_axis',(0.,1.,0.));
#1138=DIRECTION('ref_axis',(0.,0.,1.));
#1139=DIRECTION('center_axis',(0.,1.,0.));
#1140=DIRECTION('ref_axis',(0.,0.,1.));
#1141=DIRECTION('center_axis',(0.,1.,0.));
#1142=DIRECTION('ref_axis',(0.,0.,1.));
#1143=DIRECTION('center_axis',(0.,1.,0.));
#1144=DIRECTION('ref_axis',(0.,0.,1.));
#1145=DIRECTION('center_axis',(0.,1.,0.));
#1146=DIRECTION('ref_axis',(0.,0.,1.));
#1147=DIRECTION('center_axis',(0.,1.,0.));
#1148=DIRECTION('ref_axis',(0.,0.,1.));
#1149=DIRECTION('center_axis',(0.,1.,0.));
#1150=DIRECTION('ref_axis',(0.,0.,1.));
#1151=DIRECTION('center_axis',(0.,1.,0.));
#1152=DIRECTION('ref_axis',(0.,0.,1.));
#1153=DIRECTION('center_axis',(0.,1.,0.));
#1154=DIRECTION('ref_axis',(0.,0.,1.));
#1155=DIRECTION('center_axis',(0.,1.,0.));
#1156=DIRECTION('ref_axis',(0.,0.,1.));
#1157=DIRECTION('center_axis',(0.,1.,0.));
#1158=DIRECTION('ref_axis',(0.,0.,1.));
#1159=DIRECTION('center_axis',(0.,1.,0.));
#1160=DIRECTION('ref_axis',(0.,0.,1.));
#1161=DIRECTION('center_axis',(0.,1.,0.));
#1162=DIRECTION('ref_axis',(0.,0.,1.));
#1163=DIRECTION('center_axis',(0.,1.,0.));
#1164=DIRECTION('ref_axis',(0.,0.,1.));
#1165=DIRECTION('center_axis',(0.,1.,0.));
#1166=DIRECTION('ref_axis',(0.,0.,1.));
#1167=DIRECTION('center_axis',(0.,1.,0.));
#1168=DIRECTION('ref_axis',(0.,0.,1.));
#1169=DIRECTION('center_axis',(0.,1.,0.));
#1170=DIRECTION('ref_axis',(0.,0.,1.));
#1171=DIRECTION('center_axis',(0.,1.,0.));
#1172=DIRECTION('ref_axis',(0.,0.,1.));
#1173=DIRECTION('center_axis',(0.,1.,0.));
#1174=DIRECTION('ref_axis',(0.,0.,1.));
#1175=DIRECTION('center_axis',(0.,1.,0.));
#1176=DIRECTION('ref_axis',(0.,0.,1.));
#1177=DIRECTION('center_axis',(0.,1.,0.));
#1178=DIRECTION('ref_axis',(0.,0.,1.));
#1179=DIRECTION('center_axis',(0.,1.,0.));
#1180=DIRECTION('ref_axis',(0.,0.,1.));
#1181=DIRECTION('center_axis',(0.,1.,0.));
#1182=DIRECTION('ref_axis',(0.,0.,1.));
#1183=DIRECTION('center_axis',(0.,1.,0.));
#1184=DIRECTION('ref_axis',(0.,0.,1.));
#1185=DIRECTION('center_axis',(0.,1.,0.));
#1186=DIRECTION('ref_axis',(0.,0.,1.));
#1187=DIRECTION('center_axis',(0.,1.,0.));
#1188=DIRECTION('ref_axis',(0.,0.,1.));
#1189=DIRECTION('center_axis',(0.,1.,0.));
#1190=DIRECTION('ref_axis',(0.,0.,1.));
#1191=DIRECTION('center_axis',(0.,1.,0.));
#1192=DIRECTION('ref_axis',(0.,0.,1.));
#1193=DIRECTION('center_axis',(0.,1.,0.));
#1194=DIRECTION('ref_axis',(0.,0.,1.));
#1195=DIRECTION('center_axis',(0.,1.,0.));
#1196=DIRECTION('ref_axis',(0.,0.,1.));
#1197=DIRECTION('center_axis',(0.,1.,0.));
#1198=DIRECTION('ref_axis',(0.,0.,1.));
#1199=DIRECTION('center_axis',(0.,1.,0.));
#1200=DIRECTION('ref_axis',(0.,0.,1.));
#1201=DIRECTION('center_axis',(0.,1.,0.));
#1202=DIRECTION('ref_axis',(0.,0.,1.));
#1203=DIRECTION('center_axis',(0.,1.,0.));
#1204=DIRECTION('ref_axis',(0.,0.,1.));
#1205=DIRECTION('center_axis',(0.,1.,0.));
#1206=DIRECTION('ref_axis',(0.,0.,1.));
#1207=DIRECTION('center_axis',(0.,1.,0.));
#1208=DIRECTION('ref_axis',(0.,0.,1.));
#1209=DIRECTION('center_axis',(0.,1.,0.));
#1210=DIRECTION('ref_axis',(0.,0.,1.));
#1211=DIRECTION('center_axis',(0.,1.,0.));
#1212=DIRECTION('ref_axis',(0.,0.,1.));
#1213=DIRECTION('center_axis',(0.,1.,0.));
#1214=DIRECTION('ref_axis',(0.,0.,1.));
#1215=DIRECTION('center_axis',(0.,1.,0.));
#1216=DIRECTION('ref_axis',(0.,0.,1.));
#1217=DIRECTION('center_axis',(0.,1.,0.));
#1218=DIRECTION('ref_axis',(0.,0.,1.));
#1219=DIRECTION('center_axis',(0.,1.,0.));
#1220=DIRECTION('ref_axis',(0.,0.,1.));
#1221=DIRECTION('center_axis',(0.,1.,0.));
#1222=DIRECTION('ref_axis',(0.,0.,1.));
#1223=DIRECTION('center_axis',(0.,1.,0.));
#1224=DIRECTION('ref_axis',(0.,0.,1.));
#1225=DIRECTION('center_axis',(0.,1.,0.));
#1226=DIRECTION('ref_axis',(0.,0.,1.));
#1227=DIRECTION('',(1.,0.,8.61173738949122E-17));
#1228=DIRECTION('center_axis',(0.,1.,0.));
#1229=DIRECTION('ref_axis',(0.,0.,1.));
#1230=DIRECTION('center_axis',(0.,1.,0.));
#1231=DIRECTION('ref_axis',(0.,0.,1.));
#1232=DIRECTION('center_axis',(0.,1.,0.));
#1233=DIRECTION('ref_axis',(0.,0.,1.));
#1234=DIRECTION('center_axis',(0.,1.,0.));
#1235=DIRECTION('ref_axis',(0.,0.,1.));
#1236=DIRECTION('center_axis',(0.,1.,0.));
#1237=DIRECTION('ref_axis',(0.,0.,1.));
#1238=DIRECTION('center_axis',(0.,1.,0.));
#1239=DIRECTION('ref_axis',(0.,0.,1.));
#1240=DIRECTION('center_axis',(0.,1.,0.));
#1241=DIRECTION('ref_axis',(0.,0.,1.));
#1242=DIRECTION('center_axis',(0.,1.,0.));
#1243=DIRECTION('ref_axis',(0.,0.,1.));
#1244=DIRECTION('center_axis',(0.,1.,0.));
#1245=DIRECTION('ref_axis',(0.,0.,1.));
#1246=DIRECTION('center_axis',(0.,1.,0.));
#1247=DIRECTION('ref_axis',(0.,0.,1.));
#1248=DIRECTION('center_axis',(0.,1.,0.));
#1249=DIRECTION('ref_axis',(0.,0.,1.));
#1250=DIRECTION('center_axis',(0.,1.,0.));
#1251=DIRECTION('ref_axis',(0.,0.,1.));
#1252=DIRECTION('center_axis',(0.,1.,0.));
#1253=DIRECTION('ref_axis',(0.,0.,1.));
#1254=DIRECTION('center_axis',(0.,1.,0.));
#1255=DIRECTION('ref_axis',(0.,0.,1.));
#1256=DIRECTION('center_axis',(0.,1.,0.));
#1257=DIRECTION('ref_axis',(0.,0.,1.));
#1258=DIRECTION('center_axis',(0.,1.,0.));
#1259=DIRECTION('ref_axis',(0.,0.,1.));
#1260=DIRECTION('center_axis',(0.,1.,0.));
#1261=DIRECTION('ref_axis',(0.,0.,1.));
#1262=DIRECTION('center_axis',(0.,1.,0.));
#1263=DIRECTION('ref_axis',(0.,0.,1.));
#1264=DIRECTION('center_axis',(0.,1.,0.));
#1265=DIRECTION('ref_axis',(0.,0.,1.));
#1266=DIRECTION('center_axis',(0.,1.,0.));
#1267=DIRECTION('ref_axis',(0.,0.,1.));
#1268=DIRECTION('center_axis',(0.,1.,0.));
#1269=DIRECTION('ref_axis',(0.,0.,1.));
#1270=DIRECTION('center_axis',(0.,1.,0.));
#1271=DIRECTION('ref_axis',(0.,0.,1.));
#1272=DIRECTION('center_axis',(0.,1.,0.));
#1273=DIRECTION('ref_axis',(0.,0.,1.));
#1274=DIRECTION('center_axis',(0.,1.,0.));
#1275=DIRECTION('ref_axis',(0.,0.,1.));
#1276=DIRECTION('center_axis',(0.,1.,0.));
#1277=DIRECTION('ref_axis',(0.,0.,1.));
#1278=DIRECTION('center_axis',(0.,1.,0.));
#1279=DIRECTION('ref_axis',(0.,0.,1.));
#1280=DIRECTION('center_axis',(0.,1.,0.));
#1281=DIRECTION('ref_axis',(0.,0.,1.));
#1282=DIRECTION('center_axis',(0.,1.,0.));
#1283=DIRECTION('ref_axis',(0.,0.,1.));
#1284=DIRECTION('center_axis',(0.,1.,0.));
#1285=DIRECTION('ref_axis',(0.,0.,1.));
#1286=DIRECTION('center_axis',(0.,1.,0.));
#1287=DIRECTION('ref_axis',(0.,0.,1.));
#1288=DIRECTION('center_axis',(0.,1.,0.));
#1289=DIRECTION('ref_axis',(0.,0.,1.));
#1290=DIRECTION('center_axis',(0.,1.,0.));
#1291=DIRECTION('ref_axis',(0.,0.,1.));
#1292=DIRECTION('center_axis',(0.,1.,0.));
#1293=DIRECTION('ref_axis',(0.,0.,1.));
#1294=DIRECTION('center_axis',(0.,1.,0.));
#1295=DIRECTION('ref_axis',(0.,0.,1.));
#1296=DIRECTION('center_axis',(0.,1.,0.));
#1297=DIRECTION('ref_axis',(0.,0.,1.));
#1298=DIRECTION('center_axis',(0.,1.,0.));
#1299=DIRECTION('ref_axis',(0.,0.,1.));
#1300=DIRECTION('center_axis',(0.,1.,0.));
#1301=DIRECTION('ref_axis',(0.,0.,1.));
#1302=DIRECTION('center_axis',(0.,1.,0.));
#1303=DIRECTION('ref_axis',(0.,0.,1.));
#1304=DIRECTION('center_axis',(0.,1.,0.));
#1305=DIRECTION('ref_axis',(0.,0.,1.));
#1306=DIRECTION('center_axis',(0.,1.,0.));
#1307=DIRECTION('ref_axis',(0.,0.,1.));
#1308=DIRECTION('center_axis',(0.,1.,0.));
#1309=DIRECTION('ref_axis',(0.,0.,1.));
#1310=DIRECTION('center_axis',(0.,1.,0.));
#1311=DIRECTION('ref_axis',(0.,0.,1.));
#1312=DIRECTION('center_axis',(0.,1.,0.));
#1313=DIRECTION('ref_axis',(0.,0.,1.));
#1314=DIRECTION('center_axis',(0.,1.,0.));
#1315=DIRECTION('ref_axis',(0.,0.,1.));
#1316=DIRECTION('',(-1.,0.,8.97173335537216E-17));
#1317=DIRECTION('center_axis',(0.,1.,0.));
#1318=DIRECTION('ref_axis',(0.,0.,1.));
#1319=DIRECTION('center_axis',(0.,1.,0.));
#1320=DIRECTION('ref_axis',(0.,0.,1.));
#1321=DIRECTION('center_axis',(0.,1.,0.));
#1322=DIRECTION('ref_axis',(0.,0.,1.));
#1323=DIRECTION('center_axis',(0.,-1.,0.));
#1324=DIRECTION('ref_axis',(0.,0.,-1.));
#1325=DIRECTION('',(0.,-1.,0.));
#1326=DIRECTION('',(0.,-1.,0.));
#1327=DIRECTION('center_axis',(9.34555557851266E-17,0.,1.));
#1328=DIRECTION('ref_axis',(1.,0.,-9.34555557851266E-17));
#1329=DIRECTION('',(0.,-1.,0.));
#1330=DIRECTION('center_axis',(0.,-1.,0.));
#1331=DIRECTION('ref_axis',(0.,0.,-1.));
#1332=DIRECTION('',(0.,-1.,0.));
#1333=DIRECTION('center_axis',(0.,-1.,0.));
#1334=DIRECTION('ref_axis',(0.,0.,-1.));
#1335=DIRECTION('',(0.,-1.,0.));
#1336=DIRECTION('center_axis',(0.,-1.,0.));
#1337=DIRECTION('ref_axis',(0.,0.,-1.));
#1338=DIRECTION('',(0.,-1.,0.));
#1339=DIRECTION('center_axis',(0.,-1.,0.));
#1340=DIRECTION('ref_axis',(0.,0.,-1.));
#1341=DIRECTION('',(0.,-1.,0.));
#1342=DIRECTION('center_axis',(0.,-1.,0.));
#1343=DIRECTION('ref_axis',(0.,0.,-1.));
#1344=DIRECTION('',(0.,-1.,0.));
#1345=DIRECTION('center_axis',(0.,-1.,0.));
#1346=DIRECTION('ref_axis',(0.,0.,-1.));
#1347=DIRECTION('',(0.,-1.,0.));
#1348=DIRECTION('center_axis',(0.,-1.,0.));
#1349=DIRECTION('ref_axis',(0.,0.,-1.));
#1350=DIRECTION('',(0.,-1.,0.));
#1351=DIRECTION('center_axis',(0.,-1.,0.));
#1352=DIRECTION('ref_axis',(0.,0.,-1.));
#1353=DIRECTION('',(0.,-1.,0.));
#1354=DIRECTION('center_axis',(0.,-1.,0.));
#1355=DIRECTION('ref_axis',(0.,0.,-1.));
#1356=DIRECTION('',(0.,-1.,0.));
#1357=DIRECTION('center_axis',(0.,-1.,0.));
#1358=DIRECTION('ref_axis',(0.,0.,-1.));
#1359=DIRECTION('',(0.,-1.,0.));
#1360=DIRECTION('center_axis',(0.,-1.,0.));
#1361=DIRECTION('ref_axis',(0.,0.,-1.));
#1362=DIRECTION('',(0.,-1.,0.));
#1363=DIRECTION('center_axis',(0.,-1.,0.));
#1364=DIRECTION('ref_axis',(0.,0.,-1.));
#1365=DIRECTION('',(0.,-1.,0.));
#1366=DIRECTION('center_axis',(0.,-1.,0.));
#1367=DIRECTION('ref_axis',(0.,0.,-1.));
#1368=DIRECTION('',(0.,-1.,0.));
#1369=DIRECTION('center_axis',(0.,-1.,0.));
#1370=DIRECTION('ref_axis',(0.,0.,-1.));
#1371=DIRECTION('',(0.,-1.,0.));
#1372=DIRECTION('center_axis',(0.,-1.,0.));
#1373=DIRECTION('ref_axis',(0.,0.,-1.));
#1374=DIRECTION('',(0.,-1.,0.));
#1375=DIRECTION('center_axis',(0.,-1.,0.));
#1376=DIRECTION('ref_axis',(0.,0.,-1.));
#1377=DIRECTION('',(0.,-1.,0.));
#1378=DIRECTION('center_axis',(0.,-1.,0.));
#1379=DIRECTION('ref_axis',(0.,0.,-1.));
#1380=DIRECTION('',(0.,-1.,0.));
#1381=DIRECTION('center_axis',(0.,-1.,0.));
#1382=DIRECTION('ref_axis',(0.,0.,-1.));
#1383=DIRECTION('',(0.,-1.,0.));
#1384=DIRECTION('center_axis',(0.,-1.,0.));
#1385=DIRECTION('ref_axis',(0.,0.,-1.));
#1386=DIRECTION('',(0.,-1.,0.));
#1387=DIRECTION('center_axis',(0.,-1.,0.));
#1388=DIRECTION('ref_axis',(0.,0.,-1.));
#1389=DIRECTION('',(0.,-1.,0.));
#1390=DIRECTION('center_axis',(0.,-1.,0.));
#1391=DIRECTION('ref_axis',(0.,0.,-1.));
#1392=DIRECTION('',(0.,-1.,0.));
#1393=DIRECTION('center_axis',(0.,-1.,0.));
#1394=DIRECTION('ref_axis',(0.,0.,-1.));
#1395=DIRECTION('',(0.,-1.,0.));
#1396=DIRECTION('center_axis',(0.,-1.,0.));
#1397=DIRECTION('ref_axis',(0.,0.,-1.));
#1398=DIRECTION('',(0.,-1.,0.));
#1399=DIRECTION('center_axis',(0.,-1.,0.));
#1400=DIRECTION('ref_axis',(0.,0.,-1.));
#1401=DIRECTION('',(0.,-1.,0.));
#1402=DIRECTION('center_axis',(0.,-1.,0.));
#1403=DIRECTION('ref_axis',(0.,0.,-1.));
#1404=DIRECTION('',(0.,-1.,0.));
#1405=DIRECTION('center_axis',(0.,-1.,0.));
#1406=DIRECTION('ref_axis',(0.,0.,-1.));
#1407=DIRECTION('',(0.,-1.,0.));
#1408=DIRECTION('center_axis',(0.,-1.,0.));
#1409=DIRECTION('ref_axis',(0.,0.,-1.));
#1410=DIRECTION('',(0.,-1.,0.));
#1411=DIRECTION('center_axis',(0.,-1.,0.));
#1412=DIRECTION('ref_axis',(0.,0.,-1.));
#1413=DIRECTION('',(0.,-1.,0.));
#1414=DIRECTION('center_axis',(0.,-1.,0.));
#1415=DIRECTION('ref_axis',(0.,0.,-1.));
#1416=DIRECTION('',(0.,-1.,0.));
#1417=DIRECTION('center_axis',(0.,-1.,0.));
#1418=DIRECTION('ref_axis',(0.,0.,-1.));
#1419=DIRECTION('',(0.,-1.,0.));
#1420=DIRECTION('center_axis',(0.,-1.,0.));
#1421=DIRECTION('ref_axis',(0.,0.,-1.));
#1422=DIRECTION('',(0.,-1.,0.));
#1423=DIRECTION('center_axis',(0.,-1.,0.));
#1424=DIRECTION('ref_axis',(0.,0.,-1.));
#1425=DIRECTION('',(0.,-1.,0.));
#1426=DIRECTION('center_axis',(0.,-1.,0.));
#1427=DIRECTION('ref_axis',(0.,0.,-1.));
#1428=DIRECTION('',(0.,-1.,0.));
#1429=DIRECTION('center_axis',(0.,-1.,0.));
#1430=DIRECTION('ref_axis',(0.,0.,-1.));
#1431=DIRECTION('',(0.,-1.,0.));
#1432=DIRECTION('center_axis',(0.,-1.,0.));
#1433=DIRECTION('ref_axis',(0.,0.,-1.));
#1434=DIRECTION('',(0.,-1.,0.));
#1435=DIRECTION('center_axis',(0.,-1.,0.));
#1436=DIRECTION('ref_axis',(0.,0.,-1.));
#1437=DIRECTION('',(0.,-1.,0.));
#1438=DIRECTION('center_axis',(0.,-1.,0.));
#1439=DIRECTION('ref_axis',(0.,0.,-1.));
#1440=DIRECTION('',(0.,-1.,0.));
#1441=DIRECTION('center_axis',(0.,-1.,0.));
#1442=DIRECTION('ref_axis',(0.,0.,-1.));
#1443=DIRECTION('',(0.,-1.,0.));
#1444=DIRECTION('center_axis',(0.,-1.,0.));
#1445=DIRECTION('ref_axis',(0.,0.,-1.));
#1446=DIRECTION('',(0.,-1.,0.));
#1447=DIRECTION('center_axis',(0.,-1.,0.));
#1448=DIRECTION('ref_axis',(0.,0.,-1.));
#1449=DIRECTION('',(0.,-1.,0.));
#1450=DIRECTION('center_axis',(0.,-1.,0.));
#1451=DIRECTION('ref_axis',(0.,0.,-1.));
#1452=DIRECTION('',(0.,-1.,0.));
#1453=DIRECTION('center_axis',(0.,-1.,0.));
#1454=DIRECTION('ref_axis',(0.,0.,-1.));
#1455=DIRECTION('',(0.,-1.,0.));
#1456=DIRECTION('center_axis',(0.,-1.,0.));
#1457=DIRECTION('ref_axis',(0.,0.,-1.));
#1458=DIRECTION('',(0.,-1.,0.));
#1459=DIRECTION('center_axis',(0.,-1.,0.));
#1460=DIRECTION('ref_axis',(-0.189851383320147,0.,0.981812839726303));
#1461=DIRECTION('',(0.,1.,0.));
#1462=DIRECTION('center_axis',(9.3455555785125E-17,0.,-1.));
#1463=DIRECTION('ref_axis',(-1.,0.,-9.3455555785125E-17));
#1464=DIRECTION('center_axis',(0.,-1.,0.));
#1465=DIRECTION('ref_axis',(0.,0.,-1.));
#1466=DIRECTION('',(0.,-1.,0.));
#1467=DIRECTION('center_axis',(0.,-1.,0.));
#1468=DIRECTION('ref_axis',(0.,0.,-1.));
#1469=DIRECTION('',(0.,-1.,0.));
#1470=CARTESIAN_POINT('',(0.,0.,0.));
#1471=CARTESIAN_POINT('Origin',(20.6436574461689,4.,-6.07153216591882E-15));
#1472=CARTESIAN_POINT('',(-22.1869077312065,4.,-0.542722357826063));
#1473=CARTESIAN_POINT('',(1.30569506276041,4.,3.99999999999999));
#1474=CARTESIAN_POINT('Origin',(-10.1063425538311,4.,-6.07153216591882E-15));
#1475=CARTESIAN_POINT('',(20.6436574461689,4.,4.));
#1476=CARTESIAN_POINT('',(1.30569506276041,4.,3.99999999999999));
#1477=CARTESIAN_POINT('',(20.6436574461689,4.,-4.00000000000001));
#1478=CARTESIAN_POINT('Origin',(20.6436574461689,4.,-6.07153216591882E-15));
#1479=CARTESIAN_POINT('',(2.08164193619438,4.,-4.00000000000001));
#1480=CARTESIAN_POINT('',(20.6436574461689,4.,-4.00000000000001));
#1481=CARTESIAN_POINT('',(3.52174943628512,4.,-5.30713988028672));
#1482=CARTESIAN_POINT('Origin',(-0.768289165479772,4.,-8.58670826581661));
#1483=CARTESIAN_POINT('',(3.28288830507051,4.,-5.88380166278881));
#1484=CARTESIAN_POINT('Origin',(-10.1063425538311,4.,-6.07153216591882E-15));
#1485=CARTESIAN_POINT('',(0.627094960762723,4.,-5.5702712396085));
#1486=CARTESIAN_POINT('Origin',(2.56837796298364,4.,-0.531281231155605));
#1487=CARTESIAN_POINT('',(0.0843726029366703,4.,-6.51029393776681));
#1488=CARTESIAN_POINT('Origin',(-10.1063425538311,4.,-6.07153216591882E-15));
#1489=CARTESIAN_POINT('',(1.68379458642402,4.,-8.65351322954882));
#1490=CARTESIAN_POINT('Origin',(-3.30887925268899,4.,-10.7109893378515));
#1491=CARTESIAN_POINT('',(1.30382139899291,4.,-9.1487039284084));
#1492=CARTESIAN_POINT('Origin',(-10.1063425538311,4.,-6.07153216591882E-15));
#1493=CARTESIAN_POINT('',(-1.18033033682249,4.,-8.15848689796783));
#1494=CARTESIAN_POINT('Origin',(1.9989916334276,4.,-3.79363732329918));
#1495=CARTESIAN_POINT('',(-1.9478556558632,4.,-8.92601221700855));
#1496=CARTESIAN_POINT('Origin',(-10.1063425538311,4.,-6.07153216591882E-15));
#1497=CARTESIAN_POINT('',(-0.957638625422602,4.,-11.4101639528239));
#1498=CARTESIAN_POINT('Origin',(-6.31270523053182,4.,-12.1053341872587));
#1499=CARTESIAN_POINT('',(-1.45282932428218,4.,-11.7901371402551));
#1500=CARTESIAN_POINT('Origin',(-10.1063425538311,4.,-6.07153216591882E-15));
#1501=CARTESIAN_POINT('',(-3.59604861606421,4.,-10.1907151567677));
#1502=CARTESIAN_POINT('Origin',(0.604646784020486,4.,-6.79746330114202));
#1503=CARTESIAN_POINT('',(-4.53607131422251,4.,-10.7334375145938));
#1504=CARTESIAN_POINT('Origin',(-10.1063425538311,4.,-6.07153216591882E-15));
#1505=CARTESIAN_POINT('',(-4.22254089104218,4.,-13.3892308589016));
#1506=CARTESIAN_POINT('Origin',(-9.57506132267539,4.,-12.6747205168148));
#1507=CARTESIAN_POINT('',(-4.79920267354426,4.,-13.6280919901162));
#1508=CARTESIAN_POINT('Origin',(-10.1063425538311,4.,-6.07153216591882E-15));
#1509=CARTESIAN_POINT('',(-6.45543266839531,4.,-11.528463018587));
#1510=CARTESIAN_POINT('Origin',(-1.51963428801442,4.,-9.33805338835126));
#1511=CARTESIAN_POINT('',(-7.50389175225268,4.,-11.8093967834036));
#1512=CARTESIAN_POINT('Origin',(-10.1063425538311,4.,-6.07153216591882E-15));
#1513=CARTESIAN_POINT('',(-7.88841451653883,4.,-14.4558438086953));
#1514=CARTESIAN_POINT('Origin',(-12.8736233527385,4.,-12.3803455891159));
#1515=CARTESIAN_POINT('',(-8.50724883518456,4.,-14.5373148923378));
#1516=CARTESIAN_POINT('Origin',(-10.1063425538311,4.,-6.07153216591882E-15));
#1517=CARTESIAN_POINT('',(-9.56362019600502,4.,-12.0805651773754));
#1518=CARTESIAN_POINT('Origin',(-4.22908533815839,4.,-11.2422705690072));
#1519=CARTESIAN_POINT('',(-10.6490649116571,4.,-12.0805651773754));
#1520=CARTESIAN_POINT('Origin',(-10.1063425538311,4.,-6.07153216591882E-15));
#1521=CARTESIAN_POINT('',(-11.7054362724776,4.,-14.5373148923378));
#1522=CARTESIAN_POINT('Origin',(-15.9835997695038,4.,-11.2422705690073));
#1523=CARTESIAN_POINT('',(-12.3242705911233,4.,-14.4558438086953));
#1524=CARTESIAN_POINT('Origin',(-10.1063425538311,4.,-6.07153216591882E-15));
#1525=CARTESIAN_POINT('',(-12.7087933554095,4.,-11.8093967834036));
#1526=CARTESIAN_POINT('Origin',(-7.33906175492368,4.,-12.3803455891159));
#1527=CARTESIAN_POINT('',(-13.7572524392668,4.,-11.528463018587));
#1528=CARTESIAN_POINT('Origin',(-10.1063425538311,4.,-6.07153216591882E-15));
#1529=CARTESIAN_POINT('',(-15.4134824341179,4.,-13.6280919901162));
#1530=CARTESIAN_POINT('Origin',(-18.6930508196478,4.,-9.33805338835132));
#1531=CARTESIAN_POINT('',(-15.99014421662,4.,-13.3892308589016));
#1532=CARTESIAN_POINT('Origin',(-10.1063425538311,4.,-6.07153216591882E-15));
#1533=CARTESIAN_POINT('',(-15.6766137934397,4.,-10.7334375145938));
#1534=CARTESIAN_POINT('Origin',(-10.6376237849868,4.,-12.6747205168148));
#1535=CARTESIAN_POINT('',(-16.616636491598,4.,-10.1907151567678));
#1536=CARTESIAN_POINT('Origin',(-10.1063425538311,4.,-6.07153216591882E-15));
#1537=CARTESIAN_POINT('',(-18.75985578338,4.,-11.7901371402551));
#1538=CARTESIAN_POINT('Origin',(-20.8173318916827,4.,-6.79746330114209));
#1539=CARTESIAN_POINT('',(-19.2550464822396,4.,-11.410163952824));
#1540=CARTESIAN_POINT('Origin',(-10.1063425538311,4.,-6.07153216591882E-15));
#1541=CARTESIAN_POINT('',(-18.264829451799,4.,-8.92601221700861));
#1542=CARTESIAN_POINT('Origin',(-13.8999798771303,4.,-12.1053341872587));
#1543=CARTESIAN_POINT('',(-19.0323547708397,4.,-8.15848689796789));
#1544=CARTESIAN_POINT('Origin',(-10.1063425538311,4.,-6.07153216591882E-15));
#1545=CARTESIAN_POINT('',(-21.5165065066551,4.,-9.14870392840849));
#1546=CARTESIAN_POINT('Origin',(-22.2116767410898,4.,-3.79363732329927));
#1547=CARTESIAN_POINT('',(-21.8964796940862,4.,-8.65351322954891));
#1548=CARTESIAN_POINT('Origin',(-10.1063425538311,4.,-6.07153216591882E-15));
#1549=CARTESIAN_POINT('',(-20.2970577105989,4.,-6.51029393776688));
#1550=CARTESIAN_POINT('Origin',(-16.9038058549732,4.,-10.7109893378516));
#1551=CARTESIAN_POINT('',(-20.8397800684249,4.,-5.57027123960859));
#1552=CARTESIAN_POINT('Origin',(-10.1063425538311,4.,-6.07153216591882E-15));
#1553=CARTESIAN_POINT('',(-23.4955734127327,4.,-5.8838016627889));
#1554=CARTESIAN_POINT('Origin',(-22.7810630706459,4.,-0.531281231155693));
#1555=CARTESIAN_POINT('',(-23.7344345439473,4.,-5.30713988028682));
#1556=CARTESIAN_POINT('Origin',(-10.1063425538311,4.,-6.07153216591882E-15));
#1557=CARTESIAN_POINT('',(-21.6348055724181,4.,-3.65090988543577));
#1558=CARTESIAN_POINT('Origin',(-19.4443959421824,4.,-8.58670826581668));
#1559=CARTESIAN_POINT('',(-21.9157393372347,4.,-2.6024508015784));
#1560=CARTESIAN_POINT('Origin',(-10.1063425538311,4.,-6.07153216591882E-15));
#1561=CARTESIAN_POINT('',(-24.5621863625264,4.,-2.21792803729224));
#1562=CARTESIAN_POINT('Origin',(-22.486688142947,4.,2.76728079890739));
#1563=CARTESIAN_POINT('',(-24.6436574461689,4.,-1.59909371864652));
#1564=CARTESIAN_POINT('Origin',(-10.1063425538311,4.,-6.07153216591882E-15));
#1565=CARTESIAN_POINT('Origin',(-21.3486131228384,4.,-5.8772572156727));
#1566=CARTESIAN_POINT('',(-10.1063425538311,4.,1.74999999999999));
#1567=CARTESIAN_POINT('Origin',(-10.1063425538311,4.,-6.07153216591882E-15));
#1568=CARTESIAN_POINT('',(20.6436574461689,4.,1.74999999999999));
#1569=CARTESIAN_POINT('Origin',(20.6436574461689,4.,-6.07153216591882E-15));
#1570=CARTESIAN_POINT('Origin',(20.6436574461689,0.,-6.07153216591882E-15));
#1571=CARTESIAN_POINT('',(1.30569506276041,0.,3.99999999999999));
#1572=CARTESIAN_POINT('',(20.6436574461689,0.,4.));
#1573=CARTESIAN_POINT('',(1.30569506276041,0.,3.99999999999999));
#1574=CARTESIAN_POINT('',(-22.1869077312065,0.,-0.542722357826063));
#1575=CARTESIAN_POINT('Origin',(-10.1063425538311,0.,-6.07153216591882E-15));
#1576=CARTESIAN_POINT('',(-24.6436574461689,0.,-1.59909371864652));
#1577=CARTESIAN_POINT('Origin',(-21.3486131228384,0.,-5.8772572156727));
#1578=CARTESIAN_POINT('',(-24.5621863625264,0.,-2.21792803729224));
#1579=CARTESIAN_POINT('Origin',(-10.1063425538311,0.,-6.07153216591882E-15));
#1580=CARTESIAN_POINT('',(-21.9157393372347,0.,-2.6024508015784));
#1581=CARTESIAN_POINT('Origin',(-22.486688142947,0.,2.76728079890739));
#1582=CARTESIAN_POINT('',(-21.6348055724181,0.,-3.65090988543577));
#1583=CARTESIAN_POINT('Origin',(-10.1063425538311,0.,-6.07153216591882E-15));
#1584=CARTESIAN_POINT('',(-23.7344345439473,0.,-5.30713988028682));
#1585=CARTESIAN_POINT('Origin',(-19.4443959421824,0.,-8.58670826581668));
#1586=CARTESIAN_POINT('',(-23.4955734127327,0.,-5.8838016627889));
#1587=CARTESIAN_POINT('Origin',(-10.1063425538311,0.,-6.07153216591882E-15));
#1588=CARTESIAN_POINT('',(-20.8397800684249,0.,-5.57027123960859));
#1589=CARTESIAN_POINT('Origin',(-22.7810630706459,0.,-0.531281231155693));
#1590=CARTESIAN_POINT('',(-20.2970577105989,0.,-6.51029393776688));
#1591=CARTESIAN_POINT('Origin',(-10.1063425538311,0.,-6.07153216591882E-15));
#1592=CARTESIAN_POINT('',(-21.8964796940862,0.,-8.65351322954891));
#1593=CARTESIAN_POINT('Origin',(-16.9038058549732,0.,-10.7109893378516));
#1594=CARTESIAN_POINT('',(-21.5165065066551,0.,-9.14870392840849));
#1595=CARTESIAN_POINT('Origin',(-10.1063425538311,0.,-6.07153216591882E-15));
#1596=CARTESIAN_POINT('',(-19.0323547708397,0.,-8.15848689796789));
#1597=CARTESIAN_POINT('Origin',(-22.2116767410898,0.,-3.79363732329927));
#1598=CARTESIAN_POINT('',(-18.264829451799,0.,-8.92601221700861));
#1599=CARTESIAN_POINT('Origin',(-10.1063425538311,0.,-6.07153216591882E-15));
#1600=CARTESIAN_POINT('',(-19.2550464822396,0.,-11.410163952824));
#1601=CARTESIAN_POINT('Origin',(-13.8999798771303,0.,-12.1053341872587));
#1602=CARTESIAN_POINT('',(-18.75985578338,0.,-11.7901371402551));
#1603=CARTESIAN_POINT('Origin',(-10.1063425538311,0.,-6.07153216591882E-15));
#1604=CARTESIAN_POINT('',(-16.616636491598,0.,-10.1907151567678));
#1605=CARTESIAN_POINT('Origin',(-20.8173318916827,0.,-6.79746330114209));
#1606=CARTESIAN_POINT('',(-15.6766137934397,0.,-10.7334375145938));
#1607=CARTESIAN_POINT('Origin',(-10.1063425538311,0.,-6.07153216591882E-15));
#1608=CARTESIAN_POINT('',(-15.99014421662,0.,-13.3892308589016));
#1609=CARTESIAN_POINT('Origin',(-10.6376237849868,0.,-12.6747205168148));
#1610=CARTESIAN_POINT('',(-15.4134824341179,0.,-13.6280919901162));
#1611=CARTESIAN_POINT('Origin',(-10.1063425538311,0.,-6.07153216591882E-15));
#1612=CARTESIAN_POINT('',(-13.7572524392668,0.,-11.528463018587));
#1613=CARTESIAN_POINT('Origin',(-18.6930508196478,0.,-9.33805338835132));
#1614=CARTESIAN_POINT('',(-12.7087933554095,0.,-11.8093967834036));
#1615=CARTESIAN_POINT('Origin',(-10.1063425538311,0.,-6.07153216591882E-15));
#1616=CARTESIAN_POINT('',(-12.3242705911233,0.,-14.4558438086953));
#1617=CARTESIAN_POINT('Origin',(-7.33906175492368,0.,-12.3803455891159));
#1618=CARTESIAN_POINT('',(-11.7054362724776,0.,-14.5373148923378));
#1619=CARTESIAN_POINT('Origin',(-10.1063425538311,0.,-6.07153216591882E-15));
#1620=CARTESIAN_POINT('',(-10.6490649116571,0.,-12.0805651773754));
#1621=CARTESIAN_POINT('Origin',(-15.9835997695038,0.,-11.2422705690073));
#1622=CARTESIAN_POINT('',(-9.56362019600502,0.,-12.0805651773754));
#1623=CARTESIAN_POINT('Origin',(-10.1063425538311,0.,-6.07153216591882E-15));
#1624=CARTESIAN_POINT('',(-8.50724883518456,0.,-14.5373148923378));
#1625=CARTESIAN_POINT('Origin',(-4.22908533815839,0.,-11.2422705690072));
#1626=CARTESIAN_POINT('',(-7.88841451653883,0.,-14.4558438086953));
#1627=CARTESIAN_POINT('Origin',(-10.1063425538311,0.,-6.07153216591882E-15));
#1628=CARTESIAN_POINT('',(-7.50389175225268,0.,-11.8093967834036));
#1629=CARTESIAN_POINT('Origin',(-12.8736233527385,0.,-12.3803455891159));
#1630=CARTESIAN_POINT('',(-6.45543266839531,0.,-11.528463018587));
#1631=CARTESIAN_POINT('Origin',(-10.1063425538311,0.,-6.07153216591882E-15));
#1632=CARTESIAN_POINT('',(-4.79920267354426,0.,-13.6280919901162));
#1633=CARTESIAN_POINT('Origin',(-1.51963428801442,0.,-9.33805338835126));
#1634=CARTESIAN_POINT('',(-4.22254089104218,0.,-13.3892308589016));
#1635=CARTESIAN_POINT('Origin',(-10.1063425538311,0.,-6.07153216591882E-15));
#1636=CARTESIAN_POINT('',(-4.53607131422251,0.,-10.7334375145938));
#1637=CARTESIAN_POINT('Origin',(-9.57506132267539,0.,-12.6747205168148));
#1638=CARTESIAN_POINT('',(-3.59604861606421,0.,-10.1907151567677));
#1639=CARTESIAN_POINT('Origin',(-10.1063425538311,0.,-6.07153216591882E-15));
#1640=CARTESIAN_POINT('',(-1.45282932428218,0.,-11.7901371402551));
#1641=CARTESIAN_POINT('Origin',(0.604646784020486,0.,-6.79746330114202));
#1642=CARTESIAN_POINT('',(-0.957638625422602,0.,-11.4101639528239));
#1643=CARTESIAN_POINT('Origin',(-10.1063425538311,0.,-6.07153216591882E-15));
#1644=CARTESIAN_POINT('',(-1.9478556558632,0.,-8.92601221700855));
#1645=CARTESIAN_POINT('Origin',(-6.31270523053182,0.,-12.1053341872587));
#1646=CARTESIAN_POINT('',(-1.18033033682249,0.,-8.15848689796783));
#1647=CARTESIAN_POINT('Origin',(-10.1063425538311,0.,-6.07153216591882E-15));
#1648=CARTESIAN_POINT('',(1.30382139899291,0.,-9.1487039284084));
#1649=CARTESIAN_POINT('Origin',(1.9989916334276,0.,-3.79363732329918));
#1650=CARTESIAN_POINT('',(1.68379458642402,0.,-8.65351322954882));
#1651=CARTESIAN_POINT('Origin',(-10.1063425538311,0.,-6.07153216591882E-15));
#1652=CARTESIAN_POINT('',(0.0843726029366703,0.,-6.51029393776681));
#1653=CARTESIAN_POINT('Origin',(-3.30887925268899,0.,-10.7109893378515));
#1654=CARTESIAN_POINT('',(0.627094960762723,0.,-5.5702712396085));
#1655=CARTESIAN_POINT('Origin',(-10.1063425538311,0.,-6.07153216591882E-15));
#1656=CARTESIAN_POINT('',(3.28288830507051,0.,-5.88380166278881));
#1657=CARTESIAN_POINT('Origin',(2.56837796298364,0.,-0.531281231155605));
#1658=CARTESIAN_POINT('',(3.52174943628512,0.,-5.30713988028672));
#1659=CARTESIAN_POINT('Origin',(-10.1063425538311,0.,-6.07153216591882E-15));
#1660=CARTESIAN_POINT('',(2.08164193619438,0.,-4.00000000000001));
#1661=CARTESIAN_POINT('Origin',(-0.768289165479772,0.,-8.58670826581661));
#1662=CARTESIAN_POINT('',(20.6436574461689,0.,-4.00000000000001));
#1663=CARTESIAN_POINT('',(20.6436574461689,0.,-4.00000000000001));
#1664=CARTESIAN_POINT('Origin',(20.6436574461689,0.,-6.07153216591882E-15));
#1665=CARTESIAN_POINT('',(20.6436574461689,0.,1.74999999999999));
#1666=CARTESIAN_POINT('Origin',(20.6436574461689,0.,-6.07153216591882E-15));
#1667=CARTESIAN_POINT('',(-10.1063425538311,0.,1.74999999999999));
#1668=CARTESIAN_POINT('Origin',(-10.1063425538311,0.,-6.07153216591882E-15));
#1669=CARTESIAN_POINT('Origin',(20.6436574461689,4.,-6.07153216591882E-15));
#1670=CARTESIAN_POINT('',(20.6436574461689,4.,-4.00000000000001));
#1671=CARTESIAN_POINT('',(20.6436574461689,4.,4.));
#1672=CARTESIAN_POINT('Origin',(20.6436574461689,4.,-4.00000000000001));
#1673=CARTESIAN_POINT('',(2.08164193619438,4.,-4.00000000000001));
#1674=CARTESIAN_POINT('Origin',(-0.768289165479772,4.,-8.58670826581661));
#1675=CARTESIAN_POINT('',(3.52174943628512,4.,-5.30713988028672));
#1676=CARTESIAN_POINT('Origin',(-10.1063425538311,4.,-6.07153216591882E-15));
#1677=CARTESIAN_POINT('',(3.28288830507051,4.,-5.88380166278881));
#1678=CARTESIAN_POINT('Origin',(2.56837796298364,4.,-0.531281231155605));
#1679=CARTESIAN_POINT('',(0.627094960762723,4.,-5.5702712396085));
#1680=CARTESIAN_POINT('Origin',(-10.1063425538311,4.,-6.07153216591882E-15));
#1681=CARTESIAN_POINT('',(0.0843726029366703,4.,-6.51029393776681));
#1682=CARTESIAN_POINT('Origin',(-3.30887925268899,4.,-10.7109893378515));
#1683=CARTESIAN_POINT('',(1.68379458642402,4.,-8.65351322954882));
#1684=CARTESIAN_POINT('Origin',(-10.1063425538311,4.,-6.07153216591882E-15));
#1685=CARTESIAN_POINT('',(1.30382139899291,4.,-9.1487039284084));
#1686=CARTESIAN_POINT('Origin',(1.9989916334276,4.,-3.79363732329918));
#1687=CARTESIAN_POINT('',(-1.18033033682249,4.,-8.15848689796783));
#1688=CARTESIAN_POINT('Origin',(-10.1063425538311,4.,-6.07153216591882E-15));
#1689=CARTESIAN_POINT('',(-1.9478556558632,4.,-8.92601221700855));
#1690=CARTESIAN_POINT('Origin',(-6.31270523053182,4.,-12.1053341872587));
#1691=CARTESIAN_POINT('',(-0.957638625422602,4.,-11.4101639528239));
#1692=CARTESIAN_POINT('Origin',(-10.1063425538311,4.,-6.07153216591882E-15));
#1693=CARTESIAN_POINT('',(-1.45282932428218,4.,-11.7901371402551));
#1694=CARTESIAN_POINT('Origin',(0.604646784020486,4.,-6.79746330114202));
#1695=CARTESIAN_POINT('',(-3.59604861606421,4.,-10.1907151567677));
#1696=CARTESIAN_POINT('Origin',(-10.1063425538311,4.,-6.07153216591882E-15));
#1697=CARTESIAN_POINT('',(-4.53607131422251,4.,-10.7334375145938));
#1698=CARTESIAN_POINT('Origin',(-9.57506132267539,4.,-12.6747205168148));
#1699=CARTESIAN_POINT('',(-4.22254089104218,4.,-13.3892308589016));
#1700=CARTESIAN_POINT('Origin',(-10.1063425538311,4.,-6.07153216591882E-15));
#1701=CARTESIAN_POINT('',(-4.79920267354426,4.,-13.6280919901162));
#1702=CARTESIAN_POINT('Origin',(-1.51963428801442,4.,-9.33805338835126));
#1703=CARTESIAN_POINT('',(-6.45543266839531,4.,-11.528463018587));
#1704=CARTESIAN_POINT('Origin',(-10.1063425538311,4.,-6.07153216591882E-15));
#1705=CARTESIAN_POINT('',(-7.50389175225268,4.,-11.8093967834036));
#1706=CARTESIAN_POINT('Origin',(-12.8736233527385,4.,-12.3803455891159));
#1707=CARTESIAN_POINT('',(-7.88841451653883,4.,-14.4558438086953));
#1708=CARTESIAN_POINT('Origin',(-10.1063425538311,4.,-6.07153216591882E-15));
#1709=CARTESIAN_POINT('',(-8.50724883518456,4.,-14.5373148923378));
#1710=CARTESIAN_POINT('Origin',(-4.22908533815839,4.,-11.2422705690072));
#1711=CARTESIAN_POINT('',(-9.56362019600502,4.,-12.0805651773754));
#1712=CARTESIAN_POINT('Origin',(-10.1063425538311,4.,-6.07153216591882E-15));
#1713=CARTESIAN_POINT('',(-10.6490649116571,4.,-12.0805651773754));
#1714=CARTESIAN_POINT('Origin',(-15.9835997695038,4.,-11.2422705690073));
#1715=CARTESIAN_POINT('',(-11.7054362724776,4.,-14.5373148923378));
#1716=CARTESIAN_POINT('Origin',(-10.1063425538311,4.,-6.07153216591882E-15));
#1717=CARTESIAN_POINT('',(-12.3242705911233,4.,-14.4558438086953));
#1718=CARTESIAN_POINT('Origin',(-7.33906175492368,4.,-12.3803455891159));
#1719=CARTESIAN_POINT('',(-12.7087933554095,4.,-11.8093967834036));
#1720=CARTESIAN_POINT('Origin',(-10.1063425538311,4.,-6.07153216591882E-15));
#1721=CARTESIAN_POINT('',(-13.7572524392668,4.,-11.528463018587));
#1722=CARTESIAN_POINT('Origin',(-18.6930508196478,4.,-9.33805338835132));
#1723=CARTESIAN_POINT('',(-15.4134824341179,4.,-13.6280919901162));
#1724=CARTESIAN_POINT('Origin',(-10.1063425538311,4.,-6.07153216591882E-15));
#1725=CARTESIAN_POINT('',(-15.99014421662,4.,-13.3892308589016));
#1726=CARTESIAN_POINT('Origin',(-10.6376237849868,4.,-12.6747205168148));
#1727=CARTESIAN_POINT('',(-15.6766137934397,4.,-10.7334375145938));
#1728=CARTESIAN_POINT('Origin',(-10.1063425538311,4.,-6.07153216591882E-15));
#1729=CARTESIAN_POINT('',(-16.616636491598,4.,-10.1907151567678));
#1730=CARTESIAN_POINT('Origin',(-20.8173318916827,4.,-6.79746330114209));
#1731=CARTESIAN_POINT('',(-18.75985578338,4.,-11.7901371402551));
#1732=CARTESIAN_POINT('Origin',(-10.1063425538311,4.,-6.07153216591882E-15));
#1733=CARTESIAN_POINT('',(-19.2550464822396,4.,-11.410163952824));
#1734=CARTESIAN_POINT('Origin',(-13.8999798771303,4.,-12.1053341872587));
#1735=CARTESIAN_POINT('',(-18.264829451799,4.,-8.92601221700861));
#1736=CARTESIAN_POINT('Origin',(-10.1063425538311,4.,-6.07153216591882E-15));
#1737=CARTESIAN_POINT('',(-19.0323547708397,4.,-8.15848689796789));
#1738=CARTESIAN_POINT('Origin',(-22.2116767410898,4.,-3.79363732329927));
#1739=CARTESIAN_POINT('',(-21.5165065066551,4.,-9.14870392840849));
#1740=CARTESIAN_POINT('Origin',(-10.1063425538311,4.,-6.07153216591882E-15));
#1741=CARTESIAN_POINT('',(-21.8964796940862,4.,-8.65351322954891));
#1742=CARTESIAN_POINT('Origin',(-16.9038058549732,4.,-10.7109893378516));
#1743=CARTESIAN_POINT('',(-20.2970577105989,4.,-6.51029393776688));
#1744=CARTESIAN_POINT('Origin',(-10.1063425538311,4.,-6.07153216591882E-15));
#1745=CARTESIAN_POINT('',(-20.8397800684249,4.,-5.57027123960859));
#1746=CARTESIAN_POINT('Origin',(-22.7810630706459,4.,-0.531281231155693));
#1747=CARTESIAN_POINT('',(-23.4955734127327,4.,-5.8838016627889));
#1748=CARTESIAN_POINT('Origin',(-10.1063425538311,4.,-6.07153216591882E-15));
#1749=CARTESIAN_POINT('',(-23.7344345439473,4.,-5.30713988028682));
#1750=CARTESIAN_POINT('Origin',(-19.4443959421824,4.,-8.58670826581668));
#1751=CARTESIAN_POINT('',(-21.6348055724181,4.,-3.65090988543577));
#1752=CARTESIAN_POINT('Origin',(-10.1063425538311,4.,-6.07153216591882E-15));
#1753=CARTESIAN_POINT('',(-21.9157393372347,4.,-2.6024508015784));
#1754=CARTESIAN_POINT('Origin',(-22.486688142947,4.,2.76728079890739));
#1755=CARTESIAN_POINT('',(-24.5621863625264,4.,-2.21792803729224));
#1756=CARTESIAN_POINT('Origin',(-10.1063425538311,4.,-6.07153216591882E-15));
#1757=CARTESIAN_POINT('',(-24.6436574461689,4.,-1.59909371864652));
#1758=CARTESIAN_POINT('Origin',(-21.3486131228384,4.,-5.8772572156727));
#1759=CARTESIAN_POINT('',(-22.1869077312065,4.,-0.542722357826063));
#1760=CARTESIAN_POINT('Origin',(-10.1063425538311,4.,-6.07153216591882E-15));
#1761=CARTESIAN_POINT('',(1.30569506276041,0.,3.99999999999999));
#1762=CARTESIAN_POINT('Origin',(2.08164193619405,4.,3.99999999999999));
#1763=CARTESIAN_POINT('Origin',(-10.1063425538311,4.,-6.07153216591882E-15));
#1764=CARTESIAN_POINT('',(-10.1063425538311,4.,1.74999999999999));
#1765=CARTESIAN_POINT('Origin',(20.6436574461689,4.,-6.07153216591882E-15));
#1766=CARTESIAN_POINT('',(20.6436574461689,4.,1.74999999999999));
#1767=UNCERTAINTY_MEASURE_WITH_UNIT(LENGTH_MEASURE(0.01),#1771,
'DISTANCE_ACCURACY_VALUE',
'Maximum model space distance between geometric entities at asserted c
onnectivities');
#1768=UNCERTAINTY_MEASURE_WITH_UNIT(LENGTH_MEASURE(0.01),#1771,
'DISTANCE_ACCURACY_VALUE',
'Maximum model space distance between geometric entities at asserted c
onnectivities');
#1769=(
GEOMETRIC_REPRESENTATION_CONTEXT(3)
GLOBAL_UNCERTAINTY_ASSIGNED_CONTEXT((#1767))
GLOBAL_UNIT_ASSIGNED_CONTEXT((#1771,#1773,#1774))
REPRESENTATION_CONTEXT('','3D')
);
#1770=(
GEOMETRIC_REPRESENTATION_CONTEXT(3)
GLOBAL_UNCERTAINTY_ASSIGNED_CONTEXT((#1768))
GLOBAL_UNIT_ASSIGNED_CONTEXT((#1771,#1773,#1774))
REPRESENTATION_CONTEXT('','3D')
);
#1771=(
LENGTH_UNIT()
NAMED_UNIT(*)
SI_UNIT(.MILLI.,.METRE.)
);
#1772=(
LENGTH_UNIT()
NAMED_UNIT(*)
SI_UNIT($,.METRE.)
);
#1773=(
NAMED_UNIT(*)
PLANE_ANGLE_UNIT()
SI_UNIT($,.RADIAN.)
);
#1774=(
NAMED_UNIT(*)
SI_UNIT($,.STERADIAN.)
SOLID_ANGLE_UNIT()
);
#1775=SHAPE_DEFINITION_REPRESENTATION(#1776,#1777);
#1776=PRODUCT_DEFINITION_SHAPE('',$,#1779);
#1777=SHAPE_REPRESENTATION('',(#979),#1769);
#1778=PRODUCT_DEFINITION_CONTEXT('part definition',#1783,'design');
#1779=PRODUCT_DEFINITION('2026-09-14-18-19-56-260','gear1',#1780,#1778);
#1780=PRODUCT_DEFINITION_FORMATION('',$,#1785);
#1781=PRODUCT_RELATED_PRODUCT_CATEGORY('gear1','gear1',(#1785));
#1782=APPLICATION_PROTOCOL_DEFINITION('international standard',
'automotive_design',2009,#1783);
#1783=APPLICATION_CONTEXT(
'Core Data for Automotive Mechanical Design Process');
#1784=PRODUCT_CONTEXT('part definition',#1783,'mechanical');
#1785=PRODUCT('2026-09-14-18-19-56-260','gear1',$,(#1784));
#1786=PRESENTATION_STYLE_ASSIGNMENT((#1788));
#1787=PRESENTATION_STYLE_ASSIGNMENT((#1789));
#1788=SURFACE_STYLE_USAGE(.BOTH.,#1790);
#1789=SURFACE_STYLE_USAGE(.BOTH.,#1791);
#1790=SURFACE_SIDE_STYLE('',(#1792));
#1791=SURFACE_SIDE_STYLE('',(#1793));
#1792=SURFACE_STYLE_FILL_AREA(#1794);
#1793=SURFACE_STYLE_FILL_AREA(#1795);
#1794=FILL_AREA_STYLE('Steel - Satin',(#1796));
#1795=FILL_AREA_STYLE('Aluminum - Anodized Rough (Blue)',(#1797));
#1796=FILL_AREA_STYLE_COLOUR('Steel - Satin',#1798);
#1797=FILL_AREA_STYLE_COLOUR('Aluminum - Anodized Rough (Blue)',#1799);
#1798=COLOUR_RGB('Steel - Satin',0.627450980392157,0.627450980392157,0.627450980392157);
#1799=COLOUR_RGB('Aluminum - Anodized Rough (Blue)',0.349019607843137,0.584313725490196,
0.854901960784314);
ENDSEC;
END-ISO-10303-21;
