ISO-10303-21;
HEADER;
/* Generated by software containing ST-Developer
 * from STEP Tools, Inc. (www.steptools.com) 
 */

FILE_DESCRIPTION(
/* description */ (''),
/* implementation_level */ '2;1');

FILE_NAME(
/* name */ 'gear2.step',
/* time_stamp */ '2026-09-21T22:52:49+05:30',
/* author */ (''),
/* organization */ (''),
/* preprocessor_version */ 'ST-DEVELOPER v20.2',
/* originating_system */ 'Autodesk Translation Framework v15.15.0.0',
/* authorisation */ '');

FILE_SCHEMA (('AUTOMOTIVE_DESIGN { 1 0 10303 214 3 1 1 }'));
ENDSEC;

DATA;
#10=MECHANICAL_DESIGN_GEOMETRIC_PRESENTATION_REPRESENTATION('',(#13),#1916);
#11=SHAPE_REPRESENTATION_RELATIONSHIP('SRR','None',#1923,#12);
#12=ADVANCED_BREP_SHAPE_REPRESENTATION('',(#14),#1915);
#13=STYLED_ITEM('',(#1933),#14);
#14=MANIFOLD_SOLID_BREP('Body1',#1052);
#15=CYLINDRICAL_SURFACE('',#1168,5.4);
#16=CYLINDRICAL_SURFACE('',#1169,14.625);
#17=CYLINDRICAL_SURFACE('',#1170,5.4);
#18=CYLINDRICAL_SURFACE('',#1171,12.09275);
#19=CYLINDRICAL_SURFACE('',#1172,5.4);
#20=CYLINDRICAL_SURFACE('',#1173,14.625);
#21=CYLINDRICAL_SURFACE('',#1174,5.4);
#22=CYLINDRICAL_SURFACE('',#1175,12.09275);
#23=CYLINDRICAL_SURFACE('',#1176,5.4);
#24=CYLINDRICAL_SURFACE('',#1177,14.625);
#25=CYLINDRICAL_SURFACE('',#1178,5.4);
#26=CYLINDRICAL_SURFACE('',#1179,12.09275);
#27=CYLINDRICAL_SURFACE('',#1180,5.4);
#28=CYLINDRICAL_SURFACE('',#1181,14.625);
#29=CYLINDRICAL_SURFACE('',#1182,5.4);
#30=CYLINDRICAL_SURFACE('',#1183,12.09275);
#31=CYLINDRICAL_SURFACE('',#1184,5.4);
#32=CYLINDRICAL_SURFACE('',#1185,14.625);
#33=CYLINDRICAL_SURFACE('',#1186,5.4);
#34=CYLINDRICAL_SURFACE('',#1187,12.09275);
#35=CYLINDRICAL_SURFACE('',#1188,5.4);
#36=CYLINDRICAL_SURFACE('',#1189,14.625);
#37=CYLINDRICAL_SURFACE('',#1190,5.4);
#38=CYLINDRICAL_SURFACE('',#1191,12.09275);
#39=CYLINDRICAL_SURFACE('',#1192,5.4);
#40=CYLINDRICAL_SURFACE('',#1193,14.625);
#41=CYLINDRICAL_SURFACE('',#1194,5.4);
#42=CYLINDRICAL_SURFACE('',#1195,12.09275);
#43=CYLINDRICAL_SURFACE('',#1196,5.4);
#44=CYLINDRICAL_SURFACE('',#1197,14.625);
#45=CYLINDRICAL_SURFACE('',#1198,5.4);
#46=CYLINDRICAL_SURFACE('',#1199,12.09275);
#47=CYLINDRICAL_SURFACE('',#1200,5.4);
#48=CYLINDRICAL_SURFACE('',#1201,14.625);
#49=CYLINDRICAL_SURFACE('',#1202,5.4);
#50=CYLINDRICAL_SURFACE('',#1203,12.09275);
#51=CYLINDRICAL_SURFACE('',#1204,5.4);
#52=CYLINDRICAL_SURFACE('',#1205,14.625);
#53=CYLINDRICAL_SURFACE('',#1206,5.4);
#54=CYLINDRICAL_SURFACE('',#1207,12.09275);
#55=CYLINDRICAL_SURFACE('',#1208,12.09275);
#56=CYLINDRICAL_SURFACE('',#1211,4.);
#57=CYLINDRICAL_SURFACE('',#1212,1.75);
#58=CYLINDRICAL_SURFACE('',#1213,14.6250000000001);
#59=CYLINDRICAL_SURFACE('',#1214,5.4);
#60=CYLINDRICAL_SURFACE('',#1215,12.09275);
#61=CYLINDRICAL_SURFACE('',#1217,5.4);
#62=CYLINDRICAL_SURFACE('',#1218,2.4);
#63=CYLINDRICAL_SURFACE('',#1219,1.3);
#64=CYLINDRICAL_SURFACE('',#1220,1.3);
#65=FACE_BOUND('',#129,.T.);
#66=FACE_BOUND('',#130,.T.);
#67=FACE_BOUND('',#131,.T.);
#68=FACE_BOUND('',#132,.T.);
#69=FACE_BOUND('',#134,.T.);
#70=FACE_BOUND('',#135,.T.);
#71=FACE_BOUND('',#136,.T.);
#72=FACE_BOUND('',#137,.T.);
#73=FACE_OUTER_BOUND('',#128,.T.);
#74=FACE_OUTER_BOUND('',#133,.T.);
#75=FACE_OUTER_BOUND('',#138,.T.);
#76=FACE_OUTER_BOUND('',#139,.T.);
#77=FACE_OUTER_BOUND('',#140,.T.);
#78=FACE_OUTER_BOUND('',#141,.T.);
#79=FACE_OUTER_BOUND('',#142,.T.);
#80=FACE_OUTER_BOUND('',#143,.T.);
#81=FACE_OUTER_BOUND('',#144,.T.);
#82=FACE_OUTER_BOUND('',#145,.T.);
#83=FACE_OUTER_BOUND('',#146,.T.);
#84=FACE_OUTER_BOUND('',#147,.T.);
#85=FACE_OUTER_BOUND('',#148,.T.);
#86=FACE_OUTER_BOUND('',#149,.T.);
#87=FACE_OUTER_BOUND('',#150,.T.);
#88=FACE_OUTER_BOUND('',#151,.T.);
#89=FACE_OUTER_BOUND('',#152,.T.);
#90=FACE_OUTER_BOUND('',#153,.T.);
#91=FACE_OUTER_BOUND('',#154,.T.);
#92=FACE_OUTER_BOUND('',#155,.T.);
#93=FACE_OUTER_BOUND('',#156,.T.);
#94=FACE_OUTER_BOUND('',#157,.T.);
#95=FACE_OUTER_BOUND('',#158,.T.);
#96=FACE_OUTER_BOUND('',#159,.T.);
#97=FACE_OUTER_BOUND('',#160,.T.);
#98=FACE_OUTER_BOUND('',#161,.T.);
#99=FACE_OUTER_BOUND('',#162,.T.);
#100=FACE_OUTER_BOUND('',#163,.T.);
#101=FACE_OUTER_BOUND('',#164,.T.);
#102=FACE_OUTER_BOUND('',#165,.T.);
#103=FACE_OUTER_BOUND('',#166,.T.);
#104=FACE_OUTER_BOUND('',#167,.T.);
#105=FACE_OUTER_BOUND('',#168,.T.);
#106=FACE_OUTER_BOUND('',#169,.T.);
#107=FACE_OUTER_BOUND('',#170,.T.);
#108=FACE_OUTER_BOUND('',#171,.T.);
#109=FACE_OUTER_BOUND('',#172,.T.);
#110=FACE_OUTER_BOUND('',#173,.T.);
#111=FACE_OUTER_BOUND('',#174,.T.);
#112=FACE_OUTER_BOUND('',#175,.T.);
#113=FACE_OUTER_BOUND('',#176,.T.);
#114=FACE_OUTER_BOUND('',#177,.T.);
#115=FACE_OUTER_BOUND('',#178,.T.);
#116=FACE_OUTER_BOUND('',#179,.T.);
#117=FACE_OUTER_BOUND('',#180,.T.);
#118=FACE_OUTER_BOUND('',#181,.T.);
#119=FACE_OUTER_BOUND('',#182,.T.);
#120=FACE_OUTER_BOUND('',#183,.T.);
#121=FACE_OUTER_BOUND('',#184,.T.);
#122=FACE_OUTER_BOUND('',#185,.T.);
#123=FACE_OUTER_BOUND('',#186,.T.);
#124=FACE_OUTER_BOUND('',#187,.T.);
#125=FACE_OUTER_BOUND('',#188,.T.);
#126=FACE_OUTER_BOUND('',#189,.T.);
#127=FACE_OUTER_BOUND('',#190,.T.);
#128=EDGE_LOOP('',(#674,#675,#676,#677,#678,#679,#680,#681,#682,#683,#684,
#685,#686,#687,#688,#689,#690,#691,#692,#693,#694,#695,#696,#697,#698,#699,
#700,#701,#702,#703,#704,#705,#706,#707,#708,#709,#710,#711,#712,#713,#714,
#715,#716,#717,#718,#719,#720,#721,#722));
#129=EDGE_LOOP('',(#723));
#130=EDGE_LOOP('',(#724));
#131=EDGE_LOOP('',(#725));
#132=EDGE_LOOP('',(#726));
#133=EDGE_LOOP('',(#727,#728,#729,#730,#731,#732,#733,#734,#735,#736,#737,
#738,#739,#740,#741,#742,#743,#744,#745,#746,#747,#748,#749,#750,#751,#752,
#753,#754,#755,#756,#757,#758,#759,#760,#761,#762,#763,#764,#765,#766,#767,
#768,#769,#770,#771,#772,#773,#774,#775));
#134=EDGE_LOOP('',(#776));
#135=EDGE_LOOP('',(#777));
#136=EDGE_LOOP('',(#778));
#137=EDGE_LOOP('',(#779));
#138=EDGE_LOOP('',(#780,#781,#782,#783));
#139=EDGE_LOOP('',(#784,#785,#786,#787));
#140=EDGE_LOOP('',(#788,#789,#790,#791));
#141=EDGE_LOOP('',(#792,#793,#794,#795));
#142=EDGE_LOOP('',(#796,#797,#798,#799));
#143=EDGE_LOOP('',(#800,#801,#802,#803));
#144=EDGE_LOOP('',(#804,#805,#806,#807));
#145=EDGE_LOOP('',(#808,#809,#810,#811));
#146=EDGE_LOOP('',(#812,#813,#814,#815));
#147=EDGE_LOOP('',(#816,#817,#818,#819));
#148=EDGE_LOOP('',(#820,#821,#822,#823));
#149=EDGE_LOOP('',(#824,#825,#826,#827));
#150=EDGE_LOOP('',(#828,#829,#830,#831));
#151=EDGE_LOOP('',(#832,#833,#834,#835));
#152=EDGE_LOOP('',(#836,#837,#838,#839));
#153=EDGE_LOOP('',(#840,#841,#842,#843));
#154=EDGE_LOOP('',(#844,#845,#846,#847));
#155=EDGE_LOOP('',(#848,#849,#850,#851));
#156=EDGE_LOOP('',(#852,#853,#854,#855));
#157=EDGE_LOOP('',(#856,#857,#858,#859));
#158=EDGE_LOOP('',(#860,#861,#862,#863));
#159=EDGE_LOOP('',(#864,#865,#866,#867));
#160=EDGE_LOOP('',(#868,#869,#870,#871));
#161=EDGE_LOOP('',(#872,#873,#874,#875));
#162=EDGE_LOOP('',(#876,#877,#878,#879));
#163=EDGE_LOOP('',(#880,#881,#882,#883));
#164=EDGE_LOOP('',(#884,#885,#886,#887));
#165=EDGE_LOOP('',(#888,#889,#890,#891));
#166=EDGE_LOOP('',(#892,#893,#894,#895));
#167=EDGE_LOOP('',(#896,#897,#898,#899));
#168=EDGE_LOOP('',(#900,#901,#902,#903));
#169=EDGE_LOOP('',(#904,#905,#906,#907));
#170=EDGE_LOOP('',(#908,#909,#910,#911));
#171=EDGE_LOOP('',(#912,#913,#914,#915));
#172=EDGE_LOOP('',(#916,#917,#918,#919));
#173=EDGE_LOOP('',(#920,#921,#922,#923));
#174=EDGE_LOOP('',(#924,#925,#926,#927));
#175=EDGE_LOOP('',(#928,#929,#930,#931));
#176=EDGE_LOOP('',(#932,#933,#934,#935));
#177=EDGE_LOOP('',(#936,#937,#938,#939));
#178=EDGE_LOOP('',(#940,#941,#942,#943));
#179=EDGE_LOOP('',(#944,#945,#946,#947));
#180=EDGE_LOOP('',(#948,#949,#950,#951));
#181=EDGE_LOOP('',(#952,#953,#954,#955));
#182=EDGE_LOOP('',(#956,#957,#958,#959));
#183=EDGE_LOOP('',(#960,#961,#962,#963));
#184=EDGE_LOOP('',(#964,#965,#966,#967));
#185=EDGE_LOOP('',(#968,#969,#970,#971));
#186=EDGE_LOOP('',(#972,#973,#974,#975));
#187=EDGE_LOOP('',(#976,#977,#978,#979));
#188=EDGE_LOOP('',(#980,#981,#982,#983));
#189=EDGE_LOOP('',(#984,#985,#986,#987));
#190=EDGE_LOOP('',(#988,#989,#990,#991));
#191=CIRCLE('',#1067,5.4);
#192=CIRCLE('',#1068,14.625);
#193=CIRCLE('',#1069,5.4);
#194=CIRCLE('',#1070,12.09275);
#195=CIRCLE('',#1071,5.4);
#196=CIRCLE('',#1072,14.625);
#197=CIRCLE('',#1073,5.4);
#198=CIRCLE('',#1074,12.09275);
#199=CIRCLE('',#1075,5.4);
#200=CIRCLE('',#1076,14.625);
#201=CIRCLE('',#1077,5.4);
#202=CIRCLE('',#1078,12.09275);
#203=CIRCLE('',#1079,5.4);
#204=CIRCLE('',#1080,14.625);
#205=CIRCLE('',#1081,5.4);
#206=CIRCLE('',#1082,12.09275);
#207=CIRCLE('',#1083,5.4);
#208=CIRCLE('',#1084,14.625);
#209=CIRCLE('',#1085,5.4);
#210=CIRCLE('',#1086,12.09275);
#211=CIRCLE('',#1087,5.4);
#212=CIRCLE('',#1088,14.625);
#213=CIRCLE('',#1089,5.4);
#214=CIRCLE('',#1090,12.09275);
#215=CIRCLE('',#1091,5.4);
#216=CIRCLE('',#1092,14.625);
#217=CIRCLE('',#1093,5.4);
#218=CIRCLE('',#1094,12.09275);
#219=CIRCLE('',#1095,5.4);
#220=CIRCLE('',#1096,14.625);
#221=CIRCLE('',#1097,5.4);
#222=CIRCLE('',#1098,12.09275);
#223=CIRCLE('',#1099,5.4);
#224=CIRCLE('',#1100,14.625);
#225=CIRCLE('',#1101,5.4);
#226=CIRCLE('',#1102,12.09275);
#227=CIRCLE('',#1103,5.4);
#228=CIRCLE('',#1104,14.625);
#229=CIRCLE('',#1105,5.4);
#230=CIRCLE('',#1106,12.09275);
#231=CIRCLE('',#1107,4.);
#232=CIRCLE('',#1108,12.09275);
#233=CIRCLE('',#1109,5.4);
#234=CIRCLE('',#1110,14.6250000000001);
#235=CIRCLE('',#1111,5.4);
#236=CIRCLE('',#1112,12.09275);
#237=CIRCLE('',#1113,1.75);
#238=CIRCLE('',#1114,1.3);
#239=CIRCLE('',#1115,1.3);
#240=CIRCLE('',#1116,2.4);
#241=CIRCLE('',#1118,5.4);
#242=CIRCLE('',#1119,12.09275);
#243=CIRCLE('',#1120,5.4);
#244=CIRCLE('',#1121,14.6250000000001);
#245=CIRCLE('',#1122,5.4);
#246=CIRCLE('',#1123,12.09275);
#247=CIRCLE('',#1124,4.);
#248=CIRCLE('',#1125,12.09275);
#249=CIRCLE('',#1126,5.4);
#250=CIRCLE('',#1127,14.625);
#251=CIRCLE('',#1128,5.4);
#252=CIRCLE('',#1129,12.09275);
#253=CIRCLE('',#1130,5.4);
#254=CIRCLE('',#1131,14.625);
#255=CIRCLE('',#1132,5.4);
#256=CIRCLE('',#1133,12.09275);
#257=CIRCLE('',#1134,5.4);
#258=CIRCLE('',#1135,14.625);
#259=CIRCLE('',#1136,5.4);
#260=CIRCLE('',#1137,12.09275);
#261=CIRCLE('',#1138,5.4);
#262=CIRCLE('',#1139,14.625);
#263=CIRCLE('',#1140,5.4);
#264=CIRCLE('',#1141,12.09275);
#265=CIRCLE('',#1142,5.4);
#266=CIRCLE('',#1143,14.625);
#267=CIRCLE('',#1144,5.4);
#268=CIRCLE('',#1145,12.09275);
#269=CIRCLE('',#1146,5.4);
#270=CIRCLE('',#1147,14.625);
#271=CIRCLE('',#1148,5.4);
#272=CIRCLE('',#1149,12.09275);
#273=CIRCLE('',#1150,5.4);
#274=CIRCLE('',#1151,14.625);
#275=CIRCLE('',#1152,5.4);
#276=CIRCLE('',#1153,12.09275);
#277=CIRCLE('',#1154,5.4);
#278=CIRCLE('',#1155,14.625);
#279=CIRCLE('',#1156,5.4);
#280=CIRCLE('',#1157,12.09275);
#281=CIRCLE('',#1158,5.4);
#282=CIRCLE('',#1159,14.625);
#283=CIRCLE('',#1160,5.4);
#284=CIRCLE('',#1161,12.09275);
#285=CIRCLE('',#1162,5.4);
#286=CIRCLE('',#1163,14.625);
#287=CIRCLE('',#1164,1.3);
#288=CIRCLE('',#1165,1.3);
#289=CIRCLE('',#1166,2.4);
#290=CIRCLE('',#1167,1.75);
#291=LINE('',#1596,#350);
#292=LINE('',#1678,#351);
#293=LINE('',#1682,#352);
#294=LINE('',#1705,#353);
#295=LINE('',#1717,#354);
#296=LINE('',#1721,#355);
#297=LINE('',#1808,#356);
#298=LINE('',#1809,#357);
#299=LINE('',#1811,#358);
#300=LINE('',#1813,#359);
#301=LINE('',#1815,#360);
#302=LINE('',#1817,#361);
#303=LINE('',#1819,#362);
#304=LINE('',#1821,#363);
#305=LINE('',#1823,#364);
#306=LINE('',#1825,#365);
#307=LINE('',#1827,#366);
#308=LINE('',#1829,#367);
#309=LINE('',#1831,#368);
#310=LINE('',#1833,#369);
#311=LINE('',#1835,#370);
#312=LINE('',#1837,#371);
#313=LINE('',#1839,#372);
#314=LINE('',#1841,#373);
#315=LINE('',#1843,#374);
#316=LINE('',#1845,#375);
#317=LINE('',#1847,#376);
#318=LINE('',#1849,#377);
#319=LINE('',#1851,#378);
#320=LINE('',#1853,#379);
#321=LINE('',#1855,#380);
#322=LINE('',#1857,#381);
#323=LINE('',#1859,#382);
#324=LINE('',#1861,#383);
#325=LINE('',#1863,#384);
#326=LINE('',#1865,#385);
#327=LINE('',#1867,#386);
#328=LINE('',#1869,#387);
#329=LINE('',#1871,#388);
#330=LINE('',#1873,#389);
#331=LINE('',#1875,#390);
#332=LINE('',#1877,#391);
#333=LINE('',#1879,#392);
#334=LINE('',#1881,#393);
#335=LINE('',#1883,#394);
#336=LINE('',#1885,#395);
#337=LINE('',#1887,#396);
#338=LINE('',#1889,#397);
#339=LINE('',#1890,#398);
#340=LINE('',#1892,#399);
#341=LINE('',#1894,#400);
#342=LINE('',#1897,#401);
#343=LINE('',#1899,#402);
#344=LINE('',#1900,#403);
#345=LINE('',#1902,#404);
#346=LINE('',#1904,#405);
#347=LINE('',#1908,#406);
#348=LINE('',#1910,#407);
#349=LINE('',#1912,#408);
#350=VECTOR('',#1225,0.757674799805365);
#351=VECTOR('',#1306,19.3379623834085);
#352=VECTOR('',#1309,19.3379623834085);
#353=VECTOR('',#1332,0.757674799805365);
#354=VECTOR('',#1343,19.3379623834085);
#355=VECTOR('',#1346,19.3379623834085);
#356=VECTOR('',#1435,4.);
#357=VECTOR('',#1436,4.);
#358=VECTOR('',#1439,4.);
#359=VECTOR('',#1442,4.);
#360=VECTOR('',#1445,4.);
#361=VECTOR('',#1448,4.);
#362=VECTOR('',#1451,4.);
#363=VECTOR('',#1454,4.);
#364=VECTOR('',#1457,4.);
#365=VECTOR('',#1460,4.);
#366=VECTOR('',#1463,4.);
#367=VECTOR('',#1466,4.);
#368=VECTOR('',#1469,4.);
#369=VECTOR('',#1472,4.);
#370=VECTOR('',#1475,4.);
#371=VECTOR('',#1478,4.);
#372=VECTOR('',#1481,4.);
#373=VECTOR('',#1484,4.);
#374=VECTOR('',#1487,4.);
#375=VECTOR('',#1490,4.);
#376=VECTOR('',#1493,4.);
#377=VECTOR('',#1496,4.);
#378=VECTOR('',#1499,4.);
#379=VECTOR('',#1502,4.);
#380=VECTOR('',#1505,4.);
#381=VECTOR('',#1508,4.);
#382=VECTOR('',#1511,4.);
#383=VECTOR('',#1514,4.);
#384=VECTOR('',#1517,4.);
#385=VECTOR('',#1520,4.);
#386=VECTOR('',#1523,4.);
#387=VECTOR('',#1526,4.);
#388=VECTOR('',#1529,4.);
#389=VECTOR('',#1532,4.);
#390=VECTOR('',#1535,4.);
#391=VECTOR('',#1538,4.);
#392=VECTOR('',#1541,4.);
#393=VECTOR('',#1544,4.);
#394=VECTOR('',#1547,4.);
#395=VECTOR('',#1550,4.);
#396=VECTOR('',#1553,4.);
#397=VECTOR('',#1556,4.);
#398=VECTOR('',#1557,4.);
#399=VECTOR('',#1560,4.);
#400=VECTOR('',#1563,4.);
#401=VECTOR('',#1568,1.75);
#402=VECTOR('',#1571,4.);
#403=VECTOR('',#1572,4.);
#404=VECTOR('',#1575,4.);
#405=VECTOR('',#1578,4.);
#406=VECTOR('',#1585,2.4);
#407=VECTOR('',#1588,1.3);
#408=VECTOR('',#1591,1.3);
#409=VERTEX_POINT('',#1594);
#410=VERTEX_POINT('',#1595);
#411=VERTEX_POINT('',#1597);
#412=VERTEX_POINT('',#1599);
#413=VERTEX_POINT('',#1601);
#414=VERTEX_POINT('',#1603);
#415=VERTEX_POINT('',#1605);
#416=VERTEX_POINT('',#1607);
#417=VERTEX_POINT('',#1609);
#418=VERTEX_POINT('',#1611);
#419=VERTEX_POINT('',#1613);
#420=VERTEX_POINT('',#1615);
#421=VERTEX_POINT('',#1617);
#422=VERTEX_POINT('',#1619);
#423=VERTEX_POINT('',#1621);
#424=VERTEX_POINT('',#1623);
#425=VERTEX_POINT('',#1625);
#426=VERTEX_POINT('',#1627);
#427=VERTEX_POINT('',#1629);
#428=VERTEX_POINT('',#1631);
#429=VERTEX_POINT('',#1633);
#430=VERTEX_POINT('',#1635);
#431=VERTEX_POINT('',#1637);
#432=VERTEX_POINT('',#1639);
#433=VERTEX_POINT('',#1641);
#434=VERTEX_POINT('',#1643);
#435=VERTEX_POINT('',#1645);
#436=VERTEX_POINT('',#1647);
#437=VERTEX_POINT('',#1649);
#438=VERTEX_POINT('',#1651);
#439=VERTEX_POINT('',#1653);
#440=VERTEX_POINT('',#1655);
#441=VERTEX_POINT('',#1657);
#442=VERTEX_POINT('',#1659);
#443=VERTEX_POINT('',#1661);
#444=VERTEX_POINT('',#1663);
#445=VERTEX_POINT('',#1665);
#446=VERTEX_POINT('',#1667);
#447=VERTEX_POINT('',#1669);
#448=VERTEX_POINT('',#1671);
#449=VERTEX_POINT('',#1673);
#450=VERTEX_POINT('',#1675);
#451=VERTEX_POINT('',#1677);
#452=VERTEX_POINT('',#1679);
#453=VERTEX_POINT('',#1681);
#454=VERTEX_POINT('',#1683);
#455=VERTEX_POINT('',#1685);
#456=VERTEX_POINT('',#1687);
#457=VERTEX_POINT('',#1689);
#458=VERTEX_POINT('',#1692);
#459=VERTEX_POINT('',#1694);
#460=VERTEX_POINT('',#1696);
#461=VERTEX_POINT('',#1698);
#462=VERTEX_POINT('',#1701);
#463=VERTEX_POINT('',#1702);
#464=VERTEX_POINT('',#1704);
#465=VERTEX_POINT('',#1706);
#466=VERTEX_POINT('',#1708);
#467=VERTEX_POINT('',#1710);
#468=VERTEX_POINT('',#1712);
#469=VERTEX_POINT('',#1714);
#470=VERTEX_POINT('',#1716);
#471=VERTEX_POINT('',#1718);
#472=VERTEX_POINT('',#1720);
#473=VERTEX_POINT('',#1722);
#474=VERTEX_POINT('',#1724);
#475=VERTEX_POINT('',#1726);
#476=VERTEX_POINT('',#1728);
#477=VERTEX_POINT('',#1730);
#478=VERTEX_POINT('',#1732);
#479=VERTEX_POINT('',#1734);
#480=VERTEX_POINT('',#1736);
#481=VERTEX_POINT('',#1738);
#482=VERTEX_POINT('',#1740);
#483=VERTEX_POINT('',#1742);
#484=VERTEX_POINT('',#1744);
#485=VERTEX_POINT('',#1746);
#486=VERTEX_POINT('',#1748);
#487=VERTEX_POINT('',#1750);
#488=VERTEX_POINT('',#1752);
#489=VERTEX_POINT('',#1754);
#490=VERTEX_POINT('',#1756);
#491=VERTEX_POINT('',#1758);
#492=VERTEX_POINT('',#1760);
#493=VERTEX_POINT('',#1762);
#494=VERTEX_POINT('',#1764);
#495=VERTEX_POINT('',#1766);
#496=VERTEX_POINT('',#1768);
#497=VERTEX_POINT('',#1770);
#498=VERTEX_POINT('',#1772);
#499=VERTEX_POINT('',#1774);
#500=VERTEX_POINT('',#1776);
#501=VERTEX_POINT('',#1778);
#502=VERTEX_POINT('',#1780);
#503=VERTEX_POINT('',#1782);
#504=VERTEX_POINT('',#1784);
#505=VERTEX_POINT('',#1786);
#506=VERTEX_POINT('',#1788);
#507=VERTEX_POINT('',#1790);
#508=VERTEX_POINT('',#1792);
#509=VERTEX_POINT('',#1794);
#510=VERTEX_POINT('',#1796);
#511=VERTEX_POINT('',#1799);
#512=VERTEX_POINT('',#1801);
#513=VERTEX_POINT('',#1803);
#514=VERTEX_POINT('',#1805);
#515=EDGE_CURVE('',#409,#410,#291,.T.);
#516=EDGE_CURVE('',#409,#411,#191,.T.);
#517=EDGE_CURVE('',#411,#412,#192,.T.);
#518=EDGE_CURVE('',#412,#413,#193,.T.);
#519=EDGE_CURVE('',#413,#414,#194,.T.);
#520=EDGE_CURVE('',#414,#415,#195,.T.);
#521=EDGE_CURVE('',#415,#416,#196,.T.);
#522=EDGE_CURVE('',#416,#417,#197,.T.);
#523=EDGE_CURVE('',#417,#418,#198,.T.);
#524=EDGE_CURVE('',#418,#419,#199,.T.);
#525=EDGE_CURVE('',#419,#420,#200,.T.);
#526=EDGE_CURVE('',#420,#421,#201,.T.);
#527=EDGE_CURVE('',#421,#422,#202,.T.);
#528=EDGE_CURVE('',#422,#423,#203,.T.);
#529=EDGE_CURVE('',#423,#424,#204,.T.);
#530=EDGE_CURVE('',#424,#425,#205,.T.);
#531=EDGE_CURVE('',#425,#426,#206,.T.);
#532=EDGE_CURVE('',#426,#427,#207,.T.);
#533=EDGE_CURVE('',#427,#428,#208,.T.);
#534=EDGE_CURVE('',#428,#429,#209,.T.);
#535=EDGE_CURVE('',#429,#430,#210,.T.);
#536=EDGE_CURVE('',#430,#431,#211,.T.);
#537=EDGE_CURVE('',#431,#432,#212,.T.);
#538=EDGE_CURVE('',#432,#433,#213,.T.);
#539=EDGE_CURVE('',#433,#434,#214,.T.);
#540=EDGE_CURVE('',#434,#435,#215,.T.);
#541=EDGE_CURVE('',#435,#436,#216,.T.);
#542=EDGE_CURVE('',#436,#437,#217,.T.);
#543=EDGE_CURVE('',#437,#438,#218,.T.);
#544=EDGE_CURVE('',#438,#439,#219,.T.);
#545=EDGE_CURVE('',#439,#440,#220,.T.);
#546=EDGE_CURVE('',#440,#441,#221,.T.);
#547=EDGE_CURVE('',#441,#442,#222,.T.);
#548=EDGE_CURVE('',#442,#443,#223,.T.);
#549=EDGE_CURVE('',#443,#444,#224,.T.);
#550=EDGE_CURVE('',#444,#445,#225,.T.);
#551=EDGE_CURVE('',#445,#446,#226,.T.);
#552=EDGE_CURVE('',#446,#447,#227,.T.);
#553=EDGE_CURVE('',#447,#448,#228,.T.);
#554=EDGE_CURVE('',#448,#449,#229,.T.);
#555=EDGE_CURVE('',#449,#450,#230,.T.);
#556=EDGE_CURVE('',#450,#451,#292,.T.);
#557=EDGE_CURVE('',#451,#452,#231,.T.);
#558=EDGE_CURVE('',#453,#452,#293,.T.);
#559=EDGE_CURVE('',#453,#454,#232,.T.);
#560=EDGE_CURVE('',#454,#455,#233,.T.);
#561=EDGE_CURVE('',#455,#456,#234,.T.);
#562=EDGE_CURVE('',#456,#457,#235,.T.);
#563=EDGE_CURVE('',#457,#410,#236,.T.);
#564=EDGE_CURVE('',#458,#458,#237,.T.);
#565=EDGE_CURVE('',#459,#459,#238,.T.);
#566=EDGE_CURVE('',#460,#460,#239,.T.);
#567=EDGE_CURVE('',#461,#461,#240,.T.);
#568=EDGE_CURVE('',#462,#463,#241,.T.);
#569=EDGE_CURVE('',#462,#464,#294,.T.);
#570=EDGE_CURVE('',#465,#464,#242,.T.);
#571=EDGE_CURVE('',#466,#465,#243,.T.);
#572=EDGE_CURVE('',#467,#466,#244,.T.);
#573=EDGE_CURVE('',#468,#467,#245,.T.);
#574=EDGE_CURVE('',#469,#468,#246,.T.);
#575=EDGE_CURVE('',#469,#470,#295,.T.);
#576=EDGE_CURVE('',#471,#470,#247,.T.);
#577=EDGE_CURVE('',#472,#471,#296,.T.);
#578=EDGE_CURVE('',#473,#472,#248,.T.);
#579=EDGE_CURVE('',#474,#473,#249,.T.);
#580=EDGE_CURVE('',#475,#474,#250,.T.);
#581=EDGE_CURVE('',#476,#475,#251,.T.);
#582=EDGE_CURVE('',#477,#476,#252,.T.);
#583=EDGE_CURVE('',#478,#477,#253,.T.);
#584=EDGE_CURVE('',#479,#478,#254,.T.);
#585=EDGE_CURVE('',#480,#479,#255,.T.);
#586=EDGE_CURVE('',#481,#480,#256,.T.);
#587=EDGE_CURVE('',#482,#481,#257,.T.);
#588=EDGE_CURVE('',#483,#482,#258,.T.);
#589=EDGE_CURVE('',#484,#483,#259,.T.);
#590=EDGE_CURVE('',#485,#484,#260,.T.);
#591=EDGE_CURVE('',#486,#485,#261,.T.);
#592=EDGE_CURVE('',#487,#486,#262,.T.);
#593=EDGE_CURVE('',#488,#487,#263,.T.);
#594=EDGE_CURVE('',#489,#488,#264,.T.);
#595=EDGE_CURVE('',#490,#489,#265,.T.);
#596=EDGE_CURVE('',#491,#490,#266,.T.);
#597=EDGE_CURVE('',#492,#491,#267,.T.);
#598=EDGE_CURVE('',#493,#492,#268,.T.);
#599=EDGE_CURVE('',#494,#493,#269,.T.);
#600=EDGE_CURVE('',#495,#494,#270,.T.);
#601=EDGE_CURVE('',#496,#495,#271,.T.);
#602=EDGE_CURVE('',#497,#496,#272,.T.);
#603=EDGE_CURVE('',#498,#497,#273,.T.);
#604=EDGE_CURVE('',#499,#498,#274,.T.);
#605=EDGE_CURVE('',#500,#499,#275,.T.);
#606=EDGE_CURVE('',#501,#500,#276,.T.);
#607=EDGE_CURVE('',#502,#501,#277,.T.);
#608=EDGE_CURVE('',#503,#502,#278,.T.);
#609=EDGE_CURVE('',#504,#503,#279,.T.);
#610=EDGE_CURVE('',#505,#504,#280,.T.);
#611=EDGE_CURVE('',#506,#505,#281,.T.);
#612=EDGE_CURVE('',#507,#506,#282,.T.);
#613=EDGE_CURVE('',#508,#507,#283,.T.);
#614=EDGE_CURVE('',#509,#508,#284,.T.);
#615=EDGE_CURVE('',#510,#509,#285,.T.);
#616=EDGE_CURVE('',#463,#510,#286,.T.);
#617=EDGE_CURVE('',#511,#511,#287,.F.);
#618=EDGE_CURVE('',#512,#512,#288,.F.);
#619=EDGE_CURVE('',#513,#513,#289,.F.);
#620=EDGE_CURVE('',#514,#514,#290,.T.);
#621=EDGE_CURVE('',#411,#463,#297,.T.);
#622=EDGE_CURVE('',#409,#462,#298,.T.);
#623=EDGE_CURVE('',#412,#510,#299,.T.);
#624=EDGE_CURVE('',#413,#509,#300,.T.);
#625=EDGE_CURVE('',#414,#508,#301,.T.);
#626=EDGE_CURVE('',#415,#507,#302,.T.);
#627=EDGE_CURVE('',#416,#506,#303,.T.);
#628=EDGE_CURVE('',#417,#505,#304,.T.);
#629=EDGE_CURVE('',#418,#504,#305,.T.);
#630=EDGE_CURVE('',#419,#503,#306,.T.);
#631=EDGE_CURVE('',#420,#502,#307,.T.);
#632=EDGE_CURVE('',#421,#501,#308,.T.);
#633=EDGE_CURVE('',#422,#500,#309,.T.);
#634=EDGE_CURVE('',#423,#499,#310,.T.);
#635=EDGE_CURVE('',#424,#498,#311,.T.);
#636=EDGE_CURVE('',#425,#497,#312,.T.);
#637=EDGE_CURVE('',#426,#496,#313,.T.);
#638=EDGE_CURVE('',#427,#495,#314,.T.);
#639=EDGE_CURVE('',#428,#494,#315,.T.);
#640=EDGE_CURVE('',#429,#493,#316,.T.);
#641=EDGE_CURVE('',#430,#492,#317,.T.);
#642=EDGE_CURVE('',#431,#491,#318,.T.);
#643=EDGE_CURVE('',#432,#490,#319,.T.);
#644=EDGE_CURVE('',#433,#489,#320,.T.);
#645=EDGE_CURVE('',#434,#488,#321,.T.);
#646=EDGE_CURVE('',#435,#487,#322,.T.);
#647=EDGE_CURVE('',#436,#486,#323,.T.);
#648=EDGE_CURVE('',#437,#485,#324,.T.);
#649=EDGE_CURVE('',#438,#484,#325,.T.);
#650=EDGE_CURVE('',#439,#483,#326,.T.);
#651=EDGE_CURVE('',#440,#482,#327,.T.);
#652=EDGE_CURVE('',#441,#481,#328,.T.);
#653=EDGE_CURVE('',#442,#480,#329,.T.);
#654=EDGE_CURVE('',#443,#479,#330,.T.);
#655=EDGE_CURVE('',#444,#478,#331,.T.);
#656=EDGE_CURVE('',#445,#477,#332,.T.);
#657=EDGE_CURVE('',#446,#476,#333,.T.);
#658=EDGE_CURVE('',#447,#475,#334,.T.);
#659=EDGE_CURVE('',#448,#474,#335,.T.);
#660=EDGE_CURVE('',#449,#473,#336,.T.);
#661=EDGE_CURVE('',#472,#450,#337,.T.);
#662=EDGE_CURVE('',#468,#454,#338,.T.);
#663=EDGE_CURVE('',#469,#453,#339,.T.);
#664=EDGE_CURVE('',#471,#451,#340,.T.);
#665=EDGE_CURVE('',#470,#452,#341,.T.);
#666=EDGE_CURVE('',#514,#458,#342,.T.);
#667=EDGE_CURVE('',#467,#455,#343,.T.);
#668=EDGE_CURVE('',#466,#456,#344,.T.);
#669=EDGE_CURVE('',#465,#457,#345,.T.);
#670=EDGE_CURVE('',#464,#410,#346,.T.);
#671=EDGE_CURVE('',#513,#461,#347,.T.);
#672=EDGE_CURVE('',#512,#460,#348,.T.);
#673=EDGE_CURVE('',#511,#459,#349,.T.);
#674=ORIENTED_EDGE('',*,*,#515,.F.);
#675=ORIENTED_EDGE('',*,*,#516,.T.);
#676=ORIENTED_EDGE('',*,*,#517,.T.);
#677=ORIENTED_EDGE('',*,*,#518,.T.);
#678=ORIENTED_EDGE('',*,*,#519,.T.);
#679=ORIENTED_EDGE('',*,*,#520,.T.);
#680=ORIENTED_EDGE('',*,*,#521,.T.);
#681=ORIENTED_EDGE('',*,*,#522,.T.);
#682=ORIENTED_EDGE('',*,*,#523,.T.);
#683=ORIENTED_EDGE('',*,*,#524,.T.);
#684=ORIENTED_EDGE('',*,*,#525,.T.);
#685=ORIENTED_EDGE('',*,*,#526,.T.);
#686=ORIENTED_EDGE('',*,*,#527,.T.);
#687=ORIENTED_EDGE('',*,*,#528,.T.);
#688=ORIENTED_EDGE('',*,*,#529,.T.);
#689=ORIENTED_EDGE('',*,*,#530,.T.);
#690=ORIENTED_EDGE('',*,*,#531,.T.);
#691=ORIENTED_EDGE('',*,*,#532,.T.);
#692=ORIENTED_EDGE('',*,*,#533,.T.);
#693=ORIENTED_EDGE('',*,*,#534,.T.);
#694=ORIENTED_EDGE('',*,*,#535,.T.);
#695=ORIENTED_EDGE('',*,*,#536,.T.);
#696=ORIENTED_EDGE('',*,*,#537,.T.);
#697=ORIENTED_EDGE('',*,*,#538,.T.);
#698=ORIENTED_EDGE('',*,*,#539,.T.);
#699=ORIENTED_EDGE('',*,*,#540,.T.);
#700=ORIENTED_EDGE('',*,*,#541,.T.);
#701=ORIENTED_EDGE('',*,*,#542,.T.);
#702=ORIENTED_EDGE('',*,*,#543,.T.);
#703=ORIENTED_EDGE('',*,*,#544,.T.);
#704=ORIENTED_EDGE('',*,*,#545,.T.);
#705=ORIENTED_EDGE('',*,*,#546,.T.);
#706=ORIENTED_EDGE('',*,*,#547,.T.);
#707=ORIENTED_EDGE('',*,*,#548,.T.);
#708=ORIENTED_EDGE('',*,*,#549,.T.);
#709=ORIENTED_EDGE('',*,*,#550,.T.);
#710=ORIENTED_EDGE('',*,*,#551,.T.);
#711=ORIENTED_EDGE('',*,*,#552,.T.);
#712=ORIENTED_EDGE('',*,*,#553,.T.);
#713=ORIENTED_EDGE('',*,*,#554,.T.);
#714=ORIENTED_EDGE('',*,*,#555,.T.);
#715=ORIENTED_EDGE('',*,*,#556,.T.);
#716=ORIENTED_EDGE('',*,*,#557,.T.);
#717=ORIENTED_EDGE('',*,*,#558,.F.);
#718=ORIENTED_EDGE('',*,*,#559,.T.);
#719=ORIENTED_EDGE('',*,*,#560,.T.);
#720=ORIENTED_EDGE('',*,*,#561,.T.);
#721=ORIENTED_EDGE('',*,*,#562,.T.);
#722=ORIENTED_EDGE('',*,*,#563,.T.);
#723=ORIENTED_EDGE('',*,*,#564,.F.);
#724=ORIENTED_EDGE('',*,*,#565,.F.);
#725=ORIENTED_EDGE('',*,*,#566,.F.);
#726=ORIENTED_EDGE('',*,*,#567,.F.);
#727=ORIENTED_EDGE('',*,*,#568,.F.);
#728=ORIENTED_EDGE('',*,*,#569,.T.);
#729=ORIENTED_EDGE('',*,*,#570,.F.);
#730=ORIENTED_EDGE('',*,*,#571,.F.);
#731=ORIENTED_EDGE('',*,*,#572,.F.);
#732=ORIENTED_EDGE('',*,*,#573,.F.);
#733=ORIENTED_EDGE('',*,*,#574,.F.);
#734=ORIENTED_EDGE('',*,*,#575,.T.);
#735=ORIENTED_EDGE('',*,*,#576,.F.);
#736=ORIENTED_EDGE('',*,*,#577,.F.);
#737=ORIENTED_EDGE('',*,*,#578,.F.);
#738=ORIENTED_EDGE('',*,*,#579,.F.);
#739=ORIENTED_EDGE('',*,*,#580,.F.);
#740=ORIENTED_EDGE('',*,*,#581,.F.);
#741=ORIENTED_EDGE('',*,*,#582,.F.);
#742=ORIENTED_EDGE('',*,*,#583,.F.);
#743=ORIENTED_EDGE('',*,*,#584,.F.);
#744=ORIENTED_EDGE('',*,*,#585,.F.);
#745=ORIENTED_EDGE('',*,*,#586,.F.);
#746=ORIENTED_EDGE('',*,*,#587,.F.);
#747=ORIENTED_EDGE('',*,*,#588,.F.);
#748=ORIENTED_EDGE('',*,*,#589,.F.);
#749=ORIENTED_EDGE('',*,*,#590,.F.);
#750=ORIENTED_EDGE('',*,*,#591,.F.);
#751=ORIENTED_EDGE('',*,*,#592,.F.);
#752=ORIENTED_EDGE('',*,*,#593,.F.);
#753=ORIENTED_EDGE('',*,*,#594,.F.);
#754=ORIENTED_EDGE('',*,*,#595,.F.);
#755=ORIENTED_EDGE('',*,*,#596,.F.);
#756=ORIENTED_EDGE('',*,*,#597,.F.);
#757=ORIENTED_EDGE('',*,*,#598,.F.);
#758=ORIENTED_EDGE('',*,*,#599,.F.);
#759=ORIENTED_EDGE('',*,*,#600,.F.);
#760=ORIENTED_EDGE('',*,*,#601,.F.);
#761=ORIENTED_EDGE('',*,*,#602,.F.);
#762=ORIENTED_EDGE('',*,*,#603,.F.);
#763=ORIENTED_EDGE('',*,*,#604,.F.);
#764=ORIENTED_EDGE('',*,*,#605,.F.);
#765=ORIENTED_EDGE('',*,*,#606,.F.);
#766=ORIENTED_EDGE('',*,*,#607,.F.);
#767=ORIENTED_EDGE('',*,*,#608,.F.);
#768=ORIENTED_EDGE('',*,*,#609,.F.);
#769=ORIENTED_EDGE('',*,*,#610,.F.);
#770=ORIENTED_EDGE('',*,*,#611,.F.);
#771=ORIENTED_EDGE('',*,*,#612,.F.);
#772=ORIENTED_EDGE('',*,*,#613,.F.);
#773=ORIENTED_EDGE('',*,*,#614,.F.);
#774=ORIENTED_EDGE('',*,*,#615,.F.);
#775=ORIENTED_EDGE('',*,*,#616,.F.);
#776=ORIENTED_EDGE('',*,*,#617,.F.);
#777=ORIENTED_EDGE('',*,*,#618,.F.);
#778=ORIENTED_EDGE('',*,*,#619,.F.);
#779=ORIENTED_EDGE('',*,*,#620,.T.);
#780=ORIENTED_EDGE('',*,*,#568,.T.);
#781=ORIENTED_EDGE('',*,*,#621,.F.);
#782=ORIENTED_EDGE('',*,*,#516,.F.);
#783=ORIENTED_EDGE('',*,*,#622,.T.);
#784=ORIENTED_EDGE('',*,*,#616,.T.);
#785=ORIENTED_EDGE('',*,*,#623,.F.);
#786=ORIENTED_EDGE('',*,*,#517,.F.);
#787=ORIENTED_EDGE('',*,*,#621,.T.);
#788=ORIENTED_EDGE('',*,*,#615,.T.);
#789=ORIENTED_EDGE('',*,*,#624,.F.);
#790=ORIENTED_EDGE('',*,*,#518,.F.);
#791=ORIENTED_EDGE('',*,*,#623,.T.);
#792=ORIENTED_EDGE('',*,*,#614,.T.);
#793=ORIENTED_EDGE('',*,*,#625,.F.);
#794=ORIENTED_EDGE('',*,*,#519,.F.);
#795=ORIENTED_EDGE('',*,*,#624,.T.);
#796=ORIENTED_EDGE('',*,*,#613,.T.);
#797=ORIENTED_EDGE('',*,*,#626,.F.);
#798=ORIENTED_EDGE('',*,*,#520,.F.);
#799=ORIENTED_EDGE('',*,*,#625,.T.);
#800=ORIENTED_EDGE('',*,*,#612,.T.);
#801=ORIENTED_EDGE('',*,*,#627,.F.);
#802=ORIENTED_EDGE('',*,*,#521,.F.);
#803=ORIENTED_EDGE('',*,*,#626,.T.);
#804=ORIENTED_EDGE('',*,*,#611,.T.);
#805=ORIENTED_EDGE('',*,*,#628,.F.);
#806=ORIENTED_EDGE('',*,*,#522,.F.);
#807=ORIENTED_EDGE('',*,*,#627,.T.);
#808=ORIENTED_EDGE('',*,*,#610,.T.);
#809=ORIENTED_EDGE('',*,*,#629,.F.);
#810=ORIENTED_EDGE('',*,*,#523,.F.);
#811=ORIENTED_EDGE('',*,*,#628,.T.);
#812=ORIENTED_EDGE('',*,*,#609,.T.);
#813=ORIENTED_EDGE('',*,*,#630,.F.);
#814=ORIENTED_EDGE('',*,*,#524,.F.);
#815=ORIENTED_EDGE('',*,*,#629,.T.);
#816=ORIENTED_EDGE('',*,*,#608,.T.);
#817=ORIENTED_EDGE('',*,*,#631,.F.);
#818=ORIENTED_EDGE('',*,*,#525,.F.);
#819=ORIENTED_EDGE('',*,*,#630,.T.);
#820=ORIENTED_EDGE('',*,*,#607,.T.);
#821=ORIENTED_EDGE('',*,*,#632,.F.);
#822=ORIENTED_EDGE('',*,*,#526,.F.);
#823=ORIENTED_EDGE('',*,*,#631,.T.);
#824=ORIENTED_EDGE('',*,*,#606,.T.);
#825=ORIENTED_EDGE('',*,*,#633,.F.);
#826=ORIENTED_EDGE('',*,*,#527,.F.);
#827=ORIENTED_EDGE('',*,*,#632,.T.);
#828=ORIENTED_EDGE('',*,*,#605,.T.);
#829=ORIENTED_EDGE('',*,*,#634,.F.);
#830=ORIENTED_EDGE('',*,*,#528,.F.);
#831=ORIENTED_EDGE('',*,*,#633,.T.);
#832=ORIENTED_EDGE('',*,*,#604,.T.);
#833=ORIENTED_EDGE('',*,*,#635,.F.);
#834=ORIENTED_EDGE('',*,*,#529,.F.);
#835=ORIENTED_EDGE('',*,*,#634,.T.);
#836=ORIENTED_EDGE('',*,*,#603,.T.);
#837=ORIENTED_EDGE('',*,*,#636,.F.);
#838=ORIENTED_EDGE('',*,*,#530,.F.);
#839=ORIENTED_EDGE('',*,*,#635,.T.);
#840=ORIENTED_EDGE('',*,*,#602,.T.);
#841=ORIENTED_EDGE('',*,*,#637,.F.);
#842=ORIENTED_EDGE('',*,*,#531,.F.);
#843=ORIENTED_EDGE('',*,*,#636,.T.);
#844=ORIENTED_EDGE('',*,*,#601,.T.);
#845=ORIENTED_EDGE('',*,*,#638,.F.);
#846=ORIENTED_EDGE('',*,*,#532,.F.);
#847=ORIENTED_EDGE('',*,*,#637,.T.);
#848=ORIENTED_EDGE('',*,*,#600,.T.);
#849=ORIENTED_EDGE('',*,*,#639,.F.);
#850=ORIENTED_EDGE('',*,*,#533,.F.);
#851=ORIENTED_EDGE('',*,*,#638,.T.);
#852=ORIENTED_EDGE('',*,*,#599,.T.);
#853=ORIENTED_EDGE('',*,*,#640,.F.);
#854=ORIENTED_EDGE('',*,*,#534,.F.);
#855=ORIENTED_EDGE('',*,*,#639,.T.);
#856=ORIENTED_EDGE('',*,*,#598,.T.);
#857=ORIENTED_EDGE('',*,*,#641,.F.);
#858=ORIENTED_EDGE('',*,*,#535,.F.);
#859=ORIENTED_EDGE('',*,*,#640,.T.);
#860=ORIENTED_EDGE('',*,*,#597,.T.);
#861=ORIENTED_EDGE('',*,*,#642,.F.);
#862=ORIENTED_EDGE('',*,*,#536,.F.);
#863=ORIENTED_EDGE('',*,*,#641,.T.);
#864=ORIENTED_EDGE('',*,*,#596,.T.);
#865=ORIENTED_EDGE('',*,*,#643,.F.);
#866=ORIENTED_EDGE('',*,*,#537,.F.);
#867=ORIENTED_EDGE('',*,*,#642,.T.);
#868=ORIENTED_EDGE('',*,*,#595,.T.);
#869=ORIENTED_EDGE('',*,*,#644,.F.);
#870=ORIENTED_EDGE('',*,*,#538,.F.);
#871=ORIENTED_EDGE('',*,*,#643,.T.);
#872=ORIENTED_EDGE('',*,*,#594,.T.);
#873=ORIENTED_EDGE('',*,*,#645,.F.);
#874=ORIENTED_EDGE('',*,*,#539,.F.);
#875=ORIENTED_EDGE('',*,*,#644,.T.);
#876=ORIENTED_EDGE('',*,*,#593,.T.);
#877=ORIENTED_EDGE('',*,*,#646,.F.);
#878=ORIENTED_EDGE('',*,*,#540,.F.);
#879=ORIENTED_EDGE('',*,*,#645,.T.);
#880=ORIENTED_EDGE('',*,*,#592,.T.);
#881=ORIENTED_EDGE('',*,*,#647,.F.);
#882=ORIENTED_EDGE('',*,*,#541,.F.);
#883=ORIENTED_EDGE('',*,*,#646,.T.);
#884=ORIENTED_EDGE('',*,*,#591,.T.);
#885=ORIENTED_EDGE('',*,*,#648,.F.);
#886=ORIENTED_EDGE('',*,*,#542,.F.);
#887=ORIENTED_EDGE('',*,*,#647,.T.);
#888=ORIENTED_EDGE('',*,*,#590,.T.);
#889=ORIENTED_EDGE('',*,*,#649,.F.);
#890=ORIENTED_EDGE('',*,*,#543,.F.);
#891=ORIENTED_EDGE('',*,*,#648,.T.);
#892=ORIENTED_EDGE('',*,*,#589,.T.);
#893=ORIENTED_EDGE('',*,*,#650,.F.);
#894=ORIENTED_EDGE('',*,*,#544,.F.);
#895=ORIENTED_EDGE('',*,*,#649,.T.);
#896=ORIENTED_EDGE('',*,*,#588,.T.);
#897=ORIENTED_EDGE('',*,*,#651,.F.);
#898=ORIENTED_EDGE('',*,*,#545,.F.);
#899=ORIENTED_EDGE('',*,*,#650,.T.);
#900=ORIENTED_EDGE('',*,*,#587,.T.);
#901=ORIENTED_EDGE('',*,*,#652,.F.);
#902=ORIENTED_EDGE('',*,*,#546,.F.);
#903=ORIENTED_EDGE('',*,*,#651,.T.);
#904=ORIENTED_EDGE('',*,*,#586,.T.);
#905=ORIENTED_EDGE('',*,*,#653,.F.);
#906=ORIENTED_EDGE('',*,*,#547,.F.);
#907=ORIENTED_EDGE('',*,*,#652,.T.);
#908=ORIENTED_EDGE('',*,*,#585,.T.);
#909=ORIENTED_EDGE('',*,*,#654,.F.);
#910=ORIENTED_EDGE('',*,*,#548,.F.);
#911=ORIENTED_EDGE('',*,*,#653,.T.);
#912=ORIENTED_EDGE('',*,*,#584,.T.);
#913=ORIENTED_EDGE('',*,*,#655,.F.);
#914=ORIENTED_EDGE('',*,*,#549,.F.);
#915=ORIENTED_EDGE('',*,*,#654,.T.);
#916=ORIENTED_EDGE('',*,*,#583,.T.);
#917=ORIENTED_EDGE('',*,*,#656,.F.);
#918=ORIENTED_EDGE('',*,*,#550,.F.);
#919=ORIENTED_EDGE('',*,*,#655,.T.);
#920=ORIENTED_EDGE('',*,*,#582,.T.);
#921=ORIENTED_EDGE('',*,*,#657,.F.);
#922=ORIENTED_EDGE('',*,*,#551,.F.);
#923=ORIENTED_EDGE('',*,*,#656,.T.);
#924=ORIENTED_EDGE('',*,*,#581,.T.);
#925=ORIENTED_EDGE('',*,*,#658,.F.);
#926=ORIENTED_EDGE('',*,*,#552,.F.);
#927=ORIENTED_EDGE('',*,*,#657,.T.);
#928=ORIENTED_EDGE('',*,*,#580,.T.);
#929=ORIENTED_EDGE('',*,*,#659,.F.);
#930=ORIENTED_EDGE('',*,*,#553,.F.);
#931=ORIENTED_EDGE('',*,*,#658,.T.);
#932=ORIENTED_EDGE('',*,*,#579,.T.);
#933=ORIENTED_EDGE('',*,*,#660,.F.);
#934=ORIENTED_EDGE('',*,*,#554,.F.);
#935=ORIENTED_EDGE('',*,*,#659,.T.);
#936=ORIENTED_EDGE('',*,*,#578,.T.);
#937=ORIENTED_EDGE('',*,*,#661,.T.);
#938=ORIENTED_EDGE('',*,*,#555,.F.);
#939=ORIENTED_EDGE('',*,*,#660,.T.);
#940=ORIENTED_EDGE('',*,*,#574,.T.);
#941=ORIENTED_EDGE('',*,*,#662,.T.);
#942=ORIENTED_EDGE('',*,*,#559,.F.);
#943=ORIENTED_EDGE('',*,*,#663,.F.);
#944=ORIENTED_EDGE('',*,*,#556,.F.);
#945=ORIENTED_EDGE('',*,*,#661,.F.);
#946=ORIENTED_EDGE('',*,*,#577,.T.);
#947=ORIENTED_EDGE('',*,*,#664,.T.);
#948=ORIENTED_EDGE('',*,*,#575,.F.);
#949=ORIENTED_EDGE('',*,*,#663,.T.);
#950=ORIENTED_EDGE('',*,*,#558,.T.);
#951=ORIENTED_EDGE('',*,*,#665,.F.);
#952=ORIENTED_EDGE('',*,*,#557,.F.);
#953=ORIENTED_EDGE('',*,*,#664,.F.);
#954=ORIENTED_EDGE('',*,*,#576,.T.);
#955=ORIENTED_EDGE('',*,*,#665,.T.);
#956=ORIENTED_EDGE('',*,*,#620,.F.);
#957=ORIENTED_EDGE('',*,*,#666,.T.);
#958=ORIENTED_EDGE('',*,*,#564,.T.);
#959=ORIENTED_EDGE('',*,*,#666,.F.);
#960=ORIENTED_EDGE('',*,*,#561,.F.);
#961=ORIENTED_EDGE('',*,*,#667,.F.);
#962=ORIENTED_EDGE('',*,*,#572,.T.);
#963=ORIENTED_EDGE('',*,*,#668,.T.);
#964=ORIENTED_EDGE('',*,*,#562,.F.);
#965=ORIENTED_EDGE('',*,*,#668,.F.);
#966=ORIENTED_EDGE('',*,*,#571,.T.);
#967=ORIENTED_EDGE('',*,*,#669,.T.);
#968=ORIENTED_EDGE('',*,*,#563,.F.);
#969=ORIENTED_EDGE('',*,*,#669,.F.);
#970=ORIENTED_EDGE('',*,*,#570,.T.);
#971=ORIENTED_EDGE('',*,*,#670,.T.);
#972=ORIENTED_EDGE('',*,*,#515,.T.);
#973=ORIENTED_EDGE('',*,*,#670,.F.);
#974=ORIENTED_EDGE('',*,*,#569,.F.);
#975=ORIENTED_EDGE('',*,*,#622,.F.);
#976=ORIENTED_EDGE('',*,*,#560,.F.);
#977=ORIENTED_EDGE('',*,*,#662,.F.);
#978=ORIENTED_EDGE('',*,*,#573,.T.);
#979=ORIENTED_EDGE('',*,*,#667,.T.);
#980=ORIENTED_EDGE('',*,*,#619,.T.);
#981=ORIENTED_EDGE('',*,*,#671,.T.);
#982=ORIENTED_EDGE('',*,*,#567,.T.);
#983=ORIENTED_EDGE('',*,*,#671,.F.);
#984=ORIENTED_EDGE('',*,*,#618,.T.);
#985=ORIENTED_EDGE('',*,*,#672,.T.);
#986=ORIENTED_EDGE('',*,*,#566,.T.);
#987=ORIENTED_EDGE('',*,*,#672,.F.);
#988=ORIENTED_EDGE('',*,*,#617,.T.);
#989=ORIENTED_EDGE('',*,*,#673,.T.);
#990=ORIENTED_EDGE('',*,*,#565,.T.);
#991=ORIENTED_EDGE('',*,*,#673,.F.);
#992=PLANE('',#1066);
#993=PLANE('',#1117);
#994=PLANE('',#1209);
#995=PLANE('',#1210);
#996=PLANE('',#1216);
#997=ADVANCED_FACE('',(#73,#65,#66,#67,#68),#992,.T.);
#998=ADVANCED_FACE('',(#74,#69,#70,#71,#72),#993,.F.);
#999=ADVANCED_FACE('',(#75),#15,.T.);
#1000=ADVANCED_FACE('',(#76),#16,.T.);
#1001=ADVANCED_FACE('',(#77),#17,.T.);
#1002=ADVANCED_FACE('',(#78),#18,.T.);
#1003=ADVANCED_FACE('',(#79),#19,.T.);
#1004=ADVANCED_FACE('',(#80),#20,.T.);
#1005=ADVANCED_FACE('',(#81),#21,.T.);
#1006=ADVANCED_FACE('',(#82),#22,.T.);
#1007=ADVANCED_FACE('',(#83),#23,.T.);
#1008=ADVANCED_FACE('',(#84),#24,.T.);
#1009=ADVANCED_FACE('',(#85),#25,.T.);
#1010=ADVANCED_FACE('',(#86),#26,.T.);
#1011=ADVANCED_FACE('',(#87),#27,.T.);
#1012=ADVANCED_FACE('',(#88),#28,.T.);
#1013=ADVANCED_FACE('',(#89),#29,.T.);
#1014=ADVANCED_FACE('',(#90),#30,.T.);
#1015=ADVANCED_FACE('',(#91),#31,.T.);
#1016=ADVANCED_FACE('',(#92),#32,.T.);
#1017=ADVANCED_FACE('',(#93),#33,.T.);
#1018=ADVANCED_FACE('',(#94),#34,.T.);
#1019=ADVANCED_FACE('',(#95),#35,.T.);
#1020=ADVANCED_FACE('',(#96),#36,.T.);
#1021=ADVANCED_FACE('',(#97),#37,.T.);
#1022=ADVANCED_FACE('',(#98),#38,.T.);
#1023=ADVANCED_FACE('',(#99),#39,.T.);
#1024=ADVANCED_FACE('',(#100),#40,.T.);
#1025=ADVANCED_FACE('',(#101),#41,.T.);
#1026=ADVANCED_FACE('',(#102),#42,.T.);
#1027=ADVANCED_FACE('',(#103),#43,.T.);
#1028=ADVANCED_FACE('',(#104),#44,.T.);
#1029=ADVANCED_FACE('',(#105),#45,.T.);
#1030=ADVANCED_FACE('',(#106),#46,.T.);
#1031=ADVANCED_FACE('',(#107),#47,.T.);
#1032=ADVANCED_FACE('',(#108),#48,.T.);
#1033=ADVANCED_FACE('',(#109),#49,.T.);
#1034=ADVANCED_FACE('',(#110),#50,.T.);
#1035=ADVANCED_FACE('',(#111),#51,.T.);
#1036=ADVANCED_FACE('',(#112),#52,.T.);
#1037=ADVANCED_FACE('',(#113),#53,.T.);
#1038=ADVANCED_FACE('',(#114),#54,.T.);
#1039=ADVANCED_FACE('',(#115),#55,.T.);
#1040=ADVANCED_FACE('',(#116),#994,.T.);
#1041=ADVANCED_FACE('',(#117),#995,.F.);
#1042=ADVANCED_FACE('',(#118),#56,.T.);
#1043=ADVANCED_FACE('',(#119),#57,.F.);
#1044=ADVANCED_FACE('',(#120),#58,.T.);
#1045=ADVANCED_FACE('',(#121),#59,.T.);
#1046=ADVANCED_FACE('',(#122),#60,.T.);
#1047=ADVANCED_FACE('',(#123),#996,.F.);
#1048=ADVANCED_FACE('',(#124),#61,.T.);
#1049=ADVANCED_FACE('',(#125),#62,.F.);
#1050=ADVANCED_FACE('',(#126),#63,.F.);
#1051=ADVANCED_FACE('',(#127),#64,.F.);
#1052=CLOSED_SHELL('',(#997,#998,#999,#1000,#1001,#1002,#1003,#1004,#1005,
#1006,#1007,#1008,#1009,#1010,#1011,#1012,#1013,#1014,#1015,#1016,#1017,
#1018,#1019,#1020,#1021,#1022,#1023,#1024,#1025,#1026,#1027,#1028,#1029,
#1030,#1031,#1032,#1033,#1034,#1035,#1036,#1037,#1038,#1039,#1040,#1041,
#1042,#1043,#1044,#1045,#1046,#1047,#1048,#1049,#1050,#1051));
#1053=DERIVED_UNIT_ELEMENT(#1055,1.);
#1054=DERIVED_UNIT_ELEMENT(#1918,-3.);
#1055=(
MASS_UNIT()
NAMED_UNIT(*)
SI_UNIT(.KILO.,.GRAM.)
);
#1056=DERIVED_UNIT((#1053,#1054));
#1057=MEASURE_REPRESENTATION_ITEM('density measure',
POSITIVE_RATIO_MEASURE(7850.),#1056);
#1058=PROPERTY_DEFINITION_REPRESENTATION(#1063,#1060);
#1059=PROPERTY_DEFINITION_REPRESENTATION(#1064,#1061);
#1060=REPRESENTATION('material name',(#1062),#1915);
#1061=REPRESENTATION('density',(#1057),#1915);
#1062=DESCRIPTIVE_REPRESENTATION_ITEM('Steel','Steel');
#1063=PROPERTY_DEFINITION('material property','material name',#1925);
#1064=PROPERTY_DEFINITION('material property','density of part',#1925);
#1065=AXIS2_PLACEMENT_3D('',#1592,#1221,#1222);
#1066=AXIS2_PLACEMENT_3D('',#1593,#1223,#1224);
#1067=AXIS2_PLACEMENT_3D('',#1598,#1226,#1227);
#1068=AXIS2_PLACEMENT_3D('',#1600,#1228,#1229);
#1069=AXIS2_PLACEMENT_3D('',#1602,#1230,#1231);
#1070=AXIS2_PLACEMENT_3D('',#1604,#1232,#1233);
#1071=AXIS2_PLACEMENT_3D('',#1606,#1234,#1235);
#1072=AXIS2_PLACEMENT_3D('',#1608,#1236,#1237);
#1073=AXIS2_PLACEMENT_3D('',#1610,#1238,#1239);
#1074=AXIS2_PLACEMENT_3D('',#1612,#1240,#1241);
#1075=AXIS2_PLACEMENT_3D('',#1614,#1242,#1243);
#1076=AXIS2_PLACEMENT_3D('',#1616,#1244,#1245);
#1077=AXIS2_PLACEMENT_3D('',#1618,#1246,#1247);
#1078=AXIS2_PLACEMENT_3D('',#1620,#1248,#1249);
#1079=AXIS2_PLACEMENT_3D('',#1622,#1250,#1251);
#1080=AXIS2_PLACEMENT_3D('',#1624,#1252,#1253);
#1081=AXIS2_PLACEMENT_3D('',#1626,#1254,#1255);
#1082=AXIS2_PLACEMENT_3D('',#1628,#1256,#1257);
#1083=AXIS2_PLACEMENT_3D('',#1630,#1258,#1259);
#1084=AXIS2_PLACEMENT_3D('',#1632,#1260,#1261);
#1085=AXIS2_PLACEMENT_3D('',#1634,#1262,#1263);
#1086=AXIS2_PLACEMENT_3D('',#1636,#1264,#1265);
#1087=AXIS2_PLACEMENT_3D('',#1638,#1266,#1267);
#1088=AXIS2_PLACEMENT_3D('',#1640,#1268,#1269);
#1089=AXIS2_PLACEMENT_3D('',#1642,#1270,#1271);
#1090=AXIS2_PLACEMENT_3D('',#1644,#1272,#1273);
#1091=AXIS2_PLACEMENT_3D('',#1646,#1274,#1275);
#1092=AXIS2_PLACEMENT_3D('',#1648,#1276,#1277);
#1093=AXIS2_PLACEMENT_3D('',#1650,#1278,#1279);
#1094=AXIS2_PLACEMENT_3D('',#1652,#1280,#1281);
#1095=AXIS2_PLACEMENT_3D('',#1654,#1282,#1283);
#1096=AXIS2_PLACEMENT_3D('',#1656,#1284,#1285);
#1097=AXIS2_PLACEMENT_3D('',#1658,#1286,#1287);
#1098=AXIS2_PLACEMENT_3D('',#1660,#1288,#1289);
#1099=AXIS2_PLACEMENT_3D('',#1662,#1290,#1291);
#1100=AXIS2_PLACEMENT_3D('',#1664,#1292,#1293);
#1101=AXIS2_PLACEMENT_3D('',#1666,#1294,#1295);
#1102=AXIS2_PLACEMENT_3D('',#1668,#1296,#1297);
#1103=AXIS2_PLACEMENT_3D('',#1670,#1298,#1299);
#1104=AXIS2_PLACEMENT_3D('',#1672,#1300,#1301);
#1105=AXIS2_PLACEMENT_3D('',#1674,#1302,#1303);
#1106=AXIS2_PLACEMENT_3D('',#1676,#1304,#1305);
#1107=AXIS2_PLACEMENT_3D('',#1680,#1307,#1308);
#1108=AXIS2_PLACEMENT_3D('',#1684,#1310,#1311);
#1109=AXIS2_PLACEMENT_3D('',#1686,#1312,#1313);
#1110=AXIS2_PLACEMENT_3D('',#1688,#1314,#1315);
#1111=AXIS2_PLACEMENT_3D('',#1690,#1316,#1317);
#1112=AXIS2_PLACEMENT_3D('',#1691,#1318,#1319);
#1113=AXIS2_PLACEMENT_3D('',#1693,#1320,#1321);
#1114=AXIS2_PLACEMENT_3D('',#1695,#1322,#1323);
#1115=AXIS2_PLACEMENT_3D('',#1697,#1324,#1325);
#1116=AXIS2_PLACEMENT_3D('',#1699,#1326,#1327);
#1117=AXIS2_PLACEMENT_3D('',#1700,#1328,#1329);
#1118=AXIS2_PLACEMENT_3D('',#1703,#1330,#1331);
#1119=AXIS2_PLACEMENT_3D('',#1707,#1333,#1334);
#1120=AXIS2_PLACEMENT_3D('',#1709,#1335,#1336);
#1121=AXIS2_PLACEMENT_3D('',#1711,#1337,#1338);
#1122=AXIS2_PLACEMENT_3D('',#1713,#1339,#1340);
#1123=AXIS2_PLACEMENT_3D('',#1715,#1341,#1342);
#1124=AXIS2_PLACEMENT_3D('',#1719,#1344,#1345);
#1125=AXIS2_PLACEMENT_3D('',#1723,#1347,#1348);
#1126=AXIS2_PLACEMENT_3D('',#1725,#1349,#1350);
#1127=AXIS2_PLACEMENT_3D('',#1727,#1351,#1352);
#1128=AXIS2_PLACEMENT_3D('',#1729,#1353,#1354);
#1129=AXIS2_PLACEMENT_3D('',#1731,#1355,#1356);
#1130=AXIS2_PLACEMENT_3D('',#1733,#1357,#1358);
#1131=AXIS2_PLACEMENT_3D('',#1735,#1359,#1360);
#1132=AXIS2_PLACEMENT_3D('',#1737,#1361,#1362);
#1133=AXIS2_PLACEMENT_3D('',#1739,#1363,#1364);
#1134=AXIS2_PLACEMENT_3D('',#1741,#1365,#1366);
#1135=AXIS2_PLACEMENT_3D('',#1743,#1367,#1368);
#1136=AXIS2_PLACEMENT_3D('',#1745,#1369,#1370);
#1137=AXIS2_PLACEMENT_3D('',#1747,#1371,#1372);
#1138=AXIS2_PLACEMENT_3D('',#1749,#1373,#1374);
#1139=AXIS2_PLACEMENT_3D('',#1751,#1375,#1376);
#1140=AXIS2_PLACEMENT_3D('',#1753,#1377,#1378);
#1141=AXIS2_PLACEMENT_3D('',#1755,#1379,#1380);
#1142=AXIS2_PLACEMENT_3D('',#1757,#1381,#1382);
#1143=AXIS2_PLACEMENT_3D('',#1759,#1383,#1384);
#1144=AXIS2_PLACEMENT_3D('',#1761,#1385,#1386);
#1145=AXIS2_PLACEMENT_3D('',#1763,#1387,#1388);
#1146=AXIS2_PLACEMENT_3D('',#1765,#1389,#1390);
#1147=AXIS2_PLACEMENT_3D('',#1767,#1391,#1392);
#1148=AXIS2_PLACEMENT_3D('',#1769,#1393,#1394);
#1149=AXIS2_PLACEMENT_3D('',#1771,#1395,#1396);
#1150=AXIS2_PLACEMENT_3D('',#1773,#1397,#1398);
#1151=AXIS2_PLACEMENT_3D('',#1775,#1399,#1400);
#1152=AXIS2_PLACEMENT_3D('',#1777,#1401,#1402);
#1153=AXIS2_PLACEMENT_3D('',#1779,#1403,#1404);
#1154=AXIS2_PLACEMENT_3D('',#1781,#1405,#1406);
#1155=AXIS2_PLACEMENT_3D('',#1783,#1407,#1408);
#1156=AXIS2_PLACEMENT_3D('',#1785,#1409,#1410);
#1157=AXIS2_PLACEMENT_3D('',#1787,#1411,#1412);
#1158=AXIS2_PLACEMENT_3D('',#1789,#1413,#1414);
#1159=AXIS2_PLACEMENT_3D('',#1791,#1415,#1416);
#1160=AXIS2_PLACEMENT_3D('',#1793,#1417,#1418);
#1161=AXIS2_PLACEMENT_3D('',#1795,#1419,#1420);
#1162=AXIS2_PLACEMENT_3D('',#1797,#1421,#1422);
#1163=AXIS2_PLACEMENT_3D('',#1798,#1423,#1424);
#1164=AXIS2_PLACEMENT_3D('',#1800,#1425,#1426);
#1165=AXIS2_PLACEMENT_3D('',#1802,#1427,#1428);
#1166=AXIS2_PLACEMENT_3D('',#1804,#1429,#1430);
#1167=AXIS2_PLACEMENT_3D('',#1806,#1431,#1432);
#1168=AXIS2_PLACEMENT_3D('',#1807,#1433,#1434);
#1169=AXIS2_PLACEMENT_3D('',#1810,#1437,#1438);
#1170=AXIS2_PLACEMENT_3D('',#1812,#1440,#1441);
#1171=AXIS2_PLACEMENT_3D('',#1814,#1443,#1444);
#1172=AXIS2_PLACEMENT_3D('',#1816,#1446,#1447);
#1173=AXIS2_PLACEMENT_3D('',#1818,#1449,#1450);
#1174=AXIS2_PLACEMENT_3D('',#1820,#1452,#1453);
#1175=AXIS2_PLACEMENT_3D('',#1822,#1455,#1456);
#1176=AXIS2_PLACEMENT_3D('',#1824,#1458,#1459);
#1177=AXIS2_PLACEMENT_3D('',#1826,#1461,#1462);
#1178=AXIS2_PLACEMENT_3D('',#1828,#1464,#1465);
#1179=AXIS2_PLACEMENT_3D('',#1830,#1467,#1468);
#1180=AXIS2_PLACEMENT_3D('',#1832,#1470,#1471);
#1181=AXIS2_PLACEMENT_3D('',#1834,#1473,#1474);
#1182=AXIS2_PLACEMENT_3D('',#1836,#1476,#1477);
#1183=AXIS2_PLACEMENT_3D('',#1838,#1479,#1480);
#1184=AXIS2_PLACEMENT_3D('',#1840,#1482,#1483);
#1185=AXIS2_PLACEMENT_3D('',#1842,#1485,#1486);
#1186=AXIS2_PLACEMENT_3D('',#1844,#1488,#1489);
#1187=AXIS2_PLACEMENT_3D('',#1846,#1491,#1492);
#1188=AXIS2_PLACEMENT_3D('',#1848,#1494,#1495);
#1189=AXIS2_PLACEMENT_3D('',#1850,#1497,#1498);
#1190=AXIS2_PLACEMENT_3D('',#1852,#1500,#1501);
#1191=AXIS2_PLACEMENT_3D('',#1854,#1503,#1504);
#1192=AXIS2_PLACEMENT_3D('',#1856,#1506,#1507);
#1193=AXIS2_PLACEMENT_3D('',#1858,#1509,#1510);
#1194=AXIS2_PLACEMENT_3D('',#1860,#1512,#1513);
#1195=AXIS2_PLACEMENT_3D('',#1862,#1515,#1516);
#1196=AXIS2_PLACEMENT_3D('',#1864,#1518,#1519);
#1197=AXIS2_PLACEMENT_3D('',#1866,#1521,#1522);
#1198=AXIS2_PLACEMENT_3D('',#1868,#1524,#1525);
#1199=AXIS2_PLACEMENT_3D('',#1870,#1527,#1528);
#1200=AXIS2_PLACEMENT_3D('',#1872,#1530,#1531);
#1201=AXIS2_PLACEMENT_3D('',#1874,#1533,#1534);
#1202=AXIS2_PLACEMENT_3D('',#1876,#1536,#1537);
#1203=AXIS2_PLACEMENT_3D('',#1878,#1539,#1540);
#1204=AXIS2_PLACEMENT_3D('',#1880,#1542,#1543);
#1205=AXIS2_PLACEMENT_3D('',#1882,#1545,#1546);
#1206=AXIS2_PLACEMENT_3D('',#1884,#1548,#1549);
#1207=AXIS2_PLACEMENT_3D('',#1886,#1551,#1552);
#1208=AXIS2_PLACEMENT_3D('',#1888,#1554,#1555);
#1209=AXIS2_PLACEMENT_3D('',#1891,#1558,#1559);
#1210=AXIS2_PLACEMENT_3D('',#1893,#1561,#1562);
#1211=AXIS2_PLACEMENT_3D('',#1895,#1564,#1565);
#1212=AXIS2_PLACEMENT_3D('',#1896,#1566,#1567);
#1213=AXIS2_PLACEMENT_3D('',#1898,#1569,#1570);
#1214=AXIS2_PLACEMENT_3D('',#1901,#1573,#1574);
#1215=AXIS2_PLACEMENT_3D('',#1903,#1576,#1577);
#1216=AXIS2_PLACEMENT_3D('',#1905,#1579,#1580);
#1217=AXIS2_PLACEMENT_3D('',#1906,#1581,#1582);
#1218=AXIS2_PLACEMENT_3D('',#1907,#1583,#1584);
#1219=AXIS2_PLACEMENT_3D('',#1909,#1586,#1587);
#1220=AXIS2_PLACEMENT_3D('',#1911,#1589,#1590);
#1221=DIRECTION('axis',(0.,0.,1.));
#1222=DIRECTION('refdir',(1.,0.,0.));
#1223=DIRECTION('center_axis',(0.,1.,0.));
#1224=DIRECTION('ref_axis',(0.,0.,1.));
#1225=DIRECTION('',(-0.849390419595667,0.,0.527765018828547));
#1226=DIRECTION('center_axis',(0.,1.,0.));
#1227=DIRECTION('ref_axis',(0.,0.,1.));
#1228=DIRECTION('center_axis',(0.,1.,0.));
#1229=DIRECTION('ref_axis',(0.,0.,1.));
#1230=DIRECTION('center_axis',(0.,1.,0.));
#1231=DIRECTION('ref_axis',(0.,0.,1.));
#1232=DIRECTION('center_axis',(0.,1.,0.));
#1233=DIRECTION('ref_axis',(0.,0.,1.));
#1234=DIRECTION('center_axis',(0.,1.,0.));
#1235=DIRECTION('ref_axis',(0.,0.,1.));
#1236=DIRECTION('center_axis',(0.,1.,0.));
#1237=DIRECTION('ref_axis',(0.,0.,1.));
#1238=DIRECTION('center_axis',(0.,1.,0.));
#1239=DIRECTION('ref_axis',(0.,0.,1.));
#1240=DIRECTION('center_axis',(0.,1.,0.));
#1241=DIRECTION('ref_axis',(0.,0.,1.));
#1242=DIRECTION('center_axis',(0.,1.,0.));
#1243=DIRECTION('ref_axis',(0.,0.,1.));
#1244=DIRECTION('center_axis',(0.,1.,0.));
#1245=DIRECTION('ref_axis',(0.,0.,1.));
#1246=DIRECTION('center_axis',(0.,1.,0.));
#1247=DIRECTION('ref_axis',(0.,0.,1.));
#1248=DIRECTION('center_axis',(0.,1.,0.));
#1249=DIRECTION('ref_axis',(0.,0.,1.));
#1250=DIRECTION('center_axis',(0.,1.,0.));
#1251=DIRECTION('ref_axis',(0.,0.,1.));
#1252=DIRECTION('center_axis',(0.,1.,0.));
#1253=DIRECTION('ref_axis',(0.,0.,1.));
#1254=DIRECTION('center_axis',(0.,1.,0.));
#1255=DIRECTION('ref_axis',(0.,0.,1.));
#1256=DIRECTION('center_axis',(0.,1.,0.));
#1257=DIRECTION('ref_axis',(0.,0.,1.));
#1258=DIRECTION('center_axis',(0.,1.,0.));
#1259=DIRECTION('ref_axis',(0.,0.,1.));
#1260=DIRECTION('center_axis',(0.,1.,0.));
#1261=DIRECTION('ref_axis',(0.,0.,1.));
#1262=DIRECTION('center_axis',(0.,1.,0.));
#1263=DIRECTION('ref_axis',(0.,0.,1.));
#1264=DIRECTION('center_axis',(0.,1.,0.));
#1265=DIRECTION('ref_axis',(0.,0.,1.));
#1266=DIRECTION('center_axis',(0.,1.,0.));
#1267=DIRECTION('ref_axis',(0.,0.,1.));
#1268=DIRECTION('center_axis',(0.,1.,0.));
#1269=DIRECTION('ref_axis',(0.,0.,1.));
#1270=DIRECTION('center_axis',(0.,1.,0.));
#1271=DIRECTION('ref_axis',(0.,0.,1.));
#1272=DIRECTION('center_axis',(0.,1.,0.));
#1273=DIRECTION('ref_axis',(0.,0.,1.));
#1274=DIRECTION('center_axis',(0.,1.,0.));
#1275=DIRECTION('ref_axis',(0.,0.,1.));
#1276=DIRECTION('center_axis',(0.,1.,0.));
#1277=DIRECTION('ref_axis',(0.,0.,1.));
#1278=DIRECTION('center_axis',(0.,1.,0.));
#1279=DIRECTION('ref_axis',(0.,0.,1.));
#1280=DIRECTION('center_axis',(0.,1.,0.));
#1281=DIRECTION('ref_axis',(0.,0.,1.));
#1282=DIRECTION('center_axis',(0.,1.,0.));
#1283=DIRECTION('ref_axis',(0.,0.,1.));
#1284=DIRECTION('center_axis',(0.,1.,0.));
#1285=DIRECTION('ref_axis',(0.,0.,1.));
#1286=DIRECTION('center_axis',(0.,1.,0.));
#1287=DIRECTION('ref_axis',(0.,0.,1.));
#1288=DIRECTION('center_axis',(0.,1.,0.));
#1289=DIRECTION('ref_axis',(0.,0.,1.));
#1290=DIRECTION('center_axis',(0.,1.,0.));
#1291=DIRECTION('ref_axis',(0.,0.,1.));
#1292=DIRECTION('center_axis',(0.,1.,0.));
#1293=DIRECTION('ref_axis',(0.,0.,1.));
#1294=DIRECTION('center_axis',(0.,1.,0.));
#1295=DIRECTION('ref_axis',(0.,0.,1.));
#1296=DIRECTION('center_axis',(0.,1.,0.));
#1297=DIRECTION('ref_axis',(0.,0.,1.));
#1298=DIRECTION('center_axis',(0.,1.,0.));
#1299=DIRECTION('ref_axis',(0.,0.,1.));
#1300=DIRECTION('center_axis',(0.,1.,0.));
#1301=DIRECTION('ref_axis',(0.,0.,1.));
#1302=DIRECTION('center_axis',(0.,1.,0.));
#1303=DIRECTION('ref_axis',(0.,0.,1.));
#1304=DIRECTION('center_axis',(0.,1.,0.));
#1305=DIRECTION('ref_axis',(0.,0.,1.));
#1306=DIRECTION('',(-0.99144486137381,0.,0.130526192220053));
#1307=DIRECTION('center_axis',(0.,1.,0.));
#1308=DIRECTION('ref_axis',(0.,0.,1.));
#1309=DIRECTION('',(-0.99144486137381,0.,0.130526192220053));
#1310=DIRECTION('center_axis',(0.,1.,0.));
#1311=DIRECTION('ref_axis',(0.,0.,1.));
#1312=DIRECTION('center_axis',(0.,1.,0.));
#1313=DIRECTION('ref_axis',(0.,0.,1.));
#1314=DIRECTION('center_axis',(0.,1.,0.));
#1315=DIRECTION('ref_axis',(0.,0.,1.));
#1316=DIRECTION('center_axis',(0.,1.,0.));
#1317=DIRECTION('ref_axis',(0.,0.,1.));
#1318=DIRECTION('center_axis',(0.,1.,0.));
#1319=DIRECTION('ref_axis',(0.,0.,1.));
#1320=DIRECTION('center_axis',(0.,1.,0.));
#1321=DIRECTION('ref_axis',(0.,0.,1.));
#1322=DIRECTION('center_axis',(0.,1.,0.));
#1323=DIRECTION('ref_axis',(0.,0.,1.));
#1324=DIRECTION('center_axis',(0.,1.,0.));
#1325=DIRECTION('ref_axis',(0.,0.,1.));
#1326=DIRECTION('center_axis',(0.,1.,0.));
#1327=DIRECTION('ref_axis',(0.,0.,1.));
#1328=DIRECTION('center_axis',(0.,1.,0.));
#1329=DIRECTION('ref_axis',(0.,0.,1.));
#1330=DIRECTION('center_axis',(0.,1.,0.));
#1331=DIRECTION('ref_axis',(0.,0.,1.));
#1332=DIRECTION('',(-0.849390419595667,0.,0.527765018828547));
#1333=DIRECTION('center_axis',(0.,1.,0.));
#1334=DIRECTION('ref_axis',(0.,0.,1.));
#1335=DIRECTION('center_axis',(0.,1.,0.));
#1336=DIRECTION('ref_axis',(0.,0.,1.));
#1337=DIRECTION('center_axis',(0.,1.,0.));
#1338=DIRECTION('ref_axis',(0.,0.,1.));
#1339=DIRECTION('center_axis',(0.,1.,0.));
#1340=DIRECTION('ref_axis',(0.,0.,1.));
#1341=DIRECTION('center_axis',(0.,1.,0.));
#1342=DIRECTION('ref_axis',(0.,0.,1.));
#1343=DIRECTION('',(-0.99144486137381,0.,0.130526192220053));
#1344=DIRECTION('center_axis',(0.,1.,0.));
#1345=DIRECTION('ref_axis',(0.,0.,1.));
#1346=DIRECTION('',(-0.99144486137381,0.,0.130526192220053));
#1347=DIRECTION('center_axis',(0.,1.,0.));
#1348=DIRECTION('ref_axis',(0.,0.,1.));
#1349=DIRECTION('center_axis',(0.,1.,0.));
#1350=DIRECTION('ref_axis',(0.,0.,1.));
#1351=DIRECTION('center_axis',(0.,1.,0.));
#1352=DIRECTION('ref_axis',(0.,0.,1.));
#1353=DIRECTION('center_axis',(0.,1.,0.));
#1354=DIRECTION('ref_axis',(0.,0.,1.));
#1355=DIRECTION('center_axis',(0.,1.,0.));
#1356=DIRECTION('ref_axis',(0.,0.,1.));
#1357=DIRECTION('center_axis',(0.,1.,0.));
#1358=DIRECTION('ref_axis',(0.,0.,1.));
#1359=DIRECTION('center_axis',(0.,1.,0.));
#1360=DIRECTION('ref_axis',(0.,0.,1.));
#1361=DIRECTION('center_axis',(0.,1.,0.));
#1362=DIRECTION('ref_axis',(0.,0.,1.));
#1363=DIRECTION('center_axis',(0.,1.,0.));
#1364=DIRECTION('ref_axis',(0.,0.,1.));
#1365=DIRECTION('center_axis',(0.,1.,0.));
#1366=DIRECTION('ref_axis',(0.,0.,1.));
#1367=DIRECTION('center_axis',(0.,1.,0.));
#1368=DIRECTION('ref_axis',(0.,0.,1.));
#1369=DIRECTION('center_axis',(0.,1.,0.));
#1370=DIRECTION('ref_axis',(0.,0.,1.));
#1371=DIRECTION('center_axis',(0.,1.,0.));
#1372=DIRECTION('ref_axis',(0.,0.,1.));
#1373=DIRECTION('center_axis',(0.,1.,0.));
#1374=DIRECTION('ref_axis',(0.,0.,1.));
#1375=DIRECTION('center_axis',(0.,1.,0.));
#1376=DIRECTION('ref_axis',(0.,0.,1.));
#1377=DIRECTION('center_axis',(0.,1.,0.));
#1378=DIRECTION('ref_axis',(0.,0.,1.));
#1379=DIRECTION('center_axis',(0.,1.,0.));
#1380=DIRECTION('ref_axis',(0.,0.,1.));
#1381=DIRECTION('center_axis',(0.,1.,0.));
#1382=DIRECTION('ref_axis',(0.,0.,1.));
#1383=DIRECTION('center_axis',(0.,1.,0.));
#1384=DIRECTION('ref_axis',(0.,0.,1.));
#1385=DIRECTION('center_axis',(0.,1.,0.));
#1386=DIRECTION('ref_axis',(0.,0.,1.));
#1387=DIRECTION('center_axis',(0.,1.,0.));
#1388=DIRECTION('ref_axis',(0.,0.,1.));
#1389=DIRECTION('center_axis',(0.,1.,0.));
#1390=DIRECTION('ref_axis',(0.,0.,1.));
#1391=DIRECTION('center_axis',(0.,1.,0.));
#1392=DIRECTION('ref_axis',(0.,0.,1.));
#1393=DIRECTION('center_axis',(0.,1.,0.));
#1394=DIRECTION('ref_axis',(0.,0.,1.));
#1395=DIRECTION('center_axis',(0.,1.,0.));
#1396=DIRECTION('ref_axis',(0.,0.,1.));
#1397=DIRECTION('center_axis',(0.,1.,0.));
#1398=DIRECTION('ref_axis',(0.,0.,1.));
#1399=DIRECTION('center_axis',(0.,1.,0.));
#1400=DIRECTION('ref_axis',(0.,0.,1.));
#1401=DIRECTION('center_axis',(0.,1.,0.));
#1402=DIRECTION('ref_axis',(0.,0.,1.));
#1403=DIRECTION('center_axis',(0.,1.,0.));
#1404=DIRECTION('ref_axis',(0.,0.,1.));
#1405=DIRECTION('center_axis',(0.,1.,0.));
#1406=DIRECTION('ref_axis',(0.,0.,1.));
#1407=DIRECTION('center_axis',(0.,1.,0.));
#1408=DIRECTION('ref_axis',(0.,0.,1.));
#1409=DIRECTION('center_axis',(0.,1.,0.));
#1410=DIRECTION('ref_axis',(0.,0.,1.));
#1411=DIRECTION('center_axis',(0.,1.,0.));
#1412=DIRECTION('ref_axis',(0.,0.,1.));
#1413=DIRECTION('center_axis',(0.,1.,0.));
#1414=DIRECTION('ref_axis',(0.,0.,1.));
#1415=DIRECTION('center_axis',(0.,1.,0.));
#1416=DIRECTION('ref_axis',(0.,0.,1.));
#1417=DIRECTION('center_axis',(0.,1.,0.));
#1418=DIRECTION('ref_axis',(0.,0.,1.));
#1419=DIRECTION('center_axis',(0.,1.,0.));
#1420=DIRECTION('ref_axis',(0.,0.,1.));
#1421=DIRECTION('center_axis',(0.,1.,0.));
#1422=DIRECTION('ref_axis',(0.,0.,1.));
#1423=DIRECTION('center_axis',(0.,1.,0.));
#1424=DIRECTION('ref_axis',(0.,0.,1.));
#1425=DIRECTION('center_axis',(0.,1.,0.));
#1426=DIRECTION('ref_axis',(0.,0.,1.));
#1427=DIRECTION('center_axis',(0.,1.,0.));
#1428=DIRECTION('ref_axis',(0.,0.,1.));
#1429=DIRECTION('center_axis',(0.,1.,0.));
#1430=DIRECTION('ref_axis',(0.,0.,1.));
#1431=DIRECTION('center_axis',(0.,1.,0.));
#1432=DIRECTION('ref_axis',(0.,0.,1.));
#1433=DIRECTION('center_axis',(0.,-1.,0.));
#1434=DIRECTION('ref_axis',(0.,0.,-1.));
#1435=DIRECTION('',(0.,-1.,0.));
#1436=DIRECTION('',(0.,-1.,0.));
#1437=DIRECTION('center_axis',(0.,-1.,0.));
#1438=DIRECTION('ref_axis',(0.,0.,-1.));
#1439=DIRECTION('',(0.,-1.,0.));
#1440=DIRECTION('center_axis',(0.,-1.,0.));
#1441=DIRECTION('ref_axis',(0.,0.,-1.));
#1442=DIRECTION('',(0.,-1.,0.));
#1443=DIRECTION('center_axis',(0.,-1.,0.));
#1444=DIRECTION('ref_axis',(0.,0.,-1.));
#1445=DIRECTION('',(0.,-1.,0.));
#1446=DIRECTION('center_axis',(0.,-1.,0.));
#1447=DIRECTION('ref_axis',(0.,0.,-1.));
#1448=DIRECTION('',(0.,-1.,0.));
#1449=DIRECTION('center_axis',(0.,-1.,0.));
#1450=DIRECTION('ref_axis',(0.,0.,-1.));
#1451=DIRECTION('',(0.,-1.,0.));
#1452=DIRECTION('center_axis',(0.,-1.,0.));
#1453=DIRECTION('ref_axis',(0.,0.,-1.));
#1454=DIRECTION('',(0.,-1.,0.));
#1455=DIRECTION('center_axis',(0.,-1.,0.));
#1456=DIRECTION('ref_axis',(0.,0.,-1.));
#1457=DIRECTION('',(0.,-1.,0.));
#1458=DIRECTION('center_axis',(0.,-1.,0.));
#1459=DIRECTION('ref_axis',(0.,0.,-1.));
#1460=DIRECTION('',(0.,-1.,0.));
#1461=DIRECTION('center_axis',(0.,-1.,0.));
#1462=DIRECTION('ref_axis',(0.,0.,-1.));
#1463=DIRECTION('',(0.,-1.,0.));
#1464=DIRECTION('center_axis',(0.,-1.,0.));
#1465=DIRECTION('ref_axis',(0.,0.,-1.));
#1466=DIRECTION('',(0.,-1.,0.));
#1467=DIRECTION('center_axis',(0.,-1.,0.));
#1468=DIRECTION('ref_axis',(0.,0.,-1.));
#1469=DIRECTION('',(0.,-1.,0.));
#1470=DIRECTION('center_axis',(0.,-1.,0.));
#1471=DIRECTION('ref_axis',(0.,0.,-1.));
#1472=DIRECTION('',(0.,-1.,0.));
#1473=DIRECTION('center_axis',(0.,-1.,0.));
#1474=DIRECTION('ref_axis',(0.,0.,-1.));
#1475=DIRECTION('',(0.,-1.,0.));
#1476=DIRECTION('center_axis',(0.,-1.,0.));
#1477=DIRECTION('ref_axis',(0.,0.,-1.));
#1478=DIRECTION('',(0.,-1.,0.));
#1479=DIRECTION('center_axis',(0.,-1.,0.));
#1480=DIRECTION('ref_axis',(0.,0.,-1.));
#1481=DIRECTION('',(0.,-1.,0.));
#1482=DIRECTION('center_axis',(0.,-1.,0.));
#1483=DIRECTION('ref_axis',(0.,0.,-1.));
#1484=DIRECTION('',(0.,-1.,0.));
#1485=DIRECTION('center_axis',(0.,-1.,0.));
#1486=DIRECTION('ref_axis',(0.,0.,-1.));
#1487=DIRECTION('',(0.,-1.,0.));
#1488=DIRECTION('center_axis',(0.,-1.,0.));
#1489=DIRECTION('ref_axis',(0.,0.,-1.));
#1490=DIRECTION('',(0.,-1.,0.));
#1491=DIRECTION('center_axis',(0.,-1.,0.));
#1492=DIRECTION('ref_axis',(0.,0.,-1.));
#1493=DIRECTION('',(0.,-1.,0.));
#1494=DIRECTION('center_axis',(0.,-1.,0.));
#1495=DIRECTION('ref_axis',(0.,0.,-1.));
#1496=DIRECTION('',(0.,-1.,0.));
#1497=DIRECTION('center_axis',(0.,-1.,0.));
#1498=DIRECTION('ref_axis',(0.,0.,-1.));
#1499=DIRECTION('',(0.,-1.,0.));
#1500=DIRECTION('center_axis',(0.,-1.,0.));
#1501=DIRECTION('ref_axis',(0.,0.,-1.));
#1502=DIRECTION('',(0.,-1.,0.));
#1503=DIRECTION('center_axis',(0.,-1.,0.));
#1504=DIRECTION('ref_axis',(0.,0.,-1.));
#1505=DIRECTION('',(0.,-1.,0.));
#1506=DIRECTION('center_axis',(0.,-1.,0.));
#1507=DIRECTION('ref_axis',(0.,0.,-1.));
#1508=DIRECTION('',(0.,-1.,0.));
#1509=DIRECTION('center_axis',(0.,-1.,0.));
#1510=DIRECTION('ref_axis',(0.,0.,-1.));
#1511=DIRECTION('',(0.,-1.,0.));
#1512=DIRECTION('center_axis',(0.,-1.,0.));
#1513=DIRECTION('ref_axis',(0.,0.,-1.));
#1514=DIRECTION('',(0.,-1.,0.));
#1515=DIRECTION('center_axis',(0.,-1.,0.));
#1516=DIRECTION('ref_axis',(0.,0.,-1.));
#1517=DIRECTION('',(0.,-1.,0.));
#1518=DIRECTION('center_axis',(0.,-1.,0.));
#1519=DIRECTION('ref_axis',(0.,0.,-1.));
#1520=DIRECTION('',(0.,-1.,0.));
#1521=DIRECTION('center_axis',(0.,-1.,0.));
#1522=DIRECTION('ref_axis',(0.,0.,-1.));
#1523=DIRECTION('',(0.,-1.,0.));
#1524=DIRECTION('center_axis',(0.,-1.,0.));
#1525=DIRECTION('ref_axis',(0.,0.,-1.));
#1526=DIRECTION('',(0.,-1.,0.));
#1527=DIRECTION('center_axis',(0.,-1.,0.));
#1528=DIRECTION('ref_axis',(0.,0.,-1.));
#1529=DIRECTION('',(0.,-1.,0.));
#1530=DIRECTION('center_axis',(0.,-1.,0.));
#1531=DIRECTION('ref_axis',(0.,0.,-1.));
#1532=DIRECTION('',(0.,-1.,0.));
#1533=DIRECTION('center_axis',(0.,-1.,0.));
#1534=DIRECTION('ref_axis',(0.,0.,-1.));
#1535=DIRECTION('',(0.,-1.,0.));
#1536=DIRECTION('center_axis',(0.,-1.,0.));
#1537=DIRECTION('ref_axis',(0.,0.,-1.));
#1538=DIRECTION('',(0.,-1.,0.));
#1539=DIRECTION('center_axis',(0.,-1.,0.));
#1540=DIRECTION('ref_axis',(0.,0.,-1.));
#1541=DIRECTION('',(0.,-1.,0.));
#1542=DIRECTION('center_axis',(0.,-1.,0.));
#1543=DIRECTION('ref_axis',(0.,0.,-1.));
#1544=DIRECTION('',(0.,-1.,0.));
#1545=DIRECTION('center_axis',(0.,-1.,0.));
#1546=DIRECTION('ref_axis',(0.,0.,-1.));
#1547=DIRECTION('',(0.,-1.,0.));
#1548=DIRECTION('center_axis',(0.,-1.,0.));
#1549=DIRECTION('ref_axis',(0.,0.,-1.));
#1550=DIRECTION('',(0.,-1.,0.));
#1551=DIRECTION('center_axis',(0.,-1.,0.));
#1552=DIRECTION('ref_axis',(0.,0.,-1.));
#1553=DIRECTION('',(0.,1.,0.));
#1554=DIRECTION('center_axis',(0.,-1.,0.));
#1555=DIRECTION('ref_axis',(0.253658528971632,0.,0.967293828513316));
#1556=DIRECTION('',(0.,1.,0.));
#1557=DIRECTION('',(0.,1.,0.));
#1558=DIRECTION('center_axis',(-0.130526192220053,0.,-0.99144486137381));
#1559=DIRECTION('ref_axis',(-0.99144486137381,0.,0.130526192220053));
#1560=DIRECTION('',(0.,1.,0.));
#1561=DIRECTION('center_axis',(-0.130526192220053,0.,-0.99144486137381));
#1562=DIRECTION('ref_axis',(-0.99144486137381,0.,0.130526192220053));
#1563=DIRECTION('',(0.,1.,0.));
#1564=DIRECTION('center_axis',(0.,1.,0.));
#1565=DIRECTION('ref_axis',(0.,0.,1.));
#1566=DIRECTION('center_axis',(0.,1.,0.));
#1567=DIRECTION('ref_axis',(0.,0.,1.));
#1568=DIRECTION('',(0.,1.,0.));
#1569=DIRECTION('center_axis',(0.,1.,0.));
#1570=DIRECTION('ref_axis',(0.,0.,1.));
#1571=DIRECTION('',(0.,1.,0.));
#1572=DIRECTION('',(0.,1.,0.));
#1573=DIRECTION('center_axis',(0.,1.,0.));
#1574=DIRECTION('ref_axis',(0.143787880290253,0.,-0.989608531431311));
#1575=DIRECTION('',(0.,1.,0.));
#1576=DIRECTION('center_axis',(0.,1.,0.));
#1577=DIRECTION('ref_axis',(0.,0.,1.));
#1578=DIRECTION('',(0.,1.,0.));
#1579=DIRECTION('center_axis',(-0.527765018828546,0.,-0.849390419595668));
#1580=DIRECTION('ref_axis',(-0.849390419595668,0.,0.527765018828546));
#1581=DIRECTION('center_axis',(0.,1.,0.));
#1582=DIRECTION('ref_axis',(0.,0.,1.));
#1583=DIRECTION('center_axis',(0.,1.,0.));
#1584=DIRECTION('ref_axis',(0.,0.,1.));
#1585=DIRECTION('',(0.,1.,0.));
#1586=DIRECTION('center_axis',(0.,1.,0.));
#1587=DIRECTION('ref_axis',(0.,0.,1.));
#1588=DIRECTION('',(0.,1.,0.));
#1589=DIRECTION('center_axis',(0.,1.,0.));
#1590=DIRECTION('ref_axis',(0.,0.,1.));
#1591=DIRECTION('',(0.,1.,0.));
#1592=CARTESIAN_POINT('',(0.,0.,0.));
#1593=CARTESIAN_POINT('Origin',(20.6436574461689,4.,-6.07153216591882E-15));
#1594=CARTESIAN_POINT('',(2.08164193619438,4.,-4.00000000000001));
#1595=CARTESIAN_POINT('',(1.43808022007064,4.,-3.60012574501481));
#1596=CARTESIAN_POINT('',(2.08164193619438,4.,-4.00000000000001));
#1597=CARTESIAN_POINT('',(3.52174943628512,4.,-5.30713988028672));
#1598=CARTESIAN_POINT('Origin',(-0.768289165479772,4.,-8.58670826581661));
#1599=CARTESIAN_POINT('',(3.28288830507051,4.,-5.88380166278881));
#1600=CARTESIAN_POINT('Origin',(-10.1063425538311,4.,-6.07153216591882E-15));
#1601=CARTESIAN_POINT('',(0.627094960762723,4.,-5.5702712396085));
#1602=CARTESIAN_POINT('Origin',(2.56837796298364,4.,-0.531281231155605));
#1603=CARTESIAN_POINT('',(0.0843726029366703,4.,-6.51029393776681));
#1604=CARTESIAN_POINT('Origin',(-10.1063425538311,4.,-6.07153216591882E-15));
#1605=CARTESIAN_POINT('',(1.68379458642402,4.,-8.65351322954882));
#1606=CARTESIAN_POINT('Origin',(-3.30887925268899,4.,-10.7109893378515));
#1607=CARTESIAN_POINT('',(1.30382139899291,4.,-9.1487039284084));
#1608=CARTESIAN_POINT('Origin',(-10.1063425538311,4.,-6.07153216591882E-15));
#1609=CARTESIAN_POINT('',(-1.18033033682249,4.,-8.15848689796783));
#1610=CARTESIAN_POINT('Origin',(1.9989916334276,4.,-3.79363732329918));
#1611=CARTESIAN_POINT('',(-1.9478556558632,4.,-8.92601221700855));
#1612=CARTESIAN_POINT('Origin',(-10.1063425538311,4.,-6.07153216591882E-15));
#1613=CARTESIAN_POINT('',(-0.957638625422602,4.,-11.4101639528239));
#1614=CARTESIAN_POINT('Origin',(-6.31270523053182,4.,-12.1053341872587));
#1615=CARTESIAN_POINT('',(-1.45282932428218,4.,-11.7901371402551));
#1616=CARTESIAN_POINT('Origin',(-10.1063425538311,4.,-6.07153216591882E-15));
#1617=CARTESIAN_POINT('',(-3.59604861606421,4.,-10.1907151567677));
#1618=CARTESIAN_POINT('Origin',(0.604646784020486,4.,-6.79746330114202));
#1619=CARTESIAN_POINT('',(-4.53607131422251,4.,-10.7334375145938));
#1620=CARTESIAN_POINT('Origin',(-10.1063425538311,4.,-6.07153216591882E-15));
#1621=CARTESIAN_POINT('',(-4.22254089104218,4.,-13.3892308589016));
#1622=CARTESIAN_POINT('Origin',(-9.57506132267539,4.,-12.6747205168148));
#1623=CARTESIAN_POINT('',(-4.79920267354426,4.,-13.6280919901162));
#1624=CARTESIAN_POINT('Origin',(-10.1063425538311,4.,-6.07153216591882E-15));
#1625=CARTESIAN_POINT('',(-6.45543266839531,4.,-11.528463018587));
#1626=CARTESIAN_POINT('Origin',(-1.51963428801442,4.,-9.33805338835126));
#1627=CARTESIAN_POINT('',(-7.50389175225268,4.,-11.8093967834036));
#1628=CARTESIAN_POINT('Origin',(-10.1063425538311,4.,-6.07153216591882E-15));
#1629=CARTESIAN_POINT('',(-7.88841451653883,4.,-14.4558438086953));
#1630=CARTESIAN_POINT('Origin',(-12.8736233527385,4.,-12.3803455891159));
#1631=CARTESIAN_POINT('',(-8.50724883518456,4.,-14.5373148923378));
#1632=CARTESIAN_POINT('Origin',(-10.1063425538311,4.,-6.07153216591882E-15));
#1633=CARTESIAN_POINT('',(-9.56362019600502,4.,-12.0805651773754));
#1634=CARTESIAN_POINT('Origin',(-4.22908533815839,4.,-11.2422705690072));
#1635=CARTESIAN_POINT('',(-10.6490649116571,4.,-12.0805651773754));
#1636=CARTESIAN_POINT('Origin',(-10.1063425538311,4.,-6.07153216591882E-15));
#1637=CARTESIAN_POINT('',(-11.7054362724776,4.,-14.5373148923378));
#1638=CARTESIAN_POINT('Origin',(-15.9835997695038,4.,-11.2422705690073));
#1639=CARTESIAN_POINT('',(-12.3242705911233,4.,-14.4558438086953));
#1640=CARTESIAN_POINT('Origin',(-10.1063425538311,4.,-6.07153216591882E-15));
#1641=CARTESIAN_POINT('',(-12.7087933554095,4.,-11.8093967834036));
#1642=CARTESIAN_POINT('Origin',(-7.33906175492368,4.,-12.3803455891159));
#1643=CARTESIAN_POINT('',(-13.7572524392668,4.,-11.528463018587));
#1644=CARTESIAN_POINT('Origin',(-10.1063425538311,4.,-6.07153216591882E-15));
#1645=CARTESIAN_POINT('',(-15.4134824341179,4.,-13.6280919901162));
#1646=CARTESIAN_POINT('Origin',(-18.6930508196478,4.,-9.33805338835132));
#1647=CARTESIAN_POINT('',(-15.99014421662,4.,-13.3892308589016));
#1648=CARTESIAN_POINT('Origin',(-10.1063425538311,4.,-6.07153216591882E-15));
#1649=CARTESIAN_POINT('',(-15.6766137934397,4.,-10.7334375145938));
#1650=CARTESIAN_POINT('Origin',(-10.6376237849868,4.,-12.6747205168148));
#1651=CARTESIAN_POINT('',(-16.616636491598,4.,-10.1907151567678));
#1652=CARTESIAN_POINT('Origin',(-10.1063425538311,4.,-6.07153216591882E-15));
#1653=CARTESIAN_POINT('',(-18.75985578338,4.,-11.7901371402551));
#1654=CARTESIAN_POINT('Origin',(-20.8173318916827,4.,-6.79746330114209));
#1655=CARTESIAN_POINT('',(-19.2550464822396,4.,-11.410163952824));
#1656=CARTESIAN_POINT('Origin',(-10.1063425538311,4.,-6.07153216591882E-15));
#1657=CARTESIAN_POINT('',(-18.264829451799,4.,-8.92601221700861));
#1658=CARTESIAN_POINT('Origin',(-13.8999798771303,4.,-12.1053341872587));
#1659=CARTESIAN_POINT('',(-19.0323547708397,4.,-8.15848689796789));
#1660=CARTESIAN_POINT('Origin',(-10.1063425538311,4.,-6.07153216591882E-15));
#1661=CARTESIAN_POINT('',(-21.5165065066551,4.,-9.14870392840849));
#1662=CARTESIAN_POINT('Origin',(-22.2116767410898,4.,-3.79363732329927));
#1663=CARTESIAN_POINT('',(-21.8964796940862,4.,-8.65351322954891));
#1664=CARTESIAN_POINT('Origin',(-10.1063425538311,4.,-6.07153216591882E-15));
#1665=CARTESIAN_POINT('',(-20.2970577105989,4.,-6.51029393776688));
#1666=CARTESIAN_POINT('Origin',(-16.9038058549732,4.,-10.7109893378516));
#1667=CARTESIAN_POINT('',(-20.8397800684249,4.,-5.57027123960859));
#1668=CARTESIAN_POINT('Origin',(-10.1063425538311,4.,-6.07153216591882E-15));
#1669=CARTESIAN_POINT('',(-23.4955734127327,4.,-5.8838016627889));
#1670=CARTESIAN_POINT('Origin',(-22.7810630706459,4.,-0.531281231155693));
#1671=CARTESIAN_POINT('',(-23.7344345439473,4.,-5.30713988028682));
#1672=CARTESIAN_POINT('Origin',(-10.1063425538311,4.,-6.07153216591882E-15));
#1673=CARTESIAN_POINT('',(-21.6348055724181,4.,-3.65090988543577));
#1674=CARTESIAN_POINT('Origin',(-19.4443959421824,4.,-8.58670826581668));
#1675=CARTESIAN_POINT('',(-21.9428533754856,4.,-2.47620962992955));
#1676=CARTESIAN_POINT('Origin',(-10.1063425538311,4.,-6.07153216591882E-15));
#1677=CARTESIAN_POINT('',(-41.115376809956,4.,0.0479009652713737));
#1678=CARTESIAN_POINT('',(-21.9428533754856,4.,-2.47620962992955));
#1679=CARTESIAN_POINT('',(-40.0711672721956,4.,7.97945985626186));
#1680=CARTESIAN_POINT('Origin',(-40.5932720410758,4.,4.01368041076661));
#1681=CARTESIAN_POINT('',(-20.8986438377252,4.,5.45534926106093));
#1682=CARTESIAN_POINT('',(-20.8986438377252,4.,5.45534926106094));
#1683=CARTESIAN_POINT('',(1.97422262354431,4.,-0.542722357825997));
#1684=CARTESIAN_POINT('Origin',(-10.1063425538311,4.,-6.07153216591882E-15));
#1685=CARTESIAN_POINT('',(4.43097233850674,4.,-1.59909371864644));
#1686=CARTESIAN_POINT('Origin',(1.13592801517625,4.,-5.87725721567265));
#1687=CARTESIAN_POINT('',(4.34950125486424,4.,-2.21792803729217));
#1688=CARTESIAN_POINT('Origin',(-10.1063425538311,4.,-6.07153216591882E-15));
#1689=CARTESIAN_POINT('',(1.70305422957252,4.,-2.60245080157833));
#1690=CARTESIAN_POINT('Origin',(2.27400303528485,4.,2.76728079890745));
#1691=CARTESIAN_POINT('Origin',(-10.1063425538311,4.,-6.07153216591882E-15));
#1692=CARTESIAN_POINT('',(-40.5932720410758,4.,2.26368041076661));
#1693=CARTESIAN_POINT('Origin',(-40.5932720410758,4.,4.01368041076661));
#1694=CARTESIAN_POINT('',(-14.6063425538311,4.,-1.3));
#1695=CARTESIAN_POINT('Origin',(-14.6063425538311,4.,0.));
#1696=CARTESIAN_POINT('',(-5.60634255383112,4.,-1.3));
#1697=CARTESIAN_POINT('Origin',(-5.60634255383112,4.,0.));
#1698=CARTESIAN_POINT('',(-10.1063425538311,4.,-2.4));
#1699=CARTESIAN_POINT('Origin',(-10.1063425538311,4.,-6.07153216591882E-15));
#1700=CARTESIAN_POINT('Origin',(20.6436574461689,0.,-6.07153216591882E-15));
#1701=CARTESIAN_POINT('',(2.08164193619438,0.,-4.00000000000001));
#1702=CARTESIAN_POINT('',(3.52174943628512,0.,-5.30713988028672));
#1703=CARTESIAN_POINT('Origin',(-0.768289165479772,0.,-8.58670826581661));
#1704=CARTESIAN_POINT('',(1.43808022007064,0.,-3.60012574501481));
#1705=CARTESIAN_POINT('',(2.08164193619438,0.,-4.00000000000001));
#1706=CARTESIAN_POINT('',(1.70305422957252,0.,-2.60245080157833));
#1707=CARTESIAN_POINT('Origin',(-10.1063425538311,0.,-6.07153216591882E-15));
#1708=CARTESIAN_POINT('',(4.34950125486424,0.,-2.21792803729217));
#1709=CARTESIAN_POINT('Origin',(2.27400303528485,0.,2.76728079890745));
#1710=CARTESIAN_POINT('',(4.43097233850674,0.,-1.59909371864644));
#1711=CARTESIAN_POINT('Origin',(-10.1063425538311,0.,-6.07153216591882E-15));
#1712=CARTESIAN_POINT('',(1.97422262354431,0.,-0.542722357825997));
#1713=CARTESIAN_POINT('Origin',(1.13592801517625,0.,-5.87725721567265));
#1714=CARTESIAN_POINT('',(-20.8986438377252,0.,5.45534926106093));
#1715=CARTESIAN_POINT('Origin',(-10.1063425538311,0.,-6.07153216591882E-15));
#1716=CARTESIAN_POINT('',(-40.0711672721956,0.,7.97945985626186));
#1717=CARTESIAN_POINT('',(-20.8986438377252,0.,5.45534926106094));
#1718=CARTESIAN_POINT('',(-41.115376809956,0.,0.0479009652713737));
#1719=CARTESIAN_POINT('Origin',(-40.5932720410758,0.,4.01368041076661));
#1720=CARTESIAN_POINT('',(-21.9428533754856,0.,-2.47620962992955));
#1721=CARTESIAN_POINT('',(-21.9428533754856,0.,-2.47620962992955));
#1722=CARTESIAN_POINT('',(-21.6348055724181,0.,-3.65090988543577));
#1723=CARTESIAN_POINT('Origin',(-10.1063425538311,0.,-6.07153216591882E-15));
#1724=CARTESIAN_POINT('',(-23.7344345439473,0.,-5.30713988028682));
#1725=CARTESIAN_POINT('Origin',(-19.4443959421824,0.,-8.58670826581668));
#1726=CARTESIAN_POINT('',(-23.4955734127327,0.,-5.8838016627889));
#1727=CARTESIAN_POINT('Origin',(-10.1063425538311,0.,-6.07153216591882E-15));
#1728=CARTESIAN_POINT('',(-20.8397800684249,0.,-5.57027123960859));
#1729=CARTESIAN_POINT('Origin',(-22.7810630706459,0.,-0.531281231155693));
#1730=CARTESIAN_POINT('',(-20.2970577105989,0.,-6.51029393776688));
#1731=CARTESIAN_POINT('Origin',(-10.1063425538311,0.,-6.07153216591882E-15));
#1732=CARTESIAN_POINT('',(-21.8964796940862,0.,-8.65351322954891));
#1733=CARTESIAN_POINT('Origin',(-16.9038058549732,0.,-10.7109893378516));
#1734=CARTESIAN_POINT('',(-21.5165065066551,0.,-9.14870392840849));
#1735=CARTESIAN_POINT('Origin',(-10.1063425538311,0.,-6.07153216591882E-15));
#1736=CARTESIAN_POINT('',(-19.0323547708397,0.,-8.15848689796789));
#1737=CARTESIAN_POINT('Origin',(-22.2116767410898,0.,-3.79363732329927));
#1738=CARTESIAN_POINT('',(-18.264829451799,0.,-8.92601221700861));
#1739=CARTESIAN_POINT('Origin',(-10.1063425538311,0.,-6.07153216591882E-15));
#1740=CARTESIAN_POINT('',(-19.2550464822396,0.,-11.410163952824));
#1741=CARTESIAN_POINT('Origin',(-13.8999798771303,0.,-12.1053341872587));
#1742=CARTESIAN_POINT('',(-18.75985578338,0.,-11.7901371402551));
#1743=CARTESIAN_POINT('Origin',(-10.1063425538311,0.,-6.07153216591882E-15));
#1744=CARTESIAN_POINT('',(-16.616636491598,0.,-10.1907151567678));
#1745=CARTESIAN_POINT('Origin',(-20.8173318916827,0.,-6.79746330114209));
#1746=CARTESIAN_POINT('',(-15.6766137934397,0.,-10.7334375145938));
#1747=CARTESIAN_POINT('Origin',(-10.1063425538311,0.,-6.07153216591882E-15));
#1748=CARTESIAN_POINT('',(-15.99014421662,0.,-13.3892308589016));
#1749=CARTESIAN_POINT('Origin',(-10.6376237849868,0.,-12.6747205168148));
#1750=CARTESIAN_POINT('',(-15.4134824341179,0.,-13.6280919901162));
#1751=CARTESIAN_POINT('Origin',(-10.1063425538311,0.,-6.07153216591882E-15));
#1752=CARTESIAN_POINT('',(-13.7572524392668,0.,-11.528463018587));
#1753=CARTESIAN_POINT('Origin',(-18.6930508196478,0.,-9.33805338835132));
#1754=CARTESIAN_POINT('',(-12.7087933554095,0.,-11.8093967834036));
#1755=CARTESIAN_POINT('Origin',(-10.1063425538311,0.,-6.07153216591882E-15));
#1756=CARTESIAN_POINT('',(-12.3242705911233,0.,-14.4558438086953));
#1757=CARTESIAN_POINT('Origin',(-7.33906175492368,0.,-12.3803455891159));
#1758=CARTESIAN_POINT('',(-11.7054362724776,0.,-14.5373148923378));
#1759=CARTESIAN_POINT('Origin',(-10.1063425538311,0.,-6.07153216591882E-15));
#1760=CARTESIAN_POINT('',(-10.6490649116571,0.,-12.0805651773754));
#1761=CARTESIAN_POINT('Origin',(-15.9835997695038,0.,-11.2422705690073));
#1762=CARTESIAN_POINT('',(-9.56362019600502,0.,-12.0805651773754));
#1763=CARTESIAN_POINT('Origin',(-10.1063425538311,0.,-6.07153216591882E-15));
#1764=CARTESIAN_POINT('',(-8.50724883518456,0.,-14.5373148923378));
#1765=CARTESIAN_POINT('Origin',(-4.22908533815839,0.,-11.2422705690072));
#1766=CARTESIAN_POINT('',(-7.88841451653883,0.,-14.4558438086953));
#1767=CARTESIAN_POINT('Origin',(-10.1063425538311,0.,-6.07153216591882E-15));
#1768=CARTESIAN_POINT('',(-7.50389175225268,0.,-11.8093967834036));
#1769=CARTESIAN_POINT('Origin',(-12.8736233527385,0.,-12.3803455891159));
#1770=CARTESIAN_POINT('',(-6.45543266839531,0.,-11.528463018587));
#1771=CARTESIAN_POINT('Origin',(-10.1063425538311,0.,-6.07153216591882E-15));
#1772=CARTESIAN_POINT('',(-4.79920267354426,0.,-13.6280919901162));
#1773=CARTESIAN_POINT('Origin',(-1.51963428801442,0.,-9.33805338835126));
#1774=CARTESIAN_POINT('',(-4.22254089104218,0.,-13.3892308589016));
#1775=CARTESIAN_POINT('Origin',(-10.1063425538311,0.,-6.07153216591882E-15));
#1776=CARTESIAN_POINT('',(-4.53607131422251,0.,-10.7334375145938));
#1777=CARTESIAN_POINT('Origin',(-9.57506132267539,0.,-12.6747205168148));
#1778=CARTESIAN_POINT('',(-3.59604861606421,0.,-10.1907151567677));
#1779=CARTESIAN_POINT('Origin',(-10.1063425538311,0.,-6.07153216591882E-15));
#1780=CARTESIAN_POINT('',(-1.45282932428218,0.,-11.7901371402551));
#1781=CARTESIAN_POINT('Origin',(0.604646784020486,0.,-6.79746330114202));
#1782=CARTESIAN_POINT('',(-0.957638625422602,0.,-11.4101639528239));
#1783=CARTESIAN_POINT('Origin',(-10.1063425538311,0.,-6.07153216591882E-15));
#1784=CARTESIAN_POINT('',(-1.9478556558632,0.,-8.92601221700855));
#1785=CARTESIAN_POINT('Origin',(-6.31270523053182,0.,-12.1053341872587));
#1786=CARTESIAN_POINT('',(-1.18033033682249,0.,-8.15848689796783));
#1787=CARTESIAN_POINT('Origin',(-10.1063425538311,0.,-6.07153216591882E-15));
#1788=CARTESIAN_POINT('',(1.30382139899291,0.,-9.1487039284084));
#1789=CARTESIAN_POINT('Origin',(1.9989916334276,0.,-3.79363732329918));
#1790=CARTESIAN_POINT('',(1.68379458642402,0.,-8.65351322954882));
#1791=CARTESIAN_POINT('Origin',(-10.1063425538311,0.,-6.07153216591882E-15));
#1792=CARTESIAN_POINT('',(0.0843726029366703,0.,-6.51029393776681));
#1793=CARTESIAN_POINT('Origin',(-3.30887925268899,0.,-10.7109893378515));
#1794=CARTESIAN_POINT('',(0.627094960762723,0.,-5.5702712396085));
#1795=CARTESIAN_POINT('Origin',(-10.1063425538311,0.,-6.07153216591882E-15));
#1796=CARTESIAN_POINT('',(3.28288830507051,0.,-5.88380166278881));
#1797=CARTESIAN_POINT('Origin',(2.56837796298364,0.,-0.531281231155605));
#1798=CARTESIAN_POINT('Origin',(-10.1063425538311,0.,-6.07153216591882E-15));
#1799=CARTESIAN_POINT('',(-14.6063425538311,0.,-1.3));
#1800=CARTESIAN_POINT('Origin',(-14.6063425538311,0.,0.));
#1801=CARTESIAN_POINT('',(-5.60634255383112,0.,-1.3));
#1802=CARTESIAN_POINT('Origin',(-5.60634255383112,0.,0.));
#1803=CARTESIAN_POINT('',(-10.1063425538311,0.,-2.4));
#1804=CARTESIAN_POINT('Origin',(-10.1063425538311,0.,-6.07153216591882E-15));
#1805=CARTESIAN_POINT('',(-40.5932720410758,0.,2.26368041076661));
#1806=CARTESIAN_POINT('Origin',(-40.5932720410758,0.,4.01368041076661));
#1807=CARTESIAN_POINT('Origin',(-0.768289165479772,4.,-8.58670826581661));
#1808=CARTESIAN_POINT('',(3.52174943628512,4.,-5.30713988028672));
#1809=CARTESIAN_POINT('',(2.08164193619438,4.,-4.00000000000001));
#1810=CARTESIAN_POINT('Origin',(-10.1063425538311,4.,-6.07153216591882E-15));
#1811=CARTESIAN_POINT('',(3.28288830507051,4.,-5.88380166278881));
#1812=CARTESIAN_POINT('Origin',(2.56837796298364,4.,-0.531281231155605));
#1813=CARTESIAN_POINT('',(0.627094960762723,4.,-5.5702712396085));
#1814=CARTESIAN_POINT('Origin',(-10.1063425538311,4.,-6.07153216591882E-15));
#1815=CARTESIAN_POINT('',(0.0843726029366703,4.,-6.51029393776681));
#1816=CARTESIAN_POINT('Origin',(-3.30887925268899,4.,-10.7109893378515));
#1817=CARTESIAN_POINT('',(1.68379458642402,4.,-8.65351322954882));
#1818=CARTESIAN_POINT('Origin',(-10.1063425538311,4.,-6.07153216591882E-15));
#1819=CARTESIAN_POINT('',(1.30382139899291,4.,-9.1487039284084));
#1820=CARTESIAN_POINT('Origin',(1.9989916334276,4.,-3.79363732329918));
#1821=CARTESIAN_POINT('',(-1.18033033682249,4.,-8.15848689796783));
#1822=CARTESIAN_POINT('Origin',(-10.1063425538311,4.,-6.07153216591882E-15));
#1823=CARTESIAN_POINT('',(-1.9478556558632,4.,-8.92601221700855));
#1824=CARTESIAN_POINT('Origin',(-6.31270523053182,4.,-12.1053341872587));
#1825=CARTESIAN_POINT('',(-0.957638625422602,4.,-11.4101639528239));
#1826=CARTESIAN_POINT('Origin',(-10.1063425538311,4.,-6.07153216591882E-15));
#1827=CARTESIAN_POINT('',(-1.45282932428218,4.,-11.7901371402551));
#1828=CARTESIAN_POINT('Origin',(0.604646784020486,4.,-6.79746330114202));
#1829=CARTESIAN_POINT('',(-3.59604861606421,4.,-10.1907151567677));
#1830=CARTESIAN_POINT('Origin',(-10.1063425538311,4.,-6.07153216591882E-15));
#1831=CARTESIAN_POINT('',(-4.53607131422251,4.,-10.7334375145938));
#1832=CARTESIAN_POINT('Origin',(-9.57506132267539,4.,-12.6747205168148));
#1833=CARTESIAN_POINT('',(-4.22254089104218,4.,-13.3892308589016));
#1834=CARTESIAN_POINT('Origin',(-10.1063425538311,4.,-6.07153216591882E-15));
#1835=CARTESIAN_POINT('',(-4.79920267354426,4.,-13.6280919901162));
#1836=CARTESIAN_POINT('Origin',(-1.51963428801442,4.,-9.33805338835126));
#1837=CARTESIAN_POINT('',(-6.45543266839531,4.,-11.528463018587));
#1838=CARTESIAN_POINT('Origin',(-10.1063425538311,4.,-6.07153216591882E-15));
#1839=CARTESIAN_POINT('',(-7.50389175225268,4.,-11.8093967834036));
#1840=CARTESIAN_POINT('Origin',(-12.8736233527385,4.,-12.3803455891159));
#1841=CARTESIAN_POINT('',(-7.88841451653883,4.,-14.4558438086953));
#1842=CARTESIAN_POINT('Origin',(-10.1063425538311,4.,-6.07153216591882E-15));
#1843=CARTESIAN_POINT('',(-8.50724883518456,4.,-14.5373148923378));
#1844=CARTESIAN_POINT('Origin',(-4.22908533815839,4.,-11.2422705690072));
#1845=CARTESIAN_POINT('',(-9.56362019600502,4.,-12.0805651773754));
#1846=CARTESIAN_POINT('Origin',(-10.1063425538311,4.,-6.07153216591882E-15));
#1847=CARTESIAN_POINT('',(-10.6490649116571,4.,-12.0805651773754));
#1848=CARTESIAN_POINT('Origin',(-15.9835997695038,4.,-11.2422705690073));
#1849=CARTESIAN_POINT('',(-11.7054362724776,4.,-14.5373148923378));
#1850=CARTESIAN_POINT('Origin',(-10.1063425538311,4.,-6.07153216591882E-15));
#1851=CARTESIAN_POINT('',(-12.3242705911233,4.,-14.4558438086953));
#1852=CARTESIAN_POINT('Origin',(-7.33906175492368,4.,-12.3803455891159));
#1853=CARTESIAN_POINT('',(-12.7087933554095,4.,-11.8093967834036));
#1854=CARTESIAN_POINT('Origin',(-10.1063425538311,4.,-6.07153216591882E-15));
#1855=CARTESIAN_POINT('',(-13.7572524392668,4.,-11.528463018587));
#1856=CARTESIAN_POINT('Origin',(-18.6930508196478,4.,-9.33805338835132));
#1857=CARTESIAN_POINT('',(-15.4134824341179,4.,-13.6280919901162));
#1858=CARTESIAN_POINT('Origin',(-10.1063425538311,4.,-6.07153216591882E-15));
#1859=CARTESIAN_POINT('',(-15.99014421662,4.,-13.3892308589016));
#1860=CARTESIAN_POINT('Origin',(-10.6376237849868,4.,-12.6747205168148));
#1861=CARTESIAN_POINT('',(-15.6766137934397,4.,-10.7334375145938));
#1862=CARTESIAN_POINT('Origin',(-10.1063425538311,4.,-6.07153216591882E-15));
#1863=CARTESIAN_POINT('',(-16.616636491598,4.,-10.1907151567678));
#1864=CARTESIAN_POINT('Origin',(-20.8173318916827,4.,-6.79746330114209));
#1865=CARTESIAN_POINT('',(-18.75985578338,4.,-11.7901371402551));
#1866=CARTESIAN_POINT('Origin',(-10.1063425538311,4.,-6.07153216591882E-15));
#1867=CARTESIAN_POINT('',(-19.2550464822396,4.,-11.410163952824));
#1868=CARTESIAN_POINT('Origin',(-13.8999798771303,4.,-12.1053341872587));
#1869=CARTESIAN_POINT('',(-18.264829451799,4.,-8.92601221700861));
#1870=CARTESIAN_POINT('Origin',(-10.1063425538311,4.,-6.07153216591882E-15));
#1871=CARTESIAN_POINT('',(-19.0323547708397,4.,-8.15848689796789));
#1872=CARTESIAN_POINT('Origin',(-22.2116767410898,4.,-3.79363732329927));
#1873=CARTESIAN_POINT('',(-21.5165065066551,4.,-9.14870392840849));
#1874=CARTESIAN_POINT('Origin',(-10.1063425538311,4.,-6.07153216591882E-15));
#1875=CARTESIAN_POINT('',(-21.8964796940862,4.,-8.65351322954891));
#1876=CARTESIAN_POINT('Origin',(-16.9038058549732,4.,-10.7109893378516));
#1877=CARTESIAN_POINT('',(-20.2970577105989,4.,-6.51029393776688));
#1878=CARTESIAN_POINT('Origin',(-10.1063425538311,4.,-6.07153216591882E-15));
#1879=CARTESIAN_POINT('',(-20.8397800684249,4.,-5.57027123960859));
#1880=CARTESIAN_POINT('Origin',(-22.7810630706459,4.,-0.531281231155693));
#1881=CARTESIAN_POINT('',(-23.4955734127327,4.,-5.8838016627889));
#1882=CARTESIAN_POINT('Origin',(-10.1063425538311,4.,-6.07153216591882E-15));
#1883=CARTESIAN_POINT('',(-23.7344345439473,4.,-5.30713988028682));
#1884=CARTESIAN_POINT('Origin',(-19.4443959421824,4.,-8.58670826581668));
#1885=CARTESIAN_POINT('',(-21.6348055724181,4.,-3.65090988543577));
#1886=CARTESIAN_POINT('Origin',(-10.1063425538311,4.,-6.07153216591882E-15));
#1887=CARTESIAN_POINT('',(-21.9428533754856,0.,-2.47620962992955));
#1888=CARTESIAN_POINT('Origin',(-10.1063425538311,4.,-6.07153216591882E-15));
#1889=CARTESIAN_POINT('',(1.97422262354431,0.,-0.542722357825997));
#1890=CARTESIAN_POINT('',(-20.8986438377252,0.,5.45534926106093));
#1891=CARTESIAN_POINT('Origin',(-0.694287404760926,0.,-5.27363641012603));
#1892=CARTESIAN_POINT('',(-41.115376809956,0.,0.0479009652713737));
#1893=CARTESIAN_POINT('Origin',(0.349922132999496,0.,2.65792248086445));
#1894=CARTESIAN_POINT('',(-40.0711672721956,0.,7.97945985626186));
#1895=CARTESIAN_POINT('Origin',(-40.5932720410758,0.,4.01368041076661));
#1896=CARTESIAN_POINT('Origin',(-40.5932720410758,0.,4.01368041076661));
#1897=CARTESIAN_POINT('',(-40.5932720410758,0.,2.26368041076661));
#1898=CARTESIAN_POINT('Origin',(-10.1063425538311,0.,-6.07153216591882E-15));
#1899=CARTESIAN_POINT('',(4.43097233850674,0.,-1.59909371864644));
#1900=CARTESIAN_POINT('',(4.34950125486424,0.,-2.21792803729217));
#1901=CARTESIAN_POINT('Origin',(2.27400303528485,0.,2.76728079890745));
#1902=CARTESIAN_POINT('',(1.70305422957252,0.,-2.60245080157833));
#1903=CARTESIAN_POINT('Origin',(-10.1063425538311,0.,-6.07153216591882E-15));
#1904=CARTESIAN_POINT('',(1.43808022007064,0.,-3.60012574501481));
#1905=CARTESIAN_POINT('Origin',(-1.21330216155622,0.,-1.95270090918127));
#1906=CARTESIAN_POINT('Origin',(1.13592801517625,0.,-5.87725721567265));
#1907=CARTESIAN_POINT('Origin',(-10.1063425538311,-0.00100000000000013,
-6.07153216591882E-15));
#1908=CARTESIAN_POINT('',(-10.1063425538311,-0.00100000000000013,-2.4));
#1909=CARTESIAN_POINT('Origin',(-5.60634255383112,-0.00100000000000013,
0.));
#1910=CARTESIAN_POINT('',(-5.60634255383112,-0.00100000000000013,-1.3));
#1911=CARTESIAN_POINT('Origin',(-14.6063425538311,-0.00100000000000013,
0.));
#1912=CARTESIAN_POINT('',(-14.6063425538311,-0.00100000000000013,-1.3));
#1913=UNCERTAINTY_MEASURE_WITH_UNIT(LENGTH_MEASURE(0.01),#1917,
'DISTANCE_ACCURACY_VALUE',
'Maximum model space distance between geometric entities at asserted c
onnectivities');
#1914=UNCERTAINTY_MEASURE_WITH_UNIT(LENGTH_MEASURE(0.01),#1917,
'DISTANCE_ACCURACY_VALUE',
'Maximum model space distance between geometric entities at asserted c
onnectivities');
#1915=(
GEOMETRIC_REPRESENTATION_CONTEXT(3)
GLOBAL_UNCERTAINTY_ASSIGNED_CONTEXT((#1913))
GLOBAL_UNIT_ASSIGNED_CONTEXT((#1917,#1919,#1920))
REPRESENTATION_CONTEXT('','3D')
);
#1916=(
GEOMETRIC_REPRESENTATION_CONTEXT(3)
GLOBAL_UNCERTAINTY_ASSIGNED_CONTEXT((#1914))
GLOBAL_UNIT_ASSIGNED_CONTEXT((#1917,#1919,#1920))
REPRESENTATION_CONTEXT('','3D')
);
#1917=(
LENGTH_UNIT()
NAMED_UNIT(*)
SI_UNIT(.MILLI.,.METRE.)
);
#1918=(
LENGTH_UNIT()
NAMED_UNIT(*)
SI_UNIT($,.METRE.)
);
#1919=(
NAMED_UNIT(*)
PLANE_ANGLE_UNIT()
SI_UNIT($,.RADIAN.)
);
#1920=(
NAMED_UNIT(*)
SI_UNIT($,.STERADIAN.)
SOLID_ANGLE_UNIT()
);
#1921=SHAPE_DEFINITION_REPRESENTATION(#1922,#1923);
#1922=PRODUCT_DEFINITION_SHAPE('',$,#1925);
#1923=SHAPE_REPRESENTATION('',(#1065),#1915);
#1924=PRODUCT_DEFINITION_CONTEXT('part definition',#1929,'design');
#1925=PRODUCT_DEFINITION('2026-09-14-18-19-18-962','gear2',#1926,#1924);
#1926=PRODUCT_DEFINITION_FORMATION('',$,#1931);
#1927=PRODUCT_RELATED_PRODUCT_CATEGORY('gear2','gear2',(#1931));
#1928=APPLICATION_PROTOCOL_DEFINITION('international standard',
'automotive_design',2009,#1929);
#1929=APPLICATION_CONTEXT(
'Core Data for Automotive Mechanical Design Process');
#1930=PRODUCT_CONTEXT('part definition',#1929,'mechanical');
#1931=PRODUCT('2026-09-14-18-19-18-962','gear2',$,(#1930));
#1932=PRESENTATION_STYLE_ASSIGNMENT((#1934));
#1933=PRESENTATION_STYLE_ASSIGNMENT((#1935));
#1934=SURFACE_STYLE_USAGE(.BOTH.,#1936);
#1935=SURFACE_STYLE_USAGE(.BOTH.,#1937);
#1936=SURFACE_SIDE_STYLE('',(#1938));
#1937=SURFACE_SIDE_STYLE('',(#1939));
#1938=SURFACE_STYLE_FILL_AREA(#1940);
#1939=SURFACE_STYLE_FILL_AREA(#1941);
#1940=FILL_AREA_STYLE('Steel - Satin',(#1942));
#1941=FILL_AREA_STYLE('Aluminum - Anodized Rough (Blue)',(#1943));
#1942=FILL_AREA_STYLE_COLOUR('Steel - Satin',#1944);
#1943=FILL_AREA_STYLE_COLOUR('Aluminum - Anodized Rough (Blue)',#1945);
#1944=COLOUR_RGB('Steel - Satin',0.627450980392157,0.627450980392157,0.627450980392157);
#1945=COLOUR_RGB('Aluminum - Anodized Rough (Blue)',0.349019607843137,0.584313725490196,
0.854901960784314);
ENDSEC;
END-ISO-10303-21;
