ISO-10303-21;
HEADER;
/* Generated by software containing ST-Developer
 * from STEP Tools, Inc. (www.steptools.com) 
 */

FILE_DESCRIPTION(
/* description */ (''),
/* implementation_level */ '2;1');

FILE_NAME(
/* name */ 'Servo_Motor_Micro_9g.step',
/* time_stamp */ '2026-09-21T22:56:00+05:30',
/* author */ (''),
/* organization */ (''),
/* preprocessor_version */ 'ST-DEVELOPER v20.2',
/* originating_system */ 'Autodesk Translation Framework v15.15.0.0',
/* authorisation */ '');

FILE_SCHEMA (('AUTOMOTIVE_DESIGN { 1 0 10303 214 3 1 1 }'));
ENDSEC;

DATA;
#10=MECHANICAL_DESIGN_GEOMETRIC_PRESENTATION_REPRESENTATION('',(#14,#15,
#16,#17,#18,#19),#1105);
#11=SHAPE_REPRESENTATION_RELATIONSHIP('SRR','None',#1112,#12);
#12=ADVANCED_BREP_SHAPE_REPRESENTATION('',(#20,#21,#22,#23,#24,#25),#1104);
#13=FACE_BOUND('',#126,.T.);
#14=STYLED_ITEM('',(#1122),#20);
#15=STYLED_ITEM('',(#1122),#21);
#16=STYLED_ITEM('',(#1122),#22);
#17=STYLED_ITEM('',(#1123),#23);
#18=STYLED_ITEM('',(#1124),#24);
#19=STYLED_ITEM('',(#1125),#25);
#20=MANIFOLD_SOLID_BREP('Body1',#651);
#21=MANIFOLD_SOLID_BREP('Body2',#652);
#22=MANIFOLD_SOLID_BREP('Body3',#653);
#23=MANIFOLD_SOLID_BREP('Body4',#654);
#24=MANIFOLD_SOLID_BREP('Body5',#655);
#25=MANIFOLD_SOLID_BREP('Body6',#656);
#26=CYLINDRICAL_SURFACE('',#680,1.);
#27=CYLINDRICAL_SURFACE('',#691,1.);
#28=CYLINDRICAL_SURFACE('',#707,1.3);
#29=CYLINDRICAL_SURFACE('',#709,6.2);
#30=CYLINDRICAL_SURFACE('',#713,2.5);
#31=CYLINDRICAL_SURFACE('',#716,0.6);
#32=CYLINDRICAL_SURFACE('',#721,0.6);
#33=CYLINDRICAL_SURFACE('',#726,0.6);
#34=CIRCLE('',#672,1.);
#35=CIRCLE('',#675,1.);
#36=CIRCLE('',#683,1.);
#37=CIRCLE('',#685,1.);
#38=CIRCLE('',#695,1.3);
#39=CIRCLE('',#696,6.2);
#40=CIRCLE('',#697,6.2);
#41=CIRCLE('',#699,6.2);
#42=CIRCLE('',#705,6.2);
#43=CIRCLE('',#708,1.3);
#44=CIRCLE('',#710,6.2);
#45=CIRCLE('',#712,2.5);
#46=CIRCLE('',#714,2.5);
#47=CIRCLE('',#717,0.6);
#48=CIRCLE('',#718,0.6);
#49=CIRCLE('',#722,0.6);
#50=CIRCLE('',#723,0.6);
#51=CIRCLE('',#727,0.6);
#52=CIRCLE('',#728,0.6);
#53=FACE_OUTER_BOUND('',#95,.T.);
#54=FACE_OUTER_BOUND('',#96,.T.);
#55=FACE_OUTER_BOUND('',#97,.T.);
#56=FACE_OUTER_BOUND('',#98,.T.);
#57=FACE_OUTER_BOUND('',#99,.T.);
#58=FACE_OUTER_BOUND('',#100,.T.);
#59=FACE_OUTER_BOUND('',#101,.T.);
#60=FACE_OUTER_BOUND('',#102,.T.);
#61=FACE_OUTER_BOUND('',#103,.T.);
#62=FACE_OUTER_BOUND('',#104,.T.);
#63=FACE_OUTER_BOUND('',#105,.T.);
#64=FACE_OUTER_BOUND('',#106,.T.);
#65=FACE_OUTER_BOUND('',#107,.T.);
#66=FACE_OUTER_BOUND('',#108,.T.);
#67=FACE_OUTER_BOUND('',#109,.T.);
#68=FACE_OUTER_BOUND('',#110,.T.);
#69=FACE_OUTER_BOUND('',#111,.T.);
#70=FACE_OUTER_BOUND('',#112,.T.);
#71=FACE_OUTER_BOUND('',#113,.T.);
#72=FACE_OUTER_BOUND('',#114,.T.);
#73=FACE_OUTER_BOUND('',#115,.T.);
#74=FACE_OUTER_BOUND('',#116,.T.);
#75=FACE_OUTER_BOUND('',#117,.T.);
#76=FACE_OUTER_BOUND('',#118,.T.);
#77=FACE_OUTER_BOUND('',#119,.T.);
#78=FACE_OUTER_BOUND('',#120,.T.);
#79=FACE_OUTER_BOUND('',#121,.T.);
#80=FACE_OUTER_BOUND('',#122,.T.);
#81=FACE_OUTER_BOUND('',#123,.T.);
#82=FACE_OUTER_BOUND('',#124,.T.);
#83=FACE_OUTER_BOUND('',#125,.T.);
#84=FACE_OUTER_BOUND('',#127,.T.);
#85=FACE_OUTER_BOUND('',#128,.T.);
#86=FACE_OUTER_BOUND('',#129,.T.);
#87=FACE_OUTER_BOUND('',#130,.T.);
#88=FACE_OUTER_BOUND('',#131,.T.);
#89=FACE_OUTER_BOUND('',#132,.T.);
#90=FACE_OUTER_BOUND('',#133,.T.);
#91=FACE_OUTER_BOUND('',#134,.T.);
#92=FACE_OUTER_BOUND('',#135,.T.);
#93=FACE_OUTER_BOUND('',#136,.T.);
#94=FACE_OUTER_BOUND('',#137,.T.);
#95=EDGE_LOOP('',(#407,#408,#409,#410));
#96=EDGE_LOOP('',(#411,#412,#413,#414,#415,#416,#417,#418));
#97=EDGE_LOOP('',(#419,#420,#421,#422));
#98=EDGE_LOOP('',(#423,#424,#425,#426,#427,#428,#429,#430));
#99=EDGE_LOOP('',(#431,#432,#433,#434));
#100=EDGE_LOOP('',(#435,#436,#437,#438));
#101=EDGE_LOOP('',(#439,#440,#441,#442));
#102=EDGE_LOOP('',(#443,#444,#445,#446));
#103=EDGE_LOOP('',(#447,#448,#449,#450));
#104=EDGE_LOOP('',(#451,#452,#453,#454));
#105=EDGE_LOOP('',(#455,#456,#457,#458,#459,#460,#461,#462));
#106=EDGE_LOOP('',(#463,#464,#465,#466,#467,#468,#469,#470));
#107=EDGE_LOOP('',(#471,#472,#473,#474));
#108=EDGE_LOOP('',(#475,#476,#477,#478));
#109=EDGE_LOOP('',(#479,#480,#481,#482));
#110=EDGE_LOOP('',(#483,#484,#485,#486));
#111=EDGE_LOOP('',(#487,#488,#489,#490));
#112=EDGE_LOOP('',(#491,#492,#493,#494));
#113=EDGE_LOOP('',(#495,#496,#497,#498));
#114=EDGE_LOOP('',(#499,#500,#501,#502));
#115=EDGE_LOOP('',(#503,#504,#505,#506,#507,#508));
#116=EDGE_LOOP('',(#509,#510,#511));
#117=EDGE_LOOP('',(#512,#513,#514,#515));
#118=EDGE_LOOP('',(#516,#517,#518,#519,#520));
#119=EDGE_LOOP('',(#521,#522,#523,#524,#525));
#120=EDGE_LOOP('',(#526,#527,#528,#529,#530));
#121=EDGE_LOOP('',(#531,#532,#533));
#122=EDGE_LOOP('',(#534,#535,#536,#537));
#123=EDGE_LOOP('',(#538,#539,#540,#541));
#124=EDGE_LOOP('',(#542,#543,#544,#545,#546,#547,#548));
#125=EDGE_LOOP('',(#549,#550));
#126=EDGE_LOOP('',(#551));
#127=EDGE_LOOP('',(#552,#553,#554,#555));
#128=EDGE_LOOP('',(#556));
#129=EDGE_LOOP('',(#557,#558,#559,#560));
#130=EDGE_LOOP('',(#561));
#131=EDGE_LOOP('',(#562));
#132=EDGE_LOOP('',(#563,#564,#565,#566));
#133=EDGE_LOOP('',(#567));
#134=EDGE_LOOP('',(#568));
#135=EDGE_LOOP('',(#569,#570,#571,#572));
#136=EDGE_LOOP('',(#573));
#137=EDGE_LOOP('',(#574));
#138=LINE('',#924,#203);
#139=LINE('',#926,#204);
#140=LINE('',#928,#205);
#141=LINE('',#929,#206);
#142=LINE('',#932,#207);
#143=LINE('',#936,#208);
#144=LINE('',#938,#209);
#145=LINE('',#940,#210);
#146=LINE('',#942,#211);
#147=LINE('',#943,#212);
#148=LINE('',#946,#213);
#149=LINE('',#947,#214);
#150=LINE('',#952,#215);
#151=LINE('',#954,#216);
#152=LINE('',#956,#217);
#153=LINE('',#958,#218);
#154=LINE('',#959,#219);
#155=LINE('',#961,#220);
#156=LINE('',#962,#221);
#157=LINE('',#964,#222);
#158=LINE('',#967,#223);
#159=LINE('',#969,#224);
#160=LINE('',#974,#225);
#161=LINE('',#978,#226);
#162=LINE('',#980,#227);
#163=LINE('',#982,#228);
#164=LINE('',#984,#229);
#165=LINE('',#986,#230);
#166=LINE('',#987,#231);
#167=LINE('',#991,#232);
#168=LINE('',#993,#233);
#169=LINE('',#995,#234);
#170=LINE('',#997,#235);
#171=LINE('',#999,#236);
#172=LINE('',#1001,#237);
#173=LINE('',#1003,#238);
#174=LINE('',#1006,#239);
#175=LINE('',#1007,#240);
#176=LINE('',#1009,#241);
#177=LINE('',#1010,#242);
#178=LINE('',#1012,#243);
#179=LINE('',#1014,#244);
#180=LINE('',#1017,#245);
#181=LINE('',#1018,#246);
#182=LINE('',#1028,#247);
#183=LINE('',#1030,#248);
#184=LINE('',#1032,#249);
#185=LINE('',#1038,#250);
#186=LINE('',#1039,#251);
#187=LINE('',#1043,#252);
#188=LINE('',#1044,#253);
#189=LINE('',#1045,#254);
#190=LINE('',#1048,#255);
#191=LINE('',#1049,#256);
#192=LINE('',#1052,#257);
#193=LINE('',#1054,#258);
#194=LINE('',#1055,#259);
#195=LINE('',#1057,#260);
#196=LINE('',#1058,#261);
#197=LINE('',#1064,#262);
#198=LINE('',#1067,#263);
#199=LINE('',#1075,#264);
#200=LINE('',#1082,#265);
#201=LINE('',#1090,#266);
#202=LINE('',#1098,#267);
#203=VECTOR('',#735,2.4);
#204=VECTOR('',#736,5.65);
#205=VECTOR('',#737,2.4);
#206=VECTOR('',#738,5.65);
#207=VECTOR('',#741,1.66483534557549);
#208=VECTOR('',#744,1.66483534557549);
#209=VECTOR('',#745,5.65);
#210=VECTOR('',#746,5.);
#211=VECTOR('',#747,12.4);
#212=VECTOR('',#748,5.);
#213=VECTOR('',#751,2.4);
#214=VECTOR('',#752,5.);
#215=VECTOR('',#757,1.66483534557549);
#216=VECTOR('',#758,12.4);
#217=VECTOR('',#759,5.);
#218=VECTOR('',#760,5.65);
#219=VECTOR('',#761,1.66483534557549);
#220=VECTOR('',#764,2.4);
#221=VECTOR('',#765,2.4);
#222=VECTOR('',#768,2.4);
#223=VECTOR('',#773,2.4);
#224=VECTOR('',#776,2.4);
#225=VECTOR('',#781,1.66483534557549);
#226=VECTOR('',#784,1.66483534557549);
#227=VECTOR('',#785,5.65);
#228=VECTOR('',#786,5.);
#229=VECTOR('',#787,12.4);
#230=VECTOR('',#788,5.);
#231=VECTOR('',#789,5.65);
#232=VECTOR('',#792,1.66483534557549);
#233=VECTOR('',#793,5.65);
#234=VECTOR('',#794,5.);
#235=VECTOR('',#795,12.4);
#236=VECTOR('',#796,5.);
#237=VECTOR('',#797,5.65);
#238=VECTOR('',#798,1.66483534557549);
#239=VECTOR('',#803,2.4);
#240=VECTOR('',#804,2.4);
#241=VECTOR('',#807,2.4);
#242=VECTOR('',#808,2.4);
#243=VECTOR('',#811,2.4);
#244=VECTOR('',#814,2.4);
#245=VECTOR('',#819,2.4);
#246=VECTOR('',#820,2.4);
#247=VECTOR('',#831,16.4);
#248=VECTOR('',#832,12.4);
#249=VECTOR('',#833,16.4);
#250=VECTOR('',#840,6.2);
#251=VECTOR('',#841,6.2);
#252=VECTOR('',#844,12.4);
#253=VECTOR('',#845,22.3);
#254=VECTOR('',#846,22.3);
#255=VECTOR('',#849,22.6);
#256=VECTOR('',#850,22.3);
#257=VECTOR('',#853,12.4);
#258=VECTOR('',#854,22.3);
#259=VECTOR('',#855,6.2);
#260=VECTOR('',#858,22.6);
#261=VECTOR('',#859,6.2);
#262=VECTOR('',#868,4.3);
#263=VECTOR('',#871,4.3);
#264=VECTOR('',#882,2.5);
#265=VECTOR('',#891,0.6);
#266=VECTOR('',#902,0.6);
#267=VECTOR('',#913,0.6);
#268=VERTEX_POINT('',#922);
#269=VERTEX_POINT('',#923);
#270=VERTEX_POINT('',#925);
#271=VERTEX_POINT('',#927);
#272=VERTEX_POINT('',#931);
#273=VERTEX_POINT('',#933);
#274=VERTEX_POINT('',#935);
#275=VERTEX_POINT('',#937);
#276=VERTEX_POINT('',#939);
#277=VERTEX_POINT('',#941);
#278=VERTEX_POINT('',#945);
#279=VERTEX_POINT('',#949);
#280=VERTEX_POINT('',#950);
#281=VERTEX_POINT('',#953);
#282=VERTEX_POINT('',#955);
#283=VERTEX_POINT('',#957);
#284=VERTEX_POINT('',#972);
#285=VERTEX_POINT('',#973);
#286=VERTEX_POINT('',#975);
#287=VERTEX_POINT('',#977);
#288=VERTEX_POINT('',#979);
#289=VERTEX_POINT('',#981);
#290=VERTEX_POINT('',#983);
#291=VERTEX_POINT('',#985);
#292=VERTEX_POINT('',#989);
#293=VERTEX_POINT('',#990);
#294=VERTEX_POINT('',#992);
#295=VERTEX_POINT('',#994);
#296=VERTEX_POINT('',#996);
#297=VERTEX_POINT('',#998);
#298=VERTEX_POINT('',#1000);
#299=VERTEX_POINT('',#1002);
#300=VERTEX_POINT('',#1022);
#301=VERTEX_POINT('',#1023);
#302=VERTEX_POINT('',#1025);
#303=VERTEX_POINT('',#1027);
#304=VERTEX_POINT('',#1029);
#305=VERTEX_POINT('',#1031);
#306=VERTEX_POINT('',#1035);
#307=VERTEX_POINT('',#1037);
#308=VERTEX_POINT('',#1041);
#309=VERTEX_POINT('',#1042);
#310=VERTEX_POINT('',#1047);
#311=VERTEX_POINT('',#1051);
#312=VERTEX_POINT('',#1053);
#313=VERTEX_POINT('',#1063);
#314=VERTEX_POINT('',#1065);
#315=VERTEX_POINT('',#1071);
#316=VERTEX_POINT('',#1074);
#317=VERTEX_POINT('',#1079);
#318=VERTEX_POINT('',#1081);
#319=VERTEX_POINT('',#1087);
#320=VERTEX_POINT('',#1089);
#321=VERTEX_POINT('',#1095);
#322=VERTEX_POINT('',#1097);
#323=EDGE_CURVE('',#268,#269,#138,.T.);
#324=EDGE_CURVE('',#269,#270,#139,.T.);
#325=EDGE_CURVE('',#270,#271,#140,.T.);
#326=EDGE_CURVE('',#271,#268,#141,.T.);
#327=EDGE_CURVE('',#272,#269,#142,.T.);
#328=EDGE_CURVE('',#273,#272,#34,.T.);
#329=EDGE_CURVE('',#274,#273,#143,.T.);
#330=EDGE_CURVE('',#275,#274,#144,.T.);
#331=EDGE_CURVE('',#275,#276,#145,.T.);
#332=EDGE_CURVE('',#276,#277,#146,.T.);
#333=EDGE_CURVE('',#270,#277,#147,.T.);
#334=EDGE_CURVE('',#277,#278,#148,.T.);
#335=EDGE_CURVE('',#271,#278,#149,.T.);
#336=EDGE_CURVE('',#279,#280,#35,.F.);
#337=EDGE_CURVE('',#268,#279,#150,.T.);
#338=EDGE_CURVE('',#278,#281,#151,.T.);
#339=EDGE_CURVE('',#282,#281,#152,.T.);
#340=EDGE_CURVE('',#283,#282,#153,.T.);
#341=EDGE_CURVE('',#280,#283,#154,.T.);
#342=EDGE_CURVE('',#281,#276,#155,.T.);
#343=EDGE_CURVE('',#282,#275,#156,.T.);
#344=EDGE_CURVE('',#283,#274,#157,.T.);
#345=EDGE_CURVE('',#279,#272,#158,.T.);
#346=EDGE_CURVE('',#280,#273,#159,.T.);
#347=EDGE_CURVE('',#284,#285,#160,.T.);
#348=EDGE_CURVE('',#286,#285,#36,.F.);
#349=EDGE_CURVE('',#287,#286,#161,.T.);
#350=EDGE_CURVE('',#288,#287,#162,.T.);
#351=EDGE_CURVE('',#288,#289,#163,.T.);
#352=EDGE_CURVE('',#289,#290,#164,.T.);
#353=EDGE_CURVE('',#291,#290,#165,.T.);
#354=EDGE_CURVE('',#284,#291,#166,.T.);
#355=EDGE_CURVE('',#292,#293,#167,.T.);
#356=EDGE_CURVE('',#294,#293,#168,.T.);
#357=EDGE_CURVE('',#294,#295,#169,.T.);
#358=EDGE_CURVE('',#295,#296,#170,.T.);
#359=EDGE_CURVE('',#297,#296,#171,.T.);
#360=EDGE_CURVE('',#298,#297,#172,.T.);
#361=EDGE_CURVE('',#299,#298,#173,.T.);
#362=EDGE_CURVE('',#292,#299,#37,.T.);
#363=EDGE_CURVE('',#284,#293,#174,.T.);
#364=EDGE_CURVE('',#291,#294,#175,.T.);
#365=EDGE_CURVE('',#296,#289,#176,.T.);
#366=EDGE_CURVE('',#297,#288,#177,.T.);
#367=EDGE_CURVE('',#290,#295,#178,.T.);
#368=EDGE_CURVE('',#287,#298,#179,.T.);
#369=EDGE_CURVE('',#285,#292,#180,.T.);
#370=EDGE_CURVE('',#286,#299,#181,.T.);
#371=EDGE_CURVE('',#300,#301,#38,.T.);
#372=EDGE_CURVE('',#302,#300,#39,.T.);
#373=EDGE_CURVE('',#302,#303,#182,.T.);
#374=EDGE_CURVE('',#303,#304,#183,.T.);
#375=EDGE_CURVE('',#304,#305,#184,.T.);
#376=EDGE_CURVE('',#301,#305,#40,.T.);
#377=EDGE_CURVE('',#305,#306,#41,.T.);
#378=EDGE_CURVE('',#305,#307,#185,.T.);
#379=EDGE_CURVE('',#307,#306,#186,.T.);
#380=EDGE_CURVE('',#308,#309,#187,.T.);
#381=EDGE_CURVE('',#304,#309,#188,.T.);
#382=EDGE_CURVE('',#303,#308,#189,.T.);
#383=EDGE_CURVE('',#309,#310,#190,.T.);
#384=EDGE_CURVE('',#307,#310,#191,.T.);
#385=EDGE_CURVE('',#310,#311,#192,.T.);
#386=EDGE_CURVE('',#312,#311,#193,.T.);
#387=EDGE_CURVE('',#306,#312,#194,.T.);
#388=EDGE_CURVE('',#311,#308,#195,.T.);
#389=EDGE_CURVE('',#312,#302,#196,.T.);
#390=EDGE_CURVE('',#306,#302,#42,.T.);
#391=EDGE_CURVE('',#313,#301,#197,.T.);
#392=EDGE_CURVE('',#314,#313,#43,.T.);
#393=EDGE_CURVE('',#314,#300,#198,.T.);
#394=EDGE_CURVE('',#313,#314,#44,.T.);
#395=EDGE_CURVE('',#315,#315,#45,.T.);
#396=EDGE_CURVE('',#315,#316,#199,.T.);
#397=EDGE_CURVE('',#316,#316,#46,.T.);
#398=EDGE_CURVE('',#317,#317,#47,.T.);
#399=EDGE_CURVE('',#317,#318,#200,.T.);
#400=EDGE_CURVE('',#318,#318,#48,.T.);
#401=EDGE_CURVE('',#319,#319,#49,.T.);
#402=EDGE_CURVE('',#319,#320,#201,.T.);
#403=EDGE_CURVE('',#320,#320,#50,.T.);
#404=EDGE_CURVE('',#321,#321,#51,.T.);
#405=EDGE_CURVE('',#321,#322,#202,.T.);
#406=EDGE_CURVE('',#322,#322,#52,.T.);
#407=ORIENTED_EDGE('',*,*,#323,.T.);
#408=ORIENTED_EDGE('',*,*,#324,.T.);
#409=ORIENTED_EDGE('',*,*,#325,.T.);
#410=ORIENTED_EDGE('',*,*,#326,.T.);
#411=ORIENTED_EDGE('',*,*,#324,.F.);
#412=ORIENTED_EDGE('',*,*,#327,.F.);
#413=ORIENTED_EDGE('',*,*,#328,.F.);
#414=ORIENTED_EDGE('',*,*,#329,.F.);
#415=ORIENTED_EDGE('',*,*,#330,.F.);
#416=ORIENTED_EDGE('',*,*,#331,.T.);
#417=ORIENTED_EDGE('',*,*,#332,.T.);
#418=ORIENTED_EDGE('',*,*,#333,.F.);
#419=ORIENTED_EDGE('',*,*,#334,.T.);
#420=ORIENTED_EDGE('',*,*,#335,.F.);
#421=ORIENTED_EDGE('',*,*,#325,.F.);
#422=ORIENTED_EDGE('',*,*,#333,.T.);
#423=ORIENTED_EDGE('',*,*,#336,.F.);
#424=ORIENTED_EDGE('',*,*,#337,.F.);
#425=ORIENTED_EDGE('',*,*,#326,.F.);
#426=ORIENTED_EDGE('',*,*,#335,.T.);
#427=ORIENTED_EDGE('',*,*,#338,.T.);
#428=ORIENTED_EDGE('',*,*,#339,.F.);
#429=ORIENTED_EDGE('',*,*,#340,.F.);
#430=ORIENTED_EDGE('',*,*,#341,.F.);
#431=ORIENTED_EDGE('',*,*,#342,.T.);
#432=ORIENTED_EDGE('',*,*,#331,.F.);
#433=ORIENTED_EDGE('',*,*,#343,.F.);
#434=ORIENTED_EDGE('',*,*,#339,.T.);
#435=ORIENTED_EDGE('',*,*,#344,.F.);
#436=ORIENTED_EDGE('',*,*,#340,.T.);
#437=ORIENTED_EDGE('',*,*,#343,.T.);
#438=ORIENTED_EDGE('',*,*,#330,.T.);
#439=ORIENTED_EDGE('',*,*,#332,.F.);
#440=ORIENTED_EDGE('',*,*,#342,.F.);
#441=ORIENTED_EDGE('',*,*,#338,.F.);
#442=ORIENTED_EDGE('',*,*,#334,.F.);
#443=ORIENTED_EDGE('',*,*,#337,.T.);
#444=ORIENTED_EDGE('',*,*,#345,.T.);
#445=ORIENTED_EDGE('',*,*,#327,.T.);
#446=ORIENTED_EDGE('',*,*,#323,.F.);
#447=ORIENTED_EDGE('',*,*,#336,.T.);
#448=ORIENTED_EDGE('',*,*,#346,.T.);
#449=ORIENTED_EDGE('',*,*,#328,.T.);
#450=ORIENTED_EDGE('',*,*,#345,.F.);
#451=ORIENTED_EDGE('',*,*,#341,.T.);
#452=ORIENTED_EDGE('',*,*,#344,.T.);
#453=ORIENTED_EDGE('',*,*,#329,.T.);
#454=ORIENTED_EDGE('',*,*,#346,.F.);
#455=ORIENTED_EDGE('',*,*,#347,.T.);
#456=ORIENTED_EDGE('',*,*,#348,.F.);
#457=ORIENTED_EDGE('',*,*,#349,.F.);
#458=ORIENTED_EDGE('',*,*,#350,.F.);
#459=ORIENTED_EDGE('',*,*,#351,.T.);
#460=ORIENTED_EDGE('',*,*,#352,.T.);
#461=ORIENTED_EDGE('',*,*,#353,.F.);
#462=ORIENTED_EDGE('',*,*,#354,.F.);
#463=ORIENTED_EDGE('',*,*,#355,.T.);
#464=ORIENTED_EDGE('',*,*,#356,.F.);
#465=ORIENTED_EDGE('',*,*,#357,.T.);
#466=ORIENTED_EDGE('',*,*,#358,.T.);
#467=ORIENTED_EDGE('',*,*,#359,.F.);
#468=ORIENTED_EDGE('',*,*,#360,.F.);
#469=ORIENTED_EDGE('',*,*,#361,.F.);
#470=ORIENTED_EDGE('',*,*,#362,.F.);
#471=ORIENTED_EDGE('',*,*,#356,.T.);
#472=ORIENTED_EDGE('',*,*,#363,.F.);
#473=ORIENTED_EDGE('',*,*,#354,.T.);
#474=ORIENTED_EDGE('',*,*,#364,.T.);
#475=ORIENTED_EDGE('',*,*,#365,.T.);
#476=ORIENTED_EDGE('',*,*,#351,.F.);
#477=ORIENTED_EDGE('',*,*,#366,.F.);
#478=ORIENTED_EDGE('',*,*,#359,.T.);
#479=ORIENTED_EDGE('',*,*,#367,.T.);
#480=ORIENTED_EDGE('',*,*,#357,.F.);
#481=ORIENTED_EDGE('',*,*,#364,.F.);
#482=ORIENTED_EDGE('',*,*,#353,.T.);
#483=ORIENTED_EDGE('',*,*,#368,.T.);
#484=ORIENTED_EDGE('',*,*,#360,.T.);
#485=ORIENTED_EDGE('',*,*,#366,.T.);
#486=ORIENTED_EDGE('',*,*,#350,.T.);
#487=ORIENTED_EDGE('',*,*,#365,.F.);
#488=ORIENTED_EDGE('',*,*,#358,.F.);
#489=ORIENTED_EDGE('',*,*,#367,.F.);
#490=ORIENTED_EDGE('',*,*,#352,.F.);
#491=ORIENTED_EDGE('',*,*,#348,.T.);
#492=ORIENTED_EDGE('',*,*,#369,.T.);
#493=ORIENTED_EDGE('',*,*,#362,.T.);
#494=ORIENTED_EDGE('',*,*,#370,.F.);
#495=ORIENTED_EDGE('',*,*,#363,.T.);
#496=ORIENTED_EDGE('',*,*,#355,.F.);
#497=ORIENTED_EDGE('',*,*,#369,.F.);
#498=ORIENTED_EDGE('',*,*,#347,.F.);
#499=ORIENTED_EDGE('',*,*,#349,.T.);
#500=ORIENTED_EDGE('',*,*,#370,.T.);
#501=ORIENTED_EDGE('',*,*,#361,.T.);
#502=ORIENTED_EDGE('',*,*,#368,.F.);
#503=ORIENTED_EDGE('',*,*,#371,.F.);
#504=ORIENTED_EDGE('',*,*,#372,.F.);
#505=ORIENTED_EDGE('',*,*,#373,.T.);
#506=ORIENTED_EDGE('',*,*,#374,.T.);
#507=ORIENTED_EDGE('',*,*,#375,.T.);
#508=ORIENTED_EDGE('',*,*,#376,.F.);
#509=ORIENTED_EDGE('',*,*,#377,.F.);
#510=ORIENTED_EDGE('',*,*,#378,.T.);
#511=ORIENTED_EDGE('',*,*,#379,.T.);
#512=ORIENTED_EDGE('',*,*,#380,.T.);
#513=ORIENTED_EDGE('',*,*,#381,.F.);
#514=ORIENTED_EDGE('',*,*,#374,.F.);
#515=ORIENTED_EDGE('',*,*,#382,.T.);
#516=ORIENTED_EDGE('',*,*,#383,.T.);
#517=ORIENTED_EDGE('',*,*,#384,.F.);
#518=ORIENTED_EDGE('',*,*,#378,.F.);
#519=ORIENTED_EDGE('',*,*,#375,.F.);
#520=ORIENTED_EDGE('',*,*,#381,.T.);
#521=ORIENTED_EDGE('',*,*,#385,.T.);
#522=ORIENTED_EDGE('',*,*,#386,.F.);
#523=ORIENTED_EDGE('',*,*,#387,.F.);
#524=ORIENTED_EDGE('',*,*,#379,.F.);
#525=ORIENTED_EDGE('',*,*,#384,.T.);
#526=ORIENTED_EDGE('',*,*,#388,.T.);
#527=ORIENTED_EDGE('',*,*,#382,.F.);
#528=ORIENTED_EDGE('',*,*,#373,.F.);
#529=ORIENTED_EDGE('',*,*,#389,.F.);
#530=ORIENTED_EDGE('',*,*,#386,.T.);
#531=ORIENTED_EDGE('',*,*,#390,.F.);
#532=ORIENTED_EDGE('',*,*,#387,.T.);
#533=ORIENTED_EDGE('',*,*,#389,.T.);
#534=ORIENTED_EDGE('',*,*,#380,.F.);
#535=ORIENTED_EDGE('',*,*,#388,.F.);
#536=ORIENTED_EDGE('',*,*,#385,.F.);
#537=ORIENTED_EDGE('',*,*,#383,.F.);
#538=ORIENTED_EDGE('',*,*,#371,.T.);
#539=ORIENTED_EDGE('',*,*,#391,.F.);
#540=ORIENTED_EDGE('',*,*,#392,.F.);
#541=ORIENTED_EDGE('',*,*,#393,.T.);
#542=ORIENTED_EDGE('',*,*,#376,.T.);
#543=ORIENTED_EDGE('',*,*,#377,.T.);
#544=ORIENTED_EDGE('',*,*,#390,.T.);
#545=ORIENTED_EDGE('',*,*,#372,.T.);
#546=ORIENTED_EDGE('',*,*,#393,.F.);
#547=ORIENTED_EDGE('',*,*,#394,.F.);
#548=ORIENTED_EDGE('',*,*,#391,.T.);
#549=ORIENTED_EDGE('',*,*,#392,.T.);
#550=ORIENTED_EDGE('',*,*,#394,.T.);
#551=ORIENTED_EDGE('',*,*,#395,.F.);
#552=ORIENTED_EDGE('',*,*,#395,.T.);
#553=ORIENTED_EDGE('',*,*,#396,.T.);
#554=ORIENTED_EDGE('',*,*,#397,.F.);
#555=ORIENTED_EDGE('',*,*,#396,.F.);
#556=ORIENTED_EDGE('',*,*,#397,.T.);
#557=ORIENTED_EDGE('',*,*,#398,.T.);
#558=ORIENTED_EDGE('',*,*,#399,.T.);
#559=ORIENTED_EDGE('',*,*,#400,.F.);
#560=ORIENTED_EDGE('',*,*,#399,.F.);
#561=ORIENTED_EDGE('',*,*,#400,.T.);
#562=ORIENTED_EDGE('',*,*,#398,.F.);
#563=ORIENTED_EDGE('',*,*,#401,.T.);
#564=ORIENTED_EDGE('',*,*,#402,.T.);
#565=ORIENTED_EDGE('',*,*,#403,.F.);
#566=ORIENTED_EDGE('',*,*,#402,.F.);
#567=ORIENTED_EDGE('',*,*,#403,.T.);
#568=ORIENTED_EDGE('',*,*,#401,.F.);
#569=ORIENTED_EDGE('',*,*,#404,.T.);
#570=ORIENTED_EDGE('',*,*,#405,.T.);
#571=ORIENTED_EDGE('',*,*,#406,.F.);
#572=ORIENTED_EDGE('',*,*,#405,.F.);
#573=ORIENTED_EDGE('',*,*,#406,.T.);
#574=ORIENTED_EDGE('',*,*,#404,.F.);
#575=PLANE('',#670);
#576=PLANE('',#671);
#577=PLANE('',#673);
#578=PLANE('',#674);
#579=PLANE('',#676);
#580=PLANE('',#677);
#581=PLANE('',#678);
#582=PLANE('',#679);
#583=PLANE('',#681);
#584=PLANE('',#682);
#585=PLANE('',#684);
#586=PLANE('',#686);
#587=PLANE('',#687);
#588=PLANE('',#688);
#589=PLANE('',#689);
#590=PLANE('',#690);
#591=PLANE('',#692);
#592=PLANE('',#693);
#593=PLANE('',#694);
#594=PLANE('',#698);
#595=PLANE('',#700);
#596=PLANE('',#701);
#597=PLANE('',#702);
#598=PLANE('',#703);
#599=PLANE('',#704);
#600=PLANE('',#706);
#601=PLANE('',#711);
#602=PLANE('',#715);
#603=PLANE('',#719);
#604=PLANE('',#720);
#605=PLANE('',#724);
#606=PLANE('',#725);
#607=PLANE('',#729);
#608=PLANE('',#730);
#609=ADVANCED_FACE('',(#53),#575,.T.);
#610=ADVANCED_FACE('',(#54),#576,.F.);
#611=ADVANCED_FACE('',(#55),#577,.F.);
#612=ADVANCED_FACE('',(#56),#578,.F.);
#613=ADVANCED_FACE('',(#57),#579,.F.);
#614=ADVANCED_FACE('',(#58),#580,.T.);
#615=ADVANCED_FACE('',(#59),#581,.F.);
#616=ADVANCED_FACE('',(#60),#582,.F.);
#617=ADVANCED_FACE('',(#61),#26,.F.);
#618=ADVANCED_FACE('',(#62),#583,.F.);
#619=ADVANCED_FACE('',(#63),#584,.F.);
#620=ADVANCED_FACE('',(#64),#585,.F.);
#621=ADVANCED_FACE('',(#65),#586,.T.);
#622=ADVANCED_FACE('',(#66),#587,.F.);
#623=ADVANCED_FACE('',(#67),#588,.F.);
#624=ADVANCED_FACE('',(#68),#589,.T.);
#625=ADVANCED_FACE('',(#69),#590,.F.);
#626=ADVANCED_FACE('',(#70),#27,.F.);
#627=ADVANCED_FACE('',(#71),#591,.T.);
#628=ADVANCED_FACE('',(#72),#592,.F.);
#629=ADVANCED_FACE('',(#73),#593,.F.);
#630=ADVANCED_FACE('',(#74),#594,.F.);
#631=ADVANCED_FACE('',(#75),#595,.F.);
#632=ADVANCED_FACE('',(#76),#596,.F.);
#633=ADVANCED_FACE('',(#77),#597,.F.);
#634=ADVANCED_FACE('',(#78),#598,.F.);
#635=ADVANCED_FACE('',(#79),#599,.F.);
#636=ADVANCED_FACE('',(#80),#600,.T.);
#637=ADVANCED_FACE('',(#81),#28,.T.);
#638=ADVANCED_FACE('',(#82),#29,.T.);
#639=ADVANCED_FACE('',(#83,#13),#601,.T.);
#640=ADVANCED_FACE('',(#84),#30,.T.);
#641=ADVANCED_FACE('',(#85),#602,.T.);
#642=ADVANCED_FACE('',(#86),#31,.T.);
#643=ADVANCED_FACE('',(#87),#603,.T.);
#644=ADVANCED_FACE('',(#88),#604,.F.);
#645=ADVANCED_FACE('',(#89),#32,.T.);
#646=ADVANCED_FACE('',(#90),#605,.T.);
#647=ADVANCED_FACE('',(#91),#606,.F.);
#648=ADVANCED_FACE('',(#92),#33,.T.);
#649=ADVANCED_FACE('',(#93),#607,.T.);
#650=ADVANCED_FACE('',(#94),#608,.F.);
#651=CLOSED_SHELL('',(#609,#610,#611,#612,#613,#614,#615,#616,#617,#618));
#652=CLOSED_SHELL('',(#619,#620,#621,#622,#623,#624,#625,#626,#627,#628));
#653=CLOSED_SHELL('',(#629,#630,#631,#632,#633,#634,#635,#636,#637,#638,
#639,#640,#641));
#654=CLOSED_SHELL('',(#642,#643,#644));
#655=CLOSED_SHELL('',(#645,#646,#647));
#656=CLOSED_SHELL('',(#648,#649,#650));
#657=DERIVED_UNIT_ELEMENT(#659,1.);
#658=DERIVED_UNIT_ELEMENT(#1107,-3.);
#659=(
MASS_UNIT()
NAMED_UNIT(*)
SI_UNIT(.KILO.,.GRAM.)
);
#660=DERIVED_UNIT((#657,#658));
#661=MEASURE_REPRESENTATION_ITEM('density measure',
POSITIVE_RATIO_MEASURE(7850.),#660);
#662=PROPERTY_DEFINITION_REPRESENTATION(#667,#664);
#663=PROPERTY_DEFINITION_REPRESENTATION(#668,#665);
#664=REPRESENTATION('material name',(#666),#1104);
#665=REPRESENTATION('density',(#661),#1104);
#666=DESCRIPTIVE_REPRESENTATION_ITEM('Steel','Steel');
#667=PROPERTY_DEFINITION('material property','material name',#1114);
#668=PROPERTY_DEFINITION('material property','density of part',#1114);
#669=AXIS2_PLACEMENT_3D('',#920,#731,#732);
#670=AXIS2_PLACEMENT_3D('',#921,#733,#734);
#671=AXIS2_PLACEMENT_3D('',#930,#739,#740);
#672=AXIS2_PLACEMENT_3D('',#934,#742,#743);
#673=AXIS2_PLACEMENT_3D('',#944,#749,#750);
#674=AXIS2_PLACEMENT_3D('',#948,#753,#754);
#675=AXIS2_PLACEMENT_3D('',#951,#755,#756);
#676=AXIS2_PLACEMENT_3D('',#960,#762,#763);
#677=AXIS2_PLACEMENT_3D('',#963,#766,#767);
#678=AXIS2_PLACEMENT_3D('',#965,#769,#770);
#679=AXIS2_PLACEMENT_3D('',#966,#771,#772);
#680=AXIS2_PLACEMENT_3D('',#968,#774,#775);
#681=AXIS2_PLACEMENT_3D('',#970,#777,#778);
#682=AXIS2_PLACEMENT_3D('',#971,#779,#780);
#683=AXIS2_PLACEMENT_3D('',#976,#782,#783);
#684=AXIS2_PLACEMENT_3D('',#988,#790,#791);
#685=AXIS2_PLACEMENT_3D('',#1004,#799,#800);
#686=AXIS2_PLACEMENT_3D('',#1005,#801,#802);
#687=AXIS2_PLACEMENT_3D('',#1008,#805,#806);
#688=AXIS2_PLACEMENT_3D('',#1011,#809,#810);
#689=AXIS2_PLACEMENT_3D('',#1013,#812,#813);
#690=AXIS2_PLACEMENT_3D('',#1015,#815,#816);
#691=AXIS2_PLACEMENT_3D('',#1016,#817,#818);
#692=AXIS2_PLACEMENT_3D('',#1019,#821,#822);
#693=AXIS2_PLACEMENT_3D('',#1020,#823,#824);
#694=AXIS2_PLACEMENT_3D('',#1021,#825,#826);
#695=AXIS2_PLACEMENT_3D('',#1024,#827,#828);
#696=AXIS2_PLACEMENT_3D('',#1026,#829,#830);
#697=AXIS2_PLACEMENT_3D('',#1033,#834,#835);
#698=AXIS2_PLACEMENT_3D('',#1034,#836,#837);
#699=AXIS2_PLACEMENT_3D('',#1036,#838,#839);
#700=AXIS2_PLACEMENT_3D('',#1040,#842,#843);
#701=AXIS2_PLACEMENT_3D('',#1046,#847,#848);
#702=AXIS2_PLACEMENT_3D('',#1050,#851,#852);
#703=AXIS2_PLACEMENT_3D('',#1056,#856,#857);
#704=AXIS2_PLACEMENT_3D('',#1059,#860,#861);
#705=AXIS2_PLACEMENT_3D('',#1060,#862,#863);
#706=AXIS2_PLACEMENT_3D('',#1061,#864,#865);
#707=AXIS2_PLACEMENT_3D('',#1062,#866,#867);
#708=AXIS2_PLACEMENT_3D('',#1066,#869,#870);
#709=AXIS2_PLACEMENT_3D('',#1068,#872,#873);
#710=AXIS2_PLACEMENT_3D('',#1069,#874,#875);
#711=AXIS2_PLACEMENT_3D('',#1070,#876,#877);
#712=AXIS2_PLACEMENT_3D('',#1072,#878,#879);
#713=AXIS2_PLACEMENT_3D('',#1073,#880,#881);
#714=AXIS2_PLACEMENT_3D('',#1076,#883,#884);
#715=AXIS2_PLACEMENT_3D('',#1077,#885,#886);
#716=AXIS2_PLACEMENT_3D('',#1078,#887,#888);
#717=AXIS2_PLACEMENT_3D('',#1080,#889,#890);
#718=AXIS2_PLACEMENT_3D('',#1083,#892,#893);
#719=AXIS2_PLACEMENT_3D('',#1084,#894,#895);
#720=AXIS2_PLACEMENT_3D('',#1085,#896,#897);
#721=AXIS2_PLACEMENT_3D('',#1086,#898,#899);
#722=AXIS2_PLACEMENT_3D('',#1088,#900,#901);
#723=AXIS2_PLACEMENT_3D('',#1091,#903,#904);
#724=AXIS2_PLACEMENT_3D('',#1092,#905,#906);
#725=AXIS2_PLACEMENT_3D('',#1093,#907,#908);
#726=AXIS2_PLACEMENT_3D('',#1094,#909,#910);
#727=AXIS2_PLACEMENT_3D('',#1096,#911,#912);
#728=AXIS2_PLACEMENT_3D('',#1099,#914,#915);
#729=AXIS2_PLACEMENT_3D('',#1100,#916,#917);
#730=AXIS2_PLACEMENT_3D('',#1101,#918,#919);
#731=DIRECTION('axis',(0.,0.,1.));
#732=DIRECTION('refdir',(1.,0.,0.));
#733=DIRECTION('center_axis',(-1.,0.,0.));
#734=DIRECTION('ref_axis',(0.,0.,1.));
#735=DIRECTION('',(0.,1.,0.));
#736=DIRECTION('',(0.,0.,-1.));
#737=DIRECTION('',(0.,-1.,0.));
#738=DIRECTION('',(0.,0.,1.));
#739=DIRECTION('center_axis',(0.,-1.,0.));
#740=DIRECTION('ref_axis',(0.,0.,-1.));
#741=DIRECTION('',(-1.,0.,0.));
#742=DIRECTION('center_axis',(0.,1.,0.));
#743=DIRECTION('ref_axis',(0.,0.,1.));
#744=DIRECTION('',(1.,0.,0.));
#745=DIRECTION('',(0.,0.,-1.));
#746=DIRECTION('',(1.,0.,0.));
#747=DIRECTION('',(0.,0.,-1.));
#748=DIRECTION('',(1.,0.,0.));
#749=DIRECTION('center_axis',(0.,0.,1.));
#750=DIRECTION('ref_axis',(1.,0.,0.));
#751=DIRECTION('',(0.,-1.,0.));
#752=DIRECTION('',(1.,0.,0.));
#753=DIRECTION('center_axis',(0.,1.,0.));
#754=DIRECTION('ref_axis',(0.,0.,1.));
#755=DIRECTION('center_axis',(0.,1.,0.));
#756=DIRECTION('ref_axis',(0.,0.,1.));
#757=DIRECTION('',(1.,0.,0.));
#758=DIRECTION('',(0.,0.,1.));
#759=DIRECTION('',(1.,0.,0.));
#760=DIRECTION('',(0.,0.,1.));
#761=DIRECTION('',(-1.,0.,0.));
#762=DIRECTION('center_axis',(0.,0.,-1.));
#763=DIRECTION('ref_axis',(-1.,0.,0.));
#764=DIRECTION('',(0.,1.,0.));
#765=DIRECTION('',(0.,1.,0.));
#766=DIRECTION('center_axis',(-1.,0.,0.));
#767=DIRECTION('ref_axis',(0.,0.,1.));
#768=DIRECTION('',(0.,1.,0.));
#769=DIRECTION('center_axis',(-1.,0.,0.));
#770=DIRECTION('ref_axis',(0.,0.,1.));
#771=DIRECTION('center_axis',(0.,0.,-1.));
#772=DIRECTION('ref_axis',(-1.,0.,0.));
#773=DIRECTION('',(0.,1.,0.));
#774=DIRECTION('center_axis',(0.,1.,0.));
#775=DIRECTION('ref_axis',(1.,0.,6.12323399573676E-17));
#776=DIRECTION('',(0.,1.,0.));
#777=DIRECTION('center_axis',(0.,0.,1.));
#778=DIRECTION('ref_axis',(1.,0.,0.));
#779=DIRECTION('center_axis',(0.,1.,0.));
#780=DIRECTION('ref_axis',(0.,0.,1.));
#781=DIRECTION('',(-1.,0.,0.));
#782=DIRECTION('center_axis',(0.,1.,0.));
#783=DIRECTION('ref_axis',(0.,0.,1.));
#784=DIRECTION('',(-1.,0.,8.33583203570034E-17));
#785=DIRECTION('',(0.,0.,-1.));
#786=DIRECTION('',(-1.,0.,0.));
#787=DIRECTION('',(0.,0.,-1.));
#788=DIRECTION('',(-1.,0.,0.));
#789=DIRECTION('',(0.,0.,-1.));
#790=DIRECTION('center_axis',(0.,-1.,0.));
#791=DIRECTION('ref_axis',(0.,0.,-1.));
#792=DIRECTION('',(1.,0.,0.));
#793=DIRECTION('',(0.,0.,1.));
#794=DIRECTION('',(-1.,0.,0.));
#795=DIRECTION('',(0.,0.,1.));
#796=DIRECTION('',(-1.,0.,0.));
#797=DIRECTION('',(0.,0.,1.));
#798=DIRECTION('',(1.,0.,-8.33583203570034E-17));
#799=DIRECTION('center_axis',(0.,1.,0.));
#800=DIRECTION('ref_axis',(0.,0.,1.));
#801=DIRECTION('center_axis',(1.,0.,0.));
#802=DIRECTION('ref_axis',(0.,0.,-1.));
#803=DIRECTION('',(0.,1.,0.));
#804=DIRECTION('',(0.,1.,0.));
#805=DIRECTION('center_axis',(0.,0.,-1.));
#806=DIRECTION('ref_axis',(-1.,0.,0.));
#807=DIRECTION('',(0.,-1.,0.));
#808=DIRECTION('',(0.,-1.,0.));
#809=DIRECTION('center_axis',(0.,0.,1.));
#810=DIRECTION('ref_axis',(1.,0.,0.));
#811=DIRECTION('',(0.,1.,0.));
#812=DIRECTION('center_axis',(1.,0.,0.));
#813=DIRECTION('ref_axis',(0.,0.,-1.));
#814=DIRECTION('',(0.,1.,0.));
#815=DIRECTION('center_axis',(1.,0.,0.));
#816=DIRECTION('ref_axis',(0.,0.,-1.));
#817=DIRECTION('center_axis',(0.,1.,0.));
#818=DIRECTION('ref_axis',(-1.,0.,-1.83697019872103E-16));
#819=DIRECTION('',(0.,1.,0.));
#820=DIRECTION('',(0.,1.,0.));
#821=DIRECTION('center_axis',(0.,0.,1.));
#822=DIRECTION('ref_axis',(1.,0.,0.));
#823=DIRECTION('center_axis',(6.51236877789089E-17,0.,1.));
#824=DIRECTION('ref_axis',(1.,0.,-6.51236877789089E-17));
#825=DIRECTION('center_axis',(0.,-1.,0.));
#826=DIRECTION('ref_axis',(0.,0.,-1.));
#827=DIRECTION('center_axis',(0.,1.,0.));
#828=DIRECTION('ref_axis',(0.,0.,1.));
#829=DIRECTION('center_axis',(0.,1.,0.));
#830=DIRECTION('ref_axis',(0.,0.,1.));
#831=DIRECTION('',(1.,0.,0.));
#832=DIRECTION('',(0.,0.,-1.));
#833=DIRECTION('',(-1.,0.,0.));
#834=DIRECTION('center_axis',(0.,1.,0.));
#835=DIRECTION('ref_axis',(0.,0.,1.));
#836=DIRECTION('center_axis',(0.,-1.,0.));
#837=DIRECTION('ref_axis',(0.,0.,-1.));
#838=DIRECTION('center_axis',(0.,1.,0.));
#839=DIRECTION('ref_axis',(0.,0.,1.));
#840=DIRECTION('',(-1.,0.,0.));
#841=DIRECTION('',(0.,0.,1.));
#842=DIRECTION('center_axis',(-1.,0.,0.));
#843=DIRECTION('ref_axis',(0.,0.,1.));
#844=DIRECTION('',(0.,0.,-1.));
#845=DIRECTION('',(0.,-1.,0.));
#846=DIRECTION('',(0.,-1.,0.));
#847=DIRECTION('center_axis',(0.,0.,1.));
#848=DIRECTION('ref_axis',(1.,0.,0.));
#849=DIRECTION('',(-1.,0.,0.));
#850=DIRECTION('',(0.,-1.,0.));
#851=DIRECTION('center_axis',(1.,0.,0.));
#852=DIRECTION('ref_axis',(0.,0.,-1.));
#853=DIRECTION('',(0.,0.,1.));
#854=DIRECTION('',(0.,-1.,0.));
#855=DIRECTION('',(0.,0.,1.));
#856=DIRECTION('center_axis',(0.,0.,-1.));
#857=DIRECTION('ref_axis',(-1.,0.,0.));
#858=DIRECTION('',(1.,0.,0.));
#859=DIRECTION('',(1.,0.,0.));
#860=DIRECTION('center_axis',(0.,-1.,0.));
#861=DIRECTION('ref_axis',(0.,0.,-1.));
#862=DIRECTION('center_axis',(0.,1.,0.));
#863=DIRECTION('ref_axis',(0.,0.,1.));
#864=DIRECTION('center_axis',(0.,-1.,0.));
#865=DIRECTION('ref_axis',(0.,0.,-1.));
#866=DIRECTION('center_axis',(0.,-1.,0.));
#867=DIRECTION('ref_axis',(1.,0.,-2.83276944882399E-16));
#868=DIRECTION('',(0.,-1.,0.));
#869=DIRECTION('center_axis',(0.,1.,0.));
#870=DIRECTION('ref_axis',(0.,0.,1.));
#871=DIRECTION('',(0.,-1.,0.));
#872=DIRECTION('center_axis',(0.,-1.,0.));
#873=DIRECTION('ref_axis',(-1.,0.,-6.12323399573676E-17));
#874=DIRECTION('center_axis',(0.,1.,0.));
#875=DIRECTION('ref_axis',(0.,0.,1.));
#876=DIRECTION('center_axis',(0.,1.,0.));
#877=DIRECTION('ref_axis',(0.,0.,1.));
#878=DIRECTION('center_axis',(0.,1.,0.));
#879=DIRECTION('ref_axis',(0.,0.,1.));
#880=DIRECTION('center_axis',(0.,-1.,0.));
#881=DIRECTION('ref_axis',(0.,0.,-1.));
#882=DIRECTION('',(0.,1.,0.));
#883=DIRECTION('center_axis',(0.,1.,0.));
#884=DIRECTION('ref_axis',(0.,0.,1.));
#885=DIRECTION('center_axis',(0.,1.,0.));
#886=DIRECTION('ref_axis',(0.,0.,1.));
#887=DIRECTION('center_axis',(1.,0.,0.));
#888=DIRECTION('ref_axis',(0.,0.,-1.));
#889=DIRECTION('center_axis',(-1.,0.,0.));
#890=DIRECTION('ref_axis',(0.,0.,1.));
#891=DIRECTION('',(-1.,0.,0.));
#892=DIRECTION('center_axis',(-1.,0.,0.));
#893=DIRECTION('ref_axis',(0.,0.,1.));
#894=DIRECTION('center_axis',(-1.,0.,0.));
#895=DIRECTION('ref_axis',(0.,0.,1.));
#896=DIRECTION('center_axis',(-1.,0.,0.));
#897=DIRECTION('ref_axis',(0.,0.,1.));
#898=DIRECTION('center_axis',(1.,0.,0.));
#899=DIRECTION('ref_axis',(0.,0.,-1.));
#900=DIRECTION('center_axis',(-1.,0.,0.));
#901=DIRECTION('ref_axis',(0.,0.,1.));
#902=DIRECTION('',(-1.,0.,0.));
#903=DIRECTION('center_axis',(-1.,0.,0.));
#904=DIRECTION('ref_axis',(0.,0.,1.));
#905=DIRECTION('center_axis',(-1.,0.,0.));
#906=DIRECTION('ref_axis',(0.,0.,1.));
#907=DIRECTION('center_axis',(-1.,0.,0.));
#908=DIRECTION('ref_axis',(0.,0.,1.));
#909=DIRECTION('center_axis',(1.,0.,0.));
#910=DIRECTION('ref_axis',(0.,0.,-1.));
#911=DIRECTION('center_axis',(-1.,0.,0.));
#912=DIRECTION('ref_axis',(0.,0.,1.));
#913=DIRECTION('',(-1.,0.,0.));
#914=DIRECTION('center_axis',(-1.,0.,0.));
#915=DIRECTION('ref_axis',(0.,0.,1.));
#916=DIRECTION('center_axis',(-1.,0.,0.));
#917=DIRECTION('ref_axis',(0.,0.,1.));
#918=DIRECTION('center_axis',(-1.,0.,0.));
#919=DIRECTION('ref_axis',(0.,0.,1.));
#920=CARTESIAN_POINT('',(0.,0.,0.));
#921=CARTESIAN_POINT('Origin',(-16.3,0.,0.));
#922=CARTESIAN_POINT('',(-16.3,15.65,-0.55));
#923=CARTESIAN_POINT('',(-16.3,18.05,-0.55));
#924=CARTESIAN_POINT('',(-16.3,15.65,-0.55));
#925=CARTESIAN_POINT('',(-16.3,18.05,-6.2));
#926=CARTESIAN_POINT('',(-16.3,18.05,-0.549999999999998));
#927=CARTESIAN_POINT('',(-16.3,15.65,-6.2));
#928=CARTESIAN_POINT('',(-16.3,18.05,-6.2));
#929=CARTESIAN_POINT('',(-16.3,15.65,-6.2));
#930=CARTESIAN_POINT('Origin',(-16.3,18.05,6.2));
#931=CARTESIAN_POINT('',(-14.6351646544245,18.05,-0.55));
#932=CARTESIAN_POINT('',(-14.6351646544245,18.05,-0.55));
#933=CARTESIAN_POINT('',(-14.6351646544245,18.05,0.55));
#934=CARTESIAN_POINT('Origin',(-13.8,18.05,0.));
#935=CARTESIAN_POINT('',(-16.3,18.05,0.55));
#936=CARTESIAN_POINT('',(-16.3,18.05,0.55));
#937=CARTESIAN_POINT('',(-16.3,18.05,6.2));
#938=CARTESIAN_POINT('',(-16.3,18.05,6.2));
#939=CARTESIAN_POINT('',(-11.3,18.05,6.2));
#940=CARTESIAN_POINT('',(-16.3,18.05,6.2));
#941=CARTESIAN_POINT('',(-11.3,18.05,-6.2));
#942=CARTESIAN_POINT('',(-11.3,18.05,6.2));
#943=CARTESIAN_POINT('',(-16.3,18.05,-6.2));
#944=CARTESIAN_POINT('Origin',(-16.3,18.05,-6.2));
#945=CARTESIAN_POINT('',(-11.3,15.65,-6.2));
#946=CARTESIAN_POINT('',(-11.3,18.05,-6.2));
#947=CARTESIAN_POINT('',(-16.3,15.65,-6.2));
#948=CARTESIAN_POINT('Origin',(-16.3,15.65,-6.2));
#949=CARTESIAN_POINT('',(-14.6351646544245,15.65,-0.55));
#950=CARTESIAN_POINT('',(-14.6351646544245,15.65,0.55));
#951=CARTESIAN_POINT('Origin',(-13.8,15.65,0.));
#952=CARTESIAN_POINT('',(-16.3,15.65,-0.55));
#953=CARTESIAN_POINT('',(-11.3,15.65,6.2));
#954=CARTESIAN_POINT('',(-11.3,15.65,-6.2));
#955=CARTESIAN_POINT('',(-16.3,15.65,6.2));
#956=CARTESIAN_POINT('',(-16.3,15.65,6.2));
#957=CARTESIAN_POINT('',(-16.3,15.65,0.549999999999997));
#958=CARTESIAN_POINT('',(-16.3,15.65,0.549999999999995));
#959=CARTESIAN_POINT('',(-14.6351646544245,15.65,0.55));
#960=CARTESIAN_POINT('Origin',(-16.3,15.65,6.2));
#961=CARTESIAN_POINT('',(-11.3,15.65,6.2));
#962=CARTESIAN_POINT('',(-16.3,15.65,6.2));
#963=CARTESIAN_POINT('Origin',(-16.3,0.,0.));
#964=CARTESIAN_POINT('',(-16.3,15.65,0.55));
#965=CARTESIAN_POINT('Origin',(-11.3,0.,0.));
#966=CARTESIAN_POINT('Origin',(-16.3,-0.001000000000001,-0.55));
#967=CARTESIAN_POINT('',(-14.6351646544245,15.65,-0.55));
#968=CARTESIAN_POINT('Origin',(-13.8,-0.001000000000001,0.));
#969=CARTESIAN_POINT('',(-14.6351646544245,15.65,0.55));
#970=CARTESIAN_POINT('Origin',(-16.3,-0.001000000000001,0.55));
#971=CARTESIAN_POINT('Origin',(16.3,15.65,6.2));
#972=CARTESIAN_POINT('',(16.3,15.65,-0.55));
#973=CARTESIAN_POINT('',(14.6351646544245,15.65,-0.55));
#974=CARTESIAN_POINT('',(16.3,15.65,-0.55));
#975=CARTESIAN_POINT('',(14.6351646544245,15.65,0.55));
#976=CARTESIAN_POINT('Origin',(13.8,15.65,0.));
#977=CARTESIAN_POINT('',(16.3,15.65,0.55));
#978=CARTESIAN_POINT('',(16.3,15.65,0.55));
#979=CARTESIAN_POINT('',(16.3,15.65,6.2));
#980=CARTESIAN_POINT('',(16.3,15.65,6.2));
#981=CARTESIAN_POINT('',(11.3,15.65,6.2));
#982=CARTESIAN_POINT('',(16.3,15.65,6.2));
#983=CARTESIAN_POINT('',(11.3,15.65,-6.2));
#984=CARTESIAN_POINT('',(11.3,15.65,6.2));
#985=CARTESIAN_POINT('',(16.3,15.65,-6.2));
#986=CARTESIAN_POINT('',(16.3,15.65,-6.2));
#987=CARTESIAN_POINT('',(16.3,15.65,-0.549999999999998));
#988=CARTESIAN_POINT('Origin',(16.3,18.05,6.2));
#989=CARTESIAN_POINT('',(14.6351646544245,18.05,-0.55));
#990=CARTESIAN_POINT('',(16.3,18.05,-0.55));
#991=CARTESIAN_POINT('',(14.6351646544245,18.05,-0.55));
#992=CARTESIAN_POINT('',(16.3,18.05,-6.2));
#993=CARTESIAN_POINT('',(16.3,18.05,-6.2));
#994=CARTESIAN_POINT('',(11.3,18.05,-6.2));
#995=CARTESIAN_POINT('',(16.3,18.05,-6.2));
#996=CARTESIAN_POINT('',(11.3,18.05,6.2));
#997=CARTESIAN_POINT('',(11.3,18.05,-6.2));
#998=CARTESIAN_POINT('',(16.3,18.05,6.2));
#999=CARTESIAN_POINT('',(16.3,18.05,6.2));
#1000=CARTESIAN_POINT('',(16.3,18.05,0.550000000000002));
#1001=CARTESIAN_POINT('',(16.3,18.05,0.550000000000004));
#1002=CARTESIAN_POINT('',(14.6351646544245,18.05,0.55));
#1003=CARTESIAN_POINT('',(14.6351646544245,18.05,0.55));
#1004=CARTESIAN_POINT('Origin',(13.8,18.05,0.));
#1005=CARTESIAN_POINT('Origin',(16.3,0.,0.));
#1006=CARTESIAN_POINT('',(16.3,15.65,-0.55));
#1007=CARTESIAN_POINT('',(16.3,15.65,-6.2));
#1008=CARTESIAN_POINT('Origin',(16.3,18.05,6.2));
#1009=CARTESIAN_POINT('',(11.3,18.05,6.2));
#1010=CARTESIAN_POINT('',(16.3,18.05,6.2));
#1011=CARTESIAN_POINT('Origin',(16.3,18.05,-6.2));
#1012=CARTESIAN_POINT('',(11.3,15.65,-6.2));
#1013=CARTESIAN_POINT('Origin',(16.3,0.,0.));
#1014=CARTESIAN_POINT('',(16.3,15.65,0.55));
#1015=CARTESIAN_POINT('Origin',(11.3,0.,0.));
#1016=CARTESIAN_POINT('Origin',(13.8,-0.001000000000001,0.));
#1017=CARTESIAN_POINT('',(14.6351646544245,15.65,-0.55));
#1018=CARTESIAN_POINT('',(14.6351646544245,15.65,0.55));
#1019=CARTESIAN_POINT('Origin',(14.6351646544245,-0.001000000000001,-0.55));
#1020=CARTESIAN_POINT('Origin',(14.6351646544245,-0.001000000000001,0.55));
#1021=CARTESIAN_POINT('Origin',(0.,22.3,0.));
#1022=CARTESIAN_POINT('',(0.966666666666667,22.3,1.27888840621673));
#1023=CARTESIAN_POINT('',(0.966666666666667,22.3,-1.27888840621673));
#1024=CARTESIAN_POINT('Origin',(1.2,22.3,0.));
#1025=CARTESIAN_POINT('',(-5.1,22.3,6.2));
#1026=CARTESIAN_POINT('Origin',(-5.1,22.3,0.));
#1027=CARTESIAN_POINT('',(11.3,22.3,6.2));
#1028=CARTESIAN_POINT('',(-5.1,22.3,6.2));
#1029=CARTESIAN_POINT('',(11.3,22.3,-6.2));
#1030=CARTESIAN_POINT('',(11.3,22.3,6.2));
#1031=CARTESIAN_POINT('',(-5.1,22.3,-6.2));
#1032=CARTESIAN_POINT('',(11.3,22.3,-6.2));
#1033=CARTESIAN_POINT('Origin',(-5.1,22.3,0.));
#1034=CARTESIAN_POINT('Origin',(0.,22.3,0.));
#1035=CARTESIAN_POINT('',(-11.3,22.3,0.));
#1036=CARTESIAN_POINT('Origin',(-5.1,22.3,0.));
#1037=CARTESIAN_POINT('',(-11.3,22.3,-6.2));
#1038=CARTESIAN_POINT('',(-5.1,22.3,-6.2));
#1039=CARTESIAN_POINT('',(-11.3,22.3,-6.2));
#1040=CARTESIAN_POINT('Origin',(11.3,22.3,6.2));
#1041=CARTESIAN_POINT('',(11.3,0.,6.2));
#1042=CARTESIAN_POINT('',(11.3,0.,-6.2));
#1043=CARTESIAN_POINT('',(11.3,0.,6.2));
#1044=CARTESIAN_POINT('',(11.3,22.3,-6.2));
#1045=CARTESIAN_POINT('',(11.3,22.3,6.2));
#1046=CARTESIAN_POINT('Origin',(-11.3,22.3,-6.2));
#1047=CARTESIAN_POINT('',(-11.3,0.,-6.2));
#1048=CARTESIAN_POINT('',(11.3,0.,-6.2));
#1049=CARTESIAN_POINT('',(-11.3,22.3,-6.2));
#1050=CARTESIAN_POINT('Origin',(-11.3,22.3,6.2));
#1051=CARTESIAN_POINT('',(-11.3,0.,6.2));
#1052=CARTESIAN_POINT('',(-11.3,0.,-6.2));
#1053=CARTESIAN_POINT('',(-11.3,22.3,6.2));
#1054=CARTESIAN_POINT('',(-11.3,22.3,6.2));
#1055=CARTESIAN_POINT('',(-11.3,22.3,1.73472347597681E-15));
#1056=CARTESIAN_POINT('Origin',(-11.3,22.3,6.2));
#1057=CARTESIAN_POINT('',(-11.3,0.,6.2));
#1058=CARTESIAN_POINT('',(-11.3,22.3,6.2));
#1059=CARTESIAN_POINT('Origin',(0.,22.3,0.));
#1060=CARTESIAN_POINT('Origin',(-5.1,22.3,0.));
#1061=CARTESIAN_POINT('Origin',(0.,0.,0.));
#1062=CARTESIAN_POINT('Origin',(1.2,26.6,0.));
#1063=CARTESIAN_POINT('',(0.966666666666667,26.6,-1.27888840621673));
#1064=CARTESIAN_POINT('',(0.966666666666667,26.6,-1.27888840621673));
#1065=CARTESIAN_POINT('',(0.966666666666667,26.6,1.27888840621673));
#1066=CARTESIAN_POINT('Origin',(1.2,26.6,0.));
#1067=CARTESIAN_POINT('',(0.966666666666667,26.6,1.27888840621673));
#1068=CARTESIAN_POINT('Origin',(-5.1,26.6,0.));
#1069=CARTESIAN_POINT('Origin',(-5.1,26.6,0.));
#1070=CARTESIAN_POINT('Origin',(0.,26.6,0.));
#1071=CARTESIAN_POINT('',(-5.1,26.6,2.5));
#1072=CARTESIAN_POINT('Origin',(-5.1,26.6,0.));
#1073=CARTESIAN_POINT('Origin',(-5.1,29.9,0.));
#1074=CARTESIAN_POINT('',(-5.1,29.9,2.5));
#1075=CARTESIAN_POINT('',(-5.1,29.9,2.5));
#1076=CARTESIAN_POINT('Origin',(-5.1,29.9,0.));
#1077=CARTESIAN_POINT('Origin',(-5.1,29.9,0.));
#1078=CARTESIAN_POINT('Origin',(-13.6,4.5,-8.67361737988404E-16));
#1079=CARTESIAN_POINT('',(-11.3,4.5,0.599999999999999));
#1080=CARTESIAN_POINT('Origin',(-11.3,4.5,-8.67361737988404E-16));
#1081=CARTESIAN_POINT('',(-13.6,4.5,0.599999999999999));
#1082=CARTESIAN_POINT('',(-13.6,4.5,0.599999999999999));
#1083=CARTESIAN_POINT('Origin',(-13.6,4.5,-8.67361737988404E-16));
#1084=CARTESIAN_POINT('Origin',(-13.6,0.,0.));
#1085=CARTESIAN_POINT('Origin',(-11.3,0.,0.));
#1086=CARTESIAN_POINT('Origin',(-13.6,4.5,-1.2));
#1087=CARTESIAN_POINT('',(-11.3,4.5,-0.600000000000001));
#1088=CARTESIAN_POINT('Origin',(-11.3,4.5,-1.2));
#1089=CARTESIAN_POINT('',(-13.6,4.5,-0.600000000000001));
#1090=CARTESIAN_POINT('',(-13.6,4.5,-0.600000000000001));
#1091=CARTESIAN_POINT('Origin',(-13.6,4.5,-1.2));
#1092=CARTESIAN_POINT('Origin',(-13.6,0.,0.));
#1093=CARTESIAN_POINT('Origin',(-11.3,0.,0.));
#1094=CARTESIAN_POINT('Origin',(-13.6,4.5,1.2));
#1095=CARTESIAN_POINT('',(-11.3,4.5,1.8));
#1096=CARTESIAN_POINT('Origin',(-11.3,4.5,1.2));
#1097=CARTESIAN_POINT('',(-13.6,4.5,1.8));
#1098=CARTESIAN_POINT('',(-13.6,4.5,1.8));
#1099=CARTESIAN_POINT('Origin',(-13.6,4.5,1.2));
#1100=CARTESIAN_POINT('Origin',(-13.6,0.,0.));
#1101=CARTESIAN_POINT('Origin',(-11.3,0.,0.));
#1102=UNCERTAINTY_MEASURE_WITH_UNIT(LENGTH_MEASURE(0.01),#1106,
'DISTANCE_ACCURACY_VALUE',
'Maximum model space distance between geometric entities at asserted c
onnectivities');
#1103=UNCERTAINTY_MEASURE_WITH_UNIT(LENGTH_MEASURE(0.01),#1106,
'DISTANCE_ACCURACY_VALUE',
'Maximum model space distance between geometric entities at asserted c
onnectivities');
#1104=(
GEOMETRIC_REPRESENTATION_CONTEXT(3)
GLOBAL_UNCERTAINTY_ASSIGNED_CONTEXT((#1102))
GLOBAL_UNIT_ASSIGNED_CONTEXT((#1106,#1108,#1109))
REPRESENTATION_CONTEXT('','3D')
);
#1105=(
GEOMETRIC_REPRESENTATION_CONTEXT(3)
GLOBAL_UNCERTAINTY_ASSIGNED_CONTEXT((#1103))
GLOBAL_UNIT_ASSIGNED_CONTEXT((#1106,#1108,#1109))
REPRESENTATION_CONTEXT('','3D')
);
#1106=(
LENGTH_UNIT()
NAMED_UNIT(*)
SI_UNIT(.MILLI.,.METRE.)
);
#1107=(
LENGTH_UNIT()
NAMED_UNIT(*)
SI_UNIT($,.METRE.)
);
#1108=(
NAMED_UNIT(*)
PLANE_ANGLE_UNIT()
SI_UNIT($,.RADIAN.)
);
#1109=(
NAMED_UNIT(*)
SI_UNIT($,.STERADIAN.)
SOLID_ANGLE_UNIT()
);
#1110=SHAPE_DEFINITION_REPRESENTATION(#1111,#1112);
#1111=PRODUCT_DEFINITION_SHAPE('',$,#1114);
#1112=SHAPE_REPRESENTATION('',(#669),#1104);
#1113=PRODUCT_DEFINITION_CONTEXT('part definition',#1118,'design');
#1114=PRODUCT_DEFINITION('2026-09-15-00-11-31-412',
'Servo_Motor_Micro_9g',#1115,#1113);
#1115=PRODUCT_DEFINITION_FORMATION('',$,#1120);
#1116=PRODUCT_RELATED_PRODUCT_CATEGORY('Servo_Motor_Micro_9g',
'Servo_Motor_Micro_9g',(#1120));
#1117=APPLICATION_PROTOCOL_DEFINITION('international standard',
'automotive_design',2009,#1118);
#1118=APPLICATION_CONTEXT(
'Core Data for Automotive Mechanical Design Process');
#1119=PRODUCT_CONTEXT('part definition',#1118,'mechanical');
#1120=PRODUCT('2026-09-15-00-11-31-412','Servo_Motor_Micro_9g',$,(#1119));
#1121=PRESENTATION_STYLE_ASSIGNMENT((#1126));
#1122=PRESENTATION_STYLE_ASSIGNMENT((#1127));
#1123=PRESENTATION_STYLE_ASSIGNMENT((#1128));
#1124=PRESENTATION_STYLE_ASSIGNMENT((#1129));
#1125=PRESENTATION_STYLE_ASSIGNMENT((#1130));
#1126=SURFACE_STYLE_USAGE(.BOTH.,#1131);
#1127=SURFACE_STYLE_USAGE(.BOTH.,#1132);
#1128=SURFACE_STYLE_USAGE(.BOTH.,#1133);
#1129=SURFACE_STYLE_USAGE(.BOTH.,#1134);
#1130=SURFACE_STYLE_USAGE(.BOTH.,#1135);
#1131=SURFACE_SIDE_STYLE('',(#1136));
#1132=SURFACE_SIDE_STYLE('',(#1137));
#1133=SURFACE_SIDE_STYLE('',(#1138));
#1134=SURFACE_SIDE_STYLE('',(#1139));
#1135=SURFACE_SIDE_STYLE('',(#1140));
#1136=SURFACE_STYLE_FILL_AREA(#1141);
#1137=SURFACE_STYLE_FILL_AREA(#1142);
#1138=SURFACE_STYLE_FILL_AREA(#1143);
#1139=SURFACE_STYLE_FILL_AREA(#1144);
#1140=SURFACE_STYLE_FILL_AREA(#1145);
#1141=FILL_AREA_STYLE('Steel - Satin',(#1146));
#1142=FILL_AREA_STYLE('Aluminum - Anodized Rough (Red)',(#1147));
#1143=FILL_AREA_STYLE('Opaque(158,104,51)',(#1148));
#1144=FILL_AREA_STYLE('Opaque(123,17,17)',(#1149));
#1145=FILL_AREA_STYLE('Opaque(68,68,68)',(#1150));
#1146=FILL_AREA_STYLE_COLOUR('Steel - Satin',#1151);
#1147=FILL_AREA_STYLE_COLOUR('Aluminum - Anodized Rough (Red)',#1152);
#1148=FILL_AREA_STYLE_COLOUR('Opaque(158,104,51)',#1153);
#1149=FILL_AREA_STYLE_COLOUR('Opaque(123,17,17)',#1154);
#1150=FILL_AREA_STYLE_COLOUR('Opaque(68,68,68)',#1155);
#1151=COLOUR_RGB('Steel - Satin',0.627450980392157,0.627450980392157,0.627450980392157);
#1152=COLOUR_RGB('Aluminum - Anodized Rough (Red)',0.854901960784314,0.349019607843137,
0.349019607843137);
#1153=COLOUR_RGB('Opaque(158,104,51)',0.619607843137255,0.407843137254902,
0.2);
#1154=COLOUR_RGB('Opaque(123,17,17)',0.486274509803922,0.0705882352941176,
0.0705882352941176);
#1155=COLOUR_RGB('Opaque(68,68,68)',0.266666666666667,0.266666666666667,
0.266666666666667);
ENDSEC;
END-ISO-10303-21;
