ISO-10303-21;
HEADER;
/* Generated by software containing ST-Developer
 * from STEP Tools, Inc. (www.steptools.com) 
 */

FILE_DESCRIPTION(
/* description */ (''),
/* implementation_level */ '2;1');

FILE_NAME(
/* name */ 'SG90.step',
/* time_stamp */ '2026-08-23T20:19:40+05:30',
/* author */ (''),
/* organization */ (''),
/* preprocessor_version */ 'ST-DEVELOPER v20.1',
/* originating_system */ 'Autodesk Translation Framework v15.8.0.0',
/* authorisation */ '');

FILE_SCHEMA (('AUTOMOTIVE_DESIGN { 1 0 10303 214 3 1 1 }'));
ENDSEC;

DATA;
#10=MECHANICAL_DESIGN_GEOMETRIC_PRESENTATION_REPRESENTATION('',(#13),#665);
#11=SHAPE_REPRESENTATION_RELATIONSHIP('SRR','None',#672,#12);
#12=ADVANCED_BREP_SHAPE_REPRESENTATION('',(#14),#664);
#13=STYLED_ITEM('',(#681),#14);
#14=MANIFOLD_SOLID_BREP('Body1',#398);
#15=FACE_BOUND('',#64,.T.);
#16=FACE_BOUND('',#67,.T.);
#17=FACE_BOUND('',#70,.T.);
#18=FACE_BOUND('',#73,.T.);
#19=FACE_BOUND('',#76,.T.);
#20=PLANE('',#421);
#21=PLANE('',#429);
#22=PLANE('',#430);
#23=PLANE('',#431);
#24=PLANE('',#432);
#25=PLANE('',#433);
#26=PLANE('',#434);
#27=PLANE('',#435);
#28=PLANE('',#436);
#29=PLANE('',#437);
#30=PLANE('',#438);
#31=PLANE('',#439);
#32=PLANE('',#440);
#33=PLANE('',#441);
#34=PLANE('',#442);
#35=PLANE('',#443);
#36=FACE_OUTER_BOUND('',#57,.T.);
#37=FACE_OUTER_BOUND('',#58,.T.);
#38=FACE_OUTER_BOUND('',#59,.T.);
#39=FACE_OUTER_BOUND('',#60,.T.);
#40=FACE_OUTER_BOUND('',#61,.T.);
#41=FACE_OUTER_BOUND('',#62,.T.);
#42=FACE_OUTER_BOUND('',#63,.T.);
#43=FACE_OUTER_BOUND('',#65,.T.);
#44=FACE_OUTER_BOUND('',#66,.T.);
#45=FACE_OUTER_BOUND('',#68,.T.);
#46=FACE_OUTER_BOUND('',#69,.T.);
#47=FACE_OUTER_BOUND('',#71,.T.);
#48=FACE_OUTER_BOUND('',#72,.T.);
#49=FACE_OUTER_BOUND('',#74,.T.);
#50=FACE_OUTER_BOUND('',#75,.T.);
#51=FACE_OUTER_BOUND('',#77,.T.);
#52=FACE_OUTER_BOUND('',#78,.T.);
#53=FACE_OUTER_BOUND('',#79,.T.);
#54=FACE_OUTER_BOUND('',#80,.T.);
#55=FACE_OUTER_BOUND('',#81,.T.);
#56=FACE_OUTER_BOUND('',#82,.T.);
#57=EDGE_LOOP('',(#266,#267,#268,#269));
#58=EDGE_LOOP('',(#270,#271,#272,#273));
#59=EDGE_LOOP('',(#274,#275,#276,#277));
#60=EDGE_LOOP('',(#278));
#61=EDGE_LOOP('',(#279,#280,#281,#282,#283));
#62=EDGE_LOOP('',(#284,#285,#286,#287));
#63=EDGE_LOOP('',(#288,#289));
#64=EDGE_LOOP('',(#290));
#65=EDGE_LOOP('',(#291,#292,#293,#294,#295,#296,#297,#298));
#66=EDGE_LOOP('',(#299,#300,#301,#302));
#67=EDGE_LOOP('',(#303));
#68=EDGE_LOOP('',(#304,#305,#306,#307));
#69=EDGE_LOOP('',(#308,#309,#310,#311));
#70=EDGE_LOOP('',(#312));
#71=EDGE_LOOP('',(#313,#314,#315,#316));
#72=EDGE_LOOP('',(#317,#318,#319,#320));
#73=EDGE_LOOP('',(#321));
#74=EDGE_LOOP('',(#322,#323,#324,#325));
#75=EDGE_LOOP('',(#326,#327,#328,#329));
#76=EDGE_LOOP('',(#330));
#77=EDGE_LOOP('',(#331,#332,#333,#334,#335));
#78=EDGE_LOOP('',(#336,#337,#338,#339));
#79=EDGE_LOOP('',(#340,#341,#342,#343,#344,#345,#346,#347,#348,#349,#350,
#351));
#80=EDGE_LOOP('',(#352,#353,#354,#355));
#81=EDGE_LOOP('',(#356,#357,#358,#359,#360,#361,#362,#363,#364,#365,#366,
#367));
#82=EDGE_LOOP('',(#368,#369,#370,#371));
#83=LINE('',#557,#125);
#84=LINE('',#563,#126);
#85=LINE('',#569,#127);
#86=LINE('',#579,#128);
#87=LINE('',#582,#129);
#88=LINE('',#589,#130);
#89=LINE('',#591,#131);
#90=LINE('',#593,#132);
#91=LINE('',#595,#133);
#92=LINE('',#596,#134);
#93=LINE('',#600,#135);
#94=LINE('',#602,#136);
#95=LINE('',#604,#137);
#96=LINE('',#605,#138);
#97=LINE('',#608,#139);
#98=LINE('',#610,#140);
#99=LINE('',#611,#141);
#100=LINE('',#614,#142);
#101=LINE('',#616,#143);
#102=LINE('',#617,#144);
#103=LINE('',#620,#145);
#104=LINE('',#622,#146);
#105=LINE('',#623,#147);
#106=LINE('',#627,#148);
#107=LINE('',#629,#149);
#108=LINE('',#631,#150);
#109=LINE('',#632,#151);
#110=LINE('',#635,#152);
#111=LINE('',#637,#153);
#112=LINE('',#638,#154);
#113=LINE('',#641,#155);
#114=LINE('',#643,#156);
#115=LINE('',#644,#157);
#116=LINE('',#646,#158);
#117=LINE('',#647,#159);
#118=LINE('',#650,#160);
#119=LINE('',#652,#161);
#120=LINE('',#653,#162);
#121=LINE('',#655,#163);
#122=LINE('',#656,#164);
#123=LINE('',#658,#165);
#124=LINE('',#660,#166);
#125=VECTOR('',#450,1.25);
#126=VECTOR('',#457,1.25);
#127=VECTOR('',#464,2.5);
#128=VECTOR('',#475,10.);
#129=VECTOR('',#478,10.);
#130=VECTOR('',#489,10.);
#131=VECTOR('',#490,10.);
#132=VECTOR('',#491,10.);
#133=VECTOR('',#492,10.);
#134=VECTOR('',#493,10.);
#135=VECTOR('',#496,10.);
#136=VECTOR('',#497,10.);
#137=VECTOR('',#498,10.);
#138=VECTOR('',#499,10.);
#139=VECTOR('',#502,10.);
#140=VECTOR('',#503,10.);
#141=VECTOR('',#504,10.);
#142=VECTOR('',#507,10.);
#143=VECTOR('',#508,10.);
#144=VECTOR('',#509,10.);
#145=VECTOR('',#512,10.);
#146=VECTOR('',#513,10.);
#147=VECTOR('',#514,10.);
#148=VECTOR('',#517,10.);
#149=VECTOR('',#518,10.);
#150=VECTOR('',#519,10.);
#151=VECTOR('',#520,10.);
#152=VECTOR('',#523,10.);
#153=VECTOR('',#524,10.);
#154=VECTOR('',#525,10.);
#155=VECTOR('',#528,10.);
#156=VECTOR('',#529,10.);
#157=VECTOR('',#530,10.);
#158=VECTOR('',#533,10.);
#159=VECTOR('',#534,10.);
#160=VECTOR('',#537,10.);
#161=VECTOR('',#538,10.);
#162=VECTOR('',#539,10.);
#163=VECTOR('',#542,10.);
#164=VECTOR('',#543,10.);
#165=VECTOR('',#546,10.);
#166=VECTOR('',#549,10.);
#167=CIRCLE('',#413,1.25);
#168=CIRCLE('',#414,1.25);
#169=CIRCLE('',#416,1.25);
#170=CIRCLE('',#417,1.25);
#171=CIRCLE('',#419,2.5);
#172=CIRCLE('',#420,2.5);
#173=CIRCLE('',#423,6.);
#174=CIRCLE('',#424,6.);
#175=CIRCLE('',#425,6.);
#176=CIRCLE('',#427,2.5);
#177=CIRCLE('',#428,2.5);
#178=VERTEX_POINT('',#554);
#179=VERTEX_POINT('',#556);
#180=VERTEX_POINT('',#560);
#181=VERTEX_POINT('',#562);
#182=VERTEX_POINT('',#566);
#183=VERTEX_POINT('',#568);
#184=VERTEX_POINT('',#573);
#185=VERTEX_POINT('',#574);
#186=VERTEX_POINT('',#576);
#187=VERTEX_POINT('',#578);
#188=VERTEX_POINT('',#580);
#189=VERTEX_POINT('',#588);
#190=VERTEX_POINT('',#590);
#191=VERTEX_POINT('',#592);
#192=VERTEX_POINT('',#594);
#193=VERTEX_POINT('',#598);
#194=VERTEX_POINT('',#599);
#195=VERTEX_POINT('',#601);
#196=VERTEX_POINT('',#603);
#197=VERTEX_POINT('',#607);
#198=VERTEX_POINT('',#609);
#199=VERTEX_POINT('',#613);
#200=VERTEX_POINT('',#615);
#201=VERTEX_POINT('',#619);
#202=VERTEX_POINT('',#621);
#203=VERTEX_POINT('',#625);
#204=VERTEX_POINT('',#626);
#205=VERTEX_POINT('',#628);
#206=VERTEX_POINT('',#630);
#207=VERTEX_POINT('',#634);
#208=VERTEX_POINT('',#636);
#209=VERTEX_POINT('',#640);
#210=VERTEX_POINT('',#642);
#211=VERTEX_POINT('',#649);
#212=VERTEX_POINT('',#651);
#213=EDGE_CURVE('',#178,#178,#167,.T.);
#214=EDGE_CURVE('',#178,#179,#83,.T.);
#215=EDGE_CURVE('',#179,#179,#168,.T.);
#216=EDGE_CURVE('',#180,#180,#169,.T.);
#217=EDGE_CURVE('',#180,#181,#84,.T.);
#218=EDGE_CURVE('',#181,#181,#170,.T.);
#219=EDGE_CURVE('',#182,#182,#171,.T.);
#220=EDGE_CURVE('',#182,#183,#85,.T.);
#221=EDGE_CURVE('',#183,#183,#172,.T.);
#222=EDGE_CURVE('',#184,#185,#173,.T.);
#223=EDGE_CURVE('',#186,#184,#174,.T.);
#224=EDGE_CURVE('',#186,#187,#86,.T.);
#225=EDGE_CURVE('',#188,#187,#175,.T.);
#226=EDGE_CURVE('',#185,#188,#87,.T.);
#227=EDGE_CURVE('',#185,#186,#176,.T.);
#228=EDGE_CURVE('',#187,#188,#177,.T.);
#229=EDGE_CURVE('',#189,#184,#88,.T.);
#230=EDGE_CURVE('',#184,#190,#89,.T.);
#231=EDGE_CURVE('',#190,#191,#90,.T.);
#232=EDGE_CURVE('',#191,#192,#91,.T.);
#233=EDGE_CURVE('',#192,#189,#92,.T.);
#234=EDGE_CURVE('',#193,#194,#93,.T.);
#235=EDGE_CURVE('',#195,#194,#94,.T.);
#236=EDGE_CURVE('',#196,#195,#95,.T.);
#237=EDGE_CURVE('',#193,#196,#96,.T.);
#238=EDGE_CURVE('',#194,#197,#97,.T.);
#239=EDGE_CURVE('',#198,#197,#98,.T.);
#240=EDGE_CURVE('',#195,#198,#99,.T.);
#241=EDGE_CURVE('',#197,#199,#100,.T.);
#242=EDGE_CURVE('',#200,#199,#101,.T.);
#243=EDGE_CURVE('',#198,#200,#102,.T.);
#244=EDGE_CURVE('',#201,#199,#103,.T.);
#245=EDGE_CURVE('',#201,#202,#104,.T.);
#246=EDGE_CURVE('',#202,#200,#105,.T.);
#247=EDGE_CURVE('',#203,#204,#106,.T.);
#248=EDGE_CURVE('',#205,#204,#107,.T.);
#249=EDGE_CURVE('',#205,#206,#108,.T.);
#250=EDGE_CURVE('',#203,#206,#109,.T.);
#251=EDGE_CURVE('',#204,#207,#110,.T.);
#252=EDGE_CURVE('',#208,#207,#111,.T.);
#253=EDGE_CURVE('',#208,#205,#112,.T.);
#254=EDGE_CURVE('',#207,#209,#113,.T.);
#255=EDGE_CURVE('',#210,#209,#114,.T.);
#256=EDGE_CURVE('',#210,#208,#115,.T.);
#257=EDGE_CURVE('',#209,#190,#116,.T.);
#258=EDGE_CURVE('',#210,#189,#117,.T.);
#259=EDGE_CURVE('',#211,#206,#118,.T.);
#260=EDGE_CURVE('',#211,#212,#119,.T.);
#261=EDGE_CURVE('',#212,#203,#120,.T.);
#262=EDGE_CURVE('',#202,#211,#121,.T.);
#263=EDGE_CURVE('',#196,#192,#122,.T.);
#264=EDGE_CURVE('',#193,#191,#123,.T.);
#265=EDGE_CURVE('',#212,#201,#124,.T.);
#266=ORIENTED_EDGE('',*,*,#213,.F.);
#267=ORIENTED_EDGE('',*,*,#214,.T.);
#268=ORIENTED_EDGE('',*,*,#215,.F.);
#269=ORIENTED_EDGE('',*,*,#214,.F.);
#270=ORIENTED_EDGE('',*,*,#216,.F.);
#271=ORIENTED_EDGE('',*,*,#217,.T.);
#272=ORIENTED_EDGE('',*,*,#218,.F.);
#273=ORIENTED_EDGE('',*,*,#217,.F.);
#274=ORIENTED_EDGE('',*,*,#219,.F.);
#275=ORIENTED_EDGE('',*,*,#220,.T.);
#276=ORIENTED_EDGE('',*,*,#221,.F.);
#277=ORIENTED_EDGE('',*,*,#220,.F.);
#278=ORIENTED_EDGE('',*,*,#219,.T.);
#279=ORIENTED_EDGE('',*,*,#222,.F.);
#280=ORIENTED_EDGE('',*,*,#223,.F.);
#281=ORIENTED_EDGE('',*,*,#224,.T.);
#282=ORIENTED_EDGE('',*,*,#225,.F.);
#283=ORIENTED_EDGE('',*,*,#226,.F.);
#284=ORIENTED_EDGE('',*,*,#227,.F.);
#285=ORIENTED_EDGE('',*,*,#226,.T.);
#286=ORIENTED_EDGE('',*,*,#228,.F.);
#287=ORIENTED_EDGE('',*,*,#224,.F.);
#288=ORIENTED_EDGE('',*,*,#228,.T.);
#289=ORIENTED_EDGE('',*,*,#225,.T.);
#290=ORIENTED_EDGE('',*,*,#221,.T.);
#291=ORIENTED_EDGE('',*,*,#229,.T.);
#292=ORIENTED_EDGE('',*,*,#222,.T.);
#293=ORIENTED_EDGE('',*,*,#227,.T.);
#294=ORIENTED_EDGE('',*,*,#223,.T.);
#295=ORIENTED_EDGE('',*,*,#230,.T.);
#296=ORIENTED_EDGE('',*,*,#231,.T.);
#297=ORIENTED_EDGE('',*,*,#232,.T.);
#298=ORIENTED_EDGE('',*,*,#233,.T.);
#299=ORIENTED_EDGE('',*,*,#234,.T.);
#300=ORIENTED_EDGE('',*,*,#235,.F.);
#301=ORIENTED_EDGE('',*,*,#236,.F.);
#302=ORIENTED_EDGE('',*,*,#237,.F.);
#303=ORIENTED_EDGE('',*,*,#213,.T.);
#304=ORIENTED_EDGE('',*,*,#238,.T.);
#305=ORIENTED_EDGE('',*,*,#239,.F.);
#306=ORIENTED_EDGE('',*,*,#240,.F.);
#307=ORIENTED_EDGE('',*,*,#235,.T.);
#308=ORIENTED_EDGE('',*,*,#241,.T.);
#309=ORIENTED_EDGE('',*,*,#242,.F.);
#310=ORIENTED_EDGE('',*,*,#243,.F.);
#311=ORIENTED_EDGE('',*,*,#239,.T.);
#312=ORIENTED_EDGE('',*,*,#215,.T.);
#313=ORIENTED_EDGE('',*,*,#242,.T.);
#314=ORIENTED_EDGE('',*,*,#244,.F.);
#315=ORIENTED_EDGE('',*,*,#245,.T.);
#316=ORIENTED_EDGE('',*,*,#246,.T.);
#317=ORIENTED_EDGE('',*,*,#247,.T.);
#318=ORIENTED_EDGE('',*,*,#248,.F.);
#319=ORIENTED_EDGE('',*,*,#249,.T.);
#320=ORIENTED_EDGE('',*,*,#250,.F.);
#321=ORIENTED_EDGE('',*,*,#218,.T.);
#322=ORIENTED_EDGE('',*,*,#251,.T.);
#323=ORIENTED_EDGE('',*,*,#252,.F.);
#324=ORIENTED_EDGE('',*,*,#253,.T.);
#325=ORIENTED_EDGE('',*,*,#248,.T.);
#326=ORIENTED_EDGE('',*,*,#254,.T.);
#327=ORIENTED_EDGE('',*,*,#255,.F.);
#328=ORIENTED_EDGE('',*,*,#256,.T.);
#329=ORIENTED_EDGE('',*,*,#252,.T.);
#330=ORIENTED_EDGE('',*,*,#216,.T.);
#331=ORIENTED_EDGE('',*,*,#255,.T.);
#332=ORIENTED_EDGE('',*,*,#257,.T.);
#333=ORIENTED_EDGE('',*,*,#230,.F.);
#334=ORIENTED_EDGE('',*,*,#229,.F.);
#335=ORIENTED_EDGE('',*,*,#258,.F.);
#336=ORIENTED_EDGE('',*,*,#250,.T.);
#337=ORIENTED_EDGE('',*,*,#259,.F.);
#338=ORIENTED_EDGE('',*,*,#260,.T.);
#339=ORIENTED_EDGE('',*,*,#261,.T.);
#340=ORIENTED_EDGE('',*,*,#262,.T.);
#341=ORIENTED_EDGE('',*,*,#259,.T.);
#342=ORIENTED_EDGE('',*,*,#249,.F.);
#343=ORIENTED_EDGE('',*,*,#253,.F.);
#344=ORIENTED_EDGE('',*,*,#256,.F.);
#345=ORIENTED_EDGE('',*,*,#258,.T.);
#346=ORIENTED_EDGE('',*,*,#233,.F.);
#347=ORIENTED_EDGE('',*,*,#263,.F.);
#348=ORIENTED_EDGE('',*,*,#236,.T.);
#349=ORIENTED_EDGE('',*,*,#240,.T.);
#350=ORIENTED_EDGE('',*,*,#243,.T.);
#351=ORIENTED_EDGE('',*,*,#246,.F.);
#352=ORIENTED_EDGE('',*,*,#237,.T.);
#353=ORIENTED_EDGE('',*,*,#263,.T.);
#354=ORIENTED_EDGE('',*,*,#232,.F.);
#355=ORIENTED_EDGE('',*,*,#264,.F.);
#356=ORIENTED_EDGE('',*,*,#265,.T.);
#357=ORIENTED_EDGE('',*,*,#244,.T.);
#358=ORIENTED_EDGE('',*,*,#241,.F.);
#359=ORIENTED_EDGE('',*,*,#238,.F.);
#360=ORIENTED_EDGE('',*,*,#234,.F.);
#361=ORIENTED_EDGE('',*,*,#264,.T.);
#362=ORIENTED_EDGE('',*,*,#231,.F.);
#363=ORIENTED_EDGE('',*,*,#257,.F.);
#364=ORIENTED_EDGE('',*,*,#254,.F.);
#365=ORIENTED_EDGE('',*,*,#251,.F.);
#366=ORIENTED_EDGE('',*,*,#247,.F.);
#367=ORIENTED_EDGE('',*,*,#261,.F.);
#368=ORIENTED_EDGE('',*,*,#260,.F.);
#369=ORIENTED_EDGE('',*,*,#262,.F.);
#370=ORIENTED_EDGE('',*,*,#245,.F.);
#371=ORIENTED_EDGE('',*,*,#265,.F.);
#372=CYLINDRICAL_SURFACE('',#412,1.25);
#373=CYLINDRICAL_SURFACE('',#415,1.25);
#374=CYLINDRICAL_SURFACE('',#418,2.5);
#375=CYLINDRICAL_SURFACE('',#422,6.);
#376=CYLINDRICAL_SURFACE('',#426,2.5);
#377=ADVANCED_FACE('',(#36),#372,.F.);
#378=ADVANCED_FACE('',(#37),#373,.F.);
#379=ADVANCED_FACE('',(#38),#374,.T.);
#380=ADVANCED_FACE('',(#39),#20,.T.);
#381=ADVANCED_FACE('',(#40),#375,.T.);
#382=ADVANCED_FACE('',(#41),#376,.T.);
#383=ADVANCED_FACE('',(#42,#15),#21,.T.);
#384=ADVANCED_FACE('',(#43),#22,.T.);
#385=ADVANCED_FACE('',(#44,#16),#23,.T.);
#386=ADVANCED_FACE('',(#45),#24,.T.);
#387=ADVANCED_FACE('',(#46,#17),#25,.T.);
#388=ADVANCED_FACE('',(#47),#26,.T.);
#389=ADVANCED_FACE('',(#48,#18),#27,.T.);
#390=ADVANCED_FACE('',(#49),#28,.T.);
#391=ADVANCED_FACE('',(#50,#19),#29,.T.);
#392=ADVANCED_FACE('',(#51),#30,.T.);
#393=ADVANCED_FACE('',(#52),#31,.T.);
#394=ADVANCED_FACE('',(#53),#32,.T.);
#395=ADVANCED_FACE('',(#54),#33,.T.);
#396=ADVANCED_FACE('',(#55),#34,.T.);
#397=ADVANCED_FACE('',(#56),#35,.F.);
#398=CLOSED_SHELL('',(#377,#378,#379,#380,#381,#382,#383,#384,#385,#386,
#387,#388,#389,#390,#391,#392,#393,#394,#395,#396,#397));
#399=DERIVED_UNIT_ELEMENT(#401,1.);
#400=DERIVED_UNIT_ELEMENT(#667,-3.);
#401=(
MASS_UNIT()
NAMED_UNIT(*)
SI_UNIT(.KILO.,.GRAM.)
);
#402=DERIVED_UNIT((#399,#400));
#403=MEASURE_REPRESENTATION_ITEM('density measure',
POSITIVE_RATIO_MEASURE(7850.),#402);
#404=PROPERTY_DEFINITION_REPRESENTATION(#409,#406);
#405=PROPERTY_DEFINITION_REPRESENTATION(#410,#407);
#406=REPRESENTATION('material name',(#408),#664);
#407=REPRESENTATION('density',(#403),#664);
#408=DESCRIPTIVE_REPRESENTATION_ITEM('Steel','Steel');
#409=PROPERTY_DEFINITION('material property','material name',#674);
#410=PROPERTY_DEFINITION('material property','density of part',#674);
#411=AXIS2_PLACEMENT_3D('',#552,#444,#445);
#412=AXIS2_PLACEMENT_3D('',#553,#446,#447);
#413=AXIS2_PLACEMENT_3D('',#555,#448,#449);
#414=AXIS2_PLACEMENT_3D('',#558,#451,#452);
#415=AXIS2_PLACEMENT_3D('',#559,#453,#454);
#416=AXIS2_PLACEMENT_3D('',#561,#455,#456);
#417=AXIS2_PLACEMENT_3D('',#564,#458,#459);
#418=AXIS2_PLACEMENT_3D('',#565,#460,#461);
#419=AXIS2_PLACEMENT_3D('',#567,#462,#463);
#420=AXIS2_PLACEMENT_3D('',#570,#465,#466);
#421=AXIS2_PLACEMENT_3D('',#571,#467,#468);
#422=AXIS2_PLACEMENT_3D('',#572,#469,#470);
#423=AXIS2_PLACEMENT_3D('',#575,#471,#472);
#424=AXIS2_PLACEMENT_3D('',#577,#473,#474);
#425=AXIS2_PLACEMENT_3D('',#581,#476,#477);
#426=AXIS2_PLACEMENT_3D('',#583,#479,#480);
#427=AXIS2_PLACEMENT_3D('',#584,#481,#482);
#428=AXIS2_PLACEMENT_3D('',#585,#483,#484);
#429=AXIS2_PLACEMENT_3D('',#586,#485,#486);
#430=AXIS2_PLACEMENT_3D('',#587,#487,#488);
#431=AXIS2_PLACEMENT_3D('',#597,#494,#495);
#432=AXIS2_PLACEMENT_3D('',#606,#500,#501);
#433=AXIS2_PLACEMENT_3D('',#612,#505,#506);
#434=AXIS2_PLACEMENT_3D('',#618,#510,#511);
#435=AXIS2_PLACEMENT_3D('',#624,#515,#516);
#436=AXIS2_PLACEMENT_3D('',#633,#521,#522);
#437=AXIS2_PLACEMENT_3D('',#639,#526,#527);
#438=AXIS2_PLACEMENT_3D('',#645,#531,#532);
#439=AXIS2_PLACEMENT_3D('',#648,#535,#536);
#440=AXIS2_PLACEMENT_3D('',#654,#540,#541);
#441=AXIS2_PLACEMENT_3D('',#657,#544,#545);
#442=AXIS2_PLACEMENT_3D('',#659,#547,#548);
#443=AXIS2_PLACEMENT_3D('',#661,#550,#551);
#444=DIRECTION('axis',(0.,0.,1.));
#445=DIRECTION('refdir',(1.,0.,0.));
#446=DIRECTION('center_axis',(0.,0.,-1.));
#447=DIRECTION('ref_axis',(-1.,0.,0.));
#448=DIRECTION('center_axis',(0.,0.,-1.));
#449=DIRECTION('ref_axis',(-1.,0.,0.));
#450=DIRECTION('',(0.,0.,-1.));
#451=DIRECTION('center_axis',(0.,0.,1.));
#452=DIRECTION('ref_axis',(-1.,0.,0.));
#453=DIRECTION('center_axis',(0.,0.,-1.));
#454=DIRECTION('ref_axis',(-1.,0.,0.));
#455=DIRECTION('center_axis',(0.,0.,-1.));
#456=DIRECTION('ref_axis',(-1.,0.,0.));
#457=DIRECTION('',(0.,0.,-1.));
#458=DIRECTION('center_axis',(0.,0.,1.));
#459=DIRECTION('ref_axis',(-1.,0.,0.));
#460=DIRECTION('center_axis',(0.,0.,1.));
#461=DIRECTION('ref_axis',(-1.,0.,0.));
#462=DIRECTION('center_axis',(0.,0.,1.));
#463=DIRECTION('ref_axis',(-1.,0.,0.));
#464=DIRECTION('',(0.,0.,-1.));
#465=DIRECTION('center_axis',(0.,0.,-1.));
#466=DIRECTION('ref_axis',(-1.,0.,0.));
#467=DIRECTION('center_axis',(0.,0.,1.));
#468=DIRECTION('ref_axis',(-1.,0.,0.));
#469=DIRECTION('center_axis',(0.,0.,1.));
#470=DIRECTION('ref_axis',(1.,-1.22464679914735E-16,0.));
#471=DIRECTION('center_axis',(0.,0.,-1.));
#472=DIRECTION('ref_axis',(-1.,0.,0.));
#473=DIRECTION('center_axis',(0.,0.,-1.));
#474=DIRECTION('ref_axis',(-1.,0.,0.));
#475=DIRECTION('',(0.,0.,1.));
#476=DIRECTION('center_axis',(0.,0.,1.));
#477=DIRECTION('ref_axis',(-1.,0.,0.));
#478=DIRECTION('',(0.,0.,1.));
#479=DIRECTION('center_axis',(0.,0.,1.));
#480=DIRECTION('ref_axis',(-1.,0.,0.));
#481=DIRECTION('center_axis',(0.,0.,-1.));
#482=DIRECTION('ref_axis',(-1.,0.,0.));
#483=DIRECTION('center_axis',(0.,0.,1.));
#484=DIRECTION('ref_axis',(-1.,0.,0.));
#485=DIRECTION('center_axis',(0.,0.,1.));
#486=DIRECTION('ref_axis',(-1.,0.,0.));
#487=DIRECTION('center_axis',(0.,0.,1.));
#488=DIRECTION('ref_axis',(1.,0.,0.));
#489=DIRECTION('',(-1.77635683940025E-16,1.,0.));
#490=DIRECTION('',(-1.77635683940025E-16,1.,0.));
#491=DIRECTION('',(-1.,0.,0.));
#492=DIRECTION('',(0.,-1.,0.));
#493=DIRECTION('',(1.,-4.62592926927149E-17,0.));
#494=DIRECTION('center_axis',(0.,0.,1.));
#495=DIRECTION('ref_axis',(1.,0.,0.));
#496=DIRECTION('',(-1.,0.,0.));
#497=DIRECTION('',(0.,1.,0.));
#498=DIRECTION('',(-1.,0.,0.));
#499=DIRECTION('',(0.,-1.,0.));
#500=DIRECTION('center_axis',(-1.,0.,0.));
#501=DIRECTION('ref_axis',(0.,0.,1.));
#502=DIRECTION('',(0.,0.,-1.));
#503=DIRECTION('',(0.,1.,0.));
#504=DIRECTION('',(0.,0.,-1.));
#505=DIRECTION('center_axis',(0.,0.,-1.));
#506=DIRECTION('ref_axis',(-1.,0.,0.));
#507=DIRECTION('',(1.,0.,0.));
#508=DIRECTION('',(0.,1.,0.));
#509=DIRECTION('',(1.,0.,0.));
#510=DIRECTION('center_axis',(-1.,0.,0.));
#511=DIRECTION('ref_axis',(0.,-1.,0.));
#512=DIRECTION('',(0.,0.,1.));
#513=DIRECTION('',(0.,-1.,0.));
#514=DIRECTION('',(0.,0.,1.));
#515=DIRECTION('center_axis',(0.,0.,-1.));
#516=DIRECTION('ref_axis',(-1.,0.,0.));
#517=DIRECTION('',(1.,0.,0.));
#518=DIRECTION('',(0.,1.,0.));
#519=DIRECTION('',(-1.,0.,0.));
#520=DIRECTION('',(1.77635683940025E-16,-1.,0.));
#521=DIRECTION('center_axis',(1.,0.,0.));
#522=DIRECTION('ref_axis',(0.,0.,-1.));
#523=DIRECTION('',(0.,0.,1.));
#524=DIRECTION('',(0.,1.,0.));
#525=DIRECTION('',(0.,0.,-1.));
#526=DIRECTION('center_axis',(0.,0.,1.));
#527=DIRECTION('ref_axis',(1.,0.,0.));
#528=DIRECTION('',(-1.,0.,0.));
#529=DIRECTION('',(-1.77635683940025E-16,1.,0.));
#530=DIRECTION('',(1.,0.,0.));
#531=DIRECTION('center_axis',(1.,1.77635683940025E-16,0.));
#532=DIRECTION('ref_axis',(-1.77635683940025E-16,1.,0.));
#533=DIRECTION('',(0.,0.,1.));
#534=DIRECTION('',(0.,0.,1.));
#535=DIRECTION('center_axis',(1.,1.77635683940025E-16,0.));
#536=DIRECTION('ref_axis',(-1.77635683940025E-16,1.,0.));
#537=DIRECTION('',(0.,0.,1.));
#538=DIRECTION('',(-1.77635683940025E-16,1.,0.));
#539=DIRECTION('',(0.,0.,1.));
#540=DIRECTION('center_axis',(-4.62592926927149E-17,-1.,0.));
#541=DIRECTION('ref_axis',(1.,-4.62592926927149E-17,0.));
#542=DIRECTION('',(1.,-4.62592926927149E-17,0.));
#543=DIRECTION('',(0.,0.,1.));
#544=DIRECTION('center_axis',(-1.,0.,0.));
#545=DIRECTION('ref_axis',(0.,-1.,0.));
#546=DIRECTION('',(0.,0.,1.));
#547=DIRECTION('center_axis',(0.,1.,0.));
#548=DIRECTION('ref_axis',(-1.,0.,0.));
#549=DIRECTION('',(-1.,0.,0.));
#550=DIRECTION('center_axis',(0.,0.,1.));
#551=DIRECTION('ref_axis',(1.,0.,0.));
#552=CARTESIAN_POINT('',(0.,0.,0.));
#553=CARTESIAN_POINT('Origin',(-14.5,0.,23.));
#554=CARTESIAN_POINT('',(-13.25,1.53080849893419E-16,23.));
#555=CARTESIAN_POINT('Origin',(-14.5,0.,23.));
#556=CARTESIAN_POINT('',(-13.25,1.53080849893419E-16,20.));
#557=CARTESIAN_POINT('',(-13.25,-1.53080849893419E-16,23.));
#558=CARTESIAN_POINT('Origin',(-14.5,0.,20.));
#559=CARTESIAN_POINT('Origin',(14.5,0.,23.));
#560=CARTESIAN_POINT('',(15.75,1.53080849893419E-16,23.));
#561=CARTESIAN_POINT('Origin',(14.5,0.,23.));
#562=CARTESIAN_POINT('',(15.75,1.53080849893419E-16,20.));
#563=CARTESIAN_POINT('',(15.75,-1.53080849893419E-16,23.));
#564=CARTESIAN_POINT('Origin',(14.5,0.,20.));
#565=CARTESIAN_POINT('Origin',(6.,5.32907043879141E-16,30.));
#566=CARTESIAN_POINT('',(8.5,8.39068743665979E-16,34.));
#567=CARTESIAN_POINT('Origin',(6.,5.32907043879141E-16,34.));
#568=CARTESIAN_POINT('',(8.5,8.39068743665979E-16,30.));
#569=CARTESIAN_POINT('',(8.5,8.39068743665979E-16,30.));
#570=CARTESIAN_POINT('Origin',(6.,5.32907043879141E-16,30.));
#571=CARTESIAN_POINT('Origin',(6.,5.55111512312578E-16,34.));
#572=CARTESIAN_POINT('Origin',(6.,5.32907043879141E-16,24.));
#573=CARTESIAN_POINT('',(12.,1.6431300685043E-15,24.));
#574=CARTESIAN_POINT('',(0.46153846153846,-2.30769230769231,24.));
#575=CARTESIAN_POINT('Origin',(6.,5.32907043879141E-16,24.));
#576=CARTESIAN_POINT('',(0.461538461538459,2.30769230769231,24.));
#577=CARTESIAN_POINT('Origin',(6.,5.32907043879141E-16,24.));
#578=CARTESIAN_POINT('',(0.461538461538459,2.30769230769231,30.));
#579=CARTESIAN_POINT('',(0.461538461538459,2.30769230769231,24.));
#580=CARTESIAN_POINT('',(0.46153846153846,-2.30769230769231,30.));
#581=CARTESIAN_POINT('Origin',(6.,5.32907043879141E-16,30.));
#582=CARTESIAN_POINT('',(0.46153846153846,-2.30769230769231,24.));
#583=CARTESIAN_POINT('Origin',(-0.500000000000002,2.18007429174362E-16,
24.));
#584=CARTESIAN_POINT('Origin',(-0.500000000000002,2.18007429174362E-16,
24.));
#585=CARTESIAN_POINT('Origin',(-0.500000000000002,2.18007429174362E-16,
30.));
#586=CARTESIAN_POINT('Origin',(4.5,0.,30.));
#587=CARTESIAN_POINT('Origin',(-2.22044604925031E-15,0.,24.));
#588=CARTESIAN_POINT('',(12.,-6.25,24.));
#589=CARTESIAN_POINT('',(12.,-6.25,24.));
#590=CARTESIAN_POINT('',(12.,6.25,24.));
#591=CARTESIAN_POINT('',(12.,-6.25,24.));
#592=CARTESIAN_POINT('',(-12.,6.25,24.));
#593=CARTESIAN_POINT('',(12.,6.25,24.));
#594=CARTESIAN_POINT('',(-12.,-6.25,24.));
#595=CARTESIAN_POINT('',(-12.,6.25,24.));
#596=CARTESIAN_POINT('',(-12.,-6.25,24.));
#597=CARTESIAN_POINT('Origin',(-17.,-6.25,23.));
#598=CARTESIAN_POINT('',(-12.,6.25,23.));
#599=CARTESIAN_POINT('',(-17.,6.25,23.));
#600=CARTESIAN_POINT('',(-8.5,6.25,23.));
#601=CARTESIAN_POINT('',(-17.,-6.25,23.));
#602=CARTESIAN_POINT('',(-17.,-6.25,23.));
#603=CARTESIAN_POINT('',(-12.,-6.25,23.));
#604=CARTESIAN_POINT('',(-12.,-6.25,23.));
#605=CARTESIAN_POINT('',(-12.,0.,23.));
#606=CARTESIAN_POINT('Origin',(-17.,-6.25,20.));
#607=CARTESIAN_POINT('',(-17.,6.25,20.));
#608=CARTESIAN_POINT('',(-17.,6.25,20.75));
#609=CARTESIAN_POINT('',(-17.,-6.25,20.));
#610=CARTESIAN_POINT('',(-17.,-6.25,20.));
#611=CARTESIAN_POINT('',(-17.,-6.25,23.));
#612=CARTESIAN_POINT('Origin',(-12.,-6.25,20.));
#613=CARTESIAN_POINT('',(-12.,6.25,20.));
#614=CARTESIAN_POINT('',(-6.,6.25,20.));
#615=CARTESIAN_POINT('',(-12.,-6.25,20.));
#616=CARTESIAN_POINT('',(-12.,0.,20.));
#617=CARTESIAN_POINT('',(-17.,-6.25,20.));
#618=CARTESIAN_POINT('Origin',(-12.,6.25,0.));
#619=CARTESIAN_POINT('',(-12.,6.25,0.));
#620=CARTESIAN_POINT('',(-12.,6.25,0.));
#621=CARTESIAN_POINT('',(-12.,-6.25,0.));
#622=CARTESIAN_POINT('',(-12.,6.25,0.));
#623=CARTESIAN_POINT('',(-12.,-6.25,0.));
#624=CARTESIAN_POINT('Origin',(17.,-6.25,20.));
#625=CARTESIAN_POINT('',(12.,6.25,20.));
#626=CARTESIAN_POINT('',(17.,6.25,20.));
#627=CARTESIAN_POINT('',(8.5,6.25,20.));
#628=CARTESIAN_POINT('',(17.,-6.25,20.));
#629=CARTESIAN_POINT('',(17.,-6.25,20.));
#630=CARTESIAN_POINT('',(12.,-6.25,20.));
#631=CARTESIAN_POINT('',(17.,-6.25,20.));
#632=CARTESIAN_POINT('',(12.,-6.25,20.));
#633=CARTESIAN_POINT('Origin',(17.,-6.25,23.));
#634=CARTESIAN_POINT('',(17.,6.25,23.));
#635=CARTESIAN_POINT('',(17.,6.25,22.25));
#636=CARTESIAN_POINT('',(17.,-6.25,23.));
#637=CARTESIAN_POINT('',(17.,-6.25,23.));
#638=CARTESIAN_POINT('',(17.,-6.25,23.));
#639=CARTESIAN_POINT('Origin',(12.,-6.25,23.));
#640=CARTESIAN_POINT('',(12.,6.25,23.));
#641=CARTESIAN_POINT('',(6.,6.25,23.));
#642=CARTESIAN_POINT('',(12.,-6.25,23.));
#643=CARTESIAN_POINT('',(12.,-6.25,23.));
#644=CARTESIAN_POINT('',(12.,-6.25,23.));
#645=CARTESIAN_POINT('Origin',(12.,-6.25,0.));
#646=CARTESIAN_POINT('',(12.,6.25,0.));
#647=CARTESIAN_POINT('',(12.,-6.25,0.));
#648=CARTESIAN_POINT('Origin',(12.,-6.25,0.));
#649=CARTESIAN_POINT('',(12.,-6.25,0.));
#650=CARTESIAN_POINT('',(12.,-6.25,0.));
#651=CARTESIAN_POINT('',(12.,6.25,0.));
#652=CARTESIAN_POINT('',(12.,-6.25,0.));
#653=CARTESIAN_POINT('',(12.,6.25,0.));
#654=CARTESIAN_POINT('Origin',(-12.,-6.25,0.));
#655=CARTESIAN_POINT('',(-12.,-6.25,0.));
#656=CARTESIAN_POINT('',(-12.,-6.25,0.));
#657=CARTESIAN_POINT('Origin',(-12.,6.25,0.));
#658=CARTESIAN_POINT('',(-12.,6.25,0.));
#659=CARTESIAN_POINT('Origin',(12.,6.25,0.));
#660=CARTESIAN_POINT('',(12.,6.25,0.));
#661=CARTESIAN_POINT('Origin',(-2.22044604925031E-15,0.,0.));
#662=UNCERTAINTY_MEASURE_WITH_UNIT(LENGTH_MEASURE(0.01),#666,
'DISTANCE_ACCURACY_VALUE',
'Maximum model space distance between geometric entities at asserted c
onnectivities');
#663=UNCERTAINTY_MEASURE_WITH_UNIT(LENGTH_MEASURE(0.01),#666,
'DISTANCE_ACCURACY_VALUE',
'Maximum model space distance between geometric entities at asserted c
onnectivities');
#664=(
GEOMETRIC_REPRESENTATION_CONTEXT(3)
GLOBAL_UNCERTAINTY_ASSIGNED_CONTEXT((#662))
GLOBAL_UNIT_ASSIGNED_CONTEXT((#666,#668,#669))
REPRESENTATION_CONTEXT('','3D')
);
#665=(
GEOMETRIC_REPRESENTATION_CONTEXT(3)
GLOBAL_UNCERTAINTY_ASSIGNED_CONTEXT((#663))
GLOBAL_UNIT_ASSIGNED_CONTEXT((#666,#668,#669))
REPRESENTATION_CONTEXT('','3D')
);
#666=(
LENGTH_UNIT()
NAMED_UNIT(*)
SI_UNIT(.MILLI.,.METRE.)
);
#667=(
LENGTH_UNIT()
NAMED_UNIT(*)
SI_UNIT($,.METRE.)
);
#668=(
NAMED_UNIT(*)
PLANE_ANGLE_UNIT()
SI_UNIT($,.RADIAN.)
);
#669=(
NAMED_UNIT(*)
SI_UNIT($,.STERADIAN.)
SOLID_ANGLE_UNIT()
);
#670=SHAPE_DEFINITION_REPRESENTATION(#671,#672);
#671=PRODUCT_DEFINITION_SHAPE('',$,#674);
#672=SHAPE_REPRESENTATION('',(#411),#664);
#673=PRODUCT_DEFINITION_CONTEXT('part definition',#678,'design');
#674=PRODUCT_DEFINITION('2026-08-23-17-35-19-332','SG90',#675,#673);
#675=PRODUCT_DEFINITION_FORMATION('',$,#680);
#676=PRODUCT_RELATED_PRODUCT_CATEGORY('SG90','SG90',(#680));
#677=APPLICATION_PROTOCOL_DEFINITION('international standard',
'automotive_design',2009,#678);
#678=APPLICATION_CONTEXT(
'Core Data for Automotive Mechanical Design Process');
#679=PRODUCT_CONTEXT('part definition',#678,'mechanical');
#680=PRODUCT('2026-08-23-17-35-19-332','SG90',$,(#679));
#681=PRESENTATION_STYLE_ASSIGNMENT((#682));
#682=SURFACE_STYLE_USAGE(.BOTH.,#683);
#683=SURFACE_SIDE_STYLE('',(#684));
#684=SURFACE_STYLE_FILL_AREA(#685);
#685=FILL_AREA_STYLE('Steel - Satin',(#686));
#686=FILL_AREA_STYLE_COLOUR('Steel - Satin',#687);
#687=COLOUR_RGB('Steel - Satin',0.627450980392157,0.627450980392157,0.627450980392157);
ENDSEC;
END-ISO-10303-21;
