ISO-10303-21;
HEADER;
/* Generated by software containing ST-Developer
 * from STEP Tools, Inc. (www.steptools.com) 
 */

FILE_DESCRIPTION(
/* description */ (''),
/* implementation_level */ '2;1');

FILE_NAME(
/* name */ 'Finger.step',
/* time_stamp */ '2026-09-21T22:50:43+05:30',
/* author */ (''),
/* organization */ (''),
/* preprocessor_version */ 'ST-DEVELOPER v20.2',
/* originating_system */ 'Autodesk Translation Framework v15.15.0.0',
/* authorisation */ '');

FILE_SCHEMA (('AUTOMOTIVE_DESIGN { 1 0 10303 214 3 1 1 }'));
ENDSEC;

DATA;
#10=MECHANICAL_DESIGN_GEOMETRIC_PRESENTATION_REPRESENTATION('',(#13),#440);
#11=SHAPE_REPRESENTATION_RELATIONSHIP('SRR','None',#447,#12);
#12=ADVANCED_BREP_SHAPE_REPRESENTATION('',(#14),#439);
#13=STYLED_ITEM('',(#457),#14);
#14=MANIFOLD_SOLID_BREP('Body1',#250);
#15=B_SPLINE_SURFACE_WITH_KNOTS('',3,1,((#419,#420),(#421,#422),(#423,#424),
(#425,#426)),.UNSPECIFIED.,.F.,.F.,.F.,(4,4),(2,2),(0.,1.),(0.,1.02),
 .UNSPECIFIED.);
#16=B_SPLINE_SURFACE_WITH_KNOTS('',3,1,((#429,#430),(#431,#432),(#433,#434),
(#435,#436)),.UNSPECIFIED.,.F.,.F.,.F.,(4,4),(2,2),(0.,1.),(0.,1.02),
 .UNSPECIFIED.);
#17=FACE_BOUND('',#52,.T.);
#18=FACE_BOUND('',#53,.T.);
#19=FACE_BOUND('',#55,.T.);
#20=FACE_BOUND('',#56,.T.);
#21=B_SPLINE_CURVE_WITH_KNOTS('',2,(#388,#389,#390),.UNSPECIFIED.,.F.,.F.,
(3,3),(0.,1.),.UNSPECIFIED.);
#22=B_SPLINE_CURVE_WITH_KNOTS('',3,(#395,#396,#397,#398),.UNSPECIFIED.,
 .F.,.F.,(4,4),(0.,1.),.UNSPECIFIED.);
#23=B_SPLINE_CURVE_WITH_KNOTS('',3,(#401,#402,#403,#404),.UNSPECIFIED.,
 .F.,.F.,(4,4),(0.,1.),.UNSPECIFIED.);
#24=B_SPLINE_CURVE_WITH_KNOTS('',2,(#410,#411,#412),.UNSPECIFIED.,.F.,.F.,
(3,3),(0.,1.),.UNSPECIFIED.);
#25=PLANE('',#267);
#26=PLANE('',#271);
#27=PLANE('',#278);
#28=PLANE('',#279);
#29=PLANE('',#280);
#30=PLANE('',#281);
#31=PLANE('',#282);
#32=FACE_OUTER_BOUND('',#45,.T.);
#33=FACE_OUTER_BOUND('',#46,.T.);
#34=FACE_OUTER_BOUND('',#47,.T.);
#35=FACE_OUTER_BOUND('',#48,.T.);
#36=FACE_OUTER_BOUND('',#49,.T.);
#37=FACE_OUTER_BOUND('',#50,.T.);
#38=FACE_OUTER_BOUND('',#51,.T.);
#39=FACE_OUTER_BOUND('',#54,.T.);
#40=FACE_OUTER_BOUND('',#57,.T.);
#41=FACE_OUTER_BOUND('',#58,.T.);
#42=FACE_OUTER_BOUND('',#59,.T.);
#43=FACE_OUTER_BOUND('',#60,.T.);
#44=FACE_OUTER_BOUND('',#61,.T.);
#45=EDGE_LOOP('',(#167,#168,#169,#170));
#46=EDGE_LOOP('',(#171,#172,#173,#174));
#47=EDGE_LOOP('',(#175,#176,#177,#178));
#48=EDGE_LOOP('',(#179,#180,#181,#182));
#49=EDGE_LOOP('',(#183,#184,#185,#186));
#50=EDGE_LOOP('',(#187,#188,#189,#190));
#51=EDGE_LOOP('',(#191,#192,#193,#194,#195,#196,#197,#198,#199));
#52=EDGE_LOOP('',(#200));
#53=EDGE_LOOP('',(#201));
#54=EDGE_LOOP('',(#202,#203,#204,#205,#206,#207,#208,#209,#210));
#55=EDGE_LOOP('',(#211));
#56=EDGE_LOOP('',(#212));
#57=EDGE_LOOP('',(#213,#214,#215,#216));
#58=EDGE_LOOP('',(#217,#218,#219,#220));
#59=EDGE_LOOP('',(#221,#222,#223,#224));
#60=EDGE_LOOP('',(#225,#226,#227,#228));
#61=EDGE_LOOP('',(#229,#230,#231,#232));
#62=CIRCLE('',#265,5.);
#63=CIRCLE('',#266,5.);
#64=CIRCLE('',#269,5.);
#65=CIRCLE('',#270,5.);
#66=CIRCLE('',#273,1.75);
#67=CIRCLE('',#274,1.75);
#68=CIRCLE('',#276,1.75);
#69=CIRCLE('',#277,1.75);
#70=LINE('',#348,#91);
#71=LINE('',#352,#92);
#72=LINE('',#357,#93);
#73=LINE('',#359,#94);
#74=LINE('',#361,#95);
#75=LINE('',#362,#96);
#76=LINE('',#367,#97);
#77=LINE('',#370,#98);
#78=LINE('',#371,#99);
#79=LINE('',#376,#100);
#80=LINE('',#382,#101);
#81=LINE('',#386,#102);
#82=LINE('',#392,#103);
#83=LINE('',#394,#104);
#84=LINE('',#406,#105);
#85=LINE('',#408,#106);
#86=LINE('',#413,#107);
#87=LINE('',#415,#108);
#88=LINE('',#416,#109);
#89=LINE('',#418,#110);
#90=LINE('',#427,#111);
#91=VECTOR('',#287,8.5);
#92=VECTOR('',#290,8.5);
#93=VECTOR('',#295,8.5);
#94=VECTOR('',#296,8.69497475868377);
#95=VECTOR('',#297,8.5);
#96=VECTOR('',#298,8.69497475868377);
#97=VECTOR('',#303,8.5);
#98=VECTOR('',#308,22.);
#99=VECTOR('',#309,22.);
#100=VECTOR('',#314,1.75);
#101=VECTOR('',#321,1.75);
#102=VECTOR('',#326,9.89532705973782);
#103=VECTOR('',#327,8.);
#104=VECTOR('',#328,4.00000000000001);
#105=VECTOR('',#331,4.00000000000001);
#106=VECTOR('',#332,8.);
#107=VECTOR('',#333,9.89532705973782);
#108=VECTOR('',#336,8.5);
#109=VECTOR('',#337,8.5);
#110=VECTOR('',#340,8.5);
#111=VECTOR('',#341,8.5);
#112=VERTEX_POINT('',#346);
#113=VERTEX_POINT('',#347);
#114=VERTEX_POINT('',#349);
#115=VERTEX_POINT('',#351);
#116=VERTEX_POINT('',#355);
#117=VERTEX_POINT('',#356);
#118=VERTEX_POINT('',#358);
#119=VERTEX_POINT('',#360);
#120=VERTEX_POINT('',#364);
#121=VERTEX_POINT('',#366);
#122=VERTEX_POINT('',#373);
#123=VERTEX_POINT('',#375);
#124=VERTEX_POINT('',#379);
#125=VERTEX_POINT('',#381);
#126=VERTEX_POINT('',#385);
#127=VERTEX_POINT('',#387);
#128=VERTEX_POINT('',#391);
#129=VERTEX_POINT('',#393);
#130=VERTEX_POINT('',#400);
#131=VERTEX_POINT('',#405);
#132=VERTEX_POINT('',#407);
#133=VERTEX_POINT('',#409);
#134=EDGE_CURVE('',#112,#113,#70,.T.);
#135=EDGE_CURVE('',#114,#113,#62,.T.);
#136=EDGE_CURVE('',#114,#115,#71,.T.);
#137=EDGE_CURVE('',#115,#112,#63,.T.);
#138=EDGE_CURVE('',#116,#117,#72,.T.);
#139=EDGE_CURVE('',#118,#116,#73,.T.);
#140=EDGE_CURVE('',#119,#118,#74,.T.);
#141=EDGE_CURVE('',#119,#117,#75,.T.);
#142=EDGE_CURVE('',#118,#120,#64,.T.);
#143=EDGE_CURVE('',#121,#120,#76,.T.);
#144=EDGE_CURVE('',#119,#121,#65,.T.);
#145=EDGE_CURVE('',#120,#115,#77,.T.);
#146=EDGE_CURVE('',#121,#114,#78,.T.);
#147=EDGE_CURVE('',#122,#122,#66,.T.);
#148=EDGE_CURVE('',#122,#123,#79,.T.);
#149=EDGE_CURVE('',#123,#123,#67,.T.);
#150=EDGE_CURVE('',#124,#124,#68,.T.);
#151=EDGE_CURVE('',#124,#125,#80,.T.);
#152=EDGE_CURVE('',#125,#125,#69,.T.);
#153=EDGE_CURVE('',#113,#126,#81,.T.);
#154=EDGE_CURVE('',#126,#127,#21,.T.);
#155=EDGE_CURVE('',#127,#128,#82,.T.);
#156=EDGE_CURVE('',#128,#129,#83,.T.);
#157=EDGE_CURVE('',#129,#117,#22,.T.);
#158=EDGE_CURVE('',#130,#116,#23,.T.);
#159=EDGE_CURVE('',#131,#130,#84,.T.);
#160=EDGE_CURVE('',#132,#131,#85,.T.);
#161=EDGE_CURVE('',#133,#132,#24,.T.);
#162=EDGE_CURVE('',#112,#133,#86,.T.);
#163=EDGE_CURVE('',#131,#128,#87,.T.);
#164=EDGE_CURVE('',#130,#129,#88,.T.);
#165=EDGE_CURVE('',#132,#127,#89,.T.);
#166=EDGE_CURVE('',#133,#126,#90,.T.);
#167=ORIENTED_EDGE('',*,*,#134,.T.);
#168=ORIENTED_EDGE('',*,*,#135,.F.);
#169=ORIENTED_EDGE('',*,*,#136,.T.);
#170=ORIENTED_EDGE('',*,*,#137,.T.);
#171=ORIENTED_EDGE('',*,*,#138,.F.);
#172=ORIENTED_EDGE('',*,*,#139,.F.);
#173=ORIENTED_EDGE('',*,*,#140,.F.);
#174=ORIENTED_EDGE('',*,*,#141,.T.);
#175=ORIENTED_EDGE('',*,*,#142,.T.);
#176=ORIENTED_EDGE('',*,*,#143,.F.);
#177=ORIENTED_EDGE('',*,*,#144,.F.);
#178=ORIENTED_EDGE('',*,*,#140,.T.);
#179=ORIENTED_EDGE('',*,*,#145,.T.);
#180=ORIENTED_EDGE('',*,*,#136,.F.);
#181=ORIENTED_EDGE('',*,*,#146,.F.);
#182=ORIENTED_EDGE('',*,*,#143,.T.);
#183=ORIENTED_EDGE('',*,*,#147,.T.);
#184=ORIENTED_EDGE('',*,*,#148,.T.);
#185=ORIENTED_EDGE('',*,*,#149,.F.);
#186=ORIENTED_EDGE('',*,*,#148,.F.);
#187=ORIENTED_EDGE('',*,*,#150,.T.);
#188=ORIENTED_EDGE('',*,*,#151,.T.);
#189=ORIENTED_EDGE('',*,*,#152,.F.);
#190=ORIENTED_EDGE('',*,*,#151,.F.);
#191=ORIENTED_EDGE('',*,*,#141,.F.);
#192=ORIENTED_EDGE('',*,*,#144,.T.);
#193=ORIENTED_EDGE('',*,*,#146,.T.);
#194=ORIENTED_EDGE('',*,*,#135,.T.);
#195=ORIENTED_EDGE('',*,*,#153,.T.);
#196=ORIENTED_EDGE('',*,*,#154,.T.);
#197=ORIENTED_EDGE('',*,*,#155,.T.);
#198=ORIENTED_EDGE('',*,*,#156,.T.);
#199=ORIENTED_EDGE('',*,*,#157,.T.);
#200=ORIENTED_EDGE('',*,*,#147,.F.);
#201=ORIENTED_EDGE('',*,*,#150,.F.);
#202=ORIENTED_EDGE('',*,*,#139,.T.);
#203=ORIENTED_EDGE('',*,*,#158,.F.);
#204=ORIENTED_EDGE('',*,*,#159,.F.);
#205=ORIENTED_EDGE('',*,*,#160,.F.);
#206=ORIENTED_EDGE('',*,*,#161,.F.);
#207=ORIENTED_EDGE('',*,*,#162,.F.);
#208=ORIENTED_EDGE('',*,*,#137,.F.);
#209=ORIENTED_EDGE('',*,*,#145,.F.);
#210=ORIENTED_EDGE('',*,*,#142,.F.);
#211=ORIENTED_EDGE('',*,*,#149,.T.);
#212=ORIENTED_EDGE('',*,*,#152,.T.);
#213=ORIENTED_EDGE('',*,*,#156,.F.);
#214=ORIENTED_EDGE('',*,*,#163,.F.);
#215=ORIENTED_EDGE('',*,*,#159,.T.);
#216=ORIENTED_EDGE('',*,*,#164,.T.);
#217=ORIENTED_EDGE('',*,*,#155,.F.);
#218=ORIENTED_EDGE('',*,*,#165,.F.);
#219=ORIENTED_EDGE('',*,*,#160,.T.);
#220=ORIENTED_EDGE('',*,*,#163,.T.);
#221=ORIENTED_EDGE('',*,*,#154,.F.);
#222=ORIENTED_EDGE('',*,*,#166,.F.);
#223=ORIENTED_EDGE('',*,*,#161,.T.);
#224=ORIENTED_EDGE('',*,*,#165,.T.);
#225=ORIENTED_EDGE('',*,*,#153,.F.);
#226=ORIENTED_EDGE('',*,*,#134,.F.);
#227=ORIENTED_EDGE('',*,*,#162,.T.);
#228=ORIENTED_EDGE('',*,*,#166,.T.);
#229=ORIENTED_EDGE('',*,*,#157,.F.);
#230=ORIENTED_EDGE('',*,*,#164,.F.);
#231=ORIENTED_EDGE('',*,*,#158,.T.);
#232=ORIENTED_EDGE('',*,*,#138,.T.);
#233=CYLINDRICAL_SURFACE('',#264,5.);
#234=CYLINDRICAL_SURFACE('',#268,5.);
#235=CYLINDRICAL_SURFACE('',#272,1.75);
#236=CYLINDRICAL_SURFACE('',#275,1.75);
#237=ADVANCED_FACE('',(#32),#233,.T.);
#238=ADVANCED_FACE('',(#33),#25,.T.);
#239=ADVANCED_FACE('',(#34),#234,.T.);
#240=ADVANCED_FACE('',(#35),#26,.F.);
#241=ADVANCED_FACE('',(#36),#235,.F.);
#242=ADVANCED_FACE('',(#37),#236,.F.);
#243=ADVANCED_FACE('',(#38,#17,#18),#27,.T.);
#244=ADVANCED_FACE('',(#39,#19,#20),#28,.F.);
#245=ADVANCED_FACE('',(#40),#29,.T.);
#246=ADVANCED_FACE('',(#41),#30,.T.);
#247=ADVANCED_FACE('',(#42),#15,.T.);
#248=ADVANCED_FACE('',(#43),#31,.T.);
#249=ADVANCED_FACE('',(#44),#16,.T.);
#250=CLOSED_SHELL('',(#237,#238,#239,#240,#241,#242,#243,#244,#245,#246,
#247,#248,#249));
#251=DERIVED_UNIT_ELEMENT(#253,1.);
#252=DERIVED_UNIT_ELEMENT(#442,-3.);
#253=(
MASS_UNIT()
NAMED_UNIT(*)
SI_UNIT(.KILO.,.GRAM.)
);
#254=DERIVED_UNIT((#251,#252));
#255=MEASURE_REPRESENTATION_ITEM('density measure',
POSITIVE_RATIO_MEASURE(7850.),#254);
#256=PROPERTY_DEFINITION_REPRESENTATION(#261,#258);
#257=PROPERTY_DEFINITION_REPRESENTATION(#262,#259);
#258=REPRESENTATION('material name',(#260),#439);
#259=REPRESENTATION('density',(#255),#439);
#260=DESCRIPTIVE_REPRESENTATION_ITEM('Steel','Steel');
#261=PROPERTY_DEFINITION('material property','material name',#449);
#262=PROPERTY_DEFINITION('material property','density of part',#449);
#263=AXIS2_PLACEMENT_3D('',#344,#283,#284);
#264=AXIS2_PLACEMENT_3D('',#345,#285,#286);
#265=AXIS2_PLACEMENT_3D('',#350,#288,#289);
#266=AXIS2_PLACEMENT_3D('',#353,#291,#292);
#267=AXIS2_PLACEMENT_3D('',#354,#293,#294);
#268=AXIS2_PLACEMENT_3D('',#363,#299,#300);
#269=AXIS2_PLACEMENT_3D('',#365,#301,#302);
#270=AXIS2_PLACEMENT_3D('',#368,#304,#305);
#271=AXIS2_PLACEMENT_3D('',#369,#306,#307);
#272=AXIS2_PLACEMENT_3D('',#372,#310,#311);
#273=AXIS2_PLACEMENT_3D('',#374,#312,#313);
#274=AXIS2_PLACEMENT_3D('',#377,#315,#316);
#275=AXIS2_PLACEMENT_3D('',#378,#317,#318);
#276=AXIS2_PLACEMENT_3D('',#380,#319,#320);
#277=AXIS2_PLACEMENT_3D('',#383,#322,#323);
#278=AXIS2_PLACEMENT_3D('',#384,#324,#325);
#279=AXIS2_PLACEMENT_3D('',#399,#329,#330);
#280=AXIS2_PLACEMENT_3D('',#414,#334,#335);
#281=AXIS2_PLACEMENT_3D('',#417,#338,#339);
#282=AXIS2_PLACEMENT_3D('',#428,#342,#343);
#283=DIRECTION('axis',(0.,0.,1.));
#284=DIRECTION('refdir',(1.,0.,0.));
#285=DIRECTION('center_axis',(-1.,0.,0.));
#286=DIRECTION('ref_axis',(0.,0.,1.));
#287=DIRECTION('',(1.,0.,0.));
#288=DIRECTION('center_axis',(1.,0.,0.));
#289=DIRECTION('ref_axis',(0.,0.,-1.));
#290=DIRECTION('',(-1.,0.,0.));
#291=DIRECTION('center_axis',(1.,0.,0.));
#292=DIRECTION('ref_axis',(0.,0.,-1.));
#293=DIRECTION('center_axis',(0.,1.,0.));
#294=DIRECTION('ref_axis',(0.,0.,1.));
#295=DIRECTION('',(1.,0.,0.));
#296=DIRECTION('',(0.,0.,-1.));
#297=DIRECTION('',(-1.,0.,0.));
#298=DIRECTION('',(0.,0.,-1.));
#299=DIRECTION('center_axis',(-1.,0.,0.));
#300=DIRECTION('ref_axis',(0.,0.,1.));
#301=DIRECTION('center_axis',(1.,0.,0.));
#302=DIRECTION('ref_axis',(0.,0.,-1.));
#303=DIRECTION('',(-1.,0.,0.));
#304=DIRECTION('center_axis',(1.,0.,0.));
#305=DIRECTION('ref_axis',(0.,0.,-1.));
#306=DIRECTION('center_axis',(0.,1.,0.));
#307=DIRECTION('ref_axis',(0.,0.,1.));
#308=DIRECTION('',(0.,0.,-1.));
#309=DIRECTION('',(0.,0.,-1.));
#310=DIRECTION('center_axis',(-1.,0.,0.));
#311=DIRECTION('ref_axis',(0.,0.,1.));
#312=DIRECTION('center_axis',(1.,0.,0.));
#313=DIRECTION('ref_axis',(0.,0.,-1.));
#314=DIRECTION('',(-1.,0.,0.));
#315=DIRECTION('center_axis',(1.,0.,0.));
#316=DIRECTION('ref_axis',(0.,0.,-1.));
#317=DIRECTION('center_axis',(-1.,0.,0.));
#318=DIRECTION('ref_axis',(0.,0.,1.));
#319=DIRECTION('center_axis',(1.,0.,0.));
#320=DIRECTION('ref_axis',(0.,0.,-1.));
#321=DIRECTION('',(-1.,0.,0.));
#322=DIRECTION('center_axis',(1.,0.,0.));
#323=DIRECTION('ref_axis',(0.,0.,-1.));
#324=DIRECTION('center_axis',(1.,0.,0.));
#325=DIRECTION('ref_axis',(0.,0.,-1.));
#326=DIRECTION('',(0.,0.436767415089167,-0.8995744689109));
#327=DIRECTION('',(0.,0.39020935118337,-0.920726160293631));
#328=DIRECTION('',(0.,0.920726160293632,0.390209351183368));
#329=DIRECTION('center_axis',(1.,0.,0.));
#330=DIRECTION('ref_axis',(0.,0.,-1.));
#331=DIRECTION('',(0.,0.920726160293632,0.390209351183368));
#332=DIRECTION('',(0.,0.39020935118337,-0.920726160293631));
#333=DIRECTION('',(0.,0.436767415089167,-0.8995744689109));
#334=DIRECTION('center_axis',(0.,0.39020935118337,-0.920726160293631));
#335=DIRECTION('ref_axis',(-1.,0.,0.));
#336=DIRECTION('',(1.,0.,0.));
#337=DIRECTION('',(1.,0.,0.));
#338=DIRECTION('center_axis',(0.,-0.920726160293631,-0.39020935118337));
#339=DIRECTION('ref_axis',(0.,0.39020935118337,-0.920726160293631));
#340=DIRECTION('',(1.,0.,0.));
#341=DIRECTION('',(1.,0.,0.));
#342=DIRECTION('center_axis',(0.,-0.8995744689109,-0.436767415089167));
#343=DIRECTION('ref_axis',(0.,0.436767415089167,-0.8995744689109));
#344=CARTESIAN_POINT('',(0.,0.,0.));
#345=CARTESIAN_POINT('Origin',(8.5,5.,-27.));
#346=CARTESIAN_POINT('',(0.,0.502127655445501,-29.1838370754458));
#347=CARTESIAN_POINT('',(8.5,0.502127655445501,-29.1838370754458));
#348=CARTESIAN_POINT('',(0.,0.502127655445501,-29.1838370754458));
#349=CARTESIAN_POINT('',(8.5,-4.33680868994202E-16,-27.));
#350=CARTESIAN_POINT('Origin',(8.5,5.,-27.));
#351=CARTESIAN_POINT('',(0.,-4.33680868994202E-16,-27.));
#352=CARTESIAN_POINT('',(8.5,-4.33680868994202E-16,-27.));
#353=CARTESIAN_POINT('Origin',(0.,5.,-27.));
#354=CARTESIAN_POINT('Origin',(8.5,10.,0.));
#355=CARTESIAN_POINT('',(0.,10.,-13.6949747586838));
#356=CARTESIAN_POINT('',(8.5,10.,-13.6949747586838));
#357=CARTESIAN_POINT('',(0.,10.,-13.6949747586838));
#358=CARTESIAN_POINT('',(0.,10.,-5.));
#359=CARTESIAN_POINT('',(0.,10.,-5.));
#360=CARTESIAN_POINT('',(8.5,10.,-5.));
#361=CARTESIAN_POINT('',(8.5,10.,-5.));
#362=CARTESIAN_POINT('',(8.5,10.,-5.));
#363=CARTESIAN_POINT('Origin',(8.5,5.,-5.));
#364=CARTESIAN_POINT('',(0.,1.30104260698261E-15,-5.));
#365=CARTESIAN_POINT('Origin',(0.,5.,-5.));
#366=CARTESIAN_POINT('',(8.5,1.30104260698261E-15,-5.));
#367=CARTESIAN_POINT('',(8.5,1.30104260698261E-15,-5.));
#368=CARTESIAN_POINT('Origin',(8.5,5.,-5.));
#369=CARTESIAN_POINT('Origin',(8.5,0.,0.));
#370=CARTESIAN_POINT('',(0.,0.,-5.));
#371=CARTESIAN_POINT('',(8.5,0.,-5.));
#372=CARTESIAN_POINT('Origin',(8.5,5.,-5.));
#373=CARTESIAN_POINT('',(8.5,5.,-6.75));
#374=CARTESIAN_POINT('Origin',(8.5,5.,-5.));
#375=CARTESIAN_POINT('',(0.,5.,-6.75));
#376=CARTESIAN_POINT('',(8.5,5.,-6.75));
#377=CARTESIAN_POINT('Origin',(0.,5.,-5.));
#378=CARTESIAN_POINT('Origin',(8.5,5.,-27.));
#379=CARTESIAN_POINT('',(8.5,5.,-28.75));
#380=CARTESIAN_POINT('Origin',(8.5,5.,-27.));
#381=CARTESIAN_POINT('',(0.,5.,-28.75));
#382=CARTESIAN_POINT('',(8.5,5.,-28.75));
#383=CARTESIAN_POINT('Origin',(0.,5.,-27.));
#384=CARTESIAN_POINT('Origin',(8.5,0.,0.));
#385=CARTESIAN_POINT('',(8.5,4.82408407678908,-38.0854206599091));
#386=CARTESIAN_POINT('',(8.5,0.502127655445501,-29.1838370754458));
#387=CARTESIAN_POINT('',(8.5,11.0678436667493,-57.9480004086976));
#388=CARTESIAN_POINT('Ctrl Pts',(8.5,4.82408407678908,-38.0854206599091));
#389=CARTESIAN_POINT('Ctrl Pts',(8.5,11.8952224566425,-46.7975095094647));
#390=CARTESIAN_POINT('Ctrl Pts',(8.5,11.0678436667493,-57.9480004086976));
#391=CARTESIAN_POINT('',(8.5,14.1895184762162,-65.3138096910467));
#392=CARTESIAN_POINT('',(8.5,11.0678436667493,-57.9480004086976));
#393=CARTESIAN_POINT('',(8.5,17.8724231173908,-63.7529722863132));
#394=CARTESIAN_POINT('',(8.5,14.1895184762162,-65.3138096910467));
#395=CARTESIAN_POINT('Ctrl Pts',(8.5,17.8724231173908,-63.7529722863132));
#396=CARTESIAN_POINT('Ctrl Pts',(8.5,26.563787962677,-45.9288826779558));
#397=CARTESIAN_POINT('Ctrl Pts',(8.5,10.,-31.059268620705));
#398=CARTESIAN_POINT('Ctrl Pts',(8.5,10.,-13.6949747586838));
#399=CARTESIAN_POINT('Origin',(0.,0.,0.));
#400=CARTESIAN_POINT('',(0.,17.8724231173908,-63.7529722863132));
#401=CARTESIAN_POINT('Ctrl Pts',(0.,17.8724231173908,-63.7529722863132));
#402=CARTESIAN_POINT('Ctrl Pts',(0.,26.563787962677,-45.9288826779558));
#403=CARTESIAN_POINT('Ctrl Pts',(0.,10.,-31.059268620705));
#404=CARTESIAN_POINT('Ctrl Pts',(0.,10.,-13.6949747586838));
#405=CARTESIAN_POINT('',(0.,14.1895184762162,-65.3138096910467));
#406=CARTESIAN_POINT('',(0.,14.1895184762162,-65.3138096910467));
#407=CARTESIAN_POINT('',(0.,11.0678436667493,-57.9480004086976));
#408=CARTESIAN_POINT('',(0.,11.0678436667493,-57.9480004086976));
#409=CARTESIAN_POINT('',(0.,4.82408407678908,-38.0854206599091));
#410=CARTESIAN_POINT('Ctrl Pts',(0.,4.82408407678908,-38.0854206599091));
#411=CARTESIAN_POINT('Ctrl Pts',(0.,11.8952224566425,-46.7975095094647));
#412=CARTESIAN_POINT('Ctrl Pts',(0.,11.0678436667493,-57.9480004086976));
#413=CARTESIAN_POINT('',(0.,0.502127655445501,-29.1838370754458));
#414=CARTESIAN_POINT('Origin',(0.,25.6262249672031,-60.4668638650484));
#415=CARTESIAN_POINT('',(0.,14.1895184762162,-65.3138096910467));
#416=CARTESIAN_POINT('',(0.,17.8724231173908,-63.7529722863132));
#417=CARTESIAN_POINT('Origin',(0.,-11.4367064909869,-4.84694582599828));
#418=CARTESIAN_POINT('',(0.,11.0678436667493,-57.9480004086976));
#419=CARTESIAN_POINT('Ctrl Pts',(0.,4.82408407678908,-38.0854206599091));
#420=CARTESIAN_POINT('Ctrl Pts',(10.2,4.82408407678908,-38.0854206599091));
#421=CARTESIAN_POINT('Ctrl Pts',(0.,9.53817633002466,-43.8934798929462));
#422=CARTESIAN_POINT('Ctrl Pts',(10.2,9.53817633002466,-43.8934798929462));
#423=CARTESIAN_POINT('Ctrl Pts',(0.,11.6194295266781,-50.514339809209));
#424=CARTESIAN_POINT('Ctrl Pts',(10.2,11.6194295266781,-50.514339809209));
#425=CARTESIAN_POINT('Ctrl Pts',(0.,11.0678436667493,-57.9480004086976));
#426=CARTESIAN_POINT('Ctrl Pts',(10.2,11.0678436667493,-57.9480004086976));
#427=CARTESIAN_POINT('',(0.,4.82408407678908,-38.0854206599091));
#428=CARTESIAN_POINT('Origin',(0.,-11.0601312365663,-5.36998891997289));
#429=CARTESIAN_POINT('Ctrl Pts',(0.,17.8724231173908,-63.7529722863132));
#430=CARTESIAN_POINT('Ctrl Pts',(10.2,17.8724231173908,-63.7529722863132));
#431=CARTESIAN_POINT('Ctrl Pts',(0.,26.563787962677,-45.9288826779558));
#432=CARTESIAN_POINT('Ctrl Pts',(10.2,26.563787962677,-45.9288826779558));
#433=CARTESIAN_POINT('Ctrl Pts',(0.,10.,-31.059268620705));
#434=CARTESIAN_POINT('Ctrl Pts',(10.2,10.,-31.059268620705));
#435=CARTESIAN_POINT('Ctrl Pts',(0.,10.,-13.6949747586838));
#436=CARTESIAN_POINT('Ctrl Pts',(10.2,10.,-13.6949747586838));
#437=UNCERTAINTY_MEASURE_WITH_UNIT(LENGTH_MEASURE(0.01),#441,
'DISTANCE_ACCURACY_VALUE',
'Maximum model space distance between geometric entities at asserted c
onnectivities');
#438=UNCERTAINTY_MEASURE_WITH_UNIT(LENGTH_MEASURE(0.01),#441,
'DISTANCE_ACCURACY_VALUE',
'Maximum model space distance between geometric entities at asserted c
onnectivities');
#439=(
GEOMETRIC_REPRESENTATION_CONTEXT(3)
GLOBAL_UNCERTAINTY_ASSIGNED_CONTEXT((#437))
GLOBAL_UNIT_ASSIGNED_CONTEXT((#441,#443,#444))
REPRESENTATION_CONTEXT('','3D')
);
#440=(
GEOMETRIC_REPRESENTATION_CONTEXT(3)
GLOBAL_UNCERTAINTY_ASSIGNED_CONTEXT((#438))
GLOBAL_UNIT_ASSIGNED_CONTEXT((#441,#443,#444))
REPRESENTATION_CONTEXT('','3D')
);
#441=(
LENGTH_UNIT()
NAMED_UNIT(*)
SI_UNIT(.MILLI.,.METRE.)
);
#442=(
LENGTH_UNIT()
NAMED_UNIT(*)
SI_UNIT($,.METRE.)
);
#443=(
NAMED_UNIT(*)
PLANE_ANGLE_UNIT()
SI_UNIT($,.RADIAN.)
);
#444=(
NAMED_UNIT(*)
SI_UNIT($,.STERADIAN.)
SOLID_ANGLE_UNIT()
);
#445=SHAPE_DEFINITION_REPRESENTATION(#446,#447);
#446=PRODUCT_DEFINITION_SHAPE('',$,#449);
#447=SHAPE_REPRESENTATION('',(#263),#439);
#448=PRODUCT_DEFINITION_CONTEXT('part definition',#453,'design');
#449=PRODUCT_DEFINITION('2026-09-14-23-53-39-526','Finger',#450,#448);
#450=PRODUCT_DEFINITION_FORMATION('',$,#455);
#451=PRODUCT_RELATED_PRODUCT_CATEGORY('Finger','Finger',(#455));
#452=APPLICATION_PROTOCOL_DEFINITION('international standard',
'automotive_design',2009,#453);
#453=APPLICATION_CONTEXT(
'Core Data for Automotive Mechanical Design Process');
#454=PRODUCT_CONTEXT('part definition',#453,'mechanical');
#455=PRODUCT('2026-09-14-23-53-39-526','Finger',$,(#454));
#456=PRESENTATION_STYLE_ASSIGNMENT((#458));
#457=PRESENTATION_STYLE_ASSIGNMENT((#459));
#458=SURFACE_STYLE_USAGE(.BOTH.,#460);
#459=SURFACE_STYLE_USAGE(.BOTH.,#461);
#460=SURFACE_SIDE_STYLE('',(#462));
#461=SURFACE_SIDE_STYLE('',(#463));
#462=SURFACE_STYLE_FILL_AREA(#464);
#463=SURFACE_STYLE_FILL_AREA(#465);
#464=FILL_AREA_STYLE('Steel - Satin',(#466));
#465=FILL_AREA_STYLE('ABS (White)',(#467));
#466=FILL_AREA_STYLE_COLOUR('Steel - Satin',#468);
#467=FILL_AREA_STYLE_COLOUR('ABS (White)',#469);
#468=COLOUR_RGB('Steel - Satin',0.627450980392157,0.627450980392157,0.627450980392157);
#469=COLOUR_RGB('ABS (White)',0.964705882352941,0.964705882352941,0.952941176470588);
ENDSEC;
END-ISO-10303-21;
