ISO-10303-21;
HEADER;
/* Generated by software containing ST-Developer
 * from STEP Tools, Inc. (www.steptools.com) 
 */

FILE_DESCRIPTION(
/* description */ (''),
/* implementation_level */ '2;1');

FILE_NAME(
/* name */ 'Gripper base.step',
/* time_stamp */ '2026-09-21T22:54:11+05:30',
/* author */ (''),
/* organization */ (''),
/* preprocessor_version */ 'ST-DEVELOPER v20.2',
/* originating_system */ 'Autodesk Translation Framework v15.15.0.0',
/* authorisation */ '');

FILE_SCHEMA (('AUTOMOTIVE_DESIGN { 1 0 10303 214 3 1 1 }'));
ENDSEC;

DATA;
#10=MECHANICAL_DESIGN_GEOMETRIC_PRESENTATION_REPRESENTATION('',(#13),#1888);
#11=SHAPE_REPRESENTATION_RELATIONSHIP('SRR','None',#1895,#12);
#12=ADVANCED_BREP_SHAPE_REPRESENTATION('',(#14),#1887);
#13=STYLED_ITEM('',(#1905),#14);
#14=MANIFOLD_SOLID_BREP('Body1',#1108);
#15=ELLIPSE('',#1218,5.65685424949238,4.);
#16=ELLIPSE('',#1220,5.65685424949238,4.);
#17=ELLIPSE('',#1222,6.1463629715289,4.);
#18=CYLINDRICAL_SURFACE('',#1138,5.4);
#19=CYLINDRICAL_SURFACE('',#1148,1.75);
#20=CYLINDRICAL_SURFACE('',#1150,1.75);
#21=CYLINDRICAL_SURFACE('',#1153,1.75);
#22=CYLINDRICAL_SURFACE('',#1196,2.49999999999999);
#23=CYLINDRICAL_SURFACE('',#1198,10.);
#24=CYLINDRICAL_SURFACE('',#1199,10.);
#25=CYLINDRICAL_SURFACE('',#1200,0.999999999999998);
#26=CYLINDRICAL_SURFACE('',#1203,1.);
#27=CYLINDRICAL_SURFACE('',#1206,1.29999999999999);
#28=CYLINDRICAL_SURFACE('',#1208,1.3);
#29=CYLINDRICAL_SURFACE('',#1215,3.5);
#30=CYLINDRICAL_SURFACE('',#1216,3.5);
#31=CYLINDRICAL_SURFACE('',#1217,4.);
#32=CYLINDRICAL_SURFACE('',#1219,4.);
#33=CYLINDRICAL_SURFACE('',#1221,4.);
#34=CYLINDRICAL_SURFACE('',#1223,4.);
#35=CYLINDRICAL_SURFACE('',#1224,4.);
#36=CYLINDRICAL_SURFACE('',#1225,4.);
#37=CYLINDRICAL_SURFACE('',#1226,4.);
#38=CYLINDRICAL_SURFACE('',#1227,4.);
#39=CYLINDRICAL_SURFACE('',#1228,4.);
#40=CYLINDRICAL_SURFACE('',#1229,4.);
#41=CYLINDRICAL_SURFACE('',#1230,4.);
#42=CYLINDRICAL_SURFACE('',#1231,4.);
#43=CYLINDRICAL_SURFACE('',#1232,4.);
#44=CYLINDRICAL_SURFACE('',#1233,4.);
#45=CYLINDRICAL_SURFACE('',#1234,4.);
#46=CYLINDRICAL_SURFACE('',#1236,8.);
#47=FACE_BOUND('',#126,.T.);
#48=FACE_BOUND('',#127,.T.);
#49=FACE_BOUND('',#128,.T.);
#50=FACE_BOUND('',#143,.T.);
#51=FACE_BOUND('',#144,.T.);
#52=FACE_BOUND('',#145,.T.);
#53=FACE_BOUND('',#146,.T.);
#54=FACE_BOUND('',#154,.T.);
#55=FACE_BOUND('',#155,.T.);
#56=FACE_BOUND('',#156,.T.);
#57=FACE_BOUND('',#158,.T.);
#58=FACE_BOUND('',#160,.T.);
#59=FACE_BOUND('',#162,.T.);
#60=FACE_BOUND('',#163,.T.);
#61=FACE_BOUND('',#164,.T.);
#62=FACE_BOUND('',#177,.T.);
#63=FACE_BOUND('',#178,.T.);
#64=FACE_BOUND('',#179,.T.);
#65=FACE_OUTER_BOUND('',#124,.T.);
#66=FACE_OUTER_BOUND('',#125,.T.);
#67=FACE_OUTER_BOUND('',#129,.T.);
#68=FACE_OUTER_BOUND('',#130,.T.);
#69=FACE_OUTER_BOUND('',#131,.T.);
#70=FACE_OUTER_BOUND('',#132,.T.);
#71=FACE_OUTER_BOUND('',#133,.T.);
#72=FACE_OUTER_BOUND('',#134,.T.);
#73=FACE_OUTER_BOUND('',#135,.T.);
#74=FACE_OUTER_BOUND('',#136,.T.);
#75=FACE_OUTER_BOUND('',#137,.T.);
#76=FACE_OUTER_BOUND('',#138,.T.);
#77=FACE_OUTER_BOUND('',#139,.T.);
#78=FACE_OUTER_BOUND('',#140,.T.);
#79=FACE_OUTER_BOUND('',#141,.T.);
#80=FACE_OUTER_BOUND('',#142,.T.);
#81=FACE_OUTER_BOUND('',#147,.T.);
#82=FACE_OUTER_BOUND('',#148,.T.);
#83=FACE_OUTER_BOUND('',#149,.T.);
#84=FACE_OUTER_BOUND('',#150,.T.);
#85=FACE_OUTER_BOUND('',#151,.T.);
#86=FACE_OUTER_BOUND('',#152,.T.);
#87=FACE_OUTER_BOUND('',#153,.T.);
#88=FACE_OUTER_BOUND('',#157,.T.);
#89=FACE_OUTER_BOUND('',#159,.T.);
#90=FACE_OUTER_BOUND('',#161,.T.);
#91=FACE_OUTER_BOUND('',#165,.T.);
#92=FACE_OUTER_BOUND('',#166,.T.);
#93=FACE_OUTER_BOUND('',#167,.T.);
#94=FACE_OUTER_BOUND('',#168,.T.);
#95=FACE_OUTER_BOUND('',#169,.T.);
#96=FACE_OUTER_BOUND('',#170,.T.);
#97=FACE_OUTER_BOUND('',#171,.T.);
#98=FACE_OUTER_BOUND('',#172,.T.);
#99=FACE_OUTER_BOUND('',#173,.T.);
#100=FACE_OUTER_BOUND('',#174,.T.);
#101=FACE_OUTER_BOUND('',#175,.T.);
#102=FACE_OUTER_BOUND('',#176,.T.);
#103=FACE_OUTER_BOUND('',#180,.T.);
#104=FACE_OUTER_BOUND('',#181,.T.);
#105=FACE_OUTER_BOUND('',#182,.T.);
#106=FACE_OUTER_BOUND('',#183,.T.);
#107=FACE_OUTER_BOUND('',#184,.T.);
#108=FACE_OUTER_BOUND('',#185,.T.);
#109=FACE_OUTER_BOUND('',#186,.T.);
#110=FACE_OUTER_BOUND('',#187,.T.);
#111=FACE_OUTER_BOUND('',#188,.T.);
#112=FACE_OUTER_BOUND('',#189,.T.);
#113=FACE_OUTER_BOUND('',#190,.T.);
#114=FACE_OUTER_BOUND('',#191,.T.);
#115=FACE_OUTER_BOUND('',#192,.T.);
#116=FACE_OUTER_BOUND('',#193,.T.);
#117=FACE_OUTER_BOUND('',#194,.T.);
#118=FACE_OUTER_BOUND('',#195,.T.);
#119=FACE_OUTER_BOUND('',#196,.T.);
#120=FACE_OUTER_BOUND('',#197,.T.);
#121=FACE_OUTER_BOUND('',#198,.T.);
#122=FACE_OUTER_BOUND('',#199,.T.);
#123=FACE_OUTER_BOUND('',#200,.T.);
#124=EDGE_LOOP('',(#709,#710,#711,#712,#713,#714));
#125=EDGE_LOOP('',(#715,#716,#717,#718,#719,#720,#721,#722,#723,#724,#725,
#726,#727,#728,#729,#730));
#126=EDGE_LOOP('',(#731));
#127=EDGE_LOOP('',(#732));
#128=EDGE_LOOP('',(#733));
#129=EDGE_LOOP('',(#734,#735,#736,#737));
#130=EDGE_LOOP('',(#738,#739,#740,#741));
#131=EDGE_LOOP('',(#742,#743,#744,#745,#746,#747));
#132=EDGE_LOOP('',(#748,#749,#750,#751));
#133=EDGE_LOOP('',(#752,#753,#754,#755));
#134=EDGE_LOOP('',(#756,#757,#758,#759));
#135=EDGE_LOOP('',(#760,#761,#762,#763));
#136=EDGE_LOOP('',(#764,#765,#766,#767));
#137=EDGE_LOOP('',(#768,#769,#770,#771));
#138=EDGE_LOOP('',(#772,#773,#774,#775));
#139=EDGE_LOOP('',(#776,#777,#778,#779));
#140=EDGE_LOOP('',(#780,#781,#782,#783,#784,#785));
#141=EDGE_LOOP('',(#786,#787,#788,#789));
#142=EDGE_LOOP('',(#790,#791,#792,#793,#794,#795,#796,#797,#798,#799,#800,
#801,#802,#803,#804,#805,#806,#807,#808,#809,#810,#811,#812,#813));
#143=EDGE_LOOP('',(#814));
#144=EDGE_LOOP('',(#815));
#145=EDGE_LOOP('',(#816));
#146=EDGE_LOOP('',(#817));
#147=EDGE_LOOP('',(#818,#819,#820,#821));
#148=EDGE_LOOP('',(#822,#823,#824,#825));
#149=EDGE_LOOP('',(#826,#827,#828,#829));
#150=EDGE_LOOP('',(#830,#831,#832,#833));
#151=EDGE_LOOP('',(#834,#835,#836,#837));
#152=EDGE_LOOP('',(#838,#839,#840,#841));
#153=EDGE_LOOP('',(#842,#843,#844,#845,#846,#847,#848,#849,#850));
#154=EDGE_LOOP('',(#851,#852,#853,#854));
#155=EDGE_LOOP('',(#855));
#156=EDGE_LOOP('',(#856));
#157=EDGE_LOOP('',(#857,#858,#859,#860));
#158=EDGE_LOOP('',(#861));
#159=EDGE_LOOP('',(#862,#863,#864,#865,#866,#867,#868,#869,#870,#871));
#160=EDGE_LOOP('',(#872,#873,#874,#875));
#161=EDGE_LOOP('',(#876,#877,#878,#879,#880,#881,#882,#883,#884,#885));
#162=EDGE_LOOP('',(#886));
#163=EDGE_LOOP('',(#887));
#164=EDGE_LOOP('',(#888));
#165=EDGE_LOOP('',(#889,#890,#891,#892));
#166=EDGE_LOOP('',(#893,#894,#895,#896));
#167=EDGE_LOOP('',(#897,#898,#899,#900));
#168=EDGE_LOOP('',(#901,#902,#903,#904));
#169=EDGE_LOOP('',(#905,#906,#907,#908));
#170=EDGE_LOOP('',(#909,#910,#911,#912));
#171=EDGE_LOOP('',(#913));
#172=EDGE_LOOP('',(#914,#915,#916,#917));
#173=EDGE_LOOP('',(#918));
#174=EDGE_LOOP('',(#919,#920,#921,#922));
#175=EDGE_LOOP('',(#923,#924,#925,#926));
#176=EDGE_LOOP('',(#927,#928,#929,#930));
#177=EDGE_LOOP('',(#931));
#178=EDGE_LOOP('',(#932));
#179=EDGE_LOOP('',(#933));
#180=EDGE_LOOP('',(#934,#935,#936,#937));
#181=EDGE_LOOP('',(#938,#939,#940,#941));
#182=EDGE_LOOP('',(#942,#943,#944,#945));
#183=EDGE_LOOP('',(#946,#947,#948,#949));
#184=EDGE_LOOP('',(#950,#951,#952,#953));
#185=EDGE_LOOP('',(#954,#955,#956,#957));
#186=EDGE_LOOP('',(#958,#959,#960,#961));
#187=EDGE_LOOP('',(#962,#963,#964,#965));
#188=EDGE_LOOP('',(#966,#967,#968,#969));
#189=EDGE_LOOP('',(#970,#971,#972,#973));
#190=EDGE_LOOP('',(#974,#975,#976,#977));
#191=EDGE_LOOP('',(#978,#979,#980,#981));
#192=EDGE_LOOP('',(#982,#983,#984,#985));
#193=EDGE_LOOP('',(#986,#987,#988,#989));
#194=EDGE_LOOP('',(#990,#991,#992,#993));
#195=EDGE_LOOP('',(#994,#995,#996,#997));
#196=EDGE_LOOP('',(#998,#999,#1000,#1001));
#197=EDGE_LOOP('',(#1002,#1003,#1004,#1005));
#198=EDGE_LOOP('',(#1006,#1007,#1008,#1009));
#199=EDGE_LOOP('',(#1010,#1011,#1012,#1013,#1014));
#200=EDGE_LOOP('',(#1015,#1016,#1017,#1018));
#201=CIRCLE('',#1123,4.);
#202=CIRCLE('',#1124,4.);
#203=CIRCLE('',#1126,4.);
#204=CIRCLE('',#1127,4.);
#205=CIRCLE('',#1128,4.);
#206=CIRCLE('',#1129,4.);
#207=CIRCLE('',#1130,4.);
#208=CIRCLE('',#1131,4.);
#209=CIRCLE('',#1132,4.);
#210=CIRCLE('',#1133,4.);
#211=CIRCLE('',#1134,1.75);
#212=CIRCLE('',#1135,1.75);
#213=CIRCLE('',#1136,1.75);
#214=CIRCLE('',#1139,5.4);
#215=CIRCLE('',#1140,5.4);
#216=CIRCLE('',#1149,1.75);
#217=CIRCLE('',#1151,1.75);
#218=CIRCLE('',#1154,1.75);
#219=CIRCLE('',#1156,4.);
#220=CIRCLE('',#1157,4.);
#221=CIRCLE('',#1158,4.);
#222=CIRCLE('',#1159,4.);
#223=CIRCLE('',#1160,4.);
#224=CIRCLE('',#1161,4.);
#225=CIRCLE('',#1162,4.);
#226=CIRCLE('',#1163,4.);
#227=CIRCLE('',#1164,4.);
#228=CIRCLE('',#1165,4.);
#229=CIRCLE('',#1166,4.);
#230=CIRCLE('',#1174,4.);
#231=CIRCLE('',#1175,4.);
#232=CIRCLE('',#1176,4.);
#233=CIRCLE('',#1177,4.);
#234=CIRCLE('',#1178,1.);
#235=CIRCLE('',#1179,0.999999999999998);
#236=CIRCLE('',#1182,8.);
#237=CIRCLE('',#1183,10.);
#238=CIRCLE('',#1184,10.);
#239=CIRCLE('',#1185,3.5);
#240=CIRCLE('',#1186,3.5);
#241=CIRCLE('',#1188,8.);
#242=CIRCLE('',#1189,10.);
#243=CIRCLE('',#1190,10.);
#244=CIRCLE('',#1191,1.3);
#245=CIRCLE('',#1192,1.29999999999999);
#246=CIRCLE('',#1193,2.49999999999999);
#247=CIRCLE('',#1197,2.49999999999999);
#248=CIRCLE('',#1201,0.999999999999998);
#249=CIRCLE('',#1204,1.);
#250=CIRCLE('',#1207,1.29999999999999);
#251=CIRCLE('',#1209,1.3);
#252=CIRCLE('',#1211,3.5);
#253=CIRCLE('',#1212,3.5);
#254=LINE('',#1572,#353);
#255=LINE('',#1574,#354);
#256=LINE('',#1576,#355);
#257=LINE('',#1580,#356);
#258=LINE('',#1585,#357);
#259=LINE('',#1589,#358);
#260=LINE('',#1593,#359);
#261=LINE('',#1597,#360);
#262=LINE('',#1601,#361);
#263=LINE('',#1605,#362);
#264=LINE('',#1609,#363);
#265=LINE('',#1613,#364);
#266=LINE('',#1623,#365);
#267=LINE('',#1625,#366);
#268=LINE('',#1626,#367);
#269=LINE('',#1631,#368);
#270=LINE('',#1636,#369);
#271=LINE('',#1637,#370);
#272=LINE('',#1639,#371);
#273=LINE('',#1641,#372);
#274=LINE('',#1642,#373);
#275=LINE('',#1645,#374);
#276=LINE('',#1647,#375);
#277=LINE('',#1648,#376);
#278=LINE('',#1651,#377);
#279=LINE('',#1653,#378);
#280=LINE('',#1654,#379);
#281=LINE('',#1657,#380);
#282=LINE('',#1659,#381);
#283=LINE('',#1660,#382);
#284=LINE('',#1663,#383);
#285=LINE('',#1665,#384);
#286=LINE('',#1666,#385);
#287=LINE('',#1669,#386);
#288=LINE('',#1671,#387);
#289=LINE('',#1672,#388);
#290=LINE('',#1675,#389);
#291=LINE('',#1677,#390);
#292=LINE('',#1678,#391);
#293=LINE('',#1682,#392);
#294=LINE('',#1686,#393);
#295=LINE('',#1689,#394);
#296=LINE('',#1691,#395);
#297=LINE('',#1693,#396);
#298=LINE('',#1695,#397);
#299=LINE('',#1696,#398);
#300=LINE('',#1700,#399);
#301=LINE('',#1707,#400);
#302=LINE('',#1714,#401);
#303=LINE('',#1716,#402);
#304=LINE('',#1718,#403);
#305=LINE('',#1726,#404);
#306=LINE('',#1728,#405);
#307=LINE('',#1730,#406);
#308=LINE('',#1731,#407);
#309=LINE('',#1734,#408);
#310=LINE('',#1736,#409);
#311=LINE('',#1737,#410);
#312=LINE('',#1740,#411);
#313=LINE('',#1742,#412);
#314=LINE('',#1743,#413);
#315=LINE('',#1746,#414);
#316=LINE('',#1748,#415);
#317=LINE('',#1749,#416);
#318=LINE('',#1752,#417);
#319=LINE('',#1754,#418);
#320=LINE('',#1755,#419);
#321=LINE('',#1757,#420);
#322=LINE('',#1758,#421);
#323=LINE('',#1763,#422);
#324=LINE('',#1774,#423);
#325=LINE('',#1777,#424);
#326=LINE('',#1778,#425);
#327=LINE('',#1779,#426);
#328=LINE('',#1783,#427);
#329=LINE('',#1787,#428);
#330=LINE('',#1791,#429);
#331=LINE('',#1796,#430);
#332=LINE('',#1800,#431);
#333=LINE('',#1804,#432);
#334=LINE('',#1807,#433);
#335=LINE('',#1809,#434);
#336=LINE('',#1810,#435);
#337=LINE('',#1818,#436);
#338=LINE('',#1819,#437);
#339=LINE('',#1821,#438);
#340=LINE('',#1822,#439);
#341=LINE('',#1826,#440);
#342=LINE('',#1832,#441);
#343=LINE('',#1837,#442);
#344=LINE('',#1841,#443);
#345=LINE('',#1845,#444);
#346=LINE('',#1850,#445);
#347=LINE('',#1854,#446);
#348=LINE('',#1857,#447);
#349=LINE('',#1858,#448);
#350=LINE('',#1860,#449);
#351=LINE('',#1861,#450);
#352=LINE('',#1883,#451);
#353=VECTOR('',#1241,19.6568542494924);
#354=VECTOR('',#1242,9.99999999999871);
#355=VECTOR('',#1243,6.34314575050763);
#356=VECTOR('',#1246,10.8284271247462);
#357=VECTOR('',#1251,7.05572808999955);
#358=VECTOR('',#1254,12.0452560133437);
#359=VECTOR('',#1257,24.7407350339483);
#360=VECTOR('',#1260,13.746286309416);
#361=VECTOR('',#1263,11.718529932096);
#362=VECTOR('',#1266,14.67591879244);
#363=VECTOR('',#1269,16.0806935165727);
#364=VECTOR('',#1272,5.94427190999917);
#365=VECTOR('',#1283,5.);
#366=VECTOR('',#1284,5.94427190999917);
#367=VECTOR('',#1285,5.);
#368=VECTOR('',#1290,5.4);
#369=VECTOR('',#1295,22.4000000000037);
#370=VECTOR('',#1296,5.49999999999545);
#371=VECTOR('',#1297,5.);
#372=VECTOR('',#1298,2.74314575051125);
#373=VECTOR('',#1299,10.5);
#374=VECTOR('',#1302,5.);
#375=VECTOR('',#1303,10.8284271247462);
#376=VECTOR('',#1304,5.);
#377=VECTOR('',#1307,5.);
#378=VECTOR('',#1308,6.34314575050763);
#379=VECTOR('',#1309,5.);
#380=VECTOR('',#1312,5.);
#381=VECTOR('',#1313,16.0806935165727);
#382=VECTOR('',#1314,5.);
#383=VECTOR('',#1317,5.);
#384=VECTOR('',#1318,14.67591879244);
#385=VECTOR('',#1319,5.);
#386=VECTOR('',#1322,5.);
#387=VECTOR('',#1323,11.718529932096);
#388=VECTOR('',#1324,5.);
#389=VECTOR('',#1327,5.);
#390=VECTOR('',#1328,13.746286309416);
#391=VECTOR('',#1329,5.);
#392=VECTOR('',#1334,1.75);
#393=VECTOR('',#1339,1.75);
#394=VECTOR('',#1342,5.5);
#395=VECTOR('',#1343,27.);
#396=VECTOR('',#1344,10.5);
#397=VECTOR('',#1345,2.25926496605166);
#398=VECTOR('',#1346,5.);
#399=VECTOR('',#1351,1.75);
#400=VECTOR('',#1360,12.);
#401=VECTOR('',#1369,18.);
#402=VECTOR('',#1370,8.);
#403=VECTOR('',#1371,24.9442719099992);
#404=VECTOR('',#1382,9.);
#405=VECTOR('',#1383,13.);
#406=VECTOR('',#1384,9.);
#407=VECTOR('',#1385,13.);
#408=VECTOR('',#1388,23.);
#409=VECTOR('',#1389,9.);
#410=VECTOR('',#1390,23.);
#411=VECTOR('',#1393,13.);
#412=VECTOR('',#1394,9.);
#413=VECTOR('',#1395,13.);
#414=VECTOR('',#1398,10.5);
#415=VECTOR('',#1399,12.);
#416=VECTOR('',#1400,10.5);
#417=VECTOR('',#1403,5.5);
#418=VECTOR('',#1404,12.0452560133437);
#419=VECTOR('',#1405,5.5);
#420=VECTOR('',#1408,23.);
#421=VECTOR('',#1409,23.);
#422=VECTOR('',#1416,12.);
#423=VECTOR('',#1429,13.3205206202365);
#424=VECTOR('',#1432,19.3693817634679);
#425=VECTOR('',#1433,5.5);
#426=VECTOR('',#1434,5.);
#427=VECTOR('',#1437,8.);
#428=VECTOR('',#1440,7.);
#429=VECTOR('',#1443,7.);
#430=VECTOR('',#1448,13.223018791941);
#431=VECTOR('',#1451,13.3205206202365);
#432=VECTOR('',#1454,8.00000000000001);
#433=VECTOR('',#1457,9.);
#434=VECTOR('',#1458,10.);
#435=VECTOR('',#1459,6.16666666666555);
#436=VECTOR('',#1468,8.);
#437=VECTOR('',#1469,8.);
#438=VECTOR('',#1472,8.);
#439=VECTOR('',#1473,8.);
#440=VECTOR('',#1478,2.49999999999999);
#441=VECTOR('',#1487,0.999999999999998);
#442=VECTOR('',#1494,1.);
#443=VECTOR('',#1499,1.29999999999999);
#444=VECTOR('',#1504,1.3);
#445=VECTOR('',#1509,7.);
#446=VECTOR('',#1512,7.);
#447=VECTOR('',#1517,3.);
#448=VECTOR('',#1518,3.);
#449=VECTOR('',#1521,3.);
#450=VECTOR('',#1522,3.);
#451=VECTOR('',#1565,8.);
#452=VERTEX_POINT('',#1570);
#453=VERTEX_POINT('',#1571);
#454=VERTEX_POINT('',#1573);
#455=VERTEX_POINT('',#1575);
#456=VERTEX_POINT('',#1577);
#457=VERTEX_POINT('',#1579);
#458=VERTEX_POINT('',#1583);
#459=VERTEX_POINT('',#1584);
#460=VERTEX_POINT('',#1586);
#461=VERTEX_POINT('',#1588);
#462=VERTEX_POINT('',#1590);
#463=VERTEX_POINT('',#1592);
#464=VERTEX_POINT('',#1594);
#465=VERTEX_POINT('',#1596);
#466=VERTEX_POINT('',#1598);
#467=VERTEX_POINT('',#1600);
#468=VERTEX_POINT('',#1602);
#469=VERTEX_POINT('',#1604);
#470=VERTEX_POINT('',#1606);
#471=VERTEX_POINT('',#1608);
#472=VERTEX_POINT('',#1610);
#473=VERTEX_POINT('',#1612);
#474=VERTEX_POINT('',#1615);
#475=VERTEX_POINT('',#1617);
#476=VERTEX_POINT('',#1619);
#477=VERTEX_POINT('',#1622);
#478=VERTEX_POINT('',#1624);
#479=VERTEX_POINT('',#1628);
#480=VERTEX_POINT('',#1630);
#481=VERTEX_POINT('',#1634);
#482=VERTEX_POINT('',#1635);
#483=VERTEX_POINT('',#1638);
#484=VERTEX_POINT('',#1640);
#485=VERTEX_POINT('',#1644);
#486=VERTEX_POINT('',#1646);
#487=VERTEX_POINT('',#1650);
#488=VERTEX_POINT('',#1652);
#489=VERTEX_POINT('',#1656);
#490=VERTEX_POINT('',#1658);
#491=VERTEX_POINT('',#1662);
#492=VERTEX_POINT('',#1664);
#493=VERTEX_POINT('',#1668);
#494=VERTEX_POINT('',#1670);
#495=VERTEX_POINT('',#1674);
#496=VERTEX_POINT('',#1676);
#497=VERTEX_POINT('',#1680);
#498=VERTEX_POINT('',#1684);
#499=VERTEX_POINT('',#1688);
#500=VERTEX_POINT('',#1690);
#501=VERTEX_POINT('',#1692);
#502=VERTEX_POINT('',#1694);
#503=VERTEX_POINT('',#1698);
#504=VERTEX_POINT('',#1704);
#505=VERTEX_POINT('',#1706);
#506=VERTEX_POINT('',#1711);
#507=VERTEX_POINT('',#1713);
#508=VERTEX_POINT('',#1715);
#509=VERTEX_POINT('',#1717);
#510=VERTEX_POINT('',#1724);
#511=VERTEX_POINT('',#1725);
#512=VERTEX_POINT('',#1727);
#513=VERTEX_POINT('',#1729);
#514=VERTEX_POINT('',#1733);
#515=VERTEX_POINT('',#1735);
#516=VERTEX_POINT('',#1739);
#517=VERTEX_POINT('',#1741);
#518=VERTEX_POINT('',#1745);
#519=VERTEX_POINT('',#1747);
#520=VERTEX_POINT('',#1751);
#521=VERTEX_POINT('',#1753);
#522=VERTEX_POINT('',#1761);
#523=VERTEX_POINT('',#1766);
#524=VERTEX_POINT('',#1768);
#525=VERTEX_POINT('',#1772);
#526=VERTEX_POINT('',#1773);
#527=VERTEX_POINT('',#1775);
#528=VERTEX_POINT('',#1780);
#529=VERTEX_POINT('',#1782);
#530=VERTEX_POINT('',#1785);
#531=VERTEX_POINT('',#1786);
#532=VERTEX_POINT('',#1788);
#533=VERTEX_POINT('',#1790);
#534=VERTEX_POINT('',#1794);
#535=VERTEX_POINT('',#1795);
#536=VERTEX_POINT('',#1797);
#537=VERTEX_POINT('',#1799);
#538=VERTEX_POINT('',#1801);
#539=VERTEX_POINT('',#1803);
#540=VERTEX_POINT('',#1806);
#541=VERTEX_POINT('',#1808);
#542=VERTEX_POINT('',#1811);
#543=VERTEX_POINT('',#1813);
#544=VERTEX_POINT('',#1815);
#545=VERTEX_POINT('',#1824);
#546=VERTEX_POINT('',#1830);
#547=VERTEX_POINT('',#1835);
#548=VERTEX_POINT('',#1840);
#549=VERTEX_POINT('',#1844);
#550=VERTEX_POINT('',#1848);
#551=VERTEX_POINT('',#1849);
#552=VERTEX_POINT('',#1851);
#553=VERTEX_POINT('',#1853);
#554=EDGE_CURVE('',#452,#453,#254,.T.);
#555=EDGE_CURVE('',#452,#454,#255,.T.);
#556=EDGE_CURVE('',#454,#455,#256,.T.);
#557=EDGE_CURVE('',#455,#456,#201,.F.);
#558=EDGE_CURVE('',#456,#457,#257,.T.);
#559=EDGE_CURVE('',#457,#453,#202,.T.);
#560=EDGE_CURVE('',#458,#459,#258,.T.);
#561=EDGE_CURVE('',#458,#460,#203,.F.);
#562=EDGE_CURVE('',#460,#461,#259,.T.);
#563=EDGE_CURVE('',#461,#462,#204,.T.);
#564=EDGE_CURVE('',#463,#462,#260,.T.);
#565=EDGE_CURVE('',#463,#464,#205,.T.);
#566=EDGE_CURVE('',#465,#464,#261,.T.);
#567=EDGE_CURVE('',#465,#466,#206,.F.);
#568=EDGE_CURVE('',#467,#466,#262,.T.);
#569=EDGE_CURVE('',#467,#468,#207,.F.);
#570=EDGE_CURVE('',#469,#468,#263,.T.);
#571=EDGE_CURVE('',#469,#470,#208,.F.);
#572=EDGE_CURVE('',#470,#471,#264,.T.);
#573=EDGE_CURVE('',#471,#472,#209,.F.);
#574=EDGE_CURVE('',#472,#473,#265,.T.);
#575=EDGE_CURVE('',#473,#459,#210,.T.);
#576=EDGE_CURVE('',#474,#474,#211,.T.);
#577=EDGE_CURVE('',#475,#475,#212,.T.);
#578=EDGE_CURVE('',#476,#476,#213,.T.);
#579=EDGE_CURVE('',#472,#477,#266,.F.);
#580=EDGE_CURVE('',#477,#478,#267,.T.);
#581=EDGE_CURVE('',#478,#473,#268,.T.);
#582=EDGE_CURVE('',#479,#479,#214,.T.);
#583=EDGE_CURVE('',#479,#480,#269,.T.);
#584=EDGE_CURVE('',#480,#480,#215,.F.);
#585=EDGE_CURVE('',#481,#482,#270,.T.);
#586=EDGE_CURVE('',#481,#452,#271,.T.);
#587=EDGE_CURVE('',#453,#483,#272,.F.);
#588=EDGE_CURVE('',#483,#484,#273,.T.);
#589=EDGE_CURVE('',#484,#482,#274,.F.);
#590=EDGE_CURVE('',#456,#485,#275,.F.);
#591=EDGE_CURVE('',#485,#486,#276,.T.);
#592=EDGE_CURVE('',#486,#457,#277,.T.);
#593=EDGE_CURVE('',#454,#487,#278,.F.);
#594=EDGE_CURVE('',#487,#488,#279,.T.);
#595=EDGE_CURVE('',#488,#455,#280,.T.);
#596=EDGE_CURVE('',#470,#489,#281,.F.);
#597=EDGE_CURVE('',#489,#490,#282,.T.);
#598=EDGE_CURVE('',#490,#471,#283,.T.);
#599=EDGE_CURVE('',#468,#491,#284,.F.);
#600=EDGE_CURVE('',#492,#491,#285,.T.);
#601=EDGE_CURVE('',#492,#469,#286,.T.);
#602=EDGE_CURVE('',#466,#493,#287,.F.);
#603=EDGE_CURVE('',#494,#493,#288,.T.);
#604=EDGE_CURVE('',#494,#467,#289,.T.);
#605=EDGE_CURVE('',#464,#495,#290,.F.);
#606=EDGE_CURVE('',#496,#495,#291,.T.);
#607=EDGE_CURVE('',#496,#465,#292,.T.);
#608=EDGE_CURVE('',#497,#497,#216,.T.);
#609=EDGE_CURVE('',#497,#475,#293,.T.);
#610=EDGE_CURVE('',#498,#498,#217,.T.);
#611=EDGE_CURVE('',#498,#476,#294,.T.);
#612=EDGE_CURVE('',#462,#499,#295,.F.);
#613=EDGE_CURVE('',#500,#499,#296,.T.);
#614=EDGE_CURVE('',#500,#501,#297,.T.);
#615=EDGE_CURVE('',#502,#501,#298,.T.);
#616=EDGE_CURVE('',#502,#463,#299,.T.);
#617=EDGE_CURVE('',#503,#503,#218,.T.);
#618=EDGE_CURVE('',#503,#474,#300,.T.);
#619=EDGE_CURVE('',#493,#496,#219,.T.);
#620=EDGE_CURVE('',#495,#502,#220,.F.);
#621=EDGE_CURVE('',#501,#504,#221,.T.);
#622=EDGE_CURVE('',#504,#505,#301,.T.);
#623=EDGE_CURVE('',#505,#484,#222,.T.);
#624=EDGE_CURVE('',#483,#486,#223,.F.);
#625=EDGE_CURVE('',#485,#488,#224,.T.);
#626=EDGE_CURVE('',#487,#506,#225,.F.);
#627=EDGE_CURVE('',#506,#507,#302,.T.);
#628=EDGE_CURVE('',#507,#508,#303,.T.);
#629=EDGE_CURVE('',#509,#508,#304,.T.);
#630=EDGE_CURVE('',#509,#478,#226,.F.);
#631=EDGE_CURVE('',#477,#490,#227,.T.);
#632=EDGE_CURVE('',#489,#492,#228,.T.);
#633=EDGE_CURVE('',#491,#494,#229,.T.);
#634=EDGE_CURVE('',#510,#511,#305,.T.);
#635=EDGE_CURVE('',#511,#512,#306,.T.);
#636=EDGE_CURVE('',#513,#512,#307,.T.);
#637=EDGE_CURVE('',#513,#510,#308,.T.);
#638=EDGE_CURVE('',#514,#512,#309,.T.);
#639=EDGE_CURVE('',#515,#514,#310,.T.);
#640=EDGE_CURVE('',#515,#513,#311,.T.);
#641=EDGE_CURVE('',#516,#514,#312,.T.);
#642=EDGE_CURVE('',#517,#516,#313,.T.);
#643=EDGE_CURVE('',#515,#517,#314,.T.);
#644=EDGE_CURVE('',#504,#518,#315,.F.);
#645=EDGE_CURVE('',#519,#518,#316,.T.);
#646=EDGE_CURVE('',#519,#505,#317,.T.);
#647=EDGE_CURVE('',#460,#520,#318,.T.);
#648=EDGE_CURVE('',#520,#521,#319,.T.);
#649=EDGE_CURVE('',#521,#461,#320,.T.);
#650=EDGE_CURVE('',#516,#511,#321,.T.);
#651=EDGE_CURVE('',#517,#510,#322,.T.);
#652=EDGE_CURVE('',#499,#521,#230,.T.);
#653=EDGE_CURVE('',#520,#522,#231,.F.);
#654=EDGE_CURVE('',#522,#481,#323,.T.);
#655=EDGE_CURVE('',#482,#519,#232,.T.);
#656=EDGE_CURVE('',#518,#500,#233,.T.);
#657=EDGE_CURVE('',#523,#523,#234,.T.);
#658=EDGE_CURVE('',#524,#524,#235,.T.);
#659=EDGE_CURVE('',#525,#526,#324,.T.);
#660=EDGE_CURVE('',#525,#527,#236,.F.);
#661=EDGE_CURVE('',#522,#527,#325,.T.);
#662=EDGE_CURVE('',#522,#458,#326,.T.);
#663=EDGE_CURVE('',#459,#509,#327,.F.);
#664=EDGE_CURVE('',#508,#528,#237,.F.);
#665=EDGE_CURVE('',#528,#529,#328,.T.);
#666=EDGE_CURVE('',#529,#526,#238,.F.);
#667=EDGE_CURVE('',#530,#531,#329,.T.);
#668=EDGE_CURVE('',#530,#532,#239,.T.);
#669=EDGE_CURVE('',#533,#532,#330,.T.);
#670=EDGE_CURVE('',#533,#531,#240,.T.);
#671=EDGE_CURVE('',#534,#535,#331,.T.);
#672=EDGE_CURVE('',#535,#536,#241,.T.);
#673=EDGE_CURVE('',#536,#537,#332,.T.);
#674=EDGE_CURVE('',#537,#538,#242,.T.);
#675=EDGE_CURVE('',#539,#538,#333,.T.);
#676=EDGE_CURVE('',#539,#507,#243,.T.);
#677=EDGE_CURVE('',#506,#540,#334,.T.);
#678=EDGE_CURVE('',#540,#541,#335,.F.);
#679=EDGE_CURVE('',#541,#534,#336,.F.);
#680=EDGE_CURVE('',#542,#542,#244,.F.);
#681=EDGE_CURVE('',#543,#543,#245,.F.);
#682=EDGE_CURVE('',#544,#544,#246,.T.);
#683=EDGE_CURVE('',#536,#525,#337,.T.);
#684=EDGE_CURVE('',#526,#537,#338,.F.);
#685=EDGE_CURVE('',#538,#529,#339,.T.);
#686=EDGE_CURVE('',#528,#539,#340,.F.);
#687=EDGE_CURVE('',#545,#545,#247,.F.);
#688=EDGE_CURVE('',#545,#544,#341,.T.);
#689=EDGE_CURVE('',#546,#546,#248,.T.);
#690=EDGE_CURVE('',#546,#524,#342,.T.);
#691=EDGE_CURVE('',#547,#547,#249,.T.);
#692=EDGE_CURVE('',#547,#523,#343,.T.);
#693=EDGE_CURVE('',#543,#548,#344,.T.);
#694=EDGE_CURVE('',#548,#548,#250,.F.);
#695=EDGE_CURVE('',#542,#549,#345,.T.);
#696=EDGE_CURVE('',#549,#549,#251,.F.);
#697=EDGE_CURVE('',#550,#551,#346,.T.);
#698=EDGE_CURVE('',#551,#552,#252,.F.);
#699=EDGE_CURVE('',#552,#553,#347,.T.);
#700=EDGE_CURVE('',#553,#550,#253,.F.);
#701=EDGE_CURVE('',#532,#551,#348,.F.);
#702=EDGE_CURVE('',#550,#533,#349,.T.);
#703=EDGE_CURVE('',#552,#530,#350,.T.);
#704=EDGE_CURVE('',#531,#553,#351,.F.);
#705=EDGE_CURVE('',#540,#454,#15,.T.);
#706=EDGE_CURVE('',#541,#452,#16,.F.);
#707=EDGE_CURVE('',#534,#481,#17,.T.);
#708=EDGE_CURVE('',#527,#535,#352,.F.);
#709=ORIENTED_EDGE('',*,*,#554,.F.);
#710=ORIENTED_EDGE('',*,*,#555,.T.);
#711=ORIENTED_EDGE('',*,*,#556,.T.);
#712=ORIENTED_EDGE('',*,*,#557,.T.);
#713=ORIENTED_EDGE('',*,*,#558,.T.);
#714=ORIENTED_EDGE('',*,*,#559,.T.);
#715=ORIENTED_EDGE('',*,*,#560,.F.);
#716=ORIENTED_EDGE('',*,*,#561,.T.);
#717=ORIENTED_EDGE('',*,*,#562,.T.);
#718=ORIENTED_EDGE('',*,*,#563,.T.);
#719=ORIENTED_EDGE('',*,*,#564,.F.);
#720=ORIENTED_EDGE('',*,*,#565,.T.);
#721=ORIENTED_EDGE('',*,*,#566,.F.);
#722=ORIENTED_EDGE('',*,*,#567,.T.);
#723=ORIENTED_EDGE('',*,*,#568,.F.);
#724=ORIENTED_EDGE('',*,*,#569,.T.);
#725=ORIENTED_EDGE('',*,*,#570,.F.);
#726=ORIENTED_EDGE('',*,*,#571,.T.);
#727=ORIENTED_EDGE('',*,*,#572,.T.);
#728=ORIENTED_EDGE('',*,*,#573,.T.);
#729=ORIENTED_EDGE('',*,*,#574,.T.);
#730=ORIENTED_EDGE('',*,*,#575,.T.);
#731=ORIENTED_EDGE('',*,*,#576,.T.);
#732=ORIENTED_EDGE('',*,*,#577,.T.);
#733=ORIENTED_EDGE('',*,*,#578,.T.);
#734=ORIENTED_EDGE('',*,*,#574,.F.);
#735=ORIENTED_EDGE('',*,*,#579,.T.);
#736=ORIENTED_EDGE('',*,*,#580,.T.);
#737=ORIENTED_EDGE('',*,*,#581,.T.);
#738=ORIENTED_EDGE('',*,*,#582,.T.);
#739=ORIENTED_EDGE('',*,*,#583,.T.);
#740=ORIENTED_EDGE('',*,*,#584,.F.);
#741=ORIENTED_EDGE('',*,*,#583,.F.);
#742=ORIENTED_EDGE('',*,*,#585,.F.);
#743=ORIENTED_EDGE('',*,*,#586,.T.);
#744=ORIENTED_EDGE('',*,*,#554,.T.);
#745=ORIENTED_EDGE('',*,*,#587,.T.);
#746=ORIENTED_EDGE('',*,*,#588,.T.);
#747=ORIENTED_EDGE('',*,*,#589,.T.);
#748=ORIENTED_EDGE('',*,*,#558,.F.);
#749=ORIENTED_EDGE('',*,*,#590,.T.);
#750=ORIENTED_EDGE('',*,*,#591,.T.);
#751=ORIENTED_EDGE('',*,*,#592,.T.);
#752=ORIENTED_EDGE('',*,*,#556,.F.);
#753=ORIENTED_EDGE('',*,*,#593,.T.);
#754=ORIENTED_EDGE('',*,*,#594,.T.);
#755=ORIENTED_EDGE('',*,*,#595,.T.);
#756=ORIENTED_EDGE('',*,*,#572,.F.);
#757=ORIENTED_EDGE('',*,*,#596,.T.);
#758=ORIENTED_EDGE('',*,*,#597,.T.);
#759=ORIENTED_EDGE('',*,*,#598,.T.);
#760=ORIENTED_EDGE('',*,*,#570,.T.);
#761=ORIENTED_EDGE('',*,*,#599,.T.);
#762=ORIENTED_EDGE('',*,*,#600,.F.);
#763=ORIENTED_EDGE('',*,*,#601,.T.);
#764=ORIENTED_EDGE('',*,*,#568,.T.);
#765=ORIENTED_EDGE('',*,*,#602,.T.);
#766=ORIENTED_EDGE('',*,*,#603,.F.);
#767=ORIENTED_EDGE('',*,*,#604,.T.);
#768=ORIENTED_EDGE('',*,*,#566,.T.);
#769=ORIENTED_EDGE('',*,*,#605,.T.);
#770=ORIENTED_EDGE('',*,*,#606,.F.);
#771=ORIENTED_EDGE('',*,*,#607,.T.);
#772=ORIENTED_EDGE('',*,*,#608,.T.);
#773=ORIENTED_EDGE('',*,*,#609,.T.);
#774=ORIENTED_EDGE('',*,*,#577,.F.);
#775=ORIENTED_EDGE('',*,*,#609,.F.);
#776=ORIENTED_EDGE('',*,*,#610,.T.);
#777=ORIENTED_EDGE('',*,*,#611,.T.);
#778=ORIENTED_EDGE('',*,*,#578,.F.);
#779=ORIENTED_EDGE('',*,*,#611,.F.);
#780=ORIENTED_EDGE('',*,*,#564,.T.);
#781=ORIENTED_EDGE('',*,*,#612,.T.);
#782=ORIENTED_EDGE('',*,*,#613,.F.);
#783=ORIENTED_EDGE('',*,*,#614,.T.);
#784=ORIENTED_EDGE('',*,*,#615,.F.);
#785=ORIENTED_EDGE('',*,*,#616,.T.);
#786=ORIENTED_EDGE('',*,*,#617,.T.);
#787=ORIENTED_EDGE('',*,*,#618,.T.);
#788=ORIENTED_EDGE('',*,*,#576,.F.);
#789=ORIENTED_EDGE('',*,*,#618,.F.);
#790=ORIENTED_EDGE('',*,*,#603,.T.);
#791=ORIENTED_EDGE('',*,*,#619,.T.);
#792=ORIENTED_EDGE('',*,*,#606,.T.);
#793=ORIENTED_EDGE('',*,*,#620,.T.);
#794=ORIENTED_EDGE('',*,*,#615,.T.);
#795=ORIENTED_EDGE('',*,*,#621,.T.);
#796=ORIENTED_EDGE('',*,*,#622,.T.);
#797=ORIENTED_EDGE('',*,*,#623,.T.);
#798=ORIENTED_EDGE('',*,*,#588,.F.);
#799=ORIENTED_EDGE('',*,*,#624,.T.);
#800=ORIENTED_EDGE('',*,*,#591,.F.);
#801=ORIENTED_EDGE('',*,*,#625,.T.);
#802=ORIENTED_EDGE('',*,*,#594,.F.);
#803=ORIENTED_EDGE('',*,*,#626,.T.);
#804=ORIENTED_EDGE('',*,*,#627,.T.);
#805=ORIENTED_EDGE('',*,*,#628,.T.);
#806=ORIENTED_EDGE('',*,*,#629,.F.);
#807=ORIENTED_EDGE('',*,*,#630,.T.);
#808=ORIENTED_EDGE('',*,*,#580,.F.);
#809=ORIENTED_EDGE('',*,*,#631,.T.);
#810=ORIENTED_EDGE('',*,*,#597,.F.);
#811=ORIENTED_EDGE('',*,*,#632,.T.);
#812=ORIENTED_EDGE('',*,*,#600,.T.);
#813=ORIENTED_EDGE('',*,*,#633,.T.);
#814=ORIENTED_EDGE('',*,*,#582,.F.);
#815=ORIENTED_EDGE('',*,*,#610,.F.);
#816=ORIENTED_EDGE('',*,*,#608,.F.);
#817=ORIENTED_EDGE('',*,*,#617,.F.);
#818=ORIENTED_EDGE('',*,*,#634,.T.);
#819=ORIENTED_EDGE('',*,*,#635,.T.);
#820=ORIENTED_EDGE('',*,*,#636,.F.);
#821=ORIENTED_EDGE('',*,*,#637,.T.);
#822=ORIENTED_EDGE('',*,*,#636,.T.);
#823=ORIENTED_EDGE('',*,*,#638,.F.);
#824=ORIENTED_EDGE('',*,*,#639,.F.);
#825=ORIENTED_EDGE('',*,*,#640,.T.);
#826=ORIENTED_EDGE('',*,*,#639,.T.);
#827=ORIENTED_EDGE('',*,*,#641,.F.);
#828=ORIENTED_EDGE('',*,*,#642,.F.);
#829=ORIENTED_EDGE('',*,*,#643,.F.);
#830=ORIENTED_EDGE('',*,*,#622,.F.);
#831=ORIENTED_EDGE('',*,*,#644,.T.);
#832=ORIENTED_EDGE('',*,*,#645,.F.);
#833=ORIENTED_EDGE('',*,*,#646,.T.);
#834=ORIENTED_EDGE('',*,*,#562,.F.);
#835=ORIENTED_EDGE('',*,*,#647,.T.);
#836=ORIENTED_EDGE('',*,*,#648,.T.);
#837=ORIENTED_EDGE('',*,*,#649,.T.);
#838=ORIENTED_EDGE('',*,*,#642,.T.);
#839=ORIENTED_EDGE('',*,*,#650,.T.);
#840=ORIENTED_EDGE('',*,*,#634,.F.);
#841=ORIENTED_EDGE('',*,*,#651,.F.);
#842=ORIENTED_EDGE('',*,*,#613,.T.);
#843=ORIENTED_EDGE('',*,*,#652,.T.);
#844=ORIENTED_EDGE('',*,*,#648,.F.);
#845=ORIENTED_EDGE('',*,*,#653,.T.);
#846=ORIENTED_EDGE('',*,*,#654,.T.);
#847=ORIENTED_EDGE('',*,*,#585,.T.);
#848=ORIENTED_EDGE('',*,*,#655,.T.);
#849=ORIENTED_EDGE('',*,*,#645,.T.);
#850=ORIENTED_EDGE('',*,*,#656,.T.);
#851=ORIENTED_EDGE('',*,*,#637,.F.);
#852=ORIENTED_EDGE('',*,*,#640,.F.);
#853=ORIENTED_EDGE('',*,*,#643,.T.);
#854=ORIENTED_EDGE('',*,*,#651,.T.);
#855=ORIENTED_EDGE('',*,*,#657,.F.);
#856=ORIENTED_EDGE('',*,*,#658,.F.);
#857=ORIENTED_EDGE('',*,*,#641,.T.);
#858=ORIENTED_EDGE('',*,*,#638,.T.);
#859=ORIENTED_EDGE('',*,*,#635,.F.);
#860=ORIENTED_EDGE('',*,*,#650,.F.);
#861=ORIENTED_EDGE('',*,*,#584,.T.);
#862=ORIENTED_EDGE('',*,*,#659,.F.);
#863=ORIENTED_EDGE('',*,*,#660,.T.);
#864=ORIENTED_EDGE('',*,*,#661,.F.);
#865=ORIENTED_EDGE('',*,*,#662,.T.);
#866=ORIENTED_EDGE('',*,*,#560,.T.);
#867=ORIENTED_EDGE('',*,*,#663,.T.);
#868=ORIENTED_EDGE('',*,*,#629,.T.);
#869=ORIENTED_EDGE('',*,*,#664,.T.);
#870=ORIENTED_EDGE('',*,*,#665,.T.);
#871=ORIENTED_EDGE('',*,*,#666,.T.);
#872=ORIENTED_EDGE('',*,*,#667,.F.);
#873=ORIENTED_EDGE('',*,*,#668,.T.);
#874=ORIENTED_EDGE('',*,*,#669,.F.);
#875=ORIENTED_EDGE('',*,*,#670,.T.);
#876=ORIENTED_EDGE('',*,*,#671,.T.);
#877=ORIENTED_EDGE('',*,*,#672,.T.);
#878=ORIENTED_EDGE('',*,*,#673,.T.);
#879=ORIENTED_EDGE('',*,*,#674,.T.);
#880=ORIENTED_EDGE('',*,*,#675,.F.);
#881=ORIENTED_EDGE('',*,*,#676,.T.);
#882=ORIENTED_EDGE('',*,*,#627,.F.);
#883=ORIENTED_EDGE('',*,*,#677,.T.);
#884=ORIENTED_EDGE('',*,*,#678,.T.);
#885=ORIENTED_EDGE('',*,*,#679,.T.);
#886=ORIENTED_EDGE('',*,*,#680,.T.);
#887=ORIENTED_EDGE('',*,*,#681,.T.);
#888=ORIENTED_EDGE('',*,*,#682,.F.);
#889=ORIENTED_EDGE('',*,*,#673,.F.);
#890=ORIENTED_EDGE('',*,*,#683,.T.);
#891=ORIENTED_EDGE('',*,*,#659,.T.);
#892=ORIENTED_EDGE('',*,*,#684,.T.);
#893=ORIENTED_EDGE('',*,*,#675,.T.);
#894=ORIENTED_EDGE('',*,*,#685,.T.);
#895=ORIENTED_EDGE('',*,*,#665,.F.);
#896=ORIENTED_EDGE('',*,*,#686,.T.);
#897=ORIENTED_EDGE('',*,*,#687,.T.);
#898=ORIENTED_EDGE('',*,*,#688,.T.);
#899=ORIENTED_EDGE('',*,*,#682,.T.);
#900=ORIENTED_EDGE('',*,*,#688,.F.);
#901=ORIENTED_EDGE('',*,*,#674,.F.);
#902=ORIENTED_EDGE('',*,*,#684,.F.);
#903=ORIENTED_EDGE('',*,*,#666,.F.);
#904=ORIENTED_EDGE('',*,*,#685,.F.);
#905=ORIENTED_EDGE('',*,*,#676,.F.);
#906=ORIENTED_EDGE('',*,*,#686,.F.);
#907=ORIENTED_EDGE('',*,*,#664,.F.);
#908=ORIENTED_EDGE('',*,*,#628,.F.);
#909=ORIENTED_EDGE('',*,*,#689,.F.);
#910=ORIENTED_EDGE('',*,*,#690,.T.);
#911=ORIENTED_EDGE('',*,*,#658,.T.);
#912=ORIENTED_EDGE('',*,*,#690,.F.);
#913=ORIENTED_EDGE('',*,*,#689,.T.);
#914=ORIENTED_EDGE('',*,*,#691,.F.);
#915=ORIENTED_EDGE('',*,*,#692,.T.);
#916=ORIENTED_EDGE('',*,*,#657,.T.);
#917=ORIENTED_EDGE('',*,*,#692,.F.);
#918=ORIENTED_EDGE('',*,*,#691,.T.);
#919=ORIENTED_EDGE('',*,*,#681,.F.);
#920=ORIENTED_EDGE('',*,*,#693,.T.);
#921=ORIENTED_EDGE('',*,*,#694,.T.);
#922=ORIENTED_EDGE('',*,*,#693,.F.);
#923=ORIENTED_EDGE('',*,*,#680,.F.);
#924=ORIENTED_EDGE('',*,*,#695,.T.);
#925=ORIENTED_EDGE('',*,*,#696,.T.);
#926=ORIENTED_EDGE('',*,*,#695,.F.);
#927=ORIENTED_EDGE('',*,*,#697,.T.);
#928=ORIENTED_EDGE('',*,*,#698,.T.);
#929=ORIENTED_EDGE('',*,*,#699,.T.);
#930=ORIENTED_EDGE('',*,*,#700,.T.);
#931=ORIENTED_EDGE('',*,*,#696,.F.);
#932=ORIENTED_EDGE('',*,*,#687,.F.);
#933=ORIENTED_EDGE('',*,*,#694,.F.);
#934=ORIENTED_EDGE('',*,*,#669,.T.);
#935=ORIENTED_EDGE('',*,*,#701,.T.);
#936=ORIENTED_EDGE('',*,*,#697,.F.);
#937=ORIENTED_EDGE('',*,*,#702,.T.);
#938=ORIENTED_EDGE('',*,*,#699,.F.);
#939=ORIENTED_EDGE('',*,*,#703,.T.);
#940=ORIENTED_EDGE('',*,*,#667,.T.);
#941=ORIENTED_EDGE('',*,*,#704,.T.);
#942=ORIENTED_EDGE('',*,*,#703,.F.);
#943=ORIENTED_EDGE('',*,*,#698,.F.);
#944=ORIENTED_EDGE('',*,*,#701,.F.);
#945=ORIENTED_EDGE('',*,*,#668,.F.);
#946=ORIENTED_EDGE('',*,*,#702,.F.);
#947=ORIENTED_EDGE('',*,*,#700,.F.);
#948=ORIENTED_EDGE('',*,*,#704,.F.);
#949=ORIENTED_EDGE('',*,*,#670,.F.);
#950=ORIENTED_EDGE('',*,*,#626,.F.);
#951=ORIENTED_EDGE('',*,*,#593,.F.);
#952=ORIENTED_EDGE('',*,*,#705,.F.);
#953=ORIENTED_EDGE('',*,*,#677,.F.);
#954=ORIENTED_EDGE('',*,*,#705,.T.);
#955=ORIENTED_EDGE('',*,*,#555,.F.);
#956=ORIENTED_EDGE('',*,*,#706,.F.);
#957=ORIENTED_EDGE('',*,*,#678,.F.);
#958=ORIENTED_EDGE('',*,*,#586,.F.);
#959=ORIENTED_EDGE('',*,*,#707,.F.);
#960=ORIENTED_EDGE('',*,*,#679,.F.);
#961=ORIENTED_EDGE('',*,*,#706,.T.);
#962=ORIENTED_EDGE('',*,*,#653,.F.);
#963=ORIENTED_EDGE('',*,*,#647,.F.);
#964=ORIENTED_EDGE('',*,*,#561,.F.);
#965=ORIENTED_EDGE('',*,*,#662,.F.);
#966=ORIENTED_EDGE('',*,*,#652,.F.);
#967=ORIENTED_EDGE('',*,*,#612,.F.);
#968=ORIENTED_EDGE('',*,*,#563,.F.);
#969=ORIENTED_EDGE('',*,*,#649,.F.);
#970=ORIENTED_EDGE('',*,*,#620,.F.);
#971=ORIENTED_EDGE('',*,*,#605,.F.);
#972=ORIENTED_EDGE('',*,*,#565,.F.);
#973=ORIENTED_EDGE('',*,*,#616,.F.);
#974=ORIENTED_EDGE('',*,*,#619,.F.);
#975=ORIENTED_EDGE('',*,*,#602,.F.);
#976=ORIENTED_EDGE('',*,*,#567,.F.);
#977=ORIENTED_EDGE('',*,*,#607,.F.);
#978=ORIENTED_EDGE('',*,*,#633,.F.);
#979=ORIENTED_EDGE('',*,*,#599,.F.);
#980=ORIENTED_EDGE('',*,*,#569,.F.);
#981=ORIENTED_EDGE('',*,*,#604,.F.);
#982=ORIENTED_EDGE('',*,*,#632,.F.);
#983=ORIENTED_EDGE('',*,*,#596,.F.);
#984=ORIENTED_EDGE('',*,*,#571,.F.);
#985=ORIENTED_EDGE('',*,*,#601,.F.);
#986=ORIENTED_EDGE('',*,*,#631,.F.);
#987=ORIENTED_EDGE('',*,*,#579,.F.);
#988=ORIENTED_EDGE('',*,*,#573,.F.);
#989=ORIENTED_EDGE('',*,*,#598,.F.);
#990=ORIENTED_EDGE('',*,*,#630,.F.);
#991=ORIENTED_EDGE('',*,*,#663,.F.);
#992=ORIENTED_EDGE('',*,*,#575,.F.);
#993=ORIENTED_EDGE('',*,*,#581,.F.);
#994=ORIENTED_EDGE('',*,*,#625,.F.);
#995=ORIENTED_EDGE('',*,*,#590,.F.);
#996=ORIENTED_EDGE('',*,*,#557,.F.);
#997=ORIENTED_EDGE('',*,*,#595,.F.);
#998=ORIENTED_EDGE('',*,*,#624,.F.);
#999=ORIENTED_EDGE('',*,*,#587,.F.);
#1000=ORIENTED_EDGE('',*,*,#559,.F.);
#1001=ORIENTED_EDGE('',*,*,#592,.F.);
#1002=ORIENTED_EDGE('',*,*,#656,.F.);
#1003=ORIENTED_EDGE('',*,*,#644,.F.);
#1004=ORIENTED_EDGE('',*,*,#621,.F.);
#1005=ORIENTED_EDGE('',*,*,#614,.F.);
#1006=ORIENTED_EDGE('',*,*,#655,.F.);
#1007=ORIENTED_EDGE('',*,*,#589,.F.);
#1008=ORIENTED_EDGE('',*,*,#623,.F.);
#1009=ORIENTED_EDGE('',*,*,#646,.F.);
#1010=ORIENTED_EDGE('',*,*,#661,.T.);
#1011=ORIENTED_EDGE('',*,*,#708,.T.);
#1012=ORIENTED_EDGE('',*,*,#671,.F.);
#1013=ORIENTED_EDGE('',*,*,#707,.T.);
#1014=ORIENTED_EDGE('',*,*,#654,.F.);
#1015=ORIENTED_EDGE('',*,*,#672,.F.);
#1016=ORIENTED_EDGE('',*,*,#708,.F.);
#1017=ORIENTED_EDGE('',*,*,#660,.F.);
#1018=ORIENTED_EDGE('',*,*,#683,.F.);
#1019=PLANE('',#1122);
#1020=PLANE('',#1125);
#1021=PLANE('',#1137);
#1022=PLANE('',#1141);
#1023=PLANE('',#1142);
#1024=PLANE('',#1143);
#1025=PLANE('',#1144);
#1026=PLANE('',#1145);
#1027=PLANE('',#1146);
#1028=PLANE('',#1147);
#1029=PLANE('',#1152);
#1030=PLANE('',#1155);
#1031=PLANE('',#1167);
#1032=PLANE('',#1168);
#1033=PLANE('',#1169);
#1034=PLANE('',#1170);
#1035=PLANE('',#1171);
#1036=PLANE('',#1172);
#1037=PLANE('',#1173);
#1038=PLANE('',#1180);
#1039=PLANE('',#1181);
#1040=PLANE('',#1187);
#1041=PLANE('',#1194);
#1042=PLANE('',#1195);
#1043=PLANE('',#1202);
#1044=PLANE('',#1205);
#1045=PLANE('',#1210);
#1046=PLANE('',#1213);
#1047=PLANE('',#1214);
#1048=PLANE('',#1235);
#1049=ADVANCED_FACE('',(#65),#1019,.F.);
#1050=ADVANCED_FACE('',(#66,#47,#48,#49),#1020,.F.);
#1051=ADVANCED_FACE('',(#67),#1021,.T.);
#1052=ADVANCED_FACE('',(#68),#18,.F.);
#1053=ADVANCED_FACE('',(#69),#1022,.T.);
#1054=ADVANCED_FACE('',(#70),#1023,.T.);
#1055=ADVANCED_FACE('',(#71),#1024,.T.);
#1056=ADVANCED_FACE('',(#72),#1025,.T.);
#1057=ADVANCED_FACE('',(#73),#1026,.F.);
#1058=ADVANCED_FACE('',(#74),#1027,.F.);
#1059=ADVANCED_FACE('',(#75),#1028,.F.);
#1060=ADVANCED_FACE('',(#76),#19,.F.);
#1061=ADVANCED_FACE('',(#77),#20,.F.);
#1062=ADVANCED_FACE('',(#78),#1029,.F.);
#1063=ADVANCED_FACE('',(#79),#21,.F.);
#1064=ADVANCED_FACE('',(#80,#50,#51,#52,#53),#1030,.T.);
#1065=ADVANCED_FACE('',(#81),#1031,.T.);
#1066=ADVANCED_FACE('',(#82),#1032,.T.);
#1067=ADVANCED_FACE('',(#83),#1033,.F.);
#1068=ADVANCED_FACE('',(#84),#1034,.F.);
#1069=ADVANCED_FACE('',(#85),#1035,.T.);
#1070=ADVANCED_FACE('',(#86),#1036,.F.);
#1071=ADVANCED_FACE('',(#87,#54,#55,#56),#1037,.T.);
#1072=ADVANCED_FACE('',(#88,#57),#1038,.T.);
#1073=ADVANCED_FACE('',(#89,#58),#1039,.F.);
#1074=ADVANCED_FACE('',(#90,#59,#60,#61),#1040,.T.);
#1075=ADVANCED_FACE('',(#91),#1041,.T.);
#1076=ADVANCED_FACE('',(#92),#1042,.F.);
#1077=ADVANCED_FACE('',(#93),#22,.F.);
#1078=ADVANCED_FACE('',(#94),#23,.T.);
#1079=ADVANCED_FACE('',(#95),#24,.T.);
#1080=ADVANCED_FACE('',(#96),#25,.F.);
#1081=ADVANCED_FACE('',(#97),#1043,.T.);
#1082=ADVANCED_FACE('',(#98),#26,.F.);
#1083=ADVANCED_FACE('',(#99),#1044,.T.);
#1084=ADVANCED_FACE('',(#100),#27,.F.);
#1085=ADVANCED_FACE('',(#101),#28,.F.);
#1086=ADVANCED_FACE('',(#102,#62,#63,#64),#1045,.F.);
#1087=ADVANCED_FACE('',(#103),#1046,.F.);
#1088=ADVANCED_FACE('',(#104),#1047,.F.);
#1089=ADVANCED_FACE('',(#105),#29,.F.);
#1090=ADVANCED_FACE('',(#106),#30,.F.);
#1091=ADVANCED_FACE('',(#107),#31,.F.);
#1092=ADVANCED_FACE('',(#108),#32,.F.);
#1093=ADVANCED_FACE('',(#109),#33,.F.);
#1094=ADVANCED_FACE('',(#110),#34,.F.);
#1095=ADVANCED_FACE('',(#111),#35,.T.);
#1096=ADVANCED_FACE('',(#112),#36,.F.);
#1097=ADVANCED_FACE('',(#113),#37,.T.);
#1098=ADVANCED_FACE('',(#114),#38,.T.);
#1099=ADVANCED_FACE('',(#115),#39,.T.);
#1100=ADVANCED_FACE('',(#116),#40,.T.);
#1101=ADVANCED_FACE('',(#117),#41,.F.);
#1102=ADVANCED_FACE('',(#118),#42,.T.);
#1103=ADVANCED_FACE('',(#119),#43,.F.);
#1104=ADVANCED_FACE('',(#120),#44,.T.);
#1105=ADVANCED_FACE('',(#121),#45,.T.);
#1106=ADVANCED_FACE('',(#122),#1048,.F.);
#1107=ADVANCED_FACE('',(#123),#46,.T.);
#1108=CLOSED_SHELL('',(#1049,#1050,#1051,#1052,#1053,#1054,#1055,#1056,
#1057,#1058,#1059,#1060,#1061,#1062,#1063,#1064,#1065,#1066,#1067,#1068,
#1069,#1070,#1071,#1072,#1073,#1074,#1075,#1076,#1077,#1078,#1079,#1080,
#1081,#1082,#1083,#1084,#1085,#1086,#1087,#1088,#1089,#1090,#1091,#1092,
#1093,#1094,#1095,#1096,#1097,#1098,#1099,#1100,#1101,#1102,#1103,#1104,
#1105,#1106,#1107));
#1109=DERIVED_UNIT_ELEMENT(#1111,1.);
#1110=DERIVED_UNIT_ELEMENT(#1890,-3.);
#1111=(
MASS_UNIT()
NAMED_UNIT(*)
SI_UNIT(.KILO.,.GRAM.)
);
#1112=DERIVED_UNIT((#1109,#1110));
#1113=MEASURE_REPRESENTATION_ITEM('density measure',
POSITIVE_RATIO_MEASURE(7850.),#1112);
#1114=PROPERTY_DEFINITION_REPRESENTATION(#1119,#1116);
#1115=PROPERTY_DEFINITION_REPRESENTATION(#1120,#1117);
#1116=REPRESENTATION('material name',(#1118),#1887);
#1117=REPRESENTATION('density',(#1113),#1887);
#1118=DESCRIPTIVE_REPRESENTATION_ITEM('Steel','Steel');
#1119=PROPERTY_DEFINITION('material property','material name',#1897);
#1120=PROPERTY_DEFINITION('material property','density of part',#1897);
#1121=AXIS2_PLACEMENT_3D('',#1568,#1237,#1238);
#1122=AXIS2_PLACEMENT_3D('',#1569,#1239,#1240);
#1123=AXIS2_PLACEMENT_3D('',#1578,#1244,#1245);
#1124=AXIS2_PLACEMENT_3D('',#1581,#1247,#1248);
#1125=AXIS2_PLACEMENT_3D('',#1582,#1249,#1250);
#1126=AXIS2_PLACEMENT_3D('',#1587,#1252,#1253);
#1127=AXIS2_PLACEMENT_3D('',#1591,#1255,#1256);
#1128=AXIS2_PLACEMENT_3D('',#1595,#1258,#1259);
#1129=AXIS2_PLACEMENT_3D('',#1599,#1261,#1262);
#1130=AXIS2_PLACEMENT_3D('',#1603,#1264,#1265);
#1131=AXIS2_PLACEMENT_3D('',#1607,#1267,#1268);
#1132=AXIS2_PLACEMENT_3D('',#1611,#1270,#1271);
#1133=AXIS2_PLACEMENT_3D('',#1614,#1273,#1274);
#1134=AXIS2_PLACEMENT_3D('',#1616,#1275,#1276);
#1135=AXIS2_PLACEMENT_3D('',#1618,#1277,#1278);
#1136=AXIS2_PLACEMENT_3D('',#1620,#1279,#1280);
#1137=AXIS2_PLACEMENT_3D('',#1621,#1281,#1282);
#1138=AXIS2_PLACEMENT_3D('',#1627,#1286,#1287);
#1139=AXIS2_PLACEMENT_3D('',#1629,#1288,#1289);
#1140=AXIS2_PLACEMENT_3D('',#1632,#1291,#1292);
#1141=AXIS2_PLACEMENT_3D('',#1633,#1293,#1294);
#1142=AXIS2_PLACEMENT_3D('',#1643,#1300,#1301);
#1143=AXIS2_PLACEMENT_3D('',#1649,#1305,#1306);
#1144=AXIS2_PLACEMENT_3D('',#1655,#1310,#1311);
#1145=AXIS2_PLACEMENT_3D('',#1661,#1315,#1316);
#1146=AXIS2_PLACEMENT_3D('',#1667,#1320,#1321);
#1147=AXIS2_PLACEMENT_3D('',#1673,#1325,#1326);
#1148=AXIS2_PLACEMENT_3D('',#1679,#1330,#1331);
#1149=AXIS2_PLACEMENT_3D('',#1681,#1332,#1333);
#1150=AXIS2_PLACEMENT_3D('',#1683,#1335,#1336);
#1151=AXIS2_PLACEMENT_3D('',#1685,#1337,#1338);
#1152=AXIS2_PLACEMENT_3D('',#1687,#1340,#1341);
#1153=AXIS2_PLACEMENT_3D('',#1697,#1347,#1348);
#1154=AXIS2_PLACEMENT_3D('',#1699,#1349,#1350);
#1155=AXIS2_PLACEMENT_3D('',#1701,#1352,#1353);
#1156=AXIS2_PLACEMENT_3D('',#1702,#1354,#1355);
#1157=AXIS2_PLACEMENT_3D('',#1703,#1356,#1357);
#1158=AXIS2_PLACEMENT_3D('',#1705,#1358,#1359);
#1159=AXIS2_PLACEMENT_3D('',#1708,#1361,#1362);
#1160=AXIS2_PLACEMENT_3D('',#1709,#1363,#1364);
#1161=AXIS2_PLACEMENT_3D('',#1710,#1365,#1366);
#1162=AXIS2_PLACEMENT_3D('',#1712,#1367,#1368);
#1163=AXIS2_PLACEMENT_3D('',#1719,#1372,#1373);
#1164=AXIS2_PLACEMENT_3D('',#1720,#1374,#1375);
#1165=AXIS2_PLACEMENT_3D('',#1721,#1376,#1377);
#1166=AXIS2_PLACEMENT_3D('',#1722,#1378,#1379);
#1167=AXIS2_PLACEMENT_3D('',#1723,#1380,#1381);
#1168=AXIS2_PLACEMENT_3D('',#1732,#1386,#1387);
#1169=AXIS2_PLACEMENT_3D('',#1738,#1391,#1392);
#1170=AXIS2_PLACEMENT_3D('',#1744,#1396,#1397);
#1171=AXIS2_PLACEMENT_3D('',#1750,#1401,#1402);
#1172=AXIS2_PLACEMENT_3D('',#1756,#1406,#1407);
#1173=AXIS2_PLACEMENT_3D('',#1759,#1410,#1411);
#1174=AXIS2_PLACEMENT_3D('',#1760,#1412,#1413);
#1175=AXIS2_PLACEMENT_3D('',#1762,#1414,#1415);
#1176=AXIS2_PLACEMENT_3D('',#1764,#1417,#1418);
#1177=AXIS2_PLACEMENT_3D('',#1765,#1419,#1420);
#1178=AXIS2_PLACEMENT_3D('',#1767,#1421,#1422);
#1179=AXIS2_PLACEMENT_3D('',#1769,#1423,#1424);
#1180=AXIS2_PLACEMENT_3D('',#1770,#1425,#1426);
#1181=AXIS2_PLACEMENT_3D('',#1771,#1427,#1428);
#1182=AXIS2_PLACEMENT_3D('',#1776,#1430,#1431);
#1183=AXIS2_PLACEMENT_3D('',#1781,#1435,#1436);
#1184=AXIS2_PLACEMENT_3D('',#1784,#1438,#1439);
#1185=AXIS2_PLACEMENT_3D('',#1789,#1441,#1442);
#1186=AXIS2_PLACEMENT_3D('',#1792,#1444,#1445);
#1187=AXIS2_PLACEMENT_3D('',#1793,#1446,#1447);
#1188=AXIS2_PLACEMENT_3D('',#1798,#1449,#1450);
#1189=AXIS2_PLACEMENT_3D('',#1802,#1452,#1453);
#1190=AXIS2_PLACEMENT_3D('',#1805,#1455,#1456);
#1191=AXIS2_PLACEMENT_3D('',#1812,#1460,#1461);
#1192=AXIS2_PLACEMENT_3D('',#1814,#1462,#1463);
#1193=AXIS2_PLACEMENT_3D('',#1816,#1464,#1465);
#1194=AXIS2_PLACEMENT_3D('',#1817,#1466,#1467);
#1195=AXIS2_PLACEMENT_3D('',#1820,#1470,#1471);
#1196=AXIS2_PLACEMENT_3D('',#1823,#1474,#1475);
#1197=AXIS2_PLACEMENT_3D('',#1825,#1476,#1477);
#1198=AXIS2_PLACEMENT_3D('',#1827,#1479,#1480);
#1199=AXIS2_PLACEMENT_3D('',#1828,#1481,#1482);
#1200=AXIS2_PLACEMENT_3D('',#1829,#1483,#1484);
#1201=AXIS2_PLACEMENT_3D('',#1831,#1485,#1486);
#1202=AXIS2_PLACEMENT_3D('',#1833,#1488,#1489);
#1203=AXIS2_PLACEMENT_3D('',#1834,#1490,#1491);
#1204=AXIS2_PLACEMENT_3D('',#1836,#1492,#1493);
#1205=AXIS2_PLACEMENT_3D('',#1838,#1495,#1496);
#1206=AXIS2_PLACEMENT_3D('',#1839,#1497,#1498);
#1207=AXIS2_PLACEMENT_3D('',#1842,#1500,#1501);
#1208=AXIS2_PLACEMENT_3D('',#1843,#1502,#1503);
#1209=AXIS2_PLACEMENT_3D('',#1846,#1505,#1506);
#1210=AXIS2_PLACEMENT_3D('',#1847,#1507,#1508);
#1211=AXIS2_PLACEMENT_3D('',#1852,#1510,#1511);
#1212=AXIS2_PLACEMENT_3D('',#1855,#1513,#1514);
#1213=AXIS2_PLACEMENT_3D('',#1856,#1515,#1516);
#1214=AXIS2_PLACEMENT_3D('',#1859,#1519,#1520);
#1215=AXIS2_PLACEMENT_3D('',#1862,#1523,#1524);
#1216=AXIS2_PLACEMENT_3D('',#1863,#1525,#1526);
#1217=AXIS2_PLACEMENT_3D('',#1864,#1527,#1528);
#1218=AXIS2_PLACEMENT_3D('',#1865,#1529,#1530);
#1219=AXIS2_PLACEMENT_3D('',#1866,#1531,#1532);
#1220=AXIS2_PLACEMENT_3D('',#1867,#1533,#1534);
#1221=AXIS2_PLACEMENT_3D('',#1868,#1535,#1536);
#1222=AXIS2_PLACEMENT_3D('',#1869,#1537,#1538);
#1223=AXIS2_PLACEMENT_3D('',#1870,#1539,#1540);
#1224=AXIS2_PLACEMENT_3D('',#1871,#1541,#1542);
#1225=AXIS2_PLACEMENT_3D('',#1872,#1543,#1544);
#1226=AXIS2_PLACEMENT_3D('',#1873,#1545,#1546);
#1227=AXIS2_PLACEMENT_3D('',#1874,#1547,#1548);
#1228=AXIS2_PLACEMENT_3D('',#1875,#1549,#1550);
#1229=AXIS2_PLACEMENT_3D('',#1876,#1551,#1552);
#1230=AXIS2_PLACEMENT_3D('',#1877,#1553,#1554);
#1231=AXIS2_PLACEMENT_3D('',#1878,#1555,#1556);
#1232=AXIS2_PLACEMENT_3D('',#1879,#1557,#1558);
#1233=AXIS2_PLACEMENT_3D('',#1880,#1559,#1560);
#1234=AXIS2_PLACEMENT_3D('',#1881,#1561,#1562);
#1235=AXIS2_PLACEMENT_3D('',#1882,#1563,#1564);
#1236=AXIS2_PLACEMENT_3D('',#1884,#1566,#1567);
#1237=DIRECTION('axis',(0.,0.,1.));
#1238=DIRECTION('refdir',(1.,0.,0.));
#1239=DIRECTION('center_axis',(0.,1.,0.));
#1240=DIRECTION('ref_axis',(0.,0.,1.));
#1241=DIRECTION('',(1.,0.,0.));
#1242=DIRECTION('',(0.,0.,-1.));
#1243=DIRECTION('',(1.,0.,0.));
#1244=DIRECTION('center_axis',(0.,1.,0.));
#1245=DIRECTION('ref_axis',(0.,0.,1.));
#1246=DIRECTION('',(0.707106781186548,0.,0.707106781186547));
#1247=DIRECTION('center_axis',(0.,1.,0.));
#1248=DIRECTION('ref_axis',(0.,0.,1.));
#1249=DIRECTION('center_axis',(0.,1.,0.));
#1250=DIRECTION('ref_axis',(0.,0.,1.));
#1251=DIRECTION('',(0.,0.,-1.));
#1252=DIRECTION('center_axis',(0.,1.,0.));
#1253=DIRECTION('ref_axis',(0.,0.,1.));
#1254=DIRECTION('',(0.,0.,1.));
#1255=DIRECTION('center_axis',(0.,1.,0.));
#1256=DIRECTION('ref_axis',(0.,0.,1.));
#1257=DIRECTION('',(-1.,0.,0.));
#1258=DIRECTION('center_axis',(0.,1.,0.));
#1259=DIRECTION('ref_axis',(0.,0.,1.));
#1260=DIRECTION('',(0.554700196225229,0.,-0.832050294337844));
#1261=DIRECTION('center_axis',(0.,1.,0.));
#1262=DIRECTION('ref_axis',(0.,0.,1.));
#1263=DIRECTION('',(1.,0.,0.));
#1264=DIRECTION('center_axis',(0.,1.,0.));
#1265=DIRECTION('ref_axis',(0.,0.,1.));
#1266=DIRECTION('',(0.554700196225229,0.,0.832050294337844));
#1267=DIRECTION('center_axis',(0.,1.,0.));
#1268=DIRECTION('ref_axis',(0.,0.,1.));
#1269=DIRECTION('',(0.,0.,-1.));
#1270=DIRECTION('center_axis',(0.,1.,0.));
#1271=DIRECTION('ref_axis',(0.,0.,1.));
#1272=DIRECTION('',(0.666666666666666,0.,-0.74535599249993));
#1273=DIRECTION('center_axis',(0.,1.,0.));
#1274=DIRECTION('ref_axis',(0.,0.,1.));
#1275=DIRECTION('center_axis',(0.,1.,0.));
#1276=DIRECTION('ref_axis',(0.,0.,1.));
#1277=DIRECTION('center_axis',(0.,1.,0.));
#1278=DIRECTION('ref_axis',(0.,0.,1.));
#1279=DIRECTION('center_axis',(0.,1.,0.));
#1280=DIRECTION('ref_axis',(0.,0.,1.));
#1281=DIRECTION('center_axis',(-0.74535599249993,0.,-0.666666666666667));
#1282=DIRECTION('ref_axis',(-0.666666666666667,0.,0.74535599249993));
#1283=DIRECTION('',(0.,-1.,0.));
#1284=DIRECTION('',(0.666666666666666,0.,-0.74535599249993));
#1285=DIRECTION('',(-2.22044604925031E-16,-1.,0.));
#1286=DIRECTION('center_axis',(0.,-1.,0.));
#1287=DIRECTION('ref_axis',(0.,0.,-1.));
#1288=DIRECTION('center_axis',(0.,1.,0.));
#1289=DIRECTION('ref_axis',(0.,0.,1.));
#1290=DIRECTION('',(0.,-1.,0.));
#1291=DIRECTION('center_axis',(0.,-1.,0.));
#1292=DIRECTION('ref_axis',(0.,0.,-1.));
#1293=DIRECTION('center_axis',(0.,0.,-1.));
#1294=DIRECTION('ref_axis',(-1.,0.,0.));
#1295=DIRECTION('',(1.,0.,0.));
#1296=DIRECTION('',(0.,1.,0.));
#1297=DIRECTION('',(0.,-1.,0.));
#1298=DIRECTION('',(1.,0.,0.));
#1299=DIRECTION('',(0.,1.,0.));
#1300=DIRECTION('center_axis',(0.707106781186547,0.,-0.707106781186548));
#1301=DIRECTION('ref_axis',(-0.707106781186548,0.,-0.707106781186547));
#1302=DIRECTION('',(0.,-1.,0.));
#1303=DIRECTION('',(0.707106781186548,0.,0.707106781186547));
#1304=DIRECTION('',(0.,-1.,0.));
#1305=DIRECTION('center_axis',(0.,0.,-1.));
#1306=DIRECTION('ref_axis',(-1.,0.,0.));
#1307=DIRECTION('',(0.,-1.,0.));
#1308=DIRECTION('',(1.,0.,0.));
#1309=DIRECTION('',(0.,-1.,0.));
#1310=DIRECTION('center_axis',(-1.,0.,0.));
#1311=DIRECTION('ref_axis',(0.,0.,1.));
#1312=DIRECTION('',(0.,-1.,0.));
#1313=DIRECTION('',(0.,0.,-1.));
#1314=DIRECTION('',(0.,-1.,0.));
#1315=DIRECTION('center_axis',(0.832050294337844,0.,-0.554700196225229));
#1316=DIRECTION('ref_axis',(-0.554700196225229,0.,-0.832050294337844));
#1317=DIRECTION('',(0.,-1.,0.));
#1318=DIRECTION('',(0.554700196225229,0.,0.832050294337844));
#1319=DIRECTION('',(0.,-1.,0.));
#1320=DIRECTION('center_axis',(0.,0.,-1.));
#1321=DIRECTION('ref_axis',(-1.,0.,0.));
#1322=DIRECTION('',(0.,-1.,0.));
#1323=DIRECTION('',(1.,0.,0.));
#1324=DIRECTION('',(0.,-1.,0.));
#1325=DIRECTION('center_axis',(-0.832050294337844,0.,-0.554700196225229));
#1326=DIRECTION('ref_axis',(-0.554700196225229,0.,0.832050294337844));
#1327=DIRECTION('',(0.,-1.,0.));
#1328=DIRECTION('',(0.554700196225229,0.,-0.832050294337844));
#1329=DIRECTION('',(0.,-1.,0.));
#1330=DIRECTION('center_axis',(0.,-1.,0.));
#1331=DIRECTION('ref_axis',(0.,0.,-1.));
#1332=DIRECTION('center_axis',(0.,1.,0.));
#1333=DIRECTION('ref_axis',(0.,0.,1.));
#1334=DIRECTION('',(0.,-1.,0.));
#1335=DIRECTION('center_axis',(0.,-1.,0.));
#1336=DIRECTION('ref_axis',(0.,0.,-1.));
#1337=DIRECTION('center_axis',(0.,1.,0.));
#1338=DIRECTION('ref_axis',(0.,0.,1.));
#1339=DIRECTION('',(0.,-1.,0.));
#1340=DIRECTION('center_axis',(0.,0.,-1.));
#1341=DIRECTION('ref_axis',(-1.,0.,0.));
#1342=DIRECTION('',(0.,1.,0.));
#1343=DIRECTION('',(-1.,0.,0.));
#1344=DIRECTION('',(0.,1.,0.));
#1345=DIRECTION('',(1.,0.,0.));
#1346=DIRECTION('',(0.,-1.,0.));
#1347=DIRECTION('center_axis',(0.,-1.,0.));
#1348=DIRECTION('ref_axis',(0.,0.,-1.));
#1349=DIRECTION('center_axis',(0.,1.,0.));
#1350=DIRECTION('ref_axis',(0.,0.,1.));
#1351=DIRECTION('',(0.,-1.,0.));
#1352=DIRECTION('center_axis',(0.,1.,0.));
#1353=DIRECTION('ref_axis',(0.,0.,1.));
#1354=DIRECTION('center_axis',(0.,1.,0.));
#1355=DIRECTION('ref_axis',(0.,0.,1.));
#1356=DIRECTION('center_axis',(0.,1.,0.));
#1357=DIRECTION('ref_axis',(0.,0.,1.));
#1358=DIRECTION('center_axis',(0.,1.,0.));
#1359=DIRECTION('ref_axis',(0.,0.,1.));
#1360=DIRECTION('',(0.,0.,-1.));
#1361=DIRECTION('center_axis',(0.,1.,0.));
#1362=DIRECTION('ref_axis',(0.,0.,1.));
#1363=DIRECTION('center_axis',(0.,1.,0.));
#1364=DIRECTION('ref_axis',(0.,0.,1.));
#1365=DIRECTION('center_axis',(0.,1.,0.));
#1366=DIRECTION('ref_axis',(0.,0.,1.));
#1367=DIRECTION('center_axis',(0.,1.,0.));
#1368=DIRECTION('ref_axis',(0.,0.,1.));
#1369=DIRECTION('',(0.,0.,-1.));
#1370=DIRECTION('',(-1.,0.,0.));
#1371=DIRECTION('',(0.,0.,-1.));
#1372=DIRECTION('center_axis',(0.,1.,0.));
#1373=DIRECTION('ref_axis',(0.,0.,1.));
#1374=DIRECTION('center_axis',(0.,1.,0.));
#1375=DIRECTION('ref_axis',(0.,0.,1.));
#1376=DIRECTION('center_axis',(0.,1.,0.));
#1377=DIRECTION('ref_axis',(0.,0.,1.));
#1378=DIRECTION('center_axis',(0.,1.,0.));
#1379=DIRECTION('ref_axis',(0.,0.,1.));
#1380=DIRECTION('center_axis',(-1.,0.,0.));
#1381=DIRECTION('ref_axis',(0.,0.,1.));
#1382=DIRECTION('',(0.,1.,0.));
#1383=DIRECTION('',(6.83214169000096E-16,0.,-1.));
#1384=DIRECTION('',(0.,1.,0.));
#1385=DIRECTION('',(0.,0.,1.));
#1386=DIRECTION('center_axis',(0.,0.,1.));
#1387=DIRECTION('ref_axis',(1.,0.,0.));
#1388=DIRECTION('',(1.,0.,0.));
#1389=DIRECTION('',(0.,1.,0.));
#1390=DIRECTION('',(1.,0.,0.));
#1391=DIRECTION('center_axis',(-1.,0.,0.));
#1392=DIRECTION('ref_axis',(0.,0.,1.));
#1393=DIRECTION('',(1.70803542250024E-16,0.,-1.));
#1394=DIRECTION('',(0.,1.,0.));
#1395=DIRECTION('',(0.,0.,1.));
#1396=DIRECTION('center_axis',(-1.,0.,0.));
#1397=DIRECTION('ref_axis',(0.,0.,1.));
#1398=DIRECTION('',(0.,1.,0.));
#1399=DIRECTION('',(0.,0.,1.));
#1400=DIRECTION('',(0.,1.,0.));
#1401=DIRECTION('center_axis',(-1.,0.,0.));
#1402=DIRECTION('ref_axis',(0.,0.,1.));
#1403=DIRECTION('',(0.,-1.,0.));
#1404=DIRECTION('',(0.,0.,1.));
#1405=DIRECTION('',(0.,1.,0.));
#1406=DIRECTION('center_axis',(0.,0.,1.));
#1407=DIRECTION('ref_axis',(1.,0.,0.));
#1408=DIRECTION('',(1.,0.,0.));
#1409=DIRECTION('',(1.,0.,0.));
#1410=DIRECTION('center_axis',(0.,-1.,0.));
#1411=DIRECTION('ref_axis',(0.,0.,-1.));
#1412=DIRECTION('center_axis',(0.,-1.,0.));
#1413=DIRECTION('ref_axis',(0.,0.,-1.));
#1414=DIRECTION('center_axis',(0.,-1.,0.));
#1415=DIRECTION('ref_axis',(0.,0.,-1.));
#1416=DIRECTION('',(1.,0.,0.));
#1417=DIRECTION('center_axis',(0.,-1.,0.));
#1418=DIRECTION('ref_axis',(0.,0.,-1.));
#1419=DIRECTION('center_axis',(0.,-1.,0.));
#1420=DIRECTION('ref_axis',(0.,0.,-1.));
#1421=DIRECTION('center_axis',(0.,-1.,0.));
#1422=DIRECTION('ref_axis',(0.,0.,-1.));
#1423=DIRECTION('center_axis',(0.,-1.,0.));
#1424=DIRECTION('ref_axis',(0.,0.,-1.));
#1425=DIRECTION('center_axis',(0.,-1.,0.));
#1426=DIRECTION('ref_axis',(0.,0.,-1.));
#1427=DIRECTION('center_axis',(1.,-2.16840434497101E-16,0.));
#1428=DIRECTION('ref_axis',(0.,0.,-1.));
#1429=DIRECTION('',(0.,0.,-1.));
#1430=DIRECTION('center_axis',(1.,-2.16840434497101E-16,0.));
#1431=DIRECTION('ref_axis',(2.16840434497101E-16,1.,0.));
#1432=DIRECTION('',(-1.71955363085329E-16,-0.759256602365325,-0.650791373455936));
#1433=DIRECTION('',(4.03717463500057E-16,1.,0.));
#1434=DIRECTION('',(0.,-1.,0.));
#1435=DIRECTION('center_axis',(1.,-2.16840434497101E-16,0.));
#1436=DIRECTION('ref_axis',(2.16840434497101E-16,1.,0.));
#1437=DIRECTION('',(-4.16333634234434E-16,-1.,0.));
#1438=DIRECTION('center_axis',(1.,-2.16840434497101E-16,0.));
#1439=DIRECTION('ref_axis',(2.16840434497101E-16,1.,0.));
#1440=DIRECTION('',(0.,0.,-1.));
#1441=DIRECTION('center_axis',(1.,-2.16840434497101E-16,0.));
#1442=DIRECTION('ref_axis',(2.16840434497101E-16,1.,0.));
#1443=DIRECTION('',(0.,0.,1.));
#1444=DIRECTION('center_axis',(1.,-2.16840434497101E-16,0.));
#1445=DIRECTION('ref_axis',(2.16840434497101E-16,1.,0.));
#1446=DIRECTION('center_axis',(1.,-1.23908819712629E-16,0.));
#1447=DIRECTION('ref_axis',(0.,0.,-1.));
#1448=DIRECTION('',(-1.67922778012204E-16,-0.759256602365324,-0.650791373455936));
#1449=DIRECTION('center_axis',(1.,-1.23908819712629E-16,0.));
#1450=DIRECTION('ref_axis',(1.23908819712629E-16,1.,0.));
#1451=DIRECTION('',(0.,0.,-1.));
#1452=DIRECTION('center_axis',(1.,-1.23908819712629E-16,0.));
#1453=DIRECTION('ref_axis',(1.23908819712629E-16,1.,0.));
#1454=DIRECTION('',(0.,-1.,0.));
#1455=DIRECTION('center_axis',(1.,-1.23908819712629E-16,0.));
#1456=DIRECTION('ref_axis',(1.23908819712629E-16,1.,0.));
#1457=DIRECTION('',(0.,-1.,0.));
#1458=DIRECTION('',(0.,0.,-1.));
#1459=DIRECTION('',(0.,1.,0.));
#1460=DIRECTION('center_axis',(1.,-1.23908819712629E-16,0.));
#1461=DIRECTION('ref_axis',(1.23908819712629E-16,1.,0.));
#1462=DIRECTION('center_axis',(1.,-1.23908819712629E-16,0.));
#1463=DIRECTION('ref_axis',(1.23908819712629E-16,1.,0.));
#1464=DIRECTION('center_axis',(1.,-8.67361737988404E-17,0.));
#1465=DIRECTION('ref_axis',(8.67361737988403E-17,1.,0.));
#1466=DIRECTION('center_axis',(-4.33680868994202E-16,-1.,0.));
#1467=DIRECTION('ref_axis',(0.,0.,-1.));
#1468=DIRECTION('',(-1.,5.55111512312578E-16,0.));
#1469=DIRECTION('',(-1.,5.55111512312578E-16,0.));
#1470=DIRECTION('center_axis',(0.,0.,1.));
#1471=DIRECTION('ref_axis',(1.,0.,0.));
#1472=DIRECTION('',(-1.,5.55111512312578E-16,0.));
#1473=DIRECTION('',(-1.,0.,0.));
#1474=DIRECTION('center_axis',(1.,-8.67361737988404E-17,0.));
#1475=DIRECTION('ref_axis',(8.67361737988404E-17,1.,0.));
#1476=DIRECTION('center_axis',(1.,-2.47817639425258E-16,0.));
#1477=DIRECTION('ref_axis',(2.47817639425258E-16,1.,0.));
#1478=DIRECTION('',(1.,-8.67361737988404E-17,0.));
#1479=DIRECTION('center_axis',(1.,-4.33680868994202E-16,0.));
#1480=DIRECTION('ref_axis',(4.33680868994202E-16,1.,0.));
#1481=DIRECTION('center_axis',(1.,0.,0.));
#1482=DIRECTION('ref_axis',(0.,0.,-1.));
#1483=DIRECTION('center_axis',(0.,-1.,0.));
#1484=DIRECTION('ref_axis',(0.,0.,-1.));
#1485=DIRECTION('center_axis',(0.,-1.,0.));
#1486=DIRECTION('ref_axis',(0.,0.,-1.));
#1487=DIRECTION('',(0.,-1.,0.));
#1488=DIRECTION('center_axis',(0.,-1.,0.));
#1489=DIRECTION('ref_axis',(0.,0.,-1.));
#1490=DIRECTION('center_axis',(0.,-1.,0.));
#1491=DIRECTION('ref_axis',(0.,0.,-1.));
#1492=DIRECTION('center_axis',(0.,-1.,0.));
#1493=DIRECTION('ref_axis',(0.,0.,-1.));
#1494=DIRECTION('',(0.,-1.,0.));
#1495=DIRECTION('center_axis',(0.,-1.,0.));
#1496=DIRECTION('ref_axis',(0.,0.,-1.));
#1497=DIRECTION('center_axis',(-1.,2.52980506913284E-16,0.));
#1498=DIRECTION('ref_axis',(-2.52980506913284E-16,-1.,0.));
#1499=DIRECTION('',(-1.,2.52980506913284E-16,0.));
#1500=DIRECTION('center_axis',(1.,-2.47817639425258E-16,0.));
#1501=DIRECTION('ref_axis',(2.47817639425258E-16,1.,0.));
#1502=DIRECTION('center_axis',(-1.,2.52980506913284E-16,0.));
#1503=DIRECTION('ref_axis',(-2.52980506913284E-16,-1.,0.));
#1504=DIRECTION('',(-1.,2.52980506913284E-16,0.));
#1505=DIRECTION('center_axis',(1.,-2.47817639425258E-16,0.));
#1506=DIRECTION('ref_axis',(2.47817639425258E-16,1.,0.));
#1507=DIRECTION('center_axis',(1.,-2.47817639425258E-16,0.));
#1508=DIRECTION('ref_axis',(0.,0.,-1.));
#1509=DIRECTION('',(0.,0.,1.));
#1510=DIRECTION('center_axis',(1.,-2.47817639425258E-16,0.));
#1511=DIRECTION('ref_axis',(2.47817639425258E-16,1.,0.));
#1512=DIRECTION('',(0.,0.,-1.));
#1513=DIRECTION('center_axis',(1.,-2.47817639425258E-16,0.));
#1514=DIRECTION('ref_axis',(2.47817639425258E-16,1.,0.));
#1515=DIRECTION('center_axis',(-2.52980506913284E-16,-1.,0.));
#1516=DIRECTION('ref_axis',(0.,0.,-1.));
#1517=DIRECTION('',(-1.,0.,0.));
#1518=DIRECTION('',(-1.,0.,0.));
#1519=DIRECTION('center_axis',(2.52980506913284E-16,1.,0.));
#1520=DIRECTION('ref_axis',(0.,0.,1.));
#1521=DIRECTION('',(-1.,3.70074341541719E-16,0.));
#1522=DIRECTION('',(-1.,3.70074341541719E-16,0.));
#1523=DIRECTION('center_axis',(1.,-2.52980506913284E-16,0.));
#1524=DIRECTION('ref_axis',(2.52980506913284E-16,1.,0.));
#1525=DIRECTION('center_axis',(1.,-2.52980506913284E-16,0.));
#1526=DIRECTION('ref_axis',(2.52980506913284E-16,1.,0.));
#1527=DIRECTION('center_axis',(1.23908819712629E-16,1.,0.));
#1528=DIRECTION('ref_axis',(-1.,1.23908819712629E-16,0.));
#1529=DIRECTION('center_axis',(8.76167666676214E-17,0.707106781186548,-0.707106781186548));
#1530=DIRECTION('ref_axis',(8.76167666676214E-17,0.707106781186548,0.707106781186548));
#1531=DIRECTION('center_axis',(0.,0.,-1.));
#1532=DIRECTION('ref_axis',(-1.,0.,0.));
#1533=DIRECTION('center_axis',(-8.76167666676214E-17,-0.707106781186548,
0.707106781186548));
#1534=DIRECTION('ref_axis',(-8.76167666676214E-17,-0.707106781186548,-0.707106781186548));
#1535=DIRECTION('center_axis',(-1.23908819712629E-16,-1.,0.));
#1536=DIRECTION('ref_axis',(1.,-1.23908819712629E-16,0.));
#1537=DIRECTION('center_axis',(1.4111788418715E-16,0.650791373455936,-0.759256602365324));
#1538=DIRECTION('ref_axis',(-4.22393666954861E-17,-0.759256602365324,-0.650791373455936));
#1539=DIRECTION('center_axis',(2.16840434497101E-16,1.,0.));
#1540=DIRECTION('ref_axis',(-1.,2.16840434497101E-16,0.));
#1541=DIRECTION('center_axis',(0.,-1.,0.));
#1542=DIRECTION('ref_axis',(0.,0.,-1.));
#1543=DIRECTION('center_axis',(0.,1.,0.));
#1544=DIRECTION('ref_axis',(0.,0.,1.));
#1545=DIRECTION('center_axis',(0.,-1.,0.));
#1546=DIRECTION('ref_axis',(0.,0.,-1.));
#1547=DIRECTION('center_axis',(0.,-1.,0.));
#1548=DIRECTION('ref_axis',(0.,0.,-1.));
#1549=DIRECTION('center_axis',(0.,1.,0.));
#1550=DIRECTION('ref_axis',(0.,0.,1.));
#1551=DIRECTION('center_axis',(0.,-1.,0.));
#1552=DIRECTION('ref_axis',(0.,0.,-1.));
#1553=DIRECTION('center_axis',(-2.16840434497101E-16,-1.,2.42434975903054E-16));
#1554=DIRECTION('ref_axis',(0.,-2.42434975903054E-16,-1.));
#1555=DIRECTION('center_axis',(0.,-1.,0.));
#1556=DIRECTION('ref_axis',(0.,0.,-1.));
#1557=DIRECTION('center_axis',(0.,1.,0.));
#1558=DIRECTION('ref_axis',(0.,0.,1.));
#1559=DIRECTION('center_axis',(0.,1.,0.));
#1560=DIRECTION('ref_axis',(0.,0.,1.));
#1561=DIRECTION('center_axis',(0.,-1.,0.));
#1562=DIRECTION('ref_axis',(0.,0.,-1.));
#1563=DIRECTION('center_axis',(1.4111788418715E-16,0.650791373455936,-0.759256602365324));
#1564=DIRECTION('ref_axis',(-1.,0.,-1.85863229568928E-16));
#1565=DIRECTION('',(-1.,5.55111512312578E-16,0.));
#1566=DIRECTION('center_axis',(1.,-4.33680868994202E-16,-1.85863229568928E-16));
#1567=DIRECTION('ref_axis',(4.33680868994202E-16,1.,0.));
#1568=CARTESIAN_POINT('',(0.,0.,0.));
#1569=CARTESIAN_POINT('Origin',(0.,0.,0.));
#1570=CARTESIAN_POINT('',(18.,0.,-35.0000000000013));
#1571=CARTESIAN_POINT('',(37.6568542494924,0.,-35.));
#1572=CARTESIAN_POINT('',(18.,0.,-35.0000000000013));
#1573=CARTESIAN_POINT('',(18.,0.,-45.));
#1574=CARTESIAN_POINT('',(18.,0.,-35.0000000000013));
#1575=CARTESIAN_POINT('',(24.3431457505076,0.,-45.));
#1576=CARTESIAN_POINT('',(18.,0.,-45.));
#1577=CARTESIAN_POINT('',(27.1715728752538,0.,-43.8284271247462));
#1578=CARTESIAN_POINT('Origin',(24.3431457505076,0.,-41.));
#1579=CARTESIAN_POINT('',(34.8284271247462,0.,-36.1715728752538));
#1580=CARTESIAN_POINT('',(27.1715728752538,0.,-43.8284271247462));
#1581=CARTESIAN_POINT('Origin',(37.6568542494924,0.,-39.));
#1582=CARTESIAN_POINT('Origin',(0.,0.,0.));
#1583=CARTESIAN_POINT('',(6.,1.07697415800319E-15,-35.0000000000013));
#1584=CARTESIAN_POINT('',(6.,0.,-42.0557280900008));
#1585=CARTESIAN_POINT('',(6.,0.,-35.0000000000013));
#1586=CARTESIAN_POINT('',(9.40000000000366,0.,-31.0452560133437));
#1587=CARTESIAN_POINT('Origin',(5.40000000000366,0.,-31.0452560133437));
#1588=CARTESIAN_POINT('',(9.40000000000366,0.,-19.));
#1589=CARTESIAN_POINT('',(9.40000000000366,0.,-31.0452560133437));
#1590=CARTESIAN_POINT('',(13.4000000000037,0.,-15.));
#1591=CARTESIAN_POINT('Origin',(13.4000000000037,0.,-19.));
#1592=CARTESIAN_POINT('',(38.140735033952,0.,-15.));
#1593=CARTESIAN_POINT('',(38.140735033952,0.,-15.));
#1594=CARTESIAN_POINT('',(34.8125338566006,0.,-13.2188007849009));
#1595=CARTESIAN_POINT('Origin',(38.140735033952,0.,-11.));
#1596=CARTESIAN_POINT('',(27.1874661433994,0.,-1.78119921509908));
#1597=CARTESIAN_POINT('',(27.1874661433994,0.,-1.78119921509908));
#1598=CARTESIAN_POINT('',(23.859264966048,0.,0.));
#1599=CARTESIAN_POINT('Origin',(23.859264966048,0.,-4.));
#1600=CARTESIAN_POINT('',(12.140735033952,0.,0.));
#1601=CARTESIAN_POINT('',(12.140735033952,0.,0.));
#1602=CARTESIAN_POINT('',(8.81253385660061,0.,-1.78119921509908));
#1603=CARTESIAN_POINT('Origin',(12.140735033952,0.,-4.));
#1604=CARTESIAN_POINT('',(0.671798822648625,0.,-13.9923017660271));
#1605=CARTESIAN_POINT('',(0.671798822648623,0.,-13.9923017660271));
#1606=CARTESIAN_POINT('',(0.,0.,-16.211102550928));
#1607=CARTESIAN_POINT('Origin',(4.,0.,-16.211102550928));
#1608=CARTESIAN_POINT('',(0.,0.,-32.2917960675006));
#1609=CARTESIAN_POINT('',(0.,0.,-16.211102550928));
#1610=CARTESIAN_POINT('',(1.01857603000028,0.,-34.9584627341673));
#1611=CARTESIAN_POINT('Origin',(4.,0.,-32.2917960675006));
#1612=CARTESIAN_POINT('',(4.98142396999973,0.,-39.3890614233342));
#1613=CARTESIAN_POINT('',(1.01857603000029,0.,-34.9584627341673));
#1614=CARTESIAN_POINT('Origin',(2.,0.,-42.0557280900008));
#1615=CARTESIAN_POINT('',(23.,0.,-3.25));
#1616=CARTESIAN_POINT('Origin',(23.,0.,-5.));
#1617=CARTESIAN_POINT('',(13.,0.,-3.25));
#1618=CARTESIAN_POINT('Origin',(13.,0.,-5.));
#1619=CARTESIAN_POINT('',(5.,0.,-23.25));
#1620=CARTESIAN_POINT('Origin',(5.,0.,-25.));
#1621=CARTESIAN_POINT('Origin',(-16.8051242194423,5.,-15.0309600500005));
#1622=CARTESIAN_POINT('',(1.01857603000028,5.,-34.9584627341673));
#1623=CARTESIAN_POINT('',(1.01857603000028,5.,-34.9584627341673));
#1624=CARTESIAN_POINT('',(4.98142396999973,5.,-39.3890614233342));
#1625=CARTESIAN_POINT('',(1.01857603000029,5.,-34.9584627341673));
#1626=CARTESIAN_POINT('',(4.98142396999972,5.,-39.3890614233342));
#1627=CARTESIAN_POINT('Origin',(31.9,0.,-25.));
#1628=CARTESIAN_POINT('',(31.9,5.,-19.6));
#1629=CARTESIAN_POINT('Origin',(31.9,5.,-25.));
#1630=CARTESIAN_POINT('',(31.9,3.5,-19.6));
#1631=CARTESIAN_POINT('',(31.9,0.,-19.6));
#1632=CARTESIAN_POINT('Origin',(31.9,3.5,-25.));
#1633=CARTESIAN_POINT('Origin',(0.,5.,-35.));
#1634=CARTESIAN_POINT('',(18.,-5.49999999999545,-35.));
#1635=CARTESIAN_POINT('',(40.4000000000037,-5.5,-35.0000000000013));
#1636=CARTESIAN_POINT('',(18.,-5.5,-35.0000000000013));
#1637=CARTESIAN_POINT('',(18.,-5.49999999999545,-35.));
#1638=CARTESIAN_POINT('',(37.6568542494924,5.,-35.));
#1639=CARTESIAN_POINT('',(37.6568542494924,5.,-35.));
#1640=CARTESIAN_POINT('',(40.4000000000037,5.,-35.));
#1641=CARTESIAN_POINT('',(37.6568542494924,5.,-35.));
#1642=CARTESIAN_POINT('',(40.4000000000037,-5.5,-35.));
#1643=CARTESIAN_POINT('Origin',(35.5,5.,-35.5));
#1644=CARTESIAN_POINT('',(27.1715728752538,5.,-43.8284271247462));
#1645=CARTESIAN_POINT('',(27.1715728752538,5.,-43.8284271247462));
#1646=CARTESIAN_POINT('',(34.8284271247462,5.,-36.1715728752538));
#1647=CARTESIAN_POINT('',(27.1715728752538,5.,-43.8284271247462));
#1648=CARTESIAN_POINT('',(34.8284271247462,5.,-36.1715728752538));
#1649=CARTESIAN_POINT('Origin',(0.,5.,-45.));
#1650=CARTESIAN_POINT('',(18.,5.,-45.));
#1651=CARTESIAN_POINT('',(18.,5.,-45.));
#1652=CARTESIAN_POINT('',(24.3431457505076,5.,-45.));
#1653=CARTESIAN_POINT('',(18.,5.,-45.));
#1654=CARTESIAN_POINT('',(24.3431457505076,5.,-45.));
#1655=CARTESIAN_POINT('Origin',(0.,5.,0.));
#1656=CARTESIAN_POINT('',(0.,5.,-16.211102550928));
#1657=CARTESIAN_POINT('',(0.,5.,-16.211102550928));
#1658=CARTESIAN_POINT('',(0.,5.,-32.2917960675006));
#1659=CARTESIAN_POINT('',(0.,5.,-16.211102550928));
#1660=CARTESIAN_POINT('',(0.,5.,-32.2917960675006));
#1661=CARTESIAN_POINT('Origin',(6.92307692307692,5.,-4.61538461538462));
#1662=CARTESIAN_POINT('',(8.81253385660061,5.,-1.78119921509908));
#1663=CARTESIAN_POINT('',(8.81253385660061,5.,-1.78119921509908));
#1664=CARTESIAN_POINT('',(0.671798822648625,5.,-13.9923017660271));
#1665=CARTESIAN_POINT('',(0.671798822648623,5.,-13.9923017660271));
#1666=CARTESIAN_POINT('',(0.671798822648626,5.,-13.9923017660271));
#1667=CARTESIAN_POINT('Origin',(0.,5.,0.));
#1668=CARTESIAN_POINT('',(23.859264966048,5.,0.));
#1669=CARTESIAN_POINT('',(23.859264966048,5.,0.));
#1670=CARTESIAN_POINT('',(12.140735033952,5.,0.));
#1671=CARTESIAN_POINT('',(12.140735033952,5.,0.));
#1672=CARTESIAN_POINT('',(12.140735033952,5.,0.));
#1673=CARTESIAN_POINT('Origin',(18.,5.,12.));
#1674=CARTESIAN_POINT('',(34.8125338566006,5.,-13.2188007849009));
#1675=CARTESIAN_POINT('',(34.8125338566006,5.,-13.2188007849009));
#1676=CARTESIAN_POINT('',(27.1874661433994,5.,-1.78119921509908));
#1677=CARTESIAN_POINT('',(27.1874661433994,5.,-1.78119921509908));
#1678=CARTESIAN_POINT('',(27.1874661433994,5.,-1.78119921509909));
#1679=CARTESIAN_POINT('Origin',(13.,5.,-5.));
#1680=CARTESIAN_POINT('',(13.,5.,-3.25));
#1681=CARTESIAN_POINT('Origin',(13.,5.,-5.));
#1682=CARTESIAN_POINT('',(13.,5.,-3.25));
#1683=CARTESIAN_POINT('Origin',(5.,5.,-25.));
#1684=CARTESIAN_POINT('',(5.,5.,-23.25));
#1685=CARTESIAN_POINT('Origin',(5.,5.,-25.));
#1686=CARTESIAN_POINT('',(5.,5.,-23.25));
#1687=CARTESIAN_POINT('Origin',(0.,5.,-15.));
#1688=CARTESIAN_POINT('',(13.4000000000037,-5.5,-15.));
#1689=CARTESIAN_POINT('',(13.4000000000037,-5.5,-15.));
#1690=CARTESIAN_POINT('',(40.4000000000037,-5.5,-15.));
#1691=CARTESIAN_POINT('',(40.4000000000037,-5.5,-15.));
#1692=CARTESIAN_POINT('',(40.4000000000037,5.,-15.));
#1693=CARTESIAN_POINT('',(40.4000000000037,-5.5,-15.));
#1694=CARTESIAN_POINT('',(38.140735033952,5.,-15.));
#1695=CARTESIAN_POINT('',(38.140735033952,5.,-15.));
#1696=CARTESIAN_POINT('',(38.140735033952,5.,-15.));
#1697=CARTESIAN_POINT('Origin',(23.,5.,-5.));
#1698=CARTESIAN_POINT('',(23.,5.,-3.25));
#1699=CARTESIAN_POINT('Origin',(23.,5.,-5.));
#1700=CARTESIAN_POINT('',(23.,5.,-3.25));
#1701=CARTESIAN_POINT('Origin',(0.,5.,0.));
#1702=CARTESIAN_POINT('Origin',(23.859264966048,5.,-4.));
#1703=CARTESIAN_POINT('Origin',(38.140735033952,5.,-11.));
#1704=CARTESIAN_POINT('',(44.4000000000037,5.,-19.));
#1705=CARTESIAN_POINT('Origin',(40.4000000000037,5.,-19.));
#1706=CARTESIAN_POINT('',(44.4000000000037,5.,-31.));
#1707=CARTESIAN_POINT('',(44.4000000000037,5.,-19.));
#1708=CARTESIAN_POINT('Origin',(40.4000000000037,5.,-31.));
#1709=CARTESIAN_POINT('Origin',(37.6568542494924,5.,-39.));
#1710=CARTESIAN_POINT('Origin',(24.3431457505076,5.,-41.));
#1711=CARTESIAN_POINT('',(14.,5.,-49.));
#1712=CARTESIAN_POINT('Origin',(18.,5.,-49.));
#1713=CARTESIAN_POINT('',(14.,5.,-67.));
#1714=CARTESIAN_POINT('',(14.,5.,-49.));
#1715=CARTESIAN_POINT('',(6.,5.,-67.));
#1716=CARTESIAN_POINT('',(14.,5.,-67.));
#1717=CARTESIAN_POINT('',(6.,5.,-42.0557280900008));
#1718=CARTESIAN_POINT('',(6.,5.,-42.0557280900008));
#1719=CARTESIAN_POINT('Origin',(2.,5.,-42.0557280900008));
#1720=CARTESIAN_POINT('Origin',(4.,5.,-32.2917960675006));
#1721=CARTESIAN_POINT('Origin',(4.,5.,-16.211102550928));
#1722=CARTESIAN_POINT('Origin',(12.140735033952,5.,-4.));
#1723=CARTESIAN_POINT('Origin',(38.4000000000037,-5.5,0.));
#1724=CARTESIAN_POINT('',(38.4000000000037,-5.5,-18.5000000000006));
#1725=CARTESIAN_POINT('',(38.4000000000036,3.5,-18.5000000000006));
#1726=CARTESIAN_POINT('',(38.4000000000037,-5.5,-18.5000000000006));
#1727=CARTESIAN_POINT('',(38.4000000000037,3.5,-31.5000000000006));
#1728=CARTESIAN_POINT('',(38.4000000000036,3.5,-18.5000000000006));
#1729=CARTESIAN_POINT('',(38.4000000000037,-5.5,-31.5000000000006));
#1730=CARTESIAN_POINT('',(38.4000000000037,-5.5,-31.5000000000006));
#1731=CARTESIAN_POINT('',(38.4000000000037,-5.5,-31.5000000000006));
#1732=CARTESIAN_POINT('Origin',(0.,-5.5,-31.5000000000006));
#1733=CARTESIAN_POINT('',(15.4000000000037,3.5,-31.5000000000006));
#1734=CARTESIAN_POINT('',(15.4000000000037,3.5,-31.5000000000006));
#1735=CARTESIAN_POINT('',(15.4000000000037,-5.5,-31.5000000000006));
#1736=CARTESIAN_POINT('',(15.4000000000037,-5.5,-31.5000000000006));
#1737=CARTESIAN_POINT('',(15.4000000000037,-5.5,-31.5000000000006));
#1738=CARTESIAN_POINT('Origin',(15.4000000000037,-5.5,0.));
#1739=CARTESIAN_POINT('',(15.4000000000037,3.5,-18.5000000000006));
#1740=CARTESIAN_POINT('',(15.4000000000037,3.5,-18.5000000000006));
#1741=CARTESIAN_POINT('',(15.4000000000037,-5.5,-18.5000000000006));
#1742=CARTESIAN_POINT('',(15.4000000000037,-5.5,-18.5000000000006));
#1743=CARTESIAN_POINT('',(15.4000000000037,-5.5,-31.5000000000006));
#1744=CARTESIAN_POINT('Origin',(44.4000000000037,-5.5,0.));
#1745=CARTESIAN_POINT('',(44.4000000000037,-5.5,-19.));
#1746=CARTESIAN_POINT('',(44.4000000000037,-5.5,-19.));
#1747=CARTESIAN_POINT('',(44.4000000000037,-5.5,-31.));
#1748=CARTESIAN_POINT('',(44.4000000000037,-5.5,-31.));
#1749=CARTESIAN_POINT('',(44.4000000000037,-5.5,-31.));
#1750=CARTESIAN_POINT('Origin',(9.40000000000366,-5.5,0.));
#1751=CARTESIAN_POINT('',(9.40000000000366,-5.5,-31.0452560133437));
#1752=CARTESIAN_POINT('',(9.40000000000366,0.,-31.0452560133437));
#1753=CARTESIAN_POINT('',(9.40000000000366,-5.5,-19.));
#1754=CARTESIAN_POINT('',(9.40000000000366,-5.5,-31.0452560133437));
#1755=CARTESIAN_POINT('',(9.40000000000366,-5.5,-19.));
#1756=CARTESIAN_POINT('Origin',(0.,-5.5,-18.5000000000006));
#1757=CARTESIAN_POINT('',(15.4000000000037,3.5,-18.5000000000006));
#1758=CARTESIAN_POINT('',(15.4000000000037,-5.5,-18.5000000000006));
#1759=CARTESIAN_POINT('Origin',(0.,-5.5,0.));
#1760=CARTESIAN_POINT('Origin',(13.4000000000037,-5.5,-19.));
#1761=CARTESIAN_POINT('',(6.,-5.5,-35.0000000000013));
#1762=CARTESIAN_POINT('Origin',(5.40000000000366,-5.5,-31.0452560133437));
#1763=CARTESIAN_POINT('',(6.,-5.5,-35.0000000000013));
#1764=CARTESIAN_POINT('Origin',(40.4000000000037,-5.5,-31.));
#1765=CARTESIAN_POINT('Origin',(40.4000000000037,-5.5,-19.));
#1766=CARTESIAN_POINT('',(13.1000000000037,-5.5,-24.0000000000006));
#1767=CARTESIAN_POINT('Origin',(13.1000000000037,-5.5,-25.0000000000006));
#1768=CARTESIAN_POINT('',(40.7000000000037,-5.5,-24.0000000000007));
#1769=CARTESIAN_POINT('Origin',(40.7000000000037,-5.5,-25.0000000000006));
#1770=CARTESIAN_POINT('Origin',(0.,3.5,0.));
#1771=CARTESIAN_POINT('Origin',(6.,5.,-40.));
#1772=CARTESIAN_POINT('',(5.99999999999999,-23.,-53.6794793797635));
#1773=CARTESIAN_POINT('',(5.99999999999999,-23.,-67.));
#1774=CARTESIAN_POINT('',(5.99999999999999,-23.,-53.6794793797635));
#1775=CARTESIAN_POINT('',(6.,-20.2063309876475,-47.6054265608409));
#1776=CARTESIAN_POINT('Origin',(6.,-15.,-53.6794793797635));
#1777=CARTESIAN_POINT('',(6.,-5.49999999999999,-35.0000000000013));
#1778=CARTESIAN_POINT('',(6.,-5.5,-35.0000000000013));
#1779=CARTESIAN_POINT('',(6.,5.,-42.0557280900008));
#1780=CARTESIAN_POINT('',(6.,-5.,-77.));
#1781=CARTESIAN_POINT('Origin',(6.,-5.,-67.));
#1782=CARTESIAN_POINT('',(6.,-13.,-77.));
#1783=CARTESIAN_POINT('',(6.,-5.,-77.));
#1784=CARTESIAN_POINT('Origin',(6.,-13.,-67.));
#1785=CARTESIAN_POINT('',(6.,-5.5,-59.5));
#1786=CARTESIAN_POINT('',(6.,-5.5,-66.5));
#1787=CARTESIAN_POINT('',(6.,-5.5,-59.5));
#1788=CARTESIAN_POINT('',(6.,-12.5,-59.5));
#1789=CARTESIAN_POINT('Origin',(6.,-9.,-59.5));
#1790=CARTESIAN_POINT('',(6.,-12.5,-66.5));
#1791=CARTESIAN_POINT('',(6.,-12.5,-66.5));
#1792=CARTESIAN_POINT('Origin',(6.,-9.,-66.5));
#1793=CARTESIAN_POINT('Origin',(14.,5.,-40.));
#1794=CARTESIAN_POINT('',(14.,-10.1666666666656,-39.));
#1795=CARTESIAN_POINT('',(14.,-20.2063309876475,-47.6054265608409));
#1796=CARTESIAN_POINT('',(14.,-10.1666666666655,-39.));
#1797=CARTESIAN_POINT('',(14.,-23.,-53.6794793797635));
#1798=CARTESIAN_POINT('Origin',(14.,-15.,-53.6794793797635));
#1799=CARTESIAN_POINT('',(14.,-23.,-67.));
#1800=CARTESIAN_POINT('',(14.,-23.,-53.6794793797635));
#1801=CARTESIAN_POINT('',(14.,-13.,-77.));
#1802=CARTESIAN_POINT('Origin',(14.,-13.,-67.));
#1803=CARTESIAN_POINT('',(14.,-5.,-77.));
#1804=CARTESIAN_POINT('',(14.,-5.,-77.));
#1805=CARTESIAN_POINT('Origin',(14.,-5.,-67.));
#1806=CARTESIAN_POINT('',(14.,-4.,-49.));
#1807=CARTESIAN_POINT('',(14.,5.,-49.));
#1808=CARTESIAN_POINT('',(14.,-4.,-39.));
#1809=CARTESIAN_POINT('',(14.,-4.,-39.));
#1810=CARTESIAN_POINT('',(14.,-10.1666666666656,-39.));
#1811=CARTESIAN_POINT('',(14.,-7.7,-58.5));
#1812=CARTESIAN_POINT('Origin',(14.,-9.,-58.5));
#1813=CARTESIAN_POINT('',(14.,-7.7,-67.5));
#1814=CARTESIAN_POINT('Origin',(14.,-9.,-67.5));
#1815=CARTESIAN_POINT('',(14.,-11.5,-63.));
#1816=CARTESIAN_POINT('Origin',(14.,-9.,-63.));
#1817=CARTESIAN_POINT('Origin',(14.,-23.,-40.));
#1818=CARTESIAN_POINT('',(14.,-23.,-53.6794793797635));
#1819=CARTESIAN_POINT('',(14.,-23.,-67.));
#1820=CARTESIAN_POINT('Origin',(0.,0.,-77.));
#1821=CARTESIAN_POINT('',(14.,-13.,-77.));
#1822=CARTESIAN_POINT('',(14.,-5.,-77.));
#1823=CARTESIAN_POINT('Origin',(-5.20417042793042E-15,-9.,-63.));
#1824=CARTESIAN_POINT('',(9.,-11.5,-63.));
#1825=CARTESIAN_POINT('Origin',(9.,-9.,-63.));
#1826=CARTESIAN_POINT('',(-5.42101086242752E-15,-11.5,-63.));
#1827=CARTESIAN_POINT('Origin',(-5.63785129692462E-15,-13.,-67.));
#1828=CARTESIAN_POINT('Origin',(0.,-5.,-67.));
#1829=CARTESIAN_POINT('Origin',(40.7000000000037,1.5,-25.0000000000006));
#1830=CARTESIAN_POINT('',(40.7000000000037,1.5,-24.0000000000007));
#1831=CARTESIAN_POINT('Origin',(40.7000000000037,1.5,-25.0000000000006));
#1832=CARTESIAN_POINT('',(40.7000000000037,1.5,-24.0000000000007));
#1833=CARTESIAN_POINT('Origin',(40.7000000000037,1.5,-25.0000000000006));
#1834=CARTESIAN_POINT('Origin',(13.1000000000037,1.5,-25.0000000000006));
#1835=CARTESIAN_POINT('',(13.1000000000037,1.5,-24.0000000000006));
#1836=CARTESIAN_POINT('Origin',(13.1000000000037,1.5,-25.0000000000006));
#1837=CARTESIAN_POINT('',(13.1000000000037,1.5,-24.0000000000006));
#1838=CARTESIAN_POINT('Origin',(13.1000000000037,1.5,-25.0000000000006));
#1839=CARTESIAN_POINT('Origin',(17.6769552621701,-9.,-67.5));
#1840=CARTESIAN_POINT('',(9.,-7.7,-67.5));
#1841=CARTESIAN_POINT('',(17.6769552621701,-7.70000000000001,-67.5));
#1842=CARTESIAN_POINT('Origin',(9.,-9.,-67.5));
#1843=CARTESIAN_POINT('Origin',(17.6769552621701,-9.,-58.5));
#1844=CARTESIAN_POINT('',(9.,-7.7,-58.5));
#1845=CARTESIAN_POINT('',(17.6769552621701,-7.7,-58.5));
#1846=CARTESIAN_POINT('Origin',(9.,-9.,-58.5));
#1847=CARTESIAN_POINT('Origin',(9.,-2.2458473572914E-15,0.));
#1848=CARTESIAN_POINT('',(9.,-12.5,-66.5));
#1849=CARTESIAN_POINT('',(9.,-12.5,-59.5));
#1850=CARTESIAN_POINT('',(9.,-12.5,-66.5));
#1851=CARTESIAN_POINT('',(9.,-5.5,-59.5));
#1852=CARTESIAN_POINT('Origin',(9.,-9.,-59.5));
#1853=CARTESIAN_POINT('',(9.,-5.5,-66.5));
#1854=CARTESIAN_POINT('',(9.,-5.5,-59.5));
#1855=CARTESIAN_POINT('Origin',(9.,-9.,-66.5));
#1856=CARTESIAN_POINT('Origin',(9.,-12.5,-70.));
#1857=CARTESIAN_POINT('',(9.,-12.5,-59.5));
#1858=CARTESIAN_POINT('',(9.,-12.5,-66.5));
#1859=CARTESIAN_POINT('Origin',(9.,-5.5,-70.));
#1860=CARTESIAN_POINT('',(9.,-5.5,-59.5));
#1861=CARTESIAN_POINT('',(9.,-5.5,-66.5));
#1862=CARTESIAN_POINT('Origin',(9.,-9.,-59.5));
#1863=CARTESIAN_POINT('Origin',(9.,-9.,-66.5));
#1864=CARTESIAN_POINT('Origin',(18.,5.,-49.));
#1865=CARTESIAN_POINT('Origin',(18.,-4.,-49.));
#1866=CARTESIAN_POINT('Origin',(18.,-4.,0.));
#1867=CARTESIAN_POINT('Origin',(18.,-4.,-39.));
#1868=CARTESIAN_POINT('Origin',(18.,5.,-39.));
#1869=CARTESIAN_POINT('Origin',(18.,-10.1666666666656,-39.));
#1870=CARTESIAN_POINT('Origin',(5.40000000000366,-5.5,-31.0452560133437));
#1871=CARTESIAN_POINT('Origin',(13.4000000000037,-5.5,-19.));
#1872=CARTESIAN_POINT('Origin',(38.140735033952,5.,-11.));
#1873=CARTESIAN_POINT('Origin',(23.859264966048,5.,-4.));
#1874=CARTESIAN_POINT('Origin',(12.140735033952,5.,-4.));
#1875=CARTESIAN_POINT('Origin',(4.,5.,-16.211102550928));
#1876=CARTESIAN_POINT('Origin',(4.,5.,-32.2917960675006));
#1877=CARTESIAN_POINT('Origin',(2.,4.99999999999999,-42.0557280900008));
#1878=CARTESIAN_POINT('Origin',(24.3431457505076,5.,-41.));
#1879=CARTESIAN_POINT('Origin',(37.6568542494924,5.,-39.));
#1880=CARTESIAN_POINT('Origin',(40.4000000000037,5.,-19.));
#1881=CARTESIAN_POINT('Origin',(40.4000000000037,-5.5,-31.));
#1882=CARTESIAN_POINT('Origin',(44.4010000000037,-23.,-50.));
#1883=CARTESIAN_POINT('',(14.,-20.2063309876475,-47.6054265608409));
#1884=CARTESIAN_POINT('Origin',(14.,-15.,-53.6794793797635));
#1885=UNCERTAINTY_MEASURE_WITH_UNIT(LENGTH_MEASURE(0.01),#1889,
'DISTANCE_ACCURACY_VALUE',
'Maximum model space distance between geometric entities at asserted c
onnectivities');
#1886=UNCERTAINTY_MEASURE_WITH_UNIT(LENGTH_MEASURE(0.01),#1889,
'DISTANCE_ACCURACY_VALUE',
'Maximum model space distance between geometric entities at asserted c
onnectivities');
#1887=(
GEOMETRIC_REPRESENTATION_CONTEXT(3)
GLOBAL_UNCERTAINTY_ASSIGNED_CONTEXT((#1885))
GLOBAL_UNIT_ASSIGNED_CONTEXT((#1889,#1891,#1892))
REPRESENTATION_CONTEXT('','3D')
);
#1888=(
GEOMETRIC_REPRESENTATION_CONTEXT(3)
GLOBAL_UNCERTAINTY_ASSIGNED_CONTEXT((#1886))
GLOBAL_UNIT_ASSIGNED_CONTEXT((#1889,#1891,#1892))
REPRESENTATION_CONTEXT('','3D')
);
#1889=(
LENGTH_UNIT()
NAMED_UNIT(*)
SI_UNIT(.MILLI.,.METRE.)
);
#1890=(
LENGTH_UNIT()
NAMED_UNIT(*)
SI_UNIT($,.METRE.)
);
#1891=(
NAMED_UNIT(*)
PLANE_ANGLE_UNIT()
SI_UNIT($,.RADIAN.)
);
#1892=(
NAMED_UNIT(*)
SI_UNIT($,.STERADIAN.)
SOLID_ANGLE_UNIT()
);
#1893=SHAPE_DEFINITION_REPRESENTATION(#1894,#1895);
#1894=PRODUCT_DEFINITION_SHAPE('',$,#1897);
#1895=SHAPE_REPRESENTATION('',(#1121),#1887);
#1896=PRODUCT_DEFINITION_CONTEXT('part definition',#1901,'design');
#1897=PRODUCT_DEFINITION('2026-09-14-18-17-33-609','Gripper base',#1898,
#1896);
#1898=PRODUCT_DEFINITION_FORMATION('',$,#1903);
#1899=PRODUCT_RELATED_PRODUCT_CATEGORY('Gripper base','Gripper base',(#1903));
#1900=APPLICATION_PROTOCOL_DEFINITION('international standard',
'automotive_design',2009,#1901);
#1901=APPLICATION_CONTEXT(
'Core Data for Automotive Mechanical Design Process');
#1902=PRODUCT_CONTEXT('part definition',#1901,'mechanical');
#1903=PRODUCT('2026-09-14-18-17-33-609','Gripper base',$,(#1902));
#1904=PRESENTATION_STYLE_ASSIGNMENT((#1906));
#1905=PRESENTATION_STYLE_ASSIGNMENT((#1907));
#1906=SURFACE_STYLE_USAGE(.BOTH.,#1908);
#1907=SURFACE_STYLE_USAGE(.BOTH.,#1909);
#1908=SURFACE_SIDE_STYLE('',(#1910));
#1909=SURFACE_SIDE_STYLE('',(#1911));
#1910=SURFACE_STYLE_FILL_AREA(#1912);
#1911=SURFACE_STYLE_FILL_AREA(#1913);
#1912=FILL_AREA_STYLE('Steel - Satin',(#1914));
#1913=FILL_AREA_STYLE('Opaque(255,255,255)',(#1915));
#1914=FILL_AREA_STYLE_COLOUR('Steel - Satin',#1916);
#1915=FILL_AREA_STYLE_COLOUR('Opaque(255,255,255)',#1917);
#1916=COLOUR_RGB('Steel - Satin',0.627450980392157,0.627450980392157,0.627450980392157);
#1917=COLOUR_RGB('Opaque(255,255,255)',1.,1.,1.);
ENDSEC;
END-ISO-10303-21;
