ISO-10303-21;
HEADER;
/* Generated by software containing ST-Developer
 * from STEP Tools, Inc. (www.steptools.com) 
 */

FILE_DESCRIPTION(
/* description */ (''),
/* implementation_level */ '2;1');

FILE_NAME(
/* name */ 'grip link.step',
/* time_stamp */ '2026-09-21T22:53:28+05:30',
/* author */ (''),
/* organization */ (''),
/* preprocessor_version */ 'ST-DEVELOPER v20.2',
/* originating_system */ 'Autodesk Translation Framework v15.15.0.0',
/* authorisation */ '');

FILE_SCHEMA (('AUTOMOTIVE_DESIGN { 1 0 10303 214 3 1 1 }'));
ENDSEC;

DATA;
#10=MECHANICAL_DESIGN_GEOMETRIC_PRESENTATION_REPRESENTATION('',(#13),#405);
#11=SHAPE_REPRESENTATION_RELATIONSHIP('SRR','None',#412,#12);
#12=ADVANCED_BREP_SHAPE_REPRESENTATION('',(#14),#404);
#13=STYLED_ITEM('',(#422),#14);
#14=MANIFOLD_SOLID_BREP('Body1',#225);
#15=FACE_BOUND('',#42,.T.);
#16=FACE_BOUND('',#43,.T.);
#17=FACE_BOUND('',#45,.T.);
#18=FACE_BOUND('',#46,.T.);
#19=PLANE('',#242);
#20=PLANE('',#249);
#21=PLANE('',#253);
#22=PLANE('',#258);
#23=FACE_OUTER_BOUND('',#35,.T.);
#24=FACE_OUTER_BOUND('',#36,.T.);
#25=FACE_OUTER_BOUND('',#37,.T.);
#26=FACE_OUTER_BOUND('',#38,.T.);
#27=FACE_OUTER_BOUND('',#39,.T.);
#28=FACE_OUTER_BOUND('',#40,.T.);
#29=FACE_OUTER_BOUND('',#41,.T.);
#30=FACE_OUTER_BOUND('',#44,.T.);
#31=FACE_OUTER_BOUND('',#47,.T.);
#32=FACE_OUTER_BOUND('',#48,.T.);
#33=FACE_OUTER_BOUND('',#49,.T.);
#34=FACE_OUTER_BOUND('',#50,.T.);
#35=EDGE_LOOP('',(#145,#146,#147,#148));
#36=EDGE_LOOP('',(#149,#150,#151,#152));
#37=EDGE_LOOP('',(#153,#154,#155,#156));
#38=EDGE_LOOP('',(#157,#158,#159,#160));
#39=EDGE_LOOP('',(#161,#162,#163,#164));
#40=EDGE_LOOP('',(#165,#166,#167,#168));
#41=EDGE_LOOP('',(#169,#170,#171,#172,#173,#174,#175,#176));
#42=EDGE_LOOP('',(#177));
#43=EDGE_LOOP('',(#178));
#44=EDGE_LOOP('',(#179,#180,#181,#182,#183,#184,#185,#186));
#45=EDGE_LOOP('',(#187));
#46=EDGE_LOOP('',(#188));
#47=EDGE_LOOP('',(#189,#190,#191,#192));
#48=EDGE_LOOP('',(#193,#194,#195,#196));
#49=EDGE_LOOP('',(#197,#198,#199,#200));
#50=EDGE_LOOP('',(#201,#202,#203,#204));
#51=LINE('',#345,#65);
#52=LINE('',#348,#66);
#53=LINE('',#352,#67);
#54=LINE('',#354,#68);
#55=LINE('',#356,#69);
#56=LINE('',#357,#70);
#57=LINE('',#363,#71);
#58=LINE('',#366,#72);
#59=LINE('',#371,#73);
#60=LINE('',#376,#74);
#61=LINE('',#378,#75);
#62=LINE('',#380,#76);
#63=LINE('',#381,#77);
#64=LINE('',#386,#78);
#65=VECTOR('',#273,4.);
#66=VECTOR('',#276,4.);
#67=VECTOR('',#279,22.3397459621556);
#68=VECTOR('',#280,4.);
#69=VECTOR('',#281,22.3397459621556);
#70=VECTOR('',#282,4.);
#71=VECTOR('',#287,4.);
#72=VECTOR('',#290,4.);
#73=VECTOR('',#295,1.75);
#74=VECTOR('',#300,22.3397459621556);
#75=VECTOR('',#301,4.);
#76=VECTOR('',#302,22.3397459621556);
#77=VECTOR('',#303,4.);
#78=VECTOR('',#308,1.75);
#79=CIRCLE('',#240,4.00000000000001);
#80=CIRCLE('',#241,4.00000000000001);
#81=CIRCLE('',#244,4.);
#82=CIRCLE('',#245,4.);
#83=CIRCLE('',#247,1.75);
#84=CIRCLE('',#248,1.75);
#85=CIRCLE('',#251,1.75);
#86=CIRCLE('',#252,1.75);
#87=CIRCLE('',#254,3.);
#88=CIRCLE('',#255,3.);
#89=CIRCLE('',#256,3.);
#90=CIRCLE('',#257,3.);
#91=CIRCLE('',#259,3.);
#92=CIRCLE('',#260,3.);
#93=CIRCLE('',#261,3.);
#94=CIRCLE('',#262,3.);
#95=VERTEX_POINT('',#341);
#96=VERTEX_POINT('',#342);
#97=VERTEX_POINT('',#344);
#98=VERTEX_POINT('',#346);
#99=VERTEX_POINT('',#350);
#100=VERTEX_POINT('',#351);
#101=VERTEX_POINT('',#353);
#102=VERTEX_POINT('',#355);
#103=VERTEX_POINT('',#359);
#104=VERTEX_POINT('',#360);
#105=VERTEX_POINT('',#362);
#106=VERTEX_POINT('',#364);
#107=VERTEX_POINT('',#368);
#108=VERTEX_POINT('',#370);
#109=VERTEX_POINT('',#374);
#110=VERTEX_POINT('',#375);
#111=VERTEX_POINT('',#377);
#112=VERTEX_POINT('',#379);
#113=VERTEX_POINT('',#383);
#114=VERTEX_POINT('',#385);
#115=EDGE_CURVE('',#95,#96,#79,.T.);
#116=EDGE_CURVE('',#95,#97,#51,.T.);
#117=EDGE_CURVE('',#97,#98,#80,.T.);
#118=EDGE_CURVE('',#98,#96,#52,.F.);
#119=EDGE_CURVE('',#99,#100,#53,.T.);
#120=EDGE_CURVE('',#100,#101,#54,.T.);
#121=EDGE_CURVE('',#102,#101,#55,.T.);
#122=EDGE_CURVE('',#102,#99,#56,.F.);
#123=EDGE_CURVE('',#103,#104,#81,.T.);
#124=EDGE_CURVE('',#104,#105,#57,.F.);
#125=EDGE_CURVE('',#106,#105,#82,.T.);
#126=EDGE_CURVE('',#106,#103,#58,.T.);
#127=EDGE_CURVE('',#107,#107,#83,.T.);
#128=EDGE_CURVE('',#107,#108,#59,.T.);
#129=EDGE_CURVE('',#108,#108,#84,.T.);
#130=EDGE_CURVE('',#109,#110,#60,.T.);
#131=EDGE_CURVE('',#109,#111,#61,.F.);
#132=EDGE_CURVE('',#111,#112,#62,.T.);
#133=EDGE_CURVE('',#112,#110,#63,.T.);
#134=EDGE_CURVE('',#113,#113,#85,.T.);
#135=EDGE_CURVE('',#113,#114,#64,.T.);
#136=EDGE_CURVE('',#114,#114,#86,.T.);
#137=EDGE_CURVE('',#110,#95,#87,.F.);
#138=EDGE_CURVE('',#96,#100,#88,.F.);
#139=EDGE_CURVE('',#99,#106,#89,.F.);
#140=EDGE_CURVE('',#105,#109,#90,.F.);
#141=EDGE_CURVE('',#97,#112,#91,.T.);
#142=EDGE_CURVE('',#111,#104,#92,.T.);
#143=EDGE_CURVE('',#103,#102,#93,.T.);
#144=EDGE_CURVE('',#101,#98,#94,.T.);
#145=ORIENTED_EDGE('',*,*,#115,.F.);
#146=ORIENTED_EDGE('',*,*,#116,.T.);
#147=ORIENTED_EDGE('',*,*,#117,.T.);
#148=ORIENTED_EDGE('',*,*,#118,.T.);
#149=ORIENTED_EDGE('',*,*,#119,.T.);
#150=ORIENTED_EDGE('',*,*,#120,.T.);
#151=ORIENTED_EDGE('',*,*,#121,.F.);
#152=ORIENTED_EDGE('',*,*,#122,.T.);
#153=ORIENTED_EDGE('',*,*,#123,.T.);
#154=ORIENTED_EDGE('',*,*,#124,.T.);
#155=ORIENTED_EDGE('',*,*,#125,.F.);
#156=ORIENTED_EDGE('',*,*,#126,.T.);
#157=ORIENTED_EDGE('',*,*,#127,.T.);
#158=ORIENTED_EDGE('',*,*,#128,.T.);
#159=ORIENTED_EDGE('',*,*,#129,.F.);
#160=ORIENTED_EDGE('',*,*,#128,.F.);
#161=ORIENTED_EDGE('',*,*,#130,.F.);
#162=ORIENTED_EDGE('',*,*,#131,.T.);
#163=ORIENTED_EDGE('',*,*,#132,.T.);
#164=ORIENTED_EDGE('',*,*,#133,.T.);
#165=ORIENTED_EDGE('',*,*,#134,.T.);
#166=ORIENTED_EDGE('',*,*,#135,.T.);
#167=ORIENTED_EDGE('',*,*,#136,.F.);
#168=ORIENTED_EDGE('',*,*,#135,.F.);
#169=ORIENTED_EDGE('',*,*,#130,.T.);
#170=ORIENTED_EDGE('',*,*,#137,.T.);
#171=ORIENTED_EDGE('',*,*,#115,.T.);
#172=ORIENTED_EDGE('',*,*,#138,.T.);
#173=ORIENTED_EDGE('',*,*,#119,.F.);
#174=ORIENTED_EDGE('',*,*,#139,.T.);
#175=ORIENTED_EDGE('',*,*,#125,.T.);
#176=ORIENTED_EDGE('',*,*,#140,.T.);
#177=ORIENTED_EDGE('',*,*,#127,.F.);
#178=ORIENTED_EDGE('',*,*,#134,.F.);
#179=ORIENTED_EDGE('',*,*,#117,.F.);
#180=ORIENTED_EDGE('',*,*,#141,.T.);
#181=ORIENTED_EDGE('',*,*,#132,.F.);
#182=ORIENTED_EDGE('',*,*,#142,.T.);
#183=ORIENTED_EDGE('',*,*,#123,.F.);
#184=ORIENTED_EDGE('',*,*,#143,.T.);
#185=ORIENTED_EDGE('',*,*,#121,.T.);
#186=ORIENTED_EDGE('',*,*,#144,.T.);
#187=ORIENTED_EDGE('',*,*,#129,.T.);
#188=ORIENTED_EDGE('',*,*,#136,.T.);
#189=ORIENTED_EDGE('',*,*,#140,.F.);
#190=ORIENTED_EDGE('',*,*,#124,.F.);
#191=ORIENTED_EDGE('',*,*,#142,.F.);
#192=ORIENTED_EDGE('',*,*,#131,.F.);
#193=ORIENTED_EDGE('',*,*,#137,.F.);
#194=ORIENTED_EDGE('',*,*,#133,.F.);
#195=ORIENTED_EDGE('',*,*,#141,.F.);
#196=ORIENTED_EDGE('',*,*,#116,.F.);
#197=ORIENTED_EDGE('',*,*,#138,.F.);
#198=ORIENTED_EDGE('',*,*,#118,.F.);
#199=ORIENTED_EDGE('',*,*,#144,.F.);
#200=ORIENTED_EDGE('',*,*,#120,.F.);
#201=ORIENTED_EDGE('',*,*,#139,.F.);
#202=ORIENTED_EDGE('',*,*,#122,.F.);
#203=ORIENTED_EDGE('',*,*,#143,.F.);
#204=ORIENTED_EDGE('',*,*,#126,.F.);
#205=CYLINDRICAL_SURFACE('',#239,4.00000000000001);
#206=CYLINDRICAL_SURFACE('',#243,4.);
#207=CYLINDRICAL_SURFACE('',#246,1.75);
#208=CYLINDRICAL_SURFACE('',#250,1.75);
#209=CYLINDRICAL_SURFACE('',#263,3.);
#210=CYLINDRICAL_SURFACE('',#264,3.);
#211=CYLINDRICAL_SURFACE('',#265,3.);
#212=CYLINDRICAL_SURFACE('',#266,3.);
#213=ADVANCED_FACE('',(#23),#205,.T.);
#214=ADVANCED_FACE('',(#24),#19,.T.);
#215=ADVANCED_FACE('',(#25),#206,.T.);
#216=ADVANCED_FACE('',(#26),#207,.F.);
#217=ADVANCED_FACE('',(#27),#20,.F.);
#218=ADVANCED_FACE('',(#28),#208,.F.);
#219=ADVANCED_FACE('',(#29,#15,#16),#21,.T.);
#220=ADVANCED_FACE('',(#30,#17,#18),#22,.F.);
#221=ADVANCED_FACE('',(#31),#209,.F.);
#222=ADVANCED_FACE('',(#32),#210,.F.);
#223=ADVANCED_FACE('',(#33),#211,.F.);
#224=ADVANCED_FACE('',(#34),#212,.F.);
#225=CLOSED_SHELL('',(#213,#214,#215,#216,#217,#218,#219,#220,#221,#222,
#223,#224));
#226=DERIVED_UNIT_ELEMENT(#228,1.);
#227=DERIVED_UNIT_ELEMENT(#407,-3.);
#228=(
MASS_UNIT()
NAMED_UNIT(*)
SI_UNIT(.KILO.,.GRAM.)
);
#229=DERIVED_UNIT((#226,#227));
#230=MEASURE_REPRESENTATION_ITEM('density measure',
POSITIVE_RATIO_MEASURE(7850.),#229);
#231=PROPERTY_DEFINITION_REPRESENTATION(#236,#233);
#232=PROPERTY_DEFINITION_REPRESENTATION(#237,#234);
#233=REPRESENTATION('material name',(#235),#404);
#234=REPRESENTATION('density',(#230),#404);
#235=DESCRIPTIVE_REPRESENTATION_ITEM('Steel','Steel');
#236=PROPERTY_DEFINITION('material property','material name',#414);
#237=PROPERTY_DEFINITION('material property','density of part',#414);
#238=AXIS2_PLACEMENT_3D('',#339,#267,#268);
#239=AXIS2_PLACEMENT_3D('',#340,#269,#270);
#240=AXIS2_PLACEMENT_3D('',#343,#271,#272);
#241=AXIS2_PLACEMENT_3D('',#347,#274,#275);
#242=AXIS2_PLACEMENT_3D('',#349,#277,#278);
#243=AXIS2_PLACEMENT_3D('',#358,#283,#284);
#244=AXIS2_PLACEMENT_3D('',#361,#285,#286);
#245=AXIS2_PLACEMENT_3D('',#365,#288,#289);
#246=AXIS2_PLACEMENT_3D('',#367,#291,#292);
#247=AXIS2_PLACEMENT_3D('',#369,#293,#294);
#248=AXIS2_PLACEMENT_3D('',#372,#296,#297);
#249=AXIS2_PLACEMENT_3D('',#373,#298,#299);
#250=AXIS2_PLACEMENT_3D('',#382,#304,#305);
#251=AXIS2_PLACEMENT_3D('',#384,#306,#307);
#252=AXIS2_PLACEMENT_3D('',#387,#309,#310);
#253=AXIS2_PLACEMENT_3D('',#388,#311,#312);
#254=AXIS2_PLACEMENT_3D('',#389,#313,#314);
#255=AXIS2_PLACEMENT_3D('',#390,#315,#316);
#256=AXIS2_PLACEMENT_3D('',#391,#317,#318);
#257=AXIS2_PLACEMENT_3D('',#392,#319,#320);
#258=AXIS2_PLACEMENT_3D('',#393,#321,#322);
#259=AXIS2_PLACEMENT_3D('',#394,#323,#324);
#260=AXIS2_PLACEMENT_3D('',#395,#325,#326);
#261=AXIS2_PLACEMENT_3D('',#396,#327,#328);
#262=AXIS2_PLACEMENT_3D('',#397,#329,#330);
#263=AXIS2_PLACEMENT_3D('',#398,#331,#332);
#264=AXIS2_PLACEMENT_3D('',#399,#333,#334);
#265=AXIS2_PLACEMENT_3D('',#400,#335,#336);
#266=AXIS2_PLACEMENT_3D('',#401,#337,#338);
#267=DIRECTION('axis',(0.,0.,1.));
#268=DIRECTION('refdir',(1.,0.,0.));
#269=DIRECTION('center_axis',(0.,-1.,0.));
#270=DIRECTION('ref_axis',(1.,0.,-6.12323399573677E-17));
#271=DIRECTION('center_axis',(0.,1.,0.));
#272=DIRECTION('ref_axis',(0.,0.,1.));
#273=DIRECTION('',(0.,-1.,0.));
#274=DIRECTION('center_axis',(0.,1.,0.));
#275=DIRECTION('ref_axis',(0.,0.,1.));
#276=DIRECTION('',(0.,-1.,0.));
#277=DIRECTION('center_axis',(0.,0.,-1.));
#278=DIRECTION('ref_axis',(-1.,0.,0.));
#279=DIRECTION('',(1.,0.,0.));
#280=DIRECTION('',(0.,-1.,0.));
#281=DIRECTION('',(1.,0.,0.));
#282=DIRECTION('',(0.,-1.,0.));
#283=DIRECTION('center_axis',(0.,-1.,0.));
#284=DIRECTION('ref_axis',(-1.,0.,1.83697019872103E-16));
#285=DIRECTION('center_axis',(0.,1.,0.));
#286=DIRECTION('ref_axis',(0.,0.,1.));
#287=DIRECTION('',(0.,-1.,0.));
#288=DIRECTION('center_axis',(0.,1.,0.));
#289=DIRECTION('ref_axis',(0.,0.,1.));
#290=DIRECTION('',(0.,-1.,0.));
#291=DIRECTION('center_axis',(0.,-1.,0.));
#292=DIRECTION('ref_axis',(0.,0.,-1.));
#293=DIRECTION('center_axis',(0.,1.,0.));
#294=DIRECTION('ref_axis',(0.,0.,1.));
#295=DIRECTION('',(0.,-1.,0.));
#296=DIRECTION('center_axis',(0.,1.,0.));
#297=DIRECTION('ref_axis',(0.,0.,1.));
#298=DIRECTION('center_axis',(0.,0.,-1.));
#299=DIRECTION('ref_axis',(-1.,0.,0.));
#300=DIRECTION('',(1.,0.,0.));
#301=DIRECTION('',(0.,1.,0.));
#302=DIRECTION('',(1.,0.,0.));
#303=DIRECTION('',(0.,1.,0.));
#304=DIRECTION('center_axis',(0.,-1.,0.));
#305=DIRECTION('ref_axis',(0.,0.,-1.));
#306=DIRECTION('center_axis',(0.,1.,0.));
#307=DIRECTION('ref_axis',(0.,0.,1.));
#308=DIRECTION('',(0.,-1.,0.));
#309=DIRECTION('center_axis',(0.,1.,0.));
#310=DIRECTION('ref_axis',(0.,0.,1.));
#311=DIRECTION('center_axis',(0.,1.,0.));
#312=DIRECTION('ref_axis',(0.,0.,1.));
#313=DIRECTION('center_axis',(0.,1.,0.));
#314=DIRECTION('ref_axis',(0.,0.,1.));
#315=DIRECTION('center_axis',(0.,1.,0.));
#316=DIRECTION('ref_axis',(0.,0.,1.));
#317=DIRECTION('center_axis',(0.,1.,0.));
#318=DIRECTION('ref_axis',(0.,0.,1.));
#319=DIRECTION('center_axis',(0.,1.,0.));
#320=DIRECTION('ref_axis',(0.,0.,1.));
#321=DIRECTION('center_axis',(0.,1.,0.));
#322=DIRECTION('ref_axis',(0.,0.,1.));
#323=DIRECTION('center_axis',(0.,1.,0.));
#324=DIRECTION('ref_axis',(0.,0.,1.));
#325=DIRECTION('center_axis',(0.,1.,0.));
#326=DIRECTION('ref_axis',(0.,0.,1.));
#327=DIRECTION('center_axis',(0.,1.,0.));
#328=DIRECTION('ref_axis',(0.,0.,1.));
#329=DIRECTION('center_axis',(0.,1.,0.));
#330=DIRECTION('ref_axis',(0.,0.,1.));
#331=DIRECTION('center_axis',(0.,-1.,0.));
#332=DIRECTION('ref_axis',(0.,0.,-1.));
#333=DIRECTION('center_axis',(0.,-1.,0.));
#334=DIRECTION('ref_axis',(0.,0.,-1.));
#335=DIRECTION('center_axis',(0.,-1.,0.));
#336=DIRECTION('ref_axis',(0.,0.,-1.));
#337=DIRECTION('center_axis',(0.,-1.,0.));
#338=DIRECTION('ref_axis',(0.,0.,-1.));
#339=CARTESIAN_POINT('',(0.,0.,0.));
#340=CARTESIAN_POINT('Origin',(31.,4.,0.));
#341=CARTESIAN_POINT('',(28.525641703473,4.,3.14285714285714));
#342=CARTESIAN_POINT('',(28.525641703473,4.,-3.14285714285714));
#343=CARTESIAN_POINT('Origin',(31.,4.,0.));
#344=CARTESIAN_POINT('',(28.525641703473,0.,3.14285714285714));
#345=CARTESIAN_POINT('',(28.525641703473,4.,3.14285714285714));
#346=CARTESIAN_POINT('',(28.525641703473,0.,-3.14285714285714));
#347=CARTESIAN_POINT('Origin',(31.,0.,0.));
#348=CARTESIAN_POINT('',(28.525641703473,4.,-3.14285714285714));
#349=CARTESIAN_POINT('Origin',(0.,4.,-2.5));
#350=CARTESIAN_POINT('',(4.33012701892219,4.,-2.5));
#351=CARTESIAN_POINT('',(26.6698729810778,4.,-2.5));
#352=CARTESIAN_POINT('',(4.33012701892219,4.,-2.5));
#353=CARTESIAN_POINT('',(26.6698729810778,0.,-2.5));
#354=CARTESIAN_POINT('',(26.6698729810778,4.,-2.5));
#355=CARTESIAN_POINT('',(4.33012701892219,0.,-2.5));
#356=CARTESIAN_POINT('',(4.33012701892219,0.,-2.5));
#357=CARTESIAN_POINT('',(4.33012701892219,4.,-2.5));
#358=CARTESIAN_POINT('Origin',(0.,4.,0.));
#359=CARTESIAN_POINT('',(2.47435829652697,0.,-3.14285714285714));
#360=CARTESIAN_POINT('',(2.47435829652697,0.,3.14285714285714));
#361=CARTESIAN_POINT('Origin',(0.,0.,0.));
#362=CARTESIAN_POINT('',(2.47435829652697,4.,3.14285714285714));
#363=CARTESIAN_POINT('',(2.47435829652697,4.,3.14285714285714));
#364=CARTESIAN_POINT('',(2.47435829652697,4.,-3.14285714285714));
#365=CARTESIAN_POINT('Origin',(0.,4.,0.));
#366=CARTESIAN_POINT('',(2.47435829652697,4.,-3.14285714285714));
#367=CARTESIAN_POINT('Origin',(0.,4.,0.));
#368=CARTESIAN_POINT('',(0.,4.,1.75));
#369=CARTESIAN_POINT('Origin',(0.,4.,0.));
#370=CARTESIAN_POINT('',(0.,0.,1.75));
#371=CARTESIAN_POINT('',(-2.14313189850787E-16,4.,1.75));
#372=CARTESIAN_POINT('Origin',(0.,0.,0.));
#373=CARTESIAN_POINT('Origin',(0.,4.,2.5));
#374=CARTESIAN_POINT('',(4.3301270189222,4.,2.5));
#375=CARTESIAN_POINT('',(26.6698729810778,4.,2.5));
#376=CARTESIAN_POINT('',(4.3301270189222,4.,2.5));
#377=CARTESIAN_POINT('',(4.3301270189222,0.,2.5));
#378=CARTESIAN_POINT('',(4.3301270189222,0.,2.5));
#379=CARTESIAN_POINT('',(26.6698729810778,0.,2.5));
#380=CARTESIAN_POINT('',(4.3301270189222,0.,2.5));
#381=CARTESIAN_POINT('',(26.6698729810778,0.,2.5));
#382=CARTESIAN_POINT('Origin',(31.,4.,0.));
#383=CARTESIAN_POINT('',(31.,4.,1.75));
#384=CARTESIAN_POINT('Origin',(31.,4.,0.));
#385=CARTESIAN_POINT('',(31.,0.,1.75));
#386=CARTESIAN_POINT('',(31.,4.,1.75));
#387=CARTESIAN_POINT('Origin',(31.,0.,0.));
#388=CARTESIAN_POINT('Origin',(0.,4.,0.));
#389=CARTESIAN_POINT('Origin',(26.6698729810778,4.,5.5));
#390=CARTESIAN_POINT('Origin',(26.6698729810778,4.,-5.5));
#391=CARTESIAN_POINT('Origin',(4.33012701892219,4.,-5.5));
#392=CARTESIAN_POINT('Origin',(4.3301270189222,4.,5.5));
#393=CARTESIAN_POINT('Origin',(0.,0.,0.));
#394=CARTESIAN_POINT('Origin',(26.6698729810778,0.,5.5));
#395=CARTESIAN_POINT('Origin',(4.3301270189222,0.,5.5));
#396=CARTESIAN_POINT('Origin',(4.33012701892219,0.,-5.5));
#397=CARTESIAN_POINT('Origin',(26.6698729810778,0.,-5.5));
#398=CARTESIAN_POINT('Origin',(4.3301270189222,4.,5.5));
#399=CARTESIAN_POINT('Origin',(26.6698729810778,4.,5.5));
#400=CARTESIAN_POINT('Origin',(26.6698729810778,4.,-5.5));
#401=CARTESIAN_POINT('Origin',(4.33012701892219,4.,-5.5));
#402=UNCERTAINTY_MEASURE_WITH_UNIT(LENGTH_MEASURE(0.01),#406,
'DISTANCE_ACCURACY_VALUE',
'Maximum model space distance between geometric entities at asserted c
onnectivities');
#403=UNCERTAINTY_MEASURE_WITH_UNIT(LENGTH_MEASURE(0.01),#406,
'DISTANCE_ACCURACY_VALUE',
'Maximum model space distance between geometric entities at asserted c
onnectivities');
#404=(
GEOMETRIC_REPRESENTATION_CONTEXT(3)
GLOBAL_UNCERTAINTY_ASSIGNED_CONTEXT((#402))
GLOBAL_UNIT_ASSIGNED_CONTEXT((#406,#408,#409))
REPRESENTATION_CONTEXT('','3D')
);
#405=(
GEOMETRIC_REPRESENTATION_CONTEXT(3)
GLOBAL_UNCERTAINTY_ASSIGNED_CONTEXT((#403))
GLOBAL_UNIT_ASSIGNED_CONTEXT((#406,#408,#409))
REPRESENTATION_CONTEXT('','3D')
);
#406=(
LENGTH_UNIT()
NAMED_UNIT(*)
SI_UNIT(.MILLI.,.METRE.)
);
#407=(
LENGTH_UNIT()
NAMED_UNIT(*)
SI_UNIT($,.METRE.)
);
#408=(
NAMED_UNIT(*)
PLANE_ANGLE_UNIT()
SI_UNIT($,.RADIAN.)
);
#409=(
NAMED_UNIT(*)
SI_UNIT($,.STERADIAN.)
SOLID_ANGLE_UNIT()
);
#410=SHAPE_DEFINITION_REPRESENTATION(#411,#412);
#411=PRODUCT_DEFINITION_SHAPE('',$,#414);
#412=SHAPE_REPRESENTATION('',(#238),#404);
#413=PRODUCT_DEFINITION_CONTEXT('part definition',#418,'design');
#414=PRODUCT_DEFINITION('2026-09-14-23-52-15-125','grip link',#415,#413);
#415=PRODUCT_DEFINITION_FORMATION('',$,#420);
#416=PRODUCT_RELATED_PRODUCT_CATEGORY('grip link','grip link',(#420));
#417=APPLICATION_PROTOCOL_DEFINITION('international standard',
'automotive_design',2009,#418);
#418=APPLICATION_CONTEXT(
'Core Data for Automotive Mechanical Design Process');
#419=PRODUCT_CONTEXT('part definition',#418,'mechanical');
#420=PRODUCT('2026-09-14-23-52-15-125','grip link',$,(#419));
#421=PRESENTATION_STYLE_ASSIGNMENT((#423));
#422=PRESENTATION_STYLE_ASSIGNMENT((#424));
#423=SURFACE_STYLE_USAGE(.BOTH.,#425);
#424=SURFACE_STYLE_USAGE(.BOTH.,#426);
#425=SURFACE_SIDE_STYLE('',(#427));
#426=SURFACE_SIDE_STYLE('',(#428));
#427=SURFACE_STYLE_FILL_AREA(#429);
#428=SURFACE_STYLE_FILL_AREA(#430);
#429=FILL_AREA_STYLE('Steel - Satin',(#431));
#430=FILL_AREA_STYLE('Aluminum - Anodized Rough (Blue)',(#432));
#431=FILL_AREA_STYLE_COLOUR('Steel - Satin',#433);
#432=FILL_AREA_STYLE_COLOUR('Aluminum - Anodized Rough (Blue)',#434);
#433=COLOUR_RGB('Steel - Satin',0.627450980392157,0.627450980392157,0.627450980392157);
#434=COLOUR_RGB('Aluminum - Anodized Rough (Blue)',0.349019607843137,0.584313725490196,
0.854901960784314);
ENDSEC;
END-ISO-10303-21;
