ISO-10303-21;
HEADER;
/* Generated by software containing ST-Developer
 * from STEP Tools, Inc. (www.steptools.com) 
 */

FILE_DESCRIPTION(
/* description */ (''),
/* implementation_level */ '2;1');

FILE_NAME(
/* name */ 'Linker.step',
/* time_stamp */ '2026-08-23T20:19:03+05:30',
/* author */ (''),
/* organization */ (''),
/* preprocessor_version */ 'ST-DEVELOPER v20.1',
/* originating_system */ 'Autodesk Translation Framework v15.8.0.0',
/* authorisation */ '');

FILE_SCHEMA (('AUTOMOTIVE_DESIGN { 1 0 10303 214 3 1 1 }'));
ENDSEC;

DATA;
#10=MECHANICAL_DESIGN_GEOMETRIC_PRESENTATION_REPRESENTATION('',(#13),#457);
#11=SHAPE_REPRESENTATION_RELATIONSHIP('SRR','None',#464,#12);
#12=ADVANCED_BREP_SHAPE_REPRESENTATION('',(#14),#456);
#13=STYLED_ITEM('',(#473),#14);
#14=MANIFOLD_SOLID_BREP('Body1',#149);
#15=FACE_BOUND('',#47,.T.);
#16=FACE_BOUND('',#48,.T.);
#17=(
BOUNDED_CURVE()
B_SPLINE_CURVE(5,(#294,#295,#296,#297,#298,#299,#300,#301,#302,#303,#304,
#305,#306,#307,#308,#309,#310,#311,#312,#313,#314,#315,#316,#317,#318),
 .UNSPECIFIED.,.F.,.F.)
B_SPLINE_CURVE_WITH_KNOTS((6,1,1,1,1,1,1,1,1,1,1,1,1,1,1,1,1,1,1,1,6),(0.,
0.05,0.1,0.15,0.2,0.25,0.3,0.35,0.4,0.45,0.5,0.55,0.6,0.65,0.7,0.75,0.8,
0.85,0.9,0.95,1.),.UNSPECIFIED.)
CURVE()
GEOMETRIC_REPRESENTATION_ITEM()
RATIONAL_B_SPLINE_CURVE((1.,1.,1.,1.,1.,1.,1.,1.,1.,1.,1.,1.,1.,1.,1.,1.,
1.,1.,1.,1.,1.,1.,1.,1.,1.))
REPRESENTATION_ITEM('')
);
#18=(
BOUNDED_CURVE()
B_SPLINE_CURVE(5,(#320,#321,#322,#323,#324,#325,#326,#327,#328,#329,#330,
#331,#332,#333,#334,#335,#336,#337,#338,#339,#340,#341,#342,#343,#344),
 .UNSPECIFIED.,.F.,.F.)
B_SPLINE_CURVE_WITH_KNOTS((6,1,1,1,1,1,1,1,1,1,1,1,1,1,1,1,1,1,1,1,6),(0.,
0.05,0.1,0.15,0.2,0.25,0.3,0.35,0.4,0.45,0.5,0.55,0.6,0.65,0.7,0.75,0.8,
0.85,0.9,0.95,1.),.UNSPECIFIED.)
CURVE()
GEOMETRIC_REPRESENTATION_ITEM()
RATIONAL_B_SPLINE_CURVE((1.,1.,1.,1.,1.,1.,1.,1.,1.,1.,1.,1.,1.,1.,1.,1.,
1.,1.,1.,1.,1.,1.,1.,1.,1.))
REPRESENTATION_ITEM('')
);
#19=(
BOUNDED_CURVE()
B_SPLINE_CURVE(5,(#402,#403,#404,#405,#406,#407,#408,#409,#410,#411,#412,
#413,#414,#415,#416,#417,#418,#419,#420,#421,#422,#423,#424,#425,#426),
 .UNSPECIFIED.,.F.,.F.)
B_SPLINE_CURVE_WITH_KNOTS((6,1,1,1,1,1,1,1,1,1,1,1,1,1,1,1,1,1,1,1,6),(0.,
0.05,0.1,0.15,0.2,0.25,0.3,0.35,0.4,0.45,0.5,0.55,0.6,0.65,0.7,0.75,0.8,
0.85,0.9,0.95,1.),.UNSPECIFIED.)
CURVE()
GEOMETRIC_REPRESENTATION_ITEM()
RATIONAL_B_SPLINE_CURVE((1.,1.,1.,1.,1.,1.,1.,1.,1.,1.,1.,1.,1.,1.,1.,1.,
1.,1.,1.,1.,1.,1.,1.,1.,1.))
REPRESENTATION_ITEM('')
);
#20=(
BOUNDED_CURVE()
B_SPLINE_CURVE(5,(#427,#428,#429,#430,#431,#432,#433,#434,#435,#436,#437,
#438,#439,#440,#441,#442,#443,#444,#445,#446,#447,#448,#449,#450,#451),
 .UNSPECIFIED.,.F.,.F.)
B_SPLINE_CURVE_WITH_KNOTS((6,1,1,1,1,1,1,1,1,1,1,1,1,1,1,1,1,1,1,1,6),(0.,
0.05,0.1,0.15,0.2,0.25,0.3,0.35,0.4,0.45,0.5,0.55,0.6,0.65,0.7,0.75,0.8,
0.85,0.9,0.95,1.),.UNSPECIFIED.)
CURVE()
GEOMETRIC_REPRESENTATION_ITEM()
RATIONAL_B_SPLINE_CURVE((1.,1.,1.,1.,1.,1.,1.,1.,1.,1.,1.,1.,1.,1.,1.,1.,
1.,1.,1.,1.,1.,1.,1.,1.,1.))
REPRESENTATION_ITEM('')
);
#21=(
BOUNDED_SURFACE()
B_SPLINE_SURFACE(5,1,((#243,#244),(#245,#246),(#247,#248),(#249,#250),(#251,
#252),(#253,#254),(#255,#256),(#257,#258),(#259,#260),(#261,#262),(#263,
#264),(#265,#266),(#267,#268),(#269,#270),(#271,#272),(#273,#274),(#275,
#276),(#277,#278),(#279,#280),(#281,#282),(#283,#284),(#285,#286),(#287,
#288),(#289,#290),(#291,#292)),.UNSPECIFIED.,.F.,.F.,.F.)
B_SPLINE_SURFACE_WITH_KNOTS((6,1,1,1,1,1,1,1,1,1,1,1,1,1,1,1,1,1,1,1,6),
(2,2),(0.,0.05,0.1,0.15,0.2,0.25,0.3,0.35,0.4,0.45,0.5,0.55,0.6,0.65,0.7,
0.75,0.8,0.85,0.9,0.95,1.),(0.,1.),.UNSPECIFIED.)
GEOMETRIC_REPRESENTATION_ITEM()
RATIONAL_B_SPLINE_SURFACE(((1.,1.),(1.,1.),(1.,1.),(1.,1.),(1.,1.),(1.,
1.),(1.,1.),(1.,1.),(1.,1.),(1.,1.),(1.,1.),(1.,1.),(1.,1.),(1.,1.),(1.,
1.),(1.,1.),(1.,1.),(1.,1.),(1.,1.),(1.,1.),(1.,1.),(1.,1.),(1.,1.),(1.,
1.),(1.,1.)))
REPRESENTATION_ITEM('')
SURFACE()
);
#22=(
BOUNDED_SURFACE()
B_SPLINE_SURFACE(5,1,((#352,#353),(#354,#355),(#356,#357),(#358,#359),(#360,
#361),(#362,#363),(#364,#365),(#366,#367),(#368,#369),(#370,#371),(#372,
#373),(#374,#375),(#376,#377),(#378,#379),(#380,#381),(#382,#383),(#384,
#385),(#386,#387),(#388,#389),(#390,#391),(#392,#393),(#394,#395),(#396,
#397),(#398,#399),(#400,#401)),.UNSPECIFIED.,.F.,.F.,.F.)
B_SPLINE_SURFACE_WITH_KNOTS((6,1,1,1,1,1,1,1,1,1,1,1,1,1,1,1,1,1,1,1,6),
(2,2),(0.,0.05,0.1,0.15,0.2,0.25,0.3,0.35,0.4,0.45,0.5,0.55,0.6,0.65,0.7,
0.75,0.8,0.85,0.9,0.95,1.),(0.,1.),.UNSPECIFIED.)
GEOMETRIC_REPRESENTATION_ITEM()
RATIONAL_B_SPLINE_SURFACE(((1.,1.),(1.,1.),(1.,1.),(1.,1.),(1.,1.),(1.,
1.),(1.,1.),(1.,1.),(1.,1.),(1.,1.),(1.,1.),(1.,1.),(1.,1.),(1.,1.),(1.,
1.),(1.,1.),(1.,1.),(1.,1.),(1.,1.),(1.,1.),(1.,1.),(1.,1.),(1.,1.),(1.,
1.),(1.,1.)))
REPRESENTATION_ITEM('')
SURFACE()
);
#23=PLANE('',#166);
#24=PLANE('',#170);
#25=PLANE('',#177);
#26=PLANE('',#178);
#27=FACE_OUTER_BOUND('',#37,.T.);
#28=FACE_OUTER_BOUND('',#38,.T.);
#29=FACE_OUTER_BOUND('',#39,.T.);
#30=FACE_OUTER_BOUND('',#40,.T.);
#31=FACE_OUTER_BOUND('',#41,.T.);
#32=FACE_OUTER_BOUND('',#42,.T.);
#33=FACE_OUTER_BOUND('',#43,.T.);
#34=FACE_OUTER_BOUND('',#44,.T.);
#35=FACE_OUTER_BOUND('',#45,.T.);
#36=FACE_OUTER_BOUND('',#46,.T.);
#37=EDGE_LOOP('',(#99,#100,#101,#102));
#38=EDGE_LOOP('',(#103));
#39=EDGE_LOOP('',(#104,#105,#106,#107));
#40=EDGE_LOOP('',(#108));
#41=EDGE_LOOP('',(#109,#110,#111,#112));
#42=EDGE_LOOP('',(#113,#114,#115,#116));
#43=EDGE_LOOP('',(#117,#118,#119,#120));
#44=EDGE_LOOP('',(#121,#122,#123,#124));
#45=EDGE_LOOP('',(#125,#126,#127,#128));
#46=EDGE_LOOP('',(#129,#130,#131,#132));
#47=EDGE_LOOP('',(#133));
#48=EDGE_LOOP('',(#134));
#49=LINE('',#224,#55);
#50=LINE('',#231,#56);
#51=LINE('',#239,#57);
#52=LINE('',#242,#58);
#53=LINE('',#345,#59);
#54=LINE('',#351,#60);
#55=VECTOR('',#185,2.5);
#56=VECTOR('',#194,2.5);
#57=VECTOR('',#203,10.);
#58=VECTOR('',#206,10.);
#59=VECTOR('',#207,10.);
#60=VECTOR('',#214,10.);
#61=CIRCLE('',#164,2.5);
#62=CIRCLE('',#165,2.5);
#63=CIRCLE('',#168,2.5);
#64=CIRCLE('',#169,2.5);
#65=CIRCLE('',#172,30.539);
#66=CIRCLE('',#173,30.539);
#67=CIRCLE('',#175,20.);
#68=CIRCLE('',#176,20.);
#69=VERTEX_POINT('',#221);
#70=VERTEX_POINT('',#223);
#71=VERTEX_POINT('',#228);
#72=VERTEX_POINT('',#230);
#73=VERTEX_POINT('',#235);
#74=VERTEX_POINT('',#236);
#75=VERTEX_POINT('',#238);
#76=VERTEX_POINT('',#240);
#77=VERTEX_POINT('',#293);
#78=VERTEX_POINT('',#319);
#79=VERTEX_POINT('',#347);
#80=VERTEX_POINT('',#349);
#81=EDGE_CURVE('',#69,#69,#61,.T.);
#82=EDGE_CURVE('',#69,#70,#49,.T.);
#83=EDGE_CURVE('',#70,#70,#62,.T.);
#84=EDGE_CURVE('',#71,#71,#63,.T.);
#85=EDGE_CURVE('',#71,#72,#50,.T.);
#86=EDGE_CURVE('',#72,#72,#64,.T.);
#87=EDGE_CURVE('',#73,#74,#65,.T.);
#88=EDGE_CURVE('',#74,#75,#51,.T.);
#89=EDGE_CURVE('',#76,#75,#66,.T.);
#90=EDGE_CURVE('',#73,#76,#52,.T.);
#91=EDGE_CURVE('',#77,#73,#17,.T.);
#92=EDGE_CURVE('',#78,#76,#18,.T.);
#93=EDGE_CURVE('',#77,#78,#53,.T.);
#94=EDGE_CURVE('',#79,#77,#67,.T.);
#95=EDGE_CURVE('',#80,#78,#68,.T.);
#96=EDGE_CURVE('',#79,#80,#54,.T.);
#97=EDGE_CURVE('',#74,#79,#19,.T.);
#98=EDGE_CURVE('',#75,#80,#20,.T.);
#99=ORIENTED_EDGE('',*,*,#81,.F.);
#100=ORIENTED_EDGE('',*,*,#82,.T.);
#101=ORIENTED_EDGE('',*,*,#83,.T.);
#102=ORIENTED_EDGE('',*,*,#82,.F.);
#103=ORIENTED_EDGE('',*,*,#83,.F.);
#104=ORIENTED_EDGE('',*,*,#84,.F.);
#105=ORIENTED_EDGE('',*,*,#85,.T.);
#106=ORIENTED_EDGE('',*,*,#86,.T.);
#107=ORIENTED_EDGE('',*,*,#85,.F.);
#108=ORIENTED_EDGE('',*,*,#86,.F.);
#109=ORIENTED_EDGE('',*,*,#87,.T.);
#110=ORIENTED_EDGE('',*,*,#88,.T.);
#111=ORIENTED_EDGE('',*,*,#89,.F.);
#112=ORIENTED_EDGE('',*,*,#90,.F.);
#113=ORIENTED_EDGE('',*,*,#91,.T.);
#114=ORIENTED_EDGE('',*,*,#90,.T.);
#115=ORIENTED_EDGE('',*,*,#92,.F.);
#116=ORIENTED_EDGE('',*,*,#93,.F.);
#117=ORIENTED_EDGE('',*,*,#94,.T.);
#118=ORIENTED_EDGE('',*,*,#93,.T.);
#119=ORIENTED_EDGE('',*,*,#95,.F.);
#120=ORIENTED_EDGE('',*,*,#96,.F.);
#121=ORIENTED_EDGE('',*,*,#97,.T.);
#122=ORIENTED_EDGE('',*,*,#96,.T.);
#123=ORIENTED_EDGE('',*,*,#98,.F.);
#124=ORIENTED_EDGE('',*,*,#88,.F.);
#125=ORIENTED_EDGE('',*,*,#98,.T.);
#126=ORIENTED_EDGE('',*,*,#95,.T.);
#127=ORIENTED_EDGE('',*,*,#92,.T.);
#128=ORIENTED_EDGE('',*,*,#89,.T.);
#129=ORIENTED_EDGE('',*,*,#97,.F.);
#130=ORIENTED_EDGE('',*,*,#87,.F.);
#131=ORIENTED_EDGE('',*,*,#91,.F.);
#132=ORIENTED_EDGE('',*,*,#94,.F.);
#133=ORIENTED_EDGE('',*,*,#81,.T.);
#134=ORIENTED_EDGE('',*,*,#84,.T.);
#135=CYLINDRICAL_SURFACE('',#163,2.5);
#136=CYLINDRICAL_SURFACE('',#167,2.5);
#137=CYLINDRICAL_SURFACE('',#171,30.539);
#138=CYLINDRICAL_SURFACE('',#174,20.);
#139=ADVANCED_FACE('',(#27),#135,.F.);
#140=ADVANCED_FACE('',(#28),#23,.T.);
#141=ADVANCED_FACE('',(#29),#136,.F.);
#142=ADVANCED_FACE('',(#30),#24,.T.);
#143=ADVANCED_FACE('',(#31),#137,.T.);
#144=ADVANCED_FACE('',(#32),#21,.T.);
#145=ADVANCED_FACE('',(#33),#138,.T.);
#146=ADVANCED_FACE('',(#34),#22,.T.);
#147=ADVANCED_FACE('',(#35),#25,.T.);
#148=ADVANCED_FACE('',(#36,#15,#16),#26,.F.);
#149=CLOSED_SHELL('',(#139,#140,#141,#142,#143,#144,#145,#146,#147,#148));
#150=DERIVED_UNIT_ELEMENT(#152,1.);
#151=DERIVED_UNIT_ELEMENT(#459,-3.);
#152=(
MASS_UNIT()
NAMED_UNIT(*)
SI_UNIT(.KILO.,.GRAM.)
);
#153=DERIVED_UNIT((#150,#151));
#154=MEASURE_REPRESENTATION_ITEM('density measure',
POSITIVE_RATIO_MEASURE(7850.),#153);
#155=PROPERTY_DEFINITION_REPRESENTATION(#160,#157);
#156=PROPERTY_DEFINITION_REPRESENTATION(#161,#158);
#157=REPRESENTATION('material name',(#159),#456);
#158=REPRESENTATION('density',(#154),#456);
#159=DESCRIPTIVE_REPRESENTATION_ITEM('Steel','Steel');
#160=PROPERTY_DEFINITION('material property','material name',#466);
#161=PROPERTY_DEFINITION('material property','density of part',#466);
#162=AXIS2_PLACEMENT_3D('',#219,#179,#180);
#163=AXIS2_PLACEMENT_3D('',#220,#181,#182);
#164=AXIS2_PLACEMENT_3D('',#222,#183,#184);
#165=AXIS2_PLACEMENT_3D('',#225,#186,#187);
#166=AXIS2_PLACEMENT_3D('',#226,#188,#189);
#167=AXIS2_PLACEMENT_3D('',#227,#190,#191);
#168=AXIS2_PLACEMENT_3D('',#229,#192,#193);
#169=AXIS2_PLACEMENT_3D('',#232,#195,#196);
#170=AXIS2_PLACEMENT_3D('',#233,#197,#198);
#171=AXIS2_PLACEMENT_3D('',#234,#199,#200);
#172=AXIS2_PLACEMENT_3D('',#237,#201,#202);
#173=AXIS2_PLACEMENT_3D('',#241,#204,#205);
#174=AXIS2_PLACEMENT_3D('',#346,#208,#209);
#175=AXIS2_PLACEMENT_3D('',#348,#210,#211);
#176=AXIS2_PLACEMENT_3D('',#350,#212,#213);
#177=AXIS2_PLACEMENT_3D('',#452,#215,#216);
#178=AXIS2_PLACEMENT_3D('',#453,#217,#218);
#179=DIRECTION('axis',(0.,0.,1.));
#180=DIRECTION('refdir',(1.,0.,0.));
#181=DIRECTION('center_axis',(0.,0.,1.));
#182=DIRECTION('ref_axis',(1.,0.,0.));
#183=DIRECTION('center_axis',(0.,0.,1.));
#184=DIRECTION('ref_axis',(1.,0.,0.));
#185=DIRECTION('',(0.,0.,1.));
#186=DIRECTION('center_axis',(0.,0.,1.));
#187=DIRECTION('ref_axis',(1.,0.,0.));
#188=DIRECTION('center_axis',(0.,0.,-1.));
#189=DIRECTION('ref_axis',(1.,0.,0.));
#190=DIRECTION('center_axis',(0.,0.,1.));
#191=DIRECTION('ref_axis',(1.,0.,0.));
#192=DIRECTION('center_axis',(0.,0.,1.));
#193=DIRECTION('ref_axis',(1.,0.,0.));
#194=DIRECTION('',(0.,0.,1.));
#195=DIRECTION('center_axis',(0.,0.,1.));
#196=DIRECTION('ref_axis',(1.,0.,0.));
#197=DIRECTION('center_axis',(0.,0.,-1.));
#198=DIRECTION('ref_axis',(1.,0.,0.));
#199=DIRECTION('center_axis',(0.,0.,1.));
#200=DIRECTION('ref_axis',(1.,0.,0.));
#201=DIRECTION('center_axis',(0.,0.,1.));
#202=DIRECTION('ref_axis',(1.,0.,0.));
#203=DIRECTION('',(0.,0.,1.));
#204=DIRECTION('center_axis',(0.,0.,1.));
#205=DIRECTION('ref_axis',(1.,0.,0.));
#206=DIRECTION('',(0.,0.,1.));
#207=DIRECTION('',(0.,0.,1.));
#208=DIRECTION('center_axis',(0.,0.,1.));
#209=DIRECTION('ref_axis',(1.,0.,0.));
#210=DIRECTION('center_axis',(0.,0.,1.));
#211=DIRECTION('ref_axis',(1.,0.,0.));
#212=DIRECTION('center_axis',(0.,0.,1.));
#213=DIRECTION('ref_axis',(1.,0.,0.));
#214=DIRECTION('',(0.,0.,1.));
#215=DIRECTION('center_axis',(0.,0.,1.));
#216=DIRECTION('ref_axis',(1.,0.,0.));
#217=DIRECTION('center_axis',(0.,0.,1.));
#218=DIRECTION('ref_axis',(1.,0.,0.));
#219=CARTESIAN_POINT('',(0.,0.,0.));
#220=CARTESIAN_POINT('Origin',(0.,0.,0.));
#221=CARTESIAN_POINT('',(-2.5,3.06161699786838E-16,0.));
#222=CARTESIAN_POINT('Origin',(0.,0.,0.));
#223=CARTESIAN_POINT('',(-2.5,3.06161699786838E-16,4.));
#224=CARTESIAN_POINT('',(-2.5,-3.06161699786838E-16,0.));
#225=CARTESIAN_POINT('Origin',(0.,0.,4.));
#226=CARTESIAN_POINT('Origin',(0.,0.,4.));
#227=CARTESIAN_POINT('Origin',(0.,120.,0.));
#228=CARTESIAN_POINT('',(-2.5,120.,0.));
#229=CARTESIAN_POINT('Origin',(0.,120.,0.));
#230=CARTESIAN_POINT('',(-2.5,120.,4.));
#231=CARTESIAN_POINT('',(-2.5,120.,0.));
#232=CARTESIAN_POINT('Origin',(0.,120.,4.));
#233=CARTESIAN_POINT('Origin',(0.,120.,4.));
#234=CARTESIAN_POINT('Origin',(0.,0.,0.));
#235=CARTESIAN_POINT('',(-30.539,0.,0.));
#236=CARTESIAN_POINT('',(30.539,0.,0.));
#237=CARTESIAN_POINT('Origin',(0.,0.,0.));
#238=CARTESIAN_POINT('',(30.539,0.,10.));
#239=CARTESIAN_POINT('',(30.539,0.,0.));
#240=CARTESIAN_POINT('',(-30.539,0.,10.));
#241=CARTESIAN_POINT('Origin',(0.,0.,10.));
#242=CARTESIAN_POINT('',(-30.539,0.,0.));
#243=CARTESIAN_POINT('Ctrl Pts',(-20.,120.,0.));
#244=CARTESIAN_POINT('Ctrl Pts',(-20.,120.,10.));
#245=CARTESIAN_POINT('Ctrl Pts',(-20.0000000292122,118.627722047559,0.));
#246=CARTESIAN_POINT('Ctrl Pts',(-20.0000000292122,118.627722047559,10.));
#247=CARTESIAN_POINT('Ctrl Pts',(-19.9376764850248,115.933732431401,0.));
#248=CARTESIAN_POINT('Ctrl Pts',(-19.9376764850248,115.933732431401,10.));
#249=CARTESIAN_POINT('Ctrl Pts',(-19.6572229233837,112.044444608819,0.));
#250=CARTESIAN_POINT('Ctrl Pts',(-19.6572229233837,112.044444608819,10.));
#251=CARTESIAN_POINT('Ctrl Pts',(-18.9403433975459,107.13676985626,0.));
#252=CARTESIAN_POINT('Ctrl Pts',(-18.9403433975459,107.13676985626,10.));
#253=CARTESIAN_POINT('Ctrl Pts',(-17.65596800581,101.321681717735,0.));
#254=CARTESIAN_POINT('Ctrl Pts',(-17.65596800581,101.321681717735,10.));
#255=CARTESIAN_POINT('Ctrl Pts',(-16.2248553174321,95.6467109324828,0.));
#256=CARTESIAN_POINT('Ctrl Pts',(-16.2248553174321,95.6467109324828,10.));
#257=CARTESIAN_POINT('Ctrl Pts',(-14.9004077394375,89.9411156919393,0.));
#258=CARTESIAN_POINT('Ctrl Pts',(-14.9004077394375,89.9411156919393,10.));
#259=CARTESIAN_POINT('Ctrl Pts',(-13.9014237302887,84.0873896918166,0.));
#260=CARTESIAN_POINT('Ctrl Pts',(-13.9014237302887,84.0873896918166,10.));
#261=CARTESIAN_POINT('Ctrl Pts',(-13.3660334587605,78.0653078740523,0.));
#262=CARTESIAN_POINT('Ctrl Pts',(-13.3660334587605,78.0653078740523,10.));
#263=CARTESIAN_POINT('Ctrl Pts',(-13.3647094221738,71.9193112558465,0.));
#264=CARTESIAN_POINT('Ctrl Pts',(-13.3647094221738,71.9193112558465,10.));
#265=CARTESIAN_POINT('Ctrl Pts',(-13.9112062304082,65.7277339476239,0.));
#266=CARTESIAN_POINT('Ctrl Pts',(-13.9112062304082,65.7277339476239,10.));
#267=CARTESIAN_POINT('Ctrl Pts',(-14.9727400602974,59.5726135658983,0.));
#268=CARTESIAN_POINT('Ctrl Pts',(-14.9727400602974,59.5726135658983,10.));
#269=CARTESIAN_POINT('Ctrl Pts',(-16.4790055272933,53.5085715540788,0.));
#270=CARTESIAN_POINT('Ctrl Pts',(-16.4790055272933,53.5085715540788,10.));
#271=CARTESIAN_POINT('Ctrl Pts',(-18.3304844294397,47.5345461240141,0.));
#272=CARTESIAN_POINT('Ctrl Pts',(-18.3304844294397,47.5345461240141,10.));
#273=CARTESIAN_POINT('Ctrl Pts',(-20.4074278569056,41.6160295248004,0.));
#274=CARTESIAN_POINT('Ctrl Pts',(-20.4074278569056,41.6160295248004,10.));
#275=CARTESIAN_POINT('Ctrl Pts',(-22.5782462017338,35.7038708266014,0.));
#276=CARTESIAN_POINT('Ctrl Pts',(-22.5782462017338,35.7038708266014,10.));
#277=CARTESIAN_POINT('Ctrl Pts',(-24.7076307645515,29.7541982847054,0.));
#278=CARTESIAN_POINT('Ctrl Pts',(-24.7076307645515,29.7541982847054,10.));
#279=CARTESIAN_POINT('Ctrl Pts',(-26.6644838252297,23.7473231893313,0.));
#280=CARTESIAN_POINT('Ctrl Pts',(-26.6644838252297,23.7473231893313,10.));
#281=CARTESIAN_POINT('Ctrl Pts',(-28.3301034124066,17.7088099638424,0.));
#282=CARTESIAN_POINT('Ctrl Pts',(-28.3301034124066,17.7088099638424,10.));
#283=CARTESIAN_POINT('Ctrl Pts',(-29.6026898031483,11.6918876253428,0.));
#284=CARTESIAN_POINT('Ctrl Pts',(-29.6026898031483,11.6918876253428,10.));
#285=CARTESIAN_POINT('Ctrl Pts',(-30.2422176397273,6.94510314568782,0.));
#286=CARTESIAN_POINT('Ctrl Pts',(-30.2422176397273,6.94510314568782,10.));
#287=CARTESIAN_POINT('Ctrl Pts',(-30.4850394280026,3.44604649484369,0.));
#288=CARTESIAN_POINT('Ctrl Pts',(-30.4850394280026,3.44604649484369,10.));
#289=CARTESIAN_POINT('Ctrl Pts',(-30.539,1.14363345569128,0.));
#290=CARTESIAN_POINT('Ctrl Pts',(-30.539,1.14363345569128,10.));
#291=CARTESIAN_POINT('Ctrl Pts',(-30.539,0.,0.));
#292=CARTESIAN_POINT('Ctrl Pts',(-30.539,0.,10.));
#293=CARTESIAN_POINT('',(-20.,120.,0.));
#294=CARTESIAN_POINT('Ctrl Pts',(-20.,120.,0.));
#295=CARTESIAN_POINT('Ctrl Pts',(-20.0000000292122,118.627722047559,0.));
#296=CARTESIAN_POINT('Ctrl Pts',(-19.9376764850248,115.933732431401,0.));
#297=CARTESIAN_POINT('Ctrl Pts',(-19.6572229233837,112.044444608819,0.));
#298=CARTESIAN_POINT('Ctrl Pts',(-18.9403433975459,107.13676985626,0.));
#299=CARTESIAN_POINT('Ctrl Pts',(-17.65596800581,101.321681717735,0.));
#300=CARTESIAN_POINT('Ctrl Pts',(-16.2248553174321,95.6467109324828,0.));
#301=CARTESIAN_POINT('Ctrl Pts',(-14.9004077394375,89.9411156919393,0.));
#302=CARTESIAN_POINT('Ctrl Pts',(-13.9014237302887,84.0873896918166,0.));
#303=CARTESIAN_POINT('Ctrl Pts',(-13.3660334587605,78.0653078740523,0.));
#304=CARTESIAN_POINT('Ctrl Pts',(-13.3647094221738,71.9193112558465,0.));
#305=CARTESIAN_POINT('Ctrl Pts',(-13.9112062304082,65.7277339476239,0.));
#306=CARTESIAN_POINT('Ctrl Pts',(-14.9727400602974,59.5726135658983,0.));
#307=CARTESIAN_POINT('Ctrl Pts',(-16.4790055272933,53.5085715540788,0.));
#308=CARTESIAN_POINT('Ctrl Pts',(-18.3304844294397,47.5345461240141,0.));
#309=CARTESIAN_POINT('Ctrl Pts',(-20.4074278569056,41.6160295248004,0.));
#310=CARTESIAN_POINT('Ctrl Pts',(-22.5782462017338,35.7038708266014,0.));
#311=CARTESIAN_POINT('Ctrl Pts',(-24.7076307645515,29.7541982847054,0.));
#312=CARTESIAN_POINT('Ctrl Pts',(-26.6644838252297,23.7473231893313,0.));
#313=CARTESIAN_POINT('Ctrl Pts',(-28.3301034124066,17.7088099638424,0.));
#314=CARTESIAN_POINT('Ctrl Pts',(-29.6026898031483,11.6918876253428,0.));
#315=CARTESIAN_POINT('Ctrl Pts',(-30.2422176397273,6.94510314568782,0.));
#316=CARTESIAN_POINT('Ctrl Pts',(-30.4850394280026,3.44604649484369,0.));
#317=CARTESIAN_POINT('Ctrl Pts',(-30.539,1.14363345569128,0.));
#318=CARTESIAN_POINT('Ctrl Pts',(-30.539,0.,0.));
#319=CARTESIAN_POINT('',(-20.,120.,10.));
#320=CARTESIAN_POINT('Ctrl Pts',(-20.,120.,10.));
#321=CARTESIAN_POINT('Ctrl Pts',(-20.0000000292122,118.627722047559,10.));
#322=CARTESIAN_POINT('Ctrl Pts',(-19.9376764850248,115.933732431401,10.));
#323=CARTESIAN_POINT('Ctrl Pts',(-19.6572229233837,112.044444608819,10.));
#324=CARTESIAN_POINT('Ctrl Pts',(-18.9403433975459,107.13676985626,10.));
#325=CARTESIAN_POINT('Ctrl Pts',(-17.65596800581,101.321681717735,10.));
#326=CARTESIAN_POINT('Ctrl Pts',(-16.2248553174321,95.6467109324828,10.));
#327=CARTESIAN_POINT('Ctrl Pts',(-14.9004077394375,89.9411156919393,10.));
#328=CARTESIAN_POINT('Ctrl Pts',(-13.9014237302887,84.0873896918166,10.));
#329=CARTESIAN_POINT('Ctrl Pts',(-13.3660334587605,78.0653078740523,10.));
#330=CARTESIAN_POINT('Ctrl Pts',(-13.3647094221738,71.9193112558465,10.));
#331=CARTESIAN_POINT('Ctrl Pts',(-13.9112062304082,65.7277339476239,10.));
#332=CARTESIAN_POINT('Ctrl Pts',(-14.9727400602974,59.5726135658983,10.));
#333=CARTESIAN_POINT('Ctrl Pts',(-16.4790055272933,53.5085715540788,10.));
#334=CARTESIAN_POINT('Ctrl Pts',(-18.3304844294397,47.5345461240141,10.));
#335=CARTESIAN_POINT('Ctrl Pts',(-20.4074278569056,41.6160295248004,10.));
#336=CARTESIAN_POINT('Ctrl Pts',(-22.5782462017338,35.7038708266014,10.));
#337=CARTESIAN_POINT('Ctrl Pts',(-24.7076307645515,29.7541982847054,10.));
#338=CARTESIAN_POINT('Ctrl Pts',(-26.6644838252297,23.7473231893313,10.));
#339=CARTESIAN_POINT('Ctrl Pts',(-28.3301034124066,17.7088099638424,10.));
#340=CARTESIAN_POINT('Ctrl Pts',(-29.6026898031483,11.6918876253428,10.));
#341=CARTESIAN_POINT('Ctrl Pts',(-30.2422176397273,6.94510314568782,10.));
#342=CARTESIAN_POINT('Ctrl Pts',(-30.4850394280026,3.44604649484369,10.));
#343=CARTESIAN_POINT('Ctrl Pts',(-30.539,1.14363345569128,10.));
#344=CARTESIAN_POINT('Ctrl Pts',(-30.539,0.,10.));
#345=CARTESIAN_POINT('',(-20.,120.,0.));
#346=CARTESIAN_POINT('Origin',(0.,120.,0.));
#347=CARTESIAN_POINT('',(20.,120.,0.));
#348=CARTESIAN_POINT('Origin',(0.,120.,0.));
#349=CARTESIAN_POINT('',(20.,120.,10.));
#350=CARTESIAN_POINT('Origin',(0.,120.,10.));
#351=CARTESIAN_POINT('',(20.,120.,0.));
#352=CARTESIAN_POINT('Ctrl Pts',(30.539,0.,0.));
#353=CARTESIAN_POINT('Ctrl Pts',(30.539,0.,10.));
#354=CARTESIAN_POINT('Ctrl Pts',(30.539,1.07851448258579,0.));
#355=CARTESIAN_POINT('Ctrl Pts',(30.539,1.07851448258579,10.));
#356=CARTESIAN_POINT('Ctrl Pts',(30.4943386624362,3.27561636361725,0.));
#357=CARTESIAN_POINT('Ctrl Pts',(30.4943386624362,3.27561636361725,10.));
#358=CARTESIAN_POINT('Ctrl Pts',(30.2933628095463,6.6914857737646,0.));
#359=CARTESIAN_POINT('Ctrl Pts',(30.2933628095463,6.6914857737646,10.));
#360=CARTESIAN_POINT('Ctrl Pts',(29.7578006302624,11.4626386493651,0.));
#361=CARTESIAN_POINT('Ctrl Pts',(29.7578006302624,11.4626386493651,10.));
#362=CARTESIAN_POINT('Ctrl Pts',(28.6528580954035,17.65497888912,0.));
#363=CARTESIAN_POINT('Ctrl Pts',(28.6528580954035,17.65497888912,10.));
#364=CARTESIAN_POINT('Ctrl Pts',(27.1406923417996,23.9143209036678,0.));
#365=CARTESIAN_POINT('Ctrl Pts',(27.1406923417996,23.9143209036678,10.));
#366=CARTESIAN_POINT('Ctrl Pts',(25.2760122959699,30.094374784705,0.));
#367=CARTESIAN_POINT('Ctrl Pts',(25.2760122959699,30.094374784705,10.));
#368=CARTESIAN_POINT('Ctrl Pts',(23.1494665788765,36.1084149337793,0.));
#369=CARTESIAN_POINT('Ctrl Pts',(23.1494665788765,36.1084149337793,10.));
#370=CARTESIAN_POINT('Ctrl Pts',(20.8973529459248,41.9731148856745,0.));
#371=CARTESIAN_POINT('Ctrl Pts',(20.8973529459248,41.9731148856745,10.));
#372=CARTESIAN_POINT('Ctrl Pts',(18.6819627496694,47.7676295625584,0.));
#373=CARTESIAN_POINT('Ctrl Pts',(18.6819627496694,47.7676295625584,10.));
#374=CARTESIAN_POINT('Ctrl Pts',(16.672913108094,53.595323231683,0.));
#375=CARTESIAN_POINT('Ctrl Pts',(16.672913108094,53.595323231683,10.));
#376=CARTESIAN_POINT('Ctrl Pts',(15.0281762020605,59.5445053677228,0.));
#377=CARTESIAN_POINT('Ctrl Pts',(15.0281762020605,59.5445053677228,10.));
#378=CARTESIAN_POINT('Ctrl Pts',(13.8753010201141,65.6510860924787,0.));
#379=CARTESIAN_POINT('Ctrl Pts',(13.8753010201141,65.6510860924787,10.));
#380=CARTESIAN_POINT('Ctrl Pts',(13.2908484165904,71.8553815890535,0.));
#381=CARTESIAN_POINT('Ctrl Pts',(13.2908484165904,71.8553815890535,10.));
#382=CARTESIAN_POINT('Ctrl Pts',(13.298116135557,78.0447058121038,0.));
#383=CARTESIAN_POINT('Ctrl Pts',(13.298116135557,78.0447058121038,10.));
#384=CARTESIAN_POINT('Ctrl Pts',(13.8651303110925,84.1009976222232,0.));
#385=CARTESIAN_POINT('Ctrl Pts',(13.8651303110925,84.1009976222232,10.));
#386=CARTESIAN_POINT('Ctrl Pts',(14.900909725895,89.946548431865,0.));
#387=CARTESIAN_POINT('Ctrl Pts',(14.900909725895,89.946548431865,10.));
#388=CARTESIAN_POINT('Ctrl Pts',(16.2510740980234,95.5905609900526,0.));
#389=CARTESIAN_POINT('Ctrl Pts',(16.2510740980234,95.5905609900526,10.));
#390=CARTESIAN_POINT('Ctrl Pts',(17.6914390079565,101.17830505055,0.));
#391=CARTESIAN_POINT('Ctrl Pts',(17.6914390079565,101.17830505055,10.));
#392=CARTESIAN_POINT('Ctrl Pts',(18.9705672877884,106.931080287304,0.));
#393=CARTESIAN_POINT('Ctrl Pts',(18.9705672877884,106.931080287304,10.));
#394=CARTESIAN_POINT('Ctrl Pts',(19.676292148558,111.854419748979,0.));
#395=CARTESIAN_POINT('Ctrl Pts',(19.676292148558,111.854419748979,10.));
#396=CARTESIAN_POINT('Ctrl Pts',(19.9472675019571,115.813612736494,0.));
#397=CARTESIAN_POINT('Ctrl Pts',(19.9472675019571,115.813612736494,10.));
#398=CARTESIAN_POINT('Ctrl Pts',(20.0032077678636,118.582899733092,0.));
#399=CARTESIAN_POINT('Ctrl Pts',(20.0032077678636,118.582899733092,10.));
#400=CARTESIAN_POINT('Ctrl Pts',(20.,120.,0.));
#401=CARTESIAN_POINT('Ctrl Pts',(20.,120.,10.));
#402=CARTESIAN_POINT('Ctrl Pts',(30.539,0.,0.));
#403=CARTESIAN_POINT('Ctrl Pts',(30.539,1.07851448258579,0.));
#404=CARTESIAN_POINT('Ctrl Pts',(30.4943386624362,3.27561636361725,0.));
#405=CARTESIAN_POINT('Ctrl Pts',(30.2933628095463,6.6914857737646,0.));
#406=CARTESIAN_POINT('Ctrl Pts',(29.7578006302624,11.4626386493651,0.));
#407=CARTESIAN_POINT('Ctrl Pts',(28.6528580954035,17.65497888912,0.));
#408=CARTESIAN_POINT('Ctrl Pts',(27.1406923417996,23.9143209036678,0.));
#409=CARTESIAN_POINT('Ctrl Pts',(25.2760122959699,30.094374784705,0.));
#410=CARTESIAN_POINT('Ctrl Pts',(23.1494665788765,36.1084149337793,0.));
#411=CARTESIAN_POINT('Ctrl Pts',(20.8973529459248,41.9731148856745,0.));
#412=CARTESIAN_POINT('Ctrl Pts',(18.6819627496694,47.7676295625584,0.));
#413=CARTESIAN_POINT('Ctrl Pts',(16.672913108094,53.595323231683,0.));
#414=CARTESIAN_POINT('Ctrl Pts',(15.0281762020605,59.5445053677228,0.));
#415=CARTESIAN_POINT('Ctrl Pts',(13.8753010201141,65.6510860924787,0.));
#416=CARTESIAN_POINT('Ctrl Pts',(13.2908484165904,71.8553815890535,0.));
#417=CARTESIAN_POINT('Ctrl Pts',(13.298116135557,78.0447058121038,0.));
#418=CARTESIAN_POINT('Ctrl Pts',(13.8651303110925,84.1009976222232,0.));
#419=CARTESIAN_POINT('Ctrl Pts',(14.900909725895,89.946548431865,0.));
#420=CARTESIAN_POINT('Ctrl Pts',(16.2510740980234,95.5905609900526,0.));
#421=CARTESIAN_POINT('Ctrl Pts',(17.6914390079565,101.17830505055,0.));
#422=CARTESIAN_POINT('Ctrl Pts',(18.9705672877884,106.931080287304,0.));
#423=CARTESIAN_POINT('Ctrl Pts',(19.676292148558,111.854419748979,0.));
#424=CARTESIAN_POINT('Ctrl Pts',(19.9472675019571,115.813612736494,0.));
#425=CARTESIAN_POINT('Ctrl Pts',(20.0032077678636,118.582899733092,0.));
#426=CARTESIAN_POINT('Ctrl Pts',(20.,120.,0.));
#427=CARTESIAN_POINT('Ctrl Pts',(30.539,0.,10.));
#428=CARTESIAN_POINT('Ctrl Pts',(30.539,1.07851448258579,10.));
#429=CARTESIAN_POINT('Ctrl Pts',(30.4943386624362,3.27561636361725,10.));
#430=CARTESIAN_POINT('Ctrl Pts',(30.2933628095463,6.6914857737646,10.));
#431=CARTESIAN_POINT('Ctrl Pts',(29.7578006302624,11.4626386493651,10.));
#432=CARTESIAN_POINT('Ctrl Pts',(28.6528580954035,17.65497888912,10.));
#433=CARTESIAN_POINT('Ctrl Pts',(27.1406923417996,23.9143209036678,10.));
#434=CARTESIAN_POINT('Ctrl Pts',(25.2760122959699,30.094374784705,10.));
#435=CARTESIAN_POINT('Ctrl Pts',(23.1494665788765,36.1084149337793,10.));
#436=CARTESIAN_POINT('Ctrl Pts',(20.8973529459248,41.9731148856745,10.));
#437=CARTESIAN_POINT('Ctrl Pts',(18.6819627496694,47.7676295625584,10.));
#438=CARTESIAN_POINT('Ctrl Pts',(16.672913108094,53.595323231683,10.));
#439=CARTESIAN_POINT('Ctrl Pts',(15.0281762020605,59.5445053677228,10.));
#440=CARTESIAN_POINT('Ctrl Pts',(13.8753010201141,65.6510860924787,10.));
#441=CARTESIAN_POINT('Ctrl Pts',(13.2908484165904,71.8553815890535,10.));
#442=CARTESIAN_POINT('Ctrl Pts',(13.298116135557,78.0447058121038,10.));
#443=CARTESIAN_POINT('Ctrl Pts',(13.8651303110925,84.1009976222232,10.));
#444=CARTESIAN_POINT('Ctrl Pts',(14.900909725895,89.946548431865,10.));
#445=CARTESIAN_POINT('Ctrl Pts',(16.2510740980234,95.5905609900526,10.));
#446=CARTESIAN_POINT('Ctrl Pts',(17.6914390079565,101.17830505055,10.));
#447=CARTESIAN_POINT('Ctrl Pts',(18.9705672877884,106.931080287304,10.));
#448=CARTESIAN_POINT('Ctrl Pts',(19.676292148558,111.854419748979,10.));
#449=CARTESIAN_POINT('Ctrl Pts',(19.9472675019571,115.813612736494,10.));
#450=CARTESIAN_POINT('Ctrl Pts',(20.0032077678636,118.582899733092,10.));
#451=CARTESIAN_POINT('Ctrl Pts',(20.,120.,10.));
#452=CARTESIAN_POINT('Origin',(0.,54.7305,10.));
#453=CARTESIAN_POINT('Origin',(0.,54.7305,0.));
#454=UNCERTAINTY_MEASURE_WITH_UNIT(LENGTH_MEASURE(0.01),#458,
'DISTANCE_ACCURACY_VALUE',
'Maximum model space distance between geometric entities at asserted c
onnectivities');
#455=UNCERTAINTY_MEASURE_WITH_UNIT(LENGTH_MEASURE(0.01),#458,
'DISTANCE_ACCURACY_VALUE',
'Maximum model space distance between geometric entities at asserted c
onnectivities');
#456=(
GEOMETRIC_REPRESENTATION_CONTEXT(3)
GLOBAL_UNCERTAINTY_ASSIGNED_CONTEXT((#454))
GLOBAL_UNIT_ASSIGNED_CONTEXT((#458,#460,#461))
REPRESENTATION_CONTEXT('','3D')
);
#457=(
GEOMETRIC_REPRESENTATION_CONTEXT(3)
GLOBAL_UNCERTAINTY_ASSIGNED_CONTEXT((#455))
GLOBAL_UNIT_ASSIGNED_CONTEXT((#458,#460,#461))
REPRESENTATION_CONTEXT('','3D')
);
#458=(
LENGTH_UNIT()
NAMED_UNIT(*)
SI_UNIT(.MILLI.,.METRE.)
);
#459=(
LENGTH_UNIT()
NAMED_UNIT(*)
SI_UNIT($,.METRE.)
);
#460=(
NAMED_UNIT(*)
PLANE_ANGLE_UNIT()
SI_UNIT($,.RADIAN.)
);
#461=(
NAMED_UNIT(*)
SI_UNIT($,.STERADIAN.)
SOLID_ANGLE_UNIT()
);
#462=SHAPE_DEFINITION_REPRESENTATION(#463,#464);
#463=PRODUCT_DEFINITION_SHAPE('',$,#466);
#464=SHAPE_REPRESENTATION('',(#162),#456);
#465=PRODUCT_DEFINITION_CONTEXT('part definition',#470,'design');
#466=PRODUCT_DEFINITION('2026-08-19-17-32-45-715','Linker',#467,#465);
#467=PRODUCT_DEFINITION_FORMATION('',$,#472);
#468=PRODUCT_RELATED_PRODUCT_CATEGORY('Linker','Linker',(#472));
#469=APPLICATION_PROTOCOL_DEFINITION('international standard',
'automotive_design',2009,#470);
#470=APPLICATION_CONTEXT(
'Core Data for Automotive Mechanical Design Process');
#471=PRODUCT_CONTEXT('part definition',#470,'mechanical');
#472=PRODUCT('2026-08-19-17-32-45-715','Linker',$,(#471));
#473=PRESENTATION_STYLE_ASSIGNMENT((#474));
#474=SURFACE_STYLE_USAGE(.BOTH.,#475);
#475=SURFACE_SIDE_STYLE('',(#476));
#476=SURFACE_STYLE_FILL_AREA(#477);
#477=FILL_AREA_STYLE('Steel - Satin',(#478));
#478=FILL_AREA_STYLE_COLOUR('Steel - Satin',#479);
#479=COLOUR_RGB('Steel - Satin',0.627450980392157,0.627450980392157,0.627450980392157);
ENDSEC;
END-ISO-10303-21;
