ISO-10303-21;
HEADER;
/* Generated by software containing ST-Developer
 * from STEP Tools, Inc. (www.steptools.com) 
 */

FILE_DESCRIPTION(
/* description */ (''),
/* implementation_level */ '2;1');

FILE_NAME(
/* name */ 'Base Link.step',
/* time_stamp */ '2026-08-19T00:40:50+05:30',
/* author */ (''),
/* organization */ (''),
/* preprocessor_version */ 'ST-DEVELOPER v20.1',
/* originating_system */ 'Autodesk Translation Framework v15.8.0.0',
/* authorisation */ '');

FILE_SCHEMA (('AUTOMOTIVE_DESIGN { 1 0 10303 214 3 1 1 }'));
ENDSEC;

DATA;
#10=MECHANICAL_DESIGN_GEOMETRIC_PRESENTATION_REPRESENTATION('',(#13),#1135);
#11=SHAPE_REPRESENTATION_RELATIONSHIP('SRR','None',#1142,#12);
#12=ADVANCED_BREP_SHAPE_REPRESENTATION('',(#14),#1134);
#13=STYLED_ITEM('',(#1151),#14);
#14=MANIFOLD_SOLID_BREP('Body1',#685);
#15=FACE_BOUND('',#93,.T.);
#16=FACE_BOUND('',#95,.T.);
#17=FACE_BOUND('',#101,.T.);
#18=FACE_BOUND('',#106,.T.);
#19=FACE_BOUND('',#107,.T.);
#20=FACE_BOUND('',#108,.T.);
#21=FACE_BOUND('',#110,.T.);
#22=FACE_BOUND('',#119,.T.);
#23=FACE_BOUND('',#121,.T.);
#24=FACE_BOUND('',#128,.T.);
#25=FACE_BOUND('',#129,.T.);
#26=FACE_BOUND('',#130,.T.);
#27=PLANE('',#712);
#28=PLANE('',#713);
#29=PLANE('',#714);
#30=PLANE('',#715);
#31=PLANE('',#716);
#32=PLANE('',#717);
#33=PLANE('',#718);
#34=PLANE('',#719);
#35=PLANE('',#720);
#36=PLANE('',#721);
#37=PLANE('',#725);
#38=PLANE('',#726);
#39=PLANE('',#727);
#40=PLANE('',#728);
#41=PLANE('',#743);
#42=PLANE('',#744);
#43=PLANE('',#745);
#44=PLANE('',#746);
#45=PLANE('',#747);
#46=PLANE('',#748);
#47=PLANE('',#749);
#48=PLANE('',#750);
#49=PLANE('',#751);
#50=PLANE('',#754);
#51=FACE_OUTER_BOUND('',#85,.T.);
#52=FACE_OUTER_BOUND('',#86,.T.);
#53=FACE_OUTER_BOUND('',#87,.T.);
#54=FACE_OUTER_BOUND('',#88,.T.);
#55=FACE_OUTER_BOUND('',#89,.T.);
#56=FACE_OUTER_BOUND('',#90,.T.);
#57=FACE_OUTER_BOUND('',#91,.T.);
#58=FACE_OUTER_BOUND('',#92,.T.);
#59=FACE_OUTER_BOUND('',#94,.T.);
#60=FACE_OUTER_BOUND('',#96,.T.);
#61=FACE_OUTER_BOUND('',#97,.T.);
#62=FACE_OUTER_BOUND('',#98,.T.);
#63=FACE_OUTER_BOUND('',#99,.T.);
#64=FACE_OUTER_BOUND('',#100,.T.);
#65=FACE_OUTER_BOUND('',#102,.T.);
#66=FACE_OUTER_BOUND('',#103,.T.);
#67=FACE_OUTER_BOUND('',#104,.T.);
#68=FACE_OUTER_BOUND('',#105,.T.);
#69=FACE_OUTER_BOUND('',#109,.T.);
#70=FACE_OUTER_BOUND('',#111,.T.);
#71=FACE_OUTER_BOUND('',#112,.T.);
#72=FACE_OUTER_BOUND('',#113,.T.);
#73=FACE_OUTER_BOUND('',#114,.T.);
#74=FACE_OUTER_BOUND('',#115,.T.);
#75=FACE_OUTER_BOUND('',#116,.T.);
#76=FACE_OUTER_BOUND('',#117,.T.);
#77=FACE_OUTER_BOUND('',#118,.T.);
#78=FACE_OUTER_BOUND('',#120,.T.);
#79=FACE_OUTER_BOUND('',#122,.T.);
#80=FACE_OUTER_BOUND('',#123,.T.);
#81=FACE_OUTER_BOUND('',#124,.T.);
#82=FACE_OUTER_BOUND('',#125,.T.);
#83=FACE_OUTER_BOUND('',#126,.T.);
#84=FACE_OUTER_BOUND('',#127,.T.);
#85=EDGE_LOOP('',(#453,#454,#455,#456));
#86=EDGE_LOOP('',(#457,#458,#459,#460));
#87=EDGE_LOOP('',(#461,#462,#463,#464,#465));
#88=EDGE_LOOP('',(#466,#467,#468,#469));
#89=EDGE_LOOP('',(#470,#471,#472,#473,#474,#475,#476,#477));
#90=EDGE_LOOP('',(#478,#479,#480,#481));
#91=EDGE_LOOP('',(#482,#483,#484,#485,#486));
#92=EDGE_LOOP('',(#487,#488,#489,#490));
#93=EDGE_LOOP('',(#491));
#94=EDGE_LOOP('',(#492,#493,#494,#495));
#95=EDGE_LOOP('',(#496));
#96=EDGE_LOOP('',(#497,#498,#499,#500));
#97=EDGE_LOOP('',(#501,#502,#503,#504,#505,#506,#507,#508));
#98=EDGE_LOOP('',(#509,#510,#511,#512));
#99=EDGE_LOOP('',(#513,#514,#515,#516,#517,#518,#519,#520));
#100=EDGE_LOOP('',(#521,#522,#523,#524,#525,#526));
#101=EDGE_LOOP('',(#527,#528,#529,#530));
#102=EDGE_LOOP('',(#531,#532,#533,#534));
#103=EDGE_LOOP('',(#535,#536,#537,#538));
#104=EDGE_LOOP('',(#539,#540,#541,#542));
#105=EDGE_LOOP('',(#543,#544,#545,#546,#547,#548));
#106=EDGE_LOOP('',(#549));
#107=EDGE_LOOP('',(#550));
#108=EDGE_LOOP('',(#551,#552));
#109=EDGE_LOOP('',(#553,#554,#555,#556));
#110=EDGE_LOOP('',(#557,#558,#559,#560));
#111=EDGE_LOOP('',(#561,#562,#563,#564));
#112=EDGE_LOOP('',(#565,#566,#567,#568));
#113=EDGE_LOOP('',(#569,#570,#571,#572,#573));
#114=EDGE_LOOP('',(#574,#575,#576,#577));
#115=EDGE_LOOP('',(#578,#579,#580,#581,#582,#583,#584,#585));
#116=EDGE_LOOP('',(#586,#587,#588,#589));
#117=EDGE_LOOP('',(#590,#591,#592,#593,#594));
#118=EDGE_LOOP('',(#595,#596,#597,#598));
#119=EDGE_LOOP('',(#599));
#120=EDGE_LOOP('',(#600,#601,#602,#603));
#121=EDGE_LOOP('',(#604));
#122=EDGE_LOOP('',(#605,#606,#607,#608));
#123=EDGE_LOOP('',(#609,#610,#611,#612,#613,#614,#615,#616));
#124=EDGE_LOOP('',(#617,#618,#619,#620));
#125=EDGE_LOOP('',(#621,#622,#623,#624,#625,#626,#627,#628));
#126=EDGE_LOOP('',(#629,#630,#631,#632));
#127=EDGE_LOOP('',(#633,#634,#635,#636));
#128=EDGE_LOOP('',(#637));
#129=EDGE_LOOP('',(#638));
#130=EDGE_LOOP('',(#639,#640));
#131=LINE('',#946,#203);
#132=LINE('',#952,#204);
#133=LINE('',#961,#205);
#134=LINE('',#964,#206);
#135=LINE('',#971,#207);
#136=LINE('',#973,#208);
#137=LINE('',#975,#209);
#138=LINE('',#976,#210);
#139=LINE('',#977,#211);
#140=LINE('',#981,#212);
#141=LINE('',#982,#213);
#142=LINE('',#983,#214);
#143=LINE('',#987,#215);
#144=LINE('',#988,#216);
#145=LINE('',#989,#217);
#146=LINE('',#992,#218);
#147=LINE('',#994,#219);
#148=LINE('',#995,#220);
#149=LINE('',#998,#221);
#150=LINE('',#1000,#222);
#151=LINE('',#1001,#223);
#152=LINE('',#1005,#224);
#153=LINE('',#1006,#225);
#154=LINE('',#1007,#226);
#155=LINE('',#1010,#227);
#156=LINE('',#1011,#228);
#157=LINE('',#1014,#229);
#158=LINE('',#1015,#230);
#159=LINE('',#1017,#231);
#160=LINE('',#1021,#232);
#161=LINE('',#1023,#233);
#162=LINE('',#1027,#234);
#163=LINE('',#1029,#235);
#164=LINE('',#1030,#236);
#165=LINE('',#1033,#237);
#166=LINE('',#1036,#238);
#167=LINE('',#1039,#239);
#168=LINE('',#1040,#240);
#169=LINE('',#1043,#241);
#170=LINE('',#1044,#242);
#171=LINE('',#1048,#243);
#172=LINE('',#1049,#244);
#173=LINE('',#1050,#245);
#174=LINE('',#1055,#246);
#175=LINE('',#1057,#247);
#176=LINE('',#1059,#248);
#177=LINE('',#1060,#249);
#178=LINE('',#1065,#250);
#179=LINE('',#1071,#251);
#180=LINE('',#1080,#252);
#181=LINE('',#1083,#253);
#182=LINE('',#1090,#254);
#183=LINE('',#1092,#255);
#184=LINE('',#1094,#256);
#185=LINE('',#1095,#257);
#186=LINE('',#1096,#258);
#187=LINE('',#1100,#259);
#188=LINE('',#1101,#260);
#189=LINE('',#1102,#261);
#190=LINE('',#1106,#262);
#191=LINE('',#1107,#263);
#192=LINE('',#1108,#264);
#193=LINE('',#1111,#265);
#194=LINE('',#1113,#266);
#195=LINE('',#1114,#267);
#196=LINE('',#1117,#268);
#197=LINE('',#1119,#269);
#198=LINE('',#1120,#270);
#199=LINE('',#1122,#271);
#200=LINE('',#1123,#272);
#201=LINE('',#1125,#273);
#202=LINE('',#1127,#274);
#203=VECTOR('',#761,1.25);
#204=VECTOR('',#768,1.25);
#205=VECTOR('',#777,10.);
#206=VECTOR('',#780,10.);
#207=VECTOR('',#789,10.);
#208=VECTOR('',#790,10.);
#209=VECTOR('',#791,10.);
#210=VECTOR('',#792,10.);
#211=VECTOR('',#793,10.);
#212=VECTOR('',#796,10.);
#213=VECTOR('',#797,10.);
#214=VECTOR('',#798,10.);
#215=VECTOR('',#801,10.);
#216=VECTOR('',#802,10.);
#217=VECTOR('',#803,10.);
#218=VECTOR('',#806,10.);
#219=VECTOR('',#807,10.);
#220=VECTOR('',#808,10.);
#221=VECTOR('',#811,10.);
#222=VECTOR('',#812,10.);
#223=VECTOR('',#813,10.);
#224=VECTOR('',#816,10.);
#225=VECTOR('',#817,10.);
#226=VECTOR('',#818,10.);
#227=VECTOR('',#821,10.);
#228=VECTOR('',#822,10.);
#229=VECTOR('',#825,10.);
#230=VECTOR('',#826,10.);
#231=VECTOR('',#829,10.);
#232=VECTOR('',#832,10.);
#233=VECTOR('',#833,10.);
#234=VECTOR('',#836,10.);
#235=VECTOR('',#837,10.);
#236=VECTOR('',#838,10.);
#237=VECTOR('',#841,10.);
#238=VECTOR('',#844,10.);
#239=VECTOR('',#847,10.);
#240=VECTOR('',#848,10.);
#241=VECTOR('',#851,10.);
#242=VECTOR('',#852,10.);
#243=VECTOR('',#855,10.);
#244=VECTOR('',#856,10.);
#245=VECTOR('',#857,10.);
#246=VECTOR('',#862,10.);
#247=VECTOR('',#863,10.);
#248=VECTOR('',#864,10.);
#249=VECTOR('',#865,10.);
#250=VECTOR('',#870,1.25);
#251=VECTOR('',#877,1.25);
#252=VECTOR('',#886,10.);
#253=VECTOR('',#889,10.);
#254=VECTOR('',#898,10.);
#255=VECTOR('',#899,10.);
#256=VECTOR('',#900,10.);
#257=VECTOR('',#901,10.);
#258=VECTOR('',#902,10.);
#259=VECTOR('',#905,10.);
#260=VECTOR('',#906,10.);
#261=VECTOR('',#907,10.);
#262=VECTOR('',#910,10.);
#263=VECTOR('',#911,10.);
#264=VECTOR('',#912,10.);
#265=VECTOR('',#915,10.);
#266=VECTOR('',#916,10.);
#267=VECTOR('',#917,10.);
#268=VECTOR('',#920,10.);
#269=VECTOR('',#921,10.);
#270=VECTOR('',#922,10.);
#271=VECTOR('',#925,10.);
#272=VECTOR('',#926,10.);
#273=VECTOR('',#929,10.);
#274=VECTOR('',#932,10.);
#275=CIRCLE('',#700,1.03775);
#276=CIRCLE('',#701,1.03775);
#277=CIRCLE('',#703,1.03775);
#278=CIRCLE('',#704,1.03775);
#279=CIRCLE('',#706,6.);
#280=CIRCLE('',#707,6.);
#281=CIRCLE('',#708,6.);
#282=CIRCLE('',#710,2.5);
#283=CIRCLE('',#711,2.5);
#284=CIRCLE('',#722,31.875);
#285=CIRCLE('',#724,31.875);
#286=CIRCLE('',#729,50.);
#287=CIRCLE('',#731,1.03775);
#288=CIRCLE('',#732,1.03775);
#289=CIRCLE('',#734,1.03775);
#290=CIRCLE('',#735,1.03775);
#291=CIRCLE('',#737,6.);
#292=CIRCLE('',#738,6.);
#293=CIRCLE('',#739,6.);
#294=CIRCLE('',#741,2.5);
#295=CIRCLE('',#742,2.5);
#296=CIRCLE('',#753,50.);
#297=VERTEX_POINT('',#943);
#298=VERTEX_POINT('',#945);
#299=VERTEX_POINT('',#949);
#300=VERTEX_POINT('',#951);
#301=VERTEX_POINT('',#955);
#302=VERTEX_POINT('',#956);
#303=VERTEX_POINT('',#958);
#304=VERTEX_POINT('',#960);
#305=VERTEX_POINT('',#962);
#306=VERTEX_POINT('',#969);
#307=VERTEX_POINT('',#970);
#308=VERTEX_POINT('',#972);
#309=VERTEX_POINT('',#974);
#310=VERTEX_POINT('',#979);
#311=VERTEX_POINT('',#980);
#312=VERTEX_POINT('',#985);
#313=VERTEX_POINT('',#986);
#314=VERTEX_POINT('',#991);
#315=VERTEX_POINT('',#993);
#316=VERTEX_POINT('',#997);
#317=VERTEX_POINT('',#999);
#318=VERTEX_POINT('',#1003);
#319=VERTEX_POINT('',#1004);
#320=VERTEX_POINT('',#1009);
#321=VERTEX_POINT('',#1013);
#322=VERTEX_POINT('',#1019);
#323=VERTEX_POINT('',#1020);
#324=VERTEX_POINT('',#1022);
#325=VERTEX_POINT('',#1024);
#326=VERTEX_POINT('',#1026);
#327=VERTEX_POINT('',#1028);
#328=VERTEX_POINT('',#1032);
#329=VERTEX_POINT('',#1034);
#330=VERTEX_POINT('',#1038);
#331=VERTEX_POINT('',#1042);
#332=VERTEX_POINT('',#1046);
#333=VERTEX_POINT('',#1047);
#334=VERTEX_POINT('',#1053);
#335=VERTEX_POINT('',#1054);
#336=VERTEX_POINT('',#1056);
#337=VERTEX_POINT('',#1058);
#338=VERTEX_POINT('',#1062);
#339=VERTEX_POINT('',#1064);
#340=VERTEX_POINT('',#1068);
#341=VERTEX_POINT('',#1070);
#342=VERTEX_POINT('',#1074);
#343=VERTEX_POINT('',#1075);
#344=VERTEX_POINT('',#1077);
#345=VERTEX_POINT('',#1079);
#346=VERTEX_POINT('',#1081);
#347=VERTEX_POINT('',#1088);
#348=VERTEX_POINT('',#1089);
#349=VERTEX_POINT('',#1091);
#350=VERTEX_POINT('',#1093);
#351=VERTEX_POINT('',#1098);
#352=VERTEX_POINT('',#1099);
#353=VERTEX_POINT('',#1104);
#354=VERTEX_POINT('',#1105);
#355=VERTEX_POINT('',#1110);
#356=VERTEX_POINT('',#1112);
#357=VERTEX_POINT('',#1116);
#358=VERTEX_POINT('',#1118);
#359=EDGE_CURVE('',#297,#297,#275,.F.);
#360=EDGE_CURVE('',#297,#298,#131,.T.);
#361=EDGE_CURVE('',#298,#298,#276,.T.);
#362=EDGE_CURVE('',#299,#299,#277,.F.);
#363=EDGE_CURVE('',#299,#300,#132,.T.);
#364=EDGE_CURVE('',#300,#300,#278,.T.);
#365=EDGE_CURVE('',#301,#302,#279,.T.);
#366=EDGE_CURVE('',#303,#301,#280,.T.);
#367=EDGE_CURVE('',#303,#304,#133,.T.);
#368=EDGE_CURVE('',#305,#304,#281,.T.);
#369=EDGE_CURVE('',#302,#305,#134,.T.);
#370=EDGE_CURVE('',#302,#303,#282,.T.);
#371=EDGE_CURVE('',#304,#305,#283,.T.);
#372=EDGE_CURVE('',#306,#307,#135,.T.);
#373=EDGE_CURVE('',#308,#306,#136,.T.);
#374=EDGE_CURVE('',#309,#308,#137,.T.);
#375=EDGE_CURVE('',#301,#309,#138,.T.);
#376=EDGE_CURVE('',#307,#301,#139,.T.);
#377=EDGE_CURVE('',#310,#311,#140,.T.);
#378=EDGE_CURVE('',#310,#308,#141,.T.);
#379=EDGE_CURVE('',#311,#306,#142,.T.);
#380=EDGE_CURVE('',#312,#313,#143,.T.);
#381=EDGE_CURVE('',#312,#307,#144,.T.);
#382=EDGE_CURVE('',#313,#309,#145,.T.);
#383=EDGE_CURVE('',#314,#311,#146,.T.);
#384=EDGE_CURVE('',#315,#314,#147,.T.);
#385=EDGE_CURVE('',#310,#315,#148,.T.);
#386=EDGE_CURVE('',#316,#313,#149,.T.);
#387=EDGE_CURVE('',#317,#316,#150,.T.);
#388=EDGE_CURVE('',#312,#317,#151,.T.);
#389=EDGE_CURVE('',#318,#319,#152,.T.);
#390=EDGE_CURVE('',#318,#317,#153,.T.);
#391=EDGE_CURVE('',#319,#316,#154,.T.);
#392=EDGE_CURVE('',#320,#318,#155,.T.);
#393=EDGE_CURVE('',#320,#314,#156,.T.);
#394=EDGE_CURVE('',#321,#320,#157,.T.);
#395=EDGE_CURVE('',#321,#315,#158,.T.);
#396=EDGE_CURVE('',#319,#321,#159,.T.);
#397=EDGE_CURVE('',#322,#323,#160,.T.);
#398=EDGE_CURVE('',#322,#324,#161,.T.);
#399=EDGE_CURVE('',#324,#325,#284,.T.);
#400=EDGE_CURVE('',#325,#326,#162,.T.);
#401=EDGE_CURVE('',#326,#327,#163,.T.);
#402=EDGE_CURVE('',#323,#327,#164,.T.);
#403=EDGE_CURVE('',#328,#324,#165,.T.);
#404=EDGE_CURVE('',#329,#328,#285,.T.);
#405=EDGE_CURVE('',#325,#329,#166,.T.);
#406=EDGE_CURVE('',#330,#329,#167,.T.);
#407=EDGE_CURVE('',#326,#330,#168,.T.);
#408=EDGE_CURVE('',#331,#322,#169,.T.);
#409=EDGE_CURVE('',#328,#331,#170,.T.);
#410=EDGE_CURVE('',#332,#333,#171,.T.);
#411=EDGE_CURVE('',#332,#330,#172,.T.);
#412=EDGE_CURVE('',#333,#331,#173,.T.);
#413=EDGE_CURVE('',#323,#333,#286,.T.);
#414=EDGE_CURVE('',#334,#335,#174,.T.);
#415=EDGE_CURVE('',#335,#336,#175,.T.);
#416=EDGE_CURVE('',#336,#337,#176,.T.);
#417=EDGE_CURVE('',#337,#334,#177,.T.);
#418=EDGE_CURVE('',#338,#338,#287,.F.);
#419=EDGE_CURVE('',#338,#339,#178,.T.);
#420=EDGE_CURVE('',#339,#339,#288,.F.);
#421=EDGE_CURVE('',#340,#340,#289,.F.);
#422=EDGE_CURVE('',#340,#341,#179,.T.);
#423=EDGE_CURVE('',#341,#341,#290,.F.);
#424=EDGE_CURVE('',#342,#343,#291,.T.);
#425=EDGE_CURVE('',#344,#342,#292,.T.);
#426=EDGE_CURVE('',#344,#345,#180,.T.);
#427=EDGE_CURVE('',#346,#345,#293,.T.);
#428=EDGE_CURVE('',#343,#346,#181,.T.);
#429=EDGE_CURVE('',#343,#344,#294,.T.);
#430=EDGE_CURVE('',#345,#346,#295,.T.);
#431=EDGE_CURVE('',#347,#348,#182,.T.);
#432=EDGE_CURVE('',#349,#347,#183,.T.);
#433=EDGE_CURVE('',#350,#349,#184,.T.);
#434=EDGE_CURVE('',#342,#350,#185,.T.);
#435=EDGE_CURVE('',#348,#342,#186,.T.);
#436=EDGE_CURVE('',#351,#352,#187,.T.);
#437=EDGE_CURVE('',#351,#349,#188,.T.);
#438=EDGE_CURVE('',#352,#347,#189,.T.);
#439=EDGE_CURVE('',#353,#354,#190,.T.);
#440=EDGE_CURVE('',#353,#348,#191,.T.);
#441=EDGE_CURVE('',#354,#350,#192,.T.);
#442=EDGE_CURVE('',#355,#352,#193,.T.);
#443=EDGE_CURVE('',#356,#355,#194,.T.);
#444=EDGE_CURVE('',#351,#356,#195,.T.);
#445=EDGE_CURVE('',#357,#354,#196,.T.);
#446=EDGE_CURVE('',#358,#357,#197,.T.);
#447=EDGE_CURVE('',#353,#358,#198,.T.);
#448=EDGE_CURVE('',#334,#358,#199,.T.);
#449=EDGE_CURVE('',#335,#357,#200,.T.);
#450=EDGE_CURVE('',#337,#355,#201,.T.);
#451=EDGE_CURVE('',#336,#356,#202,.T.);
#452=EDGE_CURVE('',#327,#332,#296,.T.);
#453=ORIENTED_EDGE('',*,*,#359,.F.);
#454=ORIENTED_EDGE('',*,*,#360,.T.);
#455=ORIENTED_EDGE('',*,*,#361,.F.);
#456=ORIENTED_EDGE('',*,*,#360,.F.);
#457=ORIENTED_EDGE('',*,*,#362,.F.);
#458=ORIENTED_EDGE('',*,*,#363,.T.);
#459=ORIENTED_EDGE('',*,*,#364,.F.);
#460=ORIENTED_EDGE('',*,*,#363,.F.);
#461=ORIENTED_EDGE('',*,*,#365,.F.);
#462=ORIENTED_EDGE('',*,*,#366,.F.);
#463=ORIENTED_EDGE('',*,*,#367,.T.);
#464=ORIENTED_EDGE('',*,*,#368,.F.);
#465=ORIENTED_EDGE('',*,*,#369,.F.);
#466=ORIENTED_EDGE('',*,*,#370,.F.);
#467=ORIENTED_EDGE('',*,*,#369,.T.);
#468=ORIENTED_EDGE('',*,*,#371,.F.);
#469=ORIENTED_EDGE('',*,*,#367,.F.);
#470=ORIENTED_EDGE('',*,*,#372,.F.);
#471=ORIENTED_EDGE('',*,*,#373,.F.);
#472=ORIENTED_EDGE('',*,*,#374,.F.);
#473=ORIENTED_EDGE('',*,*,#375,.F.);
#474=ORIENTED_EDGE('',*,*,#365,.T.);
#475=ORIENTED_EDGE('',*,*,#370,.T.);
#476=ORIENTED_EDGE('',*,*,#366,.T.);
#477=ORIENTED_EDGE('',*,*,#376,.F.);
#478=ORIENTED_EDGE('',*,*,#377,.F.);
#479=ORIENTED_EDGE('',*,*,#378,.T.);
#480=ORIENTED_EDGE('',*,*,#373,.T.);
#481=ORIENTED_EDGE('',*,*,#379,.F.);
#482=ORIENTED_EDGE('',*,*,#380,.F.);
#483=ORIENTED_EDGE('',*,*,#381,.T.);
#484=ORIENTED_EDGE('',*,*,#376,.T.);
#485=ORIENTED_EDGE('',*,*,#375,.T.);
#486=ORIENTED_EDGE('',*,*,#382,.F.);
#487=ORIENTED_EDGE('',*,*,#377,.T.);
#488=ORIENTED_EDGE('',*,*,#383,.F.);
#489=ORIENTED_EDGE('',*,*,#384,.F.);
#490=ORIENTED_EDGE('',*,*,#385,.F.);
#491=ORIENTED_EDGE('',*,*,#362,.T.);
#492=ORIENTED_EDGE('',*,*,#380,.T.);
#493=ORIENTED_EDGE('',*,*,#386,.F.);
#494=ORIENTED_EDGE('',*,*,#387,.F.);
#495=ORIENTED_EDGE('',*,*,#388,.F.);
#496=ORIENTED_EDGE('',*,*,#359,.T.);
#497=ORIENTED_EDGE('',*,*,#389,.F.);
#498=ORIENTED_EDGE('',*,*,#390,.T.);
#499=ORIENTED_EDGE('',*,*,#387,.T.);
#500=ORIENTED_EDGE('',*,*,#391,.F.);
#501=ORIENTED_EDGE('',*,*,#392,.F.);
#502=ORIENTED_EDGE('',*,*,#393,.T.);
#503=ORIENTED_EDGE('',*,*,#383,.T.);
#504=ORIENTED_EDGE('',*,*,#379,.T.);
#505=ORIENTED_EDGE('',*,*,#372,.T.);
#506=ORIENTED_EDGE('',*,*,#381,.F.);
#507=ORIENTED_EDGE('',*,*,#388,.T.);
#508=ORIENTED_EDGE('',*,*,#390,.F.);
#509=ORIENTED_EDGE('',*,*,#394,.F.);
#510=ORIENTED_EDGE('',*,*,#395,.T.);
#511=ORIENTED_EDGE('',*,*,#384,.T.);
#512=ORIENTED_EDGE('',*,*,#393,.F.);
#513=ORIENTED_EDGE('',*,*,#396,.F.);
#514=ORIENTED_EDGE('',*,*,#391,.T.);
#515=ORIENTED_EDGE('',*,*,#386,.T.);
#516=ORIENTED_EDGE('',*,*,#382,.T.);
#517=ORIENTED_EDGE('',*,*,#374,.T.);
#518=ORIENTED_EDGE('',*,*,#378,.F.);
#519=ORIENTED_EDGE('',*,*,#385,.T.);
#520=ORIENTED_EDGE('',*,*,#395,.F.);
#521=ORIENTED_EDGE('',*,*,#397,.F.);
#522=ORIENTED_EDGE('',*,*,#398,.T.);
#523=ORIENTED_EDGE('',*,*,#399,.T.);
#524=ORIENTED_EDGE('',*,*,#400,.T.);
#525=ORIENTED_EDGE('',*,*,#401,.T.);
#526=ORIENTED_EDGE('',*,*,#402,.F.);
#527=ORIENTED_EDGE('',*,*,#389,.T.);
#528=ORIENTED_EDGE('',*,*,#396,.T.);
#529=ORIENTED_EDGE('',*,*,#394,.T.);
#530=ORIENTED_EDGE('',*,*,#392,.T.);
#531=ORIENTED_EDGE('',*,*,#403,.F.);
#532=ORIENTED_EDGE('',*,*,#404,.F.);
#533=ORIENTED_EDGE('',*,*,#405,.F.);
#534=ORIENTED_EDGE('',*,*,#399,.F.);
#535=ORIENTED_EDGE('',*,*,#405,.T.);
#536=ORIENTED_EDGE('',*,*,#406,.F.);
#537=ORIENTED_EDGE('',*,*,#407,.F.);
#538=ORIENTED_EDGE('',*,*,#400,.F.);
#539=ORIENTED_EDGE('',*,*,#408,.F.);
#540=ORIENTED_EDGE('',*,*,#409,.F.);
#541=ORIENTED_EDGE('',*,*,#403,.T.);
#542=ORIENTED_EDGE('',*,*,#398,.F.);
#543=ORIENTED_EDGE('',*,*,#410,.F.);
#544=ORIENTED_EDGE('',*,*,#411,.T.);
#545=ORIENTED_EDGE('',*,*,#406,.T.);
#546=ORIENTED_EDGE('',*,*,#404,.T.);
#547=ORIENTED_EDGE('',*,*,#409,.T.);
#548=ORIENTED_EDGE('',*,*,#412,.F.);
#549=ORIENTED_EDGE('',*,*,#361,.T.);
#550=ORIENTED_EDGE('',*,*,#364,.T.);
#551=ORIENTED_EDGE('',*,*,#368,.T.);
#552=ORIENTED_EDGE('',*,*,#371,.T.);
#553=ORIENTED_EDGE('',*,*,#412,.T.);
#554=ORIENTED_EDGE('',*,*,#408,.T.);
#555=ORIENTED_EDGE('',*,*,#397,.T.);
#556=ORIENTED_EDGE('',*,*,#413,.T.);
#557=ORIENTED_EDGE('',*,*,#414,.T.);
#558=ORIENTED_EDGE('',*,*,#415,.T.);
#559=ORIENTED_EDGE('',*,*,#416,.T.);
#560=ORIENTED_EDGE('',*,*,#417,.T.);
#561=ORIENTED_EDGE('',*,*,#418,.F.);
#562=ORIENTED_EDGE('',*,*,#419,.T.);
#563=ORIENTED_EDGE('',*,*,#420,.F.);
#564=ORIENTED_EDGE('',*,*,#419,.F.);
#565=ORIENTED_EDGE('',*,*,#421,.F.);
#566=ORIENTED_EDGE('',*,*,#422,.T.);
#567=ORIENTED_EDGE('',*,*,#423,.F.);
#568=ORIENTED_EDGE('',*,*,#422,.F.);
#569=ORIENTED_EDGE('',*,*,#424,.F.);
#570=ORIENTED_EDGE('',*,*,#425,.F.);
#571=ORIENTED_EDGE('',*,*,#426,.T.);
#572=ORIENTED_EDGE('',*,*,#427,.F.);
#573=ORIENTED_EDGE('',*,*,#428,.F.);
#574=ORIENTED_EDGE('',*,*,#429,.F.);
#575=ORIENTED_EDGE('',*,*,#428,.T.);
#576=ORIENTED_EDGE('',*,*,#430,.F.);
#577=ORIENTED_EDGE('',*,*,#426,.F.);
#578=ORIENTED_EDGE('',*,*,#431,.F.);
#579=ORIENTED_EDGE('',*,*,#432,.F.);
#580=ORIENTED_EDGE('',*,*,#433,.F.);
#581=ORIENTED_EDGE('',*,*,#434,.F.);
#582=ORIENTED_EDGE('',*,*,#424,.T.);
#583=ORIENTED_EDGE('',*,*,#429,.T.);
#584=ORIENTED_EDGE('',*,*,#425,.T.);
#585=ORIENTED_EDGE('',*,*,#435,.F.);
#586=ORIENTED_EDGE('',*,*,#436,.F.);
#587=ORIENTED_EDGE('',*,*,#437,.T.);
#588=ORIENTED_EDGE('',*,*,#432,.T.);
#589=ORIENTED_EDGE('',*,*,#438,.F.);
#590=ORIENTED_EDGE('',*,*,#439,.F.);
#591=ORIENTED_EDGE('',*,*,#440,.T.);
#592=ORIENTED_EDGE('',*,*,#435,.T.);
#593=ORIENTED_EDGE('',*,*,#434,.T.);
#594=ORIENTED_EDGE('',*,*,#441,.F.);
#595=ORIENTED_EDGE('',*,*,#436,.T.);
#596=ORIENTED_EDGE('',*,*,#442,.F.);
#597=ORIENTED_EDGE('',*,*,#443,.F.);
#598=ORIENTED_EDGE('',*,*,#444,.F.);
#599=ORIENTED_EDGE('',*,*,#421,.T.);
#600=ORIENTED_EDGE('',*,*,#439,.T.);
#601=ORIENTED_EDGE('',*,*,#445,.F.);
#602=ORIENTED_EDGE('',*,*,#446,.F.);
#603=ORIENTED_EDGE('',*,*,#447,.F.);
#604=ORIENTED_EDGE('',*,*,#418,.T.);
#605=ORIENTED_EDGE('',*,*,#414,.F.);
#606=ORIENTED_EDGE('',*,*,#448,.T.);
#607=ORIENTED_EDGE('',*,*,#446,.T.);
#608=ORIENTED_EDGE('',*,*,#449,.F.);
#609=ORIENTED_EDGE('',*,*,#417,.F.);
#610=ORIENTED_EDGE('',*,*,#450,.T.);
#611=ORIENTED_EDGE('',*,*,#442,.T.);
#612=ORIENTED_EDGE('',*,*,#438,.T.);
#613=ORIENTED_EDGE('',*,*,#431,.T.);
#614=ORIENTED_EDGE('',*,*,#440,.F.);
#615=ORIENTED_EDGE('',*,*,#447,.T.);
#616=ORIENTED_EDGE('',*,*,#448,.F.);
#617=ORIENTED_EDGE('',*,*,#416,.F.);
#618=ORIENTED_EDGE('',*,*,#451,.T.);
#619=ORIENTED_EDGE('',*,*,#443,.T.);
#620=ORIENTED_EDGE('',*,*,#450,.F.);
#621=ORIENTED_EDGE('',*,*,#415,.F.);
#622=ORIENTED_EDGE('',*,*,#449,.T.);
#623=ORIENTED_EDGE('',*,*,#445,.T.);
#624=ORIENTED_EDGE('',*,*,#441,.T.);
#625=ORIENTED_EDGE('',*,*,#433,.T.);
#626=ORIENTED_EDGE('',*,*,#437,.F.);
#627=ORIENTED_EDGE('',*,*,#444,.T.);
#628=ORIENTED_EDGE('',*,*,#451,.F.);
#629=ORIENTED_EDGE('',*,*,#410,.T.);
#630=ORIENTED_EDGE('',*,*,#413,.F.);
#631=ORIENTED_EDGE('',*,*,#402,.T.);
#632=ORIENTED_EDGE('',*,*,#452,.T.);
#633=ORIENTED_EDGE('',*,*,#452,.F.);
#634=ORIENTED_EDGE('',*,*,#401,.F.);
#635=ORIENTED_EDGE('',*,*,#407,.T.);
#636=ORIENTED_EDGE('',*,*,#411,.F.);
#637=ORIENTED_EDGE('',*,*,#420,.T.);
#638=ORIENTED_EDGE('',*,*,#423,.T.);
#639=ORIENTED_EDGE('',*,*,#427,.T.);
#640=ORIENTED_EDGE('',*,*,#430,.T.);
#641=CYLINDRICAL_SURFACE('',#699,1.03775);
#642=CYLINDRICAL_SURFACE('',#702,1.03775);
#643=CYLINDRICAL_SURFACE('',#705,6.);
#644=CYLINDRICAL_SURFACE('',#709,2.5);
#645=CYLINDRICAL_SURFACE('',#723,31.875);
#646=CYLINDRICAL_SURFACE('',#730,1.03775);
#647=CYLINDRICAL_SURFACE('',#733,1.03775);
#648=CYLINDRICAL_SURFACE('',#736,6.);
#649=CYLINDRICAL_SURFACE('',#740,2.5);
#650=CYLINDRICAL_SURFACE('',#752,50.);
#651=ADVANCED_FACE('',(#51),#641,.F.);
#652=ADVANCED_FACE('',(#52),#642,.F.);
#653=ADVANCED_FACE('',(#53),#643,.F.);
#654=ADVANCED_FACE('',(#54),#644,.F.);
#655=ADVANCED_FACE('',(#55),#27,.F.);
#656=ADVANCED_FACE('',(#56),#28,.F.);
#657=ADVANCED_FACE('',(#57),#29,.F.);
#658=ADVANCED_FACE('',(#58,#15),#30,.F.);
#659=ADVANCED_FACE('',(#59,#16),#31,.F.);
#660=ADVANCED_FACE('',(#60),#32,.F.);
#661=ADVANCED_FACE('',(#61),#33,.F.);
#662=ADVANCED_FACE('',(#62),#34,.F.);
#663=ADVANCED_FACE('',(#63),#35,.F.);
#664=ADVANCED_FACE('',(#64,#17),#36,.F.);
#665=ADVANCED_FACE('',(#65),#645,.T.);
#666=ADVANCED_FACE('',(#66),#37,.T.);
#667=ADVANCED_FACE('',(#67),#38,.T.);
#668=ADVANCED_FACE('',(#68,#18,#19,#20),#39,.T.);
#669=ADVANCED_FACE('',(#69,#21),#40,.T.);
#670=ADVANCED_FACE('',(#70),#646,.F.);
#671=ADVANCED_FACE('',(#71),#647,.F.);
#672=ADVANCED_FACE('',(#72),#648,.F.);
#673=ADVANCED_FACE('',(#73),#649,.F.);
#674=ADVANCED_FACE('',(#74),#41,.F.);
#675=ADVANCED_FACE('',(#75),#42,.F.);
#676=ADVANCED_FACE('',(#76),#43,.F.);
#677=ADVANCED_FACE('',(#77,#22),#44,.F.);
#678=ADVANCED_FACE('',(#78,#23),#45,.F.);
#679=ADVANCED_FACE('',(#79),#46,.F.);
#680=ADVANCED_FACE('',(#80),#47,.F.);
#681=ADVANCED_FACE('',(#81),#48,.F.);
#682=ADVANCED_FACE('',(#82),#49,.F.);
#683=ADVANCED_FACE('',(#83),#650,.T.);
#684=ADVANCED_FACE('',(#84,#24,#25,#26),#50,.F.);
#685=CLOSED_SHELL('',(#651,#652,#653,#654,#655,#656,#657,#658,#659,#660,
#661,#662,#663,#664,#665,#666,#667,#668,#669,#670,#671,#672,#673,#674,#675,
#676,#677,#678,#679,#680,#681,#682,#683,#684));
#686=DERIVED_UNIT_ELEMENT(#688,1.);
#687=DERIVED_UNIT_ELEMENT(#1137,-3.);
#688=(
MASS_UNIT()
NAMED_UNIT(*)
SI_UNIT(.KILO.,.GRAM.)
);
#689=DERIVED_UNIT((#686,#687));
#690=MEASURE_REPRESENTATION_ITEM('density measure',
POSITIVE_RATIO_MEASURE(7850.),#689);
#691=PROPERTY_DEFINITION_REPRESENTATION(#696,#693);
#692=PROPERTY_DEFINITION_REPRESENTATION(#697,#694);
#693=REPRESENTATION('material name',(#695),#1134);
#694=REPRESENTATION('density',(#690),#1134);
#695=DESCRIPTIVE_REPRESENTATION_ITEM('Steel','Steel');
#696=PROPERTY_DEFINITION('material property','material name',#1144);
#697=PROPERTY_DEFINITION('material property','density of part',#1144);
#698=AXIS2_PLACEMENT_3D('',#941,#755,#756);
#699=AXIS2_PLACEMENT_3D('',#942,#757,#758);
#700=AXIS2_PLACEMENT_3D('',#944,#759,#760);
#701=AXIS2_PLACEMENT_3D('',#947,#762,#763);
#702=AXIS2_PLACEMENT_3D('',#948,#764,#765);
#703=AXIS2_PLACEMENT_3D('',#950,#766,#767);
#704=AXIS2_PLACEMENT_3D('',#953,#769,#770);
#705=AXIS2_PLACEMENT_3D('',#954,#771,#772);
#706=AXIS2_PLACEMENT_3D('',#957,#773,#774);
#707=AXIS2_PLACEMENT_3D('',#959,#775,#776);
#708=AXIS2_PLACEMENT_3D('',#963,#778,#779);
#709=AXIS2_PLACEMENT_3D('',#965,#781,#782);
#710=AXIS2_PLACEMENT_3D('',#966,#783,#784);
#711=AXIS2_PLACEMENT_3D('',#967,#785,#786);
#712=AXIS2_PLACEMENT_3D('',#968,#787,#788);
#713=AXIS2_PLACEMENT_3D('',#978,#794,#795);
#714=AXIS2_PLACEMENT_3D('',#984,#799,#800);
#715=AXIS2_PLACEMENT_3D('',#990,#804,#805);
#716=AXIS2_PLACEMENT_3D('',#996,#809,#810);
#717=AXIS2_PLACEMENT_3D('',#1002,#814,#815);
#718=AXIS2_PLACEMENT_3D('',#1008,#819,#820);
#719=AXIS2_PLACEMENT_3D('',#1012,#823,#824);
#720=AXIS2_PLACEMENT_3D('',#1016,#827,#828);
#721=AXIS2_PLACEMENT_3D('',#1018,#830,#831);
#722=AXIS2_PLACEMENT_3D('',#1025,#834,#835);
#723=AXIS2_PLACEMENT_3D('',#1031,#839,#840);
#724=AXIS2_PLACEMENT_3D('',#1035,#842,#843);
#725=AXIS2_PLACEMENT_3D('',#1037,#845,#846);
#726=AXIS2_PLACEMENT_3D('',#1041,#849,#850);
#727=AXIS2_PLACEMENT_3D('',#1045,#853,#854);
#728=AXIS2_PLACEMENT_3D('',#1051,#858,#859);
#729=AXIS2_PLACEMENT_3D('',#1052,#860,#861);
#730=AXIS2_PLACEMENT_3D('',#1061,#866,#867);
#731=AXIS2_PLACEMENT_3D('',#1063,#868,#869);
#732=AXIS2_PLACEMENT_3D('',#1066,#871,#872);
#733=AXIS2_PLACEMENT_3D('',#1067,#873,#874);
#734=AXIS2_PLACEMENT_3D('',#1069,#875,#876);
#735=AXIS2_PLACEMENT_3D('',#1072,#878,#879);
#736=AXIS2_PLACEMENT_3D('',#1073,#880,#881);
#737=AXIS2_PLACEMENT_3D('',#1076,#882,#883);
#738=AXIS2_PLACEMENT_3D('',#1078,#884,#885);
#739=AXIS2_PLACEMENT_3D('',#1082,#887,#888);
#740=AXIS2_PLACEMENT_3D('',#1084,#890,#891);
#741=AXIS2_PLACEMENT_3D('',#1085,#892,#893);
#742=AXIS2_PLACEMENT_3D('',#1086,#894,#895);
#743=AXIS2_PLACEMENT_3D('',#1087,#896,#897);
#744=AXIS2_PLACEMENT_3D('',#1097,#903,#904);
#745=AXIS2_PLACEMENT_3D('',#1103,#908,#909);
#746=AXIS2_PLACEMENT_3D('',#1109,#913,#914);
#747=AXIS2_PLACEMENT_3D('',#1115,#918,#919);
#748=AXIS2_PLACEMENT_3D('',#1121,#923,#924);
#749=AXIS2_PLACEMENT_3D('',#1124,#927,#928);
#750=AXIS2_PLACEMENT_3D('',#1126,#930,#931);
#751=AXIS2_PLACEMENT_3D('',#1128,#933,#934);
#752=AXIS2_PLACEMENT_3D('',#1129,#935,#936);
#753=AXIS2_PLACEMENT_3D('',#1130,#937,#938);
#754=AXIS2_PLACEMENT_3D('',#1131,#939,#940);
#755=DIRECTION('axis',(0.,0.,1.));
#756=DIRECTION('refdir',(1.,0.,0.));
#757=DIRECTION('center_axis',(0.,1.,0.));
#758=DIRECTION('ref_axis',(1.,0.,0.));
#759=DIRECTION('center_axis',(0.,-1.,0.));
#760=DIRECTION('ref_axis',(1.,0.,0.));
#761=DIRECTION('',(0.,1.,0.));
#762=DIRECTION('center_axis',(0.,-1.,0.));
#763=DIRECTION('ref_axis',(1.,0.,0.));
#764=DIRECTION('center_axis',(0.,1.,0.));
#765=DIRECTION('ref_axis',(1.,0.,0.));
#766=DIRECTION('center_axis',(0.,-1.,0.));
#767=DIRECTION('ref_axis',(1.,0.,0.));
#768=DIRECTION('',(0.,1.,0.));
#769=DIRECTION('center_axis',(0.,-1.,0.));
#770=DIRECTION('ref_axis',(1.,0.,0.));
#771=DIRECTION('center_axis',(0.,1.,0.));
#772=DIRECTION('ref_axis',(6.12323399573677E-17,0.,1.));
#773=DIRECTION('center_axis',(0.,1.,0.));
#774=DIRECTION('ref_axis',(1.,0.,0.));
#775=DIRECTION('center_axis',(0.,1.,0.));
#776=DIRECTION('ref_axis',(1.,0.,0.));
#777=DIRECTION('',(0.,1.,0.));
#778=DIRECTION('center_axis',(0.,-1.,0.));
#779=DIRECTION('ref_axis',(1.,0.,0.));
#780=DIRECTION('',(0.,1.,0.));
#781=DIRECTION('center_axis',(0.,1.,0.));
#782=DIRECTION('ref_axis',(2.83276944882399E-16,0.,-1.));
#783=DIRECTION('center_axis',(0.,1.,0.));
#784=DIRECTION('ref_axis',(1.,0.,0.));
#785=DIRECTION('center_axis',(0.,-1.,0.));
#786=DIRECTION('ref_axis',(1.,0.,0.));
#787=DIRECTION('center_axis',(0.,1.,0.));
#788=DIRECTION('ref_axis',(0.,0.,1.));
#789=DIRECTION('',(0.,0.,1.));
#790=DIRECTION('',(-1.,0.,0.));
#791=DIRECTION('',(0.,0.,-1.));
#792=DIRECTION('',(1.,0.,0.));
#793=DIRECTION('',(1.,0.,0.));
#794=DIRECTION('center_axis',(0.,0.,-1.));
#795=DIRECTION('ref_axis',(-1.,0.,0.));
#796=DIRECTION('',(-1.,0.,0.));
#797=DIRECTION('',(0.,1.,0.));
#798=DIRECTION('',(0.,1.,0.));
#799=DIRECTION('center_axis',(0.,0.,1.));
#800=DIRECTION('ref_axis',(1.,0.,0.));
#801=DIRECTION('',(1.,0.,0.));
#802=DIRECTION('',(0.,1.,0.));
#803=DIRECTION('',(0.,1.,0.));
#804=DIRECTION('center_axis',(0.,1.,0.));
#805=DIRECTION('ref_axis',(0.,0.,1.));
#806=DIRECTION('',(0.,0.,1.));
#807=DIRECTION('',(-1.,0.,3.5527136788005E-16));
#808=DIRECTION('',(0.,0.,-1.));
#809=DIRECTION('center_axis',(0.,1.,0.));
#810=DIRECTION('ref_axis',(0.,0.,1.));
#811=DIRECTION('',(0.,0.,-1.));
#812=DIRECTION('',(1.,0.,0.));
#813=DIRECTION('',(0.,0.,1.));
#814=DIRECTION('center_axis',(0.,0.,1.));
#815=DIRECTION('ref_axis',(1.,0.,0.));
#816=DIRECTION('',(1.,0.,0.));
#817=DIRECTION('',(0.,1.,0.));
#818=DIRECTION('',(0.,1.,0.));
#819=DIRECTION('center_axis',(-1.,0.,0.));
#820=DIRECTION('ref_axis',(0.,0.,1.));
#821=DIRECTION('',(0.,0.,1.));
#822=DIRECTION('',(0.,1.,0.));
#823=DIRECTION('center_axis',(-3.5527136788005E-16,0.,-1.));
#824=DIRECTION('ref_axis',(-1.,0.,3.5527136788005E-16));
#825=DIRECTION('',(-1.,0.,3.5527136788005E-16));
#826=DIRECTION('',(0.,1.,0.));
#827=DIRECTION('center_axis',(1.,0.,0.));
#828=DIRECTION('ref_axis',(0.,0.,-1.));
#829=DIRECTION('',(0.,0.,-1.));
#830=DIRECTION('center_axis',(0.,1.,0.));
#831=DIRECTION('ref_axis',(1.,0.,0.));
#832=DIRECTION('',(-1.,0.,0.));
#833=DIRECTION('',(0.,0.,1.));
#834=DIRECTION('center_axis',(0.,-1.,0.));
#835=DIRECTION('ref_axis',(-1.,0.,1.39322105051E-16));
#836=DIRECTION('',(0.,0.,-1.));
#837=DIRECTION('',(1.,0.,0.));
#838=DIRECTION('',(0.,0.,-1.));
#839=DIRECTION('center_axis',(0.,1.,0.));
#840=DIRECTION('ref_axis',(0.242535625036333,0.,0.970142500145332));
#841=DIRECTION('',(0.,-1.,0.));
#842=DIRECTION('center_axis',(0.,1.,0.));
#843=DIRECTION('ref_axis',(-1.,0.,1.39322105051E-16));
#844=DIRECTION('',(0.,1.,0.));
#845=DIRECTION('center_axis',(-1.,0.,0.));
#846=DIRECTION('ref_axis',(0.,0.,1.));
#847=DIRECTION('',(0.,0.,1.));
#848=DIRECTION('',(0.,1.,0.));
#849=DIRECTION('center_axis',(1.,0.,0.));
#850=DIRECTION('ref_axis',(0.,0.,-1.));
#851=DIRECTION('',(0.,-1.,0.));
#852=DIRECTION('',(0.,0.,-1.));
#853=DIRECTION('center_axis',(0.,1.,0.));
#854=DIRECTION('ref_axis',(1.,0.,0.));
#855=DIRECTION('',(0.,0.,1.));
#856=DIRECTION('',(-1.,0.,0.));
#857=DIRECTION('',(1.,0.,0.));
#858=DIRECTION('center_axis',(0.,0.,1.));
#859=DIRECTION('ref_axis',(1.,0.,0.));
#860=DIRECTION('center_axis',(0.,0.,1.));
#861=DIRECTION('ref_axis',(1.,0.,0.));
#862=DIRECTION('',(-1.,0.,0.));
#863=DIRECTION('',(0.,1.,0.));
#864=DIRECTION('',(1.,0.,0.));
#865=DIRECTION('',(0.,-1.,0.));
#866=DIRECTION('center_axis',(0.,0.,-1.));
#867=DIRECTION('ref_axis',(-1.,0.,0.));
#868=DIRECTION('center_axis',(0.,0.,1.));
#869=DIRECTION('ref_axis',(-1.,0.,0.));
#870=DIRECTION('',(0.,0.,-1.));
#871=DIRECTION('center_axis',(0.,0.,-1.));
#872=DIRECTION('ref_axis',(-1.,0.,0.));
#873=DIRECTION('center_axis',(0.,0.,-1.));
#874=DIRECTION('ref_axis',(-1.,0.,0.));
#875=DIRECTION('center_axis',(0.,0.,1.));
#876=DIRECTION('ref_axis',(-1.,0.,0.));
#877=DIRECTION('',(0.,0.,-1.));
#878=DIRECTION('center_axis',(0.,0.,-1.));
#879=DIRECTION('ref_axis',(-1.,0.,0.));
#880=DIRECTION('center_axis',(0.,0.,-1.));
#881=DIRECTION('ref_axis',(-6.12323399573677E-17,-1.,0.));
#882=DIRECTION('center_axis',(0.,0.,-1.));
#883=DIRECTION('ref_axis',(-1.,0.,0.));
#884=DIRECTION('center_axis',(0.,0.,-1.));
#885=DIRECTION('ref_axis',(-1.,0.,0.));
#886=DIRECTION('',(0.,0.,-1.));
#887=DIRECTION('center_axis',(0.,0.,1.));
#888=DIRECTION('ref_axis',(-1.,0.,0.));
#889=DIRECTION('',(0.,0.,-1.));
#890=DIRECTION('center_axis',(0.,0.,-1.));
#891=DIRECTION('ref_axis',(-5.0532154980743E-16,1.,0.));
#892=DIRECTION('center_axis',(0.,0.,-1.));
#893=DIRECTION('ref_axis',(-1.,0.,0.));
#894=DIRECTION('center_axis',(0.,0.,1.));
#895=DIRECTION('ref_axis',(-1.,0.,0.));
#896=DIRECTION('center_axis',(0.,0.,-1.));
#897=DIRECTION('ref_axis',(-1.,0.,0.));
#898=DIRECTION('',(0.,-1.,0.));
#899=DIRECTION('',(1.,0.,0.));
#900=DIRECTION('',(0.,1.,0.));
#901=DIRECTION('',(-1.,0.,0.));
#902=DIRECTION('',(-1.,0.,0.));
#903=DIRECTION('center_axis',(0.,1.,0.));
#904=DIRECTION('ref_axis',(1.,0.,0.));
#905=DIRECTION('',(1.,0.,0.));
#906=DIRECTION('',(0.,0.,-1.));
#907=DIRECTION('',(0.,0.,-1.));
#908=DIRECTION('center_axis',(0.,-1.,0.));
#909=DIRECTION('ref_axis',(-1.,0.,0.));
#910=DIRECTION('',(-1.,0.,0.));
#911=DIRECTION('',(0.,0.,-1.));
#912=DIRECTION('',(0.,0.,-1.));
#913=DIRECTION('center_axis',(0.,0.,-1.));
#914=DIRECTION('ref_axis',(-1.,0.,0.));
#915=DIRECTION('',(0.,-1.,0.));
#916=DIRECTION('',(1.,0.,0.));
#917=DIRECTION('',(0.,1.,0.));
#918=DIRECTION('center_axis',(0.,0.,-1.));
#919=DIRECTION('ref_axis',(-1.,0.,0.));
#920=DIRECTION('',(0.,1.,0.));
#921=DIRECTION('',(-1.,0.,0.));
#922=DIRECTION('',(0.,-1.,0.));
#923=DIRECTION('center_axis',(0.,-1.,0.));
#924=DIRECTION('ref_axis',(-1.,0.,0.));
#925=DIRECTION('',(0.,0.,-1.));
#926=DIRECTION('',(0.,0.,-1.));
#927=DIRECTION('center_axis',(1.,0.,0.));
#928=DIRECTION('ref_axis',(0.,-1.,0.));
#929=DIRECTION('',(0.,0.,-1.));
#930=DIRECTION('center_axis',(0.,1.,0.));
#931=DIRECTION('ref_axis',(1.,0.,0.));
#932=DIRECTION('',(0.,0.,-1.));
#933=DIRECTION('center_axis',(-1.,0.,0.));
#934=DIRECTION('ref_axis',(0.,1.,0.));
#935=DIRECTION('center_axis',(0.,0.,1.));
#936=DIRECTION('ref_axis',(1.,0.,0.));
#937=DIRECTION('center_axis',(0.,0.,1.));
#938=DIRECTION('ref_axis',(1.,0.,0.));
#939=DIRECTION('center_axis',(0.,0.,1.));
#940=DIRECTION('ref_axis',(1.,0.,0.));
#941=CARTESIAN_POINT('',(0.,0.,0.));
#942=CARTESIAN_POINT('Origin',(-48.125,-2.,56.5862969191051));
#943=CARTESIAN_POINT('',(-49.16275,-2.,56.5862969191051));
#944=CARTESIAN_POINT('Origin',(-48.125,-2.,56.5862969191051));
#945=CARTESIAN_POINT('',(-49.16275,5.,56.5862969191051));
#946=CARTESIAN_POINT('',(-49.16275,-2.,56.5862969191051));
#947=CARTESIAN_POINT('Origin',(-48.125,5.,56.5862969191051));
#948=CARTESIAN_POINT('Origin',(-48.125,-2.,27.5862969191051));
#949=CARTESIAN_POINT('',(-49.16275,-2.,27.5862969191051));
#950=CARTESIAN_POINT('Origin',(-48.125,-2.,27.5862969191051));
#951=CARTESIAN_POINT('',(-49.16275,5.,27.5862969191051));
#952=CARTESIAN_POINT('',(-49.16275,-2.,27.5862969191051));
#953=CARTESIAN_POINT('Origin',(-48.125,5.,27.5862969191051));
#954=CARTESIAN_POINT('Origin',(-48.125,-1.,48.0862969191051));
#955=CARTESIAN_POINT('',(-48.125,-1.,54.0862969191051));
#956=CARTESIAN_POINT('',(-45.8173076923077,-1.,42.5478353806435));
#957=CARTESIAN_POINT('Origin',(-48.125,-1.,48.0862969191051));
#958=CARTESIAN_POINT('',(-50.4326923076923,-1.,42.5478353806435));
#959=CARTESIAN_POINT('Origin',(-48.125,-1.,48.0862969191051));
#960=CARTESIAN_POINT('',(-50.4326923076923,5.,42.5478353806435));
#961=CARTESIAN_POINT('',(-50.4326923076923,-1.,42.5478353806435));
#962=CARTESIAN_POINT('',(-45.8173076923077,5.,42.5478353806435));
#963=CARTESIAN_POINT('Origin',(-48.125,5.,48.0862969191051));
#964=CARTESIAN_POINT('',(-45.8173076923077,-1.,42.5478353806435));
#965=CARTESIAN_POINT('Origin',(-48.125,-1.,41.5862969191051));
#966=CARTESIAN_POINT('Origin',(-48.125,-1.,41.5862969191051));
#967=CARTESIAN_POINT('Origin',(-48.125,5.,41.5862969191051));
#968=CARTESIAN_POINT('Origin',(-48.125,-1.,42.0862969191051));
#969=CARTESIAN_POINT('',(-54.375,-1.,30.0862969191051));
#970=CARTESIAN_POINT('',(-54.375,-1.,54.0862969191051));
#971=CARTESIAN_POINT('',(-54.375,-1.,59.0862969191051));
#972=CARTESIAN_POINT('',(-41.875,-1.,30.0862969191051));
#973=CARTESIAN_POINT('',(-54.375,-1.,30.0862969191051));
#974=CARTESIAN_POINT('',(-41.875,-1.,54.0862969191051));
#975=CARTESIAN_POINT('',(-41.875,-1.,25.0862969191051));
#976=CARTESIAN_POINT('',(-54.375,-1.,54.0862969191051));
#977=CARTESIAN_POINT('',(-54.375,-1.,54.0862969191051));
#978=CARTESIAN_POINT('Origin',(-41.875,-2.,30.0862969191051));
#979=CARTESIAN_POINT('',(-41.875,-2.,30.0862969191051));
#980=CARTESIAN_POINT('',(-54.375,-2.,30.0862969191051));
#981=CARTESIAN_POINT('',(-45.,-2.,30.0862969191051));
#982=CARTESIAN_POINT('',(-41.875,-2.,30.0862969191051));
#983=CARTESIAN_POINT('',(-54.375,-2.,30.0862969191051));
#984=CARTESIAN_POINT('Origin',(-54.375,-2.,54.0862969191051));
#985=CARTESIAN_POINT('',(-54.375,-2.,54.0862969191051));
#986=CARTESIAN_POINT('',(-41.875,-2.,54.0862969191051));
#987=CARTESIAN_POINT('',(-51.25,-2.,54.0862969191051));
#988=CARTESIAN_POINT('',(-54.375,-2.,54.0862969191051));
#989=CARTESIAN_POINT('',(-41.875,-2.,54.0862969191051));
#990=CARTESIAN_POINT('Origin',(-48.125,-2.,42.0862969191051));
#991=CARTESIAN_POINT('',(-54.375,-2.,25.0862969191051));
#992=CARTESIAN_POINT('',(-54.375,-2.,59.0862969191051));
#993=CARTESIAN_POINT('',(-41.875,-2.,25.0862969191051));
#994=CARTESIAN_POINT('',(-54.375,-2.,25.0862969191051));
#995=CARTESIAN_POINT('',(-41.875,-2.,25.0862969191051));
#996=CARTESIAN_POINT('Origin',(-48.125,-2.,42.0862969191051));
#997=CARTESIAN_POINT('',(-41.875,-2.,59.0862969191051));
#998=CARTESIAN_POINT('',(-41.875,-2.,25.0862969191051));
#999=CARTESIAN_POINT('',(-54.375,-2.,59.0862969191051));
#1000=CARTESIAN_POINT('',(-41.875,-2.,59.0862969191051));
#1001=CARTESIAN_POINT('',(-54.375,-2.,59.0862969191051));
#1002=CARTESIAN_POINT('Origin',(-54.375,-5.,59.0862969191051));
#1003=CARTESIAN_POINT('',(-54.375,-5.,59.0862969191051));
#1004=CARTESIAN_POINT('',(-41.875,-5.,59.0862969191051));
#1005=CARTESIAN_POINT('',(-51.25,-5.,59.0862969191051));
#1006=CARTESIAN_POINT('',(-54.375,-5.,59.0862969191051));
#1007=CARTESIAN_POINT('',(-41.875,-5.,59.0862969191051));
#1008=CARTESIAN_POINT('Origin',(-54.375,-5.,25.0862969191051));
#1009=CARTESIAN_POINT('',(-54.375,-5.,25.0862969191051));
#1010=CARTESIAN_POINT('',(-54.375,-5.,30.5118984595525));
#1011=CARTESIAN_POINT('',(-54.375,-5.,25.0862969191051));
#1012=CARTESIAN_POINT('Origin',(-41.875,-5.,25.0862969191051));
#1013=CARTESIAN_POINT('',(-41.875,-5.,25.0862969191051));
#1014=CARTESIAN_POINT('',(-45.,-5.,25.0862969191051));
#1015=CARTESIAN_POINT('',(-41.875,-5.,25.0862969191051));
#1016=CARTESIAN_POINT('Origin',(-41.875,-5.,59.0862969191051));
#1017=CARTESIAN_POINT('',(-41.875,-5.,47.5118984595525));
#1018=CARTESIAN_POINT('Origin',(-48.125,-5.,35.9375));
#1019=CARTESIAN_POINT('',(-20.,-5.,10.));
#1020=CARTESIAN_POINT('',(-49.749371855331,-5.,10.));
#1021=CARTESIAN_POINT('',(-24.0625,-5.,10.));
#1022=CARTESIAN_POINT('',(-20.,-5.,25.));
#1023=CARTESIAN_POINT('',(-20.,-5.,25.));
#1024=CARTESIAN_POINT('',(-80.,-5.,40.));
#1025=CARTESIAN_POINT('Origin',(-48.125,-5.,40.));
#1026=CARTESIAN_POINT('',(-80.,-5.,0.));
#1027=CARTESIAN_POINT('',(-80.,-5.,0.));
#1028=CARTESIAN_POINT('',(-49.749371855331,-5.,0.));
#1029=CARTESIAN_POINT('',(-20.,-5.,0.));
#1030=CARTESIAN_POINT('',(-49.749371855331,-5.,0.));
#1031=CARTESIAN_POINT('Origin',(-48.125,0.,40.));
#1032=CARTESIAN_POINT('',(-20.,5.,25.));
#1033=CARTESIAN_POINT('',(-20.,0.,25.));
#1034=CARTESIAN_POINT('',(-80.,5.,40.));
#1035=CARTESIAN_POINT('Origin',(-48.125,5.,40.));
#1036=CARTESIAN_POINT('',(-80.,0.,40.));
#1037=CARTESIAN_POINT('Origin',(-80.,0.,0.));
#1038=CARTESIAN_POINT('',(-80.,5.,0.));
#1039=CARTESIAN_POINT('',(-80.,5.,0.));
#1040=CARTESIAN_POINT('',(-80.,0.,0.));
#1041=CARTESIAN_POINT('Origin',(-20.,0.,25.));
#1042=CARTESIAN_POINT('',(-20.,5.,10.));
#1043=CARTESIAN_POINT('',(-20.,0.,10.));
#1044=CARTESIAN_POINT('',(-20.,5.,25.));
#1045=CARTESIAN_POINT('Origin',(-48.125,5.,35.9375));
#1046=CARTESIAN_POINT('',(-49.749371855331,5.,0.));
#1047=CARTESIAN_POINT('',(-49.749371855331,5.,10.));
#1048=CARTESIAN_POINT('',(-49.749371855331,5.,0.));
#1049=CARTESIAN_POINT('',(-20.,5.,0.));
#1050=CARTESIAN_POINT('',(-24.0625,5.,10.));
#1051=CARTESIAN_POINT('Origin',(0.,0.,10.));
#1052=CARTESIAN_POINT('Origin',(0.,0.,10.));
#1053=CARTESIAN_POINT('',(6.25,-17.,10.));
#1054=CARTESIAN_POINT('',(-6.25,-17.,10.));
#1055=CARTESIAN_POINT('',(3.125,-17.,10.));
#1056=CARTESIAN_POINT('',(-6.25,17.,10.));
#1057=CARTESIAN_POINT('',(-6.25,-8.5,10.));
#1058=CARTESIAN_POINT('',(6.25,17.,10.));
#1059=CARTESIAN_POINT('',(-3.125,17.,10.));
#1060=CARTESIAN_POINT('',(6.25,8.5,10.));
#1061=CARTESIAN_POINT('Origin',(-0.031998051228701,-14.5,7.));
#1062=CARTESIAN_POINT('',(1.0057519487713,-14.5,7.));
#1063=CARTESIAN_POINT('Origin',(-0.031998051228701,-14.5,7.));
#1064=CARTESIAN_POINT('',(1.0057519487713,-14.5,0.));
#1065=CARTESIAN_POINT('',(1.0057519487713,-14.5,7.));
#1066=CARTESIAN_POINT('Origin',(-0.031998051228701,-14.5,0.));
#1067=CARTESIAN_POINT('Origin',(0.0211661391077519,14.5,7.));
#1068=CARTESIAN_POINT('',(1.05891613910775,14.5,7.));
#1069=CARTESIAN_POINT('Origin',(0.0211661391077519,14.5,7.));
#1070=CARTESIAN_POINT('',(1.05891613910775,14.5,0.));
#1071=CARTESIAN_POINT('',(1.05891613910775,14.5,7.));
#1072=CARTESIAN_POINT('Origin',(0.0211661391077519,14.5,0.));
#1073=CARTESIAN_POINT('Origin',(0.,-6.,6.));
#1074=CARTESIAN_POINT('',(0.,-12.,6.));
#1075=CARTESIAN_POINT('',(-2.30769230769231,-0.461538461538464,6.));
#1076=CARTESIAN_POINT('Origin',(0.,-6.,6.));
#1077=CARTESIAN_POINT('',(2.30769230769231,-0.461538461538463,6.));
#1078=CARTESIAN_POINT('Origin',(0.,-6.,6.));
#1079=CARTESIAN_POINT('',(2.30769230769231,-0.461538461538463,-1.11022302462516E-15));
#1080=CARTESIAN_POINT('',(2.30769230769231,-0.461538461538463,6.));
#1081=CARTESIAN_POINT('',(-2.30769230769231,-0.461538461538464,-1.11022302462516E-15));
#1082=CARTESIAN_POINT('Origin',(0.,-6.,0.));
#1083=CARTESIAN_POINT('',(-2.30769230769231,-0.461538461538464,6.));
#1084=CARTESIAN_POINT('Origin',(0.,0.499999999999997,6.));
#1085=CARTESIAN_POINT('Origin',(0.,0.499999999999997,6.));
#1086=CARTESIAN_POINT('Origin',(0.,0.499999999999997,0.));
#1087=CARTESIAN_POINT('Origin',(0.,0.,6.));
#1088=CARTESIAN_POINT('',(6.25,12.,6.));
#1089=CARTESIAN_POINT('',(6.25,-12.,6.));
#1090=CARTESIAN_POINT('',(6.25,-17.,6.));
#1091=CARTESIAN_POINT('',(-6.25,12.,6.));
#1092=CARTESIAN_POINT('',(6.25,12.,6.));
#1093=CARTESIAN_POINT('',(-6.25,-12.,6.));
#1094=CARTESIAN_POINT('',(-6.25,17.,6.));
#1095=CARTESIAN_POINT('',(6.25,-12.,6.));
#1096=CARTESIAN_POINT('',(6.25,-12.,6.));
#1097=CARTESIAN_POINT('Origin',(-6.25,12.,7.));
#1098=CARTESIAN_POINT('',(-6.25,12.,7.));
#1099=CARTESIAN_POINT('',(6.25,12.,7.));
#1100=CARTESIAN_POINT('',(-3.125,12.,7.));
#1101=CARTESIAN_POINT('',(-6.25,12.,7.));
#1102=CARTESIAN_POINT('',(6.25,12.,7.));
#1103=CARTESIAN_POINT('Origin',(6.25,-12.,7.));
#1104=CARTESIAN_POINT('',(6.25,-12.,7.));
#1105=CARTESIAN_POINT('',(-6.25,-12.,7.));
#1106=CARTESIAN_POINT('',(3.125,-12.,7.));
#1107=CARTESIAN_POINT('',(6.25,-12.,7.));
#1108=CARTESIAN_POINT('',(-6.25,-12.,7.));
#1109=CARTESIAN_POINT('Origin',(0.,0.,7.));
#1110=CARTESIAN_POINT('',(6.25,17.,7.));
#1111=CARTESIAN_POINT('',(6.25,-17.,7.));
#1112=CARTESIAN_POINT('',(-6.25,17.,7.));
#1113=CARTESIAN_POINT('',(6.25,17.,7.));
#1114=CARTESIAN_POINT('',(-6.25,17.,7.));
#1115=CARTESIAN_POINT('Origin',(0.,0.,7.));
#1116=CARTESIAN_POINT('',(-6.25,-17.,7.));
#1117=CARTESIAN_POINT('',(-6.25,17.,7.));
#1118=CARTESIAN_POINT('',(6.25,-17.,7.));
#1119=CARTESIAN_POINT('',(-6.25,-17.,7.));
#1120=CARTESIAN_POINT('',(6.25,-17.,7.));
#1121=CARTESIAN_POINT('Origin',(6.25,-17.,10.));
#1122=CARTESIAN_POINT('',(6.25,-17.,10.));
#1123=CARTESIAN_POINT('',(-6.25,-17.,10.));
#1124=CARTESIAN_POINT('Origin',(6.25,17.,10.));
#1125=CARTESIAN_POINT('',(6.25,17.,10.));
#1126=CARTESIAN_POINT('Origin',(-6.25,17.,10.));
#1127=CARTESIAN_POINT('',(-6.25,17.,10.));
#1128=CARTESIAN_POINT('Origin',(-6.25,-17.,10.));
#1129=CARTESIAN_POINT('Origin',(0.,0.,0.));
#1130=CARTESIAN_POINT('Origin',(0.,0.,0.));
#1131=CARTESIAN_POINT('Origin',(0.,0.,0.));
#1132=UNCERTAINTY_MEASURE_WITH_UNIT(LENGTH_MEASURE(0.01),#1136,
'DISTANCE_ACCURACY_VALUE',
'Maximum model space distance between geometric entities at asserted c
onnectivities');
#1133=UNCERTAINTY_MEASURE_WITH_UNIT(LENGTH_MEASURE(0.01),#1136,
'DISTANCE_ACCURACY_VALUE',
'Maximum model space distance between geometric entities at asserted c
onnectivities');
#1134=(
GEOMETRIC_REPRESENTATION_CONTEXT(3)
GLOBAL_UNCERTAINTY_ASSIGNED_CONTEXT((#1132))
GLOBAL_UNIT_ASSIGNED_CONTEXT((#1136,#1138,#1139))
REPRESENTATION_CONTEXT('','3D')
);
#1135=(
GEOMETRIC_REPRESENTATION_CONTEXT(3)
GLOBAL_UNCERTAINTY_ASSIGNED_CONTEXT((#1133))
GLOBAL_UNIT_ASSIGNED_CONTEXT((#1136,#1138,#1139))
REPRESENTATION_CONTEXT('','3D')
);
#1136=(
LENGTH_UNIT()
NAMED_UNIT(*)
SI_UNIT(.MILLI.,.METRE.)
);
#1137=(
LENGTH_UNIT()
NAMED_UNIT(*)
SI_UNIT($,.METRE.)
);
#1138=(
NAMED_UNIT(*)
PLANE_ANGLE_UNIT()
SI_UNIT($,.RADIAN.)
);
#1139=(
NAMED_UNIT(*)
SI_UNIT($,.STERADIAN.)
SOLID_ANGLE_UNIT()
);
#1140=SHAPE_DEFINITION_REPRESENTATION(#1141,#1142);
#1141=PRODUCT_DEFINITION_SHAPE('',$,#1144);
#1142=SHAPE_REPRESENTATION('',(#698),#1134);
#1143=PRODUCT_DEFINITION_CONTEXT('part definition',#1148,'design');
#1144=PRODUCT_DEFINITION('2026-08-18-19-02-15-496','Base Link',#1145,#1143);
#1145=PRODUCT_DEFINITION_FORMATION('',$,#1150);
#1146=PRODUCT_RELATED_PRODUCT_CATEGORY('Base Link','Base Link',(#1150));
#1147=APPLICATION_PROTOCOL_DEFINITION('international standard',
'automotive_design',2009,#1148);
#1148=APPLICATION_CONTEXT(
'Core Data for Automotive Mechanical Design Process');
#1149=PRODUCT_CONTEXT('part definition',#1148,'mechanical');
#1150=PRODUCT('2026-08-18-19-02-15-496','Base Link',$,(#1149));
#1151=PRESENTATION_STYLE_ASSIGNMENT((#1152));
#1152=SURFACE_STYLE_USAGE(.BOTH.,#1153);
#1153=SURFACE_SIDE_STYLE('',(#1154));
#1154=SURFACE_STYLE_FILL_AREA(#1155);
#1155=FILL_AREA_STYLE('Steel - Satin',(#1156));
#1156=FILL_AREA_STYLE_COLOUR('Steel - Satin',#1157);
#1157=COLOUR_RGB('Steel - Satin',0.627450980392157,0.627450980392157,0.627450980392157);
ENDSEC;
END-ISO-10303-21;
